<svg width="160" height="160" viewBox="0 0 160 160" fill="none" xmlns="http://www.w3.org/2000/svg">
<path d="M84.3049 149.868C84.6439 155.38 80.4368 160.189 74.9251 159.838C63.6115 159.118 52.5401 155.998 42.4625 150.642C32.385 145.286 23.605 137.855 16.6782 128.881C13.3037 124.509 14.9357 118.332 19.6943 115.529C24.4529 112.725 30.5252 114.38 34.079 118.608C39.0068 124.47 45.032 129.359 51.8489 132.982C58.6657 136.605 66.0889 138.864 73.7048 139.668C79.1971 140.248 83.9659 144.356 84.3049 149.868Z" fill="#FF414B"/>
<path d="M137.841 119.438C142.404 122.549 143.624 128.821 139.968 132.961C132.05 141.925 122.192 149.033 111.093 153.714C99.9946 158.394 88.0237 160.491 76.0776 159.903C70.5614 159.632 66.922 154.381 67.8789 148.941C68.8358 143.502 74.0364 139.957 79.5591 139.998C87.6835 140.059 95.7718 138.469 103.322 135.285C110.872 132.101 117.656 127.419 123.284 121.559C127.109 117.576 133.278 116.326 137.841 119.438Z" fill="#00997E"/>
<path d="M148.692 66.4928C154.111 65.4271 159.435 68.9607 159.817 74.4704C160.629 86.1953 158.85 97.9986 154.556 109.027C150.262 120.055 143.591 129.953 135.064 138.042C131.057 141.843 124.745 140.846 121.474 136.396C118.202 131.947 119.232 125.738 123.077 121.774C128.626 116.053 133.003 109.259 135.919 101.77C138.835 94.2815 140.204 86.3163 139.985 78.3498C139.833 72.829 143.273 67.5585 148.692 66.4928Z" fill="#4ABDE8"/>
<path d="M51.7096 15.9749C49.4769 10.9235 51.7518 4.95266 57.0422 3.36722C67.0916 0.355564 77.6681 -0.659505 88.169 0.417374C101.997 1.83548 115.218 6.83237 126.527 14.9156C137.836 22.9988 146.844 33.8893 152.662 46.5139C157.081 56.1007 159.545 66.4361 159.949 76.9194C160.161 82.4381 155.248 86.5235 149.746 86.0464C144.244 85.5694 140.257 80.6992 139.815 75.1941C139.252 68.1904 137.461 61.3135 134.499 54.8854C130.135 45.417 123.379 37.2491 114.897 31.1867C106.415 25.1243 96.5 21.3766 86.1287 20.313C79.0876 19.591 72.0013 20.1229 65.1926 21.8578C59.8408 23.2215 53.9423 21.0264 51.7096 15.9749Z" fill="#FFAE41"/>
<path d="M30.5103 129.497C26.6051 133.403 20.2157 133.436 16.8278 129.074C9.35982 119.46 4.15655 108.23 1.66999 96.223C-1.49522 80.9388 -0.120186 65.0625 5.62569 50.55C11.3716 36.0376 21.2373 23.523 34.0074 14.548C44.0395 7.49734 55.5198 2.87313 67.5453 0.976621C73.0007 0.116262 77.6356 4.51442 77.8091 10.0345C77.9825 15.5547 73.6151 20.0864 68.2002 21.1733C60.0779 22.8036 52.3443 26.106 45.5075 30.911C35.9299 37.6423 28.5306 47.0282 24.2212 57.9125C19.9118 68.7969 18.8805 80.7041 21.2544 92.1672C22.949 100.35 26.3259 108.051 31.1308 114.8C34.334 119.299 34.4156 125.592 30.5103 129.497Z" fill="#5655D7"/>
</svg>
