<svg width="686" height="299" viewBox="0 0 686 299" fill="none" xmlns="http://www.w3.org/2000/svg">
<path d="M8.96348 16L8.97848 6.295L9.11348 5.5H10.4185L10.4035 16H8.96348ZM6.65348 8.365V7.03C6.87348 7.04 7.12848 6.97 7.41848 6.82C7.71848 6.67 8.01848 6.475 8.31848 6.235C8.61848 5.995 8.88348 5.745 9.11348 5.485L10.0285 6.475C9.68848 6.835 9.33348 7.16 8.96348 7.45C8.59348 7.74 8.21348 7.97 7.82348 8.14C7.44348 8.31 7.05348 8.385 6.65348 8.365ZM12.6087 17.725L13.4787 14.455H15.0237L13.7637 17.725H12.6087ZM20.399 16.18C19.589 16.18 18.869 15.95 18.239 15.49C17.609 15.02 17.114 14.38 16.754 13.57C16.404 12.75 16.229 11.81 16.229 10.75C16.229 9.69 16.404 8.755 16.754 7.945C17.114 7.125 17.604 6.485 18.224 6.025C18.854 5.555 19.579 5.32 20.399 5.32C21.219 5.32 21.939 5.555 22.559 6.025C23.189 6.485 23.684 7.125 24.044 7.945C24.404 8.755 24.584 9.69 24.584 10.75C24.584 11.81 24.404 12.75 24.044 13.57C23.694 14.38 23.204 15.02 22.574 15.49C21.944 15.95 21.219 16.18 20.399 16.18ZM20.399 14.83C20.929 14.83 21.399 14.655 21.809 14.305C22.229 13.955 22.554 13.475 22.784 12.865C23.014 12.255 23.129 11.55 23.129 10.75C23.129 9.95 23.014 9.245 22.784 8.635C22.554 8.015 22.229 7.53 21.809 7.18C21.399 6.83 20.929 6.655 20.399 6.655C19.869 6.655 19.399 6.83 18.989 7.18C18.579 7.53 18.259 8.015 18.029 8.635C17.799 9.245 17.684 9.95 17.684 10.75C17.684 11.55 17.799 12.26 18.029 12.88C18.259 13.49 18.579 13.97 18.989 14.32C19.399 14.66 19.869 14.83 20.399 14.83ZM30.0377 16.18C29.2277 16.18 28.5077 15.95 27.8777 15.49C27.2477 15.02 26.7527 14.38 26.3927 13.57C26.0427 12.75 25.8677 11.81 25.8677 10.75C25.8677 9.69 26.0427 8.755 26.3927 7.945C26.7527 7.125 27.2427 6.485 27.8627 6.025C28.4927 5.555 29.2177 5.32 30.0377 5.32C30.8577 5.32 31.5777 5.555 32.1977 6.025C32.8277 6.485 33.3227 7.125 33.6827 7.945C34.0427 8.755 34.2227 9.69 34.2227 10.75C34.2227 11.81 34.0427 12.75 33.6827 13.57C33.3327 14.38 32.8427 15.02 32.2127 15.49C31.5827 15.95 30.8577 16.18 30.0377 16.18ZM30.0377 14.83C30.5677 14.83 31.0377 14.655 31.4477 14.305C31.8677 13.955 32.1927 13.475 32.4227 12.865C32.6527 12.255 32.7677 11.55 32.7677 10.75C32.7677 9.95 32.6527 9.245 32.4227 8.635C32.1927 8.015 31.8677 7.53 31.4477 7.18C31.0377 6.83 30.5677 6.655 30.0377 6.655C29.5077 6.655 29.0377 6.83 28.6277 7.18C28.2177 7.53 27.8977 8.015 27.6677 8.635C27.4377 9.245 27.3227 9.95 27.3227 10.75C27.3227 11.55 27.4377 12.26 27.6677 12.88C27.8977 13.49 28.2177 13.97 28.6277 14.32C29.0377 14.66 29.5077 14.83 30.0377 14.83ZM39.6763 16.18C38.8663 16.18 38.1463 15.95 37.5163 15.49C36.8863 15.02 36.3913 14.38 36.0313 13.57C35.6813 12.75 35.5063 11.81 35.5063 10.75C35.5063 9.69 35.6813 8.755 36.0313 7.945C36.3913 7.125 36.8813 6.485 37.5013 6.025C38.1313 5.555 38.8563 5.32 39.6763 5.32C40.4963 5.32 41.2163 5.555 41.8363 6.025C42.4663 6.485 42.9613 7.125 43.3213 7.945C43.6813 8.755 43.8613 9.69 43.8613 10.75C43.8613 11.81 43.6813 12.75 43.3213 13.57C42.9713 14.38 42.4813 15.02 41.8513 15.49C41.2213 15.95 40.4963 16.18 39.6763 16.18ZM39.6763 14.83C40.2063 14.83 40.6763 14.655 41.0863 14.305C41.5063 13.955 41.8313 13.475 42.0613 12.865C42.2913 12.255 42.4063 11.55 42.4063 10.75C42.4063 9.95 42.2913 9.245 42.0613 8.635C41.8313 8.015 41.5063 7.53 41.0863 7.18C40.6763 6.83 40.2063 6.655 39.6763 6.655C39.1463 6.655 38.6763 6.83 38.2663 7.18C37.8563 7.53 37.5363 8.015 37.3063 8.635C37.0763 9.245 36.9613 9.95 36.9613 10.75C36.9613 11.55 37.0763 12.26 37.3063 12.88C37.5363 13.49 37.8563 13.97 38.2663 14.32C38.6763 14.66 39.1463 14.83 39.6763 14.83ZM46.87 13.735L45.985 12.76L49.93 8.5H51.67L46.87 13.735ZM45.49 16V5.5H46.915V16H45.49ZM50.245 16L47.485 11.89L48.415 10.9L51.955 16H50.245Z" fill="#808080"/>
<path d="M20.5988 78.18C19.8188 78.18 19.1438 78.06 18.5738 77.82C18.0038 77.57 17.5588 77.23 17.2388 76.8C16.9288 76.36 16.7738 75.85 16.7738 75.27C16.7738 74.66 16.9288 74.125 17.2388 73.665C17.5588 73.195 18.0038 72.83 18.5738 72.57C19.1438 72.31 19.8188 72.185 20.5988 72.195C21.3888 72.185 22.0688 72.31 22.6388 72.57C23.2088 72.83 23.6488 73.195 23.9588 73.665C24.2788 74.125 24.4388 74.66 24.4388 75.27C24.4388 75.85 24.2788 76.36 23.9588 76.8C23.6488 77.23 23.2088 77.57 22.6388 77.82C22.0688 78.06 21.3888 78.18 20.5988 78.18ZM20.5988 76.905C21.2888 76.905 21.8488 76.74 22.2788 76.41C22.7188 76.07 22.9388 75.635 22.9388 75.105C22.9388 74.555 22.7188 74.11 22.2788 73.77C21.8488 73.43 21.2888 73.26 20.5988 73.26C20.1488 73.26 19.7488 73.335 19.3988 73.485C19.0488 73.635 18.7738 73.855 18.5738 74.145C18.3838 74.425 18.2888 74.745 18.2888 75.105C18.2888 75.455 18.3838 75.77 18.5738 76.05C18.7738 76.32 19.0488 76.53 19.3988 76.68C19.7488 76.83 20.1488 76.905 20.5988 76.905ZM20.5988 72.945C19.9088 72.945 19.3038 72.83 18.7838 72.6C18.2638 72.36 17.8588 72.035 17.5688 71.625C17.2888 71.205 17.1488 70.72 17.1488 70.17C17.1488 69.61 17.2888 69.115 17.5688 68.685C17.8588 68.255 18.2638 67.92 18.7838 67.68C19.3038 67.44 19.9088 67.32 20.5988 67.32C21.2988 67.32 21.9088 67.44 22.4288 67.68C22.9488 67.92 23.3488 68.255 23.6288 68.685C23.9188 69.115 24.0638 69.61 24.0638 70.17C24.0638 70.72 23.9188 71.205 23.6288 71.625C23.3488 72.035 22.9488 72.36 22.4288 72.6C21.9088 72.83 21.2988 72.945 20.5988 72.945ZM20.5988 71.955C21.1888 71.955 21.6688 71.805 22.0388 71.505C22.4188 71.195 22.6088 70.8 22.6088 70.32C22.6088 69.8 22.4188 69.38 22.0388 69.06C21.6688 68.73 21.1888 68.565 20.5988 68.565C20.0188 68.565 19.5438 68.73 19.1738 69.06C18.8038 69.38 18.6188 69.8 18.6188 70.32C18.6188 70.8 18.8038 71.195 19.1738 71.505C19.5438 71.805 20.0188 71.955 20.5988 71.955ZM30.0377 78.18C29.2277 78.18 28.5077 77.95 27.8777 77.49C27.2477 77.02 26.7527 76.38 26.3927 75.57C26.0427 74.75 25.8677 73.81 25.8677 72.75C25.8677 71.69 26.0427 70.755 26.3927 69.945C26.7527 69.125 27.2427 68.485 27.8627 68.025C28.4927 67.555 29.2177 67.32 30.0377 67.32C30.8577 67.32 31.5777 67.555 32.1977 68.025C32.8277 68.485 33.3227 69.125 33.6827 69.945C34.0427 70.755 34.2227 71.69 34.2227 72.75C34.2227 73.81 34.0427 74.75 33.6827 75.57C33.3327 76.38 32.8427 77.02 32.2127 77.49C31.5827 77.95 30.8577 78.18 30.0377 78.18ZM30.0377 76.83C30.5677 76.83 31.0377 76.655 31.4477 76.305C31.8677 75.955 32.1927 75.475 32.4227 74.865C32.6527 74.255 32.7677 73.55 32.7677 72.75C32.7677 71.95 32.6527 71.245 32.4227 70.635C32.1927 70.015 31.8677 69.53 31.4477 69.18C31.0377 68.83 30.5677 68.655 30.0377 68.655C29.5077 68.655 29.0377 68.83 28.6277 69.18C28.2177 69.53 27.8977 70.015 27.6677 70.635C27.4377 71.245 27.3227 71.95 27.3227 72.75C27.3227 73.55 27.4377 74.26 27.6677 74.88C27.8977 75.49 28.2177 75.97 28.6277 76.32C29.0377 76.66 29.5077 76.83 30.0377 76.83ZM39.6763 78.18C38.8663 78.18 38.1463 77.95 37.5163 77.49C36.8863 77.02 36.3913 76.38 36.0313 75.57C35.6813 74.75 35.5063 73.81 35.5063 72.75C35.5063 71.69 35.6813 70.755 36.0313 69.945C36.3913 69.125 36.8813 68.485 37.5013 68.025C38.1313 67.555 38.8563 67.32 39.6763 67.32C40.4963 67.32 41.2163 67.555 41.8363 68.025C42.4663 68.485 42.9613 69.125 43.3213 69.945C43.6813 70.755 43.8613 71.69 43.8613 72.75C43.8613 73.81 43.6813 74.75 43.3213 75.57C42.9713 76.38 42.4813 77.02 41.8513 77.49C41.2213 77.95 40.4963 78.18 39.6763 78.18ZM39.6763 76.83C40.2063 76.83 40.6763 76.655 41.0863 76.305C41.5063 75.955 41.8313 75.475 42.0613 74.865C42.2913 74.255 42.4063 73.55 42.4063 72.75C42.4063 71.95 42.2913 71.245 42.0613 70.635C41.8313 70.015 41.5063 69.53 41.0863 69.18C40.6763 68.83 40.2063 68.655 39.6763 68.655C39.1463 68.655 38.6763 68.83 38.2663 69.18C37.8563 69.53 37.5363 70.015 37.3063 70.635C37.0763 71.245 36.9613 71.95 36.9613 72.75C36.9613 73.55 37.0763 74.26 37.3063 74.88C37.5363 75.49 37.8563 75.97 38.2663 76.32C38.6763 76.66 39.1463 76.83 39.6763 76.83ZM46.87 75.735L45.985 74.76L49.93 70.5H51.67L46.87 75.735ZM45.49 78V67.5H46.915V78H45.49ZM50.245 78L47.485 73.89L48.415 72.9L51.955 78H50.245Z" fill="#808080"/>
<path d="M21.1526 140.18C20.4326 140.18 19.8276 140.045 19.3376 139.775C18.8476 139.505 18.4526 139.14 18.1526 138.68C17.8626 138.21 17.6526 137.67 17.5226 137.06C17.3926 136.45 17.3276 135.8 17.3276 135.11C17.3276 134.24 17.4176 133.45 17.5976 132.74C17.7776 132.03 18.0426 131.42 18.3926 130.91C18.7426 130.4 19.1726 130.01 19.6826 129.74C20.1926 129.46 20.7776 129.32 21.4376 129.32C21.9676 129.32 22.4926 129.405 23.0126 129.575C23.5326 129.735 23.9976 129.96 24.4076 130.25L23.6126 131.315C23.2926 131.095 22.9476 130.93 22.5776 130.82C22.2076 130.7 21.8626 130.64 21.5426 130.64C20.5926 130.64 19.8626 131.045 19.3526 131.855C18.8426 132.655 18.6126 133.89 18.6626 135.56L18.3626 135.305C18.6026 134.715 18.9776 134.245 19.4876 133.895C20.0076 133.535 20.6176 133.355 21.3176 133.355C21.9976 133.355 22.5976 133.505 23.1176 133.805C23.6376 134.105 24.0426 134.515 24.3326 135.035C24.6226 135.545 24.7676 136.135 24.7676 136.805C24.7676 137.455 24.6176 138.035 24.3176 138.545C24.0176 139.055 23.5926 139.455 23.0426 139.745C22.5026 140.035 21.8726 140.18 21.1526 140.18ZM21.1676 138.89C21.5776 138.89 21.9426 138.8 22.2626 138.62C22.5826 138.44 22.8326 138.19 23.0126 137.87C23.2026 137.54 23.2976 137.17 23.2976 136.76C23.2976 136.34 23.2026 135.97 23.0126 135.65C22.8326 135.32 22.5826 135.065 22.2626 134.885C21.9426 134.705 21.5776 134.615 21.1676 134.615C20.7476 134.615 20.3726 134.705 20.0426 134.885C19.7226 135.065 19.4676 135.32 19.2776 135.65C19.0976 135.97 19.0076 136.34 19.0076 136.76C19.0076 137.17 19.0976 137.54 19.2776 137.87C19.4676 138.19 19.7226 138.44 20.0426 138.62C20.3726 138.8 20.7476 138.89 21.1676 138.89ZM30.0377 140.18C29.2277 140.18 28.5077 139.95 27.8777 139.49C27.2477 139.02 26.7527 138.38 26.3927 137.57C26.0427 136.75 25.8677 135.81 25.8677 134.75C25.8677 133.69 26.0427 132.755 26.3927 131.945C26.7527 131.125 27.2427 130.485 27.8627 130.025C28.4927 129.555 29.2177 129.32 30.0377 129.32C30.8577 129.32 31.5777 129.555 32.1977 130.025C32.8277 130.485 33.3227 131.125 33.6827 131.945C34.0427 132.755 34.2227 133.69 34.2227 134.75C34.2227 135.81 34.0427 136.75 33.6827 137.57C33.3327 138.38 32.8427 139.02 32.2127 139.49C31.5827 139.95 30.8577 140.18 30.0377 140.18ZM30.0377 138.83C30.5677 138.83 31.0377 138.655 31.4477 138.305C31.8677 137.955 32.1927 137.475 32.4227 136.865C32.6527 136.255 32.7677 135.55 32.7677 134.75C32.7677 133.95 32.6527 133.245 32.4227 132.635C32.1927 132.015 31.8677 131.53 31.4477 131.18C31.0377 130.83 30.5677 130.655 30.0377 130.655C29.5077 130.655 29.0377 130.83 28.6277 131.18C28.2177 131.53 27.8977 132.015 27.6677 132.635C27.4377 133.245 27.3227 133.95 27.3227 134.75C27.3227 135.55 27.4377 136.26 27.6677 136.88C27.8977 137.49 28.2177 137.97 28.6277 138.32C29.0377 138.66 29.5077 138.83 30.0377 138.83ZM39.6763 140.18C38.8663 140.18 38.1463 139.95 37.5163 139.49C36.8863 139.02 36.3913 138.38 36.0313 137.57C35.6813 136.75 35.5063 135.81 35.5063 134.75C35.5063 133.69 35.6813 132.755 36.0313 131.945C36.3913 131.125 36.8813 130.485 37.5013 130.025C38.1313 129.555 38.8563 129.32 39.6763 129.32C40.4963 129.32 41.2163 129.555 41.8363 130.025C42.4663 130.485 42.9613 131.125 43.3213 131.945C43.6813 132.755 43.8613 133.69 43.8613 134.75C43.8613 135.81 43.6813 136.75 43.3213 137.57C42.9713 138.38 42.4813 139.02 41.8513 139.49C41.2213 139.95 40.4963 140.18 39.6763 140.18ZM39.6763 138.83C40.2063 138.83 40.6763 138.655 41.0863 138.305C41.5063 137.955 41.8313 137.475 42.0613 136.865C42.2913 136.255 42.4063 135.55 42.4063 134.75C42.4063 133.95 42.2913 133.245 42.0613 132.635C41.8313 132.015 41.5063 131.53 41.0863 131.18C40.6763 130.83 40.2063 130.655 39.6763 130.655C39.1463 130.655 38.6763 130.83 38.2663 131.18C37.8563 131.53 37.5363 132.015 37.3063 132.635C37.0763 133.245 36.9613 133.95 36.9613 134.75C36.9613 135.55 37.0763 136.26 37.3063 136.88C37.5363 137.49 37.8563 137.97 38.2663 138.32C38.6763 138.66 39.1463 138.83 39.6763 138.83ZM46.87 137.735L45.985 136.76L49.93 132.5H51.67L46.87 137.735ZM45.49 140V129.5H46.915V140H45.49ZM50.245 140L47.485 135.89L48.415 134.9L51.955 140H50.245Z" fill="#808080"/>
<path d="M17.5273 199.075L16.4473 198.43L21.1873 191.5L22.1173 192.34L17.5273 199.075ZM16.4473 199.585V198.43L17.3473 198.28H24.7723V199.585H16.4473ZM21.2923 202V192.4L21.1873 191.5H22.7173V202H21.2923ZM30.0377 202.18C29.2277 202.18 28.5077 201.95 27.8777 201.49C27.2477 201.02 26.7527 200.38 26.3927 199.57C26.0427 198.75 25.8677 197.81 25.8677 196.75C25.8677 195.69 26.0427 194.755 26.3927 193.945C26.7527 193.125 27.2427 192.485 27.8627 192.025C28.4927 191.555 29.2177 191.32 30.0377 191.32C30.8577 191.32 31.5777 191.555 32.1977 192.025C32.8277 192.485 33.3227 193.125 33.6827 193.945C34.0427 194.755 34.2227 195.69 34.2227 196.75C34.2227 197.81 34.0427 198.75 33.6827 199.57C33.3327 200.38 32.8427 201.02 32.2127 201.49C31.5827 201.95 30.8577 202.18 30.0377 202.18ZM30.0377 200.83C30.5677 200.83 31.0377 200.655 31.4477 200.305C31.8677 199.955 32.1927 199.475 32.4227 198.865C32.6527 198.255 32.7677 197.55 32.7677 196.75C32.7677 195.95 32.6527 195.245 32.4227 194.635C32.1927 194.015 31.8677 193.53 31.4477 193.18C31.0377 192.83 30.5677 192.655 30.0377 192.655C29.5077 192.655 29.0377 192.83 28.6277 193.18C28.2177 193.53 27.8977 194.015 27.6677 194.635C27.4377 195.245 27.3227 195.95 27.3227 196.75C27.3227 197.55 27.4377 198.26 27.6677 198.88C27.8977 199.49 28.2177 199.97 28.6277 200.32C29.0377 200.66 29.5077 200.83 30.0377 200.83ZM39.6763 202.18C38.8663 202.18 38.1463 201.95 37.5163 201.49C36.8863 201.02 36.3913 200.38 36.0313 199.57C35.6813 198.75 35.5063 197.81 35.5063 196.75C35.5063 195.69 35.6813 194.755 36.0313 193.945C36.3913 193.125 36.8813 192.485 37.5013 192.025C38.1313 191.555 38.8563 191.32 39.6763 191.32C40.4963 191.32 41.2163 191.555 41.8363 192.025C42.4663 192.485 42.9613 193.125 43.3213 193.945C43.6813 194.755 43.8613 195.69 43.8613 196.75C43.8613 197.81 43.6813 198.75 43.3213 199.57C42.9713 200.38 42.4813 201.02 41.8513 201.49C41.2213 201.95 40.4963 202.18 39.6763 202.18ZM39.6763 200.83C40.2063 200.83 40.6763 200.655 41.0863 200.305C41.5063 199.955 41.8313 199.475 42.0613 198.865C42.2913 198.255 42.4063 197.55 42.4063 196.75C42.4063 195.95 42.2913 195.245 42.0613 194.635C41.8313 194.015 41.5063 193.53 41.0863 193.18C40.6763 192.83 40.2063 192.655 39.6763 192.655C39.1463 192.655 38.6763 192.83 38.2663 193.18C37.8563 193.53 37.5363 194.015 37.3063 194.635C37.0763 195.245 36.9613 195.95 36.9613 196.75C36.9613 197.55 37.0763 198.26 37.3063 198.88C37.5363 199.49 37.8563 199.97 38.2663 200.32C38.6763 200.66 39.1463 200.83 39.6763 200.83ZM46.87 199.735L45.985 198.76L49.93 194.5H51.67L46.87 199.735ZM45.49 202V191.5H46.915V202H45.49ZM50.245 202L47.485 197.89L48.415 196.9L51.955 202H50.245Z" fill="#808080"/>
<path d="M19.8742 262.888V261.978C22.5342 259.836 25.0542 257.82 25.0542 255.748C25.0542 254.628 24.5642 253.788 23.1922 253.788C21.8762 253.788 21.2042 254.698 21.1482 255.972H19.9162C20.0002 253.816 21.3582 252.696 23.1782 252.696C25.0822 252.696 26.3142 253.816 26.3142 255.692C26.3142 258.212 23.5982 260.354 21.7922 261.824H26.6082V262.888H19.8742ZM28.0809 257.834C28.0809 254.936 28.8089 252.724 31.6089 252.724C34.3949 252.724 35.1229 254.936 35.1229 257.834C35.1229 260.774 34.3949 263 31.6089 263C28.8089 263 28.0809 260.774 28.0809 257.834ZM33.8629 257.834C33.8629 255.734 33.5969 253.886 31.6089 253.886C29.6069 253.886 29.3409 255.734 29.3409 257.834C29.3409 260.018 29.6069 261.838 31.6089 261.838C33.5969 261.838 33.8629 260.018 33.8629 257.834ZM36.8719 257.834C36.8719 254.936 37.5999 252.724 40.3999 252.724C43.1859 252.724 43.9139 254.936 43.9139 257.834C43.9139 260.774 43.1859 263 40.3999 263C37.5999 263 36.8719 260.774 36.8719 257.834ZM42.6539 257.834C42.6539 255.734 42.3879 253.886 40.3999 253.886C38.3979 253.886 38.1319 255.734 38.1319 257.834C38.1319 260.018 38.3979 261.838 40.3999 261.838C42.3879 261.838 42.6539 260.018 42.6539 257.834ZM45.873 263V252.64H47.147V258.73L50.101 255.328H51.879L48.267 259.15L51.893 263H50.157L47.147 259.612V263H45.873Z" fill="#808080"/>
<line x1="72" y1="262.5" x2="685" y2="262.5" stroke="#909294" stroke-opacity="0.24"/>
<line x1="72" y1="200.5" x2="685" y2="200.5" stroke="#909294" stroke-opacity="0.24"/>
<line x1="72" y1="138.5" x2="685" y2="138.5" stroke="#909294" stroke-opacity="0.24"/>
<line x1="72" y1="76.5" x2="685" y2="76.5" stroke="#909294" stroke-opacity="0.24"/>
<line x1="72" y1="14.5" x2="685" y2="14.5" stroke="#909294" stroke-opacity="0.24"/>
<rect x="72" y="164" width="16" height="100" rx="6" fill="#5655D7"/>
<rect x="93" y="104" width="16" height="160" rx="6" fill="#4ABDE8"/>
<rect x="114" y="144" width="16" height="120" rx="6" fill="#FFAE41"/>
<path d="M93.061 294.156C92.749 294.156 92.4587 294.108 92.19 294.013C91.93 293.926 91.696 293.809 91.488 293.662C91.28 293.506 91.1023 293.333 90.955 293.142C90.8077 292.943 90.6863 292.739 90.591 292.531L91.423 292.05C91.605 292.371 91.826 292.635 92.086 292.843C92.3547 293.051 92.684 293.155 93.074 293.155C93.386 293.155 93.6893 293.081 93.984 292.934C94.2873 292.787 94.5343 292.54 94.725 292.193C94.9157 291.846 95.011 291.391 95.011 290.828V284.9H96.103V291.257C96.103 291.734 96.0163 292.154 95.843 292.518C95.6783 292.882 95.4487 293.185 95.154 293.428C94.868 293.671 94.543 293.853 94.179 293.974C93.815 294.095 93.4423 294.156 93.061 294.156ZM102.104 294L102.039 292.934V290.568C102.039 290.057 101.979 289.636 101.857 289.307C101.745 288.969 101.567 288.718 101.324 288.553C101.09 288.38 100.778 288.293 100.388 288.293C100.016 288.293 99.6908 288.367 99.4134 288.514C99.1448 288.661 98.9238 288.891 98.7504 289.203L97.8144 288.826C97.9878 288.523 98.1958 288.258 98.4384 288.033C98.6811 287.808 98.9628 287.639 99.2834 287.526C99.6128 287.405 99.9854 287.344 100.401 287.344C100.999 287.344 101.498 287.461 101.896 287.695C102.295 287.929 102.594 288.28 102.793 288.748C102.993 289.207 103.088 289.784 103.079 290.477L103.066 294H102.104ZM100.154 294.156C99.3918 294.156 98.7938 293.983 98.3604 293.636C97.9358 293.281 97.7234 292.791 97.7234 292.167C97.7234 291.508 97.9401 291.006 98.3734 290.659C98.8154 290.304 99.4308 290.126 100.219 290.126H102.078V290.997H100.453C99.8468 290.997 99.4134 291.097 99.1534 291.296C98.9021 291.495 98.7764 291.781 98.7764 292.154C98.7764 292.492 98.9021 292.761 99.1534 292.96C99.4048 293.151 99.7558 293.246 100.206 293.246C100.579 293.246 100.904 293.159 101.181 292.986C101.459 292.813 101.671 292.579 101.818 292.284C101.966 291.981 102.039 291.638 102.039 291.257H102.676C102.676 292.141 102.46 292.847 102.026 293.376C101.593 293.896 100.969 294.156 100.154 294.156ZM104.727 294V287.5H105.702L105.767 288.696V294H104.727ZM109.29 294V290.672L110.33 290.282V294H109.29ZM109.29 290.672C109.29 290.031 109.217 289.541 109.069 289.203C108.922 288.865 108.718 288.635 108.458 288.514C108.198 288.384 107.904 288.319 107.574 288.319C107.002 288.319 106.556 288.523 106.235 288.93C105.923 289.329 105.767 289.896 105.767 290.633H105.26C105.26 289.948 105.36 289.359 105.559 288.865C105.759 288.371 106.045 287.994 106.417 287.734C106.799 287.474 107.258 287.344 107.795 287.344C108.584 287.344 109.204 287.587 109.654 288.072C110.114 288.557 110.339 289.294 110.33 290.282L109.29 290.672Z" fill="#465762"/>
<path d="M93.061 294.156C92.749 294.156 92.4587 294.108 92.19 294.013C91.93 293.926 91.696 293.809 91.488 293.662C91.28 293.506 91.1023 293.333 90.955 293.142C90.8077 292.943 90.6863 292.739 90.591 292.531L91.423 292.05C91.605 292.371 91.826 292.635 92.086 292.843C92.3547 293.051 92.684 293.155 93.074 293.155C93.386 293.155 93.6893 293.081 93.984 292.934C94.2873 292.787 94.5343 292.54 94.725 292.193C94.9157 291.846 95.011 291.391 95.011 290.828V284.9H96.103V291.257C96.103 291.734 96.0163 292.154 95.843 292.518C95.6783 292.882 95.4487 293.185 95.154 293.428C94.868 293.671 94.543 293.853 94.179 293.974C93.815 294.095 93.4423 294.156 93.061 294.156ZM102.104 294L102.039 292.934V290.568C102.039 290.057 101.979 289.636 101.857 289.307C101.745 288.969 101.567 288.718 101.324 288.553C101.09 288.38 100.778 288.293 100.388 288.293C100.016 288.293 99.6908 288.367 99.4134 288.514C99.1448 288.661 98.9238 288.891 98.7504 289.203L97.8144 288.826C97.9878 288.523 98.1958 288.258 98.4384 288.033C98.6811 287.808 98.9628 287.639 99.2834 287.526C99.6128 287.405 99.9854 287.344 100.401 287.344C100.999 287.344 101.498 287.461 101.896 287.695C102.295 287.929 102.594 288.28 102.793 288.748C102.993 289.207 103.088 289.784 103.079 290.477L103.066 294H102.104ZM100.154 294.156C99.3918 294.156 98.7938 293.983 98.3604 293.636C97.9358 293.281 97.7234 292.791 97.7234 292.167C97.7234 291.508 97.9401 291.006 98.3734 290.659C98.8154 290.304 99.4308 290.126 100.219 290.126H102.078V290.997H100.453C99.8468 290.997 99.4134 291.097 99.1534 291.296C98.9021 291.495 98.7764 291.781 98.7764 292.154C98.7764 292.492 98.9021 292.761 99.1534 292.96C99.4048 293.151 99.7558 293.246 100.206 293.246C100.579 293.246 100.904 293.159 101.181 292.986C101.459 292.813 101.671 292.579 101.818 292.284C101.966 291.981 102.039 291.638 102.039 291.257H102.676C102.676 292.141 102.46 292.847 102.026 293.376C101.593 293.896 100.969 294.156 100.154 294.156ZM104.727 294V287.5H105.702L105.767 288.696V294H104.727ZM109.29 294V290.672L110.33 290.282V294H109.29ZM109.29 290.672C109.29 290.031 109.217 289.541 109.069 289.203C108.922 288.865 108.718 288.635 108.458 288.514C108.198 288.384 107.904 288.319 107.574 288.319C107.002 288.319 106.556 288.523 106.235 288.93C105.923 289.329 105.767 289.896 105.767 290.633H105.26C105.26 289.948 105.36 289.359 105.559 288.865C105.759 288.371 106.045 287.994 106.417 287.734C106.799 287.474 107.258 287.344 107.795 287.344C108.584 287.344 109.204 287.587 109.654 288.072C110.114 288.557 110.339 289.294 110.33 290.282L109.29 290.672Z" fill="white" fill-opacity="0.4"/>
<rect x="181.2" y="78" width="16" height="186" rx="6" fill="#5655D7"/>
<rect x="202.2" y="115" width="16" height="149" rx="6" fill="#4ABDE8"/>
<rect x="223.2" y="151" width="16" height="113" rx="6" fill="#FFAE41"/>
<path d="M200.409 294V284.9H201.514V294H200.409ZM201.41 290.009V289.008H205.31V290.009H201.41ZM201.41 285.901V284.9H205.817V285.901H201.41ZM209.94 294.156C209.307 294.156 208.748 294.013 208.263 293.727C207.777 293.432 207.396 293.029 207.119 292.518C206.85 292.007 206.716 291.417 206.716 290.75C206.716 290.083 206.85 289.493 207.119 288.982C207.396 288.471 207.773 288.072 208.25 287.786C208.735 287.491 209.29 287.344 209.914 287.344C210.512 287.344 211.032 287.496 211.474 287.799C211.924 288.094 212.271 288.51 212.514 289.047C212.756 289.584 212.878 290.217 212.878 290.945H211.838C211.838 290.39 211.764 289.918 211.617 289.528C211.469 289.129 211.248 288.822 210.954 288.605C210.668 288.388 210.317 288.28 209.901 288.28C209.476 288.28 209.099 288.384 208.77 288.592C208.449 288.791 208.202 289.077 208.029 289.45C207.855 289.823 207.769 290.26 207.769 290.763C207.769 291.257 207.864 291.686 208.055 292.05C208.245 292.405 208.51 292.687 208.848 292.895C209.186 293.094 209.567 293.194 209.992 293.194C210.442 293.194 210.824 293.086 211.136 292.869C211.448 292.652 211.695 292.371 211.877 292.024L212.787 292.479C212.622 292.817 212.401 293.112 212.124 293.363C211.855 293.614 211.534 293.809 211.162 293.948C210.798 294.087 210.39 294.156 209.94 294.156ZM207.405 290.945L207.418 290.048H212.241V290.945H207.405ZM214.189 294V284.9H215.229V292.791L215.177 294H214.189ZM217.426 294.156C216.88 294.156 216.399 294.013 215.983 293.727C215.576 293.441 215.26 293.042 215.034 292.531C214.809 292.011 214.696 291.417 214.696 290.75C214.696 290.074 214.809 289.48 215.034 288.969C215.26 288.458 215.576 288.059 215.983 287.773C216.399 287.487 216.88 287.344 217.426 287.344C218.007 287.344 218.518 287.487 218.96 287.773C219.402 288.059 219.745 288.458 219.987 288.969C220.239 289.48 220.364 290.074 220.364 290.75C220.364 291.417 220.239 292.011 219.987 292.531C219.745 293.042 219.402 293.441 218.96 293.727C218.518 294.013 218.007 294.156 217.426 294.156ZM217.192 293.207C217.6 293.207 217.959 293.103 218.271 292.895C218.592 292.687 218.843 292.397 219.025 292.024C219.216 291.651 219.311 291.227 219.311 290.75C219.311 290.273 219.22 289.849 219.038 289.476C218.865 289.103 218.618 288.813 218.297 288.605C217.977 288.397 217.613 288.293 217.205 288.293C216.824 288.293 216.482 288.397 216.178 288.605C215.884 288.813 215.65 289.103 215.476 289.476C215.312 289.849 215.229 290.273 215.229 290.75C215.229 291.227 215.312 291.651 215.476 292.024C215.65 292.397 215.884 292.687 216.178 292.895C216.473 293.103 216.811 293.207 217.192 293.207Z" fill="#465762"/>
<path d="M200.409 294V284.9H201.514V294H200.409ZM201.41 290.009V289.008H205.31V290.009H201.41ZM201.41 285.901V284.9H205.817V285.901H201.41ZM209.94 294.156C209.307 294.156 208.748 294.013 208.263 293.727C207.777 293.432 207.396 293.029 207.119 292.518C206.85 292.007 206.716 291.417 206.716 290.75C206.716 290.083 206.85 289.493 207.119 288.982C207.396 288.471 207.773 288.072 208.25 287.786C208.735 287.491 209.29 287.344 209.914 287.344C210.512 287.344 211.032 287.496 211.474 287.799C211.924 288.094 212.271 288.51 212.514 289.047C212.756 289.584 212.878 290.217 212.878 290.945H211.838C211.838 290.39 211.764 289.918 211.617 289.528C211.469 289.129 211.248 288.822 210.954 288.605C210.668 288.388 210.317 288.28 209.901 288.28C209.476 288.28 209.099 288.384 208.77 288.592C208.449 288.791 208.202 289.077 208.029 289.45C207.855 289.823 207.769 290.26 207.769 290.763C207.769 291.257 207.864 291.686 208.055 292.05C208.245 292.405 208.51 292.687 208.848 292.895C209.186 293.094 209.567 293.194 209.992 293.194C210.442 293.194 210.824 293.086 211.136 292.869C211.448 292.652 211.695 292.371 211.877 292.024L212.787 292.479C212.622 292.817 212.401 293.112 212.124 293.363C211.855 293.614 211.534 293.809 211.162 293.948C210.798 294.087 210.39 294.156 209.94 294.156ZM207.405 290.945L207.418 290.048H212.241V290.945H207.405ZM214.189 294V284.9H215.229V292.791L215.177 294H214.189ZM217.426 294.156C216.88 294.156 216.399 294.013 215.983 293.727C215.576 293.441 215.26 293.042 215.034 292.531C214.809 292.011 214.696 291.417 214.696 290.75C214.696 290.074 214.809 289.48 215.034 288.969C215.26 288.458 215.576 288.059 215.983 287.773C216.399 287.487 216.88 287.344 217.426 287.344C218.007 287.344 218.518 287.487 218.96 287.773C219.402 288.059 219.745 288.458 219.987 288.969C220.239 289.48 220.364 290.074 220.364 290.75C220.364 291.417 220.239 292.011 219.987 292.531C219.745 293.042 219.402 293.441 218.96 293.727C218.518 294.013 218.007 294.156 217.426 294.156ZM217.192 293.207C217.6 293.207 217.959 293.103 218.271 292.895C218.592 292.687 218.843 292.397 219.025 292.024C219.216 291.651 219.311 291.227 219.311 290.75C219.311 290.273 219.22 289.849 219.038 289.476C218.865 289.103 218.618 288.813 218.297 288.605C217.977 288.397 217.613 288.293 217.205 288.293C216.824 288.293 216.482 288.397 216.178 288.605C215.884 288.813 215.65 289.103 215.476 289.476C215.312 289.849 215.229 290.273 215.229 290.75C215.229 291.227 215.312 291.651 215.476 292.024C215.65 292.397 215.884 292.687 216.178 292.895C216.473 293.103 216.811 293.207 217.192 293.207Z" fill="white" fill-opacity="0.4"/>
<rect x="290.4" y="94" width="16" height="170" rx="6" fill="#5655D7"/>
<rect x="311.4" y="79" width="16" height="185" rx="6" fill="#4ABDE8"/>
<rect x="332.4" y="105" width="16" height="159" rx="6" fill="#FFAE41"/>
<path d="M313.399 291.413L309.291 285.342L309.733 285.108L310.253 284.9L313.932 290.347L313.399 291.413ZM309.109 294V284.9H310.214V294H309.109ZM313.399 291.413L312.866 290.347L316.545 284.9L317.065 285.108L317.494 285.329L313.399 291.413ZM316.584 294V284.9H317.676V294H316.584ZM323.808 294L323.743 292.934V290.568C323.743 290.057 323.682 289.636 323.561 289.307C323.448 288.969 323.271 288.718 323.028 288.553C322.794 288.38 322.482 288.293 322.092 288.293C321.719 288.293 321.394 288.367 321.117 288.514C320.848 288.661 320.627 288.891 320.454 289.203L319.518 288.826C319.691 288.523 319.899 288.258 320.142 288.033C320.385 287.808 320.666 287.639 320.987 287.526C321.316 287.405 321.689 287.344 322.105 287.344C322.703 287.344 323.201 287.461 323.6 287.695C323.999 287.929 324.298 288.28 324.497 288.748C324.696 289.207 324.792 289.784 324.783 290.477L324.77 294H323.808ZM321.858 294.156C321.095 294.156 320.497 293.983 320.064 293.636C319.639 293.281 319.427 292.791 319.427 292.167C319.427 291.508 319.644 291.006 320.077 290.659C320.519 290.304 321.134 290.126 321.923 290.126H323.782V290.997H322.157C321.55 290.997 321.117 291.097 320.857 291.296C320.606 291.495 320.48 291.781 320.48 292.154C320.48 292.492 320.606 292.761 320.857 292.96C321.108 293.151 321.459 293.246 321.91 293.246C322.283 293.246 322.608 293.159 322.885 292.986C323.162 292.813 323.375 292.579 323.522 292.284C323.669 291.981 323.743 291.638 323.743 291.257H324.38C324.38 292.141 324.163 292.847 323.73 293.376C323.297 293.896 322.673 294.156 321.858 294.156ZM327.003 290.477C327.003 289.775 327.137 289.207 327.406 288.774C327.675 288.332 328.017 288.007 328.433 287.799C328.858 287.582 329.304 287.474 329.772 287.474V288.449C329.391 288.449 329.022 288.514 328.667 288.644C328.32 288.765 328.034 288.969 327.809 289.255C327.584 289.541 327.471 289.931 327.471 290.425L327.003 290.477ZM326.431 294V287.5H327.471V294H326.431Z" fill="#465762"/>
<path d="M313.399 291.413L309.291 285.342L309.733 285.108L310.253 284.9L313.932 290.347L313.399 291.413ZM309.109 294V284.9H310.214V294H309.109ZM313.399 291.413L312.866 290.347L316.545 284.9L317.065 285.108L317.494 285.329L313.399 291.413ZM316.584 294V284.9H317.676V294H316.584ZM323.808 294L323.743 292.934V290.568C323.743 290.057 323.682 289.636 323.561 289.307C323.448 288.969 323.271 288.718 323.028 288.553C322.794 288.38 322.482 288.293 322.092 288.293C321.719 288.293 321.394 288.367 321.117 288.514C320.848 288.661 320.627 288.891 320.454 289.203L319.518 288.826C319.691 288.523 319.899 288.258 320.142 288.033C320.385 287.808 320.666 287.639 320.987 287.526C321.316 287.405 321.689 287.344 322.105 287.344C322.703 287.344 323.201 287.461 323.6 287.695C323.999 287.929 324.298 288.28 324.497 288.748C324.696 289.207 324.792 289.784 324.783 290.477L324.77 294H323.808ZM321.858 294.156C321.095 294.156 320.497 293.983 320.064 293.636C319.639 293.281 319.427 292.791 319.427 292.167C319.427 291.508 319.644 291.006 320.077 290.659C320.519 290.304 321.134 290.126 321.923 290.126H323.782V290.997H322.157C321.55 290.997 321.117 291.097 320.857 291.296C320.606 291.495 320.48 291.781 320.48 292.154C320.48 292.492 320.606 292.761 320.857 292.96C321.108 293.151 321.459 293.246 321.91 293.246C322.283 293.246 322.608 293.159 322.885 292.986C323.162 292.813 323.375 292.579 323.522 292.284C323.669 291.981 323.743 291.638 323.743 291.257H324.38C324.38 292.141 324.163 292.847 323.73 293.376C323.297 293.896 322.673 294.156 321.858 294.156ZM327.003 290.477C327.003 289.775 327.137 289.207 327.406 288.774C327.675 288.332 328.017 288.007 328.433 287.799C328.858 287.582 329.304 287.474 329.772 287.474V288.449C329.391 288.449 329.022 288.514 328.667 288.644C328.32 288.765 328.034 288.969 327.809 289.255C327.584 289.541 327.471 289.931 327.471 290.425L327.003 290.477ZM326.431 294V287.5H327.471V294H326.431Z" fill="white" fill-opacity="0.4"/>
<rect x="399.6" y="95" width="16" height="169" rx="6" fill="#5655D7"/>
<rect x="420.6" y="65" width="16" height="199" rx="6" fill="#4ABDE8"/>
<rect x="441.6" y="90" width="16" height="174" rx="6" fill="#FFAE41"/>
<path d="M425.614 294L421.961 284.9H423.066L426.771 294H425.614ZM418.217 294L421.922 284.9H423.04L419.387 294H418.217ZM419.972 291.413V290.425H425.029V291.413H419.972ZM427.873 296.6V287.5H428.848L428.913 288.696V296.6H427.873ZM431.11 294.156C430.564 294.156 430.083 294.013 429.667 293.727C429.26 293.441 428.943 293.042 428.718 292.531C428.493 292.011 428.38 291.417 428.38 290.75C428.38 290.074 428.493 289.48 428.718 288.969C428.943 288.458 429.26 288.059 429.667 287.773C430.083 287.487 430.564 287.344 431.11 287.344C431.691 287.344 432.202 287.487 432.644 287.773C433.086 288.059 433.428 288.458 433.671 288.969C433.922 289.48 434.048 290.074 434.048 290.75C434.048 291.417 433.922 292.011 433.671 292.531C433.428 293.042 433.086 293.441 432.644 293.727C432.202 294.013 431.691 294.156 431.11 294.156ZM430.876 293.207C431.283 293.207 431.643 293.103 431.955 292.895C432.276 292.687 432.527 292.397 432.709 292.024C432.9 291.651 432.995 291.227 432.995 290.75C432.995 290.273 432.904 289.849 432.722 289.476C432.549 289.103 432.302 288.813 431.981 288.605C431.66 288.397 431.296 288.293 430.889 288.293C430.508 288.293 430.165 288.397 429.862 288.605C429.567 288.813 429.333 289.103 429.16 289.476C428.995 289.849 428.913 290.273 428.913 290.75C428.913 291.227 428.995 291.651 429.16 292.024C429.333 292.397 429.567 292.687 429.862 292.895C430.157 293.103 430.495 293.207 430.876 293.207ZM436.061 290.477C436.061 289.775 436.195 289.207 436.464 288.774C436.732 288.332 437.075 288.007 437.491 287.799C437.915 287.582 438.362 287.474 438.83 287.474V288.449C438.448 288.449 438.08 288.514 437.725 288.644C437.378 288.765 437.092 288.969 436.867 289.255C436.641 289.541 436.529 289.931 436.529 290.425L436.061 290.477ZM435.489 294V287.5H436.529V294H435.489Z" fill="#465762"/>
<path d="M425.614 294L421.961 284.9H423.066L426.771 294H425.614ZM418.217 294L421.922 284.9H423.04L419.387 294H418.217ZM419.972 291.413V290.425H425.029V291.413H419.972ZM427.873 296.6V287.5H428.848L428.913 288.696V296.6H427.873ZM431.11 294.156C430.564 294.156 430.083 294.013 429.667 293.727C429.26 293.441 428.943 293.042 428.718 292.531C428.493 292.011 428.38 291.417 428.38 290.75C428.38 290.074 428.493 289.48 428.718 288.969C428.943 288.458 429.26 288.059 429.667 287.773C430.083 287.487 430.564 287.344 431.11 287.344C431.691 287.344 432.202 287.487 432.644 287.773C433.086 288.059 433.428 288.458 433.671 288.969C433.922 289.48 434.048 290.074 434.048 290.75C434.048 291.417 433.922 292.011 433.671 292.531C433.428 293.042 433.086 293.441 432.644 293.727C432.202 294.013 431.691 294.156 431.11 294.156ZM430.876 293.207C431.283 293.207 431.643 293.103 431.955 292.895C432.276 292.687 432.527 292.397 432.709 292.024C432.9 291.651 432.995 291.227 432.995 290.75C432.995 290.273 432.904 289.849 432.722 289.476C432.549 289.103 432.302 288.813 431.981 288.605C431.66 288.397 431.296 288.293 430.889 288.293C430.508 288.293 430.165 288.397 429.862 288.605C429.567 288.813 429.333 289.103 429.16 289.476C428.995 289.849 428.913 290.273 428.913 290.75C428.913 291.227 428.995 291.651 429.16 292.024C429.333 292.397 429.567 292.687 429.862 292.895C430.157 293.103 430.495 293.207 430.876 293.207ZM436.061 290.477C436.061 289.775 436.195 289.207 436.464 288.774C436.732 288.332 437.075 288.007 437.491 287.799C437.915 287.582 438.362 287.474 438.83 287.474V288.449C438.448 288.449 438.08 288.514 437.725 288.644C437.378 288.765 437.092 288.969 436.867 289.255C436.641 289.541 436.529 289.931 436.529 290.425L436.061 290.477ZM435.489 294V287.5H436.529V294H435.489Z" fill="white" fill-opacity="0.4"/>
<rect x="508.8" y="140" width="16" height="124" rx="6" fill="#5655D7"/>
<rect x="529.8" y="116" width="16" height="148" rx="6" fill="#4ABDE8"/>
<rect x="550.8" y="151" width="16" height="113" rx="6" fill="#FFAE41"/>
<path d="M530.799 291.413L526.691 285.342L527.133 285.108L527.653 284.9L531.332 290.347L530.799 291.413ZM526.509 294V284.9H527.614V294H526.509ZM530.799 291.413L530.266 290.347L533.945 284.9L534.465 285.108L534.894 285.329L530.799 291.413ZM533.984 294V284.9H535.076V294H533.984ZM541.208 294L541.143 292.934V290.568C541.143 290.057 541.082 289.636 540.961 289.307C540.848 288.969 540.671 288.718 540.428 288.553C540.194 288.38 539.882 288.293 539.492 288.293C539.119 288.293 538.794 288.367 538.517 288.514C538.248 288.661 538.027 288.891 537.854 289.203L536.918 288.826C537.091 288.523 537.299 288.258 537.542 288.033C537.785 287.808 538.066 287.639 538.387 287.526C538.716 287.405 539.089 287.344 539.505 287.344C540.103 287.344 540.601 287.461 541 287.695C541.399 287.929 541.698 288.28 541.897 288.748C542.096 289.207 542.192 289.784 542.183 290.477L542.17 294H541.208ZM539.258 294.156C538.495 294.156 537.897 293.983 537.464 293.636C537.039 293.281 536.827 292.791 536.827 292.167C536.827 291.508 537.044 291.006 537.477 290.659C537.919 290.304 538.534 290.126 539.323 290.126H541.182V290.997H539.557C538.95 290.997 538.517 291.097 538.257 291.296C538.006 291.495 537.88 291.781 537.88 292.154C537.88 292.492 538.006 292.761 538.257 292.96C538.508 293.151 538.859 293.246 539.31 293.246C539.683 293.246 540.008 293.159 540.285 292.986C540.562 292.813 540.775 292.579 540.922 292.284C541.069 291.981 541.143 291.638 541.143 291.257H541.78C541.78 292.141 541.563 292.847 541.13 293.376C540.697 293.896 540.073 294.156 539.258 294.156ZM544.314 296.756C544.15 296.756 543.959 296.721 543.742 296.652C543.526 296.591 543.296 296.509 543.053 296.405L543.443 295.534C543.643 295.621 543.816 295.686 543.963 295.729C544.119 295.772 544.241 295.794 544.327 295.794C544.561 295.794 544.752 295.729 544.899 295.599C545.055 295.478 545.185 295.3 545.289 295.066L546.03 293.298L548.435 287.5H549.553L546.433 294.91C546.269 295.291 546.095 295.621 545.913 295.898C545.74 296.175 545.528 296.388 545.276 296.535C545.025 296.682 544.704 296.756 544.314 296.756ZM545.744 294L542.936 287.5H544.041L546.459 293.285L546.771 294H545.744Z" fill="#465762"/>
<path d="M530.799 291.413L526.691 285.342L527.133 285.108L527.653 284.9L531.332 290.347L530.799 291.413ZM526.509 294V284.9H527.614V294H526.509ZM530.799 291.413L530.266 290.347L533.945 284.9L534.465 285.108L534.894 285.329L530.799 291.413ZM533.984 294V284.9H535.076V294H533.984ZM541.208 294L541.143 292.934V290.568C541.143 290.057 541.082 289.636 540.961 289.307C540.848 288.969 540.671 288.718 540.428 288.553C540.194 288.38 539.882 288.293 539.492 288.293C539.119 288.293 538.794 288.367 538.517 288.514C538.248 288.661 538.027 288.891 537.854 289.203L536.918 288.826C537.091 288.523 537.299 288.258 537.542 288.033C537.785 287.808 538.066 287.639 538.387 287.526C538.716 287.405 539.089 287.344 539.505 287.344C540.103 287.344 540.601 287.461 541 287.695C541.399 287.929 541.698 288.28 541.897 288.748C542.096 289.207 542.192 289.784 542.183 290.477L542.17 294H541.208ZM539.258 294.156C538.495 294.156 537.897 293.983 537.464 293.636C537.039 293.281 536.827 292.791 536.827 292.167C536.827 291.508 537.044 291.006 537.477 290.659C537.919 290.304 538.534 290.126 539.323 290.126H541.182V290.997H539.557C538.95 290.997 538.517 291.097 538.257 291.296C538.006 291.495 537.88 291.781 537.88 292.154C537.88 292.492 538.006 292.761 538.257 292.96C538.508 293.151 538.859 293.246 539.31 293.246C539.683 293.246 540.008 293.159 540.285 292.986C540.562 292.813 540.775 292.579 540.922 292.284C541.069 291.981 541.143 291.638 541.143 291.257H541.78C541.78 292.141 541.563 292.847 541.13 293.376C540.697 293.896 540.073 294.156 539.258 294.156ZM544.314 296.756C544.15 296.756 543.959 296.721 543.742 296.652C543.526 296.591 543.296 296.509 543.053 296.405L543.443 295.534C543.643 295.621 543.816 295.686 543.963 295.729C544.119 295.772 544.241 295.794 544.327 295.794C544.561 295.794 544.752 295.729 544.899 295.599C545.055 295.478 545.185 295.3 545.289 295.066L546.03 293.298L548.435 287.5H549.553L546.433 294.91C546.269 295.291 546.095 295.621 545.913 295.898C545.74 296.175 545.528 296.388 545.276 296.535C545.025 296.682 544.704 296.756 544.314 296.756ZM545.744 294L542.936 287.5H544.041L546.459 293.285L546.771 294H545.744Z" fill="white" fill-opacity="0.4"/>
<rect x="618" y="71" width="16" height="193" rx="6" fill="#5655D7"/>
<rect x="639" y="34" width="16" height="230" rx="6" fill="#4ABDE8"/>
<rect x="660" y="60" width="16" height="204" rx="6" fill="#FFAE41"/>
<path d="M638.561 294.156C638.249 294.156 637.959 294.108 637.69 294.013C637.43 293.926 637.196 293.809 636.988 293.662C636.78 293.506 636.602 293.333 636.455 293.142C636.308 292.943 636.186 292.739 636.091 292.531L636.923 292.05C637.105 292.371 637.326 292.635 637.586 292.843C637.855 293.051 638.184 293.155 638.574 293.155C638.886 293.155 639.189 293.081 639.484 292.934C639.787 292.787 640.034 292.54 640.225 292.193C640.416 291.846 640.511 291.391 640.511 290.828V284.9H641.603V291.257C641.603 291.734 641.516 292.154 641.343 292.518C641.178 292.882 640.949 293.185 640.654 293.428C640.368 293.671 640.043 293.853 639.679 293.974C639.315 294.095 638.942 294.156 638.561 294.156ZM648.059 294L647.994 292.804V287.5H649.034V294H648.059ZM643.431 291.218V287.5H644.471V290.828L643.431 291.218ZM644.471 290.828C644.471 291.469 644.545 291.959 644.692 292.297C644.84 292.635 645.043 292.869 645.303 292.999C645.572 293.12 645.871 293.181 646.2 293.181C646.764 293.181 647.201 292.977 647.513 292.57C647.834 292.163 647.994 291.595 647.994 290.867H648.501C648.501 291.552 648.402 292.141 648.202 292.635C648.003 293.129 647.713 293.506 647.331 293.766C646.959 294.026 646.504 294.156 645.966 294.156C645.178 294.156 644.554 293.913 644.094 293.428C643.644 292.943 643.423 292.206 643.431 291.218L644.471 290.828ZM650.849 294V287.5H651.824L651.889 288.696V294H650.849ZM655.412 294V290.672L656.452 290.282V294H655.412ZM655.412 290.672C655.412 290.031 655.339 289.541 655.191 289.203C655.044 288.865 654.84 288.635 654.58 288.514C654.32 288.384 654.026 288.319 653.696 288.319C653.124 288.319 652.678 288.523 652.357 288.93C652.045 289.329 651.889 289.896 651.889 290.633H651.382C651.382 289.948 651.482 289.359 651.681 288.865C651.881 288.371 652.167 287.994 652.539 287.734C652.921 287.474 653.38 287.344 653.917 287.344C654.706 287.344 655.326 287.587 655.776 288.072C656.236 288.557 656.461 289.294 656.452 290.282L655.412 290.672Z" fill="#465762"/>
<path d="M638.561 294.156C638.249 294.156 637.959 294.108 637.69 294.013C637.43 293.926 637.196 293.809 636.988 293.662C636.78 293.506 636.602 293.333 636.455 293.142C636.308 292.943 636.186 292.739 636.091 292.531L636.923 292.05C637.105 292.371 637.326 292.635 637.586 292.843C637.855 293.051 638.184 293.155 638.574 293.155C638.886 293.155 639.189 293.081 639.484 292.934C639.787 292.787 640.034 292.54 640.225 292.193C640.416 291.846 640.511 291.391 640.511 290.828V284.9H641.603V291.257C641.603 291.734 641.516 292.154 641.343 292.518C641.178 292.882 640.949 293.185 640.654 293.428C640.368 293.671 640.043 293.853 639.679 293.974C639.315 294.095 638.942 294.156 638.561 294.156ZM648.059 294L647.994 292.804V287.5H649.034V294H648.059ZM643.431 291.218V287.5H644.471V290.828L643.431 291.218ZM644.471 290.828C644.471 291.469 644.545 291.959 644.692 292.297C644.84 292.635 645.043 292.869 645.303 292.999C645.572 293.12 645.871 293.181 646.2 293.181C646.764 293.181 647.201 292.977 647.513 292.57C647.834 292.163 647.994 291.595 647.994 290.867H648.501C648.501 291.552 648.402 292.141 648.202 292.635C648.003 293.129 647.713 293.506 647.331 293.766C646.959 294.026 646.504 294.156 645.966 294.156C645.178 294.156 644.554 293.913 644.094 293.428C643.644 292.943 643.423 292.206 643.431 291.218L644.471 290.828ZM650.849 294V287.5H651.824L651.889 288.696V294H650.849ZM655.412 294V290.672L656.452 290.282V294H655.412ZM655.412 290.672C655.412 290.031 655.339 289.541 655.191 289.203C655.044 288.865 654.84 288.635 654.58 288.514C654.32 288.384 654.026 288.319 653.696 288.319C653.124 288.319 652.678 288.523 652.357 288.93C652.045 289.329 651.889 289.896 651.889 290.633H651.382C651.382 289.948 651.482 289.359 651.681 288.865C651.881 288.371 652.167 287.994 652.539 287.734C652.921 287.474 653.38 287.344 653.917 287.344C654.706 287.344 655.326 287.587 655.776 288.072C656.236 288.557 656.461 289.294 656.452 290.282L655.412 290.672Z" fill="white" fill-opacity="0.4"/>
</svg>
