<svg width="324" height="182" viewBox="0 0 324 182" fill="none" xmlns="http://www.w3.org/2000/svg">
<path d="M209 163.5C209 157.525 207.823 151.608 205.537 146.088C203.25 140.568 199.898 135.552 195.673 131.327C191.448 127.102 186.432 123.75 180.912 121.463C175.392 119.177 169.475 118 163.5 118C157.525 118 151.608 119.177 146.088 121.463C140.568 123.75 135.552 127.102 131.327 131.327C127.102 135.552 123.75 140.568 121.463 146.088C119.177 151.608 118 157.525 118 163.5L163.5 163.5H209Z" fill="#6B7480" fill-opacity="0.08"/>
<path d="M238.396 163.5C238.396 166.261 240.635 168.5 243.396 168.5C246.158 168.5 248.396 166.261 248.396 163.5L238.396 163.5ZM163.5 88.6033C204.864 88.6033 238.396 122.136 238.396 163.5L248.396 163.5C248.396 116.613 210.387 78.6033 163.5 78.6033L163.5 88.6033ZM88.603 163.5C88.603 122.136 122.135 88.6033 163.5 88.6033L163.5 78.6033C116.613 78.6033 78.603 116.613 78.603 163.5L88.603 163.5Z" fill="#F4F4F4"/>
<path d="M83.603 163.5C83.603 148.339 87.9169 133.49 96.0407 120.689C104.165 107.888 115.763 97.6627 129.481 91.2073C143.2 84.7519 158.472 82.3331 173.513 84.2333C188.555 86.1335 202.746 92.2744 214.428 101.939" stroke="#00997E" stroke-width="16" stroke-linecap="round"/>
<path d="M278.034 163.5C278.034 166.261 280.272 168.5 283.034 168.5C285.795 168.5 288.034 166.261 288.034 163.5L278.034 163.5ZM163.5 48.966C226.755 48.966 278.034 100.245 278.034 163.5L288.034 163.5C288.034 94.7217 232.278 38.966 163.5 38.966L163.5 48.966ZM48.9658 163.5C48.9658 100.245 100.244 48.966 163.5 48.966L163.5 38.966C94.7216 38.966 38.9658 94.7218 38.9658 163.5L48.9658 163.5Z" fill="#F4F4F4"/>
<path d="M43.9658 163.5C43.9658 145.904 47.8504 128.526 55.3422 112.605C62.834 96.6839 73.7484 82.6133 87.306 71.3974C100.864 60.1816 116.73 52.0972 133.773 47.7213C150.816 43.3455 168.614 42.7861 185.898 46.0832" stroke="#4ABDE8" stroke-width="16" stroke-linecap="round"/>
<path d="M314 163.5C314 166.261 316.239 168.5 319 168.5C321.761 168.5 324 166.261 324 163.5L314 163.5ZM163.5 13C246.619 13 314 80.3811 314 163.5L324 163.5C324 74.8583 252.142 2.99999 163.5 2.99999L163.5 13ZM13 163.5C13 80.3811 80.3811 13 163.5 13L163.5 2.99999C74.8583 3 3 74.8583 3 163.5L13 163.5Z" fill="#F4F4F4"/>
<path d="M7.99999 163.5C7.99999 126.475 21.211 90.6649 45.2569 62.5108C69.3027 34.3568 102.605 15.7064 139.174 9.91445C175.744 4.12247 213.18 11.5689 244.749 30.9145C276.318 50.26 299.948 80.235 311.389 115.448" stroke="#5655D7" stroke-width="16" stroke-linecap="round"/>
</svg>
