<svg width="13" height="8" viewBox="0 0 13 8" fill="none" xmlns="http://www.w3.org/2000/svg">
<path d="M12.1877 0.84375V4.09375C12.1877 4.20149 12.1449 4.30483 12.0687 4.38101C11.9926 4.4572 11.8892 4.5 11.7815 4.5C11.6737 4.5 11.5704 4.4572 11.4942 4.38101C11.418 4.30483 11.3752 4.20149 11.3752 4.09375V1.82434L7.1939 6.00617C7.15617 6.04394 7.11136 6.07391 7.06205 6.09435C7.01273 6.1148 6.95986 6.12532 6.90648 6.12532C6.85309 6.12532 6.80022 6.1148 6.75091 6.09435C6.70159 6.07391 6.65678 6.04394 6.61905 6.00617L4.87523 4.26184L1.5064 7.63117C1.43017 7.7074 1.32678 7.75023 1.21898 7.75023C1.11117 7.75023 1.00778 7.7074 0.931554 7.63117C0.855325 7.55494 0.8125 7.45155 0.8125 7.34375C0.8125 7.23595 0.855325 7.13256 0.931554 7.05633L4.5878 3.40008C4.62553 3.36231 4.67034 3.33234 4.71966 3.3119C4.76897 3.29145 4.82184 3.28093 4.87523 3.28093C4.92861 3.28093 4.98148 3.29145 5.0308 3.3119C5.08011 3.33234 5.12492 3.36231 5.16265 3.40008L6.90648 5.14441L10.8009 1.25H8.53148C8.42373 1.25 8.3204 1.2072 8.24421 1.13101C8.16803 1.05483 8.12523 0.951494 8.12523 0.84375C8.12523 0.736006 8.16803 0.632675 8.24421 0.556488C8.3204 0.480301 8.42373 0.4375 8.53148 0.4375H11.7815C11.8892 0.4375 11.9926 0.480301 12.0687 0.556488C12.1449 0.632675 12.1877 0.736006 12.1877 0.84375Z" fill="#4ABDE8"/>
</svg>
