<svg width="32" height="33" viewBox="0 0 32 33" fill="none" xmlns="http://www.w3.org/2000/svg">
<path d="M0.5 1H29C30.3807 1 31.5 2.11929 31.5 3.5V29.5C31.5 30.8807 30.3807 32 29 32H0.5V1Z" stroke="#DCDCDC"/>
<path d="M19.3535 16.8538L14.3535 21.8538C14.3071 21.9002 14.2519 21.9371 14.1912 21.9622C14.1305 21.9873 14.0655 22.0003 13.9998 22.0003C13.9341 22.0003 13.869 21.9873 13.8083 21.9622C13.7476 21.9371 13.6925 21.9002 13.646 21.8538C13.5996 21.8073 13.5627 21.7521 13.5376 21.6915C13.5125 21.6308 13.4995 21.5657 13.4995 21.5C13.4995 21.4343 13.5125 21.3693 13.5376 21.3086C13.5627 21.2479 13.5996 21.1927 13.646 21.1463L18.2929 16.5L13.646 11.8538C13.5522 11.7599 13.4995 11.6327 13.4995 11.5C13.4995 11.3673 13.5522 11.2401 13.646 11.1463C13.7399 11.0524 13.8671 10.9997 13.9998 10.9997C14.1325 10.9997 14.2597 11.0524 14.3535 11.1463L19.3535 16.1463C19.4 16.1927 19.4369 16.2478 19.4621 16.3085C19.4872 16.3692 19.5002 16.4343 19.5002 16.5C19.5002 16.5657 19.4872 16.6308 19.4621 16.6915C19.4369 16.7522 19.4 16.8073 19.3535 16.8538Z" fill="#7A7C7F"/>
</svg>
