<svg width="32" height="33" viewBox="0 0 32 33" fill="none" xmlns="http://www.w3.org/2000/svg">
<path d="M0.5 3.5C0.5 2.11929 1.61929 1 3 1H31.5V32H3C1.61929 32 0.5 30.8807 0.5 29.5V3.5Z" stroke="#DCDCDC"/>
<path d="M18.3537 21.1463C18.4001 21.1927 18.437 21.2479 18.4621 21.3086C18.4872 21.3693 18.5002 21.4343 18.5002 21.5C18.5002 21.5657 18.4872 21.6308 18.4621 21.6915C18.437 21.7521 18.4001 21.8073 18.3537 21.8538C18.3072 21.9002 18.252 21.9371 18.1914 21.9622C18.1307 21.9873 18.0656 22.0003 17.9999 22.0003C17.9342 22.0003 17.8692 21.9873 17.8085 21.9622C17.7478 21.9371 17.6926 21.9002 17.6462 21.8538L12.6462 16.8538C12.5997 16.8073 12.5628 16.7522 12.5376 16.6915C12.5125 16.6308 12.4995 16.5657 12.4995 16.5C12.4995 16.4343 12.5125 16.3692 12.5376 16.3085C12.5628 16.2478 12.5997 16.1927 12.6462 16.1463L17.6462 11.1463C17.74 11.0524 17.8672 10.9997 17.9999 10.9997C18.1326 10.9997 18.2598 11.0524 18.3537 11.1463C18.4475 11.2401 18.5002 11.3673 18.5002 11.5C18.5002 11.6327 18.4475 11.7599 18.3537 11.8538L13.7068 16.5L18.3537 21.1463Z" fill="#7A7C7F"/>
</svg>
