<svg width="13" height="8" viewBox="0 0 13 8" fill="none" xmlns="http://www.w3.org/2000/svg">
<path d="M12.1877 3.90626V7.15626C12.1877 7.26401 12.1449 7.36734 12.0687 7.44353C11.9926 7.51971 11.8892 7.56251 11.7815 7.56251H8.53148C8.42373 7.56251 8.3204 7.51971 8.24421 7.44353C8.16803 7.36734 8.12523 7.26401 8.12523 7.15626C8.12523 7.04852 8.16803 6.94519 8.24421 6.869C8.3204 6.79281 8.42373 6.75001 8.53148 6.75001H10.8009L6.90648 2.8556L5.16265 4.59993C5.12492 4.63771 5.08011 4.66767 5.0308 4.68812C4.98148 4.70856 4.92861 4.71908 4.87523 4.71908C4.82184 4.71908 4.76897 4.70856 4.71966 4.68812C4.67034 4.66767 4.62553 4.63771 4.5878 4.59993L0.931554 0.943684C0.855325 0.867455 0.8125 0.764066 0.8125 0.656262C0.8125 0.548458 0.855325 0.445069 0.931554 0.36884C1.00778 0.292611 1.11117 0.249786 1.21898 0.249786C1.32678 0.249786 1.43017 0.292611 1.5064 0.36884L4.87523 3.73818L6.61905 1.99384C6.65678 1.95607 6.70159 1.9261 6.75091 1.90566C6.80022 1.88522 6.85309 1.87469 6.90648 1.87469C6.95986 1.87469 7.01273 1.88522 7.06205 1.90566C7.11136 1.9261 7.15617 1.95607 7.1939 1.99384L11.3752 6.17568V3.90626C11.3752 3.79852 11.418 3.69519 11.4942 3.619C11.5704 3.54281 11.6737 3.50001 11.7815 3.50001C11.8892 3.50001 11.9926 3.54281 12.0687 3.619C12.1449 3.69519 12.1877 3.79852 12.1877 3.90626Z" fill="#FFAE41"/>
</svg>
