<svg width="262" height="262" viewBox="0 0 262 262" fill="none" xmlns="http://www.w3.org/2000/svg">
<path d="M262 131C262 203.349 203.349 262 131 262C58.6507 262 0 203.349 0 131C0 58.6507 58.6507 0 131 0C203.349 0 262 58.6507 262 131ZM45.85 131C45.85 178.027 83.973 216.15 131 216.15C178.027 216.15 216.15 178.027 216.15 131C216.15 83.973 178.027 45.85 131 45.85C83.973 45.85 45.85 83.973 45.85 131Z" fill="#5655D7" fill-opacity="0.08"/>
<path d="M89.4256 136.456C87.6269 136.456 86.0942 136.127 84.8276 135.468C83.5862 134.784 82.5856 133.872 81.8256 132.732C81.0656 131.567 80.5082 130.224 80.1536 128.704C79.7989 127.159 79.6216 125.512 79.6216 123.764C79.6216 121.636 79.8369 119.673 80.2676 117.874C80.7236 116.075 81.3949 114.505 82.2816 113.162C83.1682 111.819 84.2702 110.781 85.5876 110.046C86.9302 109.311 88.4882 108.944 90.2616 108.944C91.6296 108.944 92.9722 109.159 94.2896 109.59C95.6322 109.995 96.8229 110.565 97.8616 111.3L95.5816 114.492C94.7962 113.935 93.9349 113.517 92.9976 113.238C92.0856 112.959 91.2369 112.82 90.4516 112.82C88.2476 112.82 86.5376 113.77 85.3216 115.67C84.1309 117.57 83.5862 120.521 83.6876 124.524L82.7756 123.84C83.3582 122.396 84.2829 121.243 85.5496 120.382C86.8162 119.495 88.3236 119.052 90.0716 119.052C91.7689 119.052 93.2762 119.445 94.5936 120.23C95.9109 120.99 96.9369 122.041 97.6716 123.384C98.4062 124.701 98.7736 126.209 98.7736 127.906C98.7736 129.553 98.3809 131.022 97.5956 132.314C96.8356 133.606 95.7462 134.619 94.3276 135.354C92.9342 136.089 91.3002 136.456 89.4256 136.456ZM89.4636 132.694C90.4009 132.694 91.2369 132.479 91.9716 132.048C92.7316 131.617 93.3269 131.035 93.7576 130.3C94.1882 129.54 94.4036 128.679 94.4036 127.716C94.4036 126.753 94.1882 125.892 93.7576 125.132C93.3269 124.372 92.7316 123.789 91.9716 123.384C91.2369 122.953 90.4009 122.738 89.4636 122.738C88.5009 122.738 87.6396 122.953 86.8796 123.384C86.1449 123.789 85.5622 124.372 85.1316 125.132C84.7009 125.892 84.4856 126.753 84.4856 127.716C84.4856 128.679 84.7009 129.54 85.1316 130.3C85.5622 131.035 86.1449 131.617 86.8796 132.048C87.6396 132.479 88.5009 132.694 89.4636 132.694ZM106.268 134.594L101.974 132.618C101.974 131.833 102.177 131.022 102.582 130.186C102.987 129.325 103.557 128.463 104.292 127.602C105.052 126.741 105.939 125.93 106.952 125.17L111.588 121.826C112.171 121.421 112.703 120.952 113.184 120.42C113.691 119.888 114.096 119.331 114.4 118.748C114.704 118.14 114.856 117.545 114.856 116.962C114.856 116.227 114.666 115.556 114.286 114.948C113.931 114.34 113.412 113.859 112.728 113.504C112.069 113.149 111.259 112.972 110.296 112.972C109.435 112.972 108.662 113.149 107.978 113.504C107.319 113.833 106.775 114.277 106.344 114.834C105.913 115.391 105.609 115.999 105.432 116.658L100.91 115.822C101.163 114.606 101.695 113.479 102.506 112.44C103.342 111.376 104.406 110.527 105.698 109.894C107.015 109.261 108.51 108.944 110.182 108.944C112.057 108.944 113.678 109.286 115.046 109.97C116.439 110.654 117.503 111.604 118.238 112.82C118.998 114.011 119.378 115.379 119.378 116.924C119.378 118.495 118.947 119.913 118.086 121.18C117.25 122.421 116.072 123.612 114.552 124.752L110.296 127.906C109.587 128.413 108.915 128.995 108.282 129.654C107.674 130.287 107.18 131.009 106.8 131.82C106.445 132.631 106.268 133.555 106.268 134.594ZM101.974 136V132.618L105.242 132.086H119.72V136H101.974ZM126.039 136.532C125.304 136.532 124.671 136.279 124.139 135.772C123.632 135.24 123.379 134.607 123.379 133.872C123.379 133.137 123.632 132.504 124.139 131.972C124.671 131.44 125.304 131.174 126.039 131.174C126.774 131.174 127.407 131.44 127.939 131.972C128.471 132.504 128.737 133.137 128.737 133.872C128.737 134.607 128.471 135.24 127.939 135.772C127.407 136.279 126.774 136.532 126.039 136.532ZM141.559 136.456C140.394 136.456 139.203 136.279 137.987 135.924C136.796 135.544 135.694 134.987 134.681 134.252C133.668 133.492 132.895 132.542 132.363 131.402L136.277 129.958C136.936 130.895 137.708 131.579 138.595 132.01C139.482 132.415 140.394 132.618 141.331 132.618C142.826 132.618 144.042 132.175 144.979 131.288C145.916 130.376 146.385 129.173 146.385 127.678C146.385 126.234 145.929 125.043 145.017 124.106C144.105 123.169 142.914 122.7 141.445 122.7C140.584 122.7 139.773 122.89 139.013 123.27C138.278 123.65 137.708 124.106 137.303 124.638L133.313 123.764L134.795 109.4H149.501V113.39H135.327L134.795 109.552H139.165L137.341 124.106L134.643 123.764C134.947 123.257 135.34 122.751 135.821 122.244C136.328 121.712 136.936 121.218 137.645 120.762C138.354 120.306 139.14 119.939 140.001 119.66C140.862 119.381 141.8 119.255 142.813 119.28C144.333 119.28 145.701 119.635 146.917 120.344C148.133 121.053 149.096 122.029 149.805 123.27C150.514 124.486 150.869 125.892 150.869 127.488C150.869 129.261 150.464 130.819 149.653 132.162C148.868 133.505 147.778 134.556 146.385 135.316C144.992 136.076 143.383 136.456 141.559 136.456ZM155.966 136L174.852 109.4H179.26L160.26 136H155.966ZM175.194 136.608C174.003 136.608 172.952 136.329 172.04 135.772C171.128 135.215 170.406 134.442 169.874 133.454C169.367 132.466 169.114 131.351 169.114 130.11C169.114 128.843 169.367 127.729 169.874 126.766C170.38 125.803 171.09 125.043 172.002 124.486C172.939 123.929 174.003 123.65 175.194 123.65C176.384 123.65 177.436 123.929 178.348 124.486C179.26 125.043 179.969 125.803 180.476 126.766C181.008 127.729 181.274 128.843 181.274 130.11C181.274 131.351 181.008 132.466 180.476 133.454C179.969 134.442 179.26 135.215 178.348 135.772C177.436 136.329 176.384 136.608 175.194 136.608ZM175.194 133.606C176.03 133.606 176.714 133.277 177.246 132.618C177.778 131.959 178.044 131.123 178.044 130.11C178.044 129.122 177.778 128.299 177.246 127.64C176.714 126.956 176.03 126.614 175.194 126.614C174.358 126.614 173.661 126.956 173.104 127.64C172.572 128.299 172.306 129.122 172.306 130.11C172.306 131.123 172.572 131.959 173.104 132.618C173.661 133.277 174.358 133.606 175.194 133.606ZM160.146 121.75C158.98 121.75 157.929 121.471 156.992 120.914C156.08 120.357 155.37 119.584 154.864 118.596C154.357 117.608 154.104 116.493 154.104 115.252C154.104 113.985 154.357 112.871 154.864 111.908C155.37 110.945 156.08 110.185 156.992 109.628C157.929 109.071 158.993 108.792 160.184 108.792C161.374 108.792 162.426 109.071 163.338 109.628C164.25 110.185 164.959 110.945 165.466 111.908C165.972 112.871 166.226 113.985 166.226 115.252C166.226 116.493 165.972 117.608 165.466 118.596C164.959 119.584 164.237 120.357 163.3 120.914C162.388 121.471 161.336 121.75 160.146 121.75ZM160.146 118.748C161.007 118.748 161.704 118.419 162.236 117.76C162.768 117.101 163.034 116.265 163.034 115.252C163.034 114.264 162.768 113.441 162.236 112.782C161.704 112.123 161.007 111.794 160.146 111.794C159.31 111.794 158.626 112.123 158.094 112.782C157.562 113.441 157.296 114.264 157.296 115.252C157.296 116.265 157.562 117.101 158.094 117.76C158.626 118.419 159.31 118.748 160.146 118.748Z" fill="#4D5154"/>
<path d="M90.6351 159L86.9821 149.9H88.0871L91.7921 159H90.6351ZM83.2381 159L86.9431 149.9H88.0611L84.4081 159H83.2381ZM84.9931 156.413V155.425H90.0501V156.413H84.9931ZM95.2729 159.156C94.6403 159.156 94.1506 158.991 93.8039 158.662C93.4573 158.333 93.2839 157.869 93.2839 157.271V150.472H94.3239V157.167C94.3239 157.496 94.4106 157.752 94.5839 157.934C94.7659 158.107 95.0173 158.194 95.3379 158.194C95.4419 158.194 95.5416 158.181 95.6369 158.155C95.7409 158.12 95.8753 158.042 96.0399 157.921L96.4429 158.766C96.2176 158.913 96.0139 159.013 95.8319 159.065C95.6499 159.126 95.4636 159.156 95.2729 159.156ZM92.1529 153.423V152.5H96.2739V153.423H92.1529ZM100.186 159.156C99.5534 159.156 99.0637 158.991 98.717 158.662C98.3704 158.333 98.197 157.869 98.197 157.271V150.472H99.237V157.167C99.237 157.496 99.3237 157.752 99.497 157.934C99.679 158.107 99.9304 158.194 100.251 158.194C100.355 158.194 100.455 158.181 100.55 158.155C100.654 158.12 100.788 158.042 100.953 157.921L101.356 158.766C101.131 158.913 100.927 159.013 100.745 159.065C100.563 159.126 100.377 159.156 100.186 159.156ZM97.066 153.423V152.5H101.187V153.423H97.066ZM105.464 159.156C104.831 159.156 104.272 159.013 103.787 158.727C103.302 158.432 102.92 158.029 102.643 157.518C102.374 157.007 102.24 156.417 102.24 155.75C102.24 155.083 102.374 154.493 102.643 153.982C102.92 153.471 103.297 153.072 103.774 152.786C104.259 152.491 104.814 152.344 105.438 152.344C106.036 152.344 106.556 152.496 106.998 152.799C107.449 153.094 107.795 153.51 108.038 154.047C108.281 154.584 108.402 155.217 108.402 155.945H107.362C107.362 155.39 107.288 154.918 107.141 154.528C106.994 154.129 106.773 153.822 106.478 153.605C106.192 153.388 105.841 153.28 105.425 153.28C105 153.28 104.623 153.384 104.294 153.592C103.973 153.791 103.726 154.077 103.553 154.45C103.38 154.823 103.293 155.26 103.293 155.763C103.293 156.257 103.388 156.686 103.579 157.05C103.77 157.405 104.034 157.687 104.372 157.895C104.71 158.094 105.091 158.194 105.516 158.194C105.967 158.194 106.348 158.086 106.66 157.869C106.972 157.652 107.219 157.371 107.401 157.024L108.311 157.479C108.146 157.817 107.925 158.112 107.648 158.363C107.379 158.614 107.059 158.809 106.686 158.948C106.322 159.087 105.915 159.156 105.464 159.156ZM102.929 155.945L102.942 155.048H107.765V155.945H102.929ZM109.714 159V152.5H110.689L110.754 153.696V159H109.714ZM114.277 159V155.672L115.317 155.282V159H114.277ZM114.277 155.672C114.277 155.031 114.203 154.541 114.056 154.203C113.908 153.865 113.705 153.635 113.445 153.514C113.185 153.384 112.89 153.319 112.561 153.319C111.989 153.319 111.542 153.523 111.222 153.93C110.91 154.329 110.754 154.896 110.754 155.633H110.247C110.247 154.948 110.346 154.359 110.546 153.865C110.745 153.371 111.031 152.994 111.404 152.734C111.785 152.474 112.244 152.344 112.782 152.344C113.57 152.344 114.19 152.587 114.641 153.072C115.1 153.557 115.325 154.294 115.317 155.282L114.277 155.672ZM121.773 159L121.721 157.791V149.9H122.761V159H121.773ZM119.524 159.156C118.943 159.156 118.432 159.013 117.99 158.727C117.548 158.441 117.201 158.042 116.95 157.531C116.707 157.011 116.586 156.417 116.586 155.75C116.586 155.074 116.707 154.48 116.95 153.969C117.201 153.458 117.548 153.059 117.99 152.773C118.432 152.487 118.943 152.344 119.524 152.344C120.07 152.344 120.546 152.487 120.954 152.773C121.37 153.059 121.69 153.458 121.916 153.969C122.141 154.48 122.254 155.074 122.254 155.75C122.254 156.417 122.141 157.011 121.916 157.531C121.69 158.042 121.37 158.441 120.954 158.727C120.546 159.013 120.07 159.156 119.524 159.156ZM119.758 158.207C120.139 158.207 120.477 158.103 120.772 157.895C121.066 157.687 121.296 157.397 121.461 157.024C121.634 156.651 121.721 156.227 121.721 155.75C121.721 155.273 121.634 154.849 121.461 154.476C121.296 154.103 121.066 153.813 120.772 153.605C120.477 153.397 120.135 153.293 119.745 153.293C119.337 153.293 118.973 153.397 118.653 153.605C118.341 153.813 118.094 154.103 117.912 154.476C117.73 154.849 117.639 155.273 117.639 155.75C117.639 156.227 117.73 156.651 117.912 157.024C118.094 157.397 118.345 157.687 118.666 157.895C118.986 158.103 119.35 158.207 119.758 158.207ZM128.584 159L128.519 157.934V155.568C128.519 155.057 128.458 154.636 128.337 154.307C128.224 153.969 128.047 153.718 127.804 153.553C127.57 153.38 127.258 153.293 126.868 153.293C126.495 153.293 126.17 153.367 125.893 153.514C125.624 153.661 125.403 153.891 125.23 154.203L124.294 153.826C124.467 153.523 124.675 153.258 124.918 153.033C125.161 152.808 125.442 152.639 125.763 152.526C126.092 152.405 126.465 152.344 126.881 152.344C127.479 152.344 127.977 152.461 128.376 152.695C128.775 152.929 129.074 153.28 129.273 153.748C129.472 154.207 129.568 154.784 129.559 155.477L129.546 159H128.584ZM126.634 159.156C125.871 159.156 125.273 158.983 124.84 158.636C124.415 158.281 124.203 157.791 124.203 157.167C124.203 156.508 124.42 156.006 124.853 155.659C125.295 155.304 125.91 155.126 126.699 155.126H128.558V155.997H126.933C126.326 155.997 125.893 156.097 125.633 156.296C125.382 156.495 125.256 156.781 125.256 157.154C125.256 157.492 125.382 157.761 125.633 157.96C125.884 158.151 126.235 158.246 126.686 158.246C127.059 158.246 127.384 158.159 127.661 157.986C127.938 157.813 128.151 157.579 128.298 157.284C128.445 156.981 128.519 156.638 128.519 156.257H129.156C129.156 157.141 128.939 157.847 128.506 158.376C128.073 158.896 127.449 159.156 126.634 159.156ZM131.207 159V152.5H132.182L132.247 153.696V159H131.207ZM135.77 159V155.672L136.81 155.282V159H135.77ZM135.77 155.672C135.77 155.031 135.696 154.541 135.549 154.203C135.402 153.865 135.198 153.635 134.938 153.514C134.678 153.384 134.383 153.319 134.054 153.319C133.482 153.319 133.036 153.523 132.715 153.93C132.403 154.329 132.247 154.896 132.247 155.633H131.74C131.74 154.948 131.84 154.359 132.039 153.865C132.238 153.371 132.524 152.994 132.897 152.734C133.278 152.474 133.738 152.344 134.275 152.344C135.064 152.344 135.683 152.587 136.134 153.072C136.593 153.557 136.819 154.294 136.81 155.282L135.77 155.672ZM141.355 159.156C140.714 159.156 140.146 159.013 139.652 158.727C139.158 158.432 138.772 158.029 138.495 157.518C138.218 157.007 138.079 156.417 138.079 155.75C138.079 155.083 138.213 154.493 138.482 153.982C138.759 153.471 139.145 153.072 139.639 152.786C140.133 152.491 140.696 152.344 141.329 152.344C141.953 152.344 142.512 152.487 143.006 152.773C143.5 153.059 143.877 153.462 144.137 153.982L143.188 154.411C143.015 154.064 142.763 153.796 142.434 153.605C142.105 153.406 141.728 153.306 141.303 153.306C140.878 153.306 140.501 153.41 140.172 153.618C139.851 153.826 139.596 154.116 139.405 154.489C139.223 154.853 139.132 155.273 139.132 155.75C139.132 156.227 139.223 156.651 139.405 157.024C139.596 157.388 139.856 157.674 140.185 157.882C140.523 158.09 140.904 158.194 141.329 158.194C141.754 158.194 142.131 158.086 142.46 157.869C142.798 157.652 143.054 157.349 143.227 156.959L144.176 157.388C143.916 157.943 143.539 158.376 143.045 158.688C142.551 159 141.988 159.156 141.355 159.156ZM148.336 159.156C147.703 159.156 147.144 159.013 146.659 158.727C146.174 158.432 145.792 158.029 145.515 157.518C145.246 157.007 145.112 156.417 145.112 155.75C145.112 155.083 145.246 154.493 145.515 153.982C145.792 153.471 146.169 153.072 146.646 152.786C147.131 152.491 147.686 152.344 148.31 152.344C148.908 152.344 149.428 152.496 149.87 152.799C150.321 153.094 150.667 153.51 150.91 154.047C151.153 154.584 151.274 155.217 151.274 155.945H150.234C150.234 155.39 150.16 154.918 150.013 154.528C149.866 154.129 149.645 153.822 149.35 153.605C149.064 153.388 148.713 153.28 148.297 153.28C147.872 153.28 147.495 153.384 147.166 153.592C146.845 153.791 146.598 154.077 146.425 154.45C146.252 154.823 146.165 155.26 146.165 155.763C146.165 156.257 146.26 156.686 146.451 157.05C146.642 157.405 146.906 157.687 147.244 157.895C147.582 158.094 147.963 158.194 148.388 158.194C148.839 158.194 149.22 158.086 149.532 157.869C149.844 157.652 150.091 157.371 150.273 157.024L151.183 157.479C151.018 157.817 150.797 158.112 150.52 158.363C150.251 158.614 149.931 158.809 149.558 158.948C149.194 159.087 148.787 159.156 148.336 159.156ZM145.801 155.945L145.814 155.048H150.637V155.945H145.801ZM156.37 155.477C156.37 154.775 156.504 154.207 156.773 153.774C157.041 153.332 157.384 153.007 157.8 152.799C158.224 152.582 158.671 152.474 159.139 152.474V153.449C158.757 153.449 158.389 153.514 158.034 153.644C157.687 153.765 157.401 153.969 157.176 154.255C156.95 154.541 156.838 154.931 156.838 155.425L156.37 155.477ZM155.798 159V152.5H156.838V159H155.798ZM164.194 159L164.129 157.934V155.568C164.129 155.057 164.069 154.636 163.947 154.307C163.835 153.969 163.657 153.718 163.414 153.553C163.18 153.38 162.868 153.293 162.478 153.293C162.106 153.293 161.781 153.367 161.503 153.514C161.235 153.661 161.014 153.891 160.84 154.203L159.904 153.826C160.078 153.523 160.286 153.258 160.528 153.033C160.771 152.808 161.053 152.639 161.373 152.526C161.703 152.405 162.075 152.344 162.491 152.344C163.089 152.344 163.588 152.461 163.986 152.695C164.385 152.929 164.684 153.28 164.883 153.748C165.083 154.207 165.178 154.784 165.169 155.477L165.156 159H164.194ZM162.244 159.156C161.482 159.156 160.884 158.983 160.45 158.636C160.026 158.281 159.813 157.791 159.813 157.167C159.813 156.508 160.03 156.006 160.463 155.659C160.905 155.304 161.521 155.126 162.309 155.126H164.168V155.997H162.543C161.937 155.997 161.503 156.097 161.243 156.296C160.992 156.495 160.866 156.781 160.866 157.154C160.866 157.492 160.992 157.761 161.243 157.96C161.495 158.151 161.846 158.246 162.296 158.246C162.669 158.246 162.994 158.159 163.271 157.986C163.549 157.813 163.761 157.579 163.908 157.284C164.056 156.981 164.129 156.638 164.129 156.257H164.766C164.766 157.141 164.55 157.847 164.116 158.376C163.683 158.896 163.059 159.156 162.244 159.156ZM169.261 159.156C168.629 159.156 168.139 158.991 167.792 158.662C167.446 158.333 167.272 157.869 167.272 157.271V150.472H168.312V157.167C168.312 157.496 168.399 157.752 168.572 157.934C168.754 158.107 169.006 158.194 169.326 158.194C169.43 158.194 169.53 158.181 169.625 158.155C169.729 158.12 169.864 158.042 170.028 157.921L170.431 158.766C170.206 158.913 170.002 159.013 169.82 159.065C169.638 159.126 169.452 159.156 169.261 159.156ZM166.141 153.423V152.5H170.262V153.423H166.141ZM174.539 159.156C173.907 159.156 173.348 159.013 172.862 158.727C172.377 158.432 171.996 158.029 171.718 157.518C171.45 157.007 171.315 156.417 171.315 155.75C171.315 155.083 171.45 154.493 171.718 153.982C171.996 153.471 172.373 153.072 172.849 152.786C173.335 152.491 173.889 152.344 174.513 152.344C175.111 152.344 175.631 152.496 176.073 152.799C176.524 153.094 176.871 153.51 177.113 154.047C177.356 154.584 177.477 155.217 177.477 155.945H176.437C176.437 155.39 176.364 154.918 176.216 154.528C176.069 154.129 175.848 153.822 175.553 153.605C175.267 153.388 174.916 153.28 174.5 153.28C174.076 153.28 173.699 153.384 173.369 153.592C173.049 153.791 172.802 154.077 172.628 154.45C172.455 154.823 172.368 155.26 172.368 155.763C172.368 156.257 172.464 156.686 172.654 157.05C172.845 157.405 173.109 157.687 173.447 157.895C173.785 158.094 174.167 158.194 174.591 158.194C175.042 158.194 175.423 158.086 175.735 157.869C176.047 157.652 176.294 157.371 176.476 157.024L177.386 157.479C177.222 157.817 177.001 158.112 176.723 158.363C176.455 158.614 176.134 158.809 175.761 158.948C175.397 159.087 174.99 159.156 174.539 159.156ZM172.004 155.945L172.017 155.048H176.84V155.945H172.004Z" fill="#7A7C7F"/>
<path d="M131 239.075C131 251.736 120.659 262.204 108.192 259.999C94.6277 257.601 81.4791 253.07 69.247 246.532C50.2477 236.376 34.0462 221.692 22.0775 203.78C10.1088 185.867 2.74239 165.28 0.630801 143.84C-1.48079 122.401 1.7276 100.772 9.97178 80.8685C18.216 60.9653 31.2414 43.4024 47.8945 29.7356C64.5475 16.0689 84.314 6.71998 105.443 2.51713C126.572 -1.68572 148.412 -0.612811 169.027 5.64081C182.3 9.66699 194.801 15.7606 206.088 23.6558C216.463 30.913 216.373 45.6267 207.421 54.5794C198.468 63.5322 184.037 63.1924 173.026 56.9435C167.569 53.8469 161.767 51.3514 155.718 49.5165C142.318 45.4517 128.122 44.7543 114.388 47.4861C100.654 50.218 87.8059 56.2948 76.9814 65.1782C66.1569 74.0616 57.6904 85.4774 52.3317 98.4145C46.9729 111.352 44.8875 125.411 46.26 139.346C47.6326 153.282 52.4207 166.664 60.2004 178.307C67.98 189.95 78.511 199.495 90.8606 206.096C96.4352 209.075 102.303 211.414 108.351 213.082C120.556 216.45 131 226.414 131 239.075Z" fill="url(#paint0_linear_2684_11322)"/>
<defs>
<linearGradient id="paint0_linear_2684_11322" x1="-1.28103e-06" y1="262" x2="262" y2="-1.28103e-06" gradientUnits="userSpaceOnUse">
<stop stop-color="#5655D7"/>
<stop offset="1" stop-color="#7F7EFF"/>
</linearGradient>
</defs>
</svg>
