<svg width="48" height="48" viewBox="0 0 48 48" fill="none" xmlns="http://www.w3.org/2000/svg">
<rect width="48" height="48" rx="6" fill="#FF414B"/>
<path d="M22.5 32.25C22.5 32.4489 22.421 32.6397 22.2803 32.7803C22.1397 32.921 21.9489 33 21.75 33H16.5C16.1022 33 15.7206 32.842 15.4393 32.5607C15.158 32.2794 15 31.8978 15 31.5V16.5C15 16.1022 15.158 15.7206 15.4393 15.4393C15.7206 15.158 16.1022 15 16.5 15H21.75C21.9489 15 22.1397 15.079 22.2803 15.2197C22.421 15.3603 22.5 15.5511 22.5 15.75C22.5 15.9489 22.421 16.1397 22.2803 16.2803C22.1397 16.421 21.9489 16.5 21.75 16.5H16.5V31.5H21.75C21.9489 31.5 22.1397 31.579 22.2803 31.7197C22.421 31.8603 22.5 32.0511 22.5 32.25ZM32.7806 23.4694L29.0306 19.7194C28.8899 19.5786 28.699 19.4996 28.5 19.4996C28.301 19.4996 28.1101 19.5786 27.9694 19.7194C27.8286 19.8601 27.7496 20.051 27.7496 20.25C27.7496 20.449 27.8286 20.6399 27.9694 20.7806L30.4397 23.25H21.75C21.5511 23.25 21.3603 23.329 21.2197 23.4697C21.079 23.6103 21 23.8011 21 24C21 24.1989 21.079 24.3897 21.2197 24.5303C21.3603 24.671 21.5511 24.75 21.75 24.75H30.4397L27.9694 27.2194C27.8286 27.3601 27.7496 27.551 27.7496 27.75C27.7496 27.949 27.8286 28.1399 27.9694 28.2806C28.1101 28.4214 28.301 28.5004 28.5 28.5004C28.699 28.5004 28.8899 28.4214 29.0306 28.2806L32.7806 24.5306C32.8504 24.461 32.9057 24.3783 32.9434 24.2872C32.9812 24.1962 33.0006 24.0986 33.0006 24C33.0006 23.9014 32.9812 23.8038 32.9434 23.7128C32.9057 23.6217 32.8504 23.539 32.7806 23.4694Z" fill="white"/>
</svg>
