<svg width="314" height="189" viewBox="0 0 314 189" fill="none" xmlns="http://www.w3.org/2000/svg">
<path d="M2.75 122.446L7.89167 105.53C13.0333 88.6135 23.3167 54.7804 33.6 45.6497C43.8833 36.5189 54.1667 52.0905 64.45 63.3927C74.7333 74.6949 85.0167 81.7278 95.3 73.7908C105.583 65.8538 115.867 42.947 126.15 54.1517C136.433 65.3564 146.717 110.673 157 108.118C167.283 105.563 177.567 55.137 187.85 37.6696C198.133 20.2022 208.417 35.6933 218.7 65.8917C228.983 96.0901 239.267 140.996 249.55 128.988C259.833 116.979 270.117 48.0574 280.4 22.0176C290.683 -4.02209 300.967 12.8205 306.108 21.2417L311.25 29.663" stroke="#5655D7" stroke-width="5" stroke-linecap="round"/>
<path opacity="0.4" d="M7.89167 106.352L2.75 123.411V148.889H311.25V29.8451L306.108 21.3528C300.967 12.8605 290.683 -4.1241 280.4 22.1353C270.117 48.3947 259.833 117.898 249.55 130.008C239.267 142.117 228.983 96.8326 218.7 66.3795C208.417 35.9264 198.133 20.3046 187.85 37.9193C177.567 55.5341 167.283 106.385 157 108.962C146.717 111.538 136.433 65.8397 126.15 54.5405C115.867 43.2412 105.583 66.3413 95.3 74.3452C85.0167 82.3492 74.7333 75.257 64.45 63.8594C54.1667 52.4619 43.8833 36.7589 33.6 45.9667C23.3167 55.1745 13.0333 89.2929 7.89167 106.352Z" fill="url(#paint0_linear_2684_11389)"/>
<circle cx="198.107" cy="28.4195" r="6.06992" fill="#5655D7" stroke="white" stroke-width="4"/>
<circle cx="36.5655" cy="44.6992" r="6.06992" fill="#5655D7" stroke="white" stroke-width="4"/>
<circle cx="80.3351" cy="78.0725" r="6.06992" fill="#5655D7" stroke="white" stroke-width="4"/>
<circle cx="119.22" cy="48.7691" r="6.06992" fill="#5655D7" stroke="white" stroke-width="4"/>
<circle cx="155.779" cy="106.562" r="6.06992" fill="#5655D7" stroke="white" stroke-width="4"/>
<circle cx="246.131" cy="130.982" r="6.06992" fill="#5655D7" stroke="white" stroke-width="4"/>
<circle cx="289.343" cy="8.06992" r="6.06992" fill="#5655D7" stroke="white" stroke-width="4"/>
<path d="M23.191 184.045C22.8357 184.045 22.515 183.993 22.229 183.889C21.9517 183.785 21.7047 183.651 21.488 183.486C21.2713 183.313 21.0893 183.122 20.942 182.914C20.7947 182.697 20.6777 182.481 20.591 182.264L21.618 181.744C21.7827 182.082 21.9907 182.355 22.242 182.563C22.502 182.771 22.8183 182.875 23.191 182.875C23.4943 182.875 23.7847 182.806 24.062 182.667C24.3393 182.528 24.569 182.299 24.751 181.978C24.933 181.649 25.024 181.22 25.024 180.691V174.789H26.298V181.146C26.298 181.623 26.2113 182.043 26.038 182.407C25.8733 182.762 25.6437 183.066 25.349 183.317C25.063 183.56 24.7337 183.742 24.361 183.863C23.9883 183.984 23.5983 184.045 23.191 184.045ZM32.1661 183.889L32.1011 182.758V180.496C32.1011 180.019 32.0447 179.625 31.9321 179.313C31.8281 178.992 31.6634 178.75 31.4381 178.585C31.2214 178.42 30.9311 178.338 30.5671 178.338C30.2291 178.338 29.9301 178.407 29.6701 178.546C29.4187 178.685 29.2107 178.901 29.0461 179.196L27.9281 178.78C28.0841 178.485 28.2834 178.221 28.5261 177.987C28.7687 177.753 29.0591 177.571 29.3971 177.441C29.7437 177.302 30.1424 177.233 30.5931 177.233C31.1997 177.233 31.7067 177.35 32.1141 177.584C32.5301 177.818 32.8377 178.169 33.0371 178.637C33.2451 179.096 33.3447 179.668 33.3361 180.353L33.3231 183.889H32.1661ZM30.2681 184.045C29.4967 184.045 28.8944 183.872 28.4611 183.525C28.0364 183.17 27.8241 182.68 27.8241 182.056C27.8241 181.389 28.0451 180.882 28.4871 180.535C28.9377 180.18 29.5617 180.002 30.3591 180.002H32.1661V180.977H30.6971C30.0991 180.977 29.6787 181.072 29.4361 181.263C29.1934 181.445 29.0721 181.701 29.0721 182.03C29.0721 182.333 29.1847 182.572 29.4101 182.745C29.6441 182.91 29.9647 182.992 30.3721 182.992C30.7274 182.992 31.0307 182.91 31.2821 182.745C31.5421 182.58 31.7414 182.364 31.8801 182.095C32.0274 181.818 32.1011 181.51 32.1011 181.172H32.6861C32.6861 182.056 32.4824 182.758 32.0751 183.278C31.6677 183.789 31.0654 184.045 30.2681 184.045ZM34.8912 183.889V177.389H36.0482L36.1262 178.585V183.889H34.8912ZM39.3892 183.889V180.561L40.6242 180.171V183.889H39.3892ZM39.3892 180.561C39.3892 179.972 39.3199 179.525 39.1812 179.222C39.0512 178.91 38.8649 178.693 38.6222 178.572C38.3882 178.451 38.1152 178.386 37.8032 178.377C37.2745 178.377 36.8629 178.563 36.5682 178.936C36.2735 179.309 36.1262 179.833 36.1262 180.509H35.5932C35.5932 179.824 35.6929 179.239 35.8922 178.754C36.0915 178.26 36.3775 177.883 36.7502 177.623C37.1315 177.363 37.5865 177.233 38.1152 177.233C38.8952 177.233 39.5062 177.476 39.9482 177.961C40.3989 178.438 40.6242 179.174 40.6242 180.171L39.3892 180.561Z" fill="#7A7C7F"/>
<path d="M62.657 183.889V174.789H63.931V183.889H62.657ZM63.762 179.989V178.819H67.623V179.989H63.762ZM63.762 175.959V174.789H68.169V175.959H63.762ZM72.2515 184.045C71.6188 184.045 71.0598 183.902 70.5745 183.616C70.0892 183.321 69.7078 182.918 69.4305 182.407C69.1532 181.896 69.0145 181.306 69.0145 180.639C69.0145 179.972 69.1532 179.382 69.4305 178.871C69.7078 178.36 70.0892 177.961 70.5745 177.675C71.0685 177.38 71.6318 177.233 72.2645 177.233C72.8538 177.233 73.3738 177.385 73.8245 177.688C74.2838 177.983 74.6392 178.407 74.8905 178.962C75.1505 179.508 75.2805 180.154 75.2805 180.899H74.0455C74.0542 180.344 73.9848 179.876 73.8375 179.495C73.6988 179.114 73.4908 178.828 73.2135 178.637C72.9448 178.438 72.6198 178.338 72.2385 178.338C71.8312 178.338 71.4802 178.433 71.1855 178.624C70.8908 178.806 70.6612 179.07 70.4965 179.417C70.3405 179.755 70.2625 180.171 70.2625 180.665C70.2625 181.124 70.3535 181.523 70.5355 181.861C70.7175 182.19 70.9645 182.45 71.2765 182.641C71.5885 182.823 71.9438 182.914 72.3425 182.914C72.7672 182.914 73.1182 182.814 73.3955 182.615C73.6815 182.416 73.9068 182.16 74.0715 181.848L75.1765 182.355C75.0032 182.693 74.7778 182.992 74.5005 183.252C74.2232 183.503 73.8938 183.698 73.5125 183.837C73.1398 183.976 72.7195 184.045 72.2515 184.045ZM69.8205 180.899L69.8335 179.885H74.5915V180.899H69.8205ZM76.5006 183.889V174.789H77.7356V182.68L77.6706 183.889H76.5006ZM79.8676 184.045C79.3216 184.045 78.8449 183.902 78.4376 183.616C78.0389 183.33 77.7312 182.931 77.5146 182.42C77.2979 181.909 77.1896 181.315 77.1896 180.639C77.1896 179.954 77.2979 179.361 77.5146 178.858C77.7312 178.347 78.0389 177.948 78.4376 177.662C78.8449 177.376 79.3216 177.233 79.8676 177.233C80.4482 177.233 80.9596 177.376 81.4016 177.662C81.8436 177.948 82.1859 178.347 82.4286 178.858C82.6799 179.361 82.8056 179.954 82.8056 180.639C82.8056 181.315 82.6799 181.909 82.4286 182.42C82.1859 182.931 81.8436 183.33 81.4016 183.616C80.9596 183.902 80.4482 184.045 79.8676 184.045ZM79.5686 182.927C79.9586 182.927 80.3009 182.832 80.5956 182.641C80.8902 182.442 81.1199 182.173 81.2846 181.835C81.4579 181.488 81.5446 181.09 81.5446 180.639C81.5446 180.188 81.4622 179.794 81.2976 179.456C81.1329 179.109 80.9032 178.841 80.6086 178.65C80.3139 178.451 79.9716 178.351 79.5816 178.351C79.2262 178.351 78.9056 178.451 78.6196 178.65C78.3422 178.841 78.1256 179.109 77.9696 179.456C77.8136 179.803 77.7356 180.197 77.7356 180.639C77.7356 181.09 77.8136 181.488 77.9696 181.835C78.1256 182.173 78.3422 182.442 78.6196 182.641C78.8969 182.832 79.2132 182.927 79.5686 182.927Z" fill="#7A7C7F"/>
<path d="M109.012 181.406L104.8 175.205L105.346 174.971L106.009 174.789L109.649 180.184L109.012 181.406ZM104.657 183.889V174.789H105.931V183.889H104.657ZM109.012 181.406L108.388 180.184L112.028 174.789L112.691 174.971L113.224 175.192L109.012 181.406ZM112.106 183.889V174.789H113.38V183.889H112.106ZM119.368 183.889L119.303 182.758V180.496C119.303 180.019 119.247 179.625 119.134 179.313C119.03 178.992 118.866 178.75 118.64 178.585C118.424 178.42 118.133 178.338 117.769 178.338C117.431 178.338 117.132 178.407 116.872 178.546C116.621 178.685 116.413 178.901 116.248 179.196L115.13 178.78C115.286 178.485 115.486 178.221 115.728 177.987C115.971 177.753 116.261 177.571 116.599 177.441C116.946 177.302 117.345 177.233 117.795 177.233C118.402 177.233 118.909 177.35 119.316 177.584C119.732 177.818 120.04 178.169 120.239 178.637C120.447 179.096 120.547 179.668 120.538 180.353L120.525 183.889H119.368ZM117.47 184.045C116.699 184.045 116.097 183.872 115.663 183.525C115.239 183.17 115.026 182.68 115.026 182.056C115.026 181.389 115.247 180.882 115.689 180.535C116.14 180.18 116.764 180.002 117.561 180.002H119.368V180.977H117.899C117.301 180.977 116.881 181.072 116.638 181.263C116.396 181.445 116.274 181.701 116.274 182.03C116.274 182.333 116.387 182.572 116.612 182.745C116.846 182.91 117.167 182.992 117.574 182.992C117.93 182.992 118.233 182.91 118.484 182.745C118.744 182.58 118.944 182.364 119.082 182.095C119.23 181.818 119.303 181.51 119.303 181.172H119.888C119.888 182.056 119.685 182.758 119.277 183.278C118.87 183.789 118.268 184.045 117.47 184.045ZM122.847 180.392C122.847 179.69 122.982 179.118 123.25 178.676C123.519 178.234 123.866 177.905 124.29 177.688C124.715 177.471 125.161 177.363 125.629 177.363V178.533C125.239 178.533 124.867 178.594 124.511 178.715C124.165 178.828 123.879 179.018 123.653 179.287C123.437 179.547 123.328 179.902 123.328 180.353L122.847 180.392ZM122.093 183.889V177.389H123.328V183.889H122.093Z" fill="#7A7C7F"/>
<path d="M153.949 183.889L150.348 174.789H151.648L155.314 183.889H153.949ZM146.617 183.889L150.283 174.789H151.583L147.982 183.889H146.617ZM148.346 181.458V180.314H153.585V181.458H148.346ZM156.348 186.489V177.389H157.505L157.583 178.585V186.489H156.348ZM159.715 184.045C159.169 184.045 158.692 183.902 158.285 183.616C157.886 183.33 157.578 182.931 157.362 182.42C157.145 181.909 157.037 181.315 157.037 180.639C157.037 179.954 157.145 179.361 157.362 178.858C157.578 178.347 157.886 177.948 158.285 177.662C158.692 177.376 159.169 177.233 159.715 177.233C160.295 177.233 160.807 177.376 161.249 177.662C161.691 177.948 162.033 178.347 162.276 178.858C162.527 179.361 162.653 179.954 162.653 180.639C162.653 181.315 162.527 181.909 162.276 182.42C162.033 182.931 161.691 183.33 161.249 183.616C160.807 183.902 160.295 184.045 159.715 184.045ZM159.416 182.927C159.806 182.927 160.148 182.832 160.443 182.641C160.737 182.442 160.967 182.173 161.132 181.835C161.305 181.488 161.392 181.09 161.392 180.639C161.392 180.188 161.309 179.794 161.145 179.456C160.98 179.109 160.75 178.841 160.456 178.65C160.161 178.451 159.819 178.351 159.429 178.351C159.073 178.351 158.753 178.451 158.467 178.65C158.189 178.841 157.973 179.109 157.817 179.456C157.661 179.803 157.583 180.197 157.583 180.639C157.583 181.09 157.661 181.488 157.817 181.835C157.973 182.173 158.189 182.442 158.467 182.641C158.744 182.832 159.06 182.927 159.416 182.927ZM164.756 180.392C164.756 179.69 164.89 179.118 165.159 178.676C165.427 178.234 165.774 177.905 166.199 177.688C166.623 177.471 167.07 177.363 167.538 177.363V178.533C167.148 178.533 166.775 178.594 166.42 178.715C166.073 178.828 165.787 179.018 165.562 179.287C165.345 179.547 165.237 179.902 165.237 180.353L164.756 180.392ZM164.002 183.889V177.389H165.237V183.889H164.002Z" fill="#7A7C7F"/>
<path d="M194.012 181.406L189.8 175.205L190.346 174.971L191.009 174.789L194.649 180.184L194.012 181.406ZM189.657 183.889V174.789H190.931V183.889H189.657ZM194.012 181.406L193.388 180.184L197.028 174.789L197.691 174.971L198.224 175.192L194.012 181.406ZM197.106 183.889V174.789H198.38V183.889H197.106ZM204.368 183.889L204.303 182.758V180.496C204.303 180.019 204.247 179.625 204.134 179.313C204.03 178.992 203.866 178.75 203.64 178.585C203.424 178.42 203.133 178.338 202.769 178.338C202.431 178.338 202.132 178.407 201.872 178.546C201.621 178.685 201.413 178.901 201.248 179.196L200.13 178.78C200.286 178.485 200.486 178.221 200.728 177.987C200.971 177.753 201.261 177.571 201.599 177.441C201.946 177.302 202.345 177.233 202.795 177.233C203.402 177.233 203.909 177.35 204.316 177.584C204.732 177.818 205.04 178.169 205.239 178.637C205.447 179.096 205.547 179.668 205.538 180.353L205.525 183.889H204.368ZM202.47 184.045C201.699 184.045 201.097 183.872 200.663 183.525C200.239 183.17 200.026 182.68 200.026 182.056C200.026 181.389 200.247 180.882 200.689 180.535C201.14 180.18 201.764 180.002 202.561 180.002H204.368V180.977H202.899C202.301 180.977 201.881 181.072 201.638 181.263C201.396 181.445 201.274 181.701 201.274 182.03C201.274 182.333 201.387 182.572 201.612 182.745C201.846 182.91 202.167 182.992 202.574 182.992C202.93 182.992 203.233 182.91 203.484 182.745C203.744 182.58 203.944 182.364 204.082 182.095C204.23 181.818 204.303 181.51 204.303 181.172H204.888C204.888 182.056 204.685 182.758 204.277 183.278C203.87 183.789 203.268 184.045 202.47 184.045ZM207.772 186.645C207.581 186.645 207.369 186.61 207.135 186.541C206.91 186.472 206.676 186.381 206.433 186.268L206.888 185.254C207.079 185.341 207.243 185.406 207.382 185.449C207.529 185.492 207.646 185.514 207.733 185.514C207.95 185.514 208.132 185.453 208.279 185.332C208.435 185.211 208.561 185.042 208.656 184.825L209.41 183.044L211.724 177.389H213.05L209.969 184.695C209.804 185.094 209.631 185.44 209.449 185.735C209.267 186.03 209.042 186.255 208.773 186.411C208.513 186.567 208.179 186.645 207.772 186.645ZM209.072 183.889L206.225 177.389H207.538L209.891 183.031L210.268 183.889H209.072Z" fill="#7A7C7F"/>
<path d="M236.191 184.045C235.836 184.045 235.515 183.993 235.229 183.889C234.952 183.785 234.705 183.651 234.488 183.486C234.271 183.313 234.089 183.122 233.942 182.914C233.795 182.697 233.678 182.481 233.591 182.264L234.618 181.744C234.783 182.082 234.991 182.355 235.242 182.563C235.502 182.771 235.818 182.875 236.191 182.875C236.494 182.875 236.785 182.806 237.062 182.667C237.339 182.528 237.569 182.299 237.751 181.978C237.933 181.649 238.024 181.22 238.024 180.691V174.789H239.298V181.146C239.298 181.623 239.211 182.043 239.038 182.407C238.873 182.762 238.644 183.066 238.349 183.317C238.063 183.56 237.734 183.742 237.361 183.863C236.988 183.984 236.598 184.045 236.191 184.045ZM245.608 183.889L245.53 182.693V177.389H246.752V183.889H245.608ZM241.032 181.107V177.389H242.267V180.717L241.032 181.107ZM242.267 180.717C242.267 181.298 242.332 181.744 242.462 182.056C242.601 182.368 242.791 182.585 243.034 182.706C243.277 182.827 243.55 182.892 243.853 182.901C244.382 182.901 244.793 182.715 245.088 182.342C245.383 181.969 245.53 181.445 245.53 180.769H246.063C246.063 181.454 245.963 182.043 245.764 182.537C245.565 183.022 245.274 183.395 244.893 183.655C244.52 183.915 244.07 184.045 243.541 184.045C242.761 184.045 242.146 183.802 241.695 183.317C241.253 182.832 241.032 182.095 241.032 181.107L242.267 180.717ZM248.475 183.889V177.389H249.632L249.71 178.585V183.889H248.475ZM252.973 183.889V180.561L254.208 180.171V183.889H252.973ZM252.973 180.561C252.973 179.972 252.904 179.525 252.765 179.222C252.635 178.91 252.449 178.693 252.206 178.572C251.972 178.451 251.699 178.386 251.387 178.377C250.859 178.377 250.447 178.563 250.152 178.936C249.858 179.309 249.71 179.833 249.71 180.509H249.177C249.177 179.824 249.277 179.239 249.476 178.754C249.676 178.26 249.962 177.883 250.334 177.623C250.716 177.363 251.171 177.233 251.699 177.233C252.479 177.233 253.09 177.476 253.532 177.961C253.983 178.438 254.208 179.174 254.208 180.171L252.973 180.561Z" fill="#7A7C7F"/>
<path d="M278.191 184.045C277.836 184.045 277.515 183.993 277.229 183.889C276.952 183.785 276.705 183.651 276.488 183.486C276.271 183.313 276.089 183.122 275.942 182.914C275.795 182.697 275.678 182.481 275.591 182.264L276.618 181.744C276.783 182.082 276.991 182.355 277.242 182.563C277.502 182.771 277.818 182.875 278.191 182.875C278.494 182.875 278.785 182.806 279.062 182.667C279.339 182.528 279.569 182.299 279.751 181.978C279.933 181.649 280.024 181.22 280.024 180.691V174.789H281.298V181.146C281.298 181.623 281.211 182.043 281.038 182.407C280.873 182.762 280.644 183.066 280.349 183.317C280.063 183.56 279.734 183.742 279.361 183.863C278.988 183.984 278.598 184.045 278.191 184.045ZM287.608 183.889L287.53 182.693V177.389H288.752V183.889H287.608ZM283.032 181.107V177.389H284.267V180.717L283.032 181.107ZM284.267 180.717C284.267 181.298 284.332 181.744 284.462 182.056C284.601 182.368 284.791 182.585 285.034 182.706C285.277 182.827 285.55 182.892 285.853 182.901C286.382 182.901 286.793 182.715 287.088 182.342C287.383 181.969 287.53 181.445 287.53 180.769H288.063C288.063 181.454 287.963 182.043 287.764 182.537C287.565 183.022 287.274 183.395 286.893 183.655C286.52 183.915 286.07 184.045 285.541 184.045C284.761 184.045 284.146 183.802 283.695 183.317C283.253 182.832 283.032 182.095 283.032 181.107L284.267 180.717ZM290.475 183.889V174.789H291.71V183.889H290.475Z" fill="#7A7C7F"/>
<defs>
<linearGradient id="paint0_linear_2684_11389" x1="266.5" y1="7.99997" x2="270.57" y2="138.97" gradientUnits="userSpaceOnUse">
<stop stop-color="#5655D7"/>
<stop offset="1" stop-color="#7F7EFF" stop-opacity="0"/>
</linearGradient>
</defs>
</svg>
