<svg width="48" height="48" viewBox="0 0 48 48" fill="none" xmlns="http://www.w3.org/2000/svg">
<rect width="48" height="48" rx="6" fill="#00997E"/>
<path d="M24 14.25C22.0716 14.25 20.1866 14.8218 18.5832 15.8932C16.9798 16.9645 15.7301 18.4873 14.9922 20.2688C14.2542 22.0504 14.0611 24.0108 14.4373 25.9021C14.8136 27.7934 15.7422 29.5307 17.1057 30.8943C18.4693 32.2579 20.2066 33.1865 22.0979 33.5627C23.9892 33.9389 25.9496 33.7458 27.7312 33.0078C29.5127 32.2699 31.0355 31.0202 32.1068 29.4168C33.1782 27.8134 33.75 25.9284 33.75 24C33.7473 21.415 32.7192 18.9366 30.8913 17.1087C29.0634 15.2808 26.585 14.2527 24 14.25ZM18.945 30.5156C19.4876 29.6671 20.235 28.9688 21.1184 28.4851C22.0019 28.0013 22.9928 27.7478 24 27.7478C25.0072 27.7478 25.9982 28.0013 26.8816 28.4851C27.765 28.9688 28.5124 29.6671 29.055 30.5156C27.6097 31.6397 25.831 32.2499 24 32.2499C22.169 32.2499 20.3903 31.6397 18.945 30.5156ZM21 23.25C21 22.6567 21.176 22.0766 21.5056 21.5833C21.8352 21.0899 22.3038 20.7054 22.852 20.4784C23.4001 20.2513 24.0033 20.1919 24.5853 20.3076C25.1672 20.4234 25.7018 20.7091 26.1213 21.1287C26.5409 21.5482 26.8266 22.0828 26.9424 22.6647C27.0581 23.2467 26.9987 23.8499 26.7716 24.3981C26.5446 24.9462 26.1601 25.4148 25.6667 25.7444C25.1734 26.0741 24.5933 26.25 24 26.25C23.2044 26.25 22.4413 25.9339 21.8787 25.3713C21.3161 24.8087 21 24.0456 21 23.25ZM30.165 29.4759C29.3285 28.2638 28.1524 27.3261 26.7844 26.7806C27.5192 26.2019 28.0554 25.4085 28.3184 24.5108C28.5815 23.6132 28.5582 22.6559 28.252 21.7721C27.9457 20.8882 27.3716 20.1218 26.6096 19.5794C25.8475 19.037 24.9354 18.7455 24 18.7455C23.0646 18.7455 22.1525 19.037 21.3904 19.5794C20.6284 20.1218 20.0543 20.8882 19.7481 21.7721C19.4418 22.6559 19.4185 23.6132 19.6816 24.5108C19.9446 25.4085 20.4808 26.2019 21.2156 26.7806C19.8476 27.3261 18.6715 28.2638 17.835 29.4759C16.778 28.2873 16.0872 26.8185 15.8457 25.2464C15.6041 23.6743 15.8222 22.0658 16.4737 20.6148C17.1251 19.1637 18.1821 17.9319 19.5174 17.0677C20.8528 16.2035 22.4094 15.7437 24 15.7437C25.5906 15.7437 27.1473 16.2035 28.4826 17.0677C29.8179 17.9319 30.8749 19.1637 31.5263 20.6148C32.1778 22.0658 32.3959 23.6743 32.1543 25.2464C31.9128 26.8185 31.222 28.2873 30.165 29.4759Z" fill="white"/>
</svg>
