<svg width="48" height="48" viewBox="0 0 48 48" fill="none" xmlns="http://www.w3.org/2000/svg">
<rect width="48" height="48" rx="6" fill="#4ABDE8"/>
<path d="M19.5 17.25V14.25C19.5 14.0511 19.579 13.8603 19.7197 13.7197C19.8603 13.579 20.0511 13.5 20.25 13.5C20.4489 13.5 20.6397 13.579 20.7803 13.7197C20.921 13.8603 21 14.0511 21 14.25V17.25C21 17.4489 20.921 17.6397 20.7803 17.7803C20.6397 17.921 20.4489 18 20.25 18C20.0511 18 19.8603 17.921 19.7197 17.7803C19.579 17.6397 19.5 17.4489 19.5 17.25ZM23.25 18C23.4489 18 23.6397 17.921 23.7803 17.7803C23.921 17.6397 24 17.4489 24 17.25V14.25C24 14.0511 23.921 13.8603 23.7803 13.7197C23.6397 13.579 23.4489 13.5 23.25 13.5C23.0511 13.5 22.8603 13.579 22.7197 13.7197C22.579 13.8603 22.5 14.0511 22.5 14.25V17.25C22.5 17.4489 22.579 17.6397 22.7197 17.7803C22.8603 17.921 23.0511 18 23.25 18ZM26.25 18C26.4489 18 26.6397 17.921 26.7803 17.7803C26.921 17.6397 27 17.4489 27 17.25V14.25C27 14.0511 26.921 13.8603 26.7803 13.7197C26.6397 13.579 26.4489 13.5 26.25 13.5C26.0511 13.5 25.8603 13.579 25.7197 13.7197C25.579 13.8603 25.5 14.0511 25.5 14.25V17.25C25.5 17.4489 25.579 17.6397 25.7197 17.7803C25.8603 17.921 26.0511 18 26.25 18ZM35.25 23.25V24C35.2497 24.954 34.8859 25.8719 34.2325 26.5671C33.5792 27.2622 32.6855 27.6822 31.7334 27.7416C31.2218 29.1887 30.3508 30.482 29.2022 31.5H31.5C31.6989 31.5 31.8897 31.579 32.0303 31.7197C32.171 31.8603 32.25 32.0511 32.25 32.25C32.25 32.4489 32.171 32.6397 32.0303 32.7803C31.8897 32.921 31.6989 33 31.5 33H15C14.8011 33 14.6103 32.921 14.4697 32.7803C14.329 32.6397 14.25 32.4489 14.25 32.25C14.25 32.0511 14.329 31.8603 14.4697 31.7197C14.6103 31.579 14.8011 31.5 15 31.5H17.3006C16.3437 30.6546 15.577 29.6158 15.0512 28.4523C14.5253 27.2887 14.2522 26.0269 14.25 24.75V20.25C14.25 20.0511 14.329 19.8603 14.4697 19.7197C14.6103 19.579 14.8011 19.5 15 19.5H31.5C32.4946 19.5 33.4484 19.8951 34.1516 20.5983C34.8549 21.3016 35.25 22.2554 35.25 23.25ZM30.75 21H15.75V24.75C15.7529 26.1582 16.1509 27.5373 16.8986 28.7306C17.6464 29.9239 18.714 30.8834 19.98 31.5H26.52C27.786 30.8834 28.8536 29.9239 29.6014 28.7306C30.3492 27.5373 30.7471 26.1582 30.75 24.75V21ZM33.75 23.25C33.7499 22.7848 33.6055 22.3311 33.3369 21.9514C33.0683 21.5716 32.6886 21.2844 32.25 21.1294V24.75C32.2494 25.221 32.2118 25.6912 32.1375 26.1562C32.6028 26.0188 33.0113 25.7345 33.3019 25.3459C33.5925 24.9574 33.7497 24.4852 33.75 24V23.25Z" fill="white"/>
</svg>
