<svg width="18" height="18" viewBox="0 0 18 18" fill="none" xmlns="http://www.w3.org/2000/svg">
<path d="M16.5 0H1.5C1.10218 0 0.720644 0.158035 0.43934 0.43934C0.158035 0.720644 0 1.10218 0 1.5V16.5C0 16.8978 0.158035 17.2794 0.43934 17.5607C0.720644 17.842 1.10218 18 1.5 18H16.5C16.8978 18 17.2794 17.842 17.5607 17.5607C17.842 17.2794 18 16.8978 18 16.5V1.5C18 1.10218 17.842 0.720644 17.5607 0.43934C17.2794 0.158035 16.8978 0 16.5 0ZM16.5 16.5H1.5V1.5H16.5V16.5ZM4.5 9C4.5 8.80109 4.57902 8.61032 4.71967 8.46967C4.86032 8.32902 5.05109 8.25 5.25 8.25H10.9397L9.21937 6.53063C9.07864 6.38989 8.99958 6.19902 8.99958 6C8.99958 5.80098 9.07864 5.61011 9.21937 5.46937C9.36011 5.32864 9.55098 5.24958 9.75 5.24958C9.94902 5.24958 10.1399 5.32864 10.2806 5.46937L13.2806 8.46937C13.3504 8.53903 13.4057 8.62175 13.4434 8.7128C13.4812 8.80384 13.5006 8.90144 13.5006 9C13.5006 9.09856 13.4812 9.19616 13.4434 9.2872C13.4057 9.37825 13.3504 9.46097 13.2806 9.53063L10.2806 12.5306C10.1399 12.6714 9.94902 12.7504 9.75 12.7504C9.55098 12.7504 9.36011 12.6714 9.21937 12.5306C9.07864 12.3899 8.99958 12.199 8.99958 12C8.99958 11.801 9.07864 11.6101 9.21937 11.4694L10.9397 9.75H5.25C5.05109 9.75 4.86032 9.67098 4.71967 9.53033C4.57902 9.38968 4.5 9.19891 4.5 9Z" fill="#A6A8A9"/>
</svg>
