<svg width="20" height="20" viewBox="0 0 20 20" fill="none" xmlns="http://www.w3.org/2000/svg">
<path d="M10 5.50004C9.10998 5.50004 8.23995 5.76396 7.49993 6.25843C6.75991 6.7529 6.18313 7.4557 5.84254 8.27797C5.50195 9.10024 5.41283 10.005 5.58646 10.8779C5.7601 11.7509 6.18868 12.5527 6.81802 13.182C7.44735 13.8114 8.24918 14.2399 9.12209 14.4136C9.99501 14.5872 10.8998 14.4981 11.7221 14.1575C12.5443 13.8169 13.2471 13.2401 13.7416 12.5001C14.2361 11.7601 14.5 10.8901 14.5 10C14.4988 8.80695 14.0243 7.66308 13.1806 6.81943C12.337 5.97579 11.1931 5.50128 10 5.50004ZM10 13C9.40665 13 8.82664 12.8241 8.33329 12.4945C7.83994 12.1648 7.45542 11.6963 7.22836 11.1481C7.0013 10.5999 6.94189 9.99672 7.05764 9.41477C7.1734 8.83283 7.45912 8.29828 7.87868 7.87872C8.29823 7.45917 8.83278 7.17344 9.41473 7.05769C9.99667 6.94193 10.5999 7.00134 11.148 7.2284C11.6962 7.45547 12.1648 7.83999 12.4944 8.33333C12.8241 8.82668 13 9.4067 13 10C13 10.7957 12.6839 11.5588 12.1213 12.1214C11.5587 12.684 10.7956 13 10 13ZM18.25 10.2025C18.2537 10.0675 18.2537 9.93254 18.25 9.79754L19.6487 8.05004C19.7221 7.95829 19.7729 7.8506 19.797 7.73563C19.8211 7.62067 19.8178 7.50165 19.7875 7.38817C19.5582 6.52623 19.2152 5.69865 18.7675 4.92723C18.7089 4.82628 18.6275 4.7404 18.5299 4.67644C18.4322 4.61248 18.321 4.57219 18.205 4.55879L15.9812 4.31129C15.8887 4.21379 15.795 4.12004 15.7 4.03004L15.4375 1.80067C15.424 1.68462 15.3836 1.57333 15.3194 1.47567C15.2553 1.37801 15.1693 1.29668 15.0681 1.23817C14.2964 0.791306 13.4689 0.448637 12.6072 0.219105C12.4936 0.188915 12.3746 0.185827 12.2596 0.210091C12.1446 0.234354 12.037 0.28529 11.9453 0.358793L10.2025 1.75004C10.0675 1.75004 9.9325 1.75004 9.7975 1.75004L8.05 0.354105C7.95825 0.280763 7.85055 0.229997 7.73559 0.205897C7.62062 0.181797 7.50161 0.185037 7.38812 0.215355C6.52633 0.445068 5.6988 0.788058 4.92719 1.23536C4.82623 1.29397 4.74036 1.37535 4.67639 1.473C4.61243 1.57065 4.57215 1.68189 4.55875 1.79786L4.31125 4.02536C4.21375 4.11848 4.12 4.21223 4.03 4.30661L1.80062 4.56254C1.68457 4.57605 1.57328 4.61647 1.47562 4.6806C1.37796 4.74473 1.29663 4.83079 1.23812 4.93192C0.79126 5.70363 0.448592 6.53114 0.21906 7.39286C0.188869 7.50641 0.185781 7.62547 0.210045 7.74044C0.234308 7.8554 0.285244 7.96306 0.358747 8.05473L1.75 9.79754C1.75 9.93254 1.75 10.0675 1.75 10.2025L0.35406 11.95C0.280717 12.0418 0.229951 12.1495 0.205851 12.2645C0.181751 12.3794 0.184991 12.4984 0.215309 12.6119C0.444612 13.4739 0.787624 14.3014 1.23531 15.0729C1.29393 15.1738 1.3753 15.2597 1.47296 15.3236C1.57061 15.3876 1.68184 15.4279 1.79781 15.4413L4.02156 15.6888C4.11469 15.7863 4.20844 15.88 4.30281 15.97L4.5625 18.1994C4.576 18.3155 4.61643 18.4268 4.68056 18.5244C4.74469 18.6221 4.83075 18.7034 4.93187 18.7619C5.70359 19.2088 6.5311 19.5515 7.39281 19.781C7.50636 19.8112 7.62542 19.8143 7.74039 19.79C7.85536 19.7657 7.96302 19.7148 8.05469 19.6413L9.7975 18.25C9.9325 18.2538 10.0675 18.2538 10.2025 18.25L11.95 19.6488C12.0417 19.7221 12.1494 19.7729 12.2644 19.797C12.3794 19.8211 12.4984 19.8179 12.6119 19.7875C13.4738 19.5582 14.3014 19.2152 15.0728 18.7675C15.1738 18.7089 15.2596 18.6276 15.3236 18.5299C15.3876 18.4322 15.4278 18.321 15.4412 18.205L15.6887 15.9813C15.7862 15.8888 15.88 15.795 15.97 15.7L18.1994 15.4375C18.3154 15.424 18.4267 15.3836 18.5244 15.3195C18.622 15.2554 18.7034 15.1693 18.7619 15.0682C19.2087 14.2965 19.5514 13.4689 19.7809 12.6072C19.8111 12.4937 19.8142 12.3746 19.79 12.2597C19.7657 12.1447 19.7148 12.037 19.6412 11.9454L18.25 10.2025ZM16.7406 9.59317C16.7566 9.86419 16.7566 10.1359 16.7406 10.4069C16.7295 10.5925 16.7876 10.7756 16.9037 10.9207L18.2341 12.5829C18.0814 13.068 17.886 13.5386 17.65 13.9891L15.5312 14.2291C15.3467 14.2496 15.1764 14.3378 15.0531 14.4766C14.8727 14.6796 14.6805 14.8718 14.4775 15.0522C14.3387 15.1755 14.2505 15.3458 14.23 15.5304L13.9947 17.6472C13.5442 17.8833 13.0736 18.0788 12.5884 18.2313L10.9253 16.901C10.7922 16.7946 10.6269 16.7368 10.4566 16.7369H10.4116C10.1405 16.7529 9.86883 16.7529 9.59781 16.7369C9.41226 16.7257 9.22918 16.7839 9.08406 16.9L7.41718 18.2313C6.93206 18.0786 6.46146 17.8832 6.01093 17.6472L5.77094 15.5313C5.75045 15.3468 5.66227 15.1764 5.52344 15.0532C5.32047 14.8727 5.12827 14.6805 4.94781 14.4775C4.82456 14.3387 4.6542 14.2505 4.46969 14.23L2.35281 13.9938C2.11674 13.5433 1.92128 13.0727 1.76875 12.5875L3.09906 10.9244C3.21522 10.7793 3.27335 10.5962 3.26219 10.4107C3.24625 10.1397 3.24625 9.86793 3.26219 9.59692C3.27335 9.41137 3.21522 9.22829 3.09906 9.08317L1.76875 7.41723C1.9214 6.93211 2.11685 6.4615 2.35281 6.01098L4.46875 5.77098C4.65326 5.7505 4.82362 5.66231 4.94687 5.52348C5.12733 5.32052 5.31954 5.12832 5.5225 4.94786C5.66188 4.82452 5.75043 4.65377 5.77094 4.46879L6.00625 2.35286C6.45672 2.11679 6.92733 1.92132 7.4125 1.76879L9.07562 3.09911C9.22074 3.21527 9.40383 3.2734 9.58937 3.26223C9.86039 3.24629 10.1321 3.24629 10.4031 3.26223C10.5887 3.2734 10.7718 3.21527 10.9169 3.09911L12.5828 1.76879C13.0679 1.92144 13.5385 2.1169 13.9891 2.35286L14.2291 4.46879C14.2495 4.65331 14.3377 4.82367 14.4766 4.94692C14.6795 5.12738 14.8717 5.31958 15.0522 5.52254C15.1754 5.66138 15.3458 5.74956 15.5303 5.77004L17.6472 6.00536C17.8833 6.45583 18.0787 6.92644 18.2312 7.41161L16.9009 9.07473C16.7837 9.22107 16.7255 9.40604 16.7378 9.59317H16.7406Z" fill="#646669"/>
</svg>
