<svg width="19" height="19" viewBox="0 0 19 19" fill="none" xmlns="http://www.w3.org/2000/svg">
<path d="M18.07 11.2228C17.9818 11.1345 17.8712 11.0718 17.7501 11.0415C17.6289 11.0112 17.5019 11.0145 17.3825 11.051C16.0715 11.4473 14.6777 11.4805 13.3493 11.1471C12.021 10.8137 10.8081 10.1262 9.83967 9.15782C8.87128 8.18943 8.18376 6.97645 7.85037 5.64814C7.51698 4.31983 7.55021 2.92595 7.94651 1.61504C7.9833 1.49559 7.98682 1.36837 7.9567 1.24706C7.92659 1.12576 7.86397 1.01496 7.77559 0.926584C7.68722 0.838205 7.57642 0.775591 7.45511 0.745476C7.33381 0.71536 7.20659 0.718882 7.08714 0.755663C5.27474 1.31086 3.68362 2.42353 2.54019 3.93535C1.54023 5.26296 0.93028 6.84311 0.778867 8.49826C0.627454 10.1534 0.940576 11.818 1.68305 13.305C2.42553 14.792 3.56795 16.0425 4.98196 16.9161C6.39597 17.7896 8.02554 18.2515 9.68761 18.25C11.6267 18.2559 13.5141 17.6256 15.0604 16.4556C16.5722 15.3122 17.6849 13.721 18.2401 11.9086C18.2765 11.7896 18.2798 11.663 18.2499 11.5422C18.2199 11.4214 18.1577 11.3111 18.07 11.2228ZM14.2337 15.3573C12.7775 16.4541 10.9742 16.988 9.15561 16.8606C7.33705 16.7333 5.62569 15.9533 4.33657 14.6643C3.04745 13.3753 2.26735 11.664 2.13986 9.84544C2.01238 8.02689 2.5461 6.22349 3.64277 4.76723C4.35725 3.82368 5.28096 3.05883 6.3412 2.53285C6.2808 2.95672 6.25036 3.38431 6.25011 3.81246C6.25261 6.18206 7.19504 8.4539 8.87061 10.1295C10.5462 11.805 12.818 12.7475 15.1876 12.75C15.6166 12.7498 16.0451 12.7194 16.4698 12.6589C15.9433 13.7193 15.1779 14.643 14.2337 15.3573Z" fill="#4D5154"/>
</svg>
