<svg width="52" height="52" viewBox="0 0 52 52" fill="none" xmlns="http://www.w3.org/2000/svg">
<g filter="url(#filter0_d_20_11939)">
<rect x="6.5" y="4.5" width="39" height="39" rx="19.5" stroke="#465762" shape-rendering="crispEdges"/>
<rect x="6.5" y="4.5" width="39" height="39" rx="19.5" stroke="white" stroke-opacity="0.8" shape-rendering="crispEdges"/>
<path d="M26 19.5C25.11 19.5 24.24 19.764 23.5 20.2584C22.76 20.7529 22.1832 21.4557 21.8426 22.278C21.502 23.1002 21.4129 24.005 21.5865 24.8779C21.7601 25.7509 22.1887 26.5527 22.8181 27.182C23.4474 27.8114 24.2492 28.2399 25.1221 28.4136C25.9951 28.5872 26.8999 28.4981 27.7221 28.1575C28.5444 27.8169 29.2472 27.2401 29.7417 26.5001C30.2361 25.7601 30.5 24.8901 30.5 24C30.4988 22.807 30.0243 21.6631 29.1807 20.8194C28.337 19.9758 27.1931 19.5013 26 19.5ZM26 27C25.4067 27 24.8267 26.8241 24.3333 26.4945C23.84 26.1648 23.4555 25.6963 23.2284 25.1481C23.0013 24.5999 22.9419 23.9967 23.0577 23.4148C23.1734 22.8328 23.4592 22.2983 23.8787 21.8787C24.2983 21.4592 24.8328 21.1734 25.4148 21.0577C25.9967 20.9419 26.5999 21.0013 27.1481 21.2284C27.6963 21.4555 28.1648 21.84 28.4945 22.3333C28.8241 22.8267 29 23.4067 29 24C29 24.7957 28.684 25.5588 28.1214 26.1214C27.5588 26.684 26.7957 27 26 27ZM34.25 24.2025C34.2538 24.0675 34.2538 23.9325 34.25 23.7975L35.6488 22.05C35.7221 21.9583 35.7729 21.8506 35.797 21.7356C35.8211 21.6207 35.8179 21.5017 35.7875 21.3882C35.5582 20.5262 35.2152 19.6987 34.7675 18.9272C34.7089 18.8263 34.6276 18.7404 34.5299 18.6764C34.4322 18.6125 34.321 18.5722 34.205 18.5588L31.9813 18.3113C31.8888 18.2138 31.795 18.12 31.7 18.03L31.4375 15.8007C31.424 15.6846 31.3836 15.5733 31.3195 15.4757C31.2554 15.378 31.1693 15.2967 31.0682 15.2382C30.2965 14.7913 29.4689 14.4486 28.6072 14.2191C28.4937 14.1889 28.3746 14.1858 28.2597 14.2101C28.1447 14.2344 28.037 14.2853 27.9454 14.3588L26.2025 15.75C26.0675 15.75 25.9325 15.75 25.7975 15.75L24.05 14.3541C23.9583 14.2808 23.8506 14.23 23.7356 14.2059C23.6207 14.1818 23.5017 14.185 23.3882 14.2154C22.5264 14.4451 21.6988 14.7881 20.9272 15.2354C20.8263 15.294 20.7404 15.3753 20.6764 15.473C20.6125 15.5707 20.5722 15.6819 20.5588 15.7979L20.3113 18.0254C20.2138 18.1185 20.12 18.2122 20.03 18.3066L17.8007 18.5625C17.6846 18.576 17.5733 18.6165 17.4757 18.6806C17.378 18.7447 17.2967 18.8308 17.2382 18.9319C16.7913 19.7036 16.4486 20.5311 16.2191 21.3929C16.1889 21.5064 16.1858 21.6255 16.2101 21.7404C16.2344 21.8554 16.2853 21.9631 16.3588 22.0547L17.75 23.7975C17.75 23.9325 17.75 24.0675 17.75 24.2025L16.3541 25.95C16.2808 26.0418 16.23 26.1495 16.2059 26.2645C16.1818 26.3794 16.185 26.4984 16.2154 26.6119C16.4447 27.4739 16.7877 28.3014 17.2354 29.0729C17.294 29.1738 17.3753 29.2597 17.473 29.3236C17.5707 29.3876 17.6819 29.4279 17.7979 29.4413L20.0216 29.6888C20.1147 29.7863 20.2085 29.88 20.3029 29.97L20.5625 32.1994C20.576 32.3155 20.6165 32.4268 20.6806 32.5244C20.7447 32.6221 20.8308 32.7034 20.9319 32.7619C21.7036 33.2088 22.5311 33.5515 23.3929 33.781C23.5064 33.8112 23.6255 33.8143 23.7404 33.79C23.8554 33.7657 23.9631 33.7148 24.0547 33.6413L25.7975 32.25C25.9325 32.2538 26.0675 32.2538 26.2025 32.25L27.95 33.6488C28.0418 33.7221 28.1495 33.7729 28.2645 33.797C28.3794 33.8211 28.4984 33.8179 28.6119 33.7875C29.4739 33.5582 30.3014 33.2152 31.0729 32.7675C31.1738 32.7089 31.2597 32.6276 31.3236 32.5299C31.3876 32.4322 31.4279 32.321 31.4413 32.205L31.6888 29.9813C31.7863 29.8888 31.88 29.795 31.97 29.7L34.1994 29.4375C34.3155 29.424 34.4268 29.3836 34.5244 29.3195C34.6221 29.2554 34.7034 29.1693 34.7619 29.0682C35.2088 28.2965 35.5515 27.4689 35.781 26.6072C35.8112 26.4937 35.8143 26.3746 35.79 26.2597C35.7657 26.1447 35.7148 26.037 35.6413 25.9454L34.25 24.2025ZM32.7407 23.5932C32.7566 23.8642 32.7566 24.1359 32.7407 24.4069C32.7295 24.5925 32.7876 24.7756 32.9038 24.9207L34.2341 26.5829C34.0815 27.068 33.886 27.5386 33.65 27.9891L31.5313 28.2291C31.3468 28.2496 31.1764 28.3378 31.0532 28.4766C30.8727 28.6796 30.6805 28.8718 30.4775 29.0522C30.3387 29.1755 30.2505 29.3458 30.23 29.5304L29.9947 31.6472C29.5443 31.8833 29.0736 32.0788 28.5885 32.2313L26.9254 30.901C26.7923 30.7946 26.627 30.7368 26.4566 30.7369H26.4116C26.1406 30.7529 25.8689 30.7529 25.5979 30.7369C25.4123 30.7257 25.2292 30.7839 25.0841 30.9L23.4172 32.2313C22.9321 32.0786 22.4615 31.8832 22.011 31.6472L21.771 29.5313C21.7505 29.3468 21.6623 29.1764 21.5235 29.0532C21.3205 28.8727 21.1283 28.6805 20.9479 28.4775C20.8246 28.3387 20.6542 28.2505 20.4697 28.23L18.3529 27.9938C18.1168 27.5433 17.9213 27.0727 17.7688 26.5875L19.0991 24.9244C19.2153 24.7793 19.2734 24.5962 19.2622 24.4107C19.2463 24.1397 19.2463 23.8679 19.2622 23.5969C19.2734 23.4114 19.2153 23.2283 19.0991 23.0832L17.7688 21.4172C17.9214 20.9321 18.1169 20.4615 18.3529 20.011L20.4688 19.771C20.6533 19.7505 20.8237 19.6623 20.9469 19.5235C21.1274 19.3205 21.3196 19.1283 21.5225 18.9479C21.6619 18.8245 21.7505 18.6538 21.771 18.4688L22.0063 16.3529C22.4568 16.1168 22.9274 15.9213 23.4125 15.7688L25.0757 17.0991C25.2208 17.2153 25.4039 17.2734 25.5894 17.2622C25.8604 17.2463 26.1322 17.2463 26.4032 17.2622C26.5887 17.2734 26.7718 17.2153 26.9169 17.0991L28.5829 15.7688C29.068 15.9214 29.5386 16.1169 29.9891 16.3529L30.2291 18.4688C30.2496 18.6533 30.3378 18.8237 30.4766 18.9469C30.6796 19.1274 30.8718 19.3196 31.0522 19.5225C31.1755 19.6614 31.3458 19.7496 31.5304 19.77L33.6472 20.0054C33.8833 20.4558 34.0788 20.9264 34.2313 21.4116L32.901 23.0747C32.7837 23.2211 32.7255 23.406 32.7379 23.5932H32.7407Z" fill="#646669"/>
</g>
<defs>
<filter id="filter0_d_20_11939" x="0" y="0" width="52" height="52" filterUnits="userSpaceOnUse" color-interpolation-filters="sRGB">
<feFlood flood-opacity="0" result="BackgroundImageFix"/>
<feColorMatrix in="SourceAlpha" type="matrix" values="0 0 0 0 0 0 0 0 0 0 0 0 0 0 0 0 0 0 127 0" result="hardAlpha"/>
<feOffset dy="2"/>
<feGaussianBlur stdDeviation="3"/>
<feComposite in2="hardAlpha" operator="out"/>
<feColorMatrix type="matrix" values="0 0 0 0 0.564706 0 0 0 0 0.572549 0 0 0 0 0.580392 0 0 0 0.2 0"/>
<feBlend mode="normal" in2="BackgroundImageFix" result="effect1_dropShadow_20_11939"/>
<feBlend mode="normal" in="SourceGraphic" in2="effect1_dropShadow_20_11939" result="shape"/>
</filter>
</defs>
</svg>
