<svg width="24" height="25" viewBox="0 0 24 25" fill="none" xmlns="http://www.w3.org/2000/svg">
<path d="M19.5 8.45752H9V6.20752C9 5.41187 9.31607 4.64881 9.87868 4.0862C10.4413 3.52359 11.2044 3.20752 12 3.20752C13.4409 3.20752 14.7375 4.23877 15.015 5.60658C15.0562 5.79986 15.172 5.96907 15.3373 6.07743C15.5026 6.18579 15.7039 6.22454 15.8976 6.18526C16.0913 6.14598 16.2616 6.03185 16.3716 5.86766C16.4816 5.70348 16.5224 5.50252 16.485 5.30846C16.0612 3.22158 14.175 1.70752 12 1.70752C10.8069 1.70876 9.66303 2.18326 8.81939 3.02691C7.97575 3.87055 7.50124 5.01443 7.5 6.20752V8.45752H4.5C4.10218 8.45752 3.72064 8.61556 3.43934 8.89686C3.15804 9.17816 3 9.55969 3 9.95752V20.4575C3 20.8553 3.15804 21.2369 3.43934 21.5182C3.72064 21.7995 4.10218 21.9575 4.5 21.9575H19.5C19.8978 21.9575 20.2794 21.7995 20.5607 21.5182C20.842 21.2369 21 20.8553 21 20.4575V9.95752C21 9.55969 20.842 9.17816 20.5607 8.89686C20.2794 8.61556 19.8978 8.45752 19.5 8.45752ZM19.5 20.4575H4.5V9.95752H19.5V20.4575ZM12 11.4575C11.3696 11.4577 10.7604 11.6848 10.2836 12.0972C9.80684 12.5096 9.4944 13.0798 9.40339 13.7035C9.31238 14.3273 9.44887 14.963 9.78793 15.4944C10.127 16.0258 10.646 16.4175 11.25 16.5978V18.2075C11.25 18.4064 11.329 18.5972 11.4697 18.7379C11.6103 18.8785 11.8011 18.9575 12 18.9575C12.1989 18.9575 12.3897 18.8785 12.5303 18.7379C12.671 18.5972 12.75 18.4064 12.75 18.2075V16.5978C13.354 16.4175 13.873 16.0258 14.2121 15.4944C14.5511 14.963 14.6876 14.3273 14.5966 13.7035C14.5056 13.0798 14.1932 12.5096 13.7164 12.0972C13.2396 11.6848 12.6304 11.4577 12 11.4575ZM12 15.2075C11.7775 15.2075 11.56 15.1415 11.375 15.0179C11.19 14.8943 11.0458 14.7186 10.9606 14.513C10.8755 14.3075 10.8532 14.0813 10.8966 13.863C10.94 13.6448 11.0472 13.4444 11.2045 13.287C11.3618 13.1297 11.5623 13.0225 11.7805 12.9791C11.9988 12.9357 12.225 12.958 12.4305 13.0432C12.6361 13.1283 12.8118 13.2725 12.9354 13.4575C13.059 13.6425 13.125 13.86 13.125 14.0825C13.125 14.3809 13.0065 14.667 12.7955 14.878C12.5845 15.089 12.2984 15.2075 12 15.2075Z" fill="#4D5154"/>
</svg>
