<svg width="24" height="25" viewBox="0 0 24 25" fill="none" xmlns="http://www.w3.org/2000/svg">
<path d="M17.25 7.70752H3.75C3.35218 7.70752 2.97064 7.86556 2.68934 8.14686C2.40804 8.42816 2.25 8.80969 2.25 9.20752V19.7075C2.25 20.1053 2.40804 20.4869 2.68934 20.7682C2.97064 21.0495 3.35218 21.2075 3.75 21.2075H17.25C17.6478 21.2075 18.0294 21.0495 18.3107 20.7682C18.592 20.4869 18.75 20.1053 18.75 19.7075V9.20752C18.75 8.80969 18.592 8.42816 18.3107 8.14686C18.0294 7.86556 17.6478 7.70752 17.25 7.70752ZM17.25 19.7075H3.75V9.20752H17.25V19.7075ZM21.75 6.20752V17.4575C21.75 17.6564 21.671 17.8472 21.5303 17.9879C21.3897 18.1285 21.1989 18.2075 21 18.2075C20.8011 18.2075 20.6103 18.1285 20.4697 17.9879C20.329 17.8472 20.25 17.6564 20.25 17.4575V6.20752H6C5.80109 6.20752 5.61032 6.1285 5.46967 5.98785C5.32902 5.8472 5.25 5.65643 5.25 5.45752C5.25 5.25861 5.32902 5.06784 5.46967 4.92719C5.61032 4.78654 5.80109 4.70752 6 4.70752H20.25C20.6478 4.70752 21.0294 4.86555 21.3107 5.14686C21.592 5.42816 21.75 5.80969 21.75 6.20752Z" fill="#4D5154"/>
</svg>
