<svg width="24" height="25" viewBox="0 0 24 25" fill="none" xmlns="http://www.w3.org/2000/svg">
<path d="M12.8801 3.21315C12.6729 3.19508 12.4642 3.22029 12.2673 3.28718C12.0704 3.35408 11.8895 3.46119 11.7362 3.60172C11.5829 3.74224 11.4605 3.91312 11.3767 4.10348C11.293 4.29385 11.2498 4.49955 11.2498 4.70752V8.52033C11.2472 8.87413 11.3708 9.21725 11.5985 9.48806C11.8262 9.75887 12.143 9.93962 12.492 9.99783C13.0495 10.0914 13.5693 10.3406 13.9915 10.7167C14.4136 11.0929 14.7208 11.5806 14.8777 12.1238C15.0346 12.667 15.0349 13.2434 14.8784 13.7867C14.7219 14.33 14.4151 14.8181 13.9933 15.1946C13.5715 15.5711 13.0519 15.8207 12.4944 15.9147C11.9369 16.0087 11.3642 15.9433 10.8422 15.7259C10.3203 15.5086 9.87043 15.1482 9.54444 14.6862C9.21846 14.2243 9.02964 13.6796 8.99976 13.115C8.96133 12.3444 9.11883 11.7088 9.46851 11.2156C9.67403 10.929 9.77094 10.5785 9.74191 10.227C9.71289 9.87546 9.55983 9.54568 9.31008 9.29658L6.7207 6.64627C6.57311 6.49867 6.39633 6.38349 6.20168 6.30812C6.00702 6.23274 5.79878 6.19882 5.59027 6.20853C5.38176 6.21824 5.17757 6.27136 4.99076 6.36449C4.80395 6.45762 4.63864 6.58872 4.50539 6.7494C2.94255 8.62251 2.14182 11.0151 2.26236 13.4516C2.38291 15.8881 3.41592 18.19 5.15602 19.8997C6.97551 21.7049 9.43673 22.7147 11.9998 22.7075H12.1395C14.6749 22.6644 17.0945 21.6379 18.8876 19.8447C20.6806 18.0514 21.7069 15.6318 21.7498 13.0963C21.8201 8.00564 17.9238 3.66502 12.8801 3.21315ZM5.65477 7.7019L8.2432 10.3447V10.3503C7.85898 10.9017 7.6177 11.5399 7.54102 12.2075H3.78352C3.93372 10.5501 4.5866 8.97808 5.65477 7.7019ZM3.78445 13.7075H7.56258C7.71811 14.629 8.15669 15.4793 8.81743 16.1402C9.47817 16.8011 10.3283 17.2399 11.2498 17.3956V21.1738C9.32887 20.9983 7.53019 20.1553 6.16634 18.7912C4.80249 17.4272 3.9597 15.6284 3.78445 13.7075ZM17.8254 18.7831C16.4669 20.1511 14.6698 20.9966 12.7498 21.171V17.3956C13.6189 17.251 14.4257 16.852 15.0682 16.2491C15.6825 15.6768 16.1244 14.9441 16.344 14.1338C16.5636 13.3235 16.5522 12.4679 16.311 11.6638C16.0698 10.8596 15.6085 10.139 14.9791 9.58335C14.3498 9.02768 13.5776 8.65914 12.7498 8.5194V4.70752C17.0173 5.09002 20.3126 8.76502 20.2498 13.0747C20.2203 15.2216 19.3498 17.2712 17.8254 18.7831Z" fill="#4D5154"/>
</svg>
