<svg width="24" height="25" viewBox="0 0 24 25" fill="none" xmlns="http://www.w3.org/2000/svg">
<path d="M21.5306 6.42689L18.5306 3.42689C18.461 3.35716 18.3783 3.30184 18.2872 3.26409C18.1962 3.22635 18.0986 3.20692 18 3.20692C17.9014 3.20692 17.8038 3.22635 17.7128 3.26409C17.6217 3.30184 17.539 3.35716 17.4694 3.42689L8.46937 12.4269C8.39975 12.4966 8.34454 12.5793 8.3069 12.6704C8.26926 12.7614 8.24992 12.859 8.25 12.9575V15.9575C8.25 16.1564 8.32902 16.3472 8.46967 16.4878C8.61032 16.6285 8.80109 16.7075 9 16.7075H12C12.0985 16.7076 12.1961 16.6883 12.2871 16.6506C12.3782 16.613 12.4609 16.5578 12.5306 16.4881L21.5306 7.48814C21.6004 7.41849 21.6557 7.33577 21.6934 7.24472C21.7312 7.15367 21.7506 7.05608 21.7506 6.95751C21.7506 6.85895 21.7312 6.76136 21.6934 6.67031C21.6557 6.57926 21.6004 6.49654 21.5306 6.42689ZM11.6897 15.2075H9.75V13.2678L15.75 7.26783L17.6897 9.20751L11.6897 15.2075ZM18.75 8.1472L16.8103 6.20751L18 5.01783L19.9397 6.95751L18.75 8.1472ZM21 12.2075V20.4575C21 20.8553 20.842 21.2369 20.5607 21.5182C20.2794 21.7995 19.8978 21.9575 19.5 21.9575H4.5C4.10218 21.9575 3.72064 21.7995 3.43934 21.5182C3.15804 21.2369 3 20.8553 3 20.4575V5.45751C3 5.05969 3.15804 4.67816 3.43934 4.39685C3.72064 4.11555 4.10218 3.95751 4.5 3.95751H12.75C12.9489 3.95751 13.1397 4.03653 13.2803 4.17718C13.421 4.31784 13.5 4.5086 13.5 4.70751C13.5 4.90643 13.421 5.09719 13.2803 5.23784C13.1397 5.3785 12.9489 5.45751 12.75 5.45751H4.5V20.4575H19.5V12.2075C19.5 12.0086 19.579 11.8178 19.7197 11.6772C19.8603 11.5365 20.0511 11.4575 20.25 11.4575C20.4489 11.4575 20.6397 11.5365 20.7803 11.6772C20.921 11.8178 21 12.0086 21 12.2075Z" fill="#4D5154"/>
</svg>
