<svg width="24" height="25" viewBox="0 0 24 25" fill="none" xmlns="http://www.w3.org/2000/svg">
<path d="M7.50011 17.8325C7.50011 18.055 7.43413 18.2725 7.31052 18.4575C7.1869 18.6425 7.0112 18.7867 6.80563 18.8719C6.60007 18.957 6.37387 18.9793 6.15564 18.9359C5.93741 18.8925 5.73695 18.7853 5.57962 18.628C5.42228 18.4707 5.31514 18.2702 5.27173 18.052C5.22832 17.8338 5.2506 17.6076 5.33575 17.402C5.4209 17.1964 5.56509 17.0207 5.7501 16.8971C5.9351 16.7735 6.15261 16.7075 6.37511 16.7075C6.67348 16.7075 6.95963 16.826 7.17061 17.037C7.38159 17.248 7.50011 17.5341 7.50011 17.8325ZM21.7501 15.6003V20.4575C21.7501 20.8553 21.5921 21.2369 21.3108 21.5182C21.0295 21.7995 20.6479 21.9575 20.2501 21.9575H6.37511C6.12562 21.9577 5.87657 21.9363 5.63074 21.8938C4.55827 21.6981 3.60686 21.0858 2.98446 20.1908C2.36206 19.2957 2.11927 18.1907 2.30918 17.1172L4.65293 3.69877C4.68624 3.50488 4.75751 3.31947 4.86265 3.15319C4.96779 2.98691 5.10472 2.84302 5.2656 2.72979C5.42648 2.61656 5.60814 2.5362 5.80014 2.49334C5.99215 2.45048 6.19073 2.44595 6.38449 2.48002L11.5164 3.39502C11.9068 3.46539 12.2535 3.6876 12.4805 4.01301C12.7076 4.33841 12.7964 4.74051 12.7276 5.13127L11.5951 11.6L17.9523 9.30127C18.325 9.16667 18.7357 9.18497 19.0949 9.35219C19.4541 9.51941 19.7326 9.82195 19.8695 10.1938L21.6564 15.0847C21.7138 15.2508 21.7454 15.4247 21.7501 15.6003ZM8.90636 18.2891L11.2501 4.87064L6.13699 3.95752L3.79324 17.3731C3.67088 18.0555 3.82341 18.7586 4.21755 19.3289C4.61169 19.8992 5.21543 20.2904 5.89699 20.4172C6.23063 20.477 6.57284 20.47 6.90374 20.3964C7.23463 20.3229 7.54761 20.1843 7.82449 19.9888C8.10845 19.7913 8.35032 19.5393 8.53605 19.2475C8.72177 18.9557 8.84765 18.6299 8.90636 18.2891ZM10.1982 19.2388L20.2501 15.5928L18.4614 10.7075L11.297 13.3044L10.3801 18.5469C10.3394 18.7823 10.2785 19.0138 10.1982 19.2388ZM20.2501 17.1875L11.2257 20.4575H20.2501V17.1875Z" fill="#4D5154"/>
</svg>
