<svg width="24" height="25" viewBox="0 0 24 25" fill="none" xmlns="http://www.w3.org/2000/svg">
<path d="M21 5.45752H3C2.80109 5.45752 2.61032 5.53654 2.46967 5.67719C2.32902 5.81784 2.25 6.00861 2.25 6.20752V18.9575C2.25 19.3553 2.40804 19.7369 2.68934 20.0182C2.97064 20.2995 3.35218 20.4575 3.75 20.4575H20.25C20.6478 20.4575 21.0294 20.2995 21.3107 20.0182C21.592 19.7369 21.75 19.3553 21.75 18.9575V6.20752C21.75 6.00861 21.671 5.81784 21.5303 5.67719C21.3897 5.53654 21.1989 5.45752 21 5.45752ZM3.75 11.4575H7.5V14.4575H3.75V11.4575ZM9 11.4575H20.25V14.4575H9V11.4575ZM20.25 6.95752V9.95752H3.75V6.95752H20.25ZM3.75 15.9575H7.5V18.9575H3.75V15.9575ZM20.25 18.9575H9V15.9575H20.25V18.9575Z" fill="#4D5154"/>
</svg>
