<svg width="23" height="22" viewBox="0 0 23 22" fill="none" xmlns="http://www.w3.org/2000/svg">
<path d="M20.9583 11.6875V17.1875C20.9583 17.3699 20.8859 17.5447 20.757 17.6737C20.628 17.8026 20.4532 17.875 20.2708 17.875H14.7708C14.5885 17.875 14.4136 17.8026 14.2847 17.6737C14.1558 17.5447 14.0833 17.3699 14.0833 17.1875C14.0833 17.0052 14.1558 16.8303 14.2847 16.7014C14.4136 16.5724 14.5885 16.5 14.7708 16.5H18.6114L12.0208 9.90947L9.06974 12.8614C9.00588 12.9253 8.93006 12.9761 8.8466 13.0107C8.76314 13.0452 8.67368 13.0631 8.58333 13.0631C8.49298 13.0631 8.40352 13.0452 8.32006 13.0107C8.2366 12.9761 8.16077 12.9253 8.09692 12.8614L1.90942 6.67392C1.78042 6.54492 1.70795 6.36995 1.70795 6.18752C1.70795 6.00508 1.78042 5.83011 1.90942 5.70111C2.03843 5.57211 2.21339 5.49963 2.39583 5.49963C2.57827 5.49963 2.75323 5.57211 2.88224 5.70111L8.58333 11.4031L11.5344 8.45111C11.5983 8.38719 11.6741 8.33648 11.7576 8.30188C11.841 8.26728 11.9305 8.24948 12.0208 8.24948C12.1112 8.24948 12.2006 8.26728 12.2841 8.30188C12.3676 8.33648 12.4434 8.38719 12.5072 8.45111L19.5833 15.5281V11.6875C19.5833 11.5052 19.6558 11.3303 19.7847 11.2014C19.9136 11.0724 20.0885 11 20.2708 11C20.4532 11 20.628 11.0724 20.757 11.2014C20.8859 11.3303 20.9583 11.5052 20.9583 11.6875Z" fill="#FF414B"/>
</svg>
