<svg width="398" height="214" viewBox="0 0 398 214" fill="none" xmlns="http://www.w3.org/2000/svg">
<path d="M29.6907 102.822C-41.8459 149.375 8.30172 214.416 42.3176 241.117C147.495 322.704 159.821 227.636 311.723 297.595C463.626 367.553 433.173 318.321 625.542 82.0276C817.912 -154.265 565.692 -151.509 534.8 -105.194C503.908 -58.8785 448.17 -80.5062 378.932 -151.837C309.695 -223.167 135.636 -97.3773 165.827 -21.5672C196.019 54.2429 119.112 44.6303 29.6907 102.822Z" stroke="white" stroke-opacity="0.13"/>
<path d="M61.3418 100.263C-3.11433 142.254 42.0824 200.94 72.7377 225.034C167.524 298.656 178.619 212.887 315.508 276.024C452.397 339.16 424.95 294.738 598.264 81.578C771.579 -131.582 544.303 -129.127 516.472 -87.3456C488.641 -45.5638 438.412 -65.0837 376.013 -129.447C313.613 -193.811 156.784 -80.3448 183.999 -11.9446C211.215 56.4555 141.912 47.7731 61.3418 100.263Z" stroke="white" stroke-opacity="0.13"/>
<path d="M85.8934 98.4113C26.9369 136.778 68.2658 190.38 96.2998 212.386C182.981 279.625 193.139 201.276 318.329 258.932C443.518 316.588 418.421 276.013 576.961 81.2737C735.501 -113.466 527.636 -111.194 502.176 -73.0234C476.717 -34.8532 430.78 -52.6775 373.719 -111.464C316.657 -170.251 173.208 -66.5817 198.09 -4.10327C222.972 58.3751 159.589 50.4529 85.8934 98.4113Z" stroke="white" stroke-opacity="0.13"/>
<path d="M109.064 95.9094C55.3254 130.905 93.0035 179.809 118.56 199.886C197.58 261.234 206.834 189.759 320.956 242.367C435.078 294.975 412.197 257.958 556.699 80.316C701.201 -97.3259 511.721 -95.2704 488.516 -60.451C465.311 -25.6314 423.436 -41.8959 371.416 -95.53C319.396 -149.164 188.642 -54.6017 211.329 2.39764C234.016 59.397 176.238 52.1645 109.064 95.9094Z" stroke="white" stroke-opacity="0.13"/>
<path d="M134.258 93.9845C86.1722 125.338 119.897 169.167 142.77 187.163C213.494 242.151 221.765 178.1 323.9 225.261C426.035 272.422 405.553 239.246 534.842 80.0753C664.13 -79.0954 494.565 -77.2808 473.805 -46.0811C453.044 -14.8814 415.568 -29.4627 369.007 -77.5336C322.447 -125.605 205.45 -40.8826 225.76 10.1999C246.071 61.2823 194.365 54.7927 134.258 93.9845Z" stroke="white" stroke-opacity="0.13"/>
<path d="M160.746 91.9824C118.596 119.439 148.151 157.81 168.197 173.564C230.18 221.7 237.436 165.62 326.952 206.901C416.467 248.181 398.519 219.136 511.857 79.7602C625.195 -59.6157 476.572 -58.0083 458.372 -30.6891C440.172 -3.37 407.326 -16.1325 366.522 -58.2159C325.717 -100.299 223.161 -26.1082 240.957 18.6148C258.753 63.3378 213.434 57.6615 160.746 91.9824Z" stroke="white" stroke-opacity="0.13"/>
</svg>
