<svg width="51" height="51" viewBox="0 0 51 51" fill="none" xmlns="http://www.w3.org/2000/svg">
<circle cx="25.5469" cy="25.4531" r="19.859" stroke="#E9E9E9" stroke-width="11.1882" stroke-linecap="round"/>
<path d="M25.5469 50.9062C22.2043 50.9062 18.8945 50.2479 15.8064 48.9687C12.7183 47.6896 9.91234 45.8147 7.5488 43.4512C5.18526 41.0877 3.31039 38.2817 2.03125 35.1936C0.752114 32.1055 0.0937497 28.7957 0.09375 25.4531H11.5726C11.5726 27.2883 11.934 29.1054 12.6363 30.8009C13.3386 32.4963 14.3679 34.0368 15.6656 35.3344C16.9632 36.6321 18.5037 37.6614 20.1991 38.3637C21.8946 39.066 23.7117 39.4274 25.5469 39.4274L25.5469 50.9062Z" fill="url(#paint0_linear_466_10522)"/>
<defs>
<linearGradient id="paint0_linear_466_10522" x1="0.0937498" y1="50.9062" x2="51" y2="-2.48903e-07" gradientUnits="userSpaceOnUse">
<stop stop-color="#5655D7"/>
<stop offset="1" stop-color="#7F7EFF"/>
</linearGradient>
</defs>
</svg>
