<svg width="218" height="111" viewBox="0 0 218 111" fill="none" xmlns="http://www.w3.org/2000/svg">
<path d="M199.779 110.905C210.824 110.905 220.046 101.785 217.037 91.1574C216.27 88.4453 215.343 85.7749 214.26 83.1602C210.616 74.3641 205.276 66.3718 198.544 59.6395C191.812 52.9073 183.819 47.567 175.023 43.9235C166.227 40.2801 156.799 38.4048 147.279 38.4048C137.758 38.4048 128.33 40.2801 119.534 43.9235C110.738 47.567 102.746 52.9073 96.0133 59.6395C89.2811 66.3718 83.9407 74.3641 80.2973 83.1602C79.2143 85.7749 78.2875 88.4453 77.5197 91.1574C74.5111 101.785 83.7329 110.905 94.7786 110.905L199.779 110.905Z" fill="#465762"/>
<path d="M199.779 110.905C210.824 110.905 220.046 101.785 217.037 91.1574C216.27 88.4453 215.343 85.7749 214.26 83.1602C210.616 74.3641 205.276 66.3718 198.544 59.6395C191.812 52.9073 183.819 47.567 175.023 43.9235C166.227 40.2801 156.799 38.4048 147.279 38.4048C137.758 38.4048 128.33 40.2801 119.534 43.9235C110.738 47.567 102.746 52.9073 96.0133 59.6395C89.2811 66.3718 83.9407 74.3641 80.2973 83.1602C79.2143 85.7749 78.2875 88.4453 77.5197 91.1574C74.5111 101.785 83.7329 110.905 94.7786 110.905L199.779 110.905Z" fill="white" fill-opacity="0.8"/>
<path d="M186.245 46.2373C191.945 36.7764 188.924 24.2563 178.484 20.6471C169.336 17.4841 159.723 15.7176 149.969 15.4427C133.519 14.979 117.228 18.7743 102.676 26.4604C88.1241 34.1465 75.8054 45.4627 66.9146 59.3113C61.6433 67.5222 57.683 76.458 55.1381 85.7973C52.2341 96.4544 60.8715 106.008 71.8995 106.633L135.24 110.223C142.645 110.642 149.674 106.929 153.502 100.577L186.245 46.2373Z" fill="#465762"/>
<path d="M186.245 46.2373C191.945 36.7764 188.924 24.2563 178.484 20.6471C169.336 17.4841 159.723 15.7176 149.969 15.4427C133.519 14.979 117.228 18.7743 102.676 26.4604C88.1241 34.1465 75.8054 45.4627 66.9146 59.3113C61.6433 67.5222 57.683 76.458 55.1381 85.7973C52.2341 96.4544 60.8715 106.008 71.8995 106.633L135.24 110.223C142.645 110.642 149.674 106.929 153.502 100.577L186.245 46.2373Z" fill="white" fill-opacity="0.4"/>
<path d="M118.391 13.6023C115.248 3.01343 104.011 -3.16598 94.0799 1.67037C85.7853 5.70998 77.9582 10.6907 70.7581 16.5286C63.558 22.3664 57.0669 28.995 51.3999 36.2754C44.6153 44.9919 48.3385 57.2635 58.0489 62.528L104.831 87.8916C120.495 96.3841 138.608 81.6985 133.537 64.6173L118.391 13.6023Z" fill="#465762"/>
<path d="M65.1366 12.0872C58.0758 3.59296 45.3468 2.34999 37.8776 10.4875C27.7433 21.5285 19.3122 34.0691 12.9008 47.7003C6.48939 61.3315 2.20599 75.8229 0.163832 90.6701C-1.34128 101.613 7.73337 110.625 18.779 110.647L104.535 110.819C121.499 110.853 130.799 91.0798 119.955 78.0344L65.1366 12.0872Z" fill="#5655D7"/>
</svg>
