<svg width="494" height="270" viewBox="0 0 494 270" fill="none" xmlns="http://www.w3.org/2000/svg">
<rect width="11.4625" height="236" rx="5.73124" transform="matrix(1 0 0 -1 2.73584 236)" fill="#F7F8FA"/>
<rect width="11.4625" height="126.551" rx="5.73124" transform="matrix(1 0 0 -1 2.73584 126.978)" fill="url(#paint0_linear_466_8396)"/>
<rect width="11.4625" height="53.8695" rx="5.73124" transform="matrix(1 0 0 -1 2.73584 188.543)" fill="#909294"/>
<rect width="11.4625" height="236" rx="5.73124" transform="matrix(1 0 0 -1 42.4136 236)" fill="#F7F8FA"/>
<rect width="11.4625" height="126.551" rx="5.73124" transform="matrix(1 0 0 -1 42.4136 196.239)" fill="url(#paint1_linear_466_8396)"/>
<rect width="11.4625" height="25.6522" rx="5.73124" transform="matrix(1 0 0 -1 42.4136 229.587)" fill="#909294"/>
<rect width="11.4625" height="236" rx="5.73124" transform="matrix(1 0 0 -1 82.0923 236)" fill="#F7F8FA"/>
<rect width="11.4625" height="126.551" rx="5.73124" transform="matrix(1 0 0 -1 82.0923 147.5)" fill="url(#paint2_linear_466_8396)"/>
<rect width="11.4625" height="53.8695" rx="5.73124" transform="matrix(1 0 0 -1 82.0923 209.065)" fill="#909294"/>
<rect width="11.4625" height="236" rx="5.73124" transform="matrix(1 0 0 -1 121.77 236)" fill="#F7F8FA"/>
<rect width="11.4625" height="92.3478" rx="5.73124" transform="matrix(1 0 0 -1 121.77 161.609)" fill="url(#paint3_linear_466_8396)"/>
<rect width="11.4625" height="19.2391" rx="5.73124" transform="matrix(1 0 0 -1 121.77 188.544)" fill="#909294"/>
<rect width="11.4625" height="236" rx="5.73124" transform="matrix(1 0 0 -1 161.448 236)" fill="#F7F8FA"/>
<rect width="11.4625" height="118" rx="5.73124" transform="matrix(1 0 0 -1 161.448 214.196)" fill="url(#paint4_linear_466_8396)"/>
<rect width="11.4625" height="14.1087" rx="5.73124" transform="matrix(1 0 0 -1 161.448 236)" fill="#909294"/>
<rect width="11.4625" height="236" rx="5.73124" transform="matrix(1 0 0 -1 201.125 236)" fill="#F7F8FA"/>
<rect width="11.4625" height="109.449" rx="5.73124" transform="matrix(1 0 0 -1 201.125 147.928)" fill="url(#paint5_linear_466_8396)"/>
<rect width="11.4625" height="46.1739" rx="5.73124" transform="matrix(1 0 0 -1 201.125 203.935)" fill="#909294"/>
<rect width="11.4625" height="236" rx="5.73124" transform="matrix(1 0 0 -1 240.803 236)" fill="#F7F8FA"/>
<rect width="11.4625" height="24.3696" rx="5.73124" transform="matrix(1 0 0 -1 240.803 128.261)" fill="url(#paint6_linear_466_8396)"/>
<rect width="11.4625" height="85.9347" rx="5.73124" transform="matrix(1 0 0 -1 240.803 219.326)" fill="#909294"/>
<rect width="11.4625" height="236" rx="5.73124" transform="matrix(1 0 0 -1 280.481 236)" fill="#F7F8FA"/>
<rect width="11.4625" height="99.1884" rx="5.73124" transform="matrix(1 0 0 -1 280.481 183.413)" fill="url(#paint7_linear_466_8396)"/>
<rect width="11.4625" height="41.0435" rx="5.73124" transform="matrix(1 0 0 -1 280.481 236)" fill="#909294"/>
<rect width="11.4625" height="236" rx="5.73124" transform="matrix(1 0 0 -1 320.16 236)" fill="#F7F8FA"/>
<rect width="11.4625" height="71.826" rx="5.73124" transform="matrix(1 0 0 -1 320.16 125.696)" fill="url(#paint8_linear_466_8396)"/>
<rect width="11.4625" height="102.609" rx="5.73124" transform="matrix(1 0 0 -1 320.16 236)" fill="#909294"/>
<rect width="11.4625" height="236" rx="5.73124" transform="matrix(1 0 0 -1 359.837 236)" fill="#F7F8FA"/>
<rect width="11.4625" height="101.326" rx="5.73124" transform="matrix(1 0 0 -1 359.837 174.435)" fill="url(#paint9_linear_466_8396)"/>
<rect width="11.4625" height="53.8695" rx="5.73124" transform="matrix(1 0 0 -1 359.837 236)" fill="#909294"/>
<rect width="11.4625" height="236" rx="5.73124" transform="matrix(1 0 0 -1 399.515 236)" fill="#F7F8FA"/>
<rect width="11.4625" height="126.551" rx="5.73124" transform="matrix(1 0 0 -1 399.515 202.225)" fill="url(#paint10_linear_466_8396)"/>
<rect width="11.4625" height="25.6522" rx="5.73124" transform="matrix(1 0 0 -1 399.515 236)" fill="#909294"/>
<rect width="11.4625" height="236" rx="5.73124" transform="matrix(1 0 0 -1 439.191 236)" fill="#F7F8FA"/>
<rect width="11.4625" height="106.029" rx="5.73124" transform="matrix(1 0 0 -1 439.191 149.638)" fill="url(#paint11_linear_466_8396)"/>
<rect width="11.4625" height="78.2391" rx="5.73124" transform="matrix(1 0 0 -1 439.191 236)" fill="#909294"/>
<rect width="11.4625" height="236" rx="5.73124" transform="matrix(1 0 0 -1 478.872 236)" fill="#F7F8FA"/>
<rect width="11.4625" height="92.3478" rx="5.73124" transform="matrix(1 0 0 -1 478.872 183.413)" fill="url(#paint12_linear_466_8396)"/>
<rect width="11.4625" height="44.8913" rx="5.73124" transform="matrix(1 0 0 -1 478.872 236)" fill="#909294"/>
<path d="M4.16 264.608C3.46667 264.608 2.85133 264.409 2.314 264.01C1.77667 263.603 1.35633 263.048 1.053 262.346C0.749667 261.635 0.598 260.821 0.598 259.902C0.598 258.983 0.749667 258.173 1.053 257.471C1.35633 256.76 1.77233 256.206 2.301 255.807C2.83833 255.4 3.458 255.196 4.16 255.196C4.862 255.196 5.47733 255.4 6.006 255.807C6.54333 256.206 6.96367 256.76 7.267 257.471C7.579 258.173 7.735 258.983 7.735 259.902C7.735 260.821 7.58333 261.635 7.28 262.346C6.97667 263.048 6.55633 263.603 6.019 264.01C5.48167 264.409 4.862 264.608 4.16 264.608ZM4.16 263.62C4.64533 263.62 5.07433 263.46 5.447 263.139C5.82833 262.818 6.123 262.381 6.331 261.826C6.54767 261.271 6.656 260.63 6.656 259.902C6.656 259.174 6.54767 258.533 6.331 257.978C6.123 257.415 5.82833 256.977 5.447 256.665C5.07433 256.344 4.64533 256.184 4.16 256.184C3.67467 256.184 3.24567 256.344 2.873 256.665C2.50033 256.977 2.20567 257.415 1.989 257.978C1.781 258.533 1.677 259.174 1.677 259.902C1.677 260.63 1.781 261.271 1.989 261.826C2.20567 262.381 2.50033 262.818 2.873 263.139C3.25433 263.46 3.68333 263.62 4.16 263.62ZM12.2021 264.608C11.5781 264.608 11.0538 264.491 10.6291 264.257C10.2045 264.014 9.86646 263.689 9.61513 263.282C9.36379 262.875 9.18179 262.407 9.06913 261.878C8.96513 261.341 8.91313 260.773 8.91313 260.175C8.91313 259.395 8.99113 258.697 9.14713 258.082C9.31179 257.467 9.54579 256.947 9.84913 256.522C10.1525 256.089 10.5208 255.759 10.9541 255.534C11.3875 255.309 11.8771 255.196 12.4231 255.196C12.8738 255.196 13.3201 255.27 13.7621 255.417C14.2128 255.556 14.6115 255.751 14.9581 256.002L14.3471 256.782C14.0698 256.591 13.7708 256.444 13.4501 256.34C13.1295 256.227 12.8218 256.171 12.5271 256.171C11.6431 256.171 10.9715 256.544 10.5121 257.289C10.0528 258.034 9.84913 259.165 9.90113 260.682L9.66713 260.448C9.87513 259.919 10.2088 259.503 10.6681 259.2C11.1275 258.888 11.6691 258.732 12.2931 258.732C12.8738 258.732 13.3895 258.858 13.8401 259.109C14.2995 259.36 14.6548 259.711 14.9061 260.162C15.1661 260.604 15.2961 261.111 15.2961 261.683C15.2961 262.246 15.1661 262.753 14.9061 263.204C14.6461 263.646 14.2821 263.993 13.8141 264.244C13.3548 264.487 12.8175 264.608 12.2021 264.608ZM12.2021 263.646C12.5921 263.646 12.9345 263.564 13.2291 263.399C13.5325 263.226 13.7665 262.992 13.9311 262.697C14.1045 262.394 14.1911 262.047 14.1911 261.657C14.1911 261.267 14.1045 260.925 13.9311 260.63C13.7665 260.327 13.5325 260.093 13.2291 259.928C12.9345 259.763 12.5921 259.681 12.2021 259.681C11.8208 259.681 11.4785 259.763 11.1751 259.928C10.8718 260.093 10.6335 260.327 10.4601 260.63C10.2868 260.925 10.2001 261.267 10.2001 261.657C10.2001 262.047 10.2868 262.394 10.4601 262.697C10.6335 262.992 10.8718 263.226 11.1751 263.399C11.4785 263.564 11.8208 263.646 12.2021 263.646Z" fill="#7A7C7F"/>
<path d="M42.3646 264.834C41.6713 264.834 41.0559 264.635 40.5186 264.236C39.9813 263.829 39.5609 263.274 39.2576 262.572C38.9543 261.861 38.8026 261.047 38.8026 260.128C38.8026 259.209 38.9543 258.399 39.2576 257.697C39.5609 256.986 39.9769 256.432 40.5056 256.033C41.0429 255.626 41.6626 255.422 42.3646 255.422C43.0666 255.422 43.6819 255.626 44.2106 256.033C44.7479 256.432 45.1683 256.986 45.4716 257.697C45.7836 258.399 45.9396 259.209 45.9396 260.128C45.9396 261.047 45.7879 261.861 45.4846 262.572C45.1813 263.274 44.7609 263.829 44.2236 264.236C43.6863 264.635 43.0666 264.834 42.3646 264.834ZM42.3646 263.846C42.8499 263.846 43.2789 263.686 43.6516 263.365C44.0329 263.044 44.3276 262.607 44.5356 262.052C44.7523 261.497 44.8606 260.856 44.8606 260.128C44.8606 259.4 44.7523 258.759 44.5356 258.204C44.3276 257.641 44.0329 257.203 43.6516 256.891C43.2789 256.57 42.8499 256.41 42.3646 256.41C41.8793 256.41 41.4503 256.57 41.0776 256.891C40.7049 257.203 40.4103 257.641 40.1936 258.204C39.9856 258.759 39.8816 259.4 39.8816 260.128C39.8816 260.856 39.9856 261.497 40.1936 262.052C40.4103 262.607 40.7049 263.044 41.0776 263.365C41.4589 263.686 41.8879 263.846 42.3646 263.846ZM47.5987 264.678L52.0967 256.254L53.1237 256.488L48.8077 264.678H47.5987ZM47.0787 256.579V255.578H53.1237V256.488L52.2787 256.579H47.0787Z" fill="#7A7C7F"/>
<path d="M84.6878 264.834C83.9945 264.834 83.3792 264.635 82.8418 264.236C82.3045 263.829 81.8842 263.274 81.5808 262.572C81.2775 261.861 81.1258 261.047 81.1258 260.128C81.1258 259.209 81.2775 258.399 81.5808 257.697C81.8842 256.986 82.3002 256.432 82.8288 256.033C83.3662 255.626 83.9858 255.422 84.6878 255.422C85.3898 255.422 86.0052 255.626 86.5338 256.033C87.0712 256.432 87.4915 256.986 87.7948 257.697C88.1068 258.399 88.2628 259.209 88.2628 260.128C88.2628 261.047 88.1112 261.861 87.8078 262.572C87.5045 263.274 87.0842 263.829 86.5468 264.236C86.0095 264.635 85.3898 264.834 84.6878 264.834ZM84.6878 263.846C85.1732 263.846 85.6022 263.686 85.9748 263.365C86.3562 263.044 86.6508 262.607 86.8588 262.052C87.0755 261.497 87.1838 260.856 87.1838 260.128C87.1838 259.4 87.0755 258.759 86.8588 258.204C86.6508 257.641 86.3562 257.203 85.9748 256.891C85.6022 256.57 85.1732 256.41 84.6878 256.41C84.2025 256.41 83.7735 256.57 83.4008 256.891C83.0282 257.203 82.7335 257.641 82.5168 258.204C82.3088 258.759 82.2048 259.4 82.2048 260.128C82.2048 260.856 82.3088 261.497 82.5168 262.052C82.7335 262.607 83.0282 263.044 83.4008 263.365C83.7822 263.686 84.2112 263.846 84.6878 263.846ZM92.834 264.834C92.184 264.834 91.612 264.73 91.118 264.522C90.624 264.305 90.2426 264.011 89.974 263.638C89.7053 263.257 89.571 262.815 89.571 262.312C89.571 261.783 89.7053 261.32 89.974 260.921C90.2426 260.522 90.624 260.215 91.118 259.998C91.612 259.773 92.184 259.66 92.834 259.66C93.5013 259.66 94.0776 259.773 94.563 259.998C95.057 260.215 95.4383 260.522 95.707 260.921C95.9843 261.32 96.123 261.783 96.123 262.312C96.123 262.815 95.9843 263.257 95.707 263.638C95.4383 264.011 95.057 264.305 94.563 264.522C94.0776 264.73 93.5013 264.834 92.834 264.834ZM92.834 263.872C93.4753 263.872 93.9996 263.72 94.407 263.417C94.8143 263.105 95.018 262.702 95.018 262.208C95.018 261.705 94.8143 261.298 94.407 260.986C93.9996 260.665 93.4753 260.505 92.834 260.505C92.418 260.505 92.0453 260.579 91.716 260.726C91.3953 260.865 91.1396 261.064 90.949 261.324C90.767 261.575 90.676 261.87 90.676 262.208C90.676 262.537 90.767 262.828 90.949 263.079C91.1396 263.33 91.3953 263.525 91.716 263.664C92.0453 263.803 92.418 263.872 92.834 263.872ZM92.834 260.297C92.2533 260.297 91.742 260.197 91.3 259.998C90.858 259.79 90.5156 259.508 90.273 259.153C90.0303 258.789 89.909 258.369 89.909 257.892C89.909 257.407 90.0303 256.978 90.273 256.605C90.5156 256.232 90.858 255.942 91.3 255.734C91.742 255.526 92.2533 255.422 92.834 255.422C93.432 255.422 93.9476 255.526 94.381 255.734C94.823 255.942 95.1653 256.232 95.408 256.605C95.6593 256.978 95.785 257.407 95.785 257.892C95.785 258.369 95.6593 258.789 95.408 259.153C95.1653 259.508 94.823 259.79 94.381 259.998C93.9476 260.197 93.432 260.297 92.834 260.297ZM92.834 259.478C93.38 259.478 93.8263 259.344 94.173 259.075C94.5283 258.798 94.706 258.438 94.706 257.996C94.706 257.511 94.5283 257.121 94.173 256.826C93.8263 256.523 93.38 256.371 92.834 256.371C92.2966 256.371 91.8546 256.523 91.508 256.826C91.1613 257.121 90.988 257.511 90.988 257.996C90.988 258.438 91.1613 258.798 91.508 259.075C91.8546 259.344 92.2966 259.478 92.834 259.478Z" fill="#7A7C7F"/>
<path d="M124.16 264.382C123.467 264.382 122.851 264.183 122.314 263.784C121.777 263.377 121.356 262.822 121.053 262.12C120.75 261.409 120.598 260.595 120.598 259.676C120.598 258.757 120.75 257.947 121.053 257.245C121.356 256.534 121.772 255.98 122.301 255.581C122.838 255.174 123.458 254.97 124.16 254.97C124.862 254.97 125.477 255.174 126.006 255.581C126.543 255.98 126.964 256.534 127.267 257.245C127.579 257.947 127.735 258.757 127.735 259.676C127.735 260.595 127.583 261.409 127.28 262.12C126.977 262.822 126.556 263.377 126.019 263.784C125.482 264.183 124.862 264.382 124.16 264.382ZM124.16 263.394C124.645 263.394 125.074 263.234 125.447 262.913C125.828 262.592 126.123 262.155 126.331 261.6C126.548 261.045 126.656 260.404 126.656 259.676C126.656 258.948 126.548 258.307 126.331 257.752C126.123 257.189 125.828 256.751 125.447 256.439C125.074 256.118 124.645 255.958 124.16 255.958C123.675 255.958 123.246 256.118 122.873 256.439C122.5 256.751 122.206 257.189 121.989 257.752C121.781 258.307 121.677 258.948 121.677 259.676C121.677 260.404 121.781 261.045 121.989 261.6C122.206 262.155 122.5 262.592 122.873 262.913C123.254 263.234 123.683 263.394 124.16 263.394ZM131.799 254.97C132.44 254.97 132.969 255.091 133.385 255.334C133.801 255.568 134.135 255.889 134.386 256.296C134.646 256.703 134.828 257.176 134.932 257.713C135.045 258.242 135.101 258.805 135.101 259.403C135.101 260.183 135.019 260.881 134.854 261.496C134.689 262.111 134.455 262.636 134.152 263.069C133.849 263.494 133.48 263.819 133.047 264.044C132.622 264.269 132.137 264.382 131.591 264.382C131.14 264.382 130.69 264.313 130.239 264.174C129.797 264.027 129.398 263.827 129.043 263.576L129.654 262.796C129.931 262.987 130.23 263.138 130.551 263.251C130.88 263.355 131.192 263.407 131.487 263.407C132.371 263.407 133.043 263.034 133.502 262.289C133.97 261.544 134.174 260.417 134.113 258.909L134.347 259.13C134.139 259.659 133.805 260.079 133.346 260.391C132.887 260.703 132.345 260.859 131.721 260.859C131.132 260.859 130.612 260.733 130.161 260.482C129.71 260.222 129.355 259.871 129.095 259.429C128.844 258.987 128.718 258.476 128.718 257.895C128.718 257.323 128.848 256.82 129.108 256.387C129.368 255.945 129.728 255.598 130.187 255.347C130.655 255.096 131.192 254.97 131.799 254.97ZM131.799 255.932C131.418 255.932 131.075 256.019 130.772 256.192C130.469 256.357 130.23 256.591 130.057 256.894C129.892 257.189 129.81 257.531 129.81 257.921C129.81 258.311 129.892 258.658 130.057 258.961C130.23 259.256 130.469 259.49 130.772 259.663C131.075 259.828 131.418 259.91 131.799 259.91C132.198 259.91 132.544 259.828 132.839 259.663C133.142 259.49 133.376 259.256 133.541 258.961C133.714 258.658 133.801 258.311 133.801 257.921C133.801 257.531 133.714 257.189 133.541 256.894C133.376 256.591 133.142 256.357 132.839 256.192C132.544 256.019 132.198 255.932 131.799 255.932Z" fill="#7A7C7F"/>
<path d="M163.808 265L163.821 256.485L163.912 255.9H164.9L164.874 265H163.808ZM161.78 258.24V257.239C161.962 257.248 162.179 257.187 162.43 257.057C162.681 256.927 162.941 256.758 163.21 256.55C163.479 256.342 163.713 256.125 163.912 255.9L164.588 256.641C164.302 256.944 164.003 257.217 163.691 257.46C163.379 257.703 163.063 257.898 162.742 258.045C162.421 258.184 162.101 258.249 161.78 258.24ZM170.53 265.156C169.837 265.156 169.221 264.957 168.684 264.558C168.147 264.151 167.726 263.596 167.423 262.894C167.12 262.183 166.968 261.369 166.968 260.45C166.968 259.531 167.12 258.721 167.423 258.019C167.726 257.308 168.142 256.754 168.671 256.355C169.208 255.948 169.828 255.744 170.53 255.744C171.232 255.744 171.847 255.948 172.376 256.355C172.913 256.754 173.334 257.308 173.637 258.019C173.949 258.721 174.105 259.531 174.105 260.45C174.105 261.369 173.953 262.183 173.65 262.894C173.347 263.596 172.926 264.151 172.389 264.558C171.852 264.957 171.232 265.156 170.53 265.156ZM170.53 264.168C171.015 264.168 171.444 264.008 171.817 263.687C172.198 263.366 172.493 262.929 172.701 262.374C172.918 261.819 173.026 261.178 173.026 260.45C173.026 259.722 172.918 259.081 172.701 258.526C172.493 257.963 172.198 257.525 171.817 257.213C171.444 256.892 171.015 256.732 170.53 256.732C170.045 256.732 169.616 256.892 169.243 257.213C168.87 257.525 168.576 257.963 168.359 258.526C168.151 259.081 168.047 259.722 168.047 260.45C168.047 261.178 168.151 261.819 168.359 262.374C168.576 262.929 168.87 263.366 169.243 263.687C169.624 264.008 170.053 264.168 170.53 264.168Z" fill="#7A7C7F"/>
<path d="M204.808 265L204.821 256.485L204.912 255.9H205.9L205.874 265H204.808ZM202.78 258.24V257.239C202.962 257.248 203.179 257.187 203.43 257.057C203.681 256.927 203.941 256.758 204.21 256.55C204.479 256.342 204.713 256.125 204.912 255.9L205.588 256.641C205.302 256.944 205.003 257.217 204.691 257.46C204.379 257.703 204.063 257.898 203.742 258.045C203.421 258.184 203.101 258.249 202.78 258.24ZM210.178 265L210.191 256.485L210.282 255.9H211.27L211.244 265H210.178ZM208.15 258.24V257.239C208.332 257.248 208.549 257.187 208.8 257.057C209.051 256.927 209.311 256.758 209.58 256.55C209.849 256.342 210.083 256.125 210.282 255.9L210.958 256.641C210.672 256.944 210.373 257.217 210.061 257.46C209.749 257.703 209.433 257.898 209.112 258.045C208.791 258.184 208.471 258.249 208.15 258.24Z" fill="#7A7C7F"/>
<path d="M244.692 264.678L244.705 256.163L244.796 255.578H245.784L245.758 264.678H244.692ZM242.664 257.918V256.917C242.846 256.926 243.062 256.865 243.314 256.735C243.565 256.605 243.825 256.436 244.094 256.228C244.362 256.02 244.596 255.803 244.796 255.578L245.472 256.319C245.186 256.622 244.887 256.895 244.575 257.138C244.263 257.381 243.946 257.576 243.626 257.723C243.305 257.862 242.984 257.927 242.664 257.918ZM249.087 264.041L247.995 263.768C247.995 263.482 248.051 263.2 248.164 262.923C248.285 262.637 248.454 262.355 248.671 262.078C248.896 261.801 249.169 261.541 249.49 261.298L251.375 259.881C251.6 259.725 251.795 259.547 251.96 259.348C252.133 259.14 252.268 258.928 252.363 258.711C252.458 258.486 252.506 258.269 252.506 258.061C252.506 257.758 252.432 257.485 252.285 257.242C252.138 256.991 251.93 256.791 251.661 256.644C251.392 256.497 251.076 256.423 250.712 256.423C250.357 256.423 250.045 256.492 249.776 256.631C249.507 256.761 249.286 256.939 249.113 257.164C248.94 257.381 248.814 257.615 248.736 257.866L247.618 257.645C247.722 257.255 247.908 256.891 248.177 256.553C248.454 256.215 248.805 255.942 249.23 255.734C249.655 255.526 250.127 255.422 250.647 255.422C251.254 255.422 251.778 255.539 252.22 255.773C252.662 255.998 253.004 256.31 253.247 256.709C253.498 257.099 253.624 257.545 253.624 258.048C253.624 258.525 253.494 258.975 253.234 259.4C252.974 259.825 252.597 260.236 252.103 260.635L250.322 261.987C250.071 262.169 249.85 262.368 249.659 262.585C249.477 262.802 249.334 263.031 249.23 263.274C249.135 263.508 249.087 263.764 249.087 264.041ZM247.995 264.678V263.768L248.827 263.703H253.754V264.678H247.995Z" fill="#7A7C7F"/>
<path d="M283.489 264.678L283.502 256.163L283.593 255.578H284.581L284.555 264.678H283.489ZM281.461 257.918V256.917C281.643 256.926 281.859 256.865 282.111 256.735C282.362 256.605 282.622 256.436 282.891 256.228C283.159 256.02 283.393 255.803 283.593 255.578L284.269 256.319C283.983 256.622 283.684 256.895 283.372 257.138C283.06 257.381 282.743 257.576 282.423 257.723C282.102 257.862 281.781 257.927 281.461 257.918ZM289.548 264.834C289.106 264.834 288.703 264.769 288.339 264.639C287.983 264.5 287.676 264.323 287.416 264.106C287.164 263.889 286.965 263.66 286.818 263.417L287.728 262.91C287.823 263.031 287.94 263.17 288.079 263.326C288.226 263.473 288.412 263.599 288.638 263.703C288.863 263.807 289.14 263.859 289.47 263.859C290.059 263.859 290.531 263.69 290.887 263.352C291.242 263.014 291.42 262.589 291.42 262.078C291.42 261.688 291.311 261.359 291.095 261.09C290.887 260.821 290.583 260.618 290.185 260.479C289.786 260.34 289.309 260.271 288.755 260.271H288.508V259.413H288.729C289.275 259.413 289.777 259.474 290.237 259.595C290.696 259.716 291.095 259.894 291.433 260.128C291.779 260.362 292.044 260.648 292.226 260.986C292.416 261.324 292.512 261.714 292.512 262.156C292.512 262.693 292.377 263.166 292.109 263.573C291.849 263.972 291.493 264.284 291.043 264.509C290.592 264.726 290.094 264.834 289.548 264.834ZM288.508 260.18V259.335H288.755C289.5 259.335 290.089 259.209 290.523 258.958C290.965 258.698 291.186 258.33 291.186 257.853C291.186 257.593 291.116 257.355 290.978 257.138C290.839 256.913 290.635 256.735 290.367 256.605C290.107 256.466 289.803 256.397 289.457 256.397C289.223 256.397 289.002 256.432 288.794 256.501C288.594 256.562 288.408 256.657 288.235 256.787C288.07 256.908 287.918 257.064 287.78 257.255L286.922 256.761C287.086 256.492 287.294 256.258 287.546 256.059C287.806 255.86 288.1 255.704 288.43 255.591C288.759 255.478 289.119 255.422 289.509 255.422C290.037 255.422 290.51 255.526 290.926 255.734C291.35 255.942 291.684 256.228 291.927 256.592C292.169 256.947 292.291 257.35 292.291 257.801C292.291 258.182 292.2 258.52 292.018 258.815C291.836 259.11 291.58 259.361 291.251 259.569C290.93 259.777 290.553 259.933 290.12 260.037C289.695 260.132 289.231 260.18 288.729 260.18H288.508Z" fill="#7A7C7F"/>
<path d="M322.285 264.678L322.298 256.163L322.389 255.578H323.377L323.351 264.678H322.285ZM320.257 257.918V256.917C320.439 256.926 320.655 256.865 320.907 256.735C321.158 256.605 321.418 256.436 321.687 256.228C321.955 256.02 322.189 255.803 322.389 255.578L323.065 256.319C322.779 256.622 322.48 256.895 322.168 257.138C321.856 257.381 321.539 257.576 321.219 257.723C320.898 257.862 320.577 257.927 320.257 257.918ZM326.225 262.13L325.406 261.623L329.553 255.578L330.268 256.202L326.225 262.13ZM325.406 262.468V261.623L326.108 261.493H332.53V262.468H325.406ZM329.605 264.678V256.28L329.553 255.578H330.671V264.678H329.605Z" fill="#7A7C7F"/>
<path d="M361.962 264.678L361.975 256.163L362.066 255.578H363.054L363.028 264.678H361.962ZM359.934 257.918V256.917C360.116 256.926 360.332 256.865 360.584 256.735C360.835 256.605 361.095 256.436 361.364 256.228C361.632 256.02 361.866 255.803 362.066 255.578L362.742 256.319C362.456 256.622 362.157 256.895 361.845 257.138C361.533 257.381 361.216 257.576 360.896 257.723C360.575 257.862 360.254 257.927 359.934 257.918ZM368.294 264.834C367.93 264.834 367.557 264.782 367.176 264.678C366.803 264.565 366.448 264.396 366.11 264.171C365.781 263.946 365.508 263.655 365.291 263.3L366.175 262.793C366.478 263.174 366.808 263.452 367.163 263.625C367.518 263.798 367.887 263.885 368.268 263.885C368.866 263.885 369.351 263.703 369.724 263.339C370.105 262.966 370.296 262.481 370.296 261.883C370.296 261.294 370.114 260.813 369.75 260.44C369.386 260.067 368.909 259.881 368.32 259.881C367.999 259.881 367.683 259.955 367.371 260.102C367.059 260.241 366.816 260.414 366.643 260.622L365.655 260.388L366.097 255.578H370.946V256.566H366.162L366.097 255.617H367.189L366.682 260.44L365.837 260.388C365.958 260.197 366.11 260.02 366.292 259.855C366.474 259.69 366.682 259.543 366.916 259.413C367.159 259.274 367.414 259.166 367.683 259.088C367.952 259.01 368.225 258.975 368.502 258.984C369.057 258.984 369.551 259.105 369.984 259.348C370.417 259.591 370.76 259.929 371.011 260.362C371.262 260.795 371.388 261.294 371.388 261.857C371.388 262.446 371.254 262.966 370.985 263.417C370.725 263.859 370.361 264.206 369.893 264.457C369.434 264.708 368.901 264.834 368.294 264.834Z" fill="#7A7C7F"/>
<path d="M399.808 264.678L399.821 256.163L399.912 255.578H400.9L400.874 264.678H399.808ZM397.78 257.918V256.917C397.962 256.926 398.179 256.865 398.43 256.735C398.681 256.605 398.941 256.436 399.21 256.228C399.479 256.02 399.713 255.803 399.912 255.578L400.588 256.319C400.302 256.622 400.003 256.895 399.691 257.138C399.379 257.381 399.063 257.576 398.742 257.723C398.421 257.862 398.101 257.927 397.78 257.918ZM406.244 264.834C405.62 264.834 405.096 264.717 404.671 264.483C404.246 264.24 403.908 263.915 403.657 263.508C403.406 263.101 403.224 262.633 403.111 262.104C403.007 261.567 402.955 260.999 402.955 260.401C402.955 259.621 403.033 258.923 403.189 258.308C403.354 257.693 403.588 257.173 403.891 256.748C404.194 256.315 404.563 255.985 404.996 255.76C405.429 255.535 405.919 255.422 406.465 255.422C406.916 255.422 407.362 255.496 407.804 255.643C408.255 255.782 408.653 255.977 409 256.228L408.389 257.008C408.112 256.817 407.813 256.67 407.492 256.566C407.171 256.453 406.864 256.397 406.569 256.397C405.685 256.397 405.013 256.77 404.554 257.515C404.095 258.26 403.891 259.391 403.943 260.908L403.709 260.674C403.917 260.145 404.251 259.729 404.71 259.426C405.169 259.114 405.711 258.958 406.335 258.958C406.916 258.958 407.431 259.084 407.882 259.335C408.341 259.586 408.697 259.937 408.948 260.388C409.208 260.83 409.338 261.337 409.338 261.909C409.338 262.472 409.208 262.979 408.948 263.43C408.688 263.872 408.324 264.219 407.856 264.47C407.397 264.713 406.859 264.834 406.244 264.834ZM406.244 263.872C406.634 263.872 406.976 263.79 407.271 263.625C407.574 263.452 407.808 263.218 407.973 262.923C408.146 262.62 408.233 262.273 408.233 261.883C408.233 261.493 408.146 261.151 407.973 260.856C407.808 260.553 407.574 260.319 407.271 260.154C406.976 259.989 406.634 259.907 406.244 259.907C405.863 259.907 405.52 259.989 405.217 260.154C404.914 260.319 404.675 260.553 404.502 260.856C404.329 261.151 404.242 261.493 404.242 261.883C404.242 262.273 404.329 262.62 404.502 262.923C404.675 263.218 404.914 263.452 405.217 263.625C405.52 263.79 405.863 263.872 406.244 263.872Z" fill="#7A7C7F"/>
<path d="M439.808 264.678L439.821 256.163L439.912 255.578H440.9L440.874 264.678H439.808ZM437.78 257.918V256.917C437.962 256.926 438.179 256.865 438.43 256.735C438.681 256.605 438.941 256.436 439.21 256.228C439.479 256.02 439.713 255.803 439.912 255.578L440.588 256.319C440.302 256.622 440.003 256.895 439.691 257.138C439.379 257.381 439.063 257.576 438.742 257.723C438.421 257.862 438.101 257.927 437.78 257.918ZM443.436 264.678L447.934 256.254L448.961 256.488L444.645 264.678H443.436ZM442.916 256.579V255.578H448.961V256.488L448.116 256.579H442.916Z" fill="#7A7C7F"/>
<path d="M481.878 264.678L481.891 256.163L481.982 255.578H482.97L482.944 264.678H481.878ZM479.85 257.918V256.917C480.032 256.926 480.248 256.865 480.5 256.735C480.751 256.605 481.011 256.436 481.28 256.228C481.548 256.02 481.782 255.803 481.982 255.578L482.658 256.319C482.372 256.622 482.073 256.895 481.761 257.138C481.449 257.381 481.132 257.576 480.812 257.723C480.491 257.862 480.17 257.927 479.85 257.918ZM488.418 264.834C487.768 264.834 487.196 264.73 486.702 264.522C486.208 264.305 485.827 264.011 485.558 263.638C485.289 263.257 485.155 262.815 485.155 262.312C485.155 261.783 485.289 261.32 485.558 260.921C485.827 260.522 486.208 260.215 486.702 259.998C487.196 259.773 487.768 259.66 488.418 259.66C489.085 259.66 489.662 259.773 490.147 259.998C490.641 260.215 491.022 260.522 491.291 260.921C491.568 261.32 491.707 261.783 491.707 262.312C491.707 262.815 491.568 263.257 491.291 263.638C491.022 264.011 490.641 264.305 490.147 264.522C489.662 264.73 489.085 264.834 488.418 264.834ZM488.418 263.872C489.059 263.872 489.584 263.72 489.991 263.417C490.398 263.105 490.602 262.702 490.602 262.208C490.602 261.705 490.398 261.298 489.991 260.986C489.584 260.665 489.059 260.505 488.418 260.505C488.002 260.505 487.629 260.579 487.3 260.726C486.979 260.865 486.724 261.064 486.533 261.324C486.351 261.575 486.26 261.87 486.26 262.208C486.26 262.537 486.351 262.828 486.533 263.079C486.724 263.33 486.979 263.525 487.3 263.664C487.629 263.803 488.002 263.872 488.418 263.872ZM488.418 260.297C487.837 260.297 487.326 260.197 486.884 259.998C486.442 259.79 486.1 259.508 485.857 259.153C485.614 258.789 485.493 258.369 485.493 257.892C485.493 257.407 485.614 256.978 485.857 256.605C486.1 256.232 486.442 255.942 486.884 255.734C487.326 255.526 487.837 255.422 488.418 255.422C489.016 255.422 489.532 255.526 489.965 255.734C490.407 255.942 490.749 256.232 490.992 256.605C491.243 256.978 491.369 257.407 491.369 257.892C491.369 258.369 491.243 258.789 490.992 259.153C490.749 259.508 490.407 259.79 489.965 259.998C489.532 260.197 489.016 260.297 488.418 260.297ZM488.418 259.478C488.964 259.478 489.41 259.344 489.757 259.075C490.112 258.798 490.29 258.438 490.29 257.996C490.29 257.511 490.112 257.121 489.757 256.826C489.41 256.523 488.964 256.371 488.418 256.371C487.881 256.371 487.439 256.523 487.092 256.826C486.745 257.121 486.572 257.511 486.572 257.996C486.572 258.438 486.745 258.798 487.092 259.075C487.439 259.344 487.881 259.478 488.418 259.478Z" fill="#7A7C7F"/>
<defs>
<linearGradient id="paint0_linear_466_8396" x1="-5.6045e-08" y1="126.551" x2="22.7384" y2="124.491" gradientUnits="userSpaceOnUse">
<stop stop-color="#5655D7"/>
<stop offset="1" stop-color="#7F7EFF"/>
</linearGradient>
<linearGradient id="paint1_linear_466_8396" x1="-5.6045e-08" y1="126.551" x2="22.7384" y2="124.491" gradientUnits="userSpaceOnUse">
<stop stop-color="#5655D7"/>
<stop offset="1" stop-color="#7F7EFF"/>
</linearGradient>
<linearGradient id="paint2_linear_466_8396" x1="-5.6045e-08" y1="126.551" x2="22.7384" y2="124.491" gradientUnits="userSpaceOnUse">
<stop stop-color="#5655D7"/>
<stop offset="1" stop-color="#7F7EFF"/>
</linearGradient>
<linearGradient id="paint3_linear_466_8396" x1="-5.6045e-08" y1="92.3478" x2="22.5771" y2="89.5454" gradientUnits="userSpaceOnUse">
<stop stop-color="#5655D7"/>
<stop offset="1" stop-color="#7F7EFF"/>
</linearGradient>
<linearGradient id="paint4_linear_466_8396" x1="-5.6045e-08" y1="118" x2="22.7107" y2="115.794" gradientUnits="userSpaceOnUse">
<stop stop-color="#5655D7"/>
<stop offset="1" stop-color="#7F7EFF"/>
</linearGradient>
<linearGradient id="paint5_linear_466_8396" x1="-5.6045e-08" y1="109.449" x2="22.6762" y2="107.074" gradientUnits="userSpaceOnUse">
<stop stop-color="#5655D7"/>
<stop offset="1" stop-color="#7F7EFF"/>
</linearGradient>
<linearGradient id="paint6_linear_466_8396" x1="-5.6045e-08" y1="24.3696" x2="18.7719" y2="15.54" gradientUnits="userSpaceOnUse">
<stop stop-color="#5655D7"/>
<stop offset="1" stop-color="#7F7EFF"/>
</linearGradient>
<linearGradient id="paint7_linear_466_8396" x1="-5.6045e-08" y1="99.1884" x2="22.6228" y2="96.574" gradientUnits="userSpaceOnUse">
<stop stop-color="#5655D7"/>
<stop offset="1" stop-color="#7F7EFF"/>
</linearGradient>
<linearGradient id="paint8_linear_466_8396" x1="-5.6045e-08" y1="71.826" x2="22.3556" y2="68.2584" gradientUnits="userSpaceOnUse">
<stop stop-color="#5655D7"/>
<stop offset="1" stop-color="#7F7EFF"/>
</linearGradient>
<linearGradient id="paint9_linear_466_8396" x1="-5.6045e-08" y1="101.326" x2="22.6353" y2="98.7654" gradientUnits="userSpaceOnUse">
<stop stop-color="#5655D7"/>
<stop offset="1" stop-color="#7F7EFF"/>
</linearGradient>
<linearGradient id="paint10_linear_466_8396" x1="-5.6045e-08" y1="126.551" x2="22.7384" y2="124.491" gradientUnits="userSpaceOnUse">
<stop stop-color="#5655D7"/>
<stop offset="1" stop-color="#7F7EFF"/>
</linearGradient>
<linearGradient id="paint11_linear_466_8396" x1="-5.6045e-08" y1="106.029" x2="22.6601" y2="103.579" gradientUnits="userSpaceOnUse">
<stop stop-color="#5655D7"/>
<stop offset="1" stop-color="#7F7EFF"/>
</linearGradient>
<linearGradient id="paint12_linear_466_8396" x1="-5.6045e-08" y1="92.3478" x2="22.5771" y2="89.5454" gradientUnits="userSpaceOnUse">
<stop stop-color="#5655D7"/>
<stop offset="1" stop-color="#7F7EFF"/>
</linearGradient>
</defs>
</svg>
