<svg width="208" height="208" viewBox="0 0 208 208" fill="none" xmlns="http://www.w3.org/2000/svg">
<path d="M208 104C208 161.438 161.438 208 104 208C46.5624 208 0 161.438 0 104C0 46.5624 46.5624 0 104 0C161.438 0 208 46.5624 208 104ZM24.96 104C24.96 147.653 60.3474 183.04 104 183.04C147.653 183.04 183.04 147.653 183.04 104C183.04 60.3474 147.653 24.96 104 24.96C60.3474 24.96 24.96 60.3474 24.96 104Z" fill="#F7F8FA"/>
<path d="M104 2C104 0.895431 104.896 -0.00200564 106 0.0192212C130.688 0.493746 154.428 9.74036 172.947 26.1392C191.966 42.9805 204.162 66.2004 207.236 91.4172C210.31 116.634 204.047 142.104 189.631 163.02C175.593 183.387 154.769 198.065 130.918 204.456C129.851 204.742 128.766 204.086 128.5 203.014L123.489 182.762C123.224 181.69 123.879 180.608 124.944 180.316C142.901 175.388 158.568 164.277 169.16 148.911C180.13 132.995 184.895 113.614 182.556 94.4253C180.218 75.2368 170.937 57.5678 156.465 44.7526C142.492 32.38 124.614 25.3578 106 24.8875C104.896 24.8597 104 23.9669 104 22.8623V2Z" fill="url(#paint0_linear_466_10512)"/>
<rect x="129.307" y="144.718" width="22.7227" height="22.7227" transform="rotate(120.446 129.307 144.718)" fill="url(#paint1_linear_466_10512)"/>
<g filter="url(#filter0_d_466_10512)">
<circle cx="104" cy="104" r="49" fill="white"/>
</g>
<path d="M80.4912 107.956L78.3072 106.708L86.4452 94.8L88.2912 96.49L80.4912 107.956ZM78.3072 109.1V106.708L80.0752 106.474H92.9972V109.1H78.3072ZM86.7312 113V96.542L86.4712 94.8H89.6172V113H86.7312ZM101.523 113.312C100.293 113.312 99.2441 113.087 98.3774 112.636C97.5281 112.168 96.8434 111.544 96.3234 110.764C95.8034 109.967 95.4221 109.048 95.1794 108.008C94.9367 106.951 94.8154 105.824 94.8154 104.628C94.8154 103.172 94.9627 101.829 95.2574 100.598C95.5694 99.3673 96.0287 98.2927 96.6354 97.374C97.2421 96.4553 97.9961 95.7447 98.8974 95.242C99.8161 94.7393 100.882 94.488 102.095 94.488C103.031 94.488 103.95 94.6353 104.851 94.93C105.77 95.2073 106.585 95.5973 107.295 96.1L105.735 98.284C105.198 97.9027 104.609 97.6167 103.967 97.426C103.343 97.2353 102.763 97.14 102.225 97.14C100.717 97.14 99.5474 97.79 98.7154 99.09C97.9007 100.39 97.5281 102.409 97.5974 105.148L96.9734 104.68C97.3721 103.692 98.0047 102.903 98.8714 102.314C99.7381 101.707 100.769 101.404 101.965 101.404C103.127 101.404 104.158 101.673 105.059 102.21C105.961 102.73 106.663 103.449 107.165 104.368C107.668 105.269 107.919 106.301 107.919 107.462C107.919 108.589 107.651 109.594 107.113 110.478C106.593 111.362 105.848 112.055 104.877 112.558C103.924 113.061 102.806 113.312 101.523 113.312ZM101.549 110.738C102.191 110.738 102.763 110.591 103.265 110.296C103.785 110.001 104.193 109.603 104.487 109.1C104.782 108.58 104.929 107.991 104.929 107.332C104.929 106.673 104.782 106.084 104.487 105.564C104.193 105.044 103.785 104.645 103.265 104.368C102.763 104.073 102.191 103.926 101.549 103.926C100.891 103.926 100.301 104.073 99.7814 104.368C99.2787 104.645 98.8801 105.044 98.5854 105.564C98.2907 106.084 98.1434 106.673 98.1434 107.332C98.1434 107.991 98.2907 108.58 98.5854 109.1C98.8801 109.603 99.2787 110.001 99.7814 110.296C100.301 110.591 100.891 110.738 101.549 110.738ZM111.123 113L124.045 94.8H127.061L114.061 113H111.123ZM124.279 113.416C123.464 113.416 122.745 113.225 122.121 112.844C121.497 112.463 121.003 111.934 120.639 111.258C120.292 110.582 120.119 109.819 120.119 108.97C120.119 108.103 120.292 107.341 120.639 106.682C120.986 106.023 121.471 105.503 122.095 105.122C122.736 104.741 123.464 104.55 124.279 104.55C125.094 104.55 125.813 104.741 126.437 105.122C127.061 105.503 127.546 106.023 127.893 106.682C128.257 107.341 128.439 108.103 128.439 108.97C128.439 109.819 128.257 110.582 127.893 111.258C127.546 111.934 127.061 112.463 126.437 112.844C125.813 113.225 125.094 113.416 124.279 113.416ZM124.279 111.362C124.851 111.362 125.319 111.137 125.683 110.686C126.047 110.235 126.229 109.663 126.229 108.97C126.229 108.294 126.047 107.731 125.683 107.28C125.319 106.812 124.851 106.578 124.279 106.578C123.707 106.578 123.23 106.812 122.849 107.28C122.485 107.731 122.303 108.294 122.303 108.97C122.303 109.663 122.485 110.235 122.849 110.686C123.23 111.137 123.707 111.362 124.279 111.362ZM113.983 103.25C113.186 103.25 112.466 103.059 111.825 102.678C111.201 102.297 110.716 101.768 110.369 101.092C110.022 100.416 109.849 99.6533 109.849 98.804C109.849 97.9373 110.022 97.1747 110.369 96.516C110.716 95.8573 111.201 95.3373 111.825 94.956C112.466 94.5747 113.194 94.384 114.009 94.384C114.824 94.384 115.543 94.5747 116.167 94.956C116.791 95.3373 117.276 95.8573 117.623 96.516C117.97 97.1747 118.143 97.9373 118.143 98.804C118.143 99.6533 117.97 100.416 117.623 101.092C117.276 101.768 116.782 102.297 116.141 102.678C115.517 103.059 114.798 103.25 113.983 103.25ZM113.983 101.196C114.572 101.196 115.049 100.971 115.413 100.52C115.777 100.069 115.959 99.4973 115.959 98.804C115.959 98.128 115.777 97.5647 115.413 97.114C115.049 96.6633 114.572 96.438 113.983 96.438C113.411 96.438 112.943 96.6633 112.579 97.114C112.215 97.5647 112.033 98.128 112.033 98.804C112.033 99.4973 112.215 100.069 112.579 100.52C112.943 100.971 113.411 101.196 113.983 101.196Z" fill="#4D5154"/>
<defs>
<filter id="filter0_d_466_10512" x="39" y="43" width="130" height="130" filterUnits="userSpaceOnUse" color-interpolation-filters="sRGB">
<feFlood flood-opacity="0" result="BackgroundImageFix"/>
<feColorMatrix in="SourceAlpha" type="matrix" values="0 0 0 0 0 0 0 0 0 0 0 0 0 0 0 0 0 0 127 0" result="hardAlpha"/>
<feOffset dy="4"/>
<feGaussianBlur stdDeviation="8"/>
<feComposite in2="hardAlpha" operator="out"/>
<feColorMatrix type="matrix" values="0 0 0 0 0.564706 0 0 0 0 0.572549 0 0 0 0 0.580392 0 0 0 0.45 0"/>
<feBlend mode="normal" in2="BackgroundImageFix" result="effect1_dropShadow_466_10512"/>
<feBlend mode="normal" in="SourceGraphic" in2="effect1_dropShadow_466_10512" result="shape"/>
</filter>
<linearGradient id="paint0_linear_466_10512" x1="104" y1="204.523" x2="269.261" y2="120.48" gradientUnits="userSpaceOnUse">
<stop stop-color="#FF414B"/>
<stop offset="1" stop-color="#FF7A81"/>
</linearGradient>
<linearGradient id="paint1_linear_466_10512" x1="129.307" y1="167.441" x2="152.03" y2="144.718" gradientUnits="userSpaceOnUse">
<stop stop-color="#FF414B"/>
<stop offset="1" stop-color="#FF7A81"/>
</linearGradient>
</defs>
</svg>
