<svg width="58" height="58" viewBox="0 0 58 58" fill="none" xmlns="http://www.w3.org/2000/svg">
<rect x="0.5" y="0.5" width="57" height="57" rx="9.5" stroke="#DCDCDC"/>
<path d="M38.625 19.375H19.375C18.9109 19.375 18.4658 19.5594 18.1376 19.8876C17.8094 20.2158 17.625 20.6609 17.625 21.125V37.75C17.6251 37.8991 17.6633 38.0458 17.736 38.176C17.8086 38.3062 17.9134 38.4157 18.0403 38.494C18.1672 38.5724 18.312 38.617 18.461 38.6237C18.61 38.6303 18.7582 38.5988 18.8916 38.532L22 36.9778L25.1084 38.532C25.23 38.5929 25.3641 38.6245 25.5 38.6245C25.6359 38.6245 25.77 38.5929 25.8916 38.532L29 36.9778L32.1084 38.532C32.23 38.5929 32.3641 38.6245 32.5 38.6245C32.6359 38.6245 32.77 38.5929 32.8916 38.532L36 36.9778L39.1084 38.532C39.2418 38.5988 39.39 38.6303 39.539 38.6237C39.688 38.617 39.8328 38.5724 39.9597 38.494C40.0866 38.4157 40.1914 38.3062 40.264 38.176C40.3367 38.0458 40.3749 37.8991 40.375 37.75V21.125C40.375 20.6609 40.1906 20.2158 39.8624 19.8876C39.5342 19.5594 39.0891 19.375 38.625 19.375ZM38.625 36.3347L36.3916 35.2169C36.27 35.156 36.1359 35.1244 36 35.1244C35.8641 35.1244 35.73 35.156 35.6084 35.2169L32.5 36.7722L29.3916 35.2169C29.27 35.156 29.1359 35.1244 29 35.1244C28.8641 35.1244 28.73 35.156 28.6084 35.2169L25.5 36.7722L22.3916 35.2169C22.27 35.156 22.1359 35.1244 22 35.1244C21.8641 35.1244 21.73 35.156 21.6084 35.2169L19.375 36.3347V21.125H38.625V36.3347ZM25.7559 30.1309L27.763 28.125L25.7559 26.1191C25.5918 25.9549 25.4995 25.7322 25.4995 25.5C25.4995 25.2678 25.5918 25.0451 25.7559 24.8809C25.9201 24.7168 26.1428 24.6245 26.375 24.6245C26.6072 24.6245 26.8299 24.7168 26.9941 24.8809L29 26.888L31.0059 24.8809C31.0872 24.7996 31.1837 24.7352 31.29 24.6912C31.3962 24.6472 31.51 24.6245 31.625 24.6245C31.74 24.6245 31.8538 24.6472 31.96 24.6912C32.0663 24.7352 32.1628 24.7996 32.2441 24.8809C32.3254 24.9622 32.3898 25.0587 32.4338 25.165C32.4778 25.2712 32.5005 25.385 32.5005 25.5C32.5005 25.615 32.4778 25.7288 32.4338 25.835C32.3898 25.9413 32.3254 26.0378 32.2441 26.1191L30.237 28.125L32.2441 30.1309C32.3254 30.2122 32.3898 30.3087 32.4338 30.415C32.4778 30.5212 32.5005 30.635 32.5005 30.75C32.5005 30.865 32.4778 30.9788 32.4338 31.085C32.3898 31.1913 32.3254 31.2878 32.2441 31.3691C32.1628 31.4504 32.0663 31.5148 31.96 31.5588C31.8538 31.6028 31.74 31.6255 31.625 31.6255C31.51 31.6255 31.3962 31.6028 31.29 31.5588C31.1837 31.5148 31.0872 31.4504 31.0059 31.3691L29 29.362L26.9941 31.3691C26.9128 31.4504 26.8163 31.5148 26.71 31.5588C26.6038 31.6028 26.49 31.6255 26.375 31.6255C26.26 31.6255 26.1462 31.6028 26.04 31.5588C25.9337 31.5148 25.8372 31.4504 25.7559 31.3691C25.6746 31.2878 25.6102 31.1913 25.5662 31.085C25.5222 30.9788 25.4995 30.865 25.4995 30.75C25.4995 30.635 25.5222 30.5212 25.5662 30.415C25.6102 30.3087 25.6746 30.2122 25.7559 30.1309Z" fill="url(#paint0_linear_357_9853)"/>
<defs>
<linearGradient id="paint0_linear_357_9853" x1="17.625" y1="38.6245" x2="36.6089" y2="16.1884" gradientUnits="userSpaceOnUse">
<stop stop-color="#FF414B"/>
<stop offset="1" stop-color="#FF7A81"/>
</linearGradient>
</defs>
</svg>
