<svg width="58" height="58" viewBox="0 0 58 58" fill="none" xmlns="http://www.w3.org/2000/svg">
<rect x="0.5" y="0.5" width="57" height="57" rx="9.5" stroke="#DCDCDC"/>
<path d="M39.5 26.375H38.5845C38.3647 23.985 37.2598 21.7634 35.4867 20.1459C33.7136 18.5284 31.4001 17.6317 29 17.6317C26.5999 17.6317 24.2864 18.5284 22.5133 20.1459C20.7402 21.7634 19.6353 23.985 19.4155 26.375H18.5C18.2679 26.375 18.0454 26.4672 17.8813 26.6313C17.7172 26.7954 17.625 27.018 17.625 27.25C17.6288 29.3309 18.2015 31.3711 19.2811 33.1501C20.3606 34.929 21.906 36.379 23.75 37.3431V37.75C23.75 38.2141 23.9344 38.6593 24.2626 38.9875C24.5908 39.3156 25.0359 39.5 25.5 39.5H32.5C32.9641 39.5 33.4092 39.3156 33.7374 38.9875C34.0656 38.6593 34.25 38.2141 34.25 37.75V37.3431C36.094 36.379 37.6394 34.929 38.7189 33.1501C39.7985 31.3711 40.3712 29.3309 40.375 27.25C40.375 27.018 40.2828 26.7954 40.1187 26.6313C39.9546 26.4672 39.7321 26.375 39.5 26.375ZM36.8247 26.375H31.2006C32.2615 24.7835 33.8664 23.6335 35.7145 23.1408C36.3188 24.1237 36.6979 25.2282 36.8247 26.375ZM33.9744 21.1502C34.1749 21.3142 34.367 21.4874 34.5508 21.6697C32.2215 22.4891 30.2966 24.1731 29.175 26.3728H25.9484C26.4953 24.8399 27.5021 23.5131 28.8314 22.5739C30.1606 21.6346 31.7474 21.1286 33.375 21.125C33.5752 21.125 33.7753 21.1349 33.9744 21.1502ZM29 19.375C29.7022 19.3755 30.4011 19.47 31.0781 19.6561C29.4292 20.0651 27.9173 20.9016 26.6947 22.0812C25.4721 23.2608 24.582 24.7418 24.1142 26.375H21.1753C21.3924 24.451 22.3099 22.6741 23.753 21.3831C25.196 20.0921 27.0637 19.3773 29 19.375ZM33.0097 36C32.8571 36.0701 32.7278 36.1827 32.6375 36.3243C32.5471 36.4659 32.4994 36.6305 32.5 36.7985V37.75H25.5V36.7985C25.5006 36.6305 25.4529 36.4659 25.3625 36.3243C25.2722 36.1827 25.1429 36.0701 24.9903 36C23.4515 35.2919 22.1261 34.1915 21.147 32.8093C20.1679 31.427 19.5696 29.8116 19.4122 28.125H38.5845C38.4274 29.8112 37.8296 31.4265 36.8511 32.8087C35.8726 34.1909 34.5479 35.2915 33.0097 36Z" fill="url(#paint0_linear_357_9736)"/>
<defs>
<linearGradient id="paint0_linear_357_9736" x1="17.625" y1="39.5" x2="39.4762" y2="16.7678" gradientUnits="userSpaceOnUse">
<stop stop-color="#00997E"/>
<stop offset="1" stop-color="#00C9A5"/>
</linearGradient>
</defs>
</svg>
