<svg width="80" height="81" viewBox="0 0 80 81" fill="none" xmlns="http://www.w3.org/2000/svg">
<rect y="0.5" width="80" height="80" rx="40" fill="#00997E" fill-opacity="0.08"/>
<path d="M68 26.2088L63.0155 44.4312C62.4804 46.3872 59.7095 46.3968 59.1609 44.4445L57.9864 40.2647C57.5446 38.6923 55.3385 38.6302 54.8089 40.1752V40.1752C54.2519 41.7998 51.8982 41.6194 51.5953 39.9289L49.5193 28.3418C49.1181 26.1024 45.8853 26.1642 45.57 28.4172L42.3318 51.5506C42.0126 53.8311 38.7264 53.8546 38.3746 51.5789L36.1175 36.9769C35.7781 34.7812 32.6472 34.693 32.1847 36.8661L32.0642 37.4326L30.5668 44.1449L28.8846 51.088C28.4139 53.0308 25.6986 53.1573 25.0493 51.2667L20.8661 39.0864C20.3197 37.4953 18.1725 37.2486 17.2796 38.6744L16.2663 40.2922C15.3427 41.767 13.1066 41.4403 12.6434 39.763L12 37.4326" stroke="#00997E" stroke-width="2"/>
</svg>
