<svg width="58" height="58" viewBox="0 0 58 58" fill="none" xmlns="http://www.w3.org/2000/svg">
<rect x="0.5" y="0.5" width="57" height="57" rx="9.5" stroke="#DCDCDC"/>
<path d="M40.375 29.9472C40.1891 32.1085 39.3898 34.1716 38.0712 35.894C36.7525 37.6164 34.9694 38.9264 32.9316 39.6698C30.8937 40.4132 28.686 40.5591 26.568 40.0904C24.45 39.6216 22.51 38.5577 20.9762 37.0239C19.4423 35.49 18.3784 33.55 17.9097 31.432C17.441 29.3141 17.5869 27.1063 18.3303 25.0685C19.0737 23.0306 20.3836 21.2475 22.106 19.9289C23.8284 18.6102 25.8916 17.8109 28.0528 17.625C28.1677 17.6156 28.2834 17.6288 28.3932 17.664C28.503 17.6992 28.6047 17.7557 28.6927 17.8303C28.7806 17.9048 28.853 17.996 28.9058 18.0985C28.9585 18.201 28.9905 18.3129 29 18.4279C29.0095 18.5428 28.9962 18.6584 28.961 18.7682C28.9258 18.878 28.8693 18.9798 28.7948 19.0677C28.7202 19.1557 28.6291 19.2281 28.5266 19.2808C28.424 19.3335 28.3121 19.3656 28.1972 19.375C26.368 19.5322 24.6217 20.2086 23.1639 21.3245C21.706 22.4405 20.5972 23.9496 19.968 25.6743C19.3387 27.399 19.2151 29.2676 19.6118 31.0602C20.0085 32.8528 20.9089 34.4948 22.2071 35.793C23.5053 37.0912 25.1473 37.9916 26.9399 38.3883C28.7324 38.7849 30.601 38.6614 32.3257 38.0321C34.0505 37.4028 35.5596 36.294 36.6756 34.8362C37.7915 33.3783 38.4678 31.6321 38.625 29.8029C38.6442 29.5708 38.7547 29.3558 38.9323 29.2053C39.11 29.0547 39.3401 28.9809 39.5722 29C39.8043 29.0192 40.0192 29.1297 40.1698 29.3074C40.3203 29.485 40.3942 29.7152 40.375 29.9472ZM28.125 22.875V29C28.125 29.2321 28.2172 29.4547 28.3813 29.6188C28.5454 29.7829 28.7679 29.875 29 29.875H35.125C35.3571 29.875 35.5796 29.7829 35.7437 29.6188C35.9078 29.4547 36 29.2321 36 29C36 28.768 35.9078 28.5454 35.7437 28.3813C35.5796 28.2172 35.3571 28.125 35.125 28.125H29.875V22.875C29.875 22.643 29.7828 22.4204 29.6187 22.2563C29.4546 22.0922 29.2321 22 29 22C28.7679 22 28.5454 22.0922 28.3813 22.2563C28.2172 22.4204 28.125 22.643 28.125 22.875ZM32.5 20.25C32.7596 20.25 33.0134 20.1731 33.2292 20.0288C33.445 19.8846 33.6133 19.6796 33.7126 19.4398C33.8119 19.2 33.8379 18.9361 33.7873 18.6815C33.7366 18.4269 33.6116 18.193 33.4281 18.0095C33.2445 17.8259 33.0107 17.7009 32.7561 17.6503C32.5015 17.5996 32.2376 17.6256 31.9977 17.725C31.7579 17.8243 31.5529 17.9925 31.4087 18.2084C31.2645 18.4242 31.1875 18.678 31.1875 18.9375C31.1875 19.2856 31.3258 19.6195 31.5719 19.8656C31.8181 20.1118 32.1519 20.25 32.5 20.25ZM36.4375 22.875C36.6971 22.875 36.9509 22.7981 37.1667 22.6538C37.3825 22.5096 37.5508 22.3046 37.6501 22.0648C37.7494 21.825 37.7754 21.5611 37.7248 21.3065C37.6741 21.0519 37.5491 20.818 37.3656 20.6345C37.182 20.4509 36.9482 20.3259 36.6936 20.2753C36.439 20.2246 36.1751 20.2506 35.9352 20.35C35.6954 20.4493 35.4904 20.6175 35.3462 20.8334C35.202 21.0492 35.125 21.303 35.125 21.5625C35.125 21.9106 35.2633 22.2445 35.5094 22.4906C35.7556 22.7368 36.0894 22.875 36.4375 22.875ZM39.0625 26.8125C39.3221 26.8125 39.5759 26.7356 39.7917 26.5913C40.0075 26.4471 40.1758 26.2421 40.2751 26.0023C40.3744 25.7625 40.4004 25.4986 40.3498 25.244C40.2991 24.9894 40.1741 24.7555 39.9906 24.572C39.807 24.3884 39.5732 24.2634 39.3186 24.2128C39.064 24.1621 38.8001 24.1881 38.5602 24.2875C38.3204 24.3868 38.1154 24.555 37.9712 24.7709C37.827 24.9867 37.75 25.2405 37.75 25.5C37.75 25.8481 37.8883 26.182 38.1344 26.4281C38.3806 26.6743 38.7144 26.8125 39.0625 26.8125Z" fill="url(#paint0_linear_357_10527)"/>
<defs>
<linearGradient id="paint0_linear_357_10527" x1="17.6407" y1="40.3594" x2="40.378" y2="17.6221" gradientUnits="userSpaceOnUse">
<stop stop-color="#FFAE41"/>
<stop offset="1" stop-color="#FFC06A"/>
</linearGradient>
</defs>
</svg>
