<svg width="80" height="81" viewBox="0 0 80 81" fill="none" xmlns="http://www.w3.org/2000/svg">
<rect y="0.5" width="80" height="80" rx="40" fill="#FF414B" fill-opacity="0.08"/>
<path d="M12 26.2088L16.9845 44.4312C17.5196 46.3872 20.2905 46.3968 20.8391 44.4445L22.0136 40.2647C22.4554 38.6923 24.6615 38.6302 25.1911 40.1752V40.1752C25.7481 41.7998 28.1018 41.6194 28.4047 39.9289L30.4807 28.3418C30.8819 26.1024 34.1147 26.1642 34.43 28.4172L37.6682 51.5506C37.9874 53.8311 41.2736 53.8546 41.6254 51.5789L43.8825 36.9769C44.2219 34.7812 47.3528 34.693 47.8153 36.8661L47.9358 37.4326L49.4332 44.1449L51.1154 51.088C51.5861 53.0308 54.3014 53.1573 54.9507 51.2667L59.1339 39.0864C59.6803 37.4953 61.8275 37.2486 62.7204 38.6744L63.7337 40.2922C64.6573 41.767 66.8934 41.4403 67.3566 39.763L68 37.4326" stroke="#FF414B" stroke-width="2"/>
</svg>
