<svg width="58" height="58" viewBox="0 0 58 58" fill="none" xmlns="http://www.w3.org/2000/svg">
<rect x="0.5" y="0.5" width="57" height="57" rx="9.5" stroke="#DCDCDC"/>
<path d="M42.0616 27.7969L40.5303 23.9688C40.4004 23.6449 40.1762 23.3674 39.8868 23.1724C39.5974 22.9774 39.2562 22.8738 38.9072 22.875H35.125V22C35.125 21.7679 35.0328 21.5454 34.8687 21.3813C34.7046 21.2172 34.4821 21.125 34.25 21.125H17.625C17.1609 21.125 16.7158 21.3094 16.3876 21.6376C16.0594 21.9658 15.875 22.4109 15.875 22.875V35.125C15.875 35.5891 16.0594 36.0342 16.3876 36.3624C16.7158 36.6906 17.1609 36.875 17.625 36.875H19.4844C19.6771 37.6279 20.115 38.2952 20.7289 38.7717C21.3428 39.2482 22.0979 39.5069 22.875 39.5069C23.6521 39.5069 24.4072 39.2482 25.0211 38.7717C25.635 38.2952 26.0729 37.6279 26.2656 36.875H31.7344C31.9271 37.6279 32.365 38.2952 32.9789 38.7717C33.5928 39.2482 34.3479 39.5069 35.125 39.5069C35.9021 39.5069 36.6572 39.2482 37.2711 38.7717C37.885 38.2952 38.3229 37.6279 38.5156 36.875H40.375C40.8391 36.875 41.2842 36.6906 41.6124 36.3624C41.9406 36.0342 42.125 35.5891 42.125 35.125V28.125C42.1253 28.0125 42.1038 27.9011 42.0616 27.7969ZM35.125 24.625H38.9072L39.9572 27.25H35.125V24.625ZM17.625 22.875H33.375V29.875H17.625V22.875ZM22.875 37.75C22.5289 37.75 22.1905 37.6474 21.9028 37.4551C21.615 37.2628 21.3907 36.9895 21.2582 36.6697C21.1258 36.3499 21.0911 35.9981 21.1586 35.6586C21.2261 35.3191 21.3928 35.0073 21.6376 34.7626C21.8823 34.5178 22.1941 34.3511 22.5336 34.2836C22.8731 34.2161 23.2249 34.2508 23.5447 34.3832C23.8645 34.5157 24.1378 34.74 24.3301 35.0278C24.5224 35.3155 24.625 35.6539 24.625 36C24.625 36.4641 24.4406 36.9092 24.1124 37.2374C23.7842 37.5656 23.3391 37.75 22.875 37.75ZM31.7344 35.125H26.2656C26.0729 34.3721 25.635 33.7048 25.0211 33.2283C24.4072 32.7518 23.6521 32.4931 22.875 32.4931C22.0979 32.4931 21.3428 32.7518 20.7289 33.2283C20.115 33.7048 19.6771 34.3721 19.4844 35.125H17.625V31.625H33.375V32.9714C32.9726 33.204 32.6205 33.5141 32.3388 33.8838C32.0572 34.2534 31.8518 34.6753 31.7344 35.125ZM35.125 37.75C34.7789 37.75 34.4405 37.6474 34.1528 37.4551C33.865 37.2628 33.6407 36.9895 33.5082 36.6697C33.3758 36.3499 33.3411 35.9981 33.4086 35.6586C33.4762 35.3191 33.6428 35.0073 33.8876 34.7626C34.1323 34.5178 34.4441 34.3511 34.7836 34.2836C35.1231 34.2161 35.4749 34.2508 35.7947 34.3832C36.1145 34.5157 36.3878 34.74 36.5801 35.0278C36.7724 35.3155 36.875 35.6539 36.875 36C36.875 36.4641 36.6906 36.9092 36.3624 37.2374C36.0342 37.5656 35.5891 37.75 35.125 37.75ZM40.375 35.125H38.5156C38.3205 34.374 37.8819 33.7089 37.2683 33.2338C36.6547 32.7588 35.901 32.5007 35.125 32.5V29H40.375V35.125Z" fill="url(#paint0_linear_357_10793)"/>
<defs>
<linearGradient id="paint0_linear_357_10793" x1="15.875" y1="39.5069" x2="33.1488" y2="14.8393" gradientUnits="userSpaceOnUse">
<stop stop-color="#5655D7"/>
<stop offset="1" stop-color="#7F7EFF"/>
</linearGradient>
</defs>
</svg>
