<svg width="25" height="25" viewBox="0 0 25 25" fill="none" xmlns="http://www.w3.org/2000/svg">
<path d="M20.75 7.25H5.75C5.55109 7.25 5.36032 7.17098 5.21967 7.03033C5.07902 6.88968 5 6.69891 5 6.5C5 6.30109 5.07902 6.11032 5.21967 5.96967C5.36032 5.82902 5.55109 5.75 5.75 5.75H18.5C18.6989 5.75 18.8897 5.67098 19.0303 5.53033C19.171 5.38968 19.25 5.19891 19.25 5C19.25 4.80109 19.171 4.61032 19.0303 4.46967C18.8897 4.32902 18.6989 4.25 18.5 4.25H5.75C5.15326 4.25 4.58097 4.48705 4.15901 4.90901C3.73705 5.33097 3.5 5.90326 3.5 6.5V18.5C3.5 19.0967 3.73705 19.669 4.15901 20.091C4.58097 20.5129 5.15326 20.75 5.75 20.75H20.75C21.1478 20.75 21.5294 20.592 21.8107 20.3107C22.092 20.0294 22.25 19.6478 22.25 19.25V8.75C22.25 8.35218 22.092 7.97064 21.8107 7.68934C21.5294 7.40804 21.1478 7.25 20.75 7.25ZM20.75 19.25H5.75C5.55109 19.25 5.36032 19.171 5.21967 19.0303C5.07902 18.8897 5 18.6989 5 18.5V8.62156C5.24082 8.70693 5.4945 8.75037 5.75 8.75H20.75V19.25ZM16.25 13.625C16.25 13.4025 16.316 13.185 16.4396 13C16.5632 12.815 16.7389 12.6708 16.9445 12.5856C17.15 12.5005 17.3762 12.4782 17.5945 12.5216C17.8127 12.565 18.0132 12.6722 18.1705 12.8295C18.3278 12.9868 18.435 13.1873 18.4784 13.4055C18.5218 13.6238 18.4995 13.85 18.4144 14.0555C18.3292 14.2611 18.185 14.4368 18 14.5604C17.815 14.684 17.5975 14.75 17.375 14.75C17.0766 14.75 16.7905 14.6315 16.5795 14.4205C16.3685 14.2095 16.25 13.9234 16.25 13.625Z" fill="white"/>
</svg>
