<svg width="256" height="70" viewBox="0 0 256 70" fill="none" xmlns="http://www.w3.org/2000/svg">
<mask id="mask0_310_8508" style="mask-type:alpha" maskUnits="userSpaceOnUse" x="0" y="0" width="256" height="70">
<rect x="0.421829" y="1.24361" width="255.156" height="68.1563" rx="9.57817" fill="white" stroke="#5655D7" stroke-width="0.843658"/>
</mask>
<g mask="url(#mask0_310_8508)">
<path d="M253.038 41.2891L261.999 49.5902C264.435 51.8466 265.846 55.2121 265.846 58.7639V67.1214C265.846 73.6818 261.124 79 255.298 79H0.317247C-3.97422 79 -7.83788 76.0721 -9.45412 71.5952L-15.3351 55.3054C-15.8481 53.8846 -16.1118 52.3653 -16.1118 50.8316V38.4696C-16.1118 35.8537 -15.345 33.3109 -13.9304 31.2359L-9.15027 24.2243C-7.62102 21.9811 -5.43125 20.426 -2.97477 19.8385L7.22974 17.3981C11.6828 16.3331 16.2401 18.6055 18.5331 23.0342L28.3812 42.0545C31.6838 48.433 39.2989 49.909 44.305 45.1409L68.0339 22.5406C72.704 18.0927 79.7435 19.0358 83.3565 24.5935L96.5887 44.9477C100.515 50.9876 108.364 51.4816 112.864 45.9719L141.69 10.6759C146.136 5.2315 153.941 5.9378 157.558 12.1119L167.722 27.6949C170.359 31.7379 174.967 33.4797 179.235 32.047L191.402 27.964C195.515 26.5838 199.96 28.147 202.644 31.9174L209.207 41.136C211.751 44.7086 215.891 46.3166 219.85 45.2693L243.924 38.8992C247.127 38.0518 250.497 38.9356 253.038 41.2891Z" fill="#5655D7" fill-opacity="0.08" stroke="#5655D7" stroke-width="4" stroke-linecap="round"/>
</g>
</svg>
