<svg width="24" height="36" viewBox="0 0 24 36" fill="none" xmlns="http://www.w3.org/2000/svg">
<path d="M15.75 16.75H13.25V6.75H14.5C15.8261 6.75 17.0979 7.27678 18.0355 8.21447C18.9732 9.15215 19.5 10.4239 19.5 11.75C19.5 12.0815 19.6317 12.3995 19.8661 12.6339C20.1005 12.8683 20.4185 13 20.75 13C21.0815 13 21.3995 12.8683 21.6339 12.6339C21.8683 12.3995 22 12.0815 22 11.75C21.9979 9.76151 21.2071 7.85506 19.801 6.44898C18.3949 5.04291 16.4885 4.25207 14.5 4.25H13.25V1.75C13.25 1.41848 13.1183 1.10054 12.8839 0.866116C12.6495 0.631696 12.3315 0.5 12 0.5C11.6685 0.5 11.3505 0.631696 11.1161 0.866116C10.8817 1.10054 10.75 1.41848 10.75 1.75V4.25H9.5C7.51088 4.25 5.60322 5.04018 4.1967 6.4467C2.79018 7.85322 2 9.76088 2 11.75C2 13.7391 2.79018 15.6468 4.1967 17.0533C5.60322 18.4598 7.51088 19.25 9.5 19.25H10.75V29.25H8.25C6.92392 29.25 5.65215 28.7232 4.71447 27.7855C3.77678 26.8479 3.25 25.5761 3.25 24.25C3.25 23.9185 3.1183 23.6005 2.88388 23.3661C2.64946 23.1317 2.33152 23 2 23C1.66848 23 1.35054 23.1317 1.11612 23.3661C0.881696 23.6005 0.75 23.9185 0.75 24.25C0.752068 26.2385 1.54291 28.1449 2.94898 29.551C4.35506 30.9571 6.26151 31.7479 8.25 31.75H10.75V34.25C10.75 34.5815 10.8817 34.8995 11.1161 35.1339C11.3505 35.3683 11.6685 35.5 12 35.5C12.3315 35.5 12.6495 35.3683 12.8839 35.1339C13.1183 34.8995 13.25 34.5815 13.25 34.25V31.75H15.75C17.7391 31.75 19.6468 30.9598 21.0533 29.5533C22.4598 28.1468 23.25 26.2391 23.25 24.25C23.25 22.2609 22.4598 20.3532 21.0533 18.9467C19.6468 17.5402 17.7391 16.75 15.75 16.75ZM9.5 16.75C8.17392 16.75 6.90215 16.2232 5.96447 15.2855C5.02678 14.3479 4.5 13.0761 4.5 11.75C4.5 10.4239 5.02678 9.15215 5.96447 8.21447C6.90215 7.27678 8.17392 6.75 9.5 6.75H10.75V16.75H9.5ZM15.75 29.25H13.25V19.25H15.75C17.0761 19.25 18.3479 19.7768 19.2855 20.7145C20.2232 21.6521 20.75 22.9239 20.75 24.25C20.75 25.5761 20.2232 26.8479 19.2855 27.7855C18.3479 28.7232 17.0761 29.25 15.75 29.25Z" fill="#00997E"/>
</svg>
