<svg width="13" height="8" viewBox="0 0 13 8" fill="none" xmlns="http://www.w3.org/2000/svg">
<path d="M12.1875 0.754639V4.00464C12.1875 4.11238 12.1447 4.21571 12.0685 4.2919C11.9923 4.36809 11.889 4.41089 11.7812 4.41089C11.6735 4.41089 11.5702 4.36809 11.494 4.2919C11.4178 4.21571 11.375 4.11238 11.375 4.00464V1.73522L7.19365 5.91706C7.15592 5.95483 7.11112 5.9848 7.0618 6.00524C7.01248 6.02569 6.95962 6.03621 6.90623 6.03621C6.85284 6.03621 6.79998 6.02569 6.75066 6.00524C6.70134 5.9848 6.65654 5.95483 6.61881 5.91706L4.87498 4.17272L1.50615 7.54206C1.42992 7.61829 1.32654 7.66111 1.21873 7.66111C1.11093 7.66111 1.00754 7.61829 0.93131 7.54206C0.855081 7.46583 0.812256 7.36244 0.812256 7.25464C0.812256 7.14683 0.855081 7.04345 0.93131 6.96722L4.58756 3.31097C4.62529 3.2732 4.67009 3.24323 4.71941 3.22279C4.76873 3.20234 4.82159 3.19182 4.87498 3.19182C4.92837 3.19182 4.98123 3.20234 5.03055 3.22279C5.07987 3.24323 5.12467 3.2732 5.1624 3.31097L6.90623 5.0553L10.8006 1.16089H8.53123C8.42349 1.16089 8.32016 1.11809 8.24397 1.0419C8.16778 0.965714 8.12498 0.862383 8.12498 0.754639C8.12498 0.646894 8.16778 0.543563 8.24397 0.467377C8.32016 0.39119 8.42349 0.348389 8.53123 0.348389H11.7812C11.889 0.348389 11.9923 0.39119 12.0685 0.467377C12.1447 0.543563 12.1875 0.646894 12.1875 0.754639Z" fill="#00997E"/>
</svg>
