<svg width="56" height="22" viewBox="0 0 56 22" fill="none" xmlns="http://www.w3.org/2000/svg">
<rect y="0.910889" width="56" height="21" rx="10.5" fill="#00997E" fill-opacity="0.08"/>
<path d="M20.1875 7.75464V11.0046C20.1875 11.1124 20.1447 11.2157 20.0685 11.2919C19.9923 11.3681 19.889 11.4109 19.7812 11.4109C19.6735 11.4109 19.5702 11.3681 19.494 11.2919C19.4178 11.2157 19.375 11.1124 19.375 11.0046V8.73522L15.1937 12.9171C15.1559 12.9548 15.1111 12.9848 15.0618 13.0052C15.0125 13.0257 14.9596 13.0362 14.9062 13.0362C14.8528 13.0362 14.8 13.0257 14.7507 13.0052C14.7013 12.9848 14.6565 12.9548 14.6188 12.9171L12.875 11.1727L9.50615 14.5421C9.42992 14.6183 9.32654 14.6611 9.21873 14.6611C9.11093 14.6611 9.00754 14.6183 8.93131 14.5421C8.85508 14.4658 8.81226 14.3624 8.81226 14.2546C8.81226 14.1468 8.85508 14.0434 8.93131 13.9672L12.5876 10.311C12.6253 10.2732 12.6701 10.2432 12.7194 10.2228C12.7687 10.2023 12.8216 10.1918 12.875 10.1918C12.9284 10.1918 12.9812 10.2023 13.0306 10.2228C13.0799 10.2432 13.1247 10.2732 13.1624 10.311L14.9062 12.0553L18.8006 8.16089H16.5312C16.4235 8.16089 16.3202 8.11809 16.244 8.0419C16.1678 7.96571 16.125 7.86238 16.125 7.75464C16.125 7.64689 16.1678 7.54356 16.244 7.46738C16.3202 7.39119 16.4235 7.34839 16.5312 7.34839H19.7812C19.889 7.34839 19.9923 7.39119 20.0685 7.46738C20.1447 7.54356 20.1875 7.64689 20.1875 7.75464Z" fill="#00997E"/>
<path d="M27.837 14.5039L26.594 13.9319C26.594 13.7046 26.6527 13.4699 26.77 13.2279C26.8873 12.9786 27.0523 12.7292 27.265 12.4799C27.485 12.2306 27.7417 11.9959 28.035 11.7759L29.377 10.8079C29.5457 10.6906 29.6997 10.5549 29.839 10.4009C29.9857 10.2469 30.103 10.0856 30.191 9.91689C30.279 9.74089 30.323 9.56856 30.323 9.39989C30.323 9.18722 30.268 8.99289 30.158 8.81689C30.0553 8.64089 29.905 8.50156 29.707 8.39889C29.5163 8.29622 29.2817 8.24489 29.003 8.24489C28.7537 8.24489 28.53 8.29622 28.332 8.39889C28.1413 8.49422 27.9837 8.62255 27.859 8.78389C27.7343 8.94522 27.6463 9.12122 27.595 9.31189L26.286 9.06989C26.3593 8.71789 26.5133 8.39155 26.748 8.09089C26.99 7.78289 27.298 7.53722 27.672 7.35389C28.0533 7.17056 28.486 7.07889 28.97 7.07889C29.5127 7.07889 29.982 7.17789 30.378 7.37589C30.7813 7.57389 31.0893 7.84889 31.302 8.20089C31.522 8.54556 31.632 8.94156 31.632 9.38889C31.632 9.84356 31.5073 10.2542 31.258 10.6209C31.016 10.9802 30.675 11.3249 30.235 11.6549L29.003 12.5679C28.7977 12.7146 28.6033 12.8832 28.42 13.0739C28.244 13.2572 28.101 13.4662 27.991 13.7009C27.8883 13.9356 27.837 14.2032 27.837 14.5039ZM26.594 14.9109V13.9319L27.54 13.7779H31.731V14.9109H26.594ZM35.4962 15.0429C35.1588 15.0429 34.8142 14.9916 34.4622 14.8889C34.1175 14.7789 33.7985 14.6176 33.5052 14.4049C33.2118 14.1849 32.9882 13.9099 32.8342 13.5799L33.9672 13.1619C34.1578 13.4332 34.3815 13.6312 34.6382 13.7559C34.8948 13.8732 35.1588 13.9319 35.4302 13.9319C35.8628 13.9319 36.2148 13.8036 36.4862 13.5469C36.7575 13.2829 36.8932 12.9346 36.8932 12.5019C36.8932 12.0839 36.7612 11.7392 36.4972 11.4679C36.2332 11.1966 35.8885 11.0609 35.4632 11.0609C35.2138 11.0609 34.9792 11.1159 34.7592 11.2259C34.5465 11.3359 34.3815 11.4679 34.2642 11.6219L33.1092 11.3689L33.5382 7.21089H37.7952V8.36589H33.6922L33.5382 7.25489H34.8032L34.2752 11.4679L33.4942 11.3689C33.5822 11.2222 33.6958 11.0756 33.8352 10.9289C33.9818 10.7749 34.1578 10.6319 34.3632 10.4999C34.5685 10.3679 34.7958 10.2616 35.0452 10.1809C35.2945 10.1002 35.5658 10.0636 35.8592 10.0709C36.2992 10.0709 36.6952 10.1736 37.0472 10.3789C37.3992 10.5842 37.6778 10.8666 37.8832 11.2259C38.0885 11.5779 38.1912 11.9849 38.1912 12.4469C38.1912 12.9602 38.0738 13.4112 37.8392 13.7999C37.6118 14.1886 37.2965 14.4929 36.8932 14.7129C36.4898 14.9329 36.0242 15.0429 35.4962 15.0429ZM39.6666 14.9109L45.1336 7.21089H46.4096L40.9096 14.9109H39.6666ZM45.2326 15.0869C44.8879 15.0869 44.5836 15.0062 44.3196 14.8449C44.0556 14.6836 43.8466 14.4599 43.6926 14.1739C43.5459 13.8879 43.4726 13.5652 43.4726 13.2059C43.4726 12.8392 43.5459 12.5166 43.6926 12.2379C43.8392 11.9592 44.0446 11.7392 44.3086 11.5779C44.5799 11.4166 44.8879 11.3359 45.2326 11.3359C45.5772 11.3359 45.8816 11.4166 46.1456 11.5779C46.4096 11.7392 46.6149 11.9592 46.7616 12.2379C46.9156 12.5166 46.9926 12.8392 46.9926 13.2059C46.9926 13.5652 46.9156 13.8879 46.7616 14.1739C46.6149 14.4599 46.4096 14.6836 46.1456 14.8449C45.8816 15.0062 45.5772 15.0869 45.2326 15.0869ZM45.2326 14.2179C45.4746 14.2179 45.6726 14.1226 45.8266 13.9319C45.9806 13.7412 46.0576 13.4992 46.0576 13.2059C46.0576 12.9199 45.9806 12.6816 45.8266 12.4909C45.6726 12.2929 45.4746 12.1939 45.2326 12.1939C44.9906 12.1939 44.7889 12.2929 44.6276 12.4909C44.4736 12.6816 44.3966 12.9199 44.3966 13.2059C44.3966 13.4992 44.4736 13.7412 44.6276 13.9319C44.7889 14.1226 44.9906 14.2179 45.2326 14.2179ZM40.8766 10.7859C40.5392 10.7859 40.2349 10.7052 39.9636 10.5439C39.6996 10.3826 39.4942 10.1589 39.3476 9.87289C39.2009 9.58689 39.1276 9.26422 39.1276 8.90489C39.1276 8.53822 39.2009 8.21556 39.3476 7.93689C39.4942 7.65822 39.6996 7.43822 39.9636 7.27689C40.2349 7.11556 40.5429 7.03489 40.8876 7.03489C41.2322 7.03489 41.5366 7.11556 41.8006 7.27689C42.0646 7.43822 42.2699 7.65822 42.4166 7.93689C42.5632 8.21556 42.6366 8.53822 42.6366 8.90489C42.6366 9.26422 42.5632 9.58689 42.4166 9.87289C42.2699 10.1589 42.0609 10.3826 41.7896 10.5439C41.5256 10.7052 41.2212 10.7859 40.8766 10.7859ZM40.8766 9.91689C41.1259 9.91689 41.3276 9.82156 41.4816 9.63089C41.6356 9.44022 41.7126 9.19822 41.7126 8.90489C41.7126 8.61889 41.6356 8.38056 41.4816 8.18989C41.3276 7.99922 41.1259 7.90389 40.8766 7.90389C40.6346 7.90389 40.4366 7.99922 40.2826 8.18989C40.1286 8.38056 40.0516 8.61889 40.0516 8.90489C40.0516 9.19822 40.1286 9.44022 40.2826 9.63089C40.4366 9.82156 40.6346 9.91689 40.8766 9.91689Z" fill="#00997E"/>
</svg>
