<svg width="256" height="70" viewBox="0 0 256 70" fill="none" xmlns="http://www.w3.org/2000/svg">
<mask id="mask0_310_8745" style="mask-type:alpha" maskUnits="userSpaceOnUse" x="0" y="0" width="256" height="70">
<rect x="0.421829" y="1.24361" width="255.156" height="68.1563" rx="9.57817" fill="white" stroke="#5655D7" stroke-width="0.843658"/>
</mask>
<g mask="url(#mask0_310_8745)">
<path d="M-19.2937 44.887L-35.1376 52.732C-38.7268 54.5092 -41 58.1825 -41 62.2052V65.2622C-41 71.0941 -36.2981 75.8218 -30.498 75.8218H351.803C355.282 75.8218 358.536 74.0889 360.491 71.1947L369.186 58.3205C370.368 56.5704 371 54.5036 371 52.3881V46.1711C371 42.9171 369.508 39.8449 366.956 37.844L359.639 32.1071C358.151 30.9403 356.378 30.1983 354.506 29.959L331.185 26.9778C327.914 26.5597 324.638 27.7105 322.337 30.0855L302.121 50.9557C298.918 54.2625 293.95 55.0941 289.854 53.0089L241.522 28.4028C237.813 26.515 233.347 27.0037 230.13 29.6492L201.182 53.4502C197.643 56.3605 192.637 56.6337 188.805 54.1256L134.421 18.5316C130.422 15.9138 125.169 16.3368 121.635 19.5612L117.231 23.5787L99.6921 37.9533C97.3206 39.8968 94.2243 40.704 91.2124 40.1637L62.32 34.9809C59.4613 34.4681 56.519 35.1683 54.1922 36.9152L39.1425 48.2142C36.9232 49.8805 34.1391 50.5977 31.3964 50.2098L-13.1913 43.9035C-15.2775 43.6085 -17.4037 43.9511 -19.2937 44.887Z" fill="#00997E" fill-opacity="0.08"/>
<path d="M-41 56.687L-19.4403 45.9411C-17.5123 44.9801 -15.329 44.6278 -13.1893 44.9324L31.0278 51.2277C33.8326 51.627 36.6826 50.8945 38.9288 49.1969L53.7998 37.958C56.1555 36.1777 59.1694 35.4626 62.0927 35.9905L90.6279 41.1431C93.7053 41.6988 96.8746 40.876 99.2706 38.8993L116.689 24.5292L120.969 20.5991C124.533 17.326 129.923 16.8988 133.975 19.5684L187.869 55.0752C191.753 57.6345 196.894 57.3581 200.471 54.3975L229.098 30.7039C232.351 28.0114 236.937 27.5154 240.708 29.4482L288.551 53.9663C292.71 56.0976 297.804 55.2575 301.026 51.9089L321.055 31.0947C323.365 28.6942 326.707 27.527 330.041 27.956L356 31.2965" stroke="#00997E" stroke-width="4" stroke-linecap="round"/>
</g>
</svg>
