<svg width="256" height="70" viewBox="0 0 256 70" fill="none" xmlns="http://www.w3.org/2000/svg">
<mask id="mask0_310_14155" style="mask-type:alpha" maskUnits="userSpaceOnUse" x="0" y="0" width="256" height="70">
<rect x="0.421829" y="1.24361" width="255.156" height="68.1563" rx="9.57817" fill="white" stroke="#5655D7" stroke-width="0.843658"/>
</mask>
<g mask="url(#mask0_310_14155)">
<path d="M253.038 41.2891L261.999 49.5902C264.435 51.8466 265.846 55.2121 265.846 58.7639V67.1214C265.846 73.6818 261.124 79 255.298 79H0.317125C-3.97434 79 -7.838 76.0721 -9.45425 71.5952L-15.3352 55.3054C-15.8482 53.8846 -16.1119 52.3653 -16.1119 50.8316V38.4696C-16.1119 35.8537 -15.3451 33.3109 -13.9306 31.2359L-9.1504 24.2243C-7.62114 21.9811 -5.43137 20.426 -2.97489 19.8385L7.22961 17.3981C11.6827 16.3331 16.24 18.6055 18.533 23.0342L28.3811 42.0545C31.6837 48.433 39.2987 49.909 44.3049 45.1409L68.0338 22.5406C72.7038 18.0927 79.7434 19.0358 83.3564 24.5935L96.5886 44.9477C100.515 50.9876 108.364 51.4816 112.863 45.9719L141.689 10.6759C146.136 5.2315 153.941 5.9378 157.558 12.1119L167.722 27.6949C170.358 31.7379 174.966 33.4797 179.235 32.047L191.402 27.964C195.514 26.5838 199.96 28.147 202.644 31.9174L209.207 41.136C211.751 44.7086 215.891 46.3166 219.849 45.2693L243.924 38.8992C247.127 38.0518 250.497 38.9356 253.038 41.2891Z" fill="#4ABDE8" fill-opacity="0.08" stroke="#4ABDE8" stroke-width="5.06195" stroke-linecap="round"/>
<path d="M265.846 53L253.02 41.1747C250.476 38.829 247.101 37.9482 243.894 38.7927L219.785 45.1416C215.822 46.1855 211.675 44.5828 209.128 41.0222L202.556 31.8343C199.868 28.0765 195.416 26.5185 191.298 27.8941L179.115 31.9635C174.84 33.3914 170.225 31.6554 167.585 27.6258L157.407 12.0949C153.785 5.94134 145.969 5.2374 141.516 10.6636L112.65 45.8419C108.144 51.3332 100.285 50.8409 96.3527 44.8211L83.1021 24.5348C79.484 18.9957 72.4347 18.0557 67.7581 22.4888L43.9961 45.0137C38.983 49.7658 31.3573 48.2947 28.0502 41.9376L18.1884 22.9807C15.8921 18.5668 11.3284 16.302 6.8692 17.3634L-7.16089 20.7029" stroke="#4ABDE8" stroke-width="5.06195" stroke-linecap="round"/>
</g>
</svg>
