<svg width="49" height="22" viewBox="0 0 49 22" fill="none" xmlns="http://www.w3.org/2000/svg">
<rect y="0.910889" width="49" height="21" rx="10.5" fill="#4ABDE8" fill-opacity="0.16"/>
<path d="M20.1875 7.75464V11.0046C20.1875 11.1124 20.1447 11.2157 20.0685 11.2919C19.9923 11.3681 19.889 11.4109 19.7812 11.4109C19.6735 11.4109 19.5702 11.3681 19.494 11.2919C19.4178 11.2157 19.375 11.1124 19.375 11.0046V8.73522L15.1937 12.9171C15.1559 12.9548 15.1111 12.9848 15.0618 13.0052C15.0125 13.0257 14.9596 13.0362 14.9062 13.0362C14.8528 13.0362 14.8 13.0257 14.7507 13.0052C14.7013 12.9848 14.6565 12.9548 14.6188 12.9171L12.875 11.1727L9.50615 14.5421C9.42992 14.6183 9.32654 14.6611 9.21873 14.6611C9.11093 14.6611 9.00754 14.6183 8.93131 14.5421C8.85508 14.4658 8.81226 14.3624 8.81226 14.2546C8.81226 14.1468 8.85508 14.0434 8.93131 13.9672L12.5876 10.311C12.6253 10.2732 12.6701 10.2432 12.7194 10.2228C12.7687 10.2023 12.8216 10.1918 12.875 10.1918C12.9284 10.1918 12.9812 10.2023 13.0306 10.2228C13.0799 10.2432 13.1247 10.2732 13.1624 10.311L14.9062 12.0553L18.8006 8.16089H16.5312C16.4235 8.16089 16.3202 8.11809 16.244 8.0419C16.1678 7.96571 16.125 7.86238 16.125 7.75464C16.125 7.64689 16.1678 7.54356 16.244 7.46738C16.3202 7.39119 16.4235 7.34839 16.5312 7.34839H19.7812C19.889 7.34839 19.9923 7.39119 20.0685 7.46738C20.1447 7.54356 20.1875 7.64689 20.1875 7.75464Z" fill="#4ABDE8"/>
<path d="M29.036 15.0429C28.618 15.0429 28.2367 14.9806 27.892 14.8559C27.5473 14.7312 27.2577 14.5552 27.023 14.3279C26.7883 14.1006 26.6197 13.8439 26.517 13.5579L27.661 13.1289C27.7197 13.2316 27.8003 13.3452 27.903 13.4699C28.0057 13.5946 28.1413 13.7046 28.31 13.7999C28.4787 13.8879 28.695 13.9319 28.959 13.9319C29.377 13.9319 29.707 13.8146 29.949 13.5799C30.1983 13.3379 30.323 13.0336 30.323 12.6669C30.323 12.4029 30.2533 12.1756 30.114 11.9849C29.982 11.7942 29.773 11.6476 29.487 11.5449C29.2083 11.4422 28.8563 11.3909 28.431 11.3909H28.079V10.4889H28.398C28.8453 10.4889 29.2597 10.5402 29.641 10.6429C30.0297 10.7456 30.3707 10.8996 30.664 11.1049C30.9647 11.3029 31.1957 11.5449 31.357 11.8309C31.5257 12.1169 31.61 12.4396 31.61 12.7989C31.61 13.2609 31.489 13.6606 31.247 13.9979C31.0123 14.3352 30.7007 14.5956 30.312 14.7789C29.9233 14.9549 29.498 15.0429 29.036 15.0429ZM28.079 11.1929V10.3349H28.431C28.9957 10.3349 29.4247 10.2396 29.718 10.0489C30.0113 9.85822 30.158 9.59055 30.158 9.24589C30.158 9.04789 30.1067 8.87189 30.004 8.71789C29.9087 8.55655 29.7693 8.42822 29.586 8.33289C29.4027 8.23756 29.1863 8.18989 28.937 8.18989C28.7757 8.18989 28.618 8.21556 28.464 8.26689C28.31 8.31822 28.167 8.39889 28.035 8.50889C27.903 8.61889 27.793 8.76189 27.705 8.93789L26.594 8.53089C26.704 8.22289 26.88 7.96255 27.122 7.74989C27.364 7.52989 27.6463 7.36489 27.969 7.25489C28.2917 7.13756 28.629 7.07889 28.981 7.07889C29.4503 7.07889 29.8683 7.16689 30.235 7.34289C30.609 7.51889 30.9023 7.76455 31.115 8.07989C31.335 8.38789 31.445 8.74355 31.445 9.14689C31.445 9.48422 31.3607 9.78122 31.192 10.0379C31.0307 10.2946 30.807 10.5109 30.521 10.6869C30.235 10.8556 29.9087 10.9839 29.542 11.0719C29.1827 11.1526 28.7977 11.1929 28.387 11.1929H28.079ZM33.0816 14.9109L38.5486 7.21089H39.8246L34.3246 14.9109H33.0816ZM38.6476 15.0869C38.3029 15.0869 37.9986 15.0062 37.7346 14.8449C37.4706 14.6836 37.2616 14.4599 37.1076 14.1739C36.9609 13.8879 36.8876 13.5652 36.8876 13.2059C36.8876 12.8392 36.9609 12.5166 37.1076 12.2379C37.2543 11.9592 37.4596 11.7392 37.7236 11.5779C37.9949 11.4166 38.3029 11.3359 38.6476 11.3359C38.9923 11.3359 39.2966 11.4166 39.5606 11.5779C39.8246 11.7392 40.0299 11.9592 40.1766 12.2379C40.3306 12.5166 40.4076 12.8392 40.4076 13.2059C40.4076 13.5652 40.3306 13.8879 40.1766 14.1739C40.0299 14.4599 39.8246 14.6836 39.5606 14.8449C39.2966 15.0062 38.9923 15.0869 38.6476 15.0869ZM38.6476 14.2179C38.8896 14.2179 39.0876 14.1226 39.2416 13.9319C39.3956 13.7412 39.4726 13.4992 39.4726 13.2059C39.4726 12.9199 39.3956 12.6816 39.2416 12.4909C39.0876 12.2929 38.8896 12.1939 38.6476 12.1939C38.4056 12.1939 38.2039 12.2929 38.0426 12.4909C37.8886 12.6816 37.8116 12.9199 37.8116 13.2059C37.8116 13.4992 37.8886 13.7412 38.0426 13.9319C38.2039 14.1226 38.4056 14.2179 38.6476 14.2179ZM34.2916 10.7859C33.9543 10.7859 33.6499 10.7052 33.3786 10.5439C33.1146 10.3826 32.9093 10.1589 32.7626 9.87289C32.6159 9.58689 32.5426 9.26422 32.5426 8.90489C32.5426 8.53822 32.6159 8.21556 32.7626 7.93689C32.9093 7.65822 33.1146 7.43822 33.3786 7.27689C33.6499 7.11556 33.9579 7.03489 34.3026 7.03489C34.6473 7.03489 34.9516 7.11556 35.2156 7.27689C35.4796 7.43822 35.6849 7.65822 35.8316 7.93689C35.9783 8.21556 36.0516 8.53822 36.0516 8.90489C36.0516 9.26422 35.9783 9.58689 35.8316 9.87289C35.6849 10.1589 35.4759 10.3826 35.2046 10.5439C34.9406 10.7052 34.6363 10.7859 34.2916 10.7859ZM34.2916 9.91689C34.5409 9.91689 34.7426 9.82156 34.8966 9.63089C35.0506 9.44022 35.1276 9.19822 35.1276 8.90489C35.1276 8.61889 35.0506 8.38056 34.8966 8.18989C34.7426 7.99922 34.5409 7.90389 34.2916 7.90389C34.0496 7.90389 33.8516 7.99922 33.6976 8.18989C33.5436 8.38056 33.4666 8.61889 33.4666 8.90489C33.4666 9.19822 33.5436 9.44022 33.6976 9.63089C33.8516 9.82156 34.0496 9.91689 34.2916 9.91689Z" fill="#4ABDE8"/>
</svg>
