<svg width="28" height="35" viewBox="0 0 28 35" fill="none" xmlns="http://www.w3.org/2000/svg">
<path d="M20.25 21.75C20.25 22.0815 20.1183 22.3995 19.8839 22.6339C19.6495 22.8683 19.3315 23 19 23H9C8.66848 23 8.35054 22.8683 8.11612 22.6339C7.8817 22.3995 7.75 22.0815 7.75 21.75C7.75 21.4185 7.8817 21.1006 8.11612 20.8661C8.35054 20.6317 8.66848 20.5 9 20.5H19C19.3315 20.5 19.6495 20.6317 19.8839 20.8661C20.1183 21.1006 20.25 21.4185 20.25 21.75ZM19 15.5H9C8.66848 15.5 8.35054 15.6317 8.11612 15.8661C7.8817 16.1006 7.75 16.4185 7.75 16.75C7.75 17.0815 7.8817 17.3995 8.11612 17.6339C8.35054 17.8683 8.66848 18 9 18H19C19.3315 18 19.6495 17.8683 19.8839 17.6339C20.1183 17.3995 20.25 17.0815 20.25 16.75C20.25 16.4185 20.1183 16.1006 19.8839 15.8661C19.6495 15.6317 19.3315 15.5 19 15.5ZM27.75 5.50002V31.75C27.75 32.4131 27.4866 33.0489 27.0178 33.5178C26.5489 33.9866 25.913 34.25 25.25 34.25H2.75C2.08696 34.25 1.45107 33.9866 0.982233 33.5178C0.513392 33.0489 0.25 32.4131 0.25 31.75V5.50002C0.25 4.83698 0.513392 4.20109 0.982233 3.73225C1.45107 3.26341 2.08696 3.00002 2.75 3.00002H8.41563C9.11798 2.21365 9.97849 1.58448 10.9408 1.1537C11.9032 0.722923 12.9456 0.500244 14 0.500244C15.0544 0.500244 16.0968 0.722923 17.0592 1.1537C18.0215 1.58448 18.882 2.21365 19.5844 3.00002H25.25C25.913 3.00002 26.5489 3.26341 27.0178 3.73225C27.4866 4.20109 27.75 4.83698 27.75 5.50002ZM9 8.00002H19C19 6.67393 18.4732 5.40217 17.5355 4.46448C16.5979 3.5268 15.3261 3.00002 14 3.00002C12.6739 3.00002 11.4021 3.5268 10.4645 4.46448C9.52678 5.40217 9 6.67393 9 8.00002ZM25.25 5.50002H21.0703C21.3547 6.30286 21.5 7.14831 21.5 8.00002V9.25002C21.5 9.58154 21.3683 9.89948 21.1339 10.1339C20.8995 10.3683 20.5815 10.5 20.25 10.5H7.75C7.41848 10.5 7.10054 10.3683 6.86612 10.1339C6.6317 9.89948 6.5 9.58154 6.5 9.25002V8.00002C6.50003 7.14831 6.64534 6.30286 6.92969 5.50002H2.75V31.75H25.25V5.50002Z" fill="#5655D7"/>
</svg>
