<svg width="50" height="22" viewBox="0 0 50 22" fill="none" xmlns="http://www.w3.org/2000/svg">
<rect y="0.910889" width="50" height="21" rx="10.5" fill="#FF414B" fill-opacity="0.16"/>
<path d="M20.1875 11.8171V15.0671C20.1875 15.1749 20.1447 15.2782 20.0685 15.3544C19.9923 15.4306 19.889 15.4734 19.7812 15.4734H16.5312C16.4235 15.4734 16.3202 15.4306 16.244 15.3544C16.1678 15.2782 16.125 15.1749 16.125 15.0671C16.125 14.9594 16.1678 14.856 16.244 14.7799C16.3202 14.7037 16.4235 14.6609 16.5312 14.6609H18.8006L14.9062 10.7665L13.1624 12.5108C13.1247 12.5486 13.0799 12.5785 13.0306 12.599C12.9812 12.6194 12.9284 12.6299 12.875 12.6299C12.8216 12.6299 12.7687 12.6194 12.7194 12.599C12.6701 12.5785 12.6253 12.5486 12.5876 12.5108L8.93131 8.85454C8.85508 8.77831 8.81226 8.67492 8.81226 8.56712C8.81226 8.45932 8.85508 8.35593 8.93131 8.2797C9.00754 8.20347 9.11093 8.16064 9.21873 8.16064C9.32654 8.16064 9.42992 8.20347 9.50615 8.2797L12.875 11.649L14.6188 9.9047C14.6565 9.86693 14.7013 9.83696 14.7507 9.81652C14.8 9.79607 14.8528 9.78555 14.9062 9.78555C14.9596 9.78555 15.0125 9.79607 15.0618 9.81652C15.1111 9.83696 15.1559 9.86693 15.1937 9.9047L19.375 14.0865V11.8171C19.375 11.7094 19.4178 11.606 19.494 11.5299C19.5702 11.4537 19.6735 11.4109 19.7812 11.4109C19.889 11.4109 19.9923 11.4537 20.0685 11.5299C20.1447 11.606 20.1875 11.7094 20.1875 11.8171Z" fill="#FF414B"/>
<path d="M29.212 15.0429C28.8747 15.0429 28.53 14.9916 28.178 14.8889C27.8333 14.7789 27.5143 14.6176 27.221 14.4049C26.9277 14.1849 26.704 13.9099 26.55 13.5799L27.683 13.1619C27.8737 13.4332 28.0973 13.6312 28.354 13.7559C28.6107 13.8732 28.8747 13.9319 29.146 13.9319C29.5787 13.9319 29.9307 13.8036 30.202 13.5469C30.4733 13.2829 30.609 12.9346 30.609 12.5019C30.609 12.0839 30.477 11.7392 30.213 11.4679C29.949 11.1966 29.6043 11.0609 29.179 11.0609C28.9297 11.0609 28.695 11.1159 28.475 11.2259C28.2623 11.3359 28.0973 11.4679 27.98 11.6219L26.825 11.3689L27.254 7.21089H31.511V8.36589H27.408L27.254 7.25489H28.519L27.991 11.4679L27.21 11.3689C27.298 11.2222 27.4117 11.0756 27.551 10.9289C27.6977 10.7749 27.8737 10.6319 28.079 10.4999C28.2843 10.3679 28.5117 10.2616 28.761 10.1809C29.0103 10.1002 29.2817 10.0636 29.575 10.0709C30.015 10.0709 30.411 10.1736 30.763 10.3789C31.115 10.5842 31.3937 10.8666 31.599 11.2259C31.8043 11.5779 31.907 11.9849 31.907 12.4469C31.907 12.9602 31.7897 13.4112 31.555 13.7999C31.3277 14.1886 31.0123 14.4929 30.609 14.7129C30.2057 14.9329 29.74 15.0429 29.212 15.0429ZM33.3824 14.9109L38.8494 7.21089H40.1254L34.6254 14.9109H33.3824ZM38.9484 15.0869C38.6037 15.0869 38.2994 15.0062 38.0354 14.8449C37.7714 14.6836 37.5624 14.4599 37.4084 14.1739C37.2617 13.8879 37.1884 13.5652 37.1884 13.2059C37.1884 12.8392 37.2617 12.5166 37.4084 12.2379C37.555 11.9592 37.7604 11.7392 38.0244 11.5779C38.2957 11.4166 38.6037 11.3359 38.9484 11.3359C39.293 11.3359 39.5974 11.4166 39.8614 11.5779C40.1254 11.7392 40.3307 11.9592 40.4774 12.2379C40.6314 12.5166 40.7084 12.8392 40.7084 13.2059C40.7084 13.5652 40.6314 13.8879 40.4774 14.1739C40.3307 14.4599 40.1254 14.6836 39.8614 14.8449C39.5974 15.0062 39.293 15.0869 38.9484 15.0869ZM38.9484 14.2179C39.1904 14.2179 39.3884 14.1226 39.5424 13.9319C39.6964 13.7412 39.7734 13.4992 39.7734 13.2059C39.7734 12.9199 39.6964 12.6816 39.5424 12.4909C39.3884 12.2929 39.1904 12.1939 38.9484 12.1939C38.7064 12.1939 38.5047 12.2929 38.3434 12.4909C38.1894 12.6816 38.1124 12.9199 38.1124 13.2059C38.1124 13.4992 38.1894 13.7412 38.3434 13.9319C38.5047 14.1226 38.7064 14.2179 38.9484 14.2179ZM34.5924 10.7859C34.255 10.7859 33.9507 10.7052 33.6794 10.5439C33.4154 10.3826 33.21 10.1589 33.0634 9.87289C32.9167 9.58689 32.8434 9.26422 32.8434 8.90489C32.8434 8.53822 32.9167 8.21556 33.0634 7.93689C33.21 7.65822 33.4154 7.43822 33.6794 7.27689C33.9507 7.11556 34.2587 7.03489 34.6034 7.03489C34.948 7.03489 35.2524 7.11556 35.5164 7.27689C35.7804 7.43822 35.9857 7.65822 36.1324 7.93689C36.279 8.21556 36.3524 8.53822 36.3524 8.90489C36.3524 9.26422 36.279 9.58689 36.1324 9.87289C35.9857 10.1589 35.7767 10.3826 35.5054 10.5439C35.2414 10.7052 34.937 10.7859 34.5924 10.7859ZM34.5924 9.91689C34.8417 9.91689 35.0434 9.82156 35.1974 9.63089C35.3514 9.44022 35.4284 9.19822 35.4284 8.90489C35.4284 8.61889 35.3514 8.38056 35.1974 8.18989C35.0434 7.99922 34.8417 7.90389 34.5924 7.90389C34.3504 7.90389 34.1524 7.99922 33.9984 8.18989C33.8444 8.38056 33.7674 8.61889 33.7674 8.90489C33.7674 9.19822 33.8444 9.44022 33.9984 9.63089C34.1524 9.82156 34.3504 9.91689 34.5924 9.91689Z" fill="#FF414B"/>
</svg>
