<svg width="256" height="70" viewBox="0 0 256 70" fill="none" xmlns="http://www.w3.org/2000/svg">
<mask id="mask0_310_14264" style="mask-type:alpha" maskUnits="userSpaceOnUse" x="0" y="0" width="256" height="70">
<rect x="0.421829" y="1.24361" width="255.156" height="68.1563" rx="9.57817" fill="white" stroke="#5655D7" stroke-width="0.843658"/>
</mask>
<g mask="url(#mask0_310_14264)">
<path d="M243.995 45.9947L253.945 58.2328C255.274 59.8677 256 61.9113 256 64.0194V84.3341C256 89.3963 251.901 93.5 246.846 93.5H2.89754C-1.2322 93.5 -4.8506 90.7316 -5.93542 86.7419L-12.6785 61.9427C-12.8919 61.1579 -13 60.3482 -13 59.5349V39.2675C-13 37.8098 -12.6528 36.3731 -11.9871 35.0767L-5.83998 23.1048C-4.72493 20.9332 -2.79049 19.2968 -0.465819 18.5586L8.21177 15.8032C12.8106 14.343 17.7519 16.7069 19.5066 21.2066L29.6847 47.3067C32.2555 53.8993 41.0016 55.2114 45.3894 49.6627L66.5118 22.9514C70.6907 17.6668 78.9455 18.5541 81.9089 24.6064L94.4482 50.2163C97.6212 56.6967 106.683 57.1335 110.463 50.9882L137.085 7.70765C140.816 1.64136 149.813 2.25474 152.689 8.77148L162.691 29.1342C164.862 33.554 170.134 35.4656 174.628 33.4631L183.7 29.4206C188.079 27.4693 193.22 29.2306 195.488 33.459L202.231 46.0343C204.364 50.0122 209.072 51.8424 213.327 50.3475L233.864 43.1325C237.506 41.853 241.558 42.9979 243.995 45.9947Z" fill="#FF414B" fill-opacity="0.08"/>
<path d="M256 63.5L244.081 48.3046C241.646 45.2 237.505 44.0133 233.807 45.36L213.664 52.6953C209.362 54.2619 204.57 52.3838 202.459 48.3035L195.748 35.3299C193.503 30.9901 188.264 29.185 183.842 31.2275L175.135 35.2491C170.6 37.3435 165.233 35.388 163.087 30.8596L153.125 9.83857C150.31 3.22687 141.221 2.61628 137.556 8.79268L111.159 53.2747C107.423 59.5718 98.2085 59.1338 95.0798 52.5103L82.684 26.2682C79.7582 20.0742 71.351 19.1799 67.1999 24.6212L46.3945 51.893C42.0423 57.5979 33.1482 56.2806 30.6184 49.5564L20.4836 22.6173C18.7578 18.03 13.7463 15.6192 9.1089 17.1455L-3 21.131" stroke="#FF414B" stroke-width="4" stroke-linecap="round"/>
</g>
</svg>
