<svg width="36" height="36" viewBox="0 0 36 36" fill="none" xmlns="http://www.w3.org/2000/svg">
<path d="M34.5188 1.4813C34.2044 1.16713 33.812 0.942447 33.3819 0.830394C32.9518 0.71834 32.4996 0.722968 32.0719 0.843799H32.0484L2.05782 9.9438C1.56963 10.0842 1.13579 10.37 0.814071 10.7631C0.492352 11.1562 0.298024 11.638 0.256962 12.1443C0.2159 12.6507 0.330053 13.1575 0.58422 13.5973C0.838387 14.0371 1.22051 14.3891 1.6797 14.6063L15.0578 20.9422L21.3938 34.3204C21.5938 34.7488 21.9122 35.111 22.3115 35.3644C22.7107 35.6177 23.1741 35.7515 23.6469 35.75C23.7188 35.75 23.7906 35.7469 23.8625 35.7407C24.367 35.6998 24.847 35.5056 25.238 35.1842C25.629 34.8627 25.9124 34.4293 26.05 33.9422L35.1438 3.95161C35.1438 3.9438 35.1438 3.93599 35.1438 3.92817C35.2662 3.50155 35.2728 3.05004 35.1629 2.62002C35.0531 2.18999 34.8308 1.79696 34.5188 1.4813ZM23.6609 33.2266L23.6531 33.2485L17.5031 20.2657L24.8844 12.8829C25.1089 12.6465 25.2322 12.3318 25.2281 12.0059C25.2239 11.6799 25.0926 11.3685 24.862 11.138C24.6315 10.9075 24.3201 10.7762 23.9942 10.772C23.6682 10.7678 23.3535 10.8911 23.1172 11.1157L15.7344 18.4969L2.75001 12.3469H2.77189L32.75 3.25005L23.6609 33.2266Z" fill="#4ABDE8"/>
</svg>
