<svg width="780" height="243" viewBox="0 0 780 243" fill="none" xmlns="http://www.w3.org/2000/svg">
<path d="M0.72998 219.302H711.345" stroke="#DCDCDC" stroke-width="0.743321"/>
<path d="M0.72998 168.756H711.344" stroke="#DCDCDC" stroke-width="0.743321"/>
<path d="M0.72998 118.21H711.344" stroke="#DCDCDC" stroke-width="0.743321"/>
<path d="M0.72998 63.9477H711.344" stroke="#DCDCDC" stroke-width="0.743321"/>
<path d="M0.72998 13.4019H711.344" stroke="#DCDCDC" stroke-width="0.743321"/>
<path d="M117.224 13.4019V219.302" stroke="#DCDCDC" stroke-width="0.743321"/>
<path d="M232.054 13.4019V219.302" stroke="#DCDCDC" stroke-width="0.743321"/>
<path d="M349.38 13.4019V219.302" stroke="#DCDCDC" stroke-width="0.743321"/>
<path d="M465.042 13.4019V219.302" stroke="#DCDCDC" stroke-width="0.743321"/>
<path d="M579.873 13.4019V219.302" stroke="#DCDCDC" stroke-width="0.743321"/>
<rect x="731.556" y="76.9558" width="47.5725" height="24.5296" rx="7.06155" fill="#5655D7" stroke="#5655D7" stroke-width="0.743321"/>
<line x1="6.44678" y1="89.2205" x2="731.184" y2="89.2205" stroke="#A6A8A9" stroke-width="1.48664"/>
<path d="M8.0776 88.8449L8.12707 89.4419L8.0776 90.0389L7.93054 90.6196L7.68991 91.1682L7.36226 91.6697L6.95654 92.1104L6.48382 92.4784L5.95698 92.7635L5.39039 92.958L4.79952 93.0566L4.20048 93.0566L3.60961 92.958L3.04302 92.7635L2.51618 92.4784L2.04345 92.1104L1.63774 91.6697L1.31009 91.1682L1.06946 90.6196L0.922402 90.0389L0.872934 89.4419L0.922402 88.8449L1.06946 88.2642L1.31009 87.7156L1.63774 87.2141L2.04346 86.7734L2.51618 86.4054L3.04302 86.1203L3.60961 85.9258L4.20048 85.8272L4.79952 85.8272L5.39039 85.9258L5.95698 86.1203L6.48382 86.4054L6.95654 86.7734L7.36226 87.2141L7.68991 87.7156L7.93054 88.2642L8.0776 88.8449Z" fill="#5655D7" stroke="white" stroke-width="0.743321"/>
<path d="M741.967 21.4286L741.978 14.2236L742.055 13.7286H742.891L742.869 21.4286H741.967ZM740.251 15.7086V14.8616C740.405 14.8689 740.588 14.8176 740.801 14.7076C741.013 14.5976 741.233 14.4546 741.461 14.2786C741.688 14.1026 741.886 13.9193 742.055 13.7286L742.627 14.3556C742.385 14.6123 742.132 14.8433 741.868 15.0486C741.604 15.2539 741.336 15.4189 741.065 15.5436C740.793 15.6609 740.522 15.7159 740.251 15.7086ZM745.279 21.5826C745.11 21.5826 744.963 21.5239 744.839 21.4066C744.721 21.2819 744.663 21.1389 744.663 20.9776C744.663 20.8089 744.721 20.6659 744.839 20.5486C744.963 20.4239 745.11 20.3616 745.279 20.3616C745.447 20.3616 745.59 20.4239 745.708 20.5486C745.825 20.6659 745.884 20.8089 745.884 20.9776C745.884 21.1389 745.825 21.2819 745.708 21.4066C745.59 21.5239 745.447 21.5826 745.279 21.5826ZM749.613 21.5606C749.305 21.5606 748.989 21.5166 748.667 21.4286C748.351 21.3333 748.051 21.1903 747.765 20.9996C747.486 20.8089 747.255 20.5633 747.072 20.2626L747.82 19.8336C748.076 20.1563 748.355 20.3909 748.656 20.5376C748.956 20.6843 749.268 20.7576 749.591 20.7576C750.097 20.7576 750.507 20.6036 750.823 20.2956C751.145 19.9803 751.307 19.5696 751.307 19.0636C751.307 18.5649 751.153 18.1579 750.845 17.8426C750.537 17.5273 750.133 17.3696 749.635 17.3696C749.363 17.3696 749.096 17.4319 748.832 17.5566C748.568 17.6739 748.362 17.8206 748.216 17.9966L747.38 17.7986L747.754 13.7286H751.857V14.5646H747.809L747.754 13.7616H748.678L748.249 17.8426L747.534 17.7986C747.636 17.6373 747.765 17.4869 747.919 17.3476C748.073 17.2083 748.249 17.0836 748.447 16.9736C748.652 16.8563 748.868 16.7646 749.096 16.6986C749.323 16.6326 749.554 16.6033 749.789 16.6106C750.258 16.6106 750.676 16.7133 751.043 16.9186C751.409 17.1239 751.699 17.4099 751.912 17.7766C752.124 18.1433 752.231 18.5649 752.231 19.0416C752.231 19.5403 752.117 19.9803 751.89 20.3616C751.67 20.7356 751.362 21.0289 750.966 21.2416C750.577 21.4543 750.126 21.5606 749.613 21.5606ZM756.27 21.5606C755.683 21.5606 755.162 21.3919 754.708 21.0546C754.253 20.7099 753.897 20.2406 753.641 19.6466C753.384 19.0453 753.256 18.3559 753.256 17.5786C753.256 16.8013 753.384 16.1156 753.641 15.5216C753.897 14.9203 754.249 14.4509 754.697 14.1136C755.151 13.7689 755.676 13.5966 756.27 13.5966C756.864 13.5966 757.384 13.7689 757.832 14.1136C758.286 14.4509 758.642 14.9203 758.899 15.5216C759.163 16.1156 759.295 16.8013 759.295 17.5786C759.295 18.3559 759.166 19.0453 758.91 19.6466C758.653 20.2406 758.297 20.7099 757.843 21.0546C757.388 21.3919 756.864 21.5606 756.27 21.5606ZM756.27 20.7246C756.68 20.7246 757.043 20.5889 757.359 20.3176C757.681 20.0463 757.931 19.6759 758.107 19.2066C758.29 18.7373 758.382 18.1946 758.382 17.5786C758.382 16.9626 758.29 16.4199 758.107 15.9506C757.931 15.4739 757.681 15.1036 757.359 14.8396C757.043 14.5683 756.68 14.4326 756.27 14.4326C755.859 14.4326 755.496 14.5683 755.181 14.8396C754.865 15.1036 754.616 15.4739 754.433 15.9506C754.257 16.4199 754.169 16.9626 754.169 17.5786C754.169 18.1946 754.257 18.7373 754.433 19.2066C754.616 19.6759 754.865 20.0463 755.181 20.3176C755.503 20.5889 755.866 20.7246 756.27 20.7246ZM763.317 21.5606C762.73 21.5606 762.209 21.3919 761.755 21.0546C761.3 20.7099 760.944 20.2406 760.688 19.6466C760.431 19.0453 760.303 18.3559 760.303 17.5786C760.303 16.8013 760.431 16.1156 760.688 15.5216C760.944 14.9203 761.296 14.4509 761.744 14.1136C762.198 13.7689 762.723 13.5966 763.317 13.5966C763.911 13.5966 764.431 13.7689 764.879 14.1136C765.333 14.4509 765.689 14.9203 765.946 15.5216C766.21 16.1156 766.342 16.8013 766.342 17.5786C766.342 18.3559 766.213 19.0453 765.957 19.6466C765.7 20.2406 765.344 20.7099 764.89 21.0546C764.435 21.3919 763.911 21.5606 763.317 21.5606ZM763.317 20.7246C763.727 20.7246 764.09 20.5889 764.406 20.3176C764.728 20.0463 764.978 19.6759 765.154 19.2066C765.337 18.7373 765.429 18.1946 765.429 17.5786C765.429 16.9626 765.337 16.4199 765.154 15.9506C764.978 15.4739 764.728 15.1036 764.406 14.8396C764.09 14.5683 763.727 14.4326 763.317 14.4326C762.906 14.4326 762.543 14.5683 762.228 14.8396C761.912 15.1036 761.663 15.4739 761.48 15.9506C761.304 16.4199 761.216 16.9626 761.216 17.5786C761.216 18.1946 761.304 18.7373 761.48 19.2066C761.663 19.6759 761.912 20.0463 762.228 20.3176C762.55 20.5889 762.913 20.7246 763.317 20.7246Z" fill="#7A7C7F"/>
<path d="M741.967 45.0918L741.978 37.8868L742.055 37.3918H742.891L742.869 45.0918H741.967ZM740.251 39.3718V38.5248C740.405 38.5321 740.588 38.4808 740.801 38.3708C741.013 38.2608 741.233 38.1178 741.461 37.9418C741.688 37.7658 741.886 37.5825 742.055 37.3918L742.627 38.0188C742.385 38.2755 742.132 38.5065 741.868 38.7118C741.604 38.9171 741.336 39.0821 741.065 39.2068C740.793 39.3241 740.522 39.3791 740.251 39.3718ZM745.279 45.2458C745.11 45.2458 744.963 45.1871 744.839 45.0698C744.721 44.9451 744.663 44.8021 744.663 44.6408C744.663 44.4721 744.721 44.3291 744.839 44.2118C744.963 44.0871 745.11 44.0248 745.279 44.0248C745.447 44.0248 745.59 44.0871 745.708 44.2118C745.825 44.3291 745.884 44.4721 745.884 44.6408C745.884 44.8021 745.825 44.9451 745.708 45.0698C745.59 45.1871 745.447 45.2458 745.279 45.2458ZM747.589 42.9358L746.896 42.5068L750.405 37.3918L751.01 37.9198L747.589 42.9358ZM746.896 43.2218V42.5068L747.49 42.3968H752.924V43.2218H746.896ZM750.449 45.0918V37.9858L750.405 37.3918H751.351V45.0918H750.449ZM756.445 45.2238C756.137 45.2238 755.821 45.1798 755.499 45.0918C755.183 44.9965 754.883 44.8535 754.597 44.6628C754.318 44.4721 754.087 44.2265 753.904 43.9258L754.652 43.4968C754.908 43.8195 755.187 44.0541 755.488 44.2008C755.788 44.3475 756.1 44.4208 756.423 44.4208C756.929 44.4208 757.339 44.2668 757.655 43.9588C757.977 43.6435 758.139 43.2328 758.139 42.7268C758.139 42.2281 757.985 41.8211 757.677 41.5058C757.369 41.1905 756.965 41.0328 756.467 41.0328C756.195 41.0328 755.928 41.0951 755.664 41.2198C755.4 41.3371 755.194 41.4838 755.048 41.6598L754.212 41.4618L754.586 37.3918H758.689V38.2278H754.641L754.586 37.4248H755.51L755.081 41.5058L754.366 41.4618C754.468 41.3005 754.597 41.1501 754.751 41.0108C754.905 40.8715 755.081 40.7468 755.279 40.6368C755.484 40.5195 755.7 40.4278 755.928 40.3618C756.155 40.2958 756.386 40.2665 756.621 40.2738C757.09 40.2738 757.508 40.3765 757.875 40.5818C758.241 40.7871 758.531 41.0731 758.744 41.4398C758.956 41.8065 759.063 42.2281 759.063 42.7048C759.063 43.2035 758.949 43.6435 758.722 44.0248C758.502 44.3988 758.194 44.6921 757.798 44.9048C757.409 45.1175 756.958 45.2238 756.445 45.2238ZM763.102 45.2238C762.515 45.2238 761.994 45.0551 761.54 44.7178C761.085 44.3731 760.729 43.9038 760.473 43.3098C760.216 42.7085 760.088 42.0191 760.088 41.2418C760.088 40.4645 760.216 39.7788 760.473 39.1848C760.729 38.5835 761.081 38.1141 761.529 37.7768C761.983 37.4321 762.508 37.2598 763.102 37.2598C763.696 37.2598 764.216 37.4321 764.664 37.7768C765.118 38.1141 765.474 38.5835 765.731 39.1848C765.995 39.7788 766.127 40.4645 766.127 41.2418C766.127 42.0191 765.998 42.7085 765.742 43.3098C765.485 43.9038 765.129 44.3731 764.675 44.7178C764.22 45.0551 763.696 45.2238 763.102 45.2238ZM763.102 44.3878C763.512 44.3878 763.875 44.2521 764.191 43.9808C764.513 43.7095 764.763 43.3391 764.939 42.8698C765.122 42.4005 765.214 41.8578 765.214 41.2418C765.214 40.6258 765.122 40.0831 764.939 39.6138C764.763 39.1371 764.513 38.7668 764.191 38.5028C763.875 38.2315 763.512 38.0958 763.102 38.0958C762.691 38.0958 762.328 38.2315 762.013 38.5028C761.697 38.7668 761.448 39.1371 761.265 39.6138C761.089 40.0831 761.001 40.6258 761.001 41.2418C761.001 41.8578 761.089 42.4005 761.265 42.8698C761.448 43.3391 761.697 43.7095 762.013 43.9808C762.335 44.2521 762.698 44.3878 763.102 44.3878Z" fill="#7A7C7F"/>
<path d="M741.967 68.7549L741.978 61.5499L742.055 61.0549H742.891L742.869 68.7549H741.967ZM740.251 63.0349V62.1879C740.405 62.1953 740.588 62.1439 740.801 62.0339C741.013 61.9239 741.233 61.7809 741.461 61.6049C741.688 61.4289 741.886 61.2456 742.055 61.0549L742.627 61.6819C742.385 61.9386 742.132 62.1696 741.868 62.3749C741.604 62.5803 741.336 62.7453 741.065 62.8699C740.793 62.9873 740.522 63.0423 740.251 63.0349ZM745.279 68.9089C745.11 68.9089 744.963 68.8503 744.839 68.7329C744.721 68.6083 744.663 68.4653 744.663 68.3039C744.663 68.1353 744.721 67.9923 744.839 67.8749C744.963 67.7503 745.11 67.6879 745.279 67.6879C745.447 67.6879 745.59 67.7503 745.708 67.8749C745.825 67.9923 745.884 68.1353 745.884 68.3039C745.884 68.4653 745.825 68.6083 745.708 68.7329C745.59 68.8503 745.447 68.9089 745.279 68.9089ZM747.589 66.5989L746.896 66.1699L750.405 61.0549L751.01 61.5829L747.589 66.5989ZM746.896 66.8849V66.1699L747.49 66.0599H752.924V66.8849H746.896ZM750.449 68.7549V61.6489L750.405 61.0549H751.351V68.7549H750.449ZM756.775 68.8869C756.188 68.8869 755.667 68.7183 755.213 68.3809C754.758 68.0363 754.402 67.5669 754.146 66.9729C753.889 66.3716 753.761 65.6823 753.761 64.9049C753.761 64.1276 753.889 63.4419 754.146 62.8479C754.402 62.2466 754.754 61.7773 755.202 61.4399C755.656 61.0953 756.181 60.9229 756.775 60.9229C757.369 60.9229 757.889 61.0953 758.337 61.4399C758.791 61.7773 759.147 62.2466 759.404 62.8479C759.668 63.4419 759.8 64.1276 759.8 64.9049C759.8 65.6823 759.671 66.3716 759.415 66.9729C759.158 67.5669 758.802 68.0363 758.348 68.3809C757.893 68.7183 757.369 68.8869 756.775 68.8869ZM756.775 68.0509C757.185 68.0509 757.548 67.9153 757.864 67.6439C758.186 67.3726 758.436 67.0023 758.612 66.5329C758.795 66.0636 758.887 65.5209 758.887 64.9049C758.887 64.2889 758.795 63.7463 758.612 63.2769C758.436 62.8003 758.186 62.4299 757.864 62.1659C757.548 61.8946 757.185 61.7589 756.775 61.7589C756.364 61.7589 756.001 61.8946 755.686 62.1659C755.37 62.4299 755.121 62.8003 754.938 63.2769C754.762 63.7463 754.674 64.2889 754.674 64.9049C754.674 65.5209 754.762 66.0636 754.938 66.5329C755.121 67.0023 755.37 67.3726 755.686 67.6439C756.008 67.9153 756.371 68.0509 756.775 68.0509ZM763.822 68.8869C763.235 68.8869 762.714 68.7183 762.26 68.3809C761.805 68.0363 761.449 67.5669 761.193 66.9729C760.936 66.3716 760.808 65.6823 760.808 64.9049C760.808 64.1276 760.936 63.4419 761.193 62.8479C761.449 62.2466 761.801 61.7773 762.249 61.4399C762.703 61.0953 763.228 60.9229 763.822 60.9229C764.416 60.9229 764.936 61.0953 765.384 61.4399C765.838 61.7773 766.194 62.2466 766.451 62.8479C766.715 63.4419 766.847 64.1276 766.847 64.9049C766.847 65.6823 766.718 66.3716 766.462 66.9729C766.205 67.5669 765.849 68.0363 765.395 68.3809C764.94 68.7183 764.416 68.8869 763.822 68.8869ZM763.822 68.0509C764.232 68.0509 764.595 67.9153 764.911 67.6439C765.233 67.3726 765.483 67.0023 765.659 66.5329C765.842 66.0636 765.934 65.5209 765.934 64.9049C765.934 64.2889 765.842 63.7463 765.659 63.2769C765.483 62.8003 765.233 62.4299 764.911 62.1659C764.595 61.8946 764.232 61.7589 763.822 61.7589C763.411 61.7589 763.048 61.8946 762.733 62.1659C762.417 62.4299 762.168 62.8003 761.985 63.2769C761.809 63.7463 761.721 64.2889 761.721 64.9049C761.721 65.5209 761.809 66.0636 761.985 66.5329C762.168 67.0023 762.417 67.3726 762.733 67.6439C763.055 67.9153 763.418 68.0509 763.822 68.0509Z" fill="#7A7C7F"/>
<path d="M741.967 92.4181L741.978 85.2131L742.055 84.7181H742.891L742.869 92.4181H741.967ZM740.251 86.6981V85.8511C740.405 85.8584 740.588 85.8071 740.801 85.6971C741.013 85.5871 741.233 85.4441 741.461 85.2681C741.688 85.0921 741.886 84.9088 742.055 84.7181L742.627 85.3451C742.385 85.6018 742.132 85.8328 741.868 86.0381C741.604 86.2434 741.336 86.4084 741.065 86.5331C740.793 86.6504 740.522 86.7054 740.251 86.6981ZM745.279 92.5721C745.11 92.5721 744.963 92.5134 744.839 92.3961C744.721 92.2714 744.663 92.1284 744.663 91.9671C744.663 91.7984 744.721 91.6554 744.839 91.5381C744.963 91.4134 745.11 91.3511 745.279 91.3511C745.447 91.3511 745.59 91.4134 745.708 91.5381C745.825 91.6554 745.884 91.7984 745.884 91.9671C745.884 92.1284 745.825 92.2714 745.708 92.3961C745.59 92.5134 745.447 92.5721 745.279 92.5721ZM749.382 92.5501C749.008 92.5501 748.667 92.4951 748.359 92.3851C748.058 92.2678 747.798 92.1174 747.578 91.9341C747.365 91.7508 747.196 91.5564 747.072 91.3511L747.842 90.9221C747.922 91.0248 748.021 91.1421 748.139 91.2741C748.263 91.3988 748.421 91.5051 748.612 91.5931C748.802 91.6811 749.037 91.7251 749.316 91.7251C749.814 91.7251 750.214 91.5821 750.515 91.2961C750.815 91.0101 750.966 90.6508 750.966 90.2181C750.966 89.8881 750.874 89.6094 750.691 89.3821C750.515 89.1548 750.258 88.9824 749.921 88.8651C749.583 88.7478 749.18 88.6891 748.711 88.6891H748.502V87.9631H748.689C749.151 87.9631 749.576 88.0144 749.965 88.1171C750.353 88.2198 750.691 88.3701 750.977 88.5681C751.27 88.7661 751.494 89.0081 751.648 89.2941C751.809 89.5801 751.89 89.9101 751.89 90.2841C751.89 90.7388 751.776 91.1384 751.549 91.4831C751.329 91.8204 751.028 92.0844 750.647 92.2751C750.265 92.4584 749.844 92.5501 749.382 92.5501ZM748.502 88.6121V87.8971H748.711C749.341 87.8971 749.84 87.7908 750.207 87.5781C750.581 87.3581 750.768 87.0464 750.768 86.6431C750.768 86.4231 750.709 86.2214 750.592 86.0381C750.474 85.8474 750.302 85.6971 750.075 85.5871C749.855 85.4698 749.598 85.4111 749.305 85.4111C749.107 85.4111 748.92 85.4404 748.744 85.4991C748.575 85.5504 748.417 85.6311 748.271 85.7411C748.131 85.8438 748.003 85.9758 747.886 86.1371L747.16 85.7191C747.299 85.4918 747.475 85.2938 747.688 85.1251C747.908 84.9564 748.157 84.8244 748.436 84.7291C748.714 84.6338 749.019 84.5861 749.349 84.5861C749.796 84.5861 750.196 84.6741 750.548 84.8501C750.907 85.0261 751.189 85.2681 751.395 85.5761C751.6 85.8768 751.703 86.2178 751.703 86.5991C751.703 86.9218 751.626 87.2078 751.472 87.4571C751.318 87.7064 751.101 87.9191 750.823 88.0951C750.551 88.2711 750.232 88.4031 749.866 88.4911C749.506 88.5718 749.114 88.6121 748.689 88.6121H748.502ZM755.596 92.5501C755.288 92.5501 754.973 92.5061 754.65 92.4181C754.335 92.3228 754.034 92.1798 753.748 91.9891C753.469 91.7984 753.238 91.5528 753.055 91.2521L753.803 90.8231C754.06 91.1458 754.338 91.3804 754.639 91.5271C754.94 91.6738 755.251 91.7471 755.574 91.7471C756.08 91.7471 756.491 91.5931 756.806 91.2851C757.129 90.9698 757.29 90.5591 757.29 90.0531C757.29 89.5544 757.136 89.1474 756.828 88.8321C756.52 88.5168 756.117 88.3591 755.618 88.3591C755.347 88.3591 755.079 88.4214 754.815 88.5461C754.551 88.6634 754.346 88.8101 754.199 88.9861L753.363 88.7881L753.737 84.7181H757.84V85.5541H753.792L753.737 84.7511H754.661L754.232 88.8321L753.517 88.7881C753.62 88.6268 753.748 88.4764 753.902 88.3371C754.056 88.1978 754.232 88.0731 754.43 87.9631C754.635 87.8458 754.852 87.7541 755.079 87.6881C755.306 87.6221 755.537 87.5928 755.772 87.6001C756.241 87.6001 756.659 87.7028 757.026 87.9081C757.393 88.1134 757.682 88.3994 757.895 88.7661C758.108 89.1328 758.214 89.5544 758.214 90.0311C758.214 90.5298 758.1 90.9698 757.873 91.3511C757.653 91.7251 757.345 92.0184 756.949 92.2311C756.56 92.4438 756.109 92.5501 755.596 92.5501ZM762.253 92.5501C761.666 92.5501 761.146 92.3814 760.691 92.0441C760.236 91.6994 759.881 91.2301 759.624 90.6361C759.367 90.0348 759.239 89.3454 759.239 88.5681C759.239 87.7908 759.367 87.1051 759.624 86.5111C759.881 85.9098 760.233 85.4404 760.68 85.1031C761.135 84.7584 761.659 84.5861 762.253 84.5861C762.847 84.5861 763.368 84.7584 763.815 85.1031C764.27 85.4404 764.625 85.9098 764.882 86.5111C765.146 87.1051 765.278 87.7908 765.278 88.5681C765.278 89.3454 765.15 90.0348 764.893 90.6361C764.636 91.2301 764.281 91.6994 763.826 92.0441C763.371 92.3814 762.847 92.5501 762.253 92.5501ZM762.253 91.7141C762.664 91.7141 763.027 91.5784 763.342 91.3071C763.665 91.0358 763.914 90.6654 764.09 90.1961C764.273 89.7268 764.365 89.1841 764.365 88.5681C764.365 87.9521 764.273 87.4094 764.09 86.9401C763.914 86.4634 763.665 86.0931 763.342 85.8291C763.027 85.5578 762.664 85.4221 762.253 85.4221C761.842 85.4221 761.479 85.5578 761.164 85.8291C760.849 86.0931 760.599 86.4634 760.416 86.9401C760.24 87.4094 760.152 87.9521 760.152 88.5681C760.152 89.1841 760.24 89.7268 760.416 90.1961C760.599 90.6654 760.849 91.0358 761.164 91.3071C761.487 91.5784 761.85 91.7141 762.253 91.7141Z" fill="white"/>
<path d="M741.967 116.081L741.978 108.876L742.055 108.381H742.891L742.869 116.081H741.967ZM740.251 110.361V109.514C740.405 109.522 740.588 109.47 740.801 109.36C741.013 109.25 741.233 109.107 741.461 108.931C741.688 108.755 741.886 108.572 742.055 108.381L742.627 109.008C742.385 109.265 742.132 109.496 741.868 109.701C741.604 109.907 741.336 110.072 741.065 110.196C740.793 110.314 740.522 110.369 740.251 110.361ZM745.279 116.235C745.11 116.235 744.963 116.177 744.839 116.059C744.721 115.935 744.663 115.792 744.663 115.63C744.663 115.462 744.721 115.319 744.839 115.201C744.963 115.077 745.11 115.014 745.279 115.014C745.447 115.014 745.59 115.077 745.708 115.201C745.825 115.319 745.884 115.462 745.884 115.63C745.884 115.792 745.825 115.935 745.708 116.059C745.59 116.177 745.447 116.235 745.279 116.235ZM749.382 116.213C749.008 116.213 748.667 116.158 748.359 116.048C748.058 115.931 747.798 115.781 747.578 115.597C747.365 115.414 747.196 115.22 747.072 115.014L747.842 114.585C747.922 114.688 748.021 114.805 748.139 114.937C748.263 115.062 748.421 115.168 748.612 115.256C748.802 115.344 749.037 115.388 749.316 115.388C749.814 115.388 750.214 115.245 750.515 114.959C750.815 114.673 750.966 114.314 750.966 113.881C750.966 113.551 750.874 113.273 750.691 113.045C750.515 112.818 750.258 112.646 749.921 112.528C749.583 112.411 749.18 112.352 748.711 112.352H748.502V111.626H748.689C749.151 111.626 749.576 111.678 749.965 111.78C750.353 111.883 750.691 112.033 750.977 112.231C751.27 112.429 751.494 112.671 751.648 112.957C751.809 113.243 751.89 113.573 751.89 113.947C751.89 114.402 751.776 114.802 751.549 115.146C751.329 115.484 751.028 115.748 750.647 115.938C750.265 116.122 749.844 116.213 749.382 116.213ZM748.502 112.275V111.56H748.711C749.341 111.56 749.84 111.454 750.207 111.241C750.581 111.021 750.768 110.71 750.768 110.306C750.768 110.086 750.709 109.885 750.592 109.701C750.474 109.511 750.302 109.36 750.075 109.25C749.855 109.133 749.598 109.074 749.305 109.074C749.107 109.074 748.92 109.104 748.744 109.162C748.575 109.214 748.417 109.294 748.271 109.404C748.131 109.507 748.003 109.639 747.886 109.8L747.16 109.382C747.299 109.155 747.475 108.957 747.688 108.788C747.908 108.62 748.157 108.488 748.436 108.392C748.714 108.297 749.019 108.249 749.349 108.249C749.796 108.249 750.196 108.337 750.548 108.513C750.907 108.689 751.189 108.931 751.395 109.239C751.6 109.54 751.703 109.881 751.703 110.262C751.703 110.585 751.626 110.871 751.472 111.12C751.318 111.37 751.101 111.582 750.823 111.758C750.551 111.934 750.232 112.066 749.866 112.154C749.506 112.235 749.114 112.275 748.689 112.275H748.502ZM755.926 116.213C755.339 116.213 754.819 116.045 754.364 115.707C753.909 115.363 753.554 114.893 753.297 114.299C753.04 113.698 752.912 113.009 752.912 112.231C752.912 111.454 753.04 110.768 753.297 110.174C753.554 109.573 753.906 109.104 754.353 108.766C754.808 108.422 755.332 108.249 755.926 108.249C756.52 108.249 757.041 108.422 757.488 108.766C757.943 109.104 758.298 109.573 758.555 110.174C758.819 110.768 758.951 111.454 758.951 112.231C758.951 113.009 758.823 113.698 758.566 114.299C758.309 114.893 757.954 115.363 757.499 115.707C757.044 116.045 756.52 116.213 755.926 116.213ZM755.926 115.377C756.337 115.377 756.7 115.242 757.015 114.97C757.338 114.699 757.587 114.329 757.763 113.859C757.946 113.39 758.038 112.847 758.038 112.231C758.038 111.615 757.946 111.073 757.763 110.603C757.587 110.127 757.338 109.756 757.015 109.492C756.7 109.221 756.337 109.085 755.926 109.085C755.515 109.085 755.152 109.221 754.837 109.492C754.522 109.756 754.272 110.127 754.089 110.603C753.913 111.073 753.825 111.615 753.825 112.231C753.825 112.847 753.913 113.39 754.089 113.859C754.272 114.329 754.522 114.699 754.837 114.97C755.16 115.242 755.523 115.377 755.926 115.377ZM762.973 116.213C762.386 116.213 761.866 116.045 761.411 115.707C760.956 115.363 760.601 114.893 760.344 114.299C760.087 113.698 759.959 113.009 759.959 112.231C759.959 111.454 760.087 110.768 760.344 110.174C760.601 109.573 760.953 109.104 761.4 108.766C761.855 108.422 762.379 108.249 762.973 108.249C763.567 108.249 764.088 108.422 764.535 108.766C764.99 109.104 765.345 109.573 765.602 110.174C765.866 110.768 765.998 111.454 765.998 112.231C765.998 113.009 765.87 113.698 765.613 114.299C765.356 114.893 765.001 115.363 764.546 115.707C764.091 116.045 763.567 116.213 762.973 116.213ZM762.973 115.377C763.384 115.377 763.747 115.242 764.062 114.97C764.385 114.699 764.634 114.329 764.81 113.859C764.993 113.39 765.085 112.847 765.085 112.231C765.085 111.615 764.993 111.073 764.81 110.603C764.634 110.127 764.385 109.756 764.062 109.492C763.747 109.221 763.384 109.085 762.973 109.085C762.562 109.085 762.199 109.221 761.884 109.492C761.569 109.756 761.319 110.127 761.136 110.603C760.96 111.073 760.872 111.615 760.872 112.231C760.872 112.847 760.96 113.39 761.136 113.859C761.319 114.329 761.569 114.699 761.884 114.97C762.207 115.242 762.57 115.377 762.973 115.377Z" fill="#7A7C7F"/>
<path d="M741.967 139.744L741.978 132.539L742.055 132.044H742.891L742.869 139.744H741.967ZM740.251 134.024V133.177C740.405 133.185 740.588 133.133 740.801 133.023C741.013 132.913 741.233 132.77 741.461 132.594C741.688 132.418 741.886 132.235 742.055 132.044L742.627 132.671C742.385 132.928 742.132 133.159 741.868 133.364C741.604 133.57 741.336 133.735 741.065 133.859C740.793 133.977 740.522 134.032 740.251 134.024ZM745.279 139.898C745.11 139.898 744.963 139.84 744.839 139.722C744.721 139.598 744.663 139.455 744.663 139.293C744.663 139.125 744.721 138.982 744.839 138.864C744.963 138.74 745.11 138.677 745.279 138.677C745.447 138.677 745.59 138.74 745.708 138.864C745.825 138.982 745.884 139.125 745.884 139.293C745.884 139.455 745.825 139.598 745.708 139.722C745.59 139.84 745.447 139.898 745.279 139.898ZM747.974 139.205L747.05 138.974C747.05 138.732 747.097 138.494 747.193 138.259C747.295 138.017 747.438 137.779 747.622 137.544C747.812 137.31 748.043 137.09 748.315 136.884L749.91 135.685C750.1 135.553 750.265 135.403 750.405 135.234C750.551 135.058 750.665 134.879 750.746 134.695C750.826 134.505 750.867 134.321 750.867 134.145C750.867 133.889 750.804 133.658 750.68 133.452C750.555 133.24 750.379 133.071 750.152 132.946C749.924 132.822 749.657 132.759 749.349 132.759C749.048 132.759 748.784 132.818 748.557 132.935C748.329 133.045 748.142 133.196 747.996 133.386C747.849 133.57 747.743 133.768 747.677 133.98L746.731 133.793C746.819 133.463 746.976 133.155 747.204 132.869C747.438 132.583 747.735 132.352 748.095 132.176C748.454 132 748.854 131.912 749.294 131.912C749.807 131.912 750.251 132.011 750.625 132.209C750.999 132.4 751.288 132.664 751.494 133.001C751.706 133.331 751.813 133.709 751.813 134.134C751.813 134.538 751.703 134.919 751.483 135.278C751.263 135.638 750.944 135.986 750.526 136.323L749.019 137.467C748.806 137.621 748.619 137.79 748.458 137.973C748.304 138.157 748.183 138.351 748.095 138.556C748.014 138.754 747.974 138.971 747.974 139.205ZM747.05 139.744V138.974L747.754 138.919H751.923V139.744H747.05ZM755.757 139.876C755.449 139.876 755.134 139.832 754.811 139.744C754.496 139.649 754.195 139.506 753.909 139.315C753.63 139.125 753.399 138.879 753.216 138.578L753.964 138.149C754.221 138.472 754.499 138.707 754.8 138.853C755.101 139 755.412 139.073 755.735 139.073C756.241 139.073 756.652 138.919 756.967 138.611C757.29 138.296 757.451 137.885 757.451 137.379C757.451 136.881 757.297 136.474 756.989 136.158C756.681 135.843 756.278 135.685 755.779 135.685C755.508 135.685 755.24 135.748 754.976 135.872C754.712 135.99 754.507 136.136 754.36 136.312L753.524 136.114L753.898 132.044H758.001V132.88H753.953L753.898 132.077H754.822L754.393 136.158L753.678 136.114C753.781 135.953 753.909 135.803 754.063 135.663C754.217 135.524 754.393 135.399 754.591 135.289C754.796 135.172 755.013 135.08 755.24 135.014C755.467 134.948 755.698 134.919 755.933 134.926C756.402 134.926 756.82 135.029 757.187 135.234C757.554 135.44 757.843 135.726 758.056 136.092C758.269 136.459 758.375 136.881 758.375 137.357C758.375 137.856 758.261 138.296 758.034 138.677C757.814 139.051 757.506 139.345 757.11 139.557C756.721 139.77 756.27 139.876 755.757 139.876ZM762.414 139.876C761.828 139.876 761.307 139.708 760.852 139.37C760.398 139.026 760.042 138.556 759.785 137.962C759.529 137.361 759.4 136.672 759.4 135.894C759.4 135.117 759.529 134.431 759.785 133.837C760.042 133.236 760.394 132.767 760.841 132.429C761.296 132.085 761.82 131.912 762.414 131.912C763.008 131.912 763.529 132.085 763.976 132.429C764.431 132.767 764.787 133.236 765.043 133.837C765.307 134.431 765.439 135.117 765.439 135.894C765.439 136.672 765.311 137.361 765.054 137.962C764.798 138.556 764.442 139.026 763.987 139.37C763.533 139.708 763.008 139.876 762.414 139.876ZM762.414 139.04C762.825 139.04 763.188 138.905 763.503 138.633C763.826 138.362 764.075 137.992 764.251 137.522C764.435 137.053 764.526 136.51 764.526 135.894C764.526 135.278 764.435 134.736 764.251 134.266C764.075 133.79 763.826 133.419 763.503 133.155C763.188 132.884 762.825 132.748 762.414 132.748C762.004 132.748 761.641 132.884 761.325 133.155C761.01 133.419 760.761 133.79 760.577 134.266C760.401 134.736 760.313 135.278 760.313 135.894C760.313 136.51 760.401 137.053 760.577 137.522C760.761 137.992 761.01 138.362 761.325 138.633C761.648 138.905 762.011 139.04 762.414 139.04Z" fill="#7A7C7F"/>
<path d="M741.967 163.408L741.978 156.203L742.055 155.708H742.891L742.869 163.408H741.967ZM740.251 157.688V156.841C740.405 156.848 740.588 156.797 740.801 156.687C741.013 156.577 741.233 156.434 741.461 156.258C741.688 156.082 741.886 155.898 742.055 155.708L742.627 156.335C742.385 156.591 742.132 156.822 741.868 157.028C741.604 157.233 741.336 157.398 741.065 157.523C740.793 157.64 740.522 157.695 740.251 157.688ZM745.279 163.562C745.11 163.562 744.963 163.503 744.839 163.386C744.721 163.261 744.663 163.118 744.663 162.957C744.663 162.788 744.721 162.645 744.839 162.528C744.963 162.403 745.11 162.341 745.279 162.341C745.447 162.341 745.59 162.403 745.708 162.528C745.825 162.645 745.884 162.788 745.884 162.957C745.884 163.118 745.825 163.261 745.708 163.386C745.59 163.503 745.447 163.562 745.279 163.562ZM747.974 162.869L747.05 162.638C747.05 162.396 747.097 162.157 747.193 161.923C747.295 161.681 747.438 161.442 747.622 161.208C747.812 160.973 748.043 160.753 748.315 160.548L749.91 159.349C750.1 159.217 750.265 159.066 750.405 158.898C750.551 158.722 750.665 158.542 750.746 158.359C750.826 158.168 750.867 157.985 750.867 157.809C750.867 157.552 750.804 157.321 750.68 157.116C750.555 156.903 750.379 156.734 750.152 156.61C749.924 156.485 749.657 156.423 749.349 156.423C749.048 156.423 748.784 156.481 748.557 156.599C748.329 156.709 748.142 156.859 747.996 157.05C747.849 157.233 747.743 157.431 747.677 157.644L746.731 157.457C746.819 157.127 746.976 156.819 747.204 156.533C747.438 156.247 747.735 156.016 748.095 155.84C748.454 155.664 748.854 155.576 749.294 155.576C749.807 155.576 750.251 155.675 750.625 155.873C750.999 156.063 751.288 156.327 751.494 156.665C751.706 156.995 751.813 157.372 751.813 157.798C751.813 158.201 751.703 158.582 751.483 158.942C751.263 159.301 750.944 159.649 750.526 159.987L749.019 161.131C748.806 161.285 748.619 161.453 748.458 161.637C748.304 161.82 748.183 162.014 748.095 162.22C748.014 162.418 747.974 162.634 747.974 162.869ZM747.05 163.408V162.638L747.754 162.583H751.923V163.408H747.05ZM756.087 163.54C755.5 163.54 754.98 163.371 754.525 163.034C754.07 162.689 753.715 162.22 753.458 161.626C753.201 161.024 753.073 160.335 753.073 159.558C753.073 158.78 753.201 158.095 753.458 157.501C753.715 156.899 754.067 156.43 754.514 156.093C754.969 155.748 755.493 155.576 756.087 155.576C756.681 155.576 757.202 155.748 757.649 156.093C758.104 156.43 758.459 156.899 758.716 157.501C758.98 158.095 759.112 158.78 759.112 159.558C759.112 160.335 758.984 161.024 758.727 161.626C758.47 162.22 758.115 162.689 757.66 163.034C757.205 163.371 756.681 163.54 756.087 163.54ZM756.087 162.704C756.498 162.704 756.861 162.568 757.176 162.297C757.499 162.025 757.748 161.655 757.924 161.186C758.107 160.716 758.199 160.174 758.199 159.558C758.199 158.942 758.107 158.399 757.924 157.93C757.748 157.453 757.499 157.083 757.176 156.819C756.861 156.547 756.498 156.412 756.087 156.412C755.676 156.412 755.313 156.547 754.998 156.819C754.683 157.083 754.433 157.453 754.25 157.93C754.074 158.399 753.986 158.942 753.986 159.558C753.986 160.174 754.074 160.716 754.25 161.186C754.433 161.655 754.683 162.025 754.998 162.297C755.321 162.568 755.684 162.704 756.087 162.704ZM763.134 163.54C762.547 163.54 762.027 163.371 761.572 163.034C761.117 162.689 760.762 162.22 760.505 161.626C760.248 161.024 760.12 160.335 760.12 159.558C760.12 158.78 760.248 158.095 760.505 157.501C760.762 156.899 761.114 156.43 761.561 156.093C762.016 155.748 762.54 155.576 763.134 155.576C763.728 155.576 764.249 155.748 764.696 156.093C765.151 156.43 765.506 156.899 765.763 157.501C766.027 158.095 766.159 158.78 766.159 159.558C766.159 160.335 766.031 161.024 765.774 161.626C765.517 162.22 765.162 162.689 764.707 163.034C764.252 163.371 763.728 163.54 763.134 163.54ZM763.134 162.704C763.545 162.704 763.908 162.568 764.223 162.297C764.546 162.025 764.795 161.655 764.971 161.186C765.154 160.716 765.246 160.174 765.246 159.558C765.246 158.942 765.154 158.399 764.971 157.93C764.795 157.453 764.546 157.083 764.223 156.819C763.908 156.547 763.545 156.412 763.134 156.412C762.723 156.412 762.36 156.547 762.045 156.819C761.73 157.083 761.48 157.453 761.297 157.93C761.121 158.399 761.033 158.942 761.033 159.558C761.033 160.174 761.121 160.716 761.297 161.186C761.48 161.655 761.73 162.025 762.045 162.297C762.368 162.568 762.731 162.704 763.134 162.704Z" fill="#7A7C7F"/>
<path d="M741.967 187.071L741.978 179.866L742.055 179.371H742.891L742.869 187.071H741.967ZM740.251 181.351V180.504C740.405 180.511 740.588 180.46 740.801 180.35C741.013 180.24 741.233 180.097 741.461 179.921C741.688 179.745 741.886 179.561 742.055 179.371L742.627 179.998C742.385 180.254 742.132 180.485 741.868 180.691C741.604 180.896 741.336 181.061 741.065 181.186C740.793 181.303 740.522 181.358 740.251 181.351ZM745.279 187.225C745.11 187.225 744.963 187.166 744.839 187.049C744.721 186.924 744.663 186.781 744.663 186.62C744.663 186.451 744.721 186.308 744.839 186.191C744.963 186.066 745.11 186.004 745.279 186.004C745.447 186.004 745.59 186.066 745.708 186.191C745.825 186.308 745.884 186.451 745.884 186.62C745.884 186.781 745.825 186.924 745.708 187.049C745.59 187.166 745.447 187.225 745.279 187.225ZM748.799 187.071L748.81 179.866L748.887 179.371H749.723L749.701 187.071H748.799ZM747.083 181.351V180.504C747.237 180.511 747.42 180.46 747.633 180.35C747.845 180.24 748.065 180.097 748.293 179.921C748.52 179.745 748.718 179.561 748.887 179.371L749.459 179.998C749.217 180.254 748.964 180.485 748.7 180.691C748.436 180.896 748.168 181.061 747.897 181.186C747.625 181.303 747.354 181.358 747.083 181.351ZM754.157 187.203C753.849 187.203 753.533 187.159 753.211 187.071C752.895 186.975 752.595 186.832 752.309 186.642C752.03 186.451 751.799 186.205 751.616 185.905L752.364 185.476C752.62 185.798 752.899 186.033 753.2 186.18C753.5 186.326 753.812 186.4 754.135 186.4C754.641 186.4 755.051 186.246 755.367 185.938C755.689 185.622 755.851 185.212 755.851 184.706C755.851 184.207 755.697 183.8 755.389 183.485C755.081 183.169 754.677 183.012 754.179 183.012C753.907 183.012 753.64 183.074 753.376 183.199C753.112 183.316 752.906 183.463 752.76 183.639L751.924 183.441L752.298 179.371H756.401V180.207H752.353L752.298 179.404H753.222L752.793 183.485L752.078 183.441C752.18 183.279 752.309 183.129 752.463 182.99C752.617 182.85 752.793 182.726 752.991 182.616C753.196 182.498 753.412 182.407 753.64 182.341C753.867 182.275 754.098 182.245 754.333 182.253C754.802 182.253 755.22 182.355 755.587 182.561C755.953 182.766 756.243 183.052 756.456 183.419C756.668 183.785 756.775 184.207 756.775 184.684C756.775 185.182 756.661 185.622 756.434 186.004C756.214 186.378 755.906 186.671 755.51 186.884C755.121 187.096 754.67 187.203 754.157 187.203ZM760.814 187.203C760.227 187.203 759.706 187.034 759.252 186.697C758.797 186.352 758.441 185.883 758.185 185.289C757.928 184.687 757.8 183.998 757.8 183.221C757.8 182.443 757.928 181.758 758.185 181.164C758.441 180.562 758.793 180.093 759.241 179.756C759.695 179.411 760.22 179.239 760.814 179.239C761.408 179.239 761.928 179.411 762.376 179.756C762.83 180.093 763.186 180.562 763.443 181.164C763.707 181.758 763.839 182.443 763.839 183.221C763.839 183.998 763.71 184.687 763.454 185.289C763.197 185.883 762.841 186.352 762.387 186.697C761.932 187.034 761.408 187.203 760.814 187.203ZM760.814 186.367C761.224 186.367 761.587 186.231 761.903 185.96C762.225 185.688 762.475 185.318 762.651 184.849C762.834 184.379 762.926 183.837 762.926 183.221C762.926 182.605 762.834 182.062 762.651 181.593C762.475 181.116 762.225 180.746 761.903 180.482C761.587 180.21 761.224 180.075 760.814 180.075C760.403 180.075 760.04 180.21 759.725 180.482C759.409 180.746 759.16 181.116 758.977 181.593C758.801 182.062 758.713 182.605 758.713 183.221C758.713 183.837 758.801 184.379 758.977 184.849C759.16 185.318 759.409 185.688 759.725 185.96C760.047 186.231 760.41 186.367 760.814 186.367Z" fill="#7A7C7F"/>
<path d="M741.967 210.734L741.978 203.529L742.055 203.034H742.891L742.869 210.734H741.967ZM740.251 205.014V204.167C740.405 204.174 740.588 204.123 740.801 204.013C741.013 203.903 741.233 203.76 741.461 203.584C741.688 203.408 741.886 203.225 742.055 203.034L742.627 203.661C742.385 203.918 742.132 204.149 741.868 204.354C741.604 204.559 741.336 204.724 741.065 204.849C740.793 204.966 740.522 205.021 740.251 205.014ZM745.279 210.888C745.11 210.888 744.963 210.829 744.839 210.712C744.721 210.587 744.663 210.444 744.663 210.283C744.663 210.114 744.721 209.971 744.839 209.854C744.963 209.729 745.11 209.667 745.279 209.667C745.447 209.667 745.59 209.729 745.708 209.854C745.825 209.971 745.884 210.114 745.884 210.283C745.884 210.444 745.825 210.587 745.708 210.712C745.59 210.829 745.447 210.888 745.279 210.888ZM748.799 210.734L748.81 203.529L748.887 203.034H749.723L749.701 210.734H748.799ZM747.083 205.014V204.167C747.237 204.174 747.42 204.123 747.633 204.013C747.845 203.903 748.065 203.76 748.293 203.584C748.52 203.408 748.718 203.225 748.887 203.034L749.459 203.661C749.217 203.918 748.964 204.149 748.7 204.354C748.436 204.559 748.168 204.724 747.897 204.849C747.625 204.966 747.354 205.021 747.083 205.014ZM754.487 210.866C753.9 210.866 753.379 210.697 752.925 210.36C752.47 210.015 752.114 209.546 751.858 208.952C751.601 208.351 751.473 207.661 751.473 206.884C751.473 206.107 751.601 205.421 751.858 204.827C752.114 204.226 752.466 203.756 752.914 203.419C753.368 203.074 753.893 202.902 754.487 202.902C755.081 202.902 755.601 203.074 756.049 203.419C756.503 203.756 756.859 204.226 757.116 204.827C757.38 205.421 757.512 206.107 757.512 206.884C757.512 207.661 757.383 208.351 757.127 208.952C756.87 209.546 756.514 210.015 756.06 210.36C755.605 210.697 755.081 210.866 754.487 210.866ZM754.487 210.03C754.897 210.03 755.26 209.894 755.576 209.623C755.898 209.352 756.148 208.981 756.324 208.512C756.507 208.043 756.599 207.5 756.599 206.884C756.599 206.268 756.507 205.725 756.324 205.256C756.148 204.779 755.898 204.409 755.576 204.145C755.26 203.874 754.897 203.738 754.487 203.738C754.076 203.738 753.713 203.874 753.398 204.145C753.082 204.409 752.833 204.779 752.65 205.256C752.474 205.725 752.386 206.268 752.386 206.884C752.386 207.5 752.474 208.043 752.65 208.512C752.833 208.981 753.082 209.352 753.398 209.623C753.72 209.894 754.083 210.03 754.487 210.03ZM761.533 210.866C760.947 210.866 760.426 210.697 759.971 210.36C759.517 210.015 759.161 209.546 758.904 208.952C758.648 208.351 758.519 207.661 758.519 206.884C758.519 206.107 758.648 205.421 758.904 204.827C759.161 204.226 759.513 203.756 759.96 203.419C760.415 203.074 760.939 202.902 761.533 202.902C762.127 202.902 762.648 203.074 763.095 203.419C763.55 203.756 763.906 204.226 764.162 204.827C764.426 205.421 764.558 206.107 764.558 206.884C764.558 207.661 764.43 208.351 764.173 208.952C763.917 209.546 763.561 210.015 763.106 210.36C762.652 210.697 762.127 210.866 761.533 210.866ZM761.533 210.03C761.944 210.03 762.307 209.894 762.622 209.623C762.945 209.352 763.194 208.981 763.37 208.512C763.554 208.043 763.645 207.5 763.645 206.884C763.645 206.268 763.554 205.725 763.37 205.256C763.194 204.779 762.945 204.409 762.622 204.145C762.307 203.874 761.944 203.738 761.533 203.738C761.123 203.738 760.76 203.874 760.444 204.145C760.129 204.409 759.88 204.779 759.696 205.256C759.52 205.725 759.432 206.268 759.432 206.884C759.432 207.5 759.52 208.043 759.696 208.512C759.88 208.981 760.129 209.352 760.444 209.623C760.767 209.894 761.13 210.03 761.533 210.03Z" fill="#7A7C7F"/>
<path fill-rule="evenodd" clip-rule="evenodd" d="M38.1389 89.2206H36.4766V105.574H32.3218V141.996H36.4766V155.376H38.1389V141.996H42.2952V105.574H38.1389V89.2206Z" fill="#00997E"/>
<path fill-rule="evenodd" clip-rule="evenodd" d="M67.2285 104.83H65.5662V121.183H61.4106V157.606H65.5662V170.986H67.2285V157.606H71.384V121.183H67.2285V104.83Z" fill="#00997E"/>
<path fill-rule="evenodd" clip-rule="evenodd" d="M125.408 136.05H123.745V141.253H119.589V188.826H123.745V202.205H125.408V188.826H129.562V141.253H125.408V136.05Z" fill="#00997E"/>
<path fill-rule="evenodd" clip-rule="evenodd" d="M299.941 63.9478H298.279V100.37H294.124V147.943H298.279V161.323H299.941V147.943H304.097V100.37H299.941V63.9478Z" fill="#00997E"/>
<path fill-rule="evenodd" clip-rule="evenodd" d="M358.119 72.8676H356.456V75.8408H352.302V102.6H356.456V115.98H358.119V102.6H362.275V75.8408H358.119V72.8676Z" fill="#00997E"/>
<path fill-rule="evenodd" clip-rule="evenodd" d="M416.298 86.2474H414.636V106.317H410.48V133.077H414.636V146.456H416.298V133.077H420.453V106.317H416.298V86.2474Z" fill="#00997E"/>
<path fill-rule="evenodd" clip-rule="evenodd" d="M590.832 105.574H589.17V108.547H585.014V154.633H589.17V172.473H590.832V154.633H594.988V108.547H590.832V105.574Z" fill="#00997E"/>
<path fill-rule="evenodd" clip-rule="evenodd" d="M649.011 95.9105H647.348V98.8838H643.193V130.847H647.348V139.023H649.011V130.847H653.166V98.8838H649.011V95.9105Z" fill="#00997E"/>
<path fill-rule="evenodd" clip-rule="evenodd" d="M678.1 75.0975H676.438V86.9907H672.282V119.697H676.438V136.793H678.1V119.697H682.255V86.9907H678.1V75.0975Z" fill="#00997E"/>
<path fill-rule="evenodd" clip-rule="evenodd" d="M241.763 141.996H240.101V156.863H235.945V162.809H240.101V173.959H241.763V162.809H245.919V156.863H241.763V141.996Z" fill="#00997E"/>
<path fill-rule="evenodd" clip-rule="evenodd" d="M96.3169 122.67H94.6546V139.023H90.499V175.446H94.6546V188.826H96.3169V175.446H100.472V139.023H96.3169V122.67Z" fill="#5655D7"/>
<path fill-rule="evenodd" clip-rule="evenodd" d="M154.495 141.253H152.833V157.606H148.677V194.029H152.833V207.409H154.495V194.029H158.651V157.606H154.495V141.253Z" fill="#5655D7"/>
<path fill-rule="evenodd" clip-rule="evenodd" d="M183.586 141.253H181.924V157.606H177.767V194.029H181.924V207.409H183.586V194.029H187.741V157.606H183.586V141.253Z" fill="#5655D7"/>
<path fill-rule="evenodd" clip-rule="evenodd" d="M212.674 124.9H211.012V141.253H206.856V177.676H211.012V191.056H212.674V177.676H216.83V141.253H212.674V124.9Z" fill="#5655D7"/>
<path fill-rule="evenodd" clip-rule="evenodd" d="M270.852 109.29H269.19V118.953H265.034V168.013H269.19V175.446H270.852V168.013H275.008V118.953H270.852V109.29Z" fill="#5655D7"/>
<path fill-rule="evenodd" clip-rule="evenodd" d="M329.031 75.8409H327.369V85.504H323.213V134.563H327.369V141.996H329.031V134.563H333.186V85.504H329.031V75.8409Z" fill="#5655D7"/>
<path fill-rule="evenodd" clip-rule="evenodd" d="M387.209 72.8676H385.546V82.5307H381.391V121.927H385.546V139.023H387.209V121.927H391.364V82.5307H387.209V72.8676Z" fill="#5655D7"/>
<path fill-rule="evenodd" clip-rule="evenodd" d="M445.388 90.7073H443.725V100.37H439.569V139.766H443.725V156.863H445.388V139.766H449.542V100.37H445.388V90.7073Z" fill="#5655D7"/>
<path fill-rule="evenodd" clip-rule="evenodd" d="M14.0366 106.317H12.3743V115.98H8.21875V155.376H12.3743V172.473H14.0366V155.376H18.1922V115.98H14.0366V106.317Z" fill="#5655D7"/>
<path fill-rule="evenodd" clip-rule="evenodd" d="M474.476 115.98H472.814V125.643H468.658V135.306H472.814V144.226H474.476V135.306H478.631V125.643H474.476V115.98Z" fill="#5655D7"/>
<path fill-rule="evenodd" clip-rule="evenodd" d="M503.566 112.264H501.904V126.387H497.748V152.403H501.904V163.553H503.566V152.403H507.721V126.387H503.566V112.264Z" fill="#5655D7"/>
<path fill-rule="evenodd" clip-rule="evenodd" d="M532.653 133.82H530.991V142.74H526.836V161.323H530.991V172.472H532.653V161.323H536.81V142.74H532.653V133.82Z" fill="#5655D7"/>
<path fill-rule="evenodd" clip-rule="evenodd" d="M561.744 150.916H560.082V155.376H555.926V173.959H560.082V181.392H561.744V173.959H565.899V155.376H561.744V150.916Z" fill="#5655D7"/>
<path fill-rule="evenodd" clip-rule="evenodd" d="M619.922 112.264H618.26V118.953H614.104V137.536H618.26V144.97H619.922V137.536H624.077V118.953H619.922V112.264Z" fill="#5655D7"/>
<path fill-rule="evenodd" clip-rule="evenodd" d="M707.189 73.6109H705.526V80.3008H701.371V98.8838H705.526V133.077H707.189V98.8838H711.344V80.3008H707.189V73.6109Z" fill="#5655D7"/>
<path fill-rule="evenodd" clip-rule="evenodd" d="M154.495 141.253H152.833V157.606H148.677V194.029H152.833V207.409H154.495V194.029H158.651V157.606H154.495V141.253Z" fill="#5655D7"/>
<path fill-rule="evenodd" clip-rule="evenodd" d="M183.586 141.253H181.924V157.606H177.767V194.029H181.924V207.409H183.586V194.029H187.741V157.606H183.586V141.253Z" fill="#5655D7"/>
<path d="M106.428 239.222L106.439 232.017L106.516 231.522H107.352L107.33 239.222H106.428ZM104.712 233.502V232.655C104.866 232.662 105.049 232.611 105.262 232.501C105.474 232.391 105.694 232.248 105.922 232.072C106.149 231.896 106.347 231.712 106.516 231.522L107.088 232.149C106.846 232.405 106.593 232.636 106.329 232.842C106.065 233.047 105.797 233.212 105.526 233.337C105.254 233.454 104.983 233.509 104.712 233.502ZM110.972 239.222L110.983 232.017L111.06 231.522H111.896L111.874 239.222H110.972ZM109.256 233.502V232.655C109.41 232.662 109.593 232.611 109.806 232.501C110.018 232.391 110.238 232.248 110.466 232.072C110.693 231.896 110.891 231.712 111.06 231.522L111.632 232.149C111.39 232.405 111.137 232.636 110.873 232.842C110.609 233.047 110.341 233.212 110.07 233.337C109.798 233.454 109.527 233.509 109.256 233.502ZM114.284 239.376C114.115 239.376 113.968 239.317 113.844 239.2C113.726 239.075 113.668 238.932 113.668 238.771C113.668 238.602 113.726 238.459 113.844 238.342C113.968 238.217 114.115 238.155 114.284 238.155C114.452 238.155 114.595 238.217 114.713 238.342C114.83 238.459 114.889 238.602 114.889 238.771C114.889 238.932 114.83 239.075 114.713 239.2C114.595 239.317 114.452 239.376 114.284 239.376ZM118.948 239.354C118.361 239.354 117.84 239.185 117.386 238.848C116.931 238.503 116.575 238.034 116.319 237.44C116.062 236.838 115.934 236.149 115.934 235.372C115.934 234.594 116.062 233.909 116.319 233.315C116.575 232.713 116.927 232.244 117.375 231.907C117.829 231.562 118.354 231.39 118.948 231.39C119.542 231.39 120.062 231.562 120.51 231.907C120.964 232.244 121.32 232.713 121.577 233.315C121.841 233.909 121.973 234.594 121.973 235.372C121.973 236.149 121.844 236.838 121.588 237.44C121.331 238.034 120.975 238.503 120.521 238.848C120.066 239.185 119.542 239.354 118.948 239.354ZM118.948 238.518C119.358 238.518 119.721 238.382 120.037 238.111C120.359 237.839 120.609 237.469 120.785 237C120.968 236.53 121.06 235.988 121.06 235.372C121.06 234.756 120.968 234.213 120.785 233.744C120.609 233.267 120.359 232.897 120.037 232.633C119.721 232.361 119.358 232.226 118.948 232.226C118.537 232.226 118.174 232.361 117.859 232.633C117.543 232.897 117.294 233.267 117.111 233.744C116.935 234.213 116.847 234.756 116.847 235.372C116.847 235.988 116.935 236.53 117.111 237C117.294 237.469 117.543 237.839 117.859 238.111C118.181 238.382 118.544 238.518 118.948 238.518ZM125.995 239.354C125.408 239.354 124.887 239.185 124.433 238.848C123.978 238.503 123.622 238.034 123.366 237.44C123.109 236.838 122.981 236.149 122.981 235.372C122.981 234.594 123.109 233.909 123.366 233.315C123.622 232.713 123.974 232.244 124.422 231.907C124.876 231.562 125.401 231.39 125.995 231.39C126.589 231.39 127.109 231.562 127.557 231.907C128.011 232.244 128.367 232.713 128.624 233.315C128.888 233.909 129.02 234.594 129.02 235.372C129.02 236.149 128.891 236.838 128.635 237.44C128.378 238.034 128.022 238.503 127.568 238.848C127.113 239.185 126.589 239.354 125.995 239.354ZM125.995 238.518C126.405 238.518 126.768 238.382 127.084 238.111C127.406 237.839 127.656 237.469 127.832 237C128.015 236.53 128.107 235.988 128.107 235.372C128.107 234.756 128.015 234.213 127.832 233.744C127.656 233.267 127.406 232.897 127.084 232.633C126.768 232.361 126.405 232.226 125.995 232.226C125.584 232.226 125.221 232.361 124.906 232.633C124.59 232.897 124.341 233.267 124.158 233.744C123.982 234.213 123.894 234.756 123.894 235.372C123.894 235.988 123.982 236.53 124.158 237C124.341 237.469 124.59 237.839 124.906 238.111C125.228 238.382 125.591 238.518 125.995 238.518Z" fill="#7A7C7F"/>
<path d="M220.899 239.222L220.91 232.017L220.987 231.522H221.823L221.801 239.222H220.899ZM219.183 233.502V232.655C219.337 232.662 219.52 232.611 219.733 232.501C219.946 232.391 220.166 232.248 220.393 232.072C220.62 231.896 220.818 231.712 220.987 231.522L221.559 232.149C221.317 232.405 221.064 232.636 220.8 232.842C220.536 233.047 220.268 233.212 219.997 233.337C219.726 233.454 219.454 233.509 219.183 233.502ZM224.618 238.683L223.694 238.452C223.694 238.21 223.742 237.971 223.837 237.737C223.94 237.495 224.083 237.256 224.266 237.022C224.457 236.787 224.688 236.567 224.959 236.362L226.554 235.163C226.745 235.031 226.91 234.88 227.049 234.712C227.196 234.536 227.309 234.356 227.39 234.173C227.471 233.982 227.511 233.799 227.511 233.623C227.511 233.366 227.449 233.135 227.324 232.93C227.199 232.717 227.023 232.548 226.796 232.424C226.569 232.299 226.301 232.237 225.993 232.237C225.692 232.237 225.428 232.295 225.201 232.413C224.974 232.523 224.787 232.673 224.64 232.864C224.493 233.047 224.387 233.245 224.321 233.458L223.375 233.271C223.463 232.941 223.621 232.633 223.848 232.347C224.083 232.061 224.38 231.83 224.739 231.654C225.098 231.478 225.498 231.39 225.938 231.39C226.451 231.39 226.895 231.489 227.269 231.687C227.643 231.877 227.933 232.141 228.138 232.479C228.351 232.809 228.457 233.186 228.457 233.612C228.457 234.015 228.347 234.396 228.127 234.756C227.907 235.115 227.588 235.463 227.17 235.801L225.663 236.945C225.45 237.099 225.263 237.267 225.102 237.451C224.948 237.634 224.827 237.828 224.739 238.034C224.658 238.232 224.618 238.448 224.618 238.683ZM223.694 239.222V238.452L224.398 238.397H228.567V239.222H223.694ZM230.355 239.376C230.187 239.376 230.04 239.317 229.915 239.2C229.798 239.075 229.739 238.932 229.739 238.771C229.739 238.602 229.798 238.459 229.915 238.342C230.04 238.217 230.187 238.155 230.355 238.155C230.524 238.155 230.667 238.217 230.784 238.342C230.902 238.459 230.96 238.602 230.96 238.771C230.96 238.932 230.902 239.075 230.784 239.2C230.667 239.317 230.524 239.376 230.355 239.376ZM235.02 239.354C234.433 239.354 233.912 239.185 233.458 238.848C233.003 238.503 232.647 238.034 232.391 237.44C232.134 236.838 232.006 236.149 232.006 235.372C232.006 234.594 232.134 233.909 232.391 233.315C232.647 232.713 232.999 232.244 233.447 231.907C233.901 231.562 234.426 231.39 235.02 231.39C235.614 231.39 236.134 231.562 236.582 231.907C237.036 232.244 237.392 232.713 237.649 233.315C237.913 233.909 238.045 234.594 238.045 235.372C238.045 236.149 237.916 236.838 237.66 237.44C237.403 238.034 237.047 238.503 236.593 238.848C236.138 239.185 235.614 239.354 235.02 239.354ZM235.02 238.518C235.43 238.518 235.793 238.382 236.109 238.111C236.431 237.839 236.681 237.469 236.857 237C237.04 236.53 237.132 235.988 237.132 235.372C237.132 234.756 237.04 234.213 236.857 233.744C236.681 233.267 236.431 232.897 236.109 232.633C235.793 232.361 235.43 232.226 235.02 232.226C234.609 232.226 234.246 232.361 233.931 232.633C233.615 232.897 233.366 233.267 233.183 233.744C233.007 234.213 232.919 234.756 232.919 235.372C232.919 235.988 233.007 236.53 233.183 237C233.366 237.469 233.615 237.839 233.931 238.111C234.253 238.382 234.616 238.518 235.02 238.518ZM242.066 239.354C241.48 239.354 240.959 239.185 240.504 238.848C240.05 238.503 239.694 238.034 239.437 237.44C239.181 236.838 239.052 236.149 239.052 235.372C239.052 234.594 239.181 233.909 239.437 233.315C239.694 232.713 240.046 232.244 240.493 231.907C240.948 231.562 241.472 231.39 242.066 231.39C242.66 231.39 243.181 231.562 243.628 231.907C244.083 232.244 244.439 232.713 244.695 233.315C244.959 233.909 245.091 234.594 245.091 235.372C245.091 236.149 244.963 236.838 244.706 237.44C244.45 238.034 244.094 238.503 243.639 238.848C243.185 239.185 242.66 239.354 242.066 239.354ZM242.066 238.518C242.477 238.518 242.84 238.382 243.155 238.111C243.478 237.839 243.727 237.469 243.903 237C244.087 236.53 244.178 235.988 244.178 235.372C244.178 234.756 244.087 234.213 243.903 233.744C243.727 233.267 243.478 232.897 243.155 232.633C242.84 232.361 242.477 232.226 242.066 232.226C241.656 232.226 241.293 232.361 240.977 232.633C240.662 232.897 240.413 233.267 240.229 233.744C240.053 234.213 239.965 234.756 239.965 235.372C239.965 235.988 240.053 236.53 240.229 237C240.413 237.469 240.662 237.839 240.977 238.111C241.3 238.382 241.663 238.518 242.066 238.518Z" fill="#7A7C7F"/>
<path d="M338.344 239.222L338.355 232.017L338.432 231.522H339.268L339.246 239.222H338.344ZM336.628 233.502V232.655C336.782 232.662 336.965 232.611 337.178 232.501C337.39 232.391 337.61 232.248 337.838 232.072C338.065 231.896 338.263 231.712 338.432 231.522L339.004 232.149C338.762 232.405 338.509 232.636 338.245 232.842C337.981 233.047 337.713 233.212 337.442 233.337C337.17 233.454 336.899 233.509 336.628 233.502ZM343.47 239.354C343.096 239.354 342.755 239.299 342.447 239.189C342.147 239.071 341.886 238.921 341.666 238.738C341.454 238.554 341.285 238.36 341.16 238.155L341.93 237.726C342.011 237.828 342.11 237.946 342.227 238.078C342.352 238.202 342.51 238.309 342.7 238.397C342.891 238.485 343.126 238.529 343.404 238.529C343.903 238.529 344.303 238.386 344.603 238.1C344.904 237.814 345.054 237.454 345.054 237.022C345.054 236.692 344.963 236.413 344.779 236.186C344.603 235.958 344.347 235.786 344.009 235.669C343.672 235.551 343.269 235.493 342.799 235.493H342.59V234.767H342.777C343.239 234.767 343.665 234.818 344.053 234.921C344.442 235.023 344.779 235.174 345.065 235.372C345.359 235.57 345.582 235.812 345.736 236.098C345.898 236.384 345.978 236.714 345.978 237.088C345.978 237.542 345.865 237.942 345.637 238.287C345.417 238.624 345.117 238.888 344.735 239.079C344.354 239.262 343.932 239.354 343.47 239.354ZM342.59 235.416V234.701H342.799C343.43 234.701 343.929 234.594 344.295 234.382C344.669 234.162 344.856 233.85 344.856 233.447C344.856 233.227 344.798 233.025 344.68 232.842C344.563 232.651 344.391 232.501 344.163 232.391C343.943 232.273 343.687 232.215 343.393 232.215C343.195 232.215 343.008 232.244 342.832 232.303C342.664 232.354 342.506 232.435 342.359 232.545C342.22 232.647 342.092 232.779 341.974 232.941L341.248 232.523C341.388 232.295 341.564 232.097 341.776 231.929C341.996 231.76 342.246 231.628 342.524 231.533C342.803 231.437 343.107 231.39 343.437 231.39C343.885 231.39 344.284 231.478 344.636 231.654C344.996 231.83 345.278 232.072 345.483 232.38C345.689 232.68 345.791 233.021 345.791 233.403C345.791 233.725 345.714 234.011 345.56 234.261C345.406 234.51 345.19 234.723 344.911 234.899C344.64 235.075 344.321 235.207 343.954 235.295C343.595 235.375 343.203 235.416 342.777 235.416H342.59ZM347.639 239.376C347.47 239.376 347.324 239.317 347.199 239.2C347.082 239.075 347.023 238.932 347.023 238.771C347.023 238.602 347.082 238.459 347.199 238.342C347.324 238.217 347.47 238.155 347.639 238.155C347.808 238.155 347.951 238.217 348.068 238.342C348.185 238.459 348.244 238.602 348.244 238.771C348.244 238.932 348.185 239.075 348.068 239.2C347.951 239.317 347.808 239.376 347.639 239.376ZM352.303 239.354C351.716 239.354 351.196 239.185 350.741 238.848C350.286 238.503 349.931 238.034 349.674 237.44C349.417 236.838 349.289 236.149 349.289 235.372C349.289 234.594 349.417 233.909 349.674 233.315C349.931 232.713 350.283 232.244 350.73 231.907C351.185 231.562 351.709 231.39 352.303 231.39C352.897 231.39 353.418 231.562 353.865 231.907C354.32 232.244 354.675 232.713 354.932 233.315C355.196 233.909 355.328 234.594 355.328 235.372C355.328 236.149 355.2 236.838 354.943 237.44C354.686 238.034 354.331 238.503 353.876 238.848C353.421 239.185 352.897 239.354 352.303 239.354ZM352.303 238.518C352.714 238.518 353.077 238.382 353.392 238.111C353.715 237.839 353.964 237.469 354.14 237C354.323 236.53 354.415 235.988 354.415 235.372C354.415 234.756 354.323 234.213 354.14 233.744C353.964 233.267 353.715 232.897 353.392 232.633C353.077 232.361 352.714 232.226 352.303 232.226C351.892 232.226 351.529 232.361 351.214 232.633C350.899 232.897 350.649 233.267 350.466 233.744C350.29 234.213 350.202 234.756 350.202 235.372C350.202 235.988 350.29 236.53 350.466 237C350.649 237.469 350.899 237.839 351.214 238.111C351.537 238.382 351.9 238.518 352.303 238.518ZM359.35 239.354C358.763 239.354 358.243 239.185 357.788 238.848C357.333 238.503 356.978 238.034 356.721 237.44C356.464 236.838 356.336 236.149 356.336 235.372C356.336 234.594 356.464 233.909 356.721 233.315C356.978 232.713 357.33 232.244 357.777 231.907C358.232 231.562 358.756 231.39 359.35 231.39C359.944 231.39 360.465 231.562 360.912 231.907C361.367 232.244 361.722 232.713 361.979 233.315C362.243 233.909 362.375 234.594 362.375 235.372C362.375 236.149 362.247 236.838 361.99 237.44C361.733 238.034 361.378 238.503 360.923 238.848C360.468 239.185 359.944 239.354 359.35 239.354ZM359.35 238.518C359.761 238.518 360.124 238.382 360.439 238.111C360.762 237.839 361.011 237.469 361.187 237C361.37 236.53 361.462 235.988 361.462 235.372C361.462 234.756 361.37 234.213 361.187 233.744C361.011 233.267 360.762 232.897 360.439 232.633C360.124 232.361 359.761 232.226 359.35 232.226C358.939 232.226 358.576 232.361 358.261 232.633C357.946 232.897 357.696 233.267 357.513 233.744C357.337 234.213 357.249 234.756 357.249 235.372C357.249 235.988 357.337 236.53 357.513 237C357.696 237.469 357.946 237.839 358.261 238.111C358.584 238.382 358.947 238.518 359.35 238.518Z" fill="#7A7C7F"/>
<path d="M454.302 239.222L454.313 232.017L454.39 231.522H455.226L455.204 239.222H454.302ZM452.586 233.502V232.655C452.74 232.662 452.923 232.611 453.136 232.501C453.348 232.391 453.568 232.248 453.796 232.072C454.023 231.896 454.221 231.712 454.39 231.522L454.962 232.149C454.72 232.405 454.467 232.636 454.203 232.842C453.939 233.047 453.671 233.212 453.4 233.337C453.128 233.454 452.857 233.509 452.586 233.502ZM457.635 237.066L456.942 236.637L460.451 231.522L461.056 232.05L457.635 237.066ZM456.942 237.352V236.637L457.536 236.527H462.97V237.352H456.942ZM460.495 239.222V232.116L460.451 231.522H461.397V239.222H460.495ZM464.446 239.376C464.277 239.376 464.13 239.317 464.006 239.2C463.888 239.075 463.83 238.932 463.83 238.771C463.83 238.602 463.888 238.459 464.006 238.342C464.13 238.217 464.277 238.155 464.446 238.155C464.614 238.155 464.757 238.217 464.875 238.342C464.992 238.459 465.051 238.602 465.051 238.771C465.051 238.932 464.992 239.075 464.875 239.2C464.757 239.317 464.614 239.376 464.446 239.376ZM469.11 239.354C468.523 239.354 468.002 239.185 467.548 238.848C467.093 238.503 466.737 238.034 466.481 237.44C466.224 236.838 466.096 236.149 466.096 235.372C466.096 234.594 466.224 233.909 466.481 233.315C466.737 232.713 467.089 232.244 467.537 231.907C467.991 231.562 468.516 231.39 469.11 231.39C469.704 231.39 470.224 231.562 470.672 231.907C471.126 232.244 471.482 232.713 471.739 233.315C472.003 233.909 472.135 234.594 472.135 235.372C472.135 236.149 472.006 236.838 471.75 237.44C471.493 238.034 471.137 238.503 470.683 238.848C470.228 239.185 469.704 239.354 469.11 239.354ZM469.11 238.518C469.52 238.518 469.883 238.382 470.199 238.111C470.521 237.839 470.771 237.469 470.947 237C471.13 236.53 471.222 235.988 471.222 235.372C471.222 234.756 471.13 234.213 470.947 233.744C470.771 233.267 470.521 232.897 470.199 232.633C469.883 232.361 469.52 232.226 469.11 232.226C468.699 232.226 468.336 232.361 468.021 232.633C467.705 232.897 467.456 233.267 467.273 233.744C467.097 234.213 467.009 234.756 467.009 235.372C467.009 235.988 467.097 236.53 467.273 237C467.456 237.469 467.705 237.839 468.021 238.111C468.343 238.382 468.706 238.518 469.11 238.518ZM476.156 239.354C475.57 239.354 475.049 239.185 474.594 238.848C474.14 238.503 473.784 238.034 473.527 237.44C473.271 236.838 473.142 236.149 473.142 235.372C473.142 234.594 473.271 233.909 473.527 233.315C473.784 232.713 474.136 232.244 474.583 231.907C475.038 231.562 475.562 231.39 476.156 231.39C476.75 231.39 477.271 231.562 477.718 231.907C478.173 232.244 478.529 232.713 478.785 233.315C479.049 233.909 479.181 234.594 479.181 235.372C479.181 236.149 479.053 236.838 478.796 237.44C478.54 238.034 478.184 238.503 477.729 238.848C477.275 239.185 476.75 239.354 476.156 239.354ZM476.156 238.518C476.567 238.518 476.93 238.382 477.245 238.111C477.568 237.839 477.817 237.469 477.993 237C478.177 236.53 478.268 235.988 478.268 235.372C478.268 234.756 478.177 234.213 477.993 233.744C477.817 233.267 477.568 232.897 477.245 232.633C476.93 232.361 476.567 232.226 476.156 232.226C475.746 232.226 475.383 232.361 475.067 232.633C474.752 232.897 474.503 233.267 474.319 233.744C474.143 234.213 474.055 234.756 474.055 235.372C474.055 235.988 474.143 236.53 474.319 237C474.503 237.469 474.752 237.839 475.067 238.111C475.39 238.382 475.753 238.518 476.156 238.518Z" fill="#7A7C7F"/>
<path d="M568.773 239.222L568.784 232.017L568.861 231.522H569.697L569.675 239.222H568.773ZM567.057 233.502V232.655C567.211 232.662 567.394 232.611 567.607 232.501C567.82 232.391 568.04 232.248 568.267 232.072C568.494 231.896 568.692 231.712 568.861 231.522L569.433 232.149C569.191 232.405 568.938 232.636 568.674 232.842C568.41 233.047 568.142 233.212 567.871 233.337C567.6 233.454 567.328 233.509 567.057 233.502ZM574.131 239.354C573.823 239.354 573.508 239.31 573.185 239.222C572.87 239.126 572.569 238.983 572.283 238.793C572.004 238.602 571.773 238.356 571.59 238.056L572.338 237.627C572.595 237.949 572.873 238.184 573.174 238.331C573.475 238.477 573.786 238.551 574.109 238.551C574.615 238.551 575.026 238.397 575.341 238.089C575.664 237.773 575.825 237.363 575.825 236.857C575.825 236.358 575.671 235.951 575.363 235.636C575.055 235.32 574.652 235.163 574.153 235.163C573.882 235.163 573.614 235.225 573.35 235.35C573.086 235.467 572.881 235.614 572.734 235.79L571.898 235.592L572.272 231.522H576.375V232.358H572.327L572.272 231.555H573.196L572.767 235.636L572.052 235.592C572.155 235.43 572.283 235.28 572.437 235.141C572.591 235.001 572.767 234.877 572.965 234.767C573.17 234.649 573.387 234.558 573.614 234.492C573.841 234.426 574.072 234.396 574.307 234.404C574.776 234.404 575.194 234.506 575.561 234.712C575.928 234.917 576.217 235.203 576.43 235.57C576.643 235.936 576.749 236.358 576.749 236.835C576.749 237.333 576.635 237.773 576.408 238.155C576.188 238.529 575.88 238.822 575.484 239.035C575.095 239.247 574.644 239.354 574.131 239.354ZM578.412 239.376C578.243 239.376 578.097 239.317 577.972 239.2C577.855 239.075 577.796 238.932 577.796 238.771C577.796 238.602 577.855 238.459 577.972 238.342C578.097 238.217 578.243 238.155 578.412 238.155C578.581 238.155 578.724 238.217 578.841 238.342C578.958 238.459 579.017 238.602 579.017 238.771C579.017 238.932 578.958 239.075 578.841 239.2C578.724 239.317 578.581 239.376 578.412 239.376ZM583.076 239.354C582.489 239.354 581.969 239.185 581.514 238.848C581.059 238.503 580.704 238.034 580.447 237.44C580.19 236.838 580.062 236.149 580.062 235.372C580.062 234.594 580.19 233.909 580.447 233.315C580.704 232.713 581.056 232.244 581.503 231.907C581.958 231.562 582.482 231.39 583.076 231.39C583.67 231.39 584.191 231.562 584.638 231.907C585.093 232.244 585.448 232.713 585.705 233.315C585.969 233.909 586.101 234.594 586.101 235.372C586.101 236.149 585.973 236.838 585.716 237.44C585.459 238.034 585.104 238.503 584.649 238.848C584.194 239.185 583.67 239.354 583.076 239.354ZM583.076 238.518C583.487 238.518 583.85 238.382 584.165 238.111C584.488 237.839 584.737 237.469 584.913 237C585.096 236.53 585.188 235.988 585.188 235.372C585.188 234.756 585.096 234.213 584.913 233.744C584.737 233.267 584.488 232.897 584.165 232.633C583.85 232.361 583.487 232.226 583.076 232.226C582.665 232.226 582.302 232.361 581.987 232.633C581.672 232.897 581.422 233.267 581.239 233.744C581.063 234.213 580.975 234.756 580.975 235.372C580.975 235.988 581.063 236.53 581.239 237C581.422 237.469 581.672 237.839 581.987 238.111C582.31 238.382 582.673 238.518 583.076 238.518ZM590.123 239.354C589.536 239.354 589.016 239.185 588.561 238.848C588.106 238.503 587.751 238.034 587.494 237.44C587.237 236.838 587.109 236.149 587.109 235.372C587.109 234.594 587.237 233.909 587.494 233.315C587.751 232.713 588.103 232.244 588.55 231.907C589.005 231.562 589.529 231.39 590.123 231.39C590.717 231.39 591.238 231.562 591.685 231.907C592.14 232.244 592.495 232.713 592.752 233.315C593.016 233.909 593.148 234.594 593.148 235.372C593.148 236.149 593.02 236.838 592.763 237.44C592.506 238.034 592.151 238.503 591.696 238.848C591.241 239.185 590.717 239.354 590.123 239.354ZM590.123 238.518C590.534 238.518 590.897 238.382 591.212 238.111C591.535 237.839 591.784 237.469 591.96 237C592.143 236.53 592.235 235.988 592.235 235.372C592.235 234.756 592.143 234.213 591.96 233.744C591.784 233.267 591.535 232.897 591.212 232.633C590.897 232.361 590.534 232.226 590.123 232.226C589.712 232.226 589.349 232.361 589.034 232.633C588.719 232.897 588.469 233.267 588.286 233.744C588.11 234.213 588.022 234.756 588.022 235.372C588.022 235.988 588.11 236.53 588.286 237C588.469 237.469 588.719 237.839 589.034 238.111C589.357 238.382 589.72 238.518 590.123 238.518Z" fill="#7A7C7F"/>
</svg>
