<svg width="216" height="115" viewBox="0 0 216 115" fill="none" xmlns="http://www.w3.org/2000/svg">
<g clip-path="url(#clip0_281_5045)">
<path d="M149.798 107.604C149.798 84.519 131.085 65.8054 108 65.8054C84.9156 65.8054 66.2019 84.519 66.2019 107.604" stroke="#F4F4F4" stroke-width="1.56255"/>
<path d="M66.2019 107.604C66.2019 97.1873 70.0911 87.1463 77.1076 79.4478C84.1241 71.7493 93.7623 66.948 104.134 65.9846" stroke="#FFAE41" stroke-width="10.1566" stroke-linecap="round"/>
<path d="M170.534 107.604C170.534 73.0667 142.537 45.069 108 45.069C73.463 45.069 45.4653 73.0667 45.4653 107.604" stroke="#F4F4F4" stroke-width="1.56255"/>
<path d="M45.4653 107.604C45.4653 95.2354 49.1329 83.145 56.0043 72.8612C62.8757 62.5775 72.6422 54.5623 84.0689 49.8292C95.4956 45.0961 108.069 43.8577 120.2 46.2706C132.33 48.6835 143.473 54.6394 152.218 63.385" stroke="#00997E" stroke-width="10.1566" stroke-linecap="round"/>
<path d="M189.35 107.604C189.35 62.6751 152.928 26.2534 108 26.2534C63.0714 26.2534 26.6497 62.6751 26.6497 107.604" stroke="#F4F4F4" stroke-width="1.56255"/>
<path d="M26.6497 107.604C26.6497 94.3164 29.9043 81.2315 36.129 69.4926C42.3538 57.7538 51.3592 47.7183 62.358 40.2635C73.3568 32.8087 86.0143 28.1615 99.2239 26.7281C112.433 25.2947 125.793 27.1188 138.135 32.0409" stroke="#4ABDE8" stroke-width="10.1566" stroke-linecap="round"/>
<path d="M209.175 107.604C209.175 51.7262 163.877 6.42859 108 6.42859C52.1225 6.42859 6.82495 51.7262 6.82495 107.604" stroke="#F4F4F4" stroke-width="1.56255"/>
<path d="M6.82495 107.604C6.82495 83.6962 15.2909 60.5613 30.7217 42.3007C46.1525 24.0402 67.5512 11.8338 91.1235 7.846C114.696 3.85816 138.919 8.3465 159.497 20.5152C180.076 32.6839 195.681 51.7467 203.545 74.3236" stroke="#5655D7" stroke-width="10.1566" stroke-linecap="round"/>
</g>
<defs>
<clipPath id="clip0_281_5045">
<rect width="215" height="114" fill="white" transform="translate(0.5 0.428589)"/>
</clipPath>
</defs>
</svg>
