<svg width="40" height="40" viewBox="0 0 40 40" fill="none" xmlns="http://www.w3.org/2000/svg">
<g clip-path="url(#clip0_620_19214)">
<path d="M39.6346 20.8844L35.8846 24.6344C35.7685 24.7506 35.6306 24.8428 35.4789 24.9057C35.3271 24.9686 35.1645 25.001 35.0002 25.001C34.8359 25.001 34.6733 24.9686 34.5215 24.9057C34.3698 24.8428 34.2319 24.7506 34.1158 24.6344L30.3658 20.8844C30.1313 20.6498 29.9995 20.3317 29.9995 20C29.9995 19.6683 30.1313 19.3502 30.3658 19.1156C30.6004 18.8811 30.9185 18.7493 31.2502 18.7493C31.5819 18.7493 31.9 18.8811 32.1346 19.1156L33.7502 20.7328V20C33.7516 17.0885 32.8288 14.2517 31.1148 11.8982C29.4007 9.54473 26.9838 7.79611 24.2122 6.90423C21.4407 6.01235 18.4576 6.02326 15.6926 6.93538C12.9277 7.8475 10.5236 9.61374 8.82677 11.9797C8.63324 12.249 8.34064 12.4305 8.01333 12.4841C7.68602 12.5377 7.35082 12.4591 7.08146 12.2656C6.8121 12.0721 6.63065 11.7795 6.57702 11.4522C6.5234 11.1249 6.60199 10.7897 6.79552 10.5203C8.80097 7.72424 11.6422 5.63694 14.9099 4.55908C18.1777 3.48123 21.7032 3.46846 24.9786 4.52263C28.2541 5.5768 31.1103 7.64348 33.136 10.4249C35.1616 13.2064 36.2521 16.5591 36.2502 20V20.7328L37.8658 19.1156C38.1004 18.8811 38.4185 18.7493 38.7502 18.7493C39.0819 18.7493 39.4 18.8811 39.6346 19.1156C39.8691 19.3502 40.0009 19.6683 40.0009 20C40.0009 20.3317 39.8691 20.6498 39.6346 20.8844ZM33.2002 29.4781C31.1942 32.2721 28.3534 34.3574 25.0867 35.4341C21.82 36.5107 18.2959 36.523 15.0218 35.4693C11.7477 34.4155 8.89235 32.3501 6.86683 29.5702C4.8413 26.7904 3.75007 23.4395 3.75021 20V19.2672L2.13458 20.8844C1.90003 21.1189 1.58191 21.2507 1.25021 21.2507C0.918502 21.2507 0.600383 21.1189 0.365832 20.8844C0.131281 20.6498 -0.000488281 20.3317 -0.000488281 20C-0.000488281 19.6683 0.131281 19.3502 0.365832 19.1156L4.11583 15.3656C4.23192 15.2494 4.36978 15.1572 4.52153 15.0943C4.67328 15.0314 4.83594 14.999 5.00021 14.999C5.16448 14.999 5.32713 15.0314 5.47888 15.0943C5.63063 15.1572 5.76849 15.2494 5.88458 15.3656L9.63458 19.1156C9.86913 19.3502 10.0009 19.6683 10.0009 20C10.0009 20.3317 9.86913 20.6498 9.63458 20.8844C9.40003 21.1189 9.08191 21.2507 8.75021 21.2507C8.4185 21.2507 8.10038 21.1189 7.86583 20.8844L6.25021 19.2672V20C6.24724 23.3659 7.48435 26.615 9.72521 29.1266C11.1193 27.1064 13.0796 25.5435 15.3596 24.6344C14.1349 23.6698 13.2412 22.3475 12.8028 20.8514C12.3644 19.3553 12.4032 17.7598 12.9136 16.2868C13.4241 14.8137 14.3809 13.5364 15.6509 12.6323C16.921 11.7283 18.4412 11.2425 20.0002 11.2425C21.5592 11.2425 23.0794 11.7283 24.3495 12.6323C25.6196 13.5364 26.5763 14.8137 27.0868 16.2868C27.5972 17.7598 27.636 19.3553 27.1976 20.8514C26.7592 22.3475 25.8655 23.6698 24.6408 24.6344C26.9229 25.5436 28.8846 27.1084 30.2783 29.1312C30.5944 28.7763 30.8922 28.4055 31.1705 28.0203C31.364 27.7509 31.6566 27.5695 31.984 27.5159C32.3113 27.4622 32.6465 27.5408 32.9158 27.7344C33.1852 27.9279 33.3666 28.2205 33.4203 28.5478C33.4739 28.8751 33.3953 29.2103 33.2018 29.4797L33.2002 29.4781ZM20.0002 23.75C20.9891 23.75 21.9558 23.4567 22.7781 22.9073C23.6003 22.3579 24.2412 21.577 24.6196 20.6634C24.998 19.7498 25.0971 18.7444 24.9041 17.7745C24.7112 16.8046 24.235 15.9137 23.5357 15.2145C22.8365 14.5152 21.9456 14.039 20.9757 13.8461C20.0058 13.6531 19.0004 13.7522 18.0868 14.1306C17.1732 14.509 16.3923 15.1499 15.8429 15.9721C15.2935 16.7944 15.0002 17.7611 15.0002 18.75C15.0002 20.0761 15.527 21.3478 16.4647 22.2855C17.4024 23.2232 18.6741 23.75 20.0002 23.75ZM20.0002 33.75C23.0509 33.746 26.0141 32.7299 28.4252 30.8609C27.5209 29.4467 26.2752 28.2828 24.8028 27.4766C23.3305 26.6705 21.6788 26.2479 20.0002 26.2479C18.3216 26.2479 16.67 26.6705 15.1976 27.4766C13.7252 28.2828 12.4795 29.4467 11.5752 30.8609C13.9827 32.7366 16.9483 33.7535 20.0002 33.75Z" fill="url(#paint0_linear_620_19214)"/>
</g>
<defs>
<linearGradient id="paint0_linear_620_19214" x1="-0.000488477" y1="36.2506" x2="31.8221" y2="-2.9057" gradientUnits="userSpaceOnUse">
<stop stop-color="#FFAE41"/>
<stop offset="1" stop-color="#FFC06A"/>
</linearGradient>
<clipPath id="clip0_620_19214">
<rect width="40" height="40" fill="white"/>
</clipPath>
</defs>
</svg>
