<svg width="499" height="210" viewBox="0 0 499 210" fill="none" xmlns="http://www.w3.org/2000/svg">
<path d="M1.91503 17.363L0.823031 17.09C0.823031 16.804 0.879365 16.5223 0.992031 16.245C1.11336 15.959 1.28236 15.6773 1.49903 15.4C1.72436 15.1227 1.99736 14.8627 2.31803 14.62L4.20303 13.203C4.42836 13.047 4.62336 12.8693 4.78803 12.67C4.96136 12.462 5.0957 12.2497 5.19103 12.033C5.28636 11.8077 5.33403 11.591 5.33403 11.383C5.33403 11.0797 5.26036 10.8067 5.11303 10.564C4.9657 10.3127 4.7577 10.1133 4.48903 9.966C4.22036 9.81867 3.90403 9.745 3.54003 9.745C3.1847 9.745 2.8727 9.81433 2.60403 9.953C2.33536 10.083 2.11436 10.2607 1.94103 10.486C1.7677 10.7027 1.64203 10.9367 1.56403 11.188L0.446031 10.967C0.550031 10.577 0.736365 10.213 1.00503 9.875C1.28236 9.537 1.63336 9.264 2.05803 9.056C2.4827 8.848 2.95503 8.744 3.47503 8.744C4.0817 8.744 4.60603 8.861 5.04803 9.095C5.49003 9.32033 5.83236 9.63233 6.07503 10.031C6.32636 10.421 6.45203 10.8673 6.45203 11.37C6.45203 11.8467 6.32203 12.2973 6.06203 12.722C5.80203 13.1467 5.42503 13.5583 4.93103 13.957L3.15003 15.309C2.8987 15.491 2.6777 15.6903 2.48703 15.907C2.30503 16.1237 2.16203 16.3533 2.05803 16.596C1.9627 16.83 1.91503 17.0857 1.91503 17.363ZM0.823031 18V17.09L1.65503 17.025H6.58203V18H0.823031ZM11.5038 18.156C10.8104 18.156 10.1951 17.9567 9.65775 17.558C9.12042 17.1507 8.70008 16.596 8.39675 15.894C8.09342 15.1833 7.94175 14.3687 7.94175 13.45C7.94175 12.5313 8.09342 11.721 8.39675 11.019C8.70008 10.3083 9.11608 9.75367 9.64475 9.355C10.1821 8.94767 10.8018 8.744 11.5038 8.744C12.2058 8.744 12.8211 8.94767 13.3498 9.355C13.8871 9.75367 14.3074 10.3083 14.6108 11.019C14.9228 11.721 15.0788 12.5313 15.0788 13.45C15.0788 14.3687 14.9271 15.1833 14.6238 15.894C14.3204 16.596 13.9001 17.1507 13.3628 17.558C12.8254 17.9567 12.2058 18.156 11.5038 18.156ZM11.5038 17.168C11.9891 17.168 12.4181 17.0077 12.7908 16.687C13.1721 16.3663 13.4668 15.9287 13.6748 15.374C13.8914 14.8193 13.9998 14.178 13.9998 13.45C13.9998 12.722 13.8914 12.0807 13.6748 11.526C13.4668 10.9627 13.1721 10.525 12.7908 10.213C12.4181 9.89233 11.9891 9.732 11.5038 9.732C11.0184 9.732 10.5894 9.89233 10.2168 10.213C9.84408 10.525 9.54942 10.9627 9.33275 11.526C9.12475 12.0807 9.02075 12.722 9.02075 13.45C9.02075 14.178 9.12475 14.8193 9.33275 15.374C9.54942 15.9287 9.84408 16.3663 10.2168 16.687C10.5981 17.0077 11.0271 17.168 11.5038 17.168ZM19.8319 18.156C19.1385 18.156 18.5232 17.9567 17.9859 17.558C17.4485 17.1507 17.0282 16.596 16.7249 15.894C16.4215 15.1833 16.2699 14.3687 16.2699 13.45C16.2699 12.5313 16.4215 11.721 16.7249 11.019C17.0282 10.3083 17.4442 9.75367 17.9729 9.355C18.5102 8.94767 19.1299 8.744 19.8319 8.744C20.5339 8.744 21.1492 8.94767 21.6779 9.355C22.2152 9.75367 22.6355 10.3083 22.9389 11.019C23.2509 11.721 23.4069 12.5313 23.4069 13.45C23.4069 14.3687 23.2552 15.1833 22.9519 15.894C22.6485 16.596 22.2282 17.1507 21.6909 17.558C21.1535 17.9567 20.5339 18.156 19.8319 18.156ZM19.8319 17.168C20.3172 17.168 20.7462 17.0077 21.1189 16.687C21.5002 16.3663 21.7949 15.9287 22.0029 15.374C22.2195 14.8193 22.3279 14.178 22.3279 13.45C22.3279 12.722 22.2195 12.0807 22.0029 11.526C21.7949 10.9627 21.5002 10.525 21.1189 10.213C20.7462 9.89233 20.3172 9.732 19.8319 9.732C19.3465 9.732 18.9175 9.89233 18.5449 10.213C18.1722 10.525 17.8775 10.9627 17.6609 11.526C17.4529 12.0807 17.3489 12.722 17.3489 13.45C17.3489 14.178 17.4529 14.8193 17.6609 15.374C17.8775 15.9287 18.1722 16.3663 18.5449 16.687C18.9262 17.0077 19.3552 17.168 19.8319 17.168Z" fill="#7A7C7F"/>
<path d="M5.63222 62L5.64522 53.485L5.73622 52.9H6.72422L6.69822 62H5.63222ZM3.60422 55.24V54.239C3.78622 54.2477 4.00289 54.187 4.25422 54.057C4.50555 53.927 4.76555 53.758 5.03422 53.55C5.30289 53.342 5.53689 53.1253 5.73622 52.9L6.41222 53.641C6.12622 53.9443 5.82722 54.2173 5.51522 54.46C5.20322 54.7027 4.88689 54.8977 4.56622 55.045C4.24555 55.1837 3.92489 55.2487 3.60422 55.24ZM11.9643 62.156C11.6003 62.156 11.2277 62.104 10.8463 62C10.4737 61.8873 10.1183 61.7183 9.78034 61.493C9.451 61.2677 9.178 60.9773 8.96134 60.622L9.84534 60.115C10.1487 60.4963 10.478 60.7737 10.8333 60.947C11.1887 61.1203 11.557 61.207 11.9383 61.207C12.5363 61.207 13.0217 61.025 13.3943 60.661C13.7757 60.2883 13.9663 59.803 13.9663 59.205C13.9663 58.6157 13.7843 58.1347 13.4203 57.762C13.0563 57.3893 12.5797 57.203 11.9903 57.203C11.6697 57.203 11.3533 57.2767 11.0413 57.424C10.7293 57.5627 10.4867 57.736 10.3133 57.944L9.32534 57.71L9.76734 52.9H14.6163V53.888H9.83234L9.76734 52.939H10.8593L10.3523 57.762L9.50734 57.71C9.62867 57.5193 9.78034 57.3417 9.96234 57.177C10.1443 57.0123 10.3523 56.865 10.5863 56.735C10.829 56.5963 11.0847 56.488 11.3533 56.41C11.622 56.332 11.895 56.2973 12.1723 56.306C12.727 56.306 13.221 56.4273 13.6543 56.67C14.0877 56.9127 14.43 57.2507 14.6813 57.684C14.9327 58.1173 15.0583 58.6157 15.0583 59.179C15.0583 59.7683 14.924 60.2883 14.6553 60.739C14.3953 61.181 14.0313 61.5277 13.5633 61.779C13.104 62.0303 12.571 62.156 11.9643 62.156ZM19.8319 62.156C19.1385 62.156 18.5232 61.9567 17.9859 61.558C17.4485 61.1507 17.0282 60.596 16.7249 59.894C16.4215 59.1833 16.2699 58.3687 16.2699 57.45C16.2699 56.5313 16.4215 55.721 16.7249 55.019C17.0282 54.3083 17.4442 53.7537 17.9729 53.355C18.5102 52.9477 19.1299 52.744 19.8319 52.744C20.5339 52.744 21.1492 52.9477 21.6779 53.355C22.2152 53.7537 22.6355 54.3083 22.9389 55.019C23.2509 55.721 23.4069 56.5313 23.4069 57.45C23.4069 58.3687 23.2552 59.1833 22.9519 59.894C22.6485 60.596 22.2282 61.1507 21.6909 61.558C21.1535 61.9567 20.5339 62.156 19.8319 62.156ZM19.8319 61.168C20.3172 61.168 20.7462 61.0077 21.1189 60.687C21.5002 60.3663 21.7949 59.9287 22.0029 59.374C22.2195 58.8193 22.3279 58.178 22.3279 57.45C22.3279 56.722 22.2195 56.0807 22.0029 55.526C21.7949 54.9627 21.5002 54.525 21.1189 54.213C20.7462 53.8923 20.3172 53.732 19.8319 53.732C19.3465 53.732 18.9175 53.8923 18.5449 54.213C18.1722 54.525 17.8775 54.9627 17.6609 55.526C17.4529 56.0807 17.3489 56.722 17.3489 57.45C17.3489 58.178 17.4529 58.8193 17.6609 59.374C17.8775 59.9287 18.1722 60.3663 18.5449 60.687C18.9262 61.0077 19.3552 61.168 19.8319 61.168Z" fill="#7A7C7F"/>
<path d="M4.78163 106L4.79463 97.485L4.88563 96.9H5.87363L5.84763 106H4.78163ZM2.75363 99.24V98.239C2.93563 98.2477 3.1523 98.187 3.40363 98.057C3.65497 97.927 3.91497 97.758 4.18363 97.55C4.4523 97.342 4.6863 97.1253 4.88563 96.9L5.56163 97.641C5.27563 97.9443 4.97663 98.2173 4.66463 98.46C4.35263 98.7027 4.0363 98.8977 3.71563 99.045C3.39497 99.1837 3.0743 99.2487 2.75363 99.24ZM11.5038 106.156C10.8104 106.156 10.1951 105.957 9.65775 105.558C9.12042 105.151 8.70008 104.596 8.39675 103.894C8.09342 103.183 7.94175 102.369 7.94175 101.45C7.94175 100.531 8.09342 99.721 8.39675 99.019C8.70008 98.3083 9.11608 97.7537 9.64475 97.355C10.1821 96.9477 10.8018 96.744 11.5038 96.744C12.2058 96.744 12.8211 96.9477 13.3498 97.355C13.8871 97.7537 14.3074 98.3083 14.6108 99.019C14.9228 99.721 15.0788 100.531 15.0788 101.45C15.0788 102.369 14.9271 103.183 14.6238 103.894C14.3204 104.596 13.9001 105.151 13.3628 105.558C12.8254 105.957 12.2058 106.156 11.5038 106.156ZM11.5038 105.168C11.9891 105.168 12.4181 105.008 12.7908 104.687C13.1721 104.366 13.4668 103.929 13.6748 103.374C13.8914 102.819 13.9998 102.178 13.9998 101.45C13.9998 100.722 13.8914 100.081 13.6748 99.526C13.4668 98.9627 13.1721 98.525 12.7908 98.213C12.4181 97.8923 11.9891 97.732 11.5038 97.732C11.0184 97.732 10.5894 97.8923 10.2168 98.213C9.84408 98.525 9.54942 98.9627 9.33275 99.526C9.12475 100.081 9.02075 100.722 9.02075 101.45C9.02075 102.178 9.12475 102.819 9.33275 103.374C9.54942 103.929 9.84408 104.366 10.2168 104.687C10.5981 105.008 11.0271 105.168 11.5038 105.168ZM19.8319 106.156C19.1385 106.156 18.5232 105.957 17.9859 105.558C17.4485 105.151 17.0282 104.596 16.7249 103.894C16.4215 103.183 16.2699 102.369 16.2699 101.45C16.2699 100.531 16.4215 99.721 16.7249 99.019C17.0282 98.3083 17.4442 97.7537 17.9729 97.355C18.5102 96.9477 19.1299 96.744 19.8319 96.744C20.5339 96.744 21.1492 96.9477 21.6779 97.355C22.2152 97.7537 22.6355 98.3083 22.9389 99.019C23.2509 99.721 23.4069 100.531 23.4069 101.45C23.4069 102.369 23.2552 103.183 22.9519 103.894C22.6485 104.596 22.2282 105.151 21.6909 105.558C21.1535 105.957 20.5339 106.156 19.8319 106.156ZM19.8319 105.168C20.3172 105.168 20.7462 105.008 21.1189 104.687C21.5002 104.366 21.7949 103.929 22.0029 103.374C22.2195 102.819 22.3279 102.178 22.3279 101.45C22.3279 100.722 22.2195 100.081 22.0029 99.526C21.7949 98.9627 21.5002 98.525 21.1189 98.213C20.7462 97.8923 20.3172 97.732 19.8319 97.732C19.3465 97.732 18.9175 97.8923 18.5449 98.213C18.1722 98.525 17.8775 98.9627 17.6609 99.526C17.4529 100.081 17.3489 100.722 17.3489 101.45C17.3489 102.178 17.4529 102.819 17.6609 103.374C17.8775 103.929 18.1722 104.366 18.5449 104.687C18.9262 105.008 19.3552 105.168 19.8319 105.168Z" fill="#7A7C7F"/>
<path d="M11.9643 150.156C11.6003 150.156 11.2277 150.104 10.8463 150C10.4737 149.887 10.1183 149.718 9.78034 149.493C9.451 149.268 9.178 148.977 8.96134 148.622L9.84534 148.115C10.1487 148.496 10.478 148.774 10.8333 148.947C11.1887 149.12 11.557 149.207 11.9383 149.207C12.5363 149.207 13.0217 149.025 13.3943 148.661C13.7757 148.288 13.9663 147.803 13.9663 147.205C13.9663 146.616 13.7843 146.135 13.4203 145.762C13.0563 145.389 12.5797 145.203 11.9903 145.203C11.6697 145.203 11.3533 145.277 11.0413 145.424C10.7293 145.563 10.4867 145.736 10.3133 145.944L9.32534 145.71L9.76734 140.9H14.6163V141.888H9.83234L9.76734 140.939H10.8593L10.3523 145.762L9.50734 145.71C9.62867 145.519 9.78034 145.342 9.96234 145.177C10.1443 145.012 10.3523 144.865 10.5863 144.735C10.829 144.596 11.0847 144.488 11.3533 144.41C11.622 144.332 11.895 144.297 12.1723 144.306C12.727 144.306 13.221 144.427 13.6543 144.67C14.0877 144.913 14.43 145.251 14.6813 145.684C14.9327 146.117 15.0583 146.616 15.0583 147.179C15.0583 147.768 14.924 148.288 14.6553 148.739C14.3953 149.181 14.0313 149.528 13.5633 149.779C13.104 150.03 12.571 150.156 11.9643 150.156ZM19.8319 150.156C19.1385 150.156 18.5232 149.957 17.9859 149.558C17.4485 149.151 17.0282 148.596 16.7249 147.894C16.4215 147.183 16.2699 146.369 16.2699 145.45C16.2699 144.531 16.4215 143.721 16.7249 143.019C17.0282 142.308 17.4442 141.754 17.9729 141.355C18.5102 140.948 19.1299 140.744 19.8319 140.744C20.5339 140.744 21.1492 140.948 21.6779 141.355C22.2152 141.754 22.6355 142.308 22.9389 143.019C23.2509 143.721 23.4069 144.531 23.4069 145.45C23.4069 146.369 23.2552 147.183 22.9519 147.894C22.6485 148.596 22.2282 149.151 21.6909 149.558C21.1535 149.957 20.5339 150.156 19.8319 150.156ZM19.8319 149.168C20.3172 149.168 20.7462 149.008 21.1189 148.687C21.5002 148.366 21.7949 147.929 22.0029 147.374C22.2195 146.819 22.3279 146.178 22.3279 145.45C22.3279 144.722 22.2195 144.081 22.0029 143.526C21.7949 142.963 21.5002 142.525 21.1189 142.213C20.7462 141.892 20.3172 141.732 19.8319 141.732C19.3465 141.732 18.9175 141.892 18.5449 142.213C18.1722 142.525 17.8775 142.963 17.6609 143.526C17.4529 144.081 17.3489 144.722 17.3489 145.45C17.3489 146.178 17.4529 146.819 17.6609 147.374C17.8775 147.929 18.1722 148.366 18.5449 148.687C18.9262 149.008 19.3552 149.168 19.8319 149.168Z" fill="#7A7C7F"/>
<path d="M19.8319 194.156C19.1385 194.156 18.5232 193.957 17.9859 193.558C17.4485 193.151 17.0282 192.596 16.7249 191.894C16.4215 191.183 16.2699 190.369 16.2699 189.45C16.2699 188.531 16.4215 187.721 16.7249 187.019C17.0282 186.308 17.4442 185.754 17.9729 185.355C18.5102 184.948 19.1299 184.744 19.8319 184.744C20.5339 184.744 21.1492 184.948 21.6779 185.355C22.2152 185.754 22.6355 186.308 22.9389 187.019C23.2509 187.721 23.4069 188.531 23.4069 189.45C23.4069 190.369 23.2552 191.183 22.9519 191.894C22.6485 192.596 22.2282 193.151 21.6909 193.558C21.1535 193.957 20.5339 194.156 19.8319 194.156ZM19.8319 193.168C20.3172 193.168 20.7462 193.008 21.1189 192.687C21.5002 192.366 21.7949 191.929 22.0029 191.374C22.2195 190.819 22.3279 190.178 22.3279 189.45C22.3279 188.722 22.2195 188.081 22.0029 187.526C21.7949 186.963 21.5002 186.525 21.1189 186.213C20.7462 185.892 20.3172 185.732 19.8319 185.732C19.3465 185.732 18.9175 185.892 18.5449 186.213C18.1722 186.525 17.8775 186.963 17.6609 187.526C17.4529 188.081 17.3489 188.722 17.3489 189.45C17.3489 190.178 17.4529 190.819 17.6609 191.374C17.8775 191.929 18.1722 192.366 18.5449 192.687C18.9262 193.008 19.3552 193.168 19.8319 193.168Z" fill="#7A7C7F"/>
<rect x="49" y="170" width="162" height="1" transform="rotate(-90 49 170)" fill="#ECEAF3"/>
<rect x="122" y="170" width="162" height="1" transform="rotate(-90 122 170)" fill="#ECEAF3"/>
<rect x="195" y="170" width="162" height="1" transform="rotate(-90 195 170)" fill="#ECEAF3"/>
<rect x="268" y="170" width="162" height="1" transform="rotate(-90 268 170)" fill="#ECEAF3"/>
<rect x="341" y="170" width="162" height="1" transform="rotate(-90 341 170)" fill="#ECEAF3"/>
<rect x="414" y="170" width="162" height="1" transform="rotate(-90 414 170)" fill="#ECEAF3"/>
<rect x="487" y="170" width="162" height="1" transform="rotate(-90 487 170)" fill="#ECEAF3"/>
<rect x="50" y="104.621" width="438" height="0.578571" fill="#ECEAF3"/>
<rect x="50" y="137.021" width="438" height="0.578571" fill="#ECEAF3"/>
<rect x="50" y="169.421" width="438" height="0.578571" fill="#ECEAF3"/>
<rect x="50" y="72.2214" width="438" height="0.578571" fill="#ECEAF3"/>
<rect x="50" y="40.4" width="438" height="0.578571" fill="#ECEAF3"/>
<rect x="50" y="8" width="438" height="0.578571" fill="#ECEAF3"/>
<path d="M56.6069 195.913L52.4989 189.842L52.9409 189.608L53.4609 189.4L57.1399 194.847L56.6069 195.913ZM52.3169 198.5V189.4H53.4219V198.5H52.3169ZM56.6069 195.913L56.0739 194.847L59.7529 189.4L60.2729 189.608L60.7019 189.829L56.6069 195.913ZM59.7919 198.5V189.4H60.8839V198.5H59.7919ZM65.8851 198.656C65.2524 198.656 64.6891 198.513 64.1951 198.227C63.7097 197.932 63.3284 197.529 63.0511 197.018C62.7737 196.507 62.6351 195.917 62.6351 195.25C62.6351 194.583 62.7694 193.993 63.0381 193.482C63.3154 192.971 63.6967 192.572 64.1821 192.286C64.6761 191.991 65.2351 191.844 65.8591 191.844C66.5004 191.844 67.0637 191.991 67.5491 192.286C68.0431 192.572 68.4244 192.971 68.6931 193.482C68.9704 193.993 69.1091 194.583 69.1091 195.25C69.1091 195.917 68.9704 196.507 68.6931 197.018C68.4244 197.529 68.0474 197.932 67.5621 198.227C67.0767 198.513 66.5177 198.656 65.8851 198.656ZM65.8851 197.694C66.3184 197.694 66.6954 197.59 67.0161 197.382C67.3367 197.174 67.5881 196.888 67.7701 196.524C67.9607 196.16 68.0561 195.735 68.0561 195.25C68.0561 194.765 67.9607 194.34 67.7701 193.976C67.5881 193.612 67.3324 193.326 67.0031 193.118C66.6737 192.91 66.2924 192.806 65.8591 192.806C65.4344 192.806 65.0574 192.91 64.7281 193.118C64.4074 193.326 64.1517 193.612 63.9611 193.976C63.7791 194.34 63.6881 194.765 63.6881 195.25C63.6881 195.727 63.7791 196.151 63.9611 196.524C64.1517 196.888 64.4117 197.174 64.7411 197.382C65.0791 197.59 65.4604 197.694 65.8851 197.694ZM70.5531 198.5V192H71.5281L71.5931 193.196V198.5H70.5531ZM75.1161 198.5V195.172L76.1561 194.782V198.5H75.1161ZM75.1161 195.172C75.1161 194.531 75.0424 194.041 74.8951 193.703C74.7477 193.365 74.5441 193.135 74.2841 193.014C74.0241 192.884 73.7294 192.819 73.4001 192.819C72.8281 192.819 72.3817 193.023 72.0611 193.43C71.7491 193.829 71.5931 194.396 71.5931 195.133H71.0861C71.0861 194.448 71.1857 193.859 71.3851 193.365C71.5844 192.871 71.8704 192.494 72.2431 192.234C72.6244 191.974 73.0837 191.844 73.6211 191.844C74.4097 191.844 75.0294 192.087 75.4801 192.572C75.9394 193.057 76.1647 193.794 76.1561 194.782L75.1161 195.172Z" fill="#7A7C7F"/>
<path d="M124.921 198.5V190.154H126.013V198.5H124.921ZM122.022 190.401V189.4H128.912V190.401H122.022ZM133.811 198.5L133.746 197.304V192H134.786V198.5H133.811ZM129.183 195.718V192H130.223V195.328L129.183 195.718ZM130.223 195.328C130.223 195.969 130.297 196.459 130.444 196.797C130.592 197.135 130.795 197.369 131.055 197.499C131.324 197.62 131.623 197.681 131.952 197.681C132.516 197.681 132.953 197.477 133.265 197.07C133.586 196.663 133.746 196.095 133.746 195.367H134.253C134.253 196.052 134.154 196.641 133.954 197.135C133.755 197.629 133.465 198.006 133.083 198.266C132.711 198.526 132.256 198.656 131.718 198.656C130.93 198.656 130.306 198.413 129.846 197.928C129.396 197.443 129.175 196.706 129.183 195.718L130.223 195.328ZM139.448 198.656C138.816 198.656 138.257 198.513 137.771 198.227C137.286 197.932 136.905 197.529 136.627 197.018C136.359 196.507 136.224 195.917 136.224 195.25C136.224 194.583 136.359 193.993 136.627 193.482C136.905 192.971 137.282 192.572 137.758 192.286C138.244 191.991 138.798 191.844 139.422 191.844C140.02 191.844 140.54 191.996 140.982 192.299C141.433 192.594 141.78 193.01 142.022 193.547C142.265 194.084 142.386 194.717 142.386 195.445H141.346C141.346 194.89 141.273 194.418 141.125 194.028C140.978 193.629 140.757 193.322 140.462 193.105C140.176 192.888 139.825 192.78 139.409 192.78C138.985 192.78 138.608 192.884 138.278 193.092C137.958 193.291 137.711 193.577 137.537 193.95C137.364 194.323 137.277 194.76 137.277 195.263C137.277 195.757 137.373 196.186 137.563 196.55C137.754 196.905 138.018 197.187 138.356 197.395C138.694 197.594 139.076 197.694 139.5 197.694C139.951 197.694 140.332 197.586 140.644 197.369C140.956 197.152 141.203 196.871 141.385 196.524L142.295 196.979C142.131 197.317 141.91 197.612 141.632 197.863C141.364 198.114 141.043 198.309 140.67 198.448C140.306 198.587 139.899 198.656 139.448 198.656ZM136.913 195.445L136.926 194.548H141.749V195.445H136.913Z" fill="#7A7C7F"/>
<path d="M195.773 198.5L198.581 189.4H199.686L196.865 198.5H195.773ZM190.235 198.5L187.453 189.4H188.558L191.314 198.5H190.235ZM190.352 198.5L193.03 189.4H194.083L191.405 198.5H190.352ZM195.682 198.5L193.069 189.4H194.122L196.774 198.5H195.682ZM203.04 198.656C202.407 198.656 201.848 198.513 201.363 198.227C200.877 197.932 200.496 197.529 200.219 197.018C199.95 196.507 199.816 195.917 199.816 195.25C199.816 194.583 199.95 193.993 200.219 193.482C200.496 192.971 200.873 192.572 201.35 192.286C201.835 191.991 202.39 191.844 203.014 191.844C203.612 191.844 204.132 191.996 204.574 192.299C205.024 192.594 205.371 193.01 205.614 193.547C205.856 194.084 205.978 194.717 205.978 195.445H204.938C204.938 194.89 204.864 194.418 204.717 194.028C204.569 193.629 204.348 193.322 204.054 193.105C203.768 192.888 203.417 192.78 203.001 192.78C202.576 192.78 202.199 192.884 201.87 193.092C201.549 193.291 201.302 193.577 201.129 193.95C200.955 194.323 200.869 194.76 200.869 195.263C200.869 195.757 200.964 196.186 201.155 196.55C201.345 196.905 201.61 197.187 201.948 197.395C202.286 197.594 202.667 197.694 203.092 197.694C203.542 197.694 203.924 197.586 204.236 197.369C204.548 197.152 204.795 196.871 204.977 196.524L205.887 196.979C205.722 197.317 205.501 197.612 205.224 197.863C204.955 198.114 204.634 198.309 204.262 198.448C203.898 198.587 203.49 198.656 203.04 198.656ZM200.505 195.445L200.518 194.548H205.341V195.445H200.505ZM212.099 198.5L212.047 197.291V189.4H213.087V198.5H212.099ZM209.85 198.656C209.27 198.656 208.758 198.513 208.316 198.227C207.874 197.941 207.528 197.542 207.276 197.031C207.034 196.511 206.912 195.917 206.912 195.25C206.912 194.574 207.034 193.98 207.276 193.469C207.528 192.958 207.874 192.559 208.316 192.273C208.758 191.987 209.27 191.844 209.85 191.844C210.396 191.844 210.873 191.987 211.28 192.273C211.696 192.559 212.017 192.958 212.242 193.469C212.468 193.98 212.58 194.574 212.58 195.25C212.58 195.917 212.468 196.511 212.242 197.031C212.017 197.542 211.696 197.941 211.28 198.227C210.873 198.513 210.396 198.656 209.85 198.656ZM210.084 197.707C210.466 197.707 210.804 197.603 211.098 197.395C211.393 197.187 211.623 196.897 211.787 196.524C211.961 196.151 212.047 195.727 212.047 195.25C212.047 194.773 211.961 194.349 211.787 193.976C211.623 193.603 211.393 193.313 211.098 193.105C210.804 192.897 210.461 192.793 210.071 192.793C209.664 192.793 209.3 192.897 208.979 193.105C208.667 193.313 208.42 193.603 208.238 193.976C208.056 194.349 207.965 194.773 207.965 195.25C207.965 195.727 208.056 196.151 208.238 196.524C208.42 196.897 208.672 197.187 208.992 197.395C209.313 197.603 209.677 197.707 210.084 197.707Z" fill="#7A7C7F"/>
<path d="M261.207 198.5V190.154H262.299V198.5H261.207ZM258.308 190.401V189.4H265.198V190.401H258.308ZM266.247 198.5V189.231H267.287V198.5H266.247ZM270.823 198.5V195.172L271.863 194.782V198.5H270.823ZM270.823 195.172C270.823 194.531 270.745 194.041 270.589 193.703C270.442 193.365 270.238 193.135 269.978 193.014C269.718 192.884 269.424 192.819 269.094 192.819C268.522 192.819 268.076 193.023 267.755 193.43C267.443 193.829 267.287 194.396 267.287 195.133H266.78C266.78 194.448 266.88 193.859 267.079 193.365C267.279 192.871 267.569 192.494 267.95 192.234C268.332 191.974 268.791 191.844 269.328 191.844C270.108 191.844 270.728 192.087 271.187 192.572C271.647 193.057 271.872 193.794 271.863 194.782L270.823 195.172ZM277.955 198.5L277.89 197.304V192H278.93V198.5H277.955ZM273.327 195.718V192H274.367V195.328L273.327 195.718ZM274.367 195.328C274.367 195.969 274.441 196.459 274.588 196.797C274.736 197.135 274.939 197.369 275.199 197.499C275.468 197.62 275.767 197.681 276.096 197.681C276.66 197.681 277.097 197.477 277.409 197.07C277.73 196.663 277.89 196.095 277.89 195.367H278.397C278.397 196.052 278.298 196.641 278.098 197.135C277.899 197.629 277.609 198.006 277.227 198.266C276.855 198.526 276.4 198.656 275.862 198.656C275.074 198.656 274.45 198.413 273.99 197.928C273.54 197.443 273.319 196.706 273.327 195.718L274.367 195.328Z" fill="#7A7C7F"/>
<path d="M331.37 198.5V189.4H332.475V198.5H331.37ZM332.371 194.509V193.508H336.271V194.509H332.371ZM332.371 190.401V189.4H336.778V190.401H332.371ZM338.574 194.977C338.574 194.275 338.709 193.707 338.977 193.274C339.246 192.832 339.588 192.507 340.004 192.299C340.429 192.082 340.875 191.974 341.343 191.974V192.949C340.962 192.949 340.594 193.014 340.238 193.144C339.892 193.265 339.606 193.469 339.38 193.755C339.155 194.041 339.042 194.431 339.042 194.925L338.574 194.977ZM338.002 198.5V192H339.042V198.5H338.002ZM342.46 198.5L342.486 192H343.526L343.5 198.5H342.46ZM342.993 190.492C342.82 190.492 342.668 190.427 342.538 190.297C342.408 190.167 342.343 190.015 342.343 189.842C342.343 189.66 342.408 189.508 342.538 189.387C342.668 189.257 342.82 189.192 342.993 189.192C343.175 189.192 343.327 189.257 343.448 189.387C343.578 189.508 343.643 189.66 343.643 189.842C343.643 190.015 343.578 190.167 343.448 190.297C343.327 190.427 343.175 190.492 342.993 190.492Z" fill="#7A7C7F"/>
<path d="M400.025 198.656C399.522 198.656 399.076 198.604 398.686 198.5C398.296 198.387 397.958 198.236 397.672 198.045C397.386 197.846 397.152 197.629 396.97 197.395C396.788 197.152 396.653 196.897 396.567 196.628L397.62 196.264C397.75 196.645 398.01 196.979 398.4 197.265C398.798 197.542 399.284 197.681 399.856 197.681C400.558 197.681 401.108 197.542 401.507 197.265C401.905 196.988 402.105 196.619 402.105 196.16C402.105 195.735 401.927 195.393 401.572 195.133C401.216 194.864 400.748 194.656 400.168 194.509L399.167 194.249C398.759 194.145 398.382 193.993 398.036 193.794C397.698 193.586 397.425 193.326 397.217 193.014C397.017 192.693 396.918 192.312 396.918 191.87C396.918 191.047 397.182 190.405 397.711 189.946C398.248 189.478 399.019 189.244 400.025 189.244C400.623 189.244 401.138 189.344 401.572 189.543C402.005 189.734 402.356 189.981 402.625 190.284C402.902 190.579 403.097 190.899 403.21 191.246L402.17 191.61C402.005 191.177 401.728 190.839 401.338 190.596C400.948 190.345 400.475 190.219 399.921 190.219C399.34 190.219 398.876 190.362 398.53 190.648C398.192 190.925 398.023 191.307 398.023 191.792C398.023 192.208 398.157 192.529 398.426 192.754C398.694 192.971 399.045 193.131 399.479 193.235L400.48 193.482C401.364 193.69 402.04 194.037 402.508 194.522C402.984 194.999 403.223 195.514 403.223 196.069C403.223 196.546 403.101 196.983 402.859 197.382C402.616 197.772 402.256 198.084 401.78 198.318C401.312 198.543 400.727 198.656 400.025 198.656ZM408.803 198.5L408.738 197.434V195.068C408.738 194.557 408.677 194.136 408.556 193.807C408.443 193.469 408.266 193.218 408.023 193.053C407.789 192.88 407.477 192.793 407.087 192.793C406.714 192.793 406.389 192.867 406.112 193.014C405.843 193.161 405.622 193.391 405.449 193.703L404.513 193.326C404.686 193.023 404.894 192.758 405.137 192.533C405.38 192.308 405.661 192.139 405.982 192.026C406.311 191.905 406.684 191.844 407.1 191.844C407.698 191.844 408.196 191.961 408.595 192.195C408.994 192.429 409.293 192.78 409.492 193.248C409.691 193.707 409.787 194.284 409.778 194.977L409.765 198.5H408.803ZM406.853 198.656C406.09 198.656 405.492 198.483 405.059 198.136C404.634 197.781 404.422 197.291 404.422 196.667C404.422 196.008 404.639 195.506 405.072 195.159C405.514 194.804 406.129 194.626 406.918 194.626H408.777V195.497H407.152C406.545 195.497 406.112 195.597 405.852 195.796C405.601 195.995 405.475 196.281 405.475 196.654C405.475 196.992 405.601 197.261 405.852 197.46C406.103 197.651 406.454 197.746 406.905 197.746C407.278 197.746 407.603 197.659 407.88 197.486C408.157 197.313 408.37 197.079 408.517 196.784C408.664 196.481 408.738 196.138 408.738 195.757H409.375C409.375 196.641 409.158 197.347 408.725 197.876C408.292 198.396 407.668 198.656 406.853 198.656ZM413.87 198.656C413.237 198.656 412.748 198.491 412.401 198.162C412.054 197.833 411.881 197.369 411.881 196.771V189.972H412.921V196.667C412.921 196.996 413.008 197.252 413.181 197.434C413.363 197.607 413.614 197.694 413.935 197.694C414.039 197.694 414.139 197.681 414.234 197.655C414.338 197.62 414.472 197.542 414.637 197.421L415.04 198.266C414.815 198.413 414.611 198.513 414.429 198.565C414.247 198.626 414.061 198.656 413.87 198.656ZM410.75 192.923V192H414.871V192.923H410.75Z" fill="#7A7C7F"/>
<path d="M466.879 198.656C466.377 198.656 465.93 198.604 465.54 198.5C465.15 198.387 464.812 198.236 464.526 198.045C464.24 197.846 464.006 197.629 463.824 197.395C463.642 197.152 463.508 196.897 463.421 196.628L464.474 196.264C464.604 196.645 464.864 196.979 465.254 197.265C465.653 197.542 466.138 197.681 466.71 197.681C467.412 197.681 467.963 197.542 468.361 197.265C468.76 196.988 468.959 196.619 468.959 196.16C468.959 195.735 468.782 195.393 468.426 195.133C468.071 194.864 467.603 194.656 467.022 194.509L466.021 194.249C465.614 194.145 465.237 193.993 464.89 193.794C464.552 193.586 464.279 193.326 464.071 193.014C463.872 192.693 463.772 192.312 463.772 191.87C463.772 191.047 464.037 190.405 464.565 189.946C465.103 189.478 465.874 189.244 466.879 189.244C467.477 189.244 467.993 189.344 468.426 189.543C468.86 189.734 469.211 189.981 469.479 190.284C469.757 190.579 469.952 190.899 470.064 191.246L469.024 191.61C468.86 191.177 468.582 190.839 468.192 190.596C467.802 190.345 467.33 190.219 466.775 190.219C466.195 190.219 465.731 190.362 465.384 190.648C465.046 190.925 464.877 191.307 464.877 191.792C464.877 192.208 465.012 192.529 465.28 192.754C465.549 192.971 465.9 193.131 466.333 193.235L467.334 193.482C468.218 193.69 468.894 194.037 469.362 194.522C469.839 194.999 470.077 195.514 470.077 196.069C470.077 196.546 469.956 196.983 469.713 197.382C469.471 197.772 469.111 198.084 468.634 198.318C468.166 198.543 467.581 198.656 466.879 198.656ZM476.113 198.5L476.048 197.304V192H477.088V198.5H476.113ZM471.485 195.718V192H472.525V195.328L471.485 195.718ZM472.525 195.328C472.525 195.969 472.598 196.459 472.746 196.797C472.893 197.135 473.097 197.369 473.357 197.499C473.625 197.62 473.924 197.681 474.254 197.681C474.817 197.681 475.255 197.477 475.567 197.07C475.887 196.663 476.048 196.095 476.048 195.367H476.555C476.555 196.052 476.455 196.641 476.256 197.135C476.056 197.629 475.766 198.006 475.385 198.266C475.012 198.526 474.557 198.656 474.02 198.656C473.231 198.656 472.607 198.413 472.148 197.928C471.697 197.443 471.476 196.706 471.485 195.718L472.525 195.328ZM478.903 198.5V192H479.878L479.943 193.196V198.5H478.903ZM483.466 198.5V195.172L484.506 194.782V198.5H483.466ZM483.466 195.172C483.466 194.531 483.392 194.041 483.245 193.703C483.097 193.365 482.894 193.135 482.634 193.014C482.374 192.884 482.079 192.819 481.75 192.819C481.178 192.819 480.731 193.023 480.411 193.43C480.099 193.829 479.943 194.396 479.943 195.133H479.436C479.436 194.448 479.535 193.859 479.735 193.365C479.934 192.871 480.22 192.494 480.593 192.234C480.974 191.974 481.433 191.844 481.971 191.844C482.759 191.844 483.379 192.087 483.83 192.572C484.289 193.057 484.514 193.794 484.506 194.782L483.466 195.172Z" fill="#7A7C7F"/>
<path d="M50 133.494L89.2986 122.488C89.4325 122.45 89.5621 122.399 89.6854 122.334L118.863 107.088C119.275 106.873 119.748 106.808 120.203 106.904L160.028 115.315C160.64 115.444 161.278 115.279 161.751 114.87L217.176 66.8525C217.39 66.6677 217.64 66.5302 217.91 66.4489L268.147 51.3429C268.958 51.099 269.835 51.3924 270.336 52.0753L299.627 92.0098C299.87 92.3409 300.209 92.5892 300.597 92.721L340.757 106.334C341.512 106.59 342.346 106.373 342.881 105.783L372.494 73.1052C373.297 72.2199 374.691 72.2309 375.479 73.1287L403.811 105.401C404.487 106.171 405.635 106.306 406.47 105.714L425.962 91.9082C426.826 91.2964 428.017 91.4636 428.679 92.2895L466.699 139.727C467.85 141.163 470.167 140.412 470.257 138.573L472.474 93.0523C472.491 92.7026 472.6 92.3634 472.789 92.0688L488 68.3844" stroke="url(#paint0_linear_620_17053)" stroke-width="4.10839" stroke-linecap="round"/>
<path d="M50 112.795L92.4439 77.4621C92.8033 77.1629 93.256 76.9992 93.7235 76.9992L168.336 76.9992C168.994 76.9992 169.61 77.3227 169.983 77.8645L209.933 135.852C210.496 136.669 211.573 136.95 212.463 136.511L266.825 109.734C267.26 109.52 267.758 109.471 268.227 109.597L308.393 120.384C309.055 120.562 309.762 120.388 310.267 119.924L338.21 94.1811L374.074 58.4537C374.873 57.6577 376.172 57.6795 376.944 58.5019L407.739 91.3102C407.855 91.4339 407.987 91.5422 408.13 91.6328L452.259 119.485C453.263 120.118 454.594 119.743 455.12 118.679L488 52.0892" stroke="url(#paint1_linear_620_17053)" stroke-width="4.10839" stroke-linecap="round"/>
<path d="M51.5 76.9991L102.109 49.6483C102.924 49.2077 103.936 49.3849 104.552 50.0764L140.378 90.2385C141.026 90.9653 142.104 91.1194 142.93 90.6035L181.306 66.638C182.022 66.1907 182.942 66.2414 183.605 66.7646L227.743 101.611C228.478 102.191 229.517 102.184 230.243 101.594L267.361 71.4442C267.453 71.3689 267.539 71.2855 267.617 71.1949L306.041 26.4607C306.819 25.5554 308.211 25.5283 309.024 26.4026L342.127 62.0351C342.883 62.8492 344.158 62.8907 344.966 62.1274L383.497 25.7104C384.101 25.1398 384.994 25.0018 385.742 25.3636L413.713 38.9C413.903 38.9921 414.078 39.1137 414.23 39.2604L447.107 70.9518C447.364 71.2001 447.684 71.3747 448.032 71.4575L487.5 80.8487" stroke="url(#paint2_linear_620_17053)" stroke-width="4.10839" stroke-linecap="round"/>
<g filter="url(#filter0_d_620_17053)">
<circle cx="230.479" cy="100.479" r="8.47867" fill="url(#paint3_linear_620_17053)"/>
<circle cx="230.479" cy="100.479" r="10.0202" stroke="white" stroke-width="3.08315"/>
</g>
<g filter="url(#filter1_d_620_17053)">
<rect x="199" y="36" width="61" height="44" rx="10" fill="white" shape-rendering="crispEdges"/>
<path d="M221.764 56V47.849L221.933 46.9H223.467L223.454 56H221.764ZM219.84 49.773V48.161C220.057 48.1783 220.291 48.1263 220.542 48.005C220.794 47.875 221.041 47.7103 221.283 47.511C221.535 47.303 221.751 47.095 221.933 46.887L223.064 47.992C222.752 48.3387 222.423 48.655 222.076 48.941C221.73 49.2183 221.37 49.435 220.997 49.591C220.633 49.747 220.248 49.8077 219.84 49.773ZM227.119 55.623L225.377 54.687C225.377 54.4357 225.455 54.1583 225.611 53.855C225.767 53.5517 225.984 53.2483 226.261 52.945C226.538 52.6417 226.863 52.36 227.236 52.1L228.614 51.112C228.805 50.982 228.982 50.8347 229.147 50.67C229.32 50.5053 229.459 50.3277 229.563 50.137C229.676 49.9377 229.732 49.747 229.732 49.565C229.732 49.3397 229.676 49.136 229.563 48.954C229.459 48.772 229.303 48.629 229.095 48.525C228.887 48.421 228.631 48.369 228.328 48.369C228.068 48.369 227.834 48.421 227.626 48.525C227.427 48.629 227.262 48.7677 227.132 48.941C227.002 49.1143 226.911 49.3007 226.859 49.5L225.026 49.188C225.113 48.7547 225.299 48.3517 225.585 47.979C225.871 47.6063 226.244 47.3073 226.703 47.082C227.171 46.848 227.7 46.731 228.289 46.731C228.965 46.731 229.546 46.8523 230.031 47.095C230.516 47.3377 230.889 47.6713 231.149 48.096C231.418 48.512 231.552 48.9973 231.552 49.552C231.552 50.1153 231.396 50.618 231.084 51.06C230.781 51.4933 230.36 51.9007 229.823 52.282L228.588 53.179C228.337 53.3437 228.098 53.543 227.873 53.777C227.648 54.0023 227.466 54.2667 227.327 54.57C227.188 54.8647 227.119 55.2157 227.119 55.623ZM225.377 56V54.687L226.703 54.44H231.669V56H225.377ZM234.647 55.623L232.905 54.687C232.905 54.4357 232.983 54.1583 233.139 53.855C233.295 53.5517 233.512 53.2483 233.789 52.945C234.067 52.6417 234.392 52.36 234.764 52.1L236.142 51.112C236.333 50.982 236.511 50.8347 236.675 50.67C236.849 50.5053 236.987 50.3277 237.091 50.137C237.204 49.9377 237.26 49.747 237.26 49.565C237.26 49.3397 237.204 49.136 237.091 48.954C236.987 48.772 236.831 48.629 236.623 48.525C236.415 48.421 236.16 48.369 235.856 48.369C235.596 48.369 235.362 48.421 235.154 48.525C234.955 48.629 234.79 48.7677 234.66 48.941C234.53 49.1143 234.439 49.3007 234.387 49.5L232.554 49.188C232.641 48.7547 232.827 48.3517 233.113 47.979C233.399 47.6063 233.772 47.3073 234.231 47.082C234.699 46.848 235.228 46.731 235.817 46.731C236.493 46.731 237.074 46.8523 237.559 47.095C238.045 47.3377 238.417 47.6713 238.677 48.096C238.946 48.512 239.08 48.9973 239.08 49.552C239.08 50.1153 238.924 50.618 238.612 51.06C238.309 51.4933 237.889 51.9007 237.351 52.282L236.116 53.179C235.865 53.3437 235.627 53.543 235.401 53.777C235.176 54.0023 234.994 54.2667 234.855 54.57C234.717 54.8647 234.647 55.2157 234.647 55.623ZM232.905 56V54.687L234.231 54.44H239.197V56H232.905Z" fill="#4D5154"/>
<path d="M211.401 69.173V68.326H213.271C213.674 68.326 214.004 68.1793 214.261 67.886C214.525 67.5853 214.657 67.204 214.657 66.742C214.657 66.4267 214.587 66.148 214.448 65.906C214.309 65.664 214.114 65.477 213.865 65.345C213.623 65.2057 213.341 65.1397 213.018 65.147H211.401V64.3L213.029 64.289C213.528 64.289 213.968 64.3953 214.349 64.608C214.738 64.8133 215.038 65.0993 215.251 65.466C215.471 65.8327 215.581 66.258 215.581 66.742C215.581 67.2113 215.482 67.6293 215.284 67.996C215.086 68.3627 214.815 68.6523 214.47 68.865C214.125 69.0703 213.726 69.173 213.271 69.173H211.401ZM210.521 72V64.3H211.456V72H210.521ZM219.919 72L219.864 71.098V69.096C219.864 68.6633 219.812 68.3077 219.71 68.029C219.614 67.743 219.464 67.5303 219.259 67.391C219.061 67.2443 218.797 67.171 218.467 67.171C218.151 67.171 217.876 67.2333 217.642 67.358C217.414 67.4827 217.227 67.677 217.081 67.941L216.289 67.622C216.435 67.3653 216.611 67.1417 216.817 66.951C217.022 66.7603 217.26 66.6173 217.532 66.522C217.81 66.4193 218.126 66.368 218.478 66.368C218.984 66.368 219.405 66.467 219.743 66.665C220.08 66.863 220.333 67.16 220.502 67.556C220.67 67.9447 220.751 68.4323 220.744 69.019L220.733 72H219.919ZM218.269 72.132C217.623 72.132 217.117 71.9853 216.751 71.692C216.391 71.3913 216.212 70.977 216.212 70.449C216.212 69.8917 216.395 69.4663 216.762 69.173C217.136 68.8723 217.656 68.722 218.324 68.722H219.897V69.459H218.522C218.008 69.459 217.642 69.5433 217.422 69.712C217.209 69.8807 217.103 70.1227 217.103 70.438C217.103 70.724 217.209 70.9513 217.422 71.12C217.634 71.2813 217.931 71.362 218.313 71.362C218.628 71.362 218.903 71.2887 219.138 71.142C219.372 70.9953 219.552 70.7973 219.677 70.548C219.801 70.2913 219.864 70.0017 219.864 69.679H220.403C220.403 70.427 220.219 71.0247 219.853 71.472C219.486 71.912 218.958 72.132 218.269 72.132ZM224.206 72.132C223.671 72.132 223.256 71.9927 222.963 71.714C222.67 71.4353 222.523 71.043 222.523 70.537V64.784H223.403V70.449C223.403 70.7277 223.476 70.944 223.623 71.098C223.777 71.2447 223.99 71.318 224.261 71.318C224.349 71.318 224.433 71.307 224.514 71.285C224.602 71.2557 224.716 71.1897 224.855 71.087L225.196 71.802C225.005 71.9267 224.833 72.011 224.679 72.055C224.525 72.1063 224.367 72.132 224.206 72.132ZM221.566 67.281V66.5H225.053V67.281H221.566ZM226.35 72L226.372 66.5H227.252L227.23 72H226.35ZM226.801 65.224C226.655 65.224 226.526 65.169 226.416 65.059C226.306 64.949 226.251 64.8207 226.251 64.674C226.251 64.52 226.306 64.3917 226.416 64.289C226.526 64.179 226.655 64.124 226.801 64.124C226.955 64.124 227.084 64.179 227.186 64.289C227.296 64.3917 227.351 64.52 227.351 64.674C227.351 64.8207 227.296 64.949 227.186 65.059C227.084 65.169 226.955 65.224 226.801 65.224ZM231.261 72.132C230.726 72.132 230.253 72.011 229.842 71.769C229.431 71.5197 229.109 71.1787 228.874 70.746C228.647 70.3133 228.533 69.8147 228.533 69.25C228.533 68.6853 228.647 68.1867 228.874 67.754C229.109 67.3213 229.428 66.984 229.831 66.742C230.242 66.4927 230.711 66.368 231.239 66.368C231.745 66.368 232.185 66.4963 232.559 66.753C232.94 67.0023 233.234 67.3543 233.439 67.809C233.644 68.2637 233.747 68.799 233.747 69.415H232.867C232.867 68.9457 232.805 68.546 232.68 68.216C232.555 67.8787 232.368 67.6183 232.119 67.435C231.877 67.2517 231.58 67.16 231.228 67.16C230.869 67.16 230.55 67.248 230.271 67.424C230 67.5927 229.791 67.8347 229.644 68.15C229.497 68.4653 229.424 68.8357 229.424 69.261C229.424 69.679 229.505 70.042 229.666 70.35C229.827 70.6507 230.051 70.889 230.337 71.065C230.623 71.2337 230.946 71.318 231.305 71.318C231.686 71.318 232.009 71.2263 232.273 71.043C232.537 70.8597 232.746 70.6213 232.9 70.328L233.67 70.713C233.531 70.999 233.344 71.2483 233.109 71.461C232.882 71.6737 232.61 71.8387 232.295 71.956C231.987 72.0733 231.642 72.132 231.261 72.132ZM229.116 69.415L229.127 68.656H233.208V69.415H229.116ZM234.857 72V66.5H235.682L235.737 67.512V72H234.857ZM238.718 72V69.184L239.598 68.854V72H238.718ZM238.718 69.184C238.718 68.6413 238.656 68.227 238.531 67.941C238.406 67.655 238.234 67.4607 238.014 67.358C237.794 67.248 237.545 67.193 237.266 67.193C236.782 67.193 236.404 67.3653 236.133 67.71C235.869 68.0473 235.737 68.5277 235.737 69.151H235.308C235.308 68.5717 235.392 68.073 235.561 67.655C235.73 67.237 235.972 66.918 236.287 66.698C236.61 66.478 236.998 66.368 237.453 66.368C238.12 66.368 238.645 66.5733 239.026 66.984C239.415 67.3947 239.605 68.018 239.598 68.854L238.718 69.184ZM243.059 72.132C242.523 72.132 242.109 71.9927 241.816 71.714C241.522 71.4353 241.376 71.043 241.376 70.537V64.784H242.256V70.449C242.256 70.7277 242.329 70.944 242.476 71.098C242.63 71.2447 242.842 71.318 243.114 71.318C243.202 71.318 243.286 71.307 243.367 71.285C243.455 71.2557 243.568 71.1897 243.708 71.087L244.049 71.802C243.858 71.9267 243.686 72.011 243.532 72.055C243.378 72.1063 243.22 72.132 243.059 72.132ZM240.419 67.281V66.5H243.906V67.281H240.419ZM247.073 72.132C246.67 72.132 246.318 72.0733 246.017 71.956C245.716 71.8313 245.463 71.67 245.258 71.472C245.06 71.274 244.917 71.0577 244.829 70.823L245.599 70.504C245.724 70.7533 245.911 70.955 246.16 71.109C246.409 71.263 246.684 71.34 246.985 71.34C247.33 71.34 247.619 71.274 247.854 71.142C248.089 71.0027 248.206 70.8083 248.206 70.559C248.206 70.3317 248.118 70.1483 247.942 70.009C247.773 69.8697 247.52 69.756 247.183 69.668L246.655 69.525C246.156 69.393 245.768 69.195 245.489 68.931C245.21 68.6597 245.071 68.3553 245.071 68.018C245.071 67.4973 245.24 67.094 245.577 66.808C245.922 66.5147 246.431 66.368 247.106 66.368C247.429 66.368 247.722 66.4157 247.986 66.511C248.25 66.6063 248.477 66.742 248.668 66.918C248.859 67.0867 248.998 67.2883 249.086 67.523L248.316 67.864C248.221 67.6147 248.063 67.435 247.843 67.325C247.623 67.215 247.355 67.16 247.04 67.16C246.703 67.16 246.439 67.2333 246.248 67.38C246.057 67.5193 245.962 67.7173 245.962 67.974C245.962 68.1207 246.039 68.26 246.193 68.392C246.354 68.5167 246.589 68.6193 246.897 68.7L247.447 68.843C247.806 68.931 248.107 69.063 248.349 69.239C248.591 69.4077 248.774 69.602 248.899 69.822C249.024 70.042 249.086 70.2767 249.086 70.526C249.086 70.856 248.998 71.142 248.822 71.384C248.646 71.626 248.408 71.813 248.107 71.945C247.806 72.0697 247.462 72.132 247.073 72.132Z" fill="#A6A8A9"/>
</g>
<defs>
<filter id="filter0_d_620_17053" x="205.043" y="78.1258" width="50.8719" height="50.872" filterUnits="userSpaceOnUse" color-interpolation-filters="sRGB">
<feFlood flood-opacity="0" result="BackgroundImageFix"/>
<feColorMatrix in="SourceAlpha" type="matrix" values="0 0 0 0 0 0 0 0 0 0 0 0 0 0 0 0 0 0 127 0" result="hardAlpha"/>
<feOffset dy="3.08315"/>
<feGaussianBlur stdDeviation="6.93709"/>
<feColorMatrix type="matrix" values="0 0 0 0 0 0 0 0 0 0 0 0 0 0 0 0 0 0 0.25 0"/>
<feBlend mode="normal" in2="BackgroundImageFix" result="effect1_dropShadow_620_17053"/>
<feBlend mode="normal" in="SourceGraphic" in2="effect1_dropShadow_620_17053" result="shape"/>
</filter>
<filter id="filter1_d_620_17053" x="196" y="35" width="67" height="50" filterUnits="userSpaceOnUse" color-interpolation-filters="sRGB">
<feFlood flood-opacity="0" result="BackgroundImageFix"/>
<feColorMatrix in="SourceAlpha" type="matrix" values="0 0 0 0 0 0 0 0 0 0 0 0 0 0 0 0 0 0 127 0" result="hardAlpha"/>
<feOffset dy="2"/>
<feGaussianBlur stdDeviation="1.5"/>
<feComposite in2="hardAlpha" operator="out"/>
<feColorMatrix type="matrix" values="0 0 0 0 0.0496335 0 0 0 0 0.0810964 0 0 0 0 0.12224 0 0 0 0.05 0"/>
<feBlend mode="normal" in2="BackgroundImageFix" result="effect1_dropShadow_620_17053"/>
<feBlend mode="normal" in="SourceGraphic" in2="effect1_dropShadow_620_17053" result="shape"/>
</filter>
<linearGradient id="paint0_linear_620_17053" x1="50" y1="143.846" x2="87.7194" y2="-33.9726" gradientUnits="userSpaceOnUse">
<stop stop-color="#5655D7"/>
<stop offset="1" stop-color="#7F7EFF"/>
</linearGradient>
<linearGradient id="paint1_linear_620_17053" x1="50" y1="137.275" x2="81.9275" y2="-26.887" gradientUnits="userSpaceOnUse">
<stop stop-color="#4ABDE8"/>
<stop offset="1" stop-color="#77DAFF"/>
</linearGradient>
<linearGradient id="paint2_linear_620_17053" x1="51.5" y1="102.603" x2="78.4359" y2="-48.2693" gradientUnits="userSpaceOnUse">
<stop stop-color="#00997E"/>
<stop offset="1" stop-color="#00C9A5"/>
</linearGradient>
<linearGradient id="paint3_linear_620_17053" x1="222" y1="108.957" x2="238.957" y2="92" gradientUnits="userSpaceOnUse">
<stop stop-color="#00997E"/>
<stop offset="1" stop-color="#00C9A5"/>
</linearGradient>
</defs>
</svg>
