<svg width="40" height="40" viewBox="0 0 40 40" fill="none" xmlns="http://www.w3.org/2000/svg">
<path d="M26.2499 8.74999C26.2499 8.41847 26.3816 8.10052 26.616 7.8661C26.8505 7.63168 27.1684 7.49999 27.4999 7.49999H34.9999C35.3314 7.49999 35.6494 7.63168 35.8838 7.8661C36.1182 8.10052 36.2499 8.41847 36.2499 8.74999C36.2499 9.08151 36.1182 9.39945 35.8838 9.63387C35.6494 9.86829 35.3314 9.99999 34.9999 9.99999H27.4999C27.1684 9.99999 26.8505 9.86829 26.616 9.63387C26.3816 9.39945 26.2499 9.08151 26.2499 8.74999ZM36.0249 17.2937C36.596 20.6884 36.0735 24.1766 34.5328 27.2549C32.9921 30.3332 30.513 32.8422 27.4534 34.4197C24.3938 35.9972 20.912 36.5615 17.5108 36.0311C14.1095 35.5008 10.9649 33.9032 8.53077 31.4691C6.09668 29.035 4.49914 25.8904 3.96879 22.4891C3.43844 19.0879 4.00274 15.6061 5.58021 12.5465C7.15767 9.48694 9.66668 7.00782 12.745 5.46713C15.8233 3.92645 19.3115 3.40392 22.7062 3.97499C23.0306 4.03237 23.3193 4.21555 23.5095 4.48469C23.6996 4.75383 23.7757 5.08715 23.7214 5.41215C23.667 5.73714 23.4865 6.02752 23.2191 6.22013C22.9518 6.41273 22.6192 6.49197 22.2937 6.44061C20.322 6.10893 18.3017 6.21089 16.3735 6.73937C14.4452 7.26786 12.6553 8.21018 11.1282 9.50077C9.60118 10.7914 8.37371 12.3992 7.53123 14.2124C6.68875 16.0256 6.2515 18.0006 6.24992 20C6.24696 23.3659 7.48406 26.615 9.72492 29.1265C11.119 27.1064 13.0793 25.5435 15.3593 24.6344C14.1346 23.6697 13.2409 22.3475 12.8025 20.8514C12.3642 19.3553 12.4029 17.7598 12.9133 16.2868C13.4238 14.8137 14.3806 13.5364 15.6506 12.6323C16.9207 11.7283 18.4409 11.2425 19.9999 11.2425C21.5589 11.2425 23.0791 11.7283 24.3492 12.6323C25.6193 13.5364 26.5761 14.8137 27.0865 16.2868C27.5969 17.7598 27.6357 19.3553 27.1973 20.8514C26.7589 22.3475 25.8653 23.6697 24.6405 24.6344C26.9205 25.5435 28.8808 27.1064 30.2749 29.1265C32.5158 26.615 33.7529 23.3659 33.7499 20C33.75 19.2314 33.6862 18.4642 33.5593 17.7062C33.5305 17.5436 33.5343 17.3769 33.5703 17.2158C33.6063 17.0546 33.674 16.9022 33.7692 16.7674C33.8645 16.6325 33.9855 16.5178 34.1254 16.43C34.2652 16.3422 34.4211 16.2829 34.5839 16.2557C34.7468 16.2284 34.9134 16.2337 35.0743 16.2713C35.2351 16.3088 35.3868 16.3778 35.5208 16.4743C35.6548 16.5708 35.7683 16.6929 35.8549 16.8336C35.9414 16.9742 35.9992 17.1306 36.0249 17.2937ZM19.9999 23.75C20.9888 23.75 21.9555 23.4567 22.7778 22.9073C23.6 22.3579 24.2409 21.577 24.6193 20.6634C24.9978 19.7498 25.0968 18.7444 24.9038 17.7745C24.7109 16.8046 24.2347 15.9137 23.5355 15.2145C22.8362 14.5152 21.9453 14.039 20.9754 13.8461C20.0055 13.6531 19.0001 13.7522 18.0865 14.1306C17.1729 14.509 16.392 15.1499 15.8426 15.9721C15.2932 16.7944 14.9999 17.7611 14.9999 18.75C14.9999 20.0761 15.5267 21.3478 16.4644 22.2855C17.4021 23.2232 18.6738 23.75 19.9999 23.75ZM19.9999 33.75C23.052 33.7531 26.0176 32.7356 28.4249 30.8594C27.5206 29.4451 26.2749 28.2813 24.8025 27.4751C23.3302 26.6689 21.6786 26.2463 19.9999 26.2463C18.3213 26.2463 16.6697 26.6689 15.1973 27.4751C13.7249 28.2813 12.4792 29.4451 11.5749 30.8594C13.9823 32.7356 16.9478 33.7531 19.9999 33.75Z" fill="url(#paint0_linear_620_19208)"/>
<defs>
<linearGradient id="paint0_linear_620_19208" x1="3.7749" y1="36.225" x2="36.2499" y2="3.74997" gradientUnits="userSpaceOnUse">
<stop stop-color="#FF414B"/>
<stop offset="1" stop-color="#FF7A81"/>
</linearGradient>
</defs>
</svg>
