<svg width="82" height="22" viewBox="0 0 82 22" fill="none" xmlns="http://www.w3.org/2000/svg">
<rect y="0.721436" width="82" height="21" rx="10.5" fill="#FF414B" fill-opacity="0.16"/>
<path d="M12.268 14.8534C11.5347 14.8534 10.8857 14.6848 10.321 14.3474C9.75633 14.0028 9.31267 13.5334 8.99 12.9394C8.66733 12.3381 8.506 11.6488 8.506 10.8714C8.506 10.0941 8.66367 9.40844 8.979 8.81444C9.30167 8.2131 9.74167 7.74377 10.299 7.40644C10.8637 7.06177 11.509 6.88944 12.235 6.88944C12.697 6.88944 13.1407 6.97377 13.566 7.14244C13.9913 7.30377 14.3727 7.53477 14.71 7.83544C15.0473 8.12877 15.3077 8.46977 15.491 8.85843L14.688 9.26544C14.5413 8.95744 14.3397 8.68977 14.083 8.46244C13.8263 8.2351 13.5403 8.0591 13.225 7.93444C12.9097 7.80244 12.5797 7.73643 12.235 7.73643C11.6997 7.73643 11.2193 7.8721 10.794 8.14344C10.3687 8.40744 10.035 8.7741 9.793 9.24344C9.55833 9.71277 9.441 10.2554 9.441 10.8714C9.441 11.4874 9.562 12.0338 9.804 12.5104C10.046 12.9871 10.3797 13.3611 10.805 13.6324C11.2377 13.8964 11.7253 14.0284 12.268 14.0284C12.62 14.0284 12.9537 13.9588 13.269 13.8194C13.5843 13.6728 13.8667 13.4748 14.116 13.2254C14.3727 12.9761 14.5743 12.6901 14.721 12.3674L15.535 12.7744C15.3443 13.1778 15.0803 13.5371 14.743 13.8524C14.413 14.1678 14.0317 14.4134 13.599 14.5894C13.1737 14.7654 12.73 14.8534 12.268 14.8534ZM23.2857 14.7214L20.1947 7.02144H21.1297L24.2647 14.7214H23.2857ZM17.0267 14.7214L20.1617 7.02144H21.1077L18.0167 14.7214H17.0267ZM18.5117 12.5324V11.6964H22.7907V12.5324H18.5117ZM31.9281 14.7214L26.6151 7.53843L27.3411 7.02144L32.6541 14.1934L31.9281 14.7214ZM26.3951 14.7214V7.02144H27.3411L27.3301 7.75844V14.7214H26.3951ZM31.9281 14.7214V7.02144H32.8631V14.7214H31.9281ZM39.1586 14.8534C38.4253 14.8534 37.7763 14.6848 37.2116 14.3474C36.647 14.0028 36.2033 13.5334 35.8806 12.9394C35.558 12.3381 35.3966 11.6488 35.3966 10.8714C35.3966 10.0941 35.5543 9.40844 35.8696 8.81444C36.1923 8.2131 36.6323 7.74377 37.1896 7.40644C37.7543 7.06177 38.3996 6.88944 39.1256 6.88944C39.5876 6.88944 40.0313 6.97377 40.4566 7.14244C40.882 7.30377 41.2633 7.53477 41.6006 7.83544C41.938 8.12877 42.1983 8.46977 42.3816 8.85843L41.5786 9.26544C41.432 8.95744 41.2303 8.68977 40.9736 8.46244C40.717 8.2351 40.431 8.0591 40.1156 7.93444C39.8003 7.80244 39.4703 7.73643 39.1256 7.73643C38.5903 7.73643 38.11 7.8721 37.6846 8.14344C37.2593 8.40744 36.9256 8.7741 36.6836 9.24344C36.449 9.71277 36.3316 10.2554 36.3316 10.8714C36.3316 11.4874 36.4526 12.0338 36.6946 12.5104C36.9366 12.9871 37.2703 13.3611 37.6956 13.6324C38.1283 13.8964 38.616 14.0284 39.1586 14.0284C39.5106 14.0284 39.8443 13.9588 40.1596 13.8194C40.475 13.6728 40.7573 13.4748 41.0066 13.2254C41.2633 12.9761 41.465 12.6901 41.6116 12.3674L42.4256 12.7744C42.235 13.1778 41.971 13.5371 41.6336 13.8524C41.3036 14.1678 40.9223 14.4134 40.4896 14.5894C40.0643 14.7654 39.6206 14.8534 39.1586 14.8534ZM44.8414 14.7214V7.02144H45.7764V14.7214H44.8414ZM45.6664 14.7214V13.8744H49.4174V14.7214H45.6664ZM45.6664 11.1904V10.3544H49.0764V11.1904H45.6664ZM45.6664 7.86844V7.02144H49.3954V7.86844H45.6664ZM52.3511 14.7214V7.02144H53.2861V14.7214H52.3511ZM53.1321 14.7214V13.8744H56.9161V14.7214H53.1321ZM59.066 14.7214V7.02144H60.001V14.7214H59.066ZM59.891 14.7214V13.8744H63.642V14.7214H59.891ZM59.891 11.1904V10.3544H63.301V11.1904H59.891ZM59.891 7.86844V7.02144H63.62V7.86844H59.891ZM68.9187 14.7214V13.8634C69.3074 13.8634 69.6667 13.7901 69.9967 13.6434C70.3267 13.4894 70.6164 13.2731 70.8657 12.9944C71.1224 12.7158 71.3204 12.3968 71.4597 12.0374C71.6064 11.6708 71.6797 11.2821 71.6797 10.8714C71.6797 10.4608 71.6064 10.0758 71.4597 9.71644C71.3204 9.34977 71.1224 9.0271 70.8657 8.74844C70.6164 8.46977 70.3267 8.2571 69.9967 8.11044C69.6667 7.95644 69.3074 7.87944 68.9187 7.87944V7.02144C69.6447 7.02144 70.2827 7.18644 70.8327 7.51644C71.3901 7.8391 71.8264 8.2901 72.1417 8.86944C72.4571 9.44877 72.6147 10.1161 72.6147 10.8714C72.6147 11.6194 72.4571 12.2831 72.1417 12.8624C71.8264 13.4418 71.3901 13.8964 70.8327 14.2264C70.2827 14.5564 69.6447 14.7214 68.9187 14.7214ZM67.3237 14.7214V13.8634H68.9187V14.7214H67.3237ZM66.5757 14.7214V7.02144H67.5107V14.7214H66.5757ZM67.3237 7.87944V7.02144H68.9187V7.87944H67.3237Z" fill="#FF414B"/>
<path d="M12.268 14.8534C11.5347 14.8534 10.8857 14.6848 10.321 14.3474C9.75633 14.0028 9.31267 13.5334 8.99 12.9394C8.66733 12.3381 8.506 11.6488 8.506 10.8714C8.506 10.0941 8.66367 9.40844 8.979 8.81444C9.30167 8.2131 9.74167 7.74377 10.299 7.40644C10.8637 7.06177 11.509 6.88944 12.235 6.88944C12.697 6.88944 13.1407 6.97377 13.566 7.14244C13.9913 7.30377 14.3727 7.53477 14.71 7.83544C15.0473 8.12877 15.3077 8.46977 15.491 8.85843L14.688 9.26544C14.5413 8.95744 14.3397 8.68977 14.083 8.46244C13.8263 8.2351 13.5403 8.0591 13.225 7.93444C12.9097 7.80244 12.5797 7.73643 12.235 7.73643C11.6997 7.73643 11.2193 7.8721 10.794 8.14344C10.3687 8.40744 10.035 8.7741 9.793 9.24344C9.55833 9.71277 9.441 10.2554 9.441 10.8714C9.441 11.4874 9.562 12.0338 9.804 12.5104C10.046 12.9871 10.3797 13.3611 10.805 13.6324C11.2377 13.8964 11.7253 14.0284 12.268 14.0284C12.62 14.0284 12.9537 13.9588 13.269 13.8194C13.5843 13.6728 13.8667 13.4748 14.116 13.2254C14.3727 12.9761 14.5743 12.6901 14.721 12.3674L15.535 12.7744C15.3443 13.1778 15.0803 13.5371 14.743 13.8524C14.413 14.1678 14.0317 14.4134 13.599 14.5894C13.1737 14.7654 12.73 14.8534 12.268 14.8534ZM23.2857 14.7214L20.1947 7.02144H21.1297L24.2647 14.7214H23.2857ZM17.0267 14.7214L20.1617 7.02144H21.1077L18.0167 14.7214H17.0267ZM18.5117 12.5324V11.6964H22.7907V12.5324H18.5117ZM31.9281 14.7214L26.6151 7.53843L27.3411 7.02144L32.6541 14.1934L31.9281 14.7214ZM26.3951 14.7214V7.02144H27.3411L27.3301 7.75844V14.7214H26.3951ZM31.9281 14.7214V7.02144H32.8631V14.7214H31.9281ZM39.1586 14.8534C38.4253 14.8534 37.7763 14.6848 37.2116 14.3474C36.647 14.0028 36.2033 13.5334 35.8806 12.9394C35.558 12.3381 35.3966 11.6488 35.3966 10.8714C35.3966 10.0941 35.5543 9.40844 35.8696 8.81444C36.1923 8.2131 36.6323 7.74377 37.1896 7.40644C37.7543 7.06177 38.3996 6.88944 39.1256 6.88944C39.5876 6.88944 40.0313 6.97377 40.4566 7.14244C40.882 7.30377 41.2633 7.53477 41.6006 7.83544C41.938 8.12877 42.1983 8.46977 42.3816 8.85843L41.5786 9.26544C41.432 8.95744 41.2303 8.68977 40.9736 8.46244C40.717 8.2351 40.431 8.0591 40.1156 7.93444C39.8003 7.80244 39.4703 7.73643 39.1256 7.73643C38.5903 7.73643 38.11 7.8721 37.6846 8.14344C37.2593 8.40744 36.9256 8.7741 36.6836 9.24344C36.449 9.71277 36.3316 10.2554 36.3316 10.8714C36.3316 11.4874 36.4526 12.0338 36.6946 12.5104C36.9366 12.9871 37.2703 13.3611 37.6956 13.6324C38.1283 13.8964 38.616 14.0284 39.1586 14.0284C39.5106 14.0284 39.8443 13.9588 40.1596 13.8194C40.475 13.6728 40.7573 13.4748 41.0066 13.2254C41.2633 12.9761 41.465 12.6901 41.6116 12.3674L42.4256 12.7744C42.235 13.1778 41.971 13.5371 41.6336 13.8524C41.3036 14.1678 40.9223 14.4134 40.4896 14.5894C40.0643 14.7654 39.6206 14.8534 39.1586 14.8534ZM44.8414 14.7214V7.02144H45.7764V14.7214H44.8414ZM45.6664 14.7214V13.8744H49.4174V14.7214H45.6664ZM45.6664 11.1904V10.3544H49.0764V11.1904H45.6664ZM45.6664 7.86844V7.02144H49.3954V7.86844H45.6664ZM52.3511 14.7214V7.02144H53.2861V14.7214H52.3511ZM53.1321 14.7214V13.8744H56.9161V14.7214H53.1321ZM59.066 14.7214V7.02144H60.001V14.7214H59.066ZM59.891 14.7214V13.8744H63.642V14.7214H59.891ZM59.891 11.1904V10.3544H63.301V11.1904H59.891ZM59.891 7.86844V7.02144H63.62V7.86844H59.891ZM68.9187 14.7214V13.8634C69.3074 13.8634 69.6667 13.7901 69.9967 13.6434C70.3267 13.4894 70.6164 13.2731 70.8657 12.9944C71.1224 12.7158 71.3204 12.3968 71.4597 12.0374C71.6064 11.6708 71.6797 11.2821 71.6797 10.8714C71.6797 10.4608 71.6064 10.0758 71.4597 9.71644C71.3204 9.34977 71.1224 9.0271 70.8657 8.74844C70.6164 8.46977 70.3267 8.2571 69.9967 8.11044C69.6667 7.95644 69.3074 7.87944 68.9187 7.87944V7.02144C69.6447 7.02144 70.2827 7.18644 70.8327 7.51644C71.3901 7.8391 71.8264 8.2901 72.1417 8.86944C72.4571 9.44877 72.6147 10.1161 72.6147 10.8714C72.6147 11.6194 72.4571 12.2831 72.1417 12.8624C71.8264 13.4418 71.3901 13.8964 70.8327 14.2264C70.2827 14.5564 69.6447 14.7214 68.9187 14.7214ZM67.3237 14.7214V13.8634H68.9187V14.7214H67.3237ZM66.5757 14.7214V7.02144H67.5107V14.7214H66.5757ZM67.3237 7.87944V7.02144H68.9187V7.87944H67.3237Z" fill="white" fill-opacity="0.2"/>
</svg>
