<svg width="89" height="22" viewBox="0 0 89 22" fill="none" xmlns="http://www.w3.org/2000/svg">
<rect y="0.721436" width="89" height="21" rx="10.5" fill="#00997E" fill-opacity="0.16"/>
<path d="M12.268 14.8534C11.5347 14.8534 10.8857 14.6848 10.321 14.3474C9.75633 14.0028 9.31267 13.5334 8.99 12.9394C8.66733 12.3381 8.506 11.6488 8.506 10.8714C8.506 10.0941 8.66367 9.40844 8.979 8.81444C9.30167 8.2131 9.74167 7.74377 10.299 7.40644C10.8637 7.06177 11.509 6.88944 12.235 6.88944C12.697 6.88944 13.1407 6.97377 13.566 7.14244C13.9913 7.30377 14.3727 7.53477 14.71 7.83544C15.0473 8.12877 15.3077 8.46977 15.491 8.85843L14.688 9.26544C14.5413 8.95744 14.3397 8.68977 14.083 8.46244C13.8263 8.2351 13.5403 8.0591 13.225 7.93444C12.9097 7.80244 12.5797 7.73643 12.235 7.73643C11.6997 7.73643 11.2193 7.8721 10.794 8.14344C10.3687 8.40744 10.035 8.7741 9.793 9.24344C9.55833 9.71277 9.441 10.2554 9.441 10.8714C9.441 11.4874 9.562 12.0338 9.804 12.5104C10.046 12.9871 10.3797 13.3611 10.805 13.6324C11.2377 13.8964 11.7253 14.0284 12.268 14.0284C12.62 14.0284 12.9537 13.9588 13.269 13.8194C13.5843 13.6728 13.8667 13.4748 14.116 13.2254C14.3727 12.9761 14.5743 12.6901 14.721 12.3674L15.535 12.7744C15.3443 13.1778 15.0803 13.5371 14.743 13.8524C14.413 14.1678 14.0317 14.4134 13.599 14.5894C13.1737 14.7654 12.73 14.8534 12.268 14.8534ZM21.2287 14.8534C20.4881 14.8534 19.8317 14.6848 19.2597 14.3474C18.6877 14.0101 18.2404 13.5408 17.9177 12.9394C17.5951 12.3381 17.4337 11.6488 17.4337 10.8714C17.4337 10.0868 17.5914 9.39744 17.9067 8.80344C18.2294 8.2021 18.6731 7.73277 19.2377 7.39544C19.8024 7.0581 20.4551 6.88944 21.1957 6.88944C21.9364 6.88944 22.5891 7.06177 23.1537 7.40644C23.7257 7.74377 24.1694 8.2131 24.4847 8.81444C24.8001 9.40844 24.9577 10.0941 24.9577 10.8714C24.9577 11.6488 24.8001 12.3381 24.4847 12.9394C24.1694 13.5408 23.7294 14.0101 23.1647 14.3474C22.6074 14.6848 21.9621 14.8534 21.2287 14.8534ZM21.2287 14.0064C21.7787 14.0064 22.2627 13.8744 22.6807 13.6104C23.0987 13.3391 23.4251 12.9688 23.6597 12.4994C23.9017 12.0301 24.0227 11.4874 24.0227 10.8714C24.0227 10.2628 23.9017 9.72377 23.6597 9.25444C23.4177 8.77777 23.0841 8.40744 22.6587 8.14344C22.2407 7.8721 21.7531 7.73643 21.1957 7.73643C20.6457 7.73643 20.1581 7.8721 19.7327 8.14344C19.3074 8.40744 18.9737 8.77777 18.7317 9.25444C18.4897 9.72377 18.3687 10.2628 18.3687 10.8714C18.3687 11.4874 18.4897 12.0301 18.7317 12.4994C18.9737 12.9688 19.3111 13.3391 19.7437 13.6104C20.1764 13.8744 20.6714 14.0064 21.2287 14.0064ZM31.1208 12.5324L27.6448 7.39544L28.0188 7.19744L28.4588 7.02144L31.5718 11.6304L31.1208 12.5324ZM27.4908 14.7214V7.02144H28.4258V14.7214H27.4908ZM31.1208 12.5324L30.6698 11.6304L33.7828 7.02144L34.2228 7.19744L34.5858 7.38443L31.1208 12.5324ZM33.8158 14.7214V7.02144H34.7398V14.7214H33.8158ZM38.6735 11.8944V11.0474H40.5435C40.9468 11.0474 41.2768 10.9008 41.5335 10.6074C41.7975 10.3068 41.9295 9.92544 41.9295 9.46344C41.9295 9.1481 41.8598 8.86944 41.7205 8.62744C41.5812 8.38544 41.3868 8.19844 41.1375 8.06644C40.8955 7.9271 40.6132 7.8611 40.2905 7.86844H38.6735V7.02144L40.3015 7.01044C40.8002 7.01044 41.2402 7.11677 41.6215 7.32943C42.0102 7.53477 42.3108 7.82077 42.5235 8.18744C42.7435 8.5541 42.8535 8.97944 42.8535 9.46344C42.8535 9.93277 42.7545 10.3508 42.5565 10.7174C42.3585 11.0841 42.0872 11.3738 41.7425 11.5864C41.3978 11.7918 40.9982 11.8944 40.5435 11.8944H38.6735ZM37.7935 14.7214V7.02144H38.7285V14.7214H37.7935ZM45.1636 14.7214V7.02144H46.0986V14.7214H45.1636ZM45.9446 14.7214V13.8744H49.7286V14.7214H45.9446ZM51.8785 14.7214V7.02144H52.8135V14.7214H51.8785ZM52.7035 14.7214V13.8744H56.4545V14.7214H52.7035ZM52.7035 11.1904V10.3544H56.1135V11.1904H52.7035ZM52.7035 7.86844V7.02144H56.4325V7.86844H52.7035ZM60.9392 14.7214V7.65944H61.8632V14.7214H60.9392ZM58.4862 7.86844V7.02144H64.3162V7.86844H58.4862ZM66.4576 14.7214V7.02144H67.3926V14.7214H66.4576ZM67.2826 14.7214V13.8744H71.0336V14.7214H67.2826ZM67.2826 11.1904V10.3544H70.6926V11.1904H67.2826ZM67.2826 7.86844V7.02144H71.0116V7.86844H67.2826ZM76.3103 14.7214V13.8634C76.699 13.8634 77.0583 13.7901 77.3883 13.6434C77.7183 13.4894 78.008 13.2731 78.2573 12.9944C78.514 12.7158 78.712 12.3968 78.8513 12.0374C78.998 11.6708 79.0713 11.2821 79.0713 10.8714C79.0713 10.4608 78.998 10.0758 78.8513 9.71644C78.712 9.34977 78.514 9.0271 78.2573 8.74844C78.008 8.46977 77.7183 8.2571 77.3883 8.11044C77.0583 7.95644 76.699 7.87944 76.3103 7.87944V7.02144C77.0363 7.02144 77.6743 7.18644 78.2243 7.51644C78.7817 7.8391 79.218 8.2901 79.5333 8.86944C79.8487 9.44877 80.0063 10.1161 80.0063 10.8714C80.0063 11.6194 79.8487 12.2831 79.5333 12.8624C79.218 13.4418 78.7817 13.8964 78.2243 14.2264C77.6743 14.5564 77.0363 14.7214 76.3103 14.7214ZM74.7153 14.7214V13.8634H76.3103V14.7214H74.7153ZM73.9673 14.7214V7.02144H74.9023V14.7214H73.9673ZM74.7153 7.87944V7.02144H76.3103V7.87944H74.7153Z" fill="#00997E"/>
<path d="M12.268 14.8534C11.5347 14.8534 10.8857 14.6848 10.321 14.3474C9.75633 14.0028 9.31267 13.5334 8.99 12.9394C8.66733 12.3381 8.506 11.6488 8.506 10.8714C8.506 10.0941 8.66367 9.40844 8.979 8.81444C9.30167 8.2131 9.74167 7.74377 10.299 7.40644C10.8637 7.06177 11.509 6.88944 12.235 6.88944C12.697 6.88944 13.1407 6.97377 13.566 7.14244C13.9913 7.30377 14.3727 7.53477 14.71 7.83544C15.0473 8.12877 15.3077 8.46977 15.491 8.85843L14.688 9.26544C14.5413 8.95744 14.3397 8.68977 14.083 8.46244C13.8263 8.2351 13.5403 8.0591 13.225 7.93444C12.9097 7.80244 12.5797 7.73643 12.235 7.73643C11.6997 7.73643 11.2193 7.8721 10.794 8.14344C10.3687 8.40744 10.035 8.7741 9.793 9.24344C9.55833 9.71277 9.441 10.2554 9.441 10.8714C9.441 11.4874 9.562 12.0338 9.804 12.5104C10.046 12.9871 10.3797 13.3611 10.805 13.6324C11.2377 13.8964 11.7253 14.0284 12.268 14.0284C12.62 14.0284 12.9537 13.9588 13.269 13.8194C13.5843 13.6728 13.8667 13.4748 14.116 13.2254C14.3727 12.9761 14.5743 12.6901 14.721 12.3674L15.535 12.7744C15.3443 13.1778 15.0803 13.5371 14.743 13.8524C14.413 14.1678 14.0317 14.4134 13.599 14.5894C13.1737 14.7654 12.73 14.8534 12.268 14.8534ZM21.2287 14.8534C20.4881 14.8534 19.8317 14.6848 19.2597 14.3474C18.6877 14.0101 18.2404 13.5408 17.9177 12.9394C17.5951 12.3381 17.4337 11.6488 17.4337 10.8714C17.4337 10.0868 17.5914 9.39744 17.9067 8.80344C18.2294 8.2021 18.6731 7.73277 19.2377 7.39544C19.8024 7.0581 20.4551 6.88944 21.1957 6.88944C21.9364 6.88944 22.5891 7.06177 23.1537 7.40644C23.7257 7.74377 24.1694 8.2131 24.4847 8.81444C24.8001 9.40844 24.9577 10.0941 24.9577 10.8714C24.9577 11.6488 24.8001 12.3381 24.4847 12.9394C24.1694 13.5408 23.7294 14.0101 23.1647 14.3474C22.6074 14.6848 21.9621 14.8534 21.2287 14.8534ZM21.2287 14.0064C21.7787 14.0064 22.2627 13.8744 22.6807 13.6104C23.0987 13.3391 23.4251 12.9688 23.6597 12.4994C23.9017 12.0301 24.0227 11.4874 24.0227 10.8714C24.0227 10.2628 23.9017 9.72377 23.6597 9.25444C23.4177 8.77777 23.0841 8.40744 22.6587 8.14344C22.2407 7.8721 21.7531 7.73643 21.1957 7.73643C20.6457 7.73643 20.1581 7.8721 19.7327 8.14344C19.3074 8.40744 18.9737 8.77777 18.7317 9.25444C18.4897 9.72377 18.3687 10.2628 18.3687 10.8714C18.3687 11.4874 18.4897 12.0301 18.7317 12.4994C18.9737 12.9688 19.3111 13.3391 19.7437 13.6104C20.1764 13.8744 20.6714 14.0064 21.2287 14.0064ZM31.1208 12.5324L27.6448 7.39544L28.0188 7.19744L28.4588 7.02144L31.5718 11.6304L31.1208 12.5324ZM27.4908 14.7214V7.02144H28.4258V14.7214H27.4908ZM31.1208 12.5324L30.6698 11.6304L33.7828 7.02144L34.2228 7.19744L34.5858 7.38443L31.1208 12.5324ZM33.8158 14.7214V7.02144H34.7398V14.7214H33.8158ZM38.6735 11.8944V11.0474H40.5435C40.9468 11.0474 41.2768 10.9008 41.5335 10.6074C41.7975 10.3068 41.9295 9.92544 41.9295 9.46344C41.9295 9.1481 41.8598 8.86944 41.7205 8.62744C41.5812 8.38544 41.3868 8.19844 41.1375 8.06644C40.8955 7.9271 40.6132 7.8611 40.2905 7.86844H38.6735V7.02144L40.3015 7.01044C40.8002 7.01044 41.2402 7.11677 41.6215 7.32943C42.0102 7.53477 42.3108 7.82077 42.5235 8.18744C42.7435 8.5541 42.8535 8.97944 42.8535 9.46344C42.8535 9.93277 42.7545 10.3508 42.5565 10.7174C42.3585 11.0841 42.0872 11.3738 41.7425 11.5864C41.3978 11.7918 40.9982 11.8944 40.5435 11.8944H38.6735ZM37.7935 14.7214V7.02144H38.7285V14.7214H37.7935ZM45.1636 14.7214V7.02144H46.0986V14.7214H45.1636ZM45.9446 14.7214V13.8744H49.7286V14.7214H45.9446ZM51.8785 14.7214V7.02144H52.8135V14.7214H51.8785ZM52.7035 14.7214V13.8744H56.4545V14.7214H52.7035ZM52.7035 11.1904V10.3544H56.1135V11.1904H52.7035ZM52.7035 7.86844V7.02144H56.4325V7.86844H52.7035ZM60.9392 14.7214V7.65944H61.8632V14.7214H60.9392ZM58.4862 7.86844V7.02144H64.3162V7.86844H58.4862ZM66.4576 14.7214V7.02144H67.3926V14.7214H66.4576ZM67.2826 14.7214V13.8744H71.0336V14.7214H67.2826ZM67.2826 11.1904V10.3544H70.6926V11.1904H67.2826ZM67.2826 7.86844V7.02144H71.0116V7.86844H67.2826ZM76.3103 14.7214V13.8634C76.699 13.8634 77.0583 13.7901 77.3883 13.6434C77.7183 13.4894 78.008 13.2731 78.2573 12.9944C78.514 12.7158 78.712 12.3968 78.8513 12.0374C78.998 11.6708 79.0713 11.2821 79.0713 10.8714C79.0713 10.4608 78.998 10.0758 78.8513 9.71644C78.712 9.34977 78.514 9.0271 78.2573 8.74844C78.008 8.46977 77.7183 8.2571 77.3883 8.11044C77.0583 7.95644 76.699 7.87944 76.3103 7.87944V7.02144C77.0363 7.02144 77.6743 7.18644 78.2243 7.51644C78.7817 7.8391 79.218 8.2901 79.5333 8.86944C79.8487 9.44877 80.0063 10.1161 80.0063 10.8714C80.0063 11.6194 79.8487 12.2831 79.5333 12.8624C79.218 13.4418 78.7817 13.8964 78.2243 14.2264C77.6743 14.5564 77.0363 14.7214 76.3103 14.7214ZM74.7153 14.7214V13.8634H76.3103V14.7214H74.7153ZM73.9673 14.7214V7.02144H74.9023V14.7214H73.9673ZM74.7153 7.87944V7.02144H76.3103V7.87944H74.7153Z" fill="white" fill-opacity="0.2"/>
</svg>
