<svg width="498" height="303" viewBox="0 0 498 303" fill="none" xmlns="http://www.w3.org/2000/svg">
<path d="M3.165 16.2214V6.51644L3.3 5.72143H4.605V16.2214H3.165ZM0.84 8.58644V7.25143C1.06 7.26144 1.315 7.19144 1.605 7.04143C1.905 6.89143 2.205 6.69644 2.505 6.45644C2.805 6.21644 3.07 5.96644 3.3 5.70644L4.215 6.69643C3.875 7.05643 3.52 7.38143 3.15 7.67143C2.78 7.96144 2.4 8.19144 2.01 8.36143C1.63 8.53144 1.24 8.60644 0.84 8.58644ZM6.79523 17.9464L7.66523 14.6764H9.21023L7.95023 17.9464H6.79523ZM14.5855 16.4014C13.7755 16.4014 13.0555 16.1714 12.4255 15.7114C11.7955 15.2414 11.3005 14.6014 10.9405 13.7914C10.5905 12.9714 10.4155 12.0314 10.4155 10.9714C10.4155 9.91144 10.5905 8.97644 10.9405 8.16644C11.3005 7.34644 11.7905 6.70644 12.4105 6.24644C13.0405 5.77644 13.7655 5.54144 14.5855 5.54144C15.4055 5.54144 16.1255 5.77644 16.7455 6.24644C17.3755 6.70644 17.8705 7.34644 18.2305 8.16644C18.5905 8.97644 18.7705 9.91144 18.7705 10.9714C18.7705 12.0314 18.5905 12.9714 18.2305 13.7914C17.8805 14.6014 17.3905 15.2414 16.7605 15.7114C16.1305 16.1714 15.4055 16.4014 14.5855 16.4014ZM14.5855 15.0514C15.1155 15.0514 15.5855 14.8764 15.9955 14.5264C16.4155 14.1764 16.7405 13.6964 16.9705 13.0864C17.2005 12.4764 17.3155 11.7714 17.3155 10.9714C17.3155 10.1714 17.2005 9.46644 16.9705 8.85644C16.7405 8.23644 16.4155 7.75144 15.9955 7.40144C15.5855 7.05144 15.1155 6.87644 14.5855 6.87644C14.0555 6.87644 13.5855 7.05144 13.1755 7.40144C12.7655 7.75144 12.4455 8.23644 12.2155 8.85644C11.9855 9.46644 11.8705 10.1714 11.8705 10.9714C11.8705 11.7714 11.9855 12.4814 12.2155 13.1014C12.4455 13.7114 12.7655 14.1914 13.1755 14.5414C13.5855 14.8814 14.0555 15.0514 14.5855 15.0514ZM24.2242 16.4014C23.4142 16.4014 22.6942 16.1714 22.0642 15.7114C21.4342 15.2414 20.9392 14.6014 20.5792 13.7914C20.2292 12.9714 20.0542 12.0314 20.0542 10.9714C20.0542 9.91144 20.2292 8.97644 20.5792 8.16644C20.9392 7.34644 21.4292 6.70644 22.0492 6.24644C22.6792 5.77644 23.4042 5.54144 24.2242 5.54144C25.0442 5.54144 25.7642 5.77644 26.3842 6.24644C27.0142 6.70644 27.5092 7.34644 27.8692 8.16644C28.2292 8.97644 28.4092 9.91144 28.4092 10.9714C28.4092 12.0314 28.2292 12.9714 27.8692 13.7914C27.5192 14.6014 27.0292 15.2414 26.3992 15.7114C25.7692 16.1714 25.0442 16.4014 24.2242 16.4014ZM24.2242 15.0514C24.7542 15.0514 25.2242 14.8764 25.6342 14.5264C26.0542 14.1764 26.3792 13.6964 26.6092 13.0864C26.8392 12.4764 26.9542 11.7714 26.9542 10.9714C26.9542 10.1714 26.8392 9.46644 26.6092 8.85644C26.3792 8.23644 26.0542 7.75144 25.6342 7.40144C25.2242 7.05144 24.7542 6.87644 24.2242 6.87644C23.6942 6.87644 23.2242 7.05144 22.8142 7.40144C22.4042 7.75144 22.0842 8.23644 21.8542 8.85644C21.6242 9.46644 21.5092 10.1714 21.5092 10.9714C21.5092 11.7714 21.6242 12.4814 21.8542 13.1014C22.0842 13.7114 22.4042 14.1914 22.8142 14.5414C23.2242 14.8814 23.6942 15.0514 24.2242 15.0514ZM33.8629 16.4014C33.0529 16.4014 32.3329 16.1714 31.7029 15.7114C31.0729 15.2414 30.5779 14.6014 30.2179 13.7914C29.8679 12.9714 29.6929 12.0314 29.6929 10.9714C29.6929 9.91144 29.8679 8.97644 30.2179 8.16644C30.5779 7.34644 31.0679 6.70644 31.6879 6.24644C32.3179 5.77644 33.0429 5.54144 33.8629 5.54144C34.6829 5.54144 35.4029 5.77644 36.0229 6.24644C36.6529 6.70644 37.1479 7.34644 37.5079 8.16644C37.8679 8.97644 38.0479 9.91144 38.0479 10.9714C38.0479 12.0314 37.8679 12.9714 37.5079 13.7914C37.1579 14.6014 36.6679 15.2414 36.0379 15.7114C35.4079 16.1714 34.6829 16.4014 33.8629 16.4014ZM33.8629 15.0514C34.3929 15.0514 34.8629 14.8764 35.2729 14.5264C35.6929 14.1764 36.0179 13.6964 36.2479 13.0864C36.4779 12.4764 36.5929 11.7714 36.5929 10.9714C36.5929 10.1714 36.4779 9.46644 36.2479 8.85644C36.0179 8.23644 35.6929 7.75144 35.2729 7.40144C34.8629 7.05144 34.3929 6.87644 33.8629 6.87644C33.3329 6.87644 32.8629 7.05144 32.4529 7.40144C32.0429 7.75144 31.7229 8.23644 31.4929 8.85644C31.2629 9.46644 31.1479 10.1714 31.1479 10.9714C31.1479 11.7714 31.2629 12.4814 31.4929 13.1014C31.7229 13.7114 32.0429 14.1914 32.4529 14.5414C32.8629 14.8814 33.3329 15.0514 33.8629 15.0514ZM41.0565 13.9564L40.1715 12.9814L44.1165 8.72144H45.8565L41.0565 13.9564ZM39.6765 16.2214V5.72143H41.1015V16.2214H39.6765ZM44.4315 16.2214L41.6715 12.1114L42.6015 11.1214L46.1415 16.2214H44.4315Z" fill="#808080"/>
<path d="M4.59 78.4014C3.81 78.4014 3.135 78.2814 2.565 78.0414C1.995 77.7914 1.55 77.4514 1.23 77.0214C0.92 76.5814 0.765 76.0714 0.765 75.4914C0.765 74.8814 0.92 74.3464 1.23 73.8864C1.55 73.4164 1.995 73.0514 2.565 72.7914C3.135 72.5314 3.81 72.4064 4.59 72.4164C5.38 72.4064 6.06 72.5314 6.63 72.7914C7.2 73.0514 7.64 73.4164 7.95 73.8864C8.27 74.3464 8.43 74.8814 8.43 75.4914C8.43 76.0714 8.27 76.5814 7.95 77.0214C7.64 77.4514 7.2 77.7914 6.63 78.0414C6.06 78.2814 5.38 78.4014 4.59 78.4014ZM4.59 77.1264C5.28 77.1264 5.84 76.9614 6.27 76.6314C6.71 76.2914 6.93 75.8564 6.93 75.3264C6.93 74.7764 6.71 74.3314 6.27 73.9914C5.84 73.6514 5.28 73.4814 4.59 73.4814C4.14 73.4814 3.74 73.5564 3.39 73.7064C3.04 73.8564 2.765 74.0764 2.565 74.3664C2.375 74.6464 2.28 74.9664 2.28 75.3264C2.28 75.6764 2.375 75.9914 2.565 76.2714C2.765 76.5414 3.04 76.7514 3.39 76.9014C3.74 77.0514 4.14 77.1264 4.59 77.1264ZM4.59 73.1664C3.9 73.1664 3.295 73.0514 2.775 72.8214C2.255 72.5814 1.85 72.2564 1.56 71.8464C1.28 71.4264 1.14 70.9414 1.14 70.3914C1.14 69.8314 1.28 69.3364 1.56 68.9064C1.85 68.4764 2.255 68.1414 2.775 67.9014C3.295 67.6614 3.9 67.5414 4.59 67.5414C5.29 67.5414 5.9 67.6614 6.42 67.9014C6.94 68.1414 7.34 68.4764 7.62 68.9064C7.91 69.3364 8.055 69.8314 8.055 70.3914C8.055 70.9414 7.91 71.4264 7.62 71.8464C7.34 72.2564 6.94 72.5814 6.42 72.8214C5.9 73.0514 5.29 73.1664 4.59 73.1664ZM4.59 72.1764C5.18 72.1764 5.66 72.0264 6.03 71.7264C6.41 71.4164 6.6 71.0214 6.6 70.5414C6.6 70.0214 6.41 69.6014 6.03 69.2814C5.66 68.9514 5.18 68.7864 4.59 68.7864C4.01 68.7864 3.535 68.9514 3.165 69.2814C2.795 69.6014 2.61 70.0214 2.61 70.5414C2.61 71.0214 2.795 71.4164 3.165 71.7264C3.535 72.0264 4.01 72.1764 4.59 72.1764ZM14.0289 78.4014C13.2189 78.4014 12.4989 78.1714 11.8689 77.7114C11.2389 77.2414 10.7439 76.6014 10.3839 75.7914C10.0339 74.9714 9.85887 74.0314 9.85887 72.9714C9.85887 71.9114 10.0339 70.9764 10.3839 70.1664C10.7439 69.3464 11.2339 68.7064 11.8539 68.2464C12.4839 67.7764 13.2089 67.5414 14.0289 67.5414C14.8489 67.5414 15.5689 67.7764 16.1889 68.2464C16.8189 68.7064 17.3139 69.3464 17.6739 70.1664C18.0339 70.9764 18.2139 71.9114 18.2139 72.9714C18.2139 74.0314 18.0339 74.9714 17.6739 75.7914C17.3239 76.6014 16.8339 77.2414 16.2039 77.7114C15.5739 78.1714 14.8489 78.4014 14.0289 78.4014ZM14.0289 77.0514C14.5589 77.0514 15.0289 76.8764 15.4389 76.5264C15.8589 76.1764 16.1839 75.6964 16.4139 75.0864C16.6439 74.4764 16.7589 73.7714 16.7589 72.9714C16.7589 72.1714 16.6439 71.4664 16.4139 70.8564C16.1839 70.2364 15.8589 69.7514 15.4389 69.4014C15.0289 69.0514 14.5589 68.8764 14.0289 68.8764C13.4989 68.8764 13.0289 69.0514 12.6189 69.4014C12.2089 69.7514 11.8889 70.2364 11.6589 70.8564C11.4289 71.4664 11.3139 72.1714 11.3139 72.9714C11.3139 73.7714 11.4289 74.4814 11.6589 75.1014C11.8889 75.7114 12.2089 76.1914 12.6189 76.5414C13.0289 76.8814 13.4989 77.0514 14.0289 77.0514ZM23.6675 78.4014C22.8575 78.4014 22.1375 78.1714 21.5075 77.7114C20.8775 77.2414 20.3825 76.6014 20.0225 75.7914C19.6725 74.9714 19.4975 74.0314 19.4975 72.9714C19.4975 71.9114 19.6725 70.9764 20.0225 70.1664C20.3825 69.3464 20.8725 68.7064 21.4925 68.2464C22.1225 67.7764 22.8475 67.5414 23.6675 67.5414C24.4875 67.5414 25.2075 67.7764 25.8275 68.2464C26.4575 68.7064 26.9525 69.3464 27.3125 70.1664C27.6725 70.9764 27.8525 71.9114 27.8525 72.9714C27.8525 74.0314 27.6725 74.9714 27.3125 75.7914C26.9625 76.6014 26.4725 77.2414 25.8425 77.7114C25.2125 78.1714 24.4875 78.4014 23.6675 78.4014ZM23.6675 77.0514C24.1975 77.0514 24.6675 76.8764 25.0775 76.5264C25.4975 76.1764 25.8225 75.6964 26.0525 75.0864C26.2825 74.4764 26.3975 73.7714 26.3975 72.9714C26.3975 72.1714 26.2825 71.4664 26.0525 70.8564C25.8225 70.2364 25.4975 69.7514 25.0775 69.4014C24.6675 69.0514 24.1975 68.8764 23.6675 68.8764C23.1375 68.8764 22.6675 69.0514 22.2575 69.4014C21.8475 69.7514 21.5275 70.2364 21.2975 70.8564C21.0675 71.4664 20.9525 72.1714 20.9525 72.9714C20.9525 73.7714 21.0675 74.4814 21.2975 75.1014C21.5275 75.7114 21.8475 76.1914 22.2575 76.5414C22.6675 76.8814 23.1375 77.0514 23.6675 77.0514ZM30.8612 75.9564L29.9762 74.9814L33.9212 70.7214H35.6612L30.8612 75.9564ZM29.4812 78.2214V67.7214H30.9062V78.2214H29.4812ZM34.2362 78.2214L31.4762 74.1114L32.4062 73.1214L35.9462 78.2214H34.2362Z" fill="#808080"/>
<path d="M4.47 140.401C3.75 140.401 3.145 140.266 2.655 139.996C2.165 139.726 1.77 139.361 1.47 138.901C1.18 138.431 0.97 137.891 0.84 137.281C0.71 136.671 0.645 136.021 0.645 135.331C0.645 134.461 0.735 133.671 0.915 132.961C1.095 132.251 1.36 131.641 1.71 131.131C2.06 130.621 2.49 130.231 3 129.961C3.51 129.681 4.095 129.541 4.755 129.541C5.285 129.541 5.81 129.626 6.33 129.796C6.85 129.956 7.315 130.181 7.725 130.471L6.93 131.536C6.61 131.316 6.265 131.151 5.895 131.041C5.525 130.921 5.18 130.861 4.86 130.861C3.91 130.861 3.18 131.266 2.67 132.076C2.16 132.876 1.93 134.111 1.98 135.781L1.68 135.526C1.92 134.936 2.295 134.466 2.805 134.116C3.325 133.756 3.935 133.576 4.635 133.576C5.315 133.576 5.915 133.726 6.435 134.026C6.955 134.326 7.36 134.736 7.65 135.256C7.94 135.766 8.085 136.356 8.085 137.026C8.085 137.676 7.935 138.256 7.635 138.766C7.335 139.276 6.91 139.676 6.36 139.966C5.82 140.256 5.19 140.401 4.47 140.401ZM4.485 139.111C4.895 139.111 5.26 139.021 5.58 138.841C5.9 138.661 6.15 138.411 6.33 138.091C6.52 137.761 6.615 137.391 6.615 136.981C6.615 136.561 6.52 136.191 6.33 135.871C6.15 135.541 5.9 135.286 5.58 135.106C5.26 134.926 4.895 134.836 4.485 134.836C4.065 134.836 3.69 134.926 3.36 135.106C3.04 135.286 2.785 135.541 2.595 135.871C2.415 136.191 2.325 136.561 2.325 136.981C2.325 137.391 2.415 137.761 2.595 138.091C2.785 138.411 3.04 138.661 3.36 138.841C3.69 139.021 4.065 139.111 4.485 139.111ZM13.355 140.401C12.545 140.401 11.825 140.171 11.195 139.711C10.565 139.241 10.07 138.601 9.71004 137.791C9.36004 136.971 9.18504 136.031 9.18504 134.971C9.18504 133.911 9.36004 132.976 9.71004 132.166C10.07 131.346 10.56 130.706 11.18 130.246C11.81 129.776 12.535 129.541 13.355 129.541C14.175 129.541 14.895 129.776 15.515 130.246C16.145 130.706 16.64 131.346 17 132.166C17.36 132.976 17.54 133.911 17.54 134.971C17.54 136.031 17.36 136.971 17 137.791C16.65 138.601 16.16 139.241 15.53 139.711C14.9 140.171 14.175 140.401 13.355 140.401ZM13.355 139.051C13.885 139.051 14.355 138.876 14.765 138.526C15.185 138.176 15.51 137.696 15.74 137.086C15.97 136.476 16.085 135.771 16.085 134.971C16.085 134.171 15.97 133.466 15.74 132.856C15.51 132.236 15.185 131.751 14.765 131.401C14.355 131.051 13.885 130.876 13.355 130.876C12.825 130.876 12.355 131.051 11.945 131.401C11.535 131.751 11.215 132.236 10.985 132.856C10.755 133.466 10.64 134.171 10.64 134.971C10.64 135.771 10.755 136.481 10.985 137.101C11.215 137.711 11.535 138.191 11.945 138.541C12.355 138.881 12.825 139.051 13.355 139.051ZM22.9937 140.401C22.1837 140.401 21.4637 140.171 20.8337 139.711C20.2037 139.241 19.7087 138.601 19.3487 137.791C18.9987 136.971 18.8237 136.031 18.8237 134.971C18.8237 133.911 18.9987 132.976 19.3487 132.166C19.7087 131.346 20.1987 130.706 20.8187 130.246C21.4487 129.776 22.1737 129.541 22.9937 129.541C23.8137 129.541 24.5337 129.776 25.1537 130.246C25.7837 130.706 26.2787 131.346 26.6387 132.166C26.9987 132.976 27.1787 133.911 27.1787 134.971C27.1787 136.031 26.9987 136.971 26.6387 137.791C26.2887 138.601 25.7987 139.241 25.1687 139.711C24.5387 140.171 23.8137 140.401 22.9937 140.401ZM22.9937 139.051C23.5237 139.051 23.9937 138.876 24.4037 138.526C24.8237 138.176 25.1487 137.696 25.3787 137.086C25.6087 136.476 25.7237 135.771 25.7237 134.971C25.7237 134.171 25.6087 133.466 25.3787 132.856C25.1487 132.236 24.8237 131.751 24.4037 131.401C23.9937 131.051 23.5237 130.876 22.9937 130.876C22.4637 130.876 21.9937 131.051 21.5837 131.401C21.1737 131.751 20.8537 132.236 20.6237 132.856C20.3937 133.466 20.2787 134.171 20.2787 134.971C20.2787 135.771 20.3937 136.481 20.6237 137.101C20.8537 137.711 21.1737 138.191 21.5837 138.541C21.9937 138.881 22.4637 139.051 22.9937 139.051ZM30.1874 137.956L29.3024 136.981L33.2474 132.721H34.9874L30.1874 137.956ZM28.8074 140.221V129.721H30.2324V140.221H28.8074ZM33.5624 140.221L30.8024 136.111L31.7324 135.121L35.2724 140.221H33.5624Z" fill="#808080"/>
<path d="M5.43 202.221V199.806H0.585V198.651L5.325 191.721H6.855V198.501H8.91V199.806H6.855V202.221H5.43ZM2.205 198.501H5.43V193.776L2.205 198.501ZM14.1754 202.401C13.3654 202.401 12.6454 202.171 12.0154 201.711C11.3854 201.241 10.8904 200.601 10.5304 199.791C10.1804 198.971 10.0054 198.031 10.0054 196.971C10.0054 195.911 10.1804 194.976 10.5304 194.166C10.8904 193.346 11.3804 192.706 12.0004 192.246C12.6304 191.776 13.3554 191.541 14.1754 191.541C14.9954 191.541 15.7154 191.776 16.3354 192.246C16.9654 192.706 17.4604 193.346 17.8204 194.166C18.1804 194.976 18.3604 195.911 18.3604 196.971C18.3604 198.031 18.1804 198.971 17.8204 199.791C17.4704 200.601 16.9804 201.241 16.3504 201.711C15.7204 202.171 14.9954 202.401 14.1754 202.401ZM14.1754 201.051C14.7054 201.051 15.1754 200.876 15.5854 200.526C16.0054 200.176 16.3304 199.696 16.5604 199.086C16.7904 198.476 16.9054 197.771 16.9054 196.971C16.9054 196.171 16.7904 195.466 16.5604 194.856C16.3304 194.236 16.0054 193.751 15.5854 193.401C15.1754 193.051 14.7054 192.876 14.1754 192.876C13.6454 192.876 13.1754 193.051 12.7654 193.401C12.3554 193.751 12.0354 194.236 11.8054 194.856C11.5754 195.466 11.4604 196.171 11.4604 196.971C11.4604 197.771 11.5754 198.481 11.8054 199.101C12.0354 199.711 12.3554 200.191 12.7654 200.541C13.1754 200.881 13.6454 201.051 14.1754 201.051ZM23.814 202.401C23.004 202.401 22.284 202.171 21.654 201.711C21.024 201.241 20.529 200.601 20.169 199.791C19.819 198.971 19.644 198.031 19.644 196.971C19.644 195.911 19.819 194.976 20.169 194.166C20.529 193.346 21.019 192.706 21.639 192.246C22.269 191.776 22.994 191.541 23.814 191.541C24.634 191.541 25.354 191.776 25.974 192.246C26.604 192.706 27.099 193.346 27.459 194.166C27.819 194.976 27.999 195.911 27.999 196.971C27.999 198.031 27.819 198.971 27.459 199.791C27.109 200.601 26.619 201.241 25.989 201.711C25.359 202.171 24.634 202.401 23.814 202.401ZM23.814 201.051C24.344 201.051 24.814 200.876 25.224 200.526C25.644 200.176 25.969 199.696 26.199 199.086C26.429 198.476 26.544 197.771 26.544 196.971C26.544 196.171 26.429 195.466 26.199 194.856C25.969 194.236 25.644 193.751 25.224 193.401C24.814 193.051 24.344 192.876 23.814 192.876C23.284 192.876 22.814 193.051 22.404 193.401C21.994 193.751 21.674 194.236 21.444 194.856C21.214 195.466 21.099 196.171 21.099 196.971C21.099 197.771 21.214 198.481 21.444 199.101C21.674 199.711 21.994 200.191 22.404 200.541C22.814 200.881 23.284 201.051 23.814 201.051ZM31.0077 199.956L30.1227 198.981L34.0677 194.721H35.8077L31.0077 199.956ZM29.6277 202.221V191.721H31.0527V202.221H29.6277ZM34.3827 202.221L31.6227 198.111L32.5527 197.121L36.0927 202.221H34.3827Z" fill="#808080"/>
<path d="M0.714 262.199C1.89933 261.247 2.828 260.468 3.5 259.861C4.172 259.245 4.73667 258.606 5.194 257.943C5.66067 257.271 5.894 256.613 5.894 255.969C5.894 255.363 5.74467 254.887 5.446 254.541C5.15667 254.187 4.68533 254.009 4.032 254.009C3.39733 254.009 2.90267 254.21 2.548 254.611C2.20267 255.003 2.016 255.531 1.988 256.193H0.756C0.793333 255.148 1.11067 254.341 1.708 253.771C2.30533 253.202 3.07533 252.917 4.018 252.917C4.97933 252.917 5.74 253.183 6.3 253.715C6.86933 254.247 7.154 254.98 7.154 255.913C7.154 256.688 6.92067 257.444 6.454 258.181C5.99667 258.909 5.474 259.553 4.886 260.113C4.298 260.664 3.54667 261.308 2.632 262.045H7.448V263.109H0.714V262.199ZM8.92073 258.055C8.92073 256.45 9.18207 255.199 9.70473 254.303C10.2274 253.398 11.1421 252.945 12.4487 252.945C13.7461 252.945 14.6561 253.398 15.1787 254.303C15.7014 255.199 15.9627 256.45 15.9627 258.055C15.9627 259.689 15.7014 260.958 15.1787 261.863C14.6561 262.769 13.7461 263.221 12.4487 263.221C11.1421 263.221 10.2274 262.769 9.70473 261.863C9.18207 260.958 8.92073 259.689 8.92073 258.055ZM14.7027 258.055C14.7027 257.243 14.6467 256.557 14.5347 255.997C14.4321 255.428 14.2127 254.971 13.8767 254.625C13.5501 254.28 13.0741 254.107 12.4487 254.107C11.8141 254.107 11.3287 254.28 10.9927 254.625C10.6661 254.971 10.4467 255.428 10.3347 255.997C10.2321 256.557 10.1807 257.243 10.1807 258.055C10.1807 258.895 10.2321 259.6 10.3347 260.169C10.4467 260.739 10.6661 261.196 10.9927 261.541C11.3287 261.887 11.8141 262.059 12.4487 262.059C13.0741 262.059 13.5501 261.887 13.8767 261.541C14.2127 261.196 14.4321 260.739 14.5347 260.169C14.6467 259.6 14.7027 258.895 14.7027 258.055ZM17.7118 258.055C17.7118 256.45 17.9731 255.199 18.4958 254.303C19.0184 253.398 19.9331 252.945 21.2398 252.945C22.5371 252.945 23.4471 253.398 23.9698 254.303C24.4924 255.199 24.7537 256.45 24.7537 258.055C24.7537 259.689 24.4924 260.958 23.9698 261.863C23.4471 262.769 22.5371 263.221 21.2398 263.221C19.9331 263.221 19.0184 262.769 18.4958 261.863C17.9731 260.958 17.7118 259.689 17.7118 258.055ZM23.4938 258.055C23.4938 257.243 23.4378 256.557 23.3258 255.997C23.2231 255.428 23.0038 254.971 22.6678 254.625C22.3411 254.28 21.8651 254.107 21.2398 254.107C20.6051 254.107 20.1198 254.28 19.7838 254.625C19.4571 254.971 19.2378 255.428 19.1258 255.997C19.0231 256.557 18.9718 257.243 18.9718 258.055C18.9718 258.895 19.0231 259.6 19.1258 260.169C19.2378 260.739 19.4571 261.196 19.7838 261.541C20.1198 261.887 20.6051 262.059 21.2398 262.059C21.8651 262.059 22.3411 261.887 22.6678 261.541C23.0038 261.196 23.2231 260.739 23.3258 260.169C23.4378 259.6 23.4938 258.895 23.4938 258.055ZM30.9968 263.221L27.9868 259.833V263.221H26.7128V252.861H27.9868V258.951L30.9408 255.549H32.7188L29.1068 259.371L32.7328 263.221H30.9968Z" fill="#808080"/>
<rect width="12" height="270" rx="6" transform="matrix(-1 0 0 1 81 0.221436)" fill="#E9E9E9"/>
<rect width="12" height="104" rx="6" transform="matrix(-1 0 0 1 81 166.221)" fill="#5655D7"/>
<path d="M71.8755 296.401C71.0655 296.401 70.3455 296.171 69.7155 295.711C69.0855 295.241 68.5905 294.601 68.2305 293.791C67.8805 292.971 67.7055 292.031 67.7055 290.971C67.7055 289.911 67.8805 288.976 68.2305 288.166C68.5905 287.346 69.0805 286.706 69.7005 286.246C70.3305 285.776 71.0555 285.541 71.8755 285.541C72.6955 285.541 73.4155 285.776 74.0355 286.246C74.6655 286.706 75.1605 287.346 75.5205 288.166C75.8805 288.976 76.0605 289.911 76.0605 290.971C76.0605 292.031 75.8805 292.971 75.5205 293.791C75.1705 294.601 74.6805 295.241 74.0505 295.711C73.4205 296.171 72.6955 296.401 71.8755 296.401ZM71.8755 295.051C72.4055 295.051 72.8755 294.876 73.2855 294.526C73.7055 294.176 74.0305 293.696 74.2605 293.086C74.4905 292.476 74.6055 291.771 74.6055 290.971C74.6055 290.171 74.4905 289.466 74.2605 288.856C74.0305 288.236 73.7055 287.751 73.2855 287.401C72.8755 287.051 72.4055 286.876 71.8755 286.876C71.3455 286.876 70.8755 287.051 70.4655 287.401C70.0555 287.751 69.7355 288.236 69.5055 288.856C69.2755 289.466 69.1605 290.171 69.1605 290.971C69.1605 291.771 69.2755 292.481 69.5055 293.101C69.7355 293.711 70.0555 294.191 70.4655 294.541C70.8755 294.881 71.3455 295.051 71.8755 295.051ZM79.8642 296.221V286.516L79.9992 285.721H81.3042V296.221H79.8642ZM77.5392 288.586V287.251C77.7592 287.261 78.0142 287.191 78.3042 287.041C78.6042 286.891 78.9042 286.696 79.2042 286.456C79.5042 286.216 79.7692 285.966 79.9992 285.706L80.9142 286.696C80.5742 287.056 80.2192 287.381 79.8492 287.671C79.4792 287.961 79.0992 288.191 78.7092 288.361C78.3292 288.531 77.9392 288.606 77.5392 288.586Z" fill="#7A7C7F"/>
<rect width="12" height="270" rx="6" transform="matrix(-1 0 0 1 115.667 0.221436)" fill="#E9E9E9"/>
<rect width="12" height="142" rx="6" transform="matrix(-1 0 0 1 115.667 128.221)" fill="#5655D7"/>
<path d="M105.429 296.401C104.619 296.401 103.899 296.171 103.269 295.711C102.639 295.241 102.144 294.601 101.784 293.791C101.434 292.971 101.259 292.031 101.259 290.971C101.259 289.911 101.434 288.976 101.784 288.166C102.144 287.346 102.634 286.706 103.254 286.246C103.884 285.776 104.609 285.541 105.429 285.541C106.249 285.541 106.969 285.776 107.589 286.246C108.219 286.706 108.714 287.346 109.074 288.166C109.434 288.976 109.614 289.911 109.614 290.971C109.614 292.031 109.434 292.971 109.074 293.791C108.724 294.601 108.234 295.241 107.604 295.711C106.974 296.171 106.249 296.401 105.429 296.401ZM105.429 295.051C105.959 295.051 106.429 294.876 106.839 294.526C107.259 294.176 107.584 293.696 107.814 293.086C108.044 292.476 108.159 291.771 108.159 290.971C108.159 290.171 108.044 289.466 107.814 288.856C107.584 288.236 107.259 287.751 106.839 287.401C106.429 287.051 105.959 286.876 105.429 286.876C104.899 286.876 104.429 287.051 104.019 287.401C103.609 287.751 103.289 288.236 103.059 288.856C102.829 289.466 102.714 290.171 102.714 290.971C102.714 291.771 102.829 292.481 103.059 293.101C103.289 293.711 103.609 294.191 104.019 294.541C104.429 294.881 104.899 295.051 105.429 295.051ZM111.092 296.221V295.036C111.092 294.726 111.162 294.406 111.302 294.076C111.452 293.736 111.662 293.401 111.932 293.071C112.212 292.741 112.542 292.436 112.922 292.156L114.947 290.656C115.187 290.486 115.402 290.291 115.592 290.071C115.792 289.841 115.947 289.606 116.057 289.366C116.177 289.116 116.237 288.871 116.237 288.631C116.237 288.311 116.157 288.021 115.997 287.761C115.837 287.491 115.612 287.281 115.322 287.131C115.032 286.971 114.687 286.891 114.287 286.891C113.907 286.891 113.572 286.966 113.282 287.116C113.002 287.256 112.767 287.446 112.577 287.686C112.387 287.926 112.252 288.181 112.172 288.451L110.657 288.166C110.767 287.706 110.982 287.276 111.302 286.876C111.622 286.476 112.032 286.156 112.532 285.916C113.032 285.666 113.597 285.541 114.227 285.541C114.947 285.541 115.567 285.676 116.087 285.946C116.617 286.206 117.027 286.571 117.317 287.041C117.607 287.501 117.752 288.031 117.752 288.631C117.752 289.211 117.592 289.746 117.272 290.236C116.962 290.726 116.512 291.201 115.922 291.661L114.047 293.071C113.677 293.351 113.382 293.641 113.162 293.941C112.952 294.241 112.822 294.561 112.772 294.901H117.887V296.221H111.092Z" fill="#7A7C7F"/>
<rect width="12" height="270" rx="6" transform="matrix(-1 0 0 1 151.333 0.221436)" fill="#E9E9E9"/>
<rect width="12" height="180" rx="6" transform="matrix(-1 0 0 1 151.333 90.2214)" fill="#5655D7"/>
<path d="M141.228 296.401C140.418 296.401 139.698 296.171 139.068 295.711C138.438 295.241 137.943 294.601 137.583 293.791C137.233 292.971 137.058 292.031 137.058 290.971C137.058 289.911 137.233 288.976 137.583 288.166C137.943 287.346 138.433 286.706 139.053 286.246C139.683 285.776 140.408 285.541 141.228 285.541C142.048 285.541 142.768 285.776 143.388 286.246C144.018 286.706 144.513 287.346 144.873 288.166C145.233 288.976 145.413 289.911 145.413 290.971C145.413 292.031 145.233 292.971 144.873 293.791C144.523 294.601 144.033 295.241 143.403 295.711C142.773 296.171 142.048 296.401 141.228 296.401ZM141.228 295.051C141.758 295.051 142.228 294.876 142.638 294.526C143.058 294.176 143.383 293.696 143.613 293.086C143.843 292.476 143.958 291.771 143.958 290.971C143.958 290.171 143.843 289.466 143.613 288.856C143.383 288.236 143.058 287.751 142.638 287.401C142.228 287.051 141.758 286.876 141.228 286.876C140.698 286.876 140.228 287.051 139.818 287.401C139.408 287.751 139.088 288.236 138.858 288.856C138.628 289.466 138.513 290.171 138.513 290.971C138.513 291.771 138.628 292.481 138.858 293.101C139.088 293.711 139.408 294.191 139.818 294.541C140.228 294.881 140.698 295.051 141.228 295.051ZM150.131 296.401C149.591 296.401 149.101 296.321 148.661 296.161C148.221 296.001 147.851 295.781 147.551 295.501C147.251 295.221 147.021 294.916 146.861 294.586L148.136 294.001C148.236 294.141 148.361 294.301 148.511 294.481C148.661 294.651 148.861 294.796 149.111 294.916C149.361 295.036 149.671 295.096 150.041 295.096C150.671 295.096 151.171 294.916 151.541 294.556C151.921 294.196 152.111 293.741 152.111 293.191C152.111 292.781 152.001 292.436 151.781 292.156C151.561 291.866 151.236 291.646 150.806 291.496C150.386 291.346 149.871 291.271 149.261 291.271H148.886V290.161H149.231C149.851 290.161 150.421 290.231 150.941 290.371C151.471 290.511 151.936 290.721 152.336 291.001C152.736 291.271 153.046 291.601 153.266 291.991C153.486 292.381 153.596 292.826 153.596 293.326C153.596 293.946 153.436 294.491 153.116 294.961C152.806 295.421 152.386 295.776 151.856 296.026C151.336 296.276 150.761 296.401 150.131 296.401ZM148.886 291.091V290.026H149.261C150.081 290.026 150.721 289.886 151.181 289.606C151.641 289.326 151.871 288.931 151.871 288.421C151.871 288.131 151.791 287.871 151.631 287.641C151.481 287.401 151.266 287.211 150.986 287.071C150.716 286.921 150.391 286.846 150.011 286.846C149.771 286.846 149.536 286.886 149.306 286.966C149.086 287.036 148.881 287.146 148.691 287.296C148.501 287.436 148.336 287.621 148.196 287.851L146.966 287.296C147.136 286.926 147.376 286.611 147.686 286.351C147.996 286.091 148.356 285.891 148.766 285.751C149.176 285.611 149.611 285.541 150.071 285.541C150.701 285.541 151.261 285.661 151.751 285.901C152.241 286.141 152.626 286.471 152.906 286.891C153.196 287.311 153.341 287.786 153.341 288.316C153.341 288.766 153.231 289.166 153.011 289.516C152.801 289.856 152.506 290.146 152.126 290.386C151.746 290.616 151.306 290.791 150.806 290.911C150.316 291.031 149.786 291.091 149.216 291.091H148.886Z" fill="#7A7C7F"/>
<rect width="12" height="270" rx="6" transform="matrix(-1 0 0 1 187 0.221436)" fill="#E9E9E9"/>
<rect width="12" height="176" rx="6" transform="matrix(-1 0 0 1 187 94.2214)" fill="#5655D7"/>
<path d="M176.315 296.401C175.505 296.401 174.785 296.171 174.155 295.711C173.525 295.241 173.03 294.601 172.67 293.791C172.32 292.971 172.145 292.031 172.145 290.971C172.145 289.911 172.32 288.976 172.67 288.166C173.03 287.346 173.52 286.706 174.14 286.246C174.77 285.776 175.495 285.541 176.315 285.541C177.135 285.541 177.855 285.776 178.475 286.246C179.105 286.706 179.6 287.346 179.96 288.166C180.32 288.976 180.5 289.911 180.5 290.971C180.5 292.031 180.32 292.971 179.96 293.791C179.61 294.601 179.12 295.241 178.49 295.711C177.86 296.171 177.135 296.401 176.315 296.401ZM176.315 295.051C176.845 295.051 177.315 294.876 177.725 294.526C178.145 294.176 178.47 293.696 178.7 293.086C178.93 292.476 179.045 291.771 179.045 290.971C179.045 290.171 178.93 289.466 178.7 288.856C178.47 288.236 178.145 287.751 177.725 287.401C177.315 287.051 176.845 286.876 176.315 286.876C175.785 286.876 175.315 287.051 174.905 287.401C174.495 287.751 174.175 288.236 173.945 288.856C173.715 289.466 173.6 290.171 173.6 290.971C173.6 291.771 173.715 292.481 173.945 293.101C174.175 293.711 174.495 294.191 174.905 294.541C175.315 294.881 175.785 295.051 176.315 295.051ZM186.569 296.221V293.806H181.724V292.651L186.464 285.721H187.994V292.501H190.049V293.806H187.994V296.221H186.569ZM183.344 292.501H186.569V287.776L183.344 292.501Z" fill="#7A7C7F"/>
<rect width="12" height="270" rx="6" transform="matrix(-1 0 0 1 223.167 0.221436)" fill="#E9E9E9"/>
<rect width="12" height="75" rx="6" transform="matrix(-1 0 0 1 223.167 195.221)" fill="#5655D7"/>
<path d="M212.841 296.401C212.031 296.401 211.311 296.171 210.681 295.711C210.051 295.241 209.556 294.601 209.196 293.791C208.846 292.971 208.671 292.031 208.671 290.971C208.671 289.911 208.846 288.976 209.196 288.166C209.556 287.346 210.046 286.706 210.666 286.246C211.296 285.776 212.021 285.541 212.841 285.541C213.661 285.541 214.381 285.776 215.001 286.246C215.631 286.706 216.126 287.346 216.486 288.166C216.846 288.976 217.026 289.911 217.026 290.971C217.026 292.031 216.846 292.971 216.486 293.791C216.136 294.601 215.646 295.241 215.016 295.711C214.386 296.171 213.661 296.401 212.841 296.401ZM212.841 295.051C213.371 295.051 213.841 294.876 214.251 294.526C214.671 294.176 214.996 293.696 215.226 293.086C215.456 292.476 215.571 291.771 215.571 290.971C215.571 290.171 215.456 289.466 215.226 288.856C214.996 288.236 214.671 287.751 214.251 287.401C213.841 287.051 213.371 286.876 212.841 286.876C212.311 286.876 211.841 287.051 211.431 287.401C211.021 287.751 210.701 288.236 210.471 288.856C210.241 289.466 210.126 290.171 210.126 290.971C210.126 291.771 210.241 292.481 210.471 293.101C210.701 293.711 211.021 294.191 211.431 294.541C211.841 294.881 212.311 295.051 212.841 295.051ZM222.03 296.401C221.59 296.401 221.14 296.336 220.68 296.206C220.23 296.066 219.81 295.861 219.42 295.591C219.03 295.311 218.72 294.956 218.49 294.526L219.735 293.956C220.055 294.356 220.405 294.651 220.785 294.841C221.165 295.021 221.56 295.111 221.97 295.111C222.62 295.111 223.145 294.916 223.545 294.526C223.945 294.136 224.145 293.616 224.145 292.966C224.145 292.336 223.95 291.821 223.56 291.421C223.17 291.021 222.66 290.821 222.03 290.821C221.67 290.821 221.325 290.901 220.995 291.061C220.665 291.211 220.41 291.401 220.23 291.631L218.895 291.331L219.435 285.721H225.12V287.071H220.725L220.41 290.176C220.69 290.016 221 289.886 221.34 289.786C221.68 289.686 222.025 289.636 222.375 289.636C223.005 289.636 223.565 289.776 224.055 290.056C224.545 290.336 224.93 290.726 225.21 291.226C225.5 291.716 225.645 292.281 225.645 292.921C225.645 293.611 225.49 294.216 225.18 294.736C224.87 295.256 224.445 295.666 223.905 295.966C223.365 296.256 222.74 296.401 222.03 296.401Z" fill="#7A7C7F"/>
<rect width="12" height="270" rx="6" transform="matrix(-1 0 0 1 259.333 0.221436)" fill="#E9E9E9"/>
<rect width="12" height="117" rx="6" transform="matrix(-1 0 0 1 259.333 153.221)" fill="#5655D7"/>
<path d="M249.059 296.401C248.249 296.401 247.529 296.171 246.899 295.711C246.269 295.241 245.774 294.601 245.414 293.791C245.064 292.971 244.889 292.031 244.889 290.971C244.889 289.911 245.064 288.976 245.414 288.166C245.774 287.346 246.264 286.706 246.884 286.246C247.514 285.776 248.239 285.541 249.059 285.541C249.879 285.541 250.599 285.776 251.219 286.246C251.849 286.706 252.344 287.346 252.704 288.166C253.064 288.976 253.244 289.911 253.244 290.971C253.244 292.031 253.064 292.971 252.704 293.791C252.354 294.601 251.864 295.241 251.234 295.711C250.604 296.171 249.879 296.401 249.059 296.401ZM249.059 295.051C249.589 295.051 250.059 294.876 250.469 294.526C250.889 294.176 251.214 293.696 251.444 293.086C251.674 292.476 251.789 291.771 251.789 290.971C251.789 290.171 251.674 289.466 251.444 288.856C251.214 288.236 250.889 287.751 250.469 287.401C250.059 287.051 249.589 286.876 249.059 286.876C248.529 286.876 248.059 287.051 247.649 287.401C247.239 287.751 246.919 288.236 246.689 288.856C246.459 289.466 246.344 290.171 246.344 290.971C246.344 291.771 246.459 292.481 246.689 293.101C246.919 293.711 247.239 294.191 247.649 294.541C248.059 294.881 248.529 295.051 249.059 295.051ZM258.353 296.401C257.633 296.401 257.028 296.266 256.538 295.996C256.048 295.726 255.653 295.361 255.353 294.901C255.063 294.431 254.853 293.891 254.723 293.281C254.593 292.671 254.528 292.021 254.528 291.331C254.528 290.461 254.618 289.671 254.798 288.961C254.978 288.251 255.243 287.641 255.593 287.131C255.943 286.621 256.373 286.231 256.883 285.961C257.393 285.681 257.978 285.541 258.638 285.541C259.168 285.541 259.693 285.626 260.213 285.796C260.733 285.956 261.198 286.181 261.608 286.471L260.813 287.536C260.493 287.316 260.148 287.151 259.778 287.041C259.408 286.921 259.063 286.861 258.743 286.861C257.793 286.861 257.063 287.266 256.553 288.076C256.043 288.876 255.813 290.111 255.863 291.781L255.563 291.526C255.803 290.936 256.178 290.466 256.688 290.116C257.208 289.756 257.818 289.576 258.518 289.576C259.198 289.576 259.798 289.726 260.318 290.026C260.838 290.326 261.243 290.736 261.533 291.256C261.823 291.766 261.968 292.356 261.968 293.026C261.968 293.676 261.818 294.256 261.518 294.766C261.218 295.276 260.793 295.676 260.243 295.966C259.703 296.256 259.073 296.401 258.353 296.401ZM258.368 295.111C258.778 295.111 259.143 295.021 259.463 294.841C259.783 294.661 260.033 294.411 260.213 294.091C260.403 293.761 260.498 293.391 260.498 292.981C260.498 292.561 260.403 292.191 260.213 291.871C260.033 291.541 259.783 291.286 259.463 291.106C259.143 290.926 258.778 290.836 258.368 290.836C257.948 290.836 257.573 290.926 257.243 291.106C256.923 291.286 256.668 291.541 256.478 291.871C256.298 292.191 256.208 292.561 256.208 292.981C256.208 293.391 256.298 293.761 256.478 294.091C256.668 294.411 256.923 294.661 257.243 294.841C257.573 295.021 257.948 295.111 258.368 295.111Z" fill="#7A7C7F"/>
<rect width="12" height="270" rx="6" transform="matrix(-1 0 0 1 295 0.221436)" fill="#E9E9E9"/>
<rect width="12" height="92" rx="6" transform="matrix(-1 0 0 1 295 178.221)" fill="#5655D7"/>
<path d="M284.931 296.401C284.121 296.401 283.401 296.171 282.771 295.711C282.141 295.241 281.646 294.601 281.286 293.791C280.936 292.971 280.761 292.031 280.761 290.971C280.761 289.911 280.936 288.976 281.286 288.166C281.646 287.346 282.136 286.706 282.756 286.246C283.386 285.776 284.111 285.541 284.931 285.541C285.751 285.541 286.471 285.776 287.091 286.246C287.721 286.706 288.216 287.346 288.576 288.166C288.936 288.976 289.116 289.911 289.116 290.971C289.116 292.031 288.936 292.971 288.576 293.791C288.226 294.601 287.736 295.241 287.106 295.711C286.476 296.171 285.751 296.401 284.931 296.401ZM284.931 295.051C285.461 295.051 285.931 294.876 286.341 294.526C286.761 294.176 287.086 293.696 287.316 293.086C287.546 292.476 287.661 291.771 287.661 290.971C287.661 290.171 287.546 289.466 287.316 288.856C287.086 288.236 286.761 287.751 286.341 287.401C285.931 287.051 285.461 286.876 284.931 286.876C284.401 286.876 283.931 287.051 283.521 287.401C283.111 287.751 282.791 288.236 282.561 288.856C282.331 289.466 282.216 290.171 282.216 290.971C282.216 291.771 282.331 292.481 282.561 293.101C282.791 293.711 283.111 294.191 283.521 294.541C283.931 294.881 284.401 295.051 284.931 295.051ZM291.029 296.221L295.979 286.756L297.434 286.906L292.664 296.221H291.029ZM290.339 287.071V285.721H297.434V286.906L296.159 287.071H290.339Z" fill="#7A7C7F"/>
<rect width="12" height="270" rx="6" transform="matrix(-1 0 0 1 330.667 0.221436)" fill="#E9E9E9"/>
<rect width="12" height="115" rx="6" transform="matrix(-1 0 0 1 330.667 155.221)" fill="#5655D7"/>
<path d="M320.055 296.401C319.245 296.401 318.525 296.171 317.895 295.711C317.265 295.241 316.77 294.601 316.41 293.791C316.06 292.971 315.885 292.031 315.885 290.971C315.885 289.911 316.06 288.976 316.41 288.166C316.77 287.346 317.26 286.706 317.88 286.246C318.51 285.776 319.235 285.541 320.055 285.541C320.875 285.541 321.595 285.776 322.215 286.246C322.845 286.706 323.34 287.346 323.7 288.166C324.06 288.976 324.24 289.911 324.24 290.971C324.24 292.031 324.06 292.971 323.7 293.791C323.35 294.601 322.86 295.241 322.23 295.711C321.6 296.171 320.875 296.401 320.055 296.401ZM320.055 295.051C320.585 295.051 321.055 294.876 321.465 294.526C321.885 294.176 322.21 293.696 322.44 293.086C322.67 292.476 322.785 291.771 322.785 290.971C322.785 290.171 322.67 289.466 322.44 288.856C322.21 288.236 321.885 287.751 321.465 287.401C321.055 287.051 320.585 286.876 320.055 286.876C319.525 286.876 319.055 287.051 318.645 287.401C318.235 287.751 317.915 288.236 317.685 288.856C317.455 289.466 317.34 290.171 317.34 290.971C317.34 291.771 317.455 292.481 317.685 293.101C317.915 293.711 318.235 294.191 318.645 294.541C319.055 294.881 319.525 295.051 320.055 295.051ZM329.469 296.401C328.689 296.401 328.014 296.281 327.444 296.041C326.874 295.791 326.429 295.451 326.109 295.021C325.799 294.581 325.644 294.071 325.644 293.491C325.644 292.881 325.799 292.346 326.109 291.886C326.429 291.416 326.874 291.051 327.444 290.791C328.014 290.531 328.689 290.406 329.469 290.416C330.259 290.406 330.939 290.531 331.509 290.791C332.079 291.051 332.519 291.416 332.829 291.886C333.149 292.346 333.309 292.881 333.309 293.491C333.309 294.071 333.149 294.581 332.829 295.021C332.519 295.451 332.079 295.791 331.509 296.041C330.939 296.281 330.259 296.401 329.469 296.401ZM329.469 295.126C330.159 295.126 330.719 294.961 331.149 294.631C331.589 294.291 331.809 293.856 331.809 293.326C331.809 292.776 331.589 292.331 331.149 291.991C330.719 291.651 330.159 291.481 329.469 291.481C329.019 291.481 328.619 291.556 328.269 291.706C327.919 291.856 327.644 292.076 327.444 292.366C327.254 292.646 327.159 292.966 327.159 293.326C327.159 293.676 327.254 293.991 327.444 294.271C327.644 294.541 327.919 294.751 328.269 294.901C328.619 295.051 329.019 295.126 329.469 295.126ZM329.469 291.166C328.779 291.166 328.174 291.051 327.654 290.821C327.134 290.581 326.729 290.256 326.439 289.846C326.159 289.426 326.019 288.941 326.019 288.391C326.019 287.831 326.159 287.336 326.439 286.906C326.729 286.476 327.134 286.141 327.654 285.901C328.174 285.661 328.779 285.541 329.469 285.541C330.169 285.541 330.779 285.661 331.299 285.901C331.819 286.141 332.219 286.476 332.499 286.906C332.789 287.336 332.934 287.831 332.934 288.391C332.934 288.941 332.789 289.426 332.499 289.846C332.219 290.256 331.819 290.581 331.299 290.821C330.779 291.051 330.169 291.166 329.469 291.166ZM329.469 290.176C330.059 290.176 330.539 290.026 330.909 289.726C331.289 289.416 331.479 289.021 331.479 288.541C331.479 288.021 331.289 287.601 330.909 287.281C330.539 286.951 330.059 286.786 329.469 286.786C328.889 286.786 328.414 286.951 328.044 287.281C327.674 287.601 327.489 288.021 327.489 288.541C327.489 289.021 327.674 289.416 328.044 289.726C328.414 290.026 328.889 290.176 329.469 290.176Z" fill="#7A7C7F"/>
<rect width="12" height="270" rx="6" transform="matrix(-1 0 0 1 366.833 0.221436)" fill="#E9E9E9"/>
<rect width="12" height="142" rx="6" transform="matrix(-1 0 0 1 366.833 128.221)" fill="#5655D7"/>
<path d="M356.559 296.401C355.749 296.401 355.029 296.171 354.399 295.711C353.769 295.241 353.274 294.601 352.914 293.791C352.564 292.971 352.389 292.031 352.389 290.971C352.389 289.911 352.564 288.976 352.914 288.166C353.274 287.346 353.764 286.706 354.384 286.246C355.014 285.776 355.739 285.541 356.559 285.541C357.379 285.541 358.099 285.776 358.719 286.246C359.349 286.706 359.844 287.346 360.204 288.166C360.564 288.976 360.744 289.911 360.744 290.971C360.744 292.031 360.564 292.971 360.204 293.791C359.854 294.601 359.364 295.241 358.734 295.711C358.104 296.171 357.379 296.401 356.559 296.401ZM356.559 295.051C357.089 295.051 357.559 294.876 357.969 294.526C358.389 294.176 358.714 293.696 358.944 293.086C359.174 292.476 359.289 291.771 359.289 290.971C359.289 290.171 359.174 289.466 358.944 288.856C358.714 288.236 358.389 287.751 357.969 287.401C357.559 287.051 357.089 286.876 356.559 286.876C356.029 286.876 355.559 287.051 355.149 287.401C354.739 287.751 354.419 288.236 354.189 288.856C353.959 289.466 353.844 290.171 353.844 290.971C353.844 291.771 353.959 292.481 354.189 293.101C354.419 293.711 354.739 294.191 355.149 294.541C355.559 294.881 356.029 295.051 356.559 295.051ZM365.448 285.541C366.178 285.541 366.783 285.676 367.263 285.946C367.753 286.216 368.148 286.586 368.448 287.056C368.748 287.516 368.963 288.051 369.093 288.661C369.223 289.271 369.288 289.921 369.288 290.611C369.288 291.481 369.193 292.276 369.003 292.996C368.823 293.706 368.558 294.316 368.208 294.826C367.868 295.326 367.443 295.716 366.933 295.996C366.423 296.266 365.833 296.401 365.163 296.401C364.633 296.401 364.108 296.321 363.588 296.161C363.078 296.001 362.618 295.771 362.208 295.471L363.003 294.406C363.313 294.626 363.653 294.796 364.023 294.916C364.393 295.036 364.743 295.096 365.073 295.096C366.023 295.096 366.753 294.691 367.263 293.881C367.773 293.071 367.998 291.831 367.938 290.161L368.253 290.416C368.013 291.006 367.633 291.481 367.113 291.841C366.603 292.191 365.993 292.366 365.283 292.366C364.613 292.366 364.018 292.216 363.498 291.916C362.978 291.616 362.568 291.211 362.268 290.701C361.978 290.181 361.833 289.591 361.833 288.931C361.833 288.261 361.983 287.676 362.283 287.176C362.583 286.666 363.003 286.266 363.543 285.976C364.093 285.686 364.728 285.541 365.448 285.541ZM365.448 286.831C365.038 286.831 364.668 286.921 364.338 287.101C364.018 287.281 363.763 287.531 363.573 287.851C363.393 288.171 363.303 288.541 363.303 288.961C363.303 289.381 363.393 289.756 363.573 290.086C363.763 290.406 364.018 290.661 364.338 290.851C364.668 291.031 365.038 291.121 365.448 291.121C365.868 291.121 366.238 291.031 366.558 290.851C366.888 290.661 367.143 290.406 367.323 290.086C367.513 289.756 367.608 289.381 367.608 288.961C367.608 288.541 367.513 288.171 367.323 287.851C367.143 287.531 366.888 287.281 366.558 287.101C366.238 286.921 365.868 286.831 365.448 286.831Z" fill="#7A7C7F"/>
<rect width="12" height="270" rx="6" transform="matrix(-1 0 0 1 401.5 0.221436)" fill="#E9E9E9"/>
<rect width="12" height="182" rx="6" transform="matrix(-1 0 0 1 401.5 88.2214)" fill="#5655D7"/>
<path d="M390.726 296.221V286.516L390.861 285.721H392.166V296.221H390.726ZM388.401 288.586V287.251C388.621 287.261 388.876 287.191 389.166 287.041C389.466 286.891 389.766 286.696 390.066 286.456C390.366 286.216 390.631 285.966 390.861 285.706L391.776 286.696C391.436 287.056 391.081 287.381 390.711 287.671C390.341 287.961 389.961 288.191 389.571 288.361C389.191 288.531 388.801 288.606 388.401 288.586ZM398.616 296.401C397.806 296.401 397.086 296.171 396.456 295.711C395.826 295.241 395.331 294.601 394.971 293.791C394.621 292.971 394.446 292.031 394.446 290.971C394.446 289.911 394.621 288.976 394.971 288.166C395.331 287.346 395.821 286.706 396.441 286.246C397.071 285.776 397.796 285.541 398.616 285.541C399.436 285.541 400.156 285.776 400.776 286.246C401.406 286.706 401.901 287.346 402.261 288.166C402.621 288.976 402.801 289.911 402.801 290.971C402.801 292.031 402.621 292.971 402.261 293.791C401.911 294.601 401.421 295.241 400.791 295.711C400.161 296.171 399.436 296.401 398.616 296.401ZM398.616 295.051C399.146 295.051 399.616 294.876 400.026 294.526C400.446 294.176 400.771 293.696 401.001 293.086C401.231 292.476 401.346 291.771 401.346 290.971C401.346 290.171 401.231 289.466 401.001 288.856C400.771 288.236 400.446 287.751 400.026 287.401C399.616 287.051 399.146 286.876 398.616 286.876C398.086 286.876 397.616 287.051 397.206 287.401C396.796 287.751 396.476 288.236 396.246 288.856C396.016 289.466 395.901 290.171 395.901 290.971C395.901 291.771 396.016 292.481 396.246 293.101C396.476 293.711 396.796 294.191 397.206 294.541C397.616 294.881 398.086 295.051 398.616 295.051Z" fill="#7A7C7F"/>
<rect width="12" height="270" rx="6" transform="matrix(-1 0 0 1 433.167 0.221436)" fill="#E9E9E9"/>
<rect width="12" height="222" rx="6" transform="matrix(-1 0 0 1 433.167 48.2214)" fill="#5655D7"/>
<path d="M424.091 296.221V286.516L424.226 285.721H425.531V296.221H424.091ZM421.766 288.586V287.251C421.986 287.261 422.241 287.191 422.531 287.041C422.831 286.891 423.131 286.696 423.431 286.456C423.731 286.216 423.996 285.966 424.226 285.706L425.141 286.696C424.801 287.056 424.446 287.381 424.076 287.671C423.706 287.961 423.326 288.191 422.936 288.361C422.556 288.531 422.166 288.606 421.766 288.586ZM430.332 296.221V286.516L430.467 285.721H431.772V296.221H430.332ZM428.007 288.586V287.251C428.227 287.261 428.482 287.191 428.772 287.041C429.072 286.891 429.372 286.696 429.672 286.456C429.972 286.216 430.237 285.966 430.467 285.706L431.382 286.696C431.042 287.056 430.687 287.381 430.317 287.671C429.947 287.961 429.567 288.191 429.177 288.361C428.797 288.531 428.407 288.606 428.007 288.586Z" fill="#7A7C7F"/>
<rect width="12" height="270" rx="6" transform="matrix(-1 0 0 1 464.333 0.221436)" fill="#E9E9E9"/>
<rect width="12" height="196" rx="6" transform="matrix(-1 0 0 1 464.333 74.2214)" fill="#5655D7"/>
<path d="M454.145 296.221V286.516L454.28 285.721H455.585V296.221H454.145ZM451.82 288.586V287.251C452.04 287.261 452.295 287.191 452.585 287.041C452.885 286.891 453.185 286.696 453.485 286.456C453.785 286.216 454.05 285.966 454.28 285.706L455.195 286.696C454.855 287.056 454.5 287.381 454.13 287.671C453.76 287.961 453.38 288.191 452.99 288.361C452.61 288.531 452.22 288.606 451.82 288.586ZM458.06 296.221V295.036C458.06 294.726 458.13 294.406 458.27 294.076C458.42 293.736 458.63 293.401 458.9 293.071C459.18 292.741 459.51 292.436 459.89 292.156L461.915 290.656C462.155 290.486 462.37 290.291 462.56 290.071C462.76 289.841 462.915 289.606 463.025 289.366C463.145 289.116 463.205 288.871 463.205 288.631C463.205 288.311 463.125 288.021 462.965 287.761C462.805 287.491 462.58 287.281 462.29 287.131C462 286.971 461.655 286.891 461.255 286.891C460.875 286.891 460.54 286.966 460.25 287.116C459.97 287.256 459.735 287.446 459.545 287.686C459.355 287.926 459.22 288.181 459.14 288.451L457.625 288.166C457.735 287.706 457.95 287.276 458.27 286.876C458.59 286.476 459 286.156 459.5 285.916C460 285.666 460.565 285.541 461.195 285.541C461.915 285.541 462.535 285.676 463.055 285.946C463.585 286.206 463.995 286.571 464.285 287.041C464.575 287.501 464.72 288.031 464.72 288.631C464.72 289.211 464.56 289.746 464.24 290.236C463.93 290.726 463.48 291.201 462.89 291.661L461.015 293.071C460.645 293.351 460.35 293.641 460.13 293.941C459.92 294.241 459.79 294.561 459.74 294.901H464.855V296.221H458.06Z" fill="#7A7C7F"/>
<rect width="12" height="270" rx="6" transform="matrix(-1 0 0 1 496.5 0.221436)" fill="#E9E9E9"/>
<rect width="12" height="142" rx="6" transform="matrix(-1 0 0 1 496.5 128.221)" fill="#5655D7"/>
<path d="M486.443 296.221V286.516L486.578 285.721H487.883V296.221H486.443ZM484.118 288.586V287.251C484.338 287.261 484.593 287.191 484.883 287.041C485.183 286.891 485.483 286.696 485.783 286.456C486.083 286.216 486.348 285.966 486.578 285.706L487.493 286.696C487.153 287.056 486.798 287.381 486.428 287.671C486.058 287.961 485.678 288.191 485.288 288.361C484.908 288.531 484.518 288.606 484.118 288.586ZM493.599 296.401C493.059 296.401 492.569 296.321 492.129 296.161C491.689 296.001 491.319 295.781 491.019 295.501C490.719 295.221 490.489 294.916 490.329 294.586L491.604 294.001C491.704 294.141 491.829 294.301 491.979 294.481C492.129 294.651 492.329 294.796 492.579 294.916C492.829 295.036 493.139 295.096 493.509 295.096C494.139 295.096 494.639 294.916 495.009 294.556C495.389 294.196 495.579 293.741 495.579 293.191C495.579 292.781 495.469 292.436 495.249 292.156C495.029 291.866 494.704 291.646 494.274 291.496C493.854 291.346 493.339 291.271 492.729 291.271H492.354V290.161H492.699C493.319 290.161 493.889 290.231 494.409 290.371C494.939 290.511 495.404 290.721 495.804 291.001C496.204 291.271 496.514 291.601 496.734 291.991C496.954 292.381 497.064 292.826 497.064 293.326C497.064 293.946 496.904 294.491 496.584 294.961C496.274 295.421 495.854 295.776 495.324 296.026C494.804 296.276 494.229 296.401 493.599 296.401ZM492.354 291.091V290.026H492.729C493.549 290.026 494.189 289.886 494.649 289.606C495.109 289.326 495.339 288.931 495.339 288.421C495.339 288.131 495.259 287.871 495.099 287.641C494.949 287.401 494.734 287.211 494.454 287.071C494.184 286.921 493.859 286.846 493.479 286.846C493.239 286.846 493.004 286.886 492.774 286.966C492.554 287.036 492.349 287.146 492.159 287.296C491.969 287.436 491.804 287.621 491.664 287.851L490.434 287.296C490.604 286.926 490.844 286.611 491.154 286.351C491.464 286.091 491.824 285.891 492.234 285.751C492.644 285.611 493.079 285.541 493.539 285.541C494.169 285.541 494.729 285.661 495.219 285.901C495.709 286.141 496.094 286.471 496.374 286.891C496.664 287.311 496.809 287.786 496.809 288.316C496.809 288.766 496.699 289.166 496.479 289.516C496.269 289.856 495.974 290.146 495.594 290.386C495.214 290.616 494.774 290.791 494.274 290.911C493.784 291.031 493.254 291.091 492.684 291.091H492.354Z" fill="#7A7C7F"/>
</svg>
