<svg width="44" height="45" viewBox="0 0 44 45" fill="none" xmlns="http://www.w3.org/2000/svg">
<rect y="0.221436" width="44" height="44" rx="6" fill="#00997E" fill-opacity="0.08"/>
<path d="M29.5 13.2214H14.5C14.1022 13.2214 13.7206 13.3795 13.4393 13.6608C13.158 13.9421 13 14.3236 13 14.7214V29.7214C13 30.1193 13.158 30.5008 13.4393 30.7821C13.7206 31.0634 14.1022 31.2214 14.5 31.2214H29.5C29.8978 31.2214 30.2794 31.0634 30.5607 30.7821C30.842 30.5008 31 30.1193 31 29.7214V14.7214C31 14.3236 30.842 13.9421 30.5607 13.6608C30.2794 13.3795 29.8978 13.2214 29.5 13.2214ZM29.5 29.7214H14.5V14.7214H29.5V29.7214ZM18.4694 25.7521C18.3996 25.6824 18.3443 25.5997 18.3066 25.5086C18.2688 25.4176 18.2494 25.32 18.2494 25.2214C18.2494 25.1229 18.2688 25.0253 18.3066 24.9342C18.3443 24.8432 18.3996 24.7605 18.4694 24.6908L23.1897 19.9714H20.5C20.3011 19.9714 20.1103 19.8924 19.9697 19.7518C19.829 19.6111 19.75 19.4203 19.75 19.2214C19.75 19.0225 19.829 18.8318 19.9697 18.6911C20.1103 18.5505 20.3011 18.4714 20.5 18.4714H25C25.1989 18.4714 25.3897 18.5505 25.5303 18.6911C25.671 18.8318 25.75 19.0225 25.75 19.2214V23.7214C25.75 23.9203 25.671 24.1111 25.5303 24.2518C25.3897 24.3924 25.1989 24.4714 25 24.4714C24.8011 24.4714 24.6103 24.3924 24.4697 24.2518C24.329 24.1111 24.25 23.9203 24.25 23.7214V21.0317L19.5306 25.7521C19.461 25.8218 19.3783 25.8771 19.2872 25.9149C19.1962 25.9526 19.0986 25.972 19 25.972C18.9014 25.972 18.8038 25.9526 18.7128 25.9149C18.6217 25.8771 18.539 25.8218 18.4694 25.7521Z" fill="#00997E"/>
</svg>
