<svg width="71" height="22" viewBox="0 0 71 22" fill="none" xmlns="http://www.w3.org/2000/svg">
<rect y="0.721436" width="71" height="21" rx="10.5" fill="#FFAE41" fill-opacity="0.16"/>
<path d="M9.903 11.8944V11.0474H11.773C12.1763 11.0474 12.5063 10.9008 12.763 10.6074C13.027 10.3068 13.159 9.92544 13.159 9.46344C13.159 9.1481 13.0893 8.86944 12.95 8.62744C12.8107 8.38544 12.6163 8.19844 12.367 8.06644C12.125 7.9271 11.8427 7.8611 11.52 7.86844H9.903V7.02144L11.531 7.01044C12.0297 7.01044 12.4697 7.11677 12.851 7.32943C13.2397 7.53477 13.5403 7.82077 13.753 8.18744C13.973 8.5541 14.083 8.97944 14.083 9.46344C14.083 9.93277 13.984 10.3508 13.786 10.7174C13.588 11.0841 13.3167 11.3738 12.972 11.5864C12.6273 11.7918 12.2277 11.8944 11.773 11.8944H9.903ZM9.023 14.7214V7.02144H9.958V14.7214H9.023ZM16.3931 14.7214V7.02144H17.3281V14.7214H16.3931ZM17.2181 14.7214V13.8744H20.9691V14.7214H17.2181ZM17.2181 11.1904V10.3544H20.6281V11.1904H17.2181ZM17.2181 7.86844V7.02144H20.9471V7.86844H17.2181ZM29.4359 14.7214L24.1229 7.53843L24.8489 7.02144L30.1619 14.1934L29.4359 14.7214ZM23.9029 14.7214V7.02144H24.8489L24.8379 7.75844V14.7214H23.9029ZM29.4359 14.7214V7.02144H30.3709V14.7214H29.4359ZM35.7644 14.7214V13.8634C36.1531 13.8634 36.5124 13.7901 36.8424 13.6434C37.1724 13.4894 37.4621 13.2731 37.7114 12.9944C37.9681 12.7158 38.1661 12.3968 38.3054 12.0374C38.4521 11.6708 38.5254 11.2821 38.5254 10.8714C38.5254 10.4608 38.4521 10.0758 38.3054 9.71644C38.1661 9.34977 37.9681 9.0271 37.7114 8.74844C37.4621 8.46977 37.1724 8.2571 36.8424 8.11044C36.5124 7.95644 36.1531 7.87944 35.7644 7.87944V7.02144C36.4904 7.02144 37.1284 7.18644 37.6784 7.51644C38.2358 7.8391 38.6721 8.2901 38.9874 8.86944C39.3028 9.44877 39.4604 10.1161 39.4604 10.8714C39.4604 11.6194 39.3028 12.2831 38.9874 12.8624C38.6721 13.4418 38.2358 13.8964 37.6784 14.2264C37.1284 14.5564 36.4904 14.7214 35.7644 14.7214ZM34.1694 14.7214V13.8634H35.7644V14.7214H34.1694ZM33.4214 14.7214V7.02144H34.3564V14.7214H33.4214ZM34.1694 7.87944V7.02144H35.7644V7.87944H34.1694ZM41.9947 14.7214V7.02144H42.9297V14.7214H41.9947ZM51.514 14.7214L46.201 7.53843L46.927 7.02144L52.24 14.1934L51.514 14.7214ZM45.981 14.7214V7.02144H46.927L46.916 7.75844V14.7214H45.981ZM51.514 14.7214V7.02144H52.449V14.7214H51.514ZM58.9866 14.8534C58.2019 14.8534 57.5089 14.6848 56.9076 14.3474C56.3062 14.0028 55.8332 13.5334 55.4886 12.9394C55.1512 12.3381 54.9826 11.6524 54.9826 10.8824C54.9826 10.0978 55.1512 9.40844 55.4886 8.81444C55.8332 8.2131 56.3062 7.74377 56.9076 7.40644C57.5089 7.06177 58.2019 6.88944 58.9866 6.88944C59.3972 6.88944 59.7969 6.9591 60.1856 7.09844C60.5742 7.23044 60.9299 7.41377 61.2526 7.64844C61.5752 7.8831 61.8356 8.15077 62.0336 8.45143L61.2966 8.95744C61.1499 8.72277 60.9519 8.51377 60.7026 8.33044C60.4532 8.13977 60.1782 7.9931 59.8776 7.89043C59.5842 7.78777 59.2872 7.73643 58.9866 7.73643C58.3926 7.73643 57.8646 7.8721 57.4026 8.14344C56.9406 8.40744 56.5776 8.7741 56.3136 9.24344C56.0496 9.71277 55.9176 10.2591 55.9176 10.8824C55.9176 11.4838 56.0459 12.0228 56.3026 12.4994C56.5666 12.9688 56.9296 13.3391 57.3916 13.6104C57.8609 13.8818 58.3926 14.0174 58.9866 14.0174C59.4852 14.0174 59.9252 13.9148 60.3066 13.7094C60.6952 13.4968 60.9996 13.2071 61.2196 12.8404C61.4396 12.4664 61.5496 12.0374 61.5496 11.5534L62.4406 11.4874C62.4406 12.1621 62.2939 12.7524 62.0006 13.2584C61.7072 13.7571 61.3002 14.1494 60.7796 14.4354C60.2589 14.7141 59.6612 14.8534 58.9866 14.8534ZM59.6576 11.5974V10.7944H62.4406V11.5204L62.0006 11.5974H59.6576Z" fill="#FFAE41"/>
<path d="M9.903 11.8944V11.0474H11.773C12.1763 11.0474 12.5063 10.9008 12.763 10.6074C13.027 10.3068 13.159 9.92544 13.159 9.46344C13.159 9.1481 13.0893 8.86944 12.95 8.62744C12.8107 8.38544 12.6163 8.19844 12.367 8.06644C12.125 7.9271 11.8427 7.8611 11.52 7.86844H9.903V7.02144L11.531 7.01044C12.0297 7.01044 12.4697 7.11677 12.851 7.32943C13.2397 7.53477 13.5403 7.82077 13.753 8.18744C13.973 8.5541 14.083 8.97944 14.083 9.46344C14.083 9.93277 13.984 10.3508 13.786 10.7174C13.588 11.0841 13.3167 11.3738 12.972 11.5864C12.6273 11.7918 12.2277 11.8944 11.773 11.8944H9.903ZM9.023 14.7214V7.02144H9.958V14.7214H9.023ZM16.3931 14.7214V7.02144H17.3281V14.7214H16.3931ZM17.2181 14.7214V13.8744H20.9691V14.7214H17.2181ZM17.2181 11.1904V10.3544H20.6281V11.1904H17.2181ZM17.2181 7.86844V7.02144H20.9471V7.86844H17.2181ZM29.4359 14.7214L24.1229 7.53843L24.8489 7.02144L30.1619 14.1934L29.4359 14.7214ZM23.9029 14.7214V7.02144H24.8489L24.8379 7.75844V14.7214H23.9029ZM29.4359 14.7214V7.02144H30.3709V14.7214H29.4359ZM35.7644 14.7214V13.8634C36.1531 13.8634 36.5124 13.7901 36.8424 13.6434C37.1724 13.4894 37.4621 13.2731 37.7114 12.9944C37.9681 12.7158 38.1661 12.3968 38.3054 12.0374C38.4521 11.6708 38.5254 11.2821 38.5254 10.8714C38.5254 10.4608 38.4521 10.0758 38.3054 9.71644C38.1661 9.34977 37.9681 9.0271 37.7114 8.74844C37.4621 8.46977 37.1724 8.2571 36.8424 8.11044C36.5124 7.95644 36.1531 7.87944 35.7644 7.87944V7.02144C36.4904 7.02144 37.1284 7.18644 37.6784 7.51644C38.2358 7.8391 38.6721 8.2901 38.9874 8.86944C39.3028 9.44877 39.4604 10.1161 39.4604 10.8714C39.4604 11.6194 39.3028 12.2831 38.9874 12.8624C38.6721 13.4418 38.2358 13.8964 37.6784 14.2264C37.1284 14.5564 36.4904 14.7214 35.7644 14.7214ZM34.1694 14.7214V13.8634H35.7644V14.7214H34.1694ZM33.4214 14.7214V7.02144H34.3564V14.7214H33.4214ZM34.1694 7.87944V7.02144H35.7644V7.87944H34.1694ZM41.9947 14.7214V7.02144H42.9297V14.7214H41.9947ZM51.514 14.7214L46.201 7.53843L46.927 7.02144L52.24 14.1934L51.514 14.7214ZM45.981 14.7214V7.02144H46.927L46.916 7.75844V14.7214H45.981ZM51.514 14.7214V7.02144H52.449V14.7214H51.514ZM58.9866 14.8534C58.2019 14.8534 57.5089 14.6848 56.9076 14.3474C56.3062 14.0028 55.8332 13.5334 55.4886 12.9394C55.1512 12.3381 54.9826 11.6524 54.9826 10.8824C54.9826 10.0978 55.1512 9.40844 55.4886 8.81444C55.8332 8.2131 56.3062 7.74377 56.9076 7.40644C57.5089 7.06177 58.2019 6.88944 58.9866 6.88944C59.3972 6.88944 59.7969 6.9591 60.1856 7.09844C60.5742 7.23044 60.9299 7.41377 61.2526 7.64844C61.5752 7.8831 61.8356 8.15077 62.0336 8.45143L61.2966 8.95744C61.1499 8.72277 60.9519 8.51377 60.7026 8.33044C60.4532 8.13977 60.1782 7.9931 59.8776 7.89043C59.5842 7.78777 59.2872 7.73643 58.9866 7.73643C58.3926 7.73643 57.8646 7.8721 57.4026 8.14344C56.9406 8.40744 56.5776 8.7741 56.3136 9.24344C56.0496 9.71277 55.9176 10.2591 55.9176 10.8824C55.9176 11.4838 56.0459 12.0228 56.3026 12.4994C56.5666 12.9688 56.9296 13.3391 57.3916 13.6104C57.8609 13.8818 58.3926 14.0174 58.9866 14.0174C59.4852 14.0174 59.9252 13.9148 60.3066 13.7094C60.6952 13.4968 60.9996 13.2071 61.2196 12.8404C61.4396 12.4664 61.5496 12.0374 61.5496 11.5534L62.4406 11.4874C62.4406 12.1621 62.2939 12.7524 62.0006 13.2584C61.7072 13.7571 61.3002 14.1494 60.7796 14.4354C60.2589 14.7141 59.6612 14.8534 58.9866 14.8534ZM59.6576 11.5974V10.7944H62.4406V11.5204L62.0006 11.5974H59.6576Z" fill="white" fill-opacity="0.2"/>
</svg>
