<svg width="44" height="45" viewBox="0 0 44 45" fill="none" xmlns="http://www.w3.org/2000/svg">
<rect y="0.221436" width="44" height="44" rx="6" fill="#FF414B" fill-opacity="0.08"/>
<path d="M29.5 13.2214H14.5C14.1022 13.2214 13.7206 13.3795 13.4393 13.6608C13.158 13.9421 13 14.3236 13 14.7214V29.7214C13 30.1193 13.158 30.5008 13.4393 30.7821C13.7206 31.0634 14.1022 31.2214 14.5 31.2214H29.5C29.8978 31.2214 30.2794 31.0634 30.5607 30.7821C30.842 30.5008 31 30.1193 31 29.7214V14.7214C31 14.3236 30.842 13.9421 30.5607 13.6608C30.2794 13.3795 29.8978 13.2214 29.5 13.2214ZM29.5 29.7214H14.5V14.7214H29.5V29.7214ZM18.25 25.2214V20.7214C18.25 20.5225 18.329 20.3318 18.4697 20.1911C18.6103 20.0505 18.8011 19.9714 19 19.9714C19.1989 19.9714 19.3897 20.0505 19.5303 20.1911C19.671 20.3318 19.75 20.5225 19.75 20.7214V23.4111L24.4694 18.6908C24.5391 18.6211 24.6218 18.5659 24.7128 18.5281C24.8039 18.4904 24.9015 18.471 25 18.471C25.0985 18.471 25.1961 18.4904 25.2872 18.5281C25.3782 18.5659 25.4609 18.6211 25.5306 18.6908C25.6003 18.7605 25.6556 18.8432 25.6933 18.9343C25.731 19.0253 25.7504 19.1229 25.7504 19.2214C25.7504 19.32 25.731 19.4176 25.6933 19.5086C25.6556 19.5997 25.6003 19.6824 25.5306 19.7521L20.8103 24.4714H23.5C23.6989 24.4714 23.8897 24.5505 24.0303 24.6911C24.171 24.8318 24.25 25.0225 24.25 25.2214C24.25 25.4203 24.171 25.6111 24.0303 25.7518C23.8897 25.8924 23.6989 25.9714 23.5 25.9714H19C18.8011 25.9714 18.6103 25.8924 18.4697 25.7518C18.329 25.6111 18.25 25.4203 18.25 25.2214Z" fill="#FF414B"/>
</svg>
