<svg width="38" height="38" viewBox="0 0 38 38" fill="none" xmlns="http://www.w3.org/2000/svg">
<rect width="38" height="38" rx="8" fill="#FFAE41"/>
<path d="M23.0045 18.2889C23.3826 17.7269 23.6014 17.0718 23.6375 16.394C23.6736 15.7162 23.5256 15.0414 23.2094 14.4419C22.8931 13.8424 22.4206 13.3409 21.8426 12.9913C21.2646 12.6417 20.6029 12.4572 19.9286 12.4575V11.5229C19.9286 11.275 19.8307 11.0373 19.6566 10.862C19.4825 10.6867 19.2463 10.5883 19 10.5883C18.7537 10.5883 18.5175 10.6867 18.3434 10.862C18.1693 11.0373 18.0714 11.275 18.0714 11.5229V12.4575H16.2143V11.5229C16.2143 11.275 16.1165 11.0373 15.9423 10.862C15.7682 10.6867 15.532 10.5883 15.2857 10.5883C15.0394 10.5883 14.8033 10.6867 14.6291 10.862C14.455 11.0373 14.3571 11.275 14.3571 11.5229V12.4575H13.4286C13.1823 12.4575 12.9461 12.556 12.772 12.7313C12.5978 12.9066 12.5 13.1443 12.5 13.3922C12.5 13.6401 12.5978 13.8778 12.772 14.0531C12.9461 14.2283 13.1823 14.3268 13.4286 14.3268H14.3571V23.6732H13.4286C13.1823 23.6732 12.9461 23.7717 12.772 23.947C12.5978 24.1223 12.5 24.36 12.5 24.6079C12.5 24.8557 12.5978 25.0935 12.772 25.2688C12.9461 25.444 13.1823 25.5425 13.4286 25.5425H14.3571V26.4771C14.3571 26.725 14.455 26.9628 14.6291 27.138C14.8033 27.3133 15.0394 27.4118 15.2857 27.4118C15.532 27.4118 15.7682 27.3133 15.9423 27.138C16.1165 26.9628 16.2143 26.725 16.2143 26.4771V25.5425H18.0714V26.4771C18.0714 26.725 18.1693 26.9628 18.3434 27.138C18.5175 27.3133 18.7537 27.4118 19 27.4118C19.2463 27.4118 19.4825 27.3133 19.6566 27.138C19.8307 26.9628 19.9286 26.725 19.9286 26.4771V25.5425H21.7857C22.6628 25.5448 23.5122 25.2338 24.1829 24.6648C24.8535 24.0959 25.3019 23.3059 25.4481 22.4354C25.5944 21.565 25.4291 20.6705 24.9816 19.9113C24.5342 19.152 23.8336 18.5771 23.0045 18.2889V18.2889ZM16.2143 14.3268H19.9286C20.4211 14.3268 20.8935 14.5238 21.2418 14.8743C21.59 15.2249 21.7857 15.7003 21.7857 16.1961C21.7857 16.6919 21.59 17.1673 21.2418 17.5179C20.8935 17.8684 20.4211 18.0654 19.9286 18.0654H16.2143V14.3268ZM21.7857 23.6732H16.2143V19.9347H21.7857C22.2783 19.9347 22.7506 20.1316 23.0989 20.4822C23.4472 20.8327 23.6429 21.3082 23.6429 21.8039C23.6429 22.2997 23.4472 22.7752 23.0989 23.1257C22.7506 23.4763 22.2783 23.6732 21.7857 23.6732Z" fill="white"/>
</svg>
