<svg width="38" height="38" viewBox="0 0 38 38" fill="none" xmlns="http://www.w3.org/2000/svg">
<rect width="38" height="38" rx="8" fill="#5655D7"/>
<path d="M25.4932 19.1983C25.5023 19.1309 25.5023 19.0627 25.4932 18.9954C25.5016 18.9305 25.5016 18.8649 25.4932 18.8C25.4945 18.7749 25.4945 18.7499 25.4932 18.7248C25.4804 18.6909 25.464 18.6582 25.4445 18.6271L19.7627 9.60877C19.7396 9.56501 19.7064 9.52652 19.6653 9.49605C19.5893 9.41855 19.4965 9.35663 19.3931 9.31426C19.2897 9.27189 19.1778 9.25 19.0647 9.25C18.9516 9.25 18.8397 9.27189 18.7363 9.31426C18.6328 9.35663 18.5401 9.41855 18.464 9.49605C18.423 9.52652 18.3897 9.56501 18.3666 9.60877L12.6849 18.6271C12.6653 18.6582 12.649 18.6909 12.6362 18.7248C12.6348 18.7499 12.6348 18.7749 12.6362 18.8C12.5832 18.8591 12.5395 18.9249 12.5063 18.9954C12.4979 19.0603 12.4979 19.1259 12.5063 19.1908C12.505 19.2158 12.505 19.2409 12.5063 19.2659C12.5191 19.2999 12.5355 19.3326 12.555 19.3636L18.2368 28.382C18.3086 28.4941 18.4108 28.587 18.5332 28.6515C18.6556 28.7161 18.794 28.75 18.9348 28.75C19.0757 28.75 19.2141 28.7161 19.3365 28.6515C19.4588 28.587 19.561 28.4941 19.6329 28.382L25.3146 19.3636C25.3342 19.3326 25.3505 19.2999 25.3633 19.2659C25.4088 19.2471 25.4522 19.2245 25.4932 19.1983ZM15.3797 18.9954L18.1881 17.8831V20.1377L15.3797 18.9954ZM18.1881 16.2448L15.2579 17.4096L18.1881 12.7577V16.2448ZM19.8114 17.8831L22.6198 18.9954L19.8114 20.1076V17.8831ZM19.8114 16.2448V12.7577L22.7416 17.4096L19.8114 16.2448ZM18.9998 26.5107L15.2579 20.5661L18.6832 21.9263C18.7833 21.9656 18.891 21.9858 18.9998 21.9858C19.1085 21.9858 19.2162 21.9656 19.3163 21.9263L22.7416 20.5661L18.9998 26.5107Z" fill="white"/>
</svg>
