<svg width="54" height="21" viewBox="0 0 54 21" fill="none" xmlns="http://www.w3.org/2000/svg">
<rect width="54" height="21" rx="10.5" fill="#00997E" fill-opacity="0.16"/>
<path d="M20.1877 6.84375V10.0938C20.1877 10.2015 20.1449 10.3048 20.0687 10.381C19.9926 10.4572 19.8892 10.5 19.7815 10.5C19.6737 10.5 19.5704 10.4572 19.4942 10.381C19.418 10.3048 19.3752 10.2015 19.3752 10.0938V7.82434L15.1939 12.0062C15.1562 12.0439 15.1114 12.0739 15.062 12.0944C15.0127 12.1148 14.9599 12.1253 14.9065 12.1253C14.8531 12.1253 14.8002 12.1148 14.7509 12.0944C14.7016 12.0739 14.6568 12.0439 14.6191 12.0062L12.8752 10.2618L9.5064 13.6312C9.43017 13.7074 9.32678 13.7502 9.21898 13.7502C9.11117 13.7502 9.00778 13.7074 8.93155 13.6312C8.85533 13.5549 8.8125 13.4516 8.8125 13.3438C8.8125 13.2359 8.85533 13.1326 8.93155 13.0563L12.5878 9.40008C12.6255 9.36231 12.6703 9.33234 12.7197 9.3119C12.769 9.29145 12.8218 9.28093 12.8752 9.28093C12.9286 9.28093 12.9815 9.29145 13.0308 9.3119C13.0801 9.33234 13.1249 9.36231 13.1626 9.40008L14.9065 11.1444L18.8009 7.25H16.5315C16.4237 7.25 16.3204 7.2072 16.2442 7.13101C16.168 7.05483 16.1252 6.95149 16.1252 6.84375C16.1252 6.73601 16.168 6.63267 16.2442 6.55649C16.3204 6.4803 16.4237 6.4375 16.5315 6.4375H19.7815C19.8892 6.4375 19.9926 6.4803 20.0687 6.55649C20.1449 6.63267 20.1877 6.73601 20.1877 6.84375Z" fill="#00997E"/>
<path d="M28.233 14L28.244 6.982L28.365 6.3H29.476L29.465 14H28.233ZM26.572 8.555V7.4C26.7407 7.40733 26.9313 7.35967 27.144 7.257C27.364 7.147 27.5803 7.004 27.793 6.828C28.0057 6.652 28.1963 6.47233 28.365 6.289L29.157 7.114C28.9003 7.38533 28.6327 7.63467 28.354 7.862C28.0753 8.08933 27.7857 8.26533 27.485 8.39C27.1917 8.51467 26.8873 8.56967 26.572 8.555ZM33.8204 14.132C33.4831 14.132 33.1384 14.0807 32.7864 13.978C32.4417 13.868 32.1227 13.7067 31.8294 13.494C31.5361 13.274 31.3124 12.999 31.1584 12.669L32.2914 12.251C32.4821 12.5223 32.7057 12.7203 32.9624 12.845C33.2191 12.9623 33.4831 13.021 33.7544 13.021C34.1871 13.021 34.5391 12.8927 34.8104 12.636C35.0817 12.372 35.2174 12.0237 35.2174 11.591C35.2174 11.173 35.0854 10.8283 34.8214 10.557C34.5574 10.2857 34.2127 10.15 33.7874 10.15C33.5381 10.15 33.3034 10.205 33.0834 10.315C32.8707 10.425 32.7057 10.557 32.5884 10.711L31.4334 10.458L31.8624 6.3H36.1194V7.455H32.0164L31.8624 6.344H33.1274L32.5994 10.557L31.8184 10.458C31.9064 10.3113 32.0201 10.1647 32.1594 10.018C32.3061 9.864 32.4821 9.721 32.6874 9.589C32.8927 9.457 33.1201 9.35067 33.3694 9.27C33.6187 9.18933 33.8901 9.15267 34.1834 9.16C34.6234 9.16 35.0194 9.26267 35.3714 9.468C35.7234 9.67333 36.0021 9.95567 36.2074 10.315C36.4127 10.667 36.5154 11.074 36.5154 11.536C36.5154 12.0493 36.3981 12.5003 36.1634 12.889C35.9361 13.2777 35.6207 13.582 35.2174 13.802C34.8141 14.022 34.3484 14.132 33.8204 14.132ZM37.9908 14L43.4578 6.3H44.7338L39.2338 14H37.9908ZM43.5568 14.176C43.2121 14.176 42.9078 14.0953 42.6438 13.934C42.3798 13.7727 42.1708 13.549 42.0168 13.263C41.8701 12.977 41.7968 12.6543 41.7968 12.295C41.7968 11.9283 41.8701 11.6057 42.0168 11.327C42.1634 11.0483 42.3688 10.8283 42.6328 10.667C42.9041 10.5057 43.2121 10.425 43.5568 10.425C43.9014 10.425 44.2058 10.5057 44.4698 10.667C44.7338 10.8283 44.9391 11.0483 45.0858 11.327C45.2398 11.6057 45.3168 11.9283 45.3168 12.295C45.3168 12.6543 45.2398 12.977 45.0858 13.263C44.9391 13.549 44.7338 13.7727 44.4698 13.934C44.2058 14.0953 43.9014 14.176 43.5568 14.176ZM43.5568 13.307C43.7988 13.307 43.9968 13.2117 44.1508 13.021C44.3048 12.8303 44.3818 12.5883 44.3818 12.295C44.3818 12.009 44.3048 11.7707 44.1508 11.58C43.9968 11.382 43.7988 11.283 43.5568 11.283C43.3148 11.283 43.1131 11.382 42.9518 11.58C42.7978 11.7707 42.7208 12.009 42.7208 12.295C42.7208 12.5883 42.7978 12.8303 42.9518 13.021C43.1131 13.2117 43.3148 13.307 43.5568 13.307ZM39.2008 9.875C38.8634 9.875 38.5591 9.79433 38.2878 9.633C38.0238 9.47167 37.8184 9.248 37.6718 8.962C37.5251 8.676 37.4518 8.35333 37.4518 7.994C37.4518 7.62733 37.5251 7.30467 37.6718 7.026C37.8184 6.74733 38.0238 6.52733 38.2878 6.366C38.5591 6.20467 38.8671 6.124 39.2118 6.124C39.5564 6.124 39.8608 6.20467 40.1248 6.366C40.3888 6.52733 40.5941 6.74733 40.7408 7.026C40.8874 7.30467 40.9608 7.62733 40.9608 7.994C40.9608 8.35333 40.8874 8.676 40.7408 8.962C40.5941 9.248 40.3851 9.47167 40.1138 9.633C39.8498 9.79433 39.5454 9.875 39.2008 9.875ZM39.2008 9.006C39.4501 9.006 39.6518 8.91067 39.8058 8.72C39.9598 8.52933 40.0368 8.28733 40.0368 7.994C40.0368 7.708 39.9598 7.46967 39.8058 7.279C39.6518 7.08833 39.4501 6.993 39.2008 6.993C38.9588 6.993 38.7608 7.08833 38.6068 7.279C38.4528 7.46967 38.3758 7.708 38.3758 7.994C38.3758 8.28733 38.4528 8.52933 38.6068 8.72C38.7608 8.91067 38.9588 9.006 39.2008 9.006Z" fill="#00997E"/>
</svg>
