<svg width="216" height="81" viewBox="0 0 216 81" fill="none" xmlns="http://www.w3.org/2000/svg">
<g opacity="0.5">
<path d="M180.395 30.4028C196.586 31.7747 203.053 53.7108 216.5 53.7108V81H196.092H-0.477722L-0.5 25.1786C13.1046 29.2681 21.7303 -0.621613 35.6053 2.18654C50.8603 5.274 53.443 40.0475 71.7105 40.0475C86.0999 40.0475 93.5879 26.8436 107.816 29.1972C124.508 31.9585 127.476 67.5985 144.289 69.2683C159.106 70.7398 165.561 29.1459 180.395 30.4028Z" fill="#00997E"/>
<path d="M180.395 30.4028C196.586 31.7747 203.053 53.7108 216.5 53.7108V81H196.092H-0.477722L-0.5 25.1786C13.1046 29.2681 21.7303 -0.621613 35.6053 2.18654C50.8603 5.274 53.443 40.0475 71.7105 40.0475C86.0999 40.0475 93.5879 26.8436 107.816 29.1972C124.508 31.9585 127.476 67.5985 144.289 69.2683C159.106 70.7398 165.561 29.1459 180.395 30.4028Z" fill="white" fill-opacity="0.8"/>
</g>
<path d="M215.5 53.4753C202.053 53.4753 195.586 31.6391 179.395 30.2734C164.561 29.0223 158.106 70.4268 143.289 68.962C126.476 67.2998 123.508 31.8221 106.816 29.0734C92.5879 26.7305 85.0999 39.8743 70.7105 39.8743C52.443 39.8743 49.8603 5.2591 34.6053 2.18569C20.7303 -0.609675 15.1046 29.1439 1.5 25.073" stroke="#00997E" stroke-width="4" stroke-linecap="round"/>
<circle cx="209.416" cy="54.3002" r="7.58451" fill="#00997E" stroke="white" stroke-width="3"/>
</svg>
