<svg width="49" height="21" viewBox="0 0 49 21" fill="none" xmlns="http://www.w3.org/2000/svg">
<rect width="49" height="21" rx="10.5" fill="#00997E" fill-opacity="0.16"/>
<path d="M20.1875 6.84375V10.0938C20.1875 10.2015 20.1447 10.3048 20.0685 10.381C19.9923 10.4572 19.889 10.5 19.7812 10.5C19.6735 10.5 19.5702 10.4572 19.494 10.381C19.4178 10.3048 19.375 10.2015 19.375 10.0938V7.82434L15.1937 12.0062C15.1559 12.0439 15.1111 12.0739 15.0618 12.0944C15.0125 12.1148 14.9596 12.1253 14.9062 12.1253C14.8528 12.1253 14.8 12.1148 14.7507 12.0944C14.7013 12.0739 14.6565 12.0439 14.6188 12.0062L12.875 10.2618L9.50615 13.6312C9.42992 13.7074 9.32654 13.7502 9.21873 13.7502C9.11093 13.7502 9.00754 13.7074 8.93131 13.6312C8.85508 13.5549 8.81226 13.4516 8.81226 13.3438C8.81226 13.2359 8.85508 13.1326 8.93131 13.0563L12.5876 9.40008C12.6253 9.36231 12.6701 9.33234 12.7194 9.3119C12.7687 9.29145 12.8216 9.28093 12.875 9.28093C12.9284 9.28093 12.9812 9.29145 13.0306 9.3119C13.0799 9.33234 13.1247 9.36231 13.1624 9.40008L14.9062 11.1444L18.8006 7.25H16.5312C16.4235 7.25 16.3202 7.2072 16.244 7.13101C16.1678 7.05483 16.125 6.95149 16.125 6.84375C16.125 6.73601 16.1678 6.63267 16.244 6.55649C16.3202 6.4803 16.4235 6.4375 16.5312 6.4375H19.7812C19.889 6.4375 19.9923 6.4803 20.0685 6.55649C20.1447 6.63267 20.1875 6.73601 20.1875 6.84375Z" fill="#00997E"/>
<path d="M29.036 14.132C28.618 14.132 28.2367 14.0697 27.892 13.945C27.5473 13.8203 27.2577 13.6443 27.023 13.417C26.7883 13.1897 26.6197 12.933 26.517 12.647L27.661 12.218C27.7197 12.3207 27.8003 12.4343 27.903 12.559C28.0057 12.6837 28.1413 12.7937 28.31 12.889C28.4787 12.977 28.695 13.021 28.959 13.021C29.377 13.021 29.707 12.9037 29.949 12.669C30.1983 12.427 30.323 12.1227 30.323 11.756C30.323 11.492 30.2533 11.2647 30.114 11.074C29.982 10.8833 29.773 10.7367 29.487 10.634C29.2083 10.5313 28.8563 10.48 28.431 10.48H28.079V9.578H28.398C28.8453 9.578 29.2597 9.62933 29.641 9.732C30.0297 9.83467 30.3707 9.98867 30.664 10.194C30.9647 10.392 31.1957 10.634 31.357 10.92C31.5257 11.206 31.61 11.5287 31.61 11.888C31.61 12.35 31.489 12.7497 31.247 13.087C31.0123 13.4243 30.7007 13.6847 30.312 13.868C29.9233 14.044 29.498 14.132 29.036 14.132ZM28.079 10.282V9.424H28.431C28.9957 9.424 29.4247 9.32867 29.718 9.138C30.0113 8.94733 30.158 8.67967 30.158 8.335C30.158 8.137 30.1067 7.961 30.004 7.807C29.9087 7.64567 29.7693 7.51733 29.586 7.422C29.4027 7.32667 29.1863 7.279 28.937 7.279C28.7757 7.279 28.618 7.30467 28.464 7.356C28.31 7.40733 28.167 7.488 28.035 7.598C27.903 7.708 27.793 7.851 27.705 8.027L26.594 7.62C26.704 7.312 26.88 7.05167 27.122 6.839C27.364 6.619 27.6463 6.454 27.969 6.344C28.2917 6.22667 28.629 6.168 28.981 6.168C29.4503 6.168 29.8683 6.256 30.235 6.432C30.609 6.608 30.9023 6.85367 31.115 7.169C31.335 7.477 31.445 7.83267 31.445 8.236C31.445 8.57333 31.3607 8.87033 31.192 9.127C31.0307 9.38367 30.807 9.6 30.521 9.776C30.235 9.94467 29.9087 10.073 29.542 10.161C29.1827 10.2417 28.7977 10.282 28.387 10.282H28.079ZM33.0816 14L38.5486 6.3H39.8246L34.3246 14H33.0816ZM38.6476 14.176C38.3029 14.176 37.9986 14.0953 37.7346 13.934C37.4706 13.7727 37.2616 13.549 37.1076 13.263C36.9609 12.977 36.8876 12.6543 36.8876 12.295C36.8876 11.9283 36.9609 11.6057 37.1076 11.327C37.2543 11.0483 37.4596 10.8283 37.7236 10.667C37.9949 10.5057 38.3029 10.425 38.6476 10.425C38.9923 10.425 39.2966 10.5057 39.5606 10.667C39.8246 10.8283 40.0299 11.0483 40.1766 11.327C40.3306 11.6057 40.4076 11.9283 40.4076 12.295C40.4076 12.6543 40.3306 12.977 40.1766 13.263C40.0299 13.549 39.8246 13.7727 39.5606 13.934C39.2966 14.0953 38.9923 14.176 38.6476 14.176ZM38.6476 13.307C38.8896 13.307 39.0876 13.2117 39.2416 13.021C39.3956 12.8303 39.4726 12.5883 39.4726 12.295C39.4726 12.009 39.3956 11.7707 39.2416 11.58C39.0876 11.382 38.8896 11.283 38.6476 11.283C38.4056 11.283 38.2039 11.382 38.0426 11.58C37.8886 11.7707 37.8116 12.009 37.8116 12.295C37.8116 12.5883 37.8886 12.8303 38.0426 13.021C38.2039 13.2117 38.4056 13.307 38.6476 13.307ZM34.2916 9.875C33.9543 9.875 33.6499 9.79433 33.3786 9.633C33.1146 9.47167 32.9093 9.248 32.7626 8.962C32.6159 8.676 32.5426 8.35333 32.5426 7.994C32.5426 7.62733 32.6159 7.30467 32.7626 7.026C32.9093 6.74733 33.1146 6.52733 33.3786 6.366C33.6499 6.20467 33.9579 6.124 34.3026 6.124C34.6473 6.124 34.9516 6.20467 35.2156 6.366C35.4796 6.52733 35.6849 6.74733 35.8316 7.026C35.9783 7.30467 36.0516 7.62733 36.0516 7.994C36.0516 8.35333 35.9783 8.676 35.8316 8.962C35.6849 9.248 35.4759 9.47167 35.2046 9.633C34.9406 9.79433 34.6363 9.875 34.2916 9.875ZM34.2916 9.006C34.5409 9.006 34.7426 8.91067 34.8966 8.72C35.0506 8.52933 35.1276 8.28733 35.1276 7.994C35.1276 7.708 35.0506 7.46967 34.8966 7.279C34.7426 7.08833 34.5409 6.993 34.2916 6.993C34.0496 6.993 33.8516 7.08833 33.6976 7.279C33.5436 7.46967 33.4666 7.708 33.4666 7.994C33.4666 8.28733 33.5436 8.52933 33.6976 8.72C33.8516 8.91067 34.0496 9.006 34.2916 9.006Z" fill="#00997E"/>
</svg>
