<svg width="216" height="81" viewBox="0 0 216 81" fill="none" xmlns="http://www.w3.org/2000/svg">
<g opacity="0.5">
<path d="M35.6053 30.4028C19.4144 31.7747 12.9474 53.7108 -0.5 53.7108V81H19.9084H216.478L216.5 25.1786C202.895 29.2681 194.27 -0.621613 180.395 2.18654C165.14 5.274 162.557 40.0475 144.289 40.0475C129.9 40.0475 122.412 26.8436 108.184 29.1972C91.4917 31.9585 88.5244 67.5985 71.7105 69.2683C56.8939 70.7398 50.4385 29.1459 35.6053 30.4028Z" fill="#4ABDE8"/>
<path d="M35.6053 30.4028C19.4144 31.7747 12.9474 53.7108 -0.5 53.7108V81H19.9084H216.478L216.5 25.1786C202.895 29.2681 194.27 -0.621613 180.395 2.18654C165.14 5.274 162.557 40.0475 144.289 40.0475C129.9 40.0475 122.412 26.8436 108.184 29.1972C91.4917 31.9585 88.5244 67.5985 71.7105 69.2683C56.8939 70.7398 50.4385 29.1459 35.6053 30.4028Z" fill="white" fill-opacity="0.8"/>
</g>
<path d="M0.5 53.4753C13.9474 53.4753 20.4144 31.6391 36.6053 30.2734C51.4385 29.0223 57.8939 70.4268 72.7105 68.962C89.5244 67.2998 92.4917 31.8221 109.184 29.0734C123.412 26.7305 130.9 39.8743 145.289 39.8743C163.557 39.8743 166.14 5.2591 181.395 2.18569C195.27 -0.609675 200.895 29.1439 214.5 25.073" stroke="#4ABDE8" stroke-width="4" stroke-linecap="round"/>
<circle cx="209.416" cy="25.3002" r="7.58451" fill="#4ABDE8" stroke="white" stroke-width="3"/>
</svg>
