<svg width="38" height="38" viewBox="0 0 38 38" fill="none" xmlns="http://www.w3.org/2000/svg">
<rect width="38" height="38" rx="8" fill="#4ABDE8"/>
<path d="M24.5809 23.5979H18.1471C17.9185 23.599 17.6976 23.5149 17.5276 23.362C17.3577 23.209 17.2508 22.9982 17.228 22.7707L17.5221 19.7376L20.2335 19.0023C20.4772 18.9365 20.6849 18.7766 20.8107 18.5577C20.9365 18.3388 20.9703 18.0788 20.9044 17.8351C20.8386 17.5913 20.6787 17.3837 20.4598 17.2578C20.2409 17.132 19.9809 17.0983 19.7372 17.1641L17.7243 17.734L18.1471 13.5796C18.1715 13.3358 18.098 13.0923 17.9429 12.9027C17.7878 12.7131 17.5637 12.5929 17.3199 12.5686C17.0761 12.5442 16.8327 12.6176 16.6431 12.7728C16.4535 12.9279 16.3332 13.152 16.3089 13.3958L15.8217 18.313L13.3034 19.0023C13.0596 19.0352 12.8389 19.1636 12.6898 19.3593C12.5407 19.5549 12.4754 19.8018 12.5083 20.0455C12.5412 20.2893 12.6696 20.51 12.8653 20.6591C13.0609 20.8082 13.3078 20.8735 13.5515 20.8406C13.6337 20.8539 13.7175 20.8539 13.7997 20.8406L15.6379 20.3167L15.3898 22.6788C15.3898 23.4101 15.6803 24.1114 16.1974 24.6285C16.7145 25.1456 17.4158 25.4361 18.1471 25.4361H24.5809C24.8247 25.4361 25.0584 25.3393 25.2308 25.1669C25.4032 24.9946 25.5 24.7608 25.5 24.517C25.5 24.2733 25.4032 24.0395 25.2308 23.8671C25.0584 23.6947 24.8247 23.5979 24.5809 23.5979Z" fill="white"/>
</svg>
