<svg width="50" height="21" viewBox="0 0 50 21" fill="none" xmlns="http://www.w3.org/2000/svg">
<rect width="50" height="21" rx="10.5" fill="#FF414B" fill-opacity="0.16"/>
<path d="M20.1875 10.9062V14.1562C20.1875 14.264 20.1447 14.3673 20.0685 14.4435C19.9923 14.5197 19.889 14.5625 19.7812 14.5625H16.5312C16.4235 14.5625 16.3202 14.5197 16.244 14.4435C16.1678 14.3673 16.125 14.264 16.125 14.1562C16.125 14.0485 16.1678 13.9452 16.244 13.869C16.3202 13.7928 16.4235 13.75 16.5312 13.75H18.8006L14.9062 9.85557L13.1624 11.5999C13.1247 11.6377 13.0799 11.6676 13.0306 11.6881C12.9812 11.7085 12.9284 11.7191 12.875 11.7191C12.8216 11.7191 12.7687 11.7085 12.7194 11.6881C12.6701 11.6676 12.6253 11.6377 12.5876 11.5999L8.93131 7.94365C8.85508 7.86742 8.81226 7.76404 8.81226 7.65623C8.81226 7.54843 8.85508 7.44504 8.93131 7.36881C9.00754 7.29258 9.11093 7.24976 9.21873 7.24976C9.32654 7.24976 9.42992 7.29258 9.50615 7.36881L12.875 10.7381L14.6188 8.99381C14.6565 8.95604 14.7013 8.92607 14.7507 8.90563C14.8 8.88519 14.8528 8.87466 14.9062 8.87466C14.9596 8.87466 15.0125 8.88519 15.0618 8.90563C15.1111 8.92607 15.1559 8.95604 15.1937 8.99381L19.375 13.1756V10.9062C19.375 10.7985 19.4178 10.6952 19.494 10.619C19.5702 10.5428 19.6735 10.5 19.7812 10.5C19.889 10.5 19.9923 10.5428 20.0685 10.619C20.1447 10.6952 20.1875 10.7985 20.1875 10.9062Z" fill="#FF414B"/>
<path d="M29.212 14.132C28.8747 14.132 28.53 14.0807 28.178 13.978C27.8333 13.868 27.5143 13.7067 27.221 13.494C26.9277 13.274 26.704 12.999 26.55 12.669L27.683 12.251C27.8737 12.5223 28.0973 12.7203 28.354 12.845C28.6107 12.9623 28.8747 13.021 29.146 13.021C29.5787 13.021 29.9307 12.8927 30.202 12.636C30.4733 12.372 30.609 12.0237 30.609 11.591C30.609 11.173 30.477 10.8283 30.213 10.557C29.949 10.2857 29.6043 10.15 29.179 10.15C28.9297 10.15 28.695 10.205 28.475 10.315C28.2623 10.425 28.0973 10.557 27.98 10.711L26.825 10.458L27.254 6.3H31.511V7.455H27.408L27.254 6.344H28.519L27.991 10.557L27.21 10.458C27.298 10.3113 27.4117 10.1647 27.551 10.018C27.6977 9.864 27.8737 9.721 28.079 9.589C28.2843 9.457 28.5117 9.35067 28.761 9.27C29.0103 9.18933 29.2817 9.15267 29.575 9.16C30.015 9.16 30.411 9.26267 30.763 9.468C31.115 9.67333 31.3937 9.95567 31.599 10.315C31.8043 10.667 31.907 11.074 31.907 11.536C31.907 12.0493 31.7897 12.5003 31.555 12.889C31.3277 13.2777 31.0123 13.582 30.609 13.802C30.2057 14.022 29.74 14.132 29.212 14.132ZM33.3824 14L38.8494 6.3H40.1254L34.6254 14H33.3824ZM38.9484 14.176C38.6037 14.176 38.2994 14.0953 38.0354 13.934C37.7714 13.7727 37.5624 13.549 37.4084 13.263C37.2617 12.977 37.1884 12.6543 37.1884 12.295C37.1884 11.9283 37.2617 11.6057 37.4084 11.327C37.555 11.0483 37.7604 10.8283 38.0244 10.667C38.2957 10.5057 38.6037 10.425 38.9484 10.425C39.293 10.425 39.5974 10.5057 39.8614 10.667C40.1254 10.8283 40.3307 11.0483 40.4774 11.327C40.6314 11.6057 40.7084 11.9283 40.7084 12.295C40.7084 12.6543 40.6314 12.977 40.4774 13.263C40.3307 13.549 40.1254 13.7727 39.8614 13.934C39.5974 14.0953 39.293 14.176 38.9484 14.176ZM38.9484 13.307C39.1904 13.307 39.3884 13.2117 39.5424 13.021C39.6964 12.8303 39.7734 12.5883 39.7734 12.295C39.7734 12.009 39.6964 11.7707 39.5424 11.58C39.3884 11.382 39.1904 11.283 38.9484 11.283C38.7064 11.283 38.5047 11.382 38.3434 11.58C38.1894 11.7707 38.1124 12.009 38.1124 12.295C38.1124 12.5883 38.1894 12.8303 38.3434 13.021C38.5047 13.2117 38.7064 13.307 38.9484 13.307ZM34.5924 9.875C34.255 9.875 33.9507 9.79433 33.6794 9.633C33.4154 9.47167 33.21 9.248 33.0634 8.962C32.9167 8.676 32.8434 8.35333 32.8434 7.994C32.8434 7.62733 32.9167 7.30467 33.0634 7.026C33.21 6.74733 33.4154 6.52733 33.6794 6.366C33.9507 6.20467 34.2587 6.124 34.6034 6.124C34.948 6.124 35.2524 6.20467 35.5164 6.366C35.7804 6.52733 35.9857 6.74733 36.1324 7.026C36.279 7.30467 36.3524 7.62733 36.3524 7.994C36.3524 8.35333 36.279 8.676 36.1324 8.962C35.9857 9.248 35.7767 9.47167 35.5054 9.633C35.2414 9.79433 34.937 9.875 34.5924 9.875ZM34.5924 9.006C34.8417 9.006 35.0434 8.91067 35.1974 8.72C35.3514 8.52933 35.4284 8.28733 35.4284 7.994C35.4284 7.708 35.3514 7.46967 35.1974 7.279C35.0434 7.08833 34.8417 6.993 34.5924 6.993C34.3504 6.993 34.1524 7.08833 33.9984 7.279C33.8444 7.46967 33.7674 7.708 33.7674 7.994C33.7674 8.28733 33.8444 8.52933 33.9984 8.72C34.1524 8.91067 34.3504 9.006 34.5924 9.006Z" fill="#FF414B"/>
</svg>
