<svg width="38" height="38" viewBox="0 0 38 38" fill="none" xmlns="http://www.w3.org/2000/svg">
<rect width="38" height="38" rx="8" fill="#00997E"/>
<path d="M22.6023 20.0813C22.293 20.086 21.9864 20.1395 21.6939 20.24L20.6558 19L21.6939 17.76C21.9864 17.8604 22.293 17.9139 22.6023 17.9186C23.2637 17.9218 23.9061 17.6976 24.4218 17.2834C24.9376 16.8693 25.2953 16.2905 25.4349 15.644C25.5746 14.9975 25.4878 14.3226 25.1891 13.7325C24.8904 13.1424 24.3978 12.6729 23.7941 12.4027C23.1904 12.1326 22.5121 12.0782 21.873 12.2487C21.234 12.4192 20.6729 12.8042 20.284 13.3391C19.895 13.8741 19.7018 14.5265 19.7366 15.187C19.7715 15.8475 20.0324 16.4759 20.4755 16.967L19.3797 18.279H18.1758C18.0003 17.5995 17.583 17.0072 17.0021 16.6133C16.4212 16.2194 15.7166 16.0508 15.0203 16.1393C14.3241 16.2277 13.6839 16.567 13.22 17.0937C12.756 17.6203 12.5 18.2981 12.5 19C12.5 19.7018 12.756 20.3796 13.22 20.9063C13.6839 21.4329 14.3241 21.7722 15.0203 21.8607C15.7166 21.9491 16.4212 21.7806 17.0021 21.3867C17.583 20.9927 18.0003 20.4005 18.1758 19.7209H19.3797L20.4755 21.033C20.0324 21.524 19.7715 22.1524 19.7366 22.8129C19.7018 23.4734 19.895 24.1258 20.284 24.6608C20.6729 25.1958 21.234 25.5808 21.873 25.7512C22.5121 25.9217 23.1904 25.8673 23.7941 25.5972C24.3978 25.327 24.8904 24.8576 25.1891 24.2674C25.4878 23.6773 25.5746 23.0025 25.4349 22.356C25.2953 21.7095 24.9376 21.1306 24.4218 20.7165C23.9061 20.3024 23.2637 20.0781 22.6023 20.0813ZM15.393 20.4418C15.1079 20.4418 14.8291 20.3572 14.592 20.1988C14.3549 20.0404 14.1701 19.8152 14.061 19.5517C13.9518 19.2883 13.9233 18.9984 13.9789 18.7187C14.0345 18.439 14.1719 18.1821 14.3735 17.9804C14.5752 17.7788 14.8321 17.6415 15.1118 17.5858C15.3914 17.5302 15.6814 17.5587 15.9448 17.6679C16.2083 17.777 16.4335 17.9618 16.5919 18.1989C16.7503 18.436 16.8349 18.7148 16.8349 19C16.8349 19.3824 16.683 19.7491 16.4126 20.0195C16.1422 20.2899 15.7754 20.4418 15.393 20.4418ZM22.6023 13.5931C22.8874 13.5931 23.1662 13.6776 23.4033 13.8361C23.6404 13.9945 23.8252 14.2197 23.9344 14.4831C24.0435 14.7466 24.072 15.0365 24.0164 15.3162C23.9608 15.5959 23.8234 15.8528 23.6218 16.0544C23.4202 16.2561 23.1632 16.3934 22.8836 16.449C22.6039 16.5047 22.314 16.4761 22.0505 16.367C21.787 16.2579 21.5618 16.0731 21.4034 15.8359C21.245 15.5988 21.1604 15.3201 21.1604 15.0349C21.1604 14.6525 21.3123 14.2858 21.5827 14.0154C21.8531 13.745 22.2199 13.5931 22.6023 13.5931ZM22.6023 24.4069C22.3171 24.4069 22.0383 24.3223 21.8012 24.1639C21.5641 24.0055 21.3793 23.7803 21.2702 23.5168C21.161 23.2533 21.1325 22.9634 21.1881 22.6837C21.2438 22.4041 21.3811 22.1471 21.5827 21.9455C21.7844 21.7439 22.0413 21.6065 22.321 21.5509C22.6007 21.4953 22.8906 21.5238 23.154 21.6329C23.4175 21.7421 23.6427 21.9269 23.8011 22.164C23.9595 22.4011 24.0441 22.6799 24.0441 22.965C24.0441 23.3474 23.8922 23.7142 23.6218 23.9846C23.3514 24.255 22.9847 24.4069 22.6023 24.4069Z" fill="white"/>
</svg>
