<svg width="40" height="40" viewBox="0 0 40 40" fill="none" xmlns="http://www.w3.org/2000/svg">
<rect width="40" height="40" rx="20" fill="#5655D7"/>
<rect width="40" height="40" rx="20" fill="white" fill-opacity="0.8"/>
<path d="M29.7172 26.2391L26.6056 11.4453C26.5654 11.2518 26.4873 11.0682 26.3759 10.905C26.2645 10.7418 26.1219 10.6023 25.9564 10.4943C25.7909 10.3864 25.6057 10.3122 25.4114 10.2761C25.2171 10.24 25.0176 10.2426 24.8244 10.2837L20.4359 11.2269C20.0478 11.3119 19.7089 11.5467 19.4929 11.8803C19.277 12.2138 19.2015 12.6192 19.2828 13.0081L22.3944 27.8019C22.4637 28.1394 22.6471 28.4427 22.9138 28.6609C23.1805 28.8791 23.5142 28.9989 23.8588 29C23.9653 28.9999 24.0715 28.9885 24.1756 28.9662L28.5641 28.0231C28.9527 27.9379 29.292 27.7026 29.5079 27.3685C29.7239 27.0343 29.7991 26.6284 29.7172 26.2391ZM20.75 12.7016C20.75 12.6959 20.75 12.6931 20.75 12.6931L25.1375 11.7556L25.4497 13.2434L21.0622 14.1875L20.75 12.7016ZM21.3706 15.6519L25.76 14.7097L26.0731 16.2003L21.6875 17.1434L21.3706 15.6519ZM21.9931 18.6116L26.3825 17.6684L27.6294 23.5972L23.24 24.5403L21.9931 18.6116ZM28.25 26.5569L23.8625 27.4944L23.5503 26.0066L27.9378 25.0625L28.25 26.5484C28.25 26.5541 28.25 26.5569 28.25 26.5569ZM17.75 11H13.25C12.8522 11 12.4706 11.158 12.1893 11.4393C11.908 11.7206 11.75 12.1022 11.75 12.5V27.5C11.75 27.8978 11.908 28.2794 12.1893 28.5607C12.4706 28.842 12.8522 29 13.25 29H17.75C18.1478 29 18.5294 28.842 18.8107 28.5607C19.092 28.2794 19.25 27.8978 19.25 27.5V12.5C19.25 12.1022 19.092 11.7206 18.8107 11.4393C18.5294 11.158 18.1478 11 17.75 11ZM13.25 12.5H17.75V14H13.25V12.5ZM13.25 15.5H17.75V24.5H13.25V15.5ZM17.75 27.5H13.25V26H17.75V27.5Z" fill="#5655D7"/>
</svg>
