<svg width="83" height="22" viewBox="0 0 83 22" fill="none" xmlns="http://www.w3.org/2000/svg">
<rect y="0.5" width="83" height="21" rx="10.5" fill="#5655D7" fill-opacity="0.16"/>
<circle cx="11" cy="11" r="3" fill="#5655D7"/>
<path d="M21.023 14.5V6.8H21.958V14.5H21.023ZM23.7563 14.5V9H24.5813L24.6363 10.012V14.5H23.7563ZM27.6173 14.5V11.684L28.4973 11.354V14.5H27.6173ZM27.6173 11.684C27.6173 11.1413 27.555 10.727 27.4303 10.441C27.3057 10.155 27.1333 9.96067 26.9133 9.858C26.6933 9.748 26.444 9.693 26.1653 9.693C25.6813 9.693 25.3037 9.86533 25.0323 10.21C24.7683 10.5473 24.6363 11.0277 24.6363 11.651H24.2073C24.2073 11.0717 24.2917 10.573 24.4603 10.155C24.629 9.737 24.871 9.418 25.1863 9.198C25.509 8.978 25.8977 8.868 26.3523 8.868C27.0197 8.868 27.544 9.07333 27.9253 9.484C28.314 9.89467 28.5047 10.518 28.4973 11.354L27.6173 11.684ZM33.7409 11.673V10.826H35.6109C36.0142 10.826 36.3442 10.6793 36.6009 10.386C36.8649 10.0853 36.9969 9.704 36.9969 9.242C36.9969 8.92667 36.9272 8.648 36.7879 8.406C36.6486 8.164 36.4542 7.977 36.2049 7.845C35.9629 7.70567 35.6806 7.63967 35.3579 7.647H33.7409V6.8L35.3689 6.789C35.8676 6.789 36.3076 6.89533 36.6889 7.108C37.0776 7.31333 37.3782 7.59933 37.5909 7.966C37.8109 8.33267 37.9209 8.758 37.9209 9.242C37.9209 9.71133 37.8219 10.1293 37.6239 10.496C37.4259 10.8627 37.1546 11.1523 36.8099 11.365C36.4652 11.5703 36.0656 11.673 35.6109 11.673H33.7409ZM32.8609 14.5V6.8H33.7959V14.5H32.8609ZM39.419 11.519C39.419 10.925 39.5327 10.4447 39.76 10.078C39.9874 9.704 40.277 9.429 40.629 9.253C40.9884 9.06967 41.366 8.978 41.762 8.978V9.803C41.4394 9.803 41.1277 9.858 40.827 9.968C40.5337 10.0707 40.2917 10.243 40.101 10.485C39.9104 10.727 39.815 11.057 39.815 11.475L39.419 11.519ZM38.935 14.5V9H39.815V14.5H38.935ZM45.0828 14.632C44.5475 14.632 44.0708 14.511 43.6528 14.269C43.2422 14.0197 42.9195 13.6787 42.6848 13.246C42.4502 12.8133 42.3328 12.3147 42.3328 11.75C42.3328 11.1853 42.4465 10.6867 42.6738 10.254C42.9085 9.82133 43.2312 9.484 43.6418 9.242C44.0598 8.99267 44.5328 8.868 45.0608 8.868C45.6035 8.868 46.0802 8.99267 46.4908 9.242C46.9088 9.484 47.2315 9.82133 47.4588 10.254C47.6935 10.6867 47.8108 11.1853 47.8108 11.75C47.8108 12.3147 47.6935 12.8133 47.4588 13.246C47.2315 13.6787 46.9125 14.0197 46.5018 14.269C46.0912 14.511 45.6182 14.632 45.0828 14.632ZM45.0828 13.818C45.4495 13.818 45.7685 13.73 46.0398 13.554C46.3112 13.378 46.5238 13.136 46.6778 12.828C46.8392 12.52 46.9198 12.1607 46.9198 11.75C46.9198 11.3393 46.8392 10.98 46.6778 10.672C46.5238 10.364 46.3075 10.122 46.0288 9.946C45.7502 9.77 45.4275 9.682 45.0608 9.682C44.7015 9.682 44.3825 9.77 44.1038 9.946C43.8325 10.122 43.6162 10.364 43.4548 10.672C43.3008 10.98 43.2238 11.3393 43.2238 11.75C43.2238 12.1533 43.3008 12.5127 43.4548 12.828C43.6162 13.136 43.8362 13.378 44.1148 13.554C44.4008 13.73 44.7235 13.818 45.0828 13.818ZM51.2327 16.832C50.8807 16.832 50.558 16.7953 50.2647 16.722C49.9787 16.656 49.733 16.579 49.5277 16.491C49.3297 16.4103 49.1867 16.3407 49.0987 16.282L49.4287 15.567C49.524 15.6183 49.6597 15.6807 49.8357 15.754C50.0117 15.8347 50.217 15.9007 50.4517 15.952C50.6937 16.0107 50.9504 16.04 51.2217 16.04C51.5737 16.04 51.889 15.9667 52.1677 15.82C52.4537 15.6807 52.6737 15.457 52.8277 15.149C52.989 14.8483 53.0697 14.4597 53.0697 13.983V9H53.9497V13.972C53.9497 14.6027 53.8324 15.1307 53.5977 15.556C53.363 15.9813 53.0404 16.3003 52.6297 16.513C52.219 16.7257 51.7534 16.832 51.2327 16.832ZM51.1997 14.456C50.7084 14.456 50.2757 14.3387 49.9017 14.104C49.5277 13.8693 49.2344 13.543 49.0217 13.125C48.8164 12.6997 48.7137 12.2157 48.7137 11.673C48.7137 11.1157 48.8164 10.628 49.0217 10.21C49.2344 9.78467 49.5277 9.45467 49.9017 9.22C50.2757 8.98533 50.7084 8.868 51.1997 8.868C51.6617 8.868 52.065 8.98533 52.4097 9.22C52.7544 9.45467 53.022 9.78467 53.2127 10.21C53.4107 10.628 53.5097 11.1157 53.5097 11.673C53.5097 12.223 53.4107 12.707 53.2127 13.125C53.022 13.543 52.7544 13.8693 52.4097 14.104C52.065 14.3387 51.6617 14.456 51.1997 14.456ZM51.4087 13.697C51.7314 13.697 52.0174 13.609 52.2667 13.433C52.516 13.257 52.7104 13.0187 52.8497 12.718C52.989 12.41 53.0587 12.0543 53.0587 11.651C53.0587 11.2623 52.9854 10.9177 52.8387 10.617C52.6994 10.309 52.505 10.0707 52.2557 9.902C52.0137 9.726 51.7277 9.638 51.3977 9.638C51.053 9.638 50.745 9.726 50.4737 9.902C50.2097 10.0707 50.0007 10.309 49.8467 10.617C49.7 10.9177 49.6267 11.2623 49.6267 11.651C49.6267 12.0543 49.7037 12.41 49.8577 12.718C50.0117 13.0187 50.2207 13.257 50.4847 13.433C50.756 13.609 51.064 13.697 51.4087 13.697ZM55.9728 11.519C55.9728 10.925 56.0864 10.4447 56.3138 10.078C56.5411 9.704 56.8308 9.429 57.1828 9.253C57.5421 9.06967 57.9198 8.978 58.3158 8.978V9.803C57.9931 9.803 57.6814 9.858 57.3808 9.968C57.0874 10.0707 56.8454 10.243 56.6548 10.485C56.4641 10.727 56.3688 11.057 56.3688 11.475L55.9728 11.519ZM55.4888 14.5V9H56.3688V14.5H55.4888ZM61.6145 14.632C61.0792 14.632 60.6062 14.511 60.1955 14.269C59.7849 14.0197 59.4622 13.6787 59.2275 13.246C59.0002 12.8133 58.8865 12.3147 58.8865 11.75C58.8865 11.1853 59.0002 10.6867 59.2275 10.254C59.4622 9.82133 59.7812 9.484 60.1845 9.242C60.5952 8.99267 61.0645 8.868 61.5925 8.868C62.0985 8.868 62.5385 8.99633 62.9125 9.253C63.2939 9.50233 63.5872 9.85433 63.7925 10.309C63.9979 10.7637 64.1005 11.299 64.1005 11.915H63.2205C63.2205 11.4457 63.1582 11.046 63.0335 10.716C62.9089 10.3787 62.7219 10.1183 62.4725 9.935C62.2305 9.75167 61.9335 9.66 61.5815 9.66C61.2222 9.66 60.9032 9.748 60.6245 9.924C60.3532 10.0927 60.1442 10.3347 59.9975 10.65C59.8509 10.9653 59.7775 11.3357 59.7775 11.761C59.7775 12.179 59.8582 12.542 60.0195 12.85C60.1809 13.1507 60.4045 13.389 60.6905 13.565C60.9765 13.7337 61.2992 13.818 61.6585 13.818C62.0399 13.818 62.3625 13.7263 62.6265 13.543C62.8905 13.3597 63.0995 13.1213 63.2535 12.828L64.0235 13.213C63.8842 13.499 63.6972 13.7483 63.4625 13.961C63.2352 14.1737 62.9639 14.3387 62.6485 14.456C62.3405 14.5733 61.9959 14.632 61.6145 14.632ZM59.4695 11.915L59.4805 11.156H63.5615V11.915H59.4695ZM67.1354 14.632C66.7321 14.632 66.3801 14.5733 66.0794 14.456C65.7788 14.3313 65.5258 14.17 65.3204 13.972C65.1224 13.774 64.9794 13.5577 64.8914 13.323L65.6614 13.004C65.7861 13.2533 65.9731 13.455 66.2224 13.609C66.4718 13.763 66.7468 13.84 67.0474 13.84C67.3921 13.84 67.6818 13.774 67.9164 13.642C68.1511 13.5027 68.2684 13.3083 68.2684 13.059C68.2684 12.8317 68.1804 12.6483 68.0044 12.509C67.8358 12.3697 67.5828 12.256 67.2454 12.168L66.7174 12.025C66.2188 11.893 65.8301 11.695 65.5514 11.431C65.2728 11.1597 65.1334 10.8553 65.1334 10.518C65.1334 9.99733 65.3021 9.594 65.6394 9.308C65.9841 9.01467 66.4938 8.868 67.1684 8.868C67.4911 8.868 67.7844 8.91567 68.0484 9.011C68.3124 9.10633 68.5398 9.242 68.7304 9.418C68.9211 9.58667 69.0604 9.78833 69.1484 10.023L68.3784 10.364C68.2831 10.1147 68.1254 9.935 67.9054 9.825C67.6854 9.715 67.4178 9.66 67.1024 9.66C66.7651 9.66 66.5011 9.73333 66.3104 9.88C66.1198 10.0193 66.0244 10.2173 66.0244 10.474C66.0244 10.6207 66.1014 10.76 66.2554 10.892C66.4168 11.0167 66.6514 11.1193 66.9594 11.2L67.5094 11.343C67.8688 11.431 68.1694 11.563 68.4114 11.739C68.6534 11.9077 68.8368 12.102 68.9614 12.322C69.0861 12.542 69.1484 12.7767 69.1484 13.026C69.1484 13.356 69.0604 13.642 68.8844 13.884C68.7084 14.126 68.4701 14.313 68.1694 14.445C67.8688 14.5697 67.5241 14.632 67.1354 14.632ZM72.2595 14.632C71.8561 14.632 71.5041 14.5733 71.2035 14.456C70.9028 14.3313 70.6498 14.17 70.4445 13.972C70.2465 13.774 70.1035 13.5577 70.0155 13.323L70.7855 13.004C70.9101 13.2533 71.0971 13.455 71.3465 13.609C71.5958 13.763 71.8708 13.84 72.1715 13.84C72.5161 13.84 72.8058 13.774 73.0405 13.642C73.2751 13.5027 73.3925 13.3083 73.3925 13.059C73.3925 12.8317 73.3045 12.6483 73.1285 12.509C72.9598 12.3697 72.7068 12.256 72.3695 12.168L71.8415 12.025C71.3428 11.893 70.9541 11.695 70.6755 11.431C70.3968 11.1597 70.2575 10.8553 70.2575 10.518C70.2575 9.99733 70.4261 9.594 70.7635 9.308C71.1081 9.01467 71.6178 8.868 72.2925 8.868C72.6151 8.868 72.9085 8.91567 73.1725 9.011C73.4365 9.10633 73.6638 9.242 73.8545 9.418C74.0451 9.58667 74.1845 9.78833 74.2725 10.023L73.5025 10.364C73.4071 10.1147 73.2495 9.935 73.0295 9.825C72.8095 9.715 72.5418 9.66 72.2265 9.66C71.8891 9.66 71.6251 9.73333 71.4345 9.88C71.2438 10.0193 71.1485 10.2173 71.1485 10.474C71.1485 10.6207 71.2255 10.76 71.3795 10.892C71.5408 11.0167 71.7755 11.1193 72.0835 11.2L72.6335 11.343C72.9928 11.431 73.2935 11.563 73.5355 11.739C73.7775 11.9077 73.9608 12.102 74.0855 12.322C74.2101 12.542 74.2725 12.7767 74.2725 13.026C74.2725 13.356 74.1845 13.642 74.0085 13.884C73.8325 14.126 73.5941 14.313 73.2935 14.445C72.9928 14.5697 72.6481 14.632 72.2595 14.632Z" fill="#5655D7"/>
</svg>
