<svg width="246" height="246" viewBox="0 0 246 246" fill="none" xmlns="http://www.w3.org/2000/svg">
<path d="M99.9032 228.117C98.0809 236.411 103.332 244.714 111.788 245.488C133.373 247.464 155.196 243.707 175.003 234.466C194.811 225.225 211.711 210.916 224.065 193.106C228.905 186.129 225.916 176.771 218.39 172.838C210.864 168.906 201.669 171.922 196.543 178.691C187.52 190.607 175.686 200.215 162.003 206.599C148.319 212.983 133.353 215.878 118.425 215.137C109.944 214.715 101.725 219.824 99.9032 228.117Z" fill="#FFAE41"/>
<path d="M123 230.625C123 239.116 116.09 246.099 107.665 245.04C96.0398 243.58 84.6565 240.462 73.8672 235.761C58.3675 229.007 44.4265 219.13 32.9148 206.748C21.403 194.365 12.5678 179.741 6.96081 163.791C1.35379 147.841 -0.904638 130.905 0.326558 114.043C1.55775 97.1807 6.25213 80.7532 14.1166 65.7864C21.981 50.8196 32.8466 37.6348 46.0349 27.0554C59.2232 16.476 74.4509 8.72908 90.7673 4.29846C102.125 1.21435 113.84 -0.216789 125.554 0.0265188C134.044 0.202854 139.866 8.11511 138.633 16.5164C137.4 24.9178 129.562 30.5927 121.072 30.7701C113.573 30.9269 106.101 31.9981 98.8255 33.9738C86.5882 37.2968 75.1674 43.107 65.2762 51.0415C55.3849 58.9761 47.2357 68.8647 41.3374 80.0898C35.4391 91.3149 31.9183 103.636 30.9949 116.282C30.0715 128.929 31.7653 141.63 35.9706 153.593C40.1759 165.556 46.8023 176.523 55.4361 185.811C64.0698 195.098 74.5256 202.505 86.1504 207.571C93.0621 210.582 100.299 212.727 107.696 213.972C116.07 215.38 123 222.134 123 230.625Z" fill="#4ABDE8"/>
<path d="M104.611 16.9577C103.16 8.59117 108.775 0.530437 117.258 0.133998C137.373 -0.806152 157.496 3.20488 175.823 11.9201C198.798 22.8456 217.82 40.6265 230.269 62.8133C242.717 85.0001 247.98 110.501 245.332 135.803C243.219 155.987 236.156 175.252 224.871 191.93C220.113 198.962 210.306 199.555 203.922 193.956C197.537 188.358 197.029 178.695 201.49 171.47C208.74 159.73 213.299 146.455 214.749 132.603C216.735 113.626 212.788 94.5 203.451 77.86C194.115 61.2199 179.848 47.8842 162.617 39.6901C150.039 33.7087 136.333 30.6817 122.535 30.7511C114.044 30.7938 106.062 25.3242 104.611 16.9577Z" fill="#5655D7"/>
<path d="M105.5 110.5V95.5C105.5 94.837 105.763 94.2011 106.232 93.7322C106.701 93.2634 107.337 93 108 93C108.663 93 109.299 93.2634 109.768 93.7322C110.237 94.2011 110.5 94.837 110.5 95.5V110.5C110.5 111.163 110.237 111.799 109.768 112.268C109.299 112.737 108.663 113 108 113C107.337 113 106.701 112.737 106.232 112.268C105.763 111.799 105.5 111.163 105.5 110.5ZM150.5 95.5V153C150.5 153.663 150.237 154.299 149.768 154.768C149.299 155.237 148.663 155.5 148 155.5C147.337 155.5 146.701 155.237 146.232 154.768C145.763 154.299 145.5 153.663 145.5 153V138H130.5C129.837 138 129.201 137.737 128.732 137.268C128.263 136.799 128 136.163 128 135.5C128.116 129.511 128.873 123.553 130.256 117.725C133.313 105.072 139.106 96.5906 147.016 93.2031C147.396 93.0403 147.81 92.9743 148.222 93.0111C148.634 93.0479 149.031 93.1863 149.376 93.4139C149.721 93.6415 150.005 93.9512 150.201 94.3153C150.397 94.6794 150.5 95.0864 150.5 95.5ZM145.5 99.8438C135.447 107.522 133.478 126.225 133.094 133H145.5V99.8438ZM120.466 95.0906C120.417 94.7624 120.303 94.4471 120.131 94.1633C119.959 93.8795 119.732 93.6328 119.463 93.4376C119.195 93.2424 118.89 93.1026 118.567 93.0263C118.244 92.9501 117.909 92.9389 117.582 92.9935C117.255 93.048 116.941 93.1672 116.661 93.3441C116.38 93.521 116.137 93.7521 115.946 94.0238C115.756 94.2955 115.621 94.6024 115.55 94.9267C115.48 95.251 115.474 95.5861 115.534 95.9125L118 110.697C118 113.349 116.946 115.893 115.071 117.768C113.196 119.643 110.652 120.697 108 120.697C105.348 120.697 102.804 119.643 100.929 117.768C99.0536 115.893 98 113.349 98 110.697L100.463 95.9125C100.523 95.5861 100.517 95.251 100.446 94.9267C100.376 94.6024 100.241 94.2955 100.051 94.0238C99.86 93.7521 99.6172 93.521 99.3364 93.3441C99.0555 93.1672 98.7423 93.048 98.4149 92.9935C98.0875 92.9389 97.7526 92.9501 97.4295 93.0263C97.1065 93.1026 96.8019 93.2424 96.5335 93.4376C96.2651 93.6328 96.0382 93.8795 95.8661 94.1633C95.6941 94.4471 95.5802 94.7624 95.5313 95.0906L93.0313 110.091C93.0099 110.226 92.9994 110.363 93 110.5C93.005 114.043 94.2623 117.471 96.5496 120.176C98.837 122.882 102.007 124.693 105.5 125.288V153C105.5 153.663 105.763 154.299 106.232 154.768C106.701 155.237 107.337 155.5 108 155.5C108.663 155.5 109.299 155.237 109.768 154.768C110.237 154.299 110.5 153.663 110.5 153V125.288C113.993 124.693 117.163 122.882 119.45 120.176C121.738 117.471 122.995 114.043 123 110.5C123 110.363 122.988 110.226 122.966 110.091L120.466 95.0906Z" fill="url(#paint0_linear_272_3608)"/>
<defs>
<linearGradient id="paint0_linear_272_3608" x1="93" y1="155.5" x2="155.32" y2="98.2024" gradientUnits="userSpaceOnUse">
<stop stop-color="#5655D7"/>
<stop offset="1" stop-color="#7F7EFF"/>
</linearGradient>
</defs>
</svg>
