<svg width="40" height="40" viewBox="0 0 40 40" fill="none" xmlns="http://www.w3.org/2000/svg">
<rect width="40" height="40" rx="20" fill="#00997E"/>
<rect width="40" height="40" rx="20" fill="white" fill-opacity="0.8"/>
<path d="M28.25 20C28.0531 19.9999 27.8566 20.0156 27.6622 20.0469L24.4522 11.4866C24.3986 11.3436 24.3026 11.2205 24.1771 11.1335C24.0517 11.0466 23.9027 11 23.75 11H20.75C20.5511 11 20.3603 11.079 20.2197 11.2197C20.079 11.3603 20 11.5511 20 11.75C20 11.9489 20.079 12.1397 20.2197 12.2803C20.3603 12.421 20.5511 12.5 20.75 12.5H23.2306L26.2588 20.5747C25.8284 20.8441 25.457 21.1979 25.167 21.6148C24.8769 22.0316 24.6743 22.5028 24.5713 23H20.8006L18.4569 16.7366C18.403 16.5929 18.3063 16.4692 18.1799 16.3822C18.0535 16.2952 17.9035 16.249 17.75 16.25H10.25C10.0511 16.25 9.86032 16.329 9.71967 16.4697C9.57902 16.6103 9.5 16.8011 9.5 17C9.5 17.1989 9.57902 17.3897 9.71967 17.5303C9.86032 17.671 10.0511 17.75 10.25 17.75H11V19.0053C10.103 19.4323 9.34524 20.1045 8.81434 20.9441C8.28344 21.7838 8.0011 22.7566 8 23.75C8 23.9489 8.07902 24.1397 8.21967 24.2803C8.36032 24.421 8.55109 24.5 8.75 24.5H9.575C9.74714 25.3477 10.207 26.1099 10.8768 26.6573C11.5466 27.2047 12.385 27.5038 13.25 27.5038C14.115 27.5038 14.9534 27.2047 15.6232 26.6573C16.293 26.1099 16.7529 25.3477 16.925 24.5H24.575C24.7169 25.1952 25.0531 25.8359 25.5446 26.3476C26.0361 26.8593 26.6627 27.2211 27.3515 27.391C28.0404 27.5608 28.7634 27.5317 29.4364 27.3071C30.1094 27.0825 30.7049 26.6716 31.1537 26.122C31.6025 25.5725 31.8862 24.9069 31.9718 24.2025C32.0575 23.4982 31.9415 22.784 31.6374 22.1429C31.3334 21.5019 30.8537 20.9602 30.2541 20.5809C29.6544 20.2016 28.9595 20.0001 28.25 20ZM12.0003 20.2128C12.1464 20.1611 12.273 20.0653 12.3624 19.9387C12.4519 19.8122 12.5 19.661 12.5 19.5059V17.75H17.2306L19.1994 23H9.57594C9.70571 22.3659 9.9971 21.7761 10.4219 21.2878C10.8466 20.7995 11.3903 20.4292 12.0003 20.2128ZM13.25 26C12.7848 25.9999 12.3311 25.8555 11.9514 25.5869C11.5716 25.3183 11.2844 24.9386 11.1294 24.5H15.3706C15.2156 24.9386 14.9284 25.3183 14.5486 25.5869C14.1689 25.8555 13.7152 25.9999 13.25 26ZM28.25 26C27.7888 25.9995 27.3389 25.8572 26.9612 25.5925C26.5835 25.3278 26.2962 24.9535 26.1384 24.5201C25.9805 24.0867 25.9597 23.6153 26.0786 23.1697C26.1976 22.7241 26.4506 22.3258 26.8034 22.0287L27.5478 24.0134C27.5824 24.1058 27.6349 24.1904 27.7022 24.2625C27.7694 24.3345 27.8503 24.3926 27.94 24.4335C28.0298 24.4743 28.1267 24.497 28.2253 24.5004C28.3238 24.5038 28.422 24.4877 28.5144 24.4531C28.6067 24.4185 28.6913 24.3661 28.7634 24.2988C28.8355 24.2315 28.8936 24.1507 28.9344 24.0609C28.9752 23.9712 28.998 23.8742 29.0014 23.7757C29.0047 23.6771 28.9887 23.5789 28.9541 23.4866L28.2078 21.5H28.25C28.8467 21.5 29.419 21.7371 29.841 22.159C30.2629 22.581 30.5 23.1533 30.5 23.75C30.5 24.3467 30.2629 24.919 29.841 25.341C29.419 25.7629 28.8467 26 28.25 26Z" fill="#00997E"/>
</svg>
