<svg width="40" height="40" viewBox="0 0 40 40" fill="none" xmlns="http://www.w3.org/2000/svg">
<rect width="40" height="40" rx="20" fill="#FFAE41"/>
<rect width="40" height="40" rx="20" fill="white" fill-opacity="0.8"/>
<path d="M26.3639 17C26.3704 16.8772 26.3751 16.7534 26.3751 16.625C26.3751 14.9342 25.7035 13.3127 24.5079 12.1172C23.3124 10.9216 21.6909 10.25 20.0001 10.25C18.3094 10.25 16.6878 10.9216 15.4923 12.1172C14.2968 13.3127 13.6251 14.9342 13.6251 16.625C13.6251 16.7497 13.6251 16.8734 13.6364 17C12.8671 17.3937 12.1858 17.9397 11.6341 18.6048C11.0823 19.2699 10.6716 20.0402 10.4267 20.869C10.1819 21.6977 10.1081 22.5676 10.2099 23.4258C10.3116 24.2839 10.5868 25.1125 11.0187 25.861C11.4506 26.6095 12.0301 27.2624 12.7221 27.78C13.4141 28.2976 14.2042 28.6691 15.0442 28.872C15.8842 29.0748 16.7567 29.1047 17.6087 28.9599C18.4606 28.8152 19.2743 28.4987 20.0001 28.0297C20.726 28.4987 21.5396 28.8152 22.3915 28.9599C23.2435 29.1047 24.116 29.0748 24.956 28.872C25.7961 28.6691 26.5861 28.2976 27.2781 27.78C27.9701 27.2624 28.5497 26.6095 28.9815 25.861C29.4134 25.1125 29.6886 24.2839 29.7903 23.4258C29.8921 22.5676 29.8183 21.6977 29.5735 20.869C29.3287 20.0402 28.9179 19.2699 28.3661 18.6048C27.8144 17.9397 27.1332 17.3937 26.3639 17ZM20.0001 26.1378C19.0897 25.268 18.552 24.079 18.5001 22.8209C19.4827 23.0597 20.5082 23.0597 21.4907 22.8209C21.4413 24.0777 20.9071 25.2665 20.0001 26.1378ZM20.0001 21.5C19.5538 21.4999 19.1097 21.4383 18.6801 21.3172C18.9152 20.4775 19.371 19.7161 20.0001 19.1122C20.6292 19.7161 21.085 20.4775 21.3201 21.3172C20.8906 21.4383 20.4464 21.4999 20.0001 21.5ZM17.3029 20.6834C16.3305 20.036 15.6219 19.062 15.3051 17.9375C16.4536 17.6134 17.6811 17.7229 18.7542 18.245C18.0938 18.9388 17.5978 19.7721 17.3029 20.6834ZM21.246 18.2403C22.3197 17.7197 23.5472 17.612 24.6951 17.9375C24.3793 19.0637 23.6706 20.0395 22.6973 20.6881C22.4037 19.7735 21.9076 18.9368 21.246 18.2403ZM20.0001 11.75C21.2594 11.7504 22.4698 12.2375 23.3783 13.1095C24.2868 13.9815 24.8231 15.1709 24.8751 16.4291C24.0509 16.2286 23.1948 16.1953 22.3575 16.3312C21.5202 16.4671 20.7186 16.7694 20.0001 17.2203C19.2822 16.7701 18.4814 16.4681 17.645 16.3322C16.8085 16.1963 15.9533 16.2292 15.1298 16.4291C15.1818 15.1717 15.7174 13.983 16.6249 13.1111C17.5324 12.2392 18.7416 11.7516 20.0001 11.75ZM11.7501 22.625C11.7505 21.8214 11.9495 21.0304 12.3295 20.3224C12.7095 19.6143 13.2586 19.0112 13.9279 18.5666C14.4393 20.1477 15.5449 21.4684 17.0114 22.25C17.0048 22.3728 17.0001 22.4966 17.0001 22.625C16.9994 24.2577 17.6276 25.8279 18.7542 27.0097C18.011 27.3705 17.1884 27.5365 16.3635 27.4922C15.5386 27.4478 14.7385 27.1946 14.0383 26.7563C13.3381 26.3179 12.7608 25.7089 12.3606 24.9862C11.9603 24.2636 11.7503 23.4511 11.7501 22.625ZM23.3751 27.5C22.6373 27.5009 21.9091 27.3332 21.246 27.0097C22.3726 25.8279 23.0008 24.2577 23.0001 22.625C23.0001 22.5003 22.9954 22.3766 22.9889 22.25C24.4561 21.4675 25.5618 20.1454 26.0723 18.5628C26.945 19.1419 27.6081 19.9866 27.9632 20.9719C28.3184 21.9573 28.3468 23.0308 28.0442 24.0335C27.7416 25.0362 27.124 25.9148 26.2831 26.5392C25.4422 27.1635 24.4225 27.5004 23.3751 27.5Z" fill="#FFAE41"/>
</svg>
