<svg width="36" height="36" viewBox="0 0 36 36" fill="none" xmlns="http://www.w3.org/2000/svg">
<rect width="36" height="36" rx="18" fill="#465762"/>
<rect width="36" height="36" rx="18" fill="white" fill-opacity="0.8"/>
<path d="M21.2398 11.8117C21.3205 11.7966 21.3975 11.7658 21.4662 11.721C21.535 11.6762 21.5943 11.6183 21.6407 11.5505C21.6871 11.4828 21.7197 11.4066 21.7366 11.3263C21.7536 11.246 21.7545 11.1631 21.7395 11.0824C21.7244 11.0017 21.6935 10.9248 21.6487 10.856C21.6039 10.7872 21.546 10.728 21.4783 10.6816C21.4106 10.6352 21.3344 10.6026 21.254 10.5856C21.1737 10.5687 21.0908 10.5677 21.0102 10.5828C19.7516 10.8188 18.7031 11.4516 18 12.375C17.1203 11.2031 15.7063 10.5 14.0938 10.5C12.8096 10.5014 11.5784 11.0122 10.6703 11.9203C9.76223 12.8284 9.25145 14.0596 9.25 15.3438C9.25 20.8125 17.3586 25.2398 17.7039 25.4219C17.7948 25.4713 17.8966 25.4972 18 25.4972C18.1034 25.4972 18.2052 25.4713 18.2961 25.4219C19.4173 24.7934 20.4903 24.0826 21.5063 23.2953C21.5739 23.2462 21.6311 23.1841 21.6743 23.1125C21.7175 23.041 21.7459 22.9615 21.7579 22.8787C21.7698 22.796 21.7651 22.7117 21.7439 22.6308C21.7227 22.55 21.6854 22.4742 21.6344 22.408C21.5834 22.3417 21.5196 22.2864 21.4469 22.2453C21.3741 22.2042 21.2938 22.178 21.2108 22.1685C21.1277 22.1589 21.0436 22.1661 20.9634 22.1896C20.8832 22.2132 20.8085 22.2526 20.7438 22.3055C19.9383 22.9258 19.1813 23.4281 18.625 23.7758V13.7578C19.0813 12.7461 20.0266 12.0391 21.2398 11.8117ZM17.375 23.7812C15.3109 22.4852 10.5 19.0711 10.5 15.3438C10.5012 14.391 10.8803 13.4776 11.554 12.804C12.2276 12.1303 13.141 11.7512 14.0938 11.75C15.5711 11.75 16.8172 12.5141 17.375 13.7531V23.7812ZM26.168 15.5C26.1448 15.5012 26.1216 15.5012 26.0984 15.5C25.9447 15.4998 25.7965 15.4429 25.6821 15.3403C25.5676 15.2377 25.495 15.0965 25.4781 14.9437C25.4205 14.4233 25.2496 13.9218 24.9774 13.4745C24.7051 13.0272 24.3382 12.6449 23.9023 12.3547C23.8319 12.3101 23.7711 12.2518 23.7235 12.1833C23.6759 12.1147 23.6425 12.0374 23.6253 11.9558C23.608 11.8742 23.6073 11.7899 23.6231 11.708C23.639 11.6261 23.6711 11.5482 23.7175 11.4789C23.7639 11.4096 23.8237 11.3503 23.8934 11.3045C23.9631 11.2586 24.0413 11.2272 24.1233 11.2121C24.2053 11.1969 24.2896 11.1984 24.371 11.2163C24.4525 11.2342 24.5296 11.2682 24.5977 11.3164C25.1849 11.7077 25.6793 12.223 26.046 12.8259C26.4127 13.4289 26.6429 14.1048 26.7203 14.8063C26.7299 14.8881 26.7232 14.9711 26.7005 15.0503C26.6779 15.1296 26.6398 15.2036 26.5885 15.268C26.5372 15.3325 26.4736 15.3862 26.4014 15.426C26.3292 15.4658 26.2499 15.491 26.168 15.5ZM26.0047 18.2828C25.5617 19.1711 24.9156 20.0797 24.0836 20.9773C24.0287 21.0404 23.9616 21.0919 23.8864 21.1286C23.8113 21.1653 23.7295 21.1865 23.6459 21.191C23.5624 21.1956 23.4788 21.1833 23.4001 21.1549C23.3214 21.1265 23.2492 21.0826 23.1878 21.0258C23.1264 20.969 23.077 20.9004 23.0426 20.8241C23.0081 20.7479 22.9894 20.6655 22.9874 20.5819C22.9854 20.4982 23.0002 20.415 23.031 20.3372C23.0617 20.2594 23.1078 20.1886 23.1664 20.1289C23.9172 19.3164 24.4945 18.5078 24.8852 17.725C24.9202 17.649 24.9701 17.5808 25.032 17.5244C25.0939 17.4681 25.1665 17.4248 25.2455 17.397C25.3245 17.3692 25.4082 17.3576 25.4917 17.3628C25.5753 17.3681 25.6569 17.39 25.7318 17.4274C25.8067 17.4647 25.8733 17.5168 25.9277 17.5804C25.9821 17.644 26.0232 17.7179 26.0485 17.7977C26.0738 17.8775 26.0828 17.9615 26.075 18.0448C26.0672 18.1282 26.0428 18.2091 26.0031 18.2828H26.0047Z" fill="#465762"/>
</svg>
