<svg width="36" height="36" viewBox="0 0 36 36" fill="none" xmlns="http://www.w3.org/2000/svg">
<rect width="36" height="36" rx="18" fill="#FFAE41"/>
<rect width="36" height="36" rx="18" fill="white" fill-opacity="0.8"/>
<path d="M26.1251 18.6766C25.9923 20.2203 25.4213 21.694 24.4795 22.9243C23.5376 24.1545 22.2639 25.0902 20.8083 25.6212C19.3527 26.1522 17.7757 26.2565 16.2629 25.9216C14.7501 25.5868 13.3643 24.8269 12.2687 23.7313C11.1731 22.6357 10.4132 21.25 10.0784 19.7371C9.7436 18.2243 9.84783 16.6473 10.3788 15.1917C10.9098 13.7361 11.8455 12.4625 13.0758 11.5206C14.3061 10.5787 15.7798 10.0078 17.3235 9.875C17.4056 9.86823 17.4882 9.87769 17.5666 9.90284C17.645 9.928 17.7177 9.96835 17.7805 10.0216C17.8434 10.0748 17.8951 10.1399 17.9327 10.2132C17.9704 10.2864 17.9933 10.3664 18.0001 10.4484C18.0068 10.5305 17.9974 10.6131 17.9722 10.6915C17.9471 10.77 17.9067 10.8427 17.8535 10.9055C17.8002 10.9683 17.7351 11.02 17.6619 11.0577C17.5886 11.0954 17.5087 11.1182 17.4266 11.125C16.12 11.2373 14.8727 11.7204 13.8314 12.5175C12.7901 13.3146 11.9981 14.3925 11.5486 15.6245C11.0991 16.8564 11.0108 18.1911 11.2942 19.4715C11.5775 20.752 12.2207 21.9248 13.148 22.8521C14.0753 23.7794 15.2481 24.4225 16.5285 24.7059C17.8089 24.9892 19.1436 24.9009 20.3756 24.4515C21.6075 24.002 22.6855 23.21 23.4826 22.1687C24.2797 21.1273 24.7628 19.88 24.8751 18.5734C24.8887 18.4077 24.9677 18.2541 25.0946 18.1466C25.2215 18.0391 25.3859 17.9863 25.5516 18C25.7174 18.0137 25.8709 18.0926 25.9785 18.2195C26.086 18.3464 26.1387 18.5108 26.1251 18.6766ZM17.3751 13.625V18C17.3751 18.1658 17.4409 18.3247 17.5581 18.4419C17.6753 18.5592 17.8343 18.625 18.0001 18.625H22.3751C22.5408 18.625 22.6998 18.5592 22.817 18.4419C22.9342 18.3247 23.0001 18.1658 23.0001 18C23.0001 17.8342 22.9342 17.6753 22.817 17.5581C22.6998 17.4408 22.5408 17.375 22.3751 17.375H18.6251V13.625C18.6251 13.4592 18.5592 13.3003 18.442 13.1831C18.3248 13.0658 18.1658 13 18.0001 13C17.8343 13 17.6753 13.0658 17.5581 13.1831C17.4409 13.3003 17.3751 13.4592 17.3751 13.625ZM20.5001 11.75C20.6855 11.75 20.8667 11.695 21.0209 11.592C21.1751 11.489 21.2952 11.3426 21.3662 11.1713C21.4371 11 21.4557 10.8115 21.4195 10.6296C21.3834 10.4477 21.2941 10.2807 21.163 10.1496C21.0319 10.0185 20.8648 9.92919 20.683 9.89301C20.5011 9.85684 20.3126 9.87541 20.1413 9.94636C19.97 10.0173 19.8236 10.1375 19.7206 10.2917C19.6175 10.4458 19.5626 10.6271 19.5626 10.8125C19.5626 11.0611 19.6613 11.2996 19.8371 11.4754C20.013 11.6512 20.2514 11.75 20.5001 11.75ZM23.3126 13.625C23.498 13.625 23.6792 13.57 23.8334 13.467C23.9876 13.364 24.1077 13.2176 24.1787 13.0463C24.2496 12.875 24.2682 12.6865 24.232 12.5046C24.1959 12.3227 24.1066 12.1557 23.9755 12.0246C23.8444 11.8935 23.6773 11.8042 23.4955 11.768C23.3136 11.7318 23.1251 11.7504 22.9538 11.8214C22.7825 11.8923 22.6361 12.0125 22.5331 12.1667C22.43 12.3208 22.3751 12.5021 22.3751 12.6875C22.3751 12.9361 22.4738 13.1746 22.6496 13.3504C22.8255 13.5262 23.0639 13.625 23.3126 13.625ZM25.1876 16.4375C25.373 16.4375 25.5542 16.3825 25.7084 16.2795C25.8626 16.1765 25.9827 16.0301 26.0537 15.8588C26.1246 15.6875 26.1432 15.499 26.107 15.3171C26.0709 15.1352 25.9816 14.9682 25.8505 14.8371C25.7194 14.706 25.5523 14.6167 25.3705 14.5805C25.1886 14.5443 25.0001 14.5629 24.8288 14.6339C24.6575 14.7048 24.5111 14.825 24.4081 14.9792C24.305 15.1333 24.2501 15.3146 24.2501 15.5C24.2501 15.7486 24.3488 15.9871 24.5246 16.1629C24.7005 16.3387 24.9389 16.4375 25.1876 16.4375Z" fill="#FFAE41"/>
</svg>
