<svg width="36" height="36" viewBox="0 0 36 36" fill="none" xmlns="http://www.w3.org/2000/svg">
<rect width="36" height="36" rx="18" fill="#4ABDE8"/>
<rect width="36" height="36" rx="18" fill="white" fill-opacity="0.8"/>
<path d="M18 9.875C16.393 9.875 14.8221 10.3515 13.486 11.2443C12.1498 12.1371 11.1084 13.406 10.4935 14.8907C9.87852 16.3753 9.71762 18.009 10.0311 19.5851C10.3446 21.1612 11.1185 22.6089 12.2548 23.7452C13.3911 24.8815 14.8388 25.6554 16.4149 25.9689C17.991 26.2824 19.6247 26.1215 21.1093 25.5065C22.594 24.8916 23.8629 23.8502 24.7557 22.514C25.6485 21.1779 26.125 19.607 26.125 18C26.1227 15.8458 25.266 13.7805 23.7427 12.2573C22.2195 10.734 20.1542 9.87727 18 9.875ZM18 24.875C16.6403 24.875 15.311 24.4718 14.1805 23.7164C13.0499 22.9609 12.1687 21.8872 11.6483 20.6309C11.128 19.3747 10.9918 17.9924 11.2571 16.6588C11.5224 15.3251 12.1772 14.1001 13.1386 13.1386C14.1001 12.1772 15.3251 11.5224 16.6588 11.2571C17.9924 10.9918 19.3747 11.128 20.631 11.6483C21.8872 12.1687 22.9609 13.0499 23.7164 14.1805C24.4718 15.311 24.875 16.6403 24.875 18C24.8729 19.8227 24.1479 21.5702 22.8591 22.8591C21.5702 24.1479 19.8227 24.8729 18 24.875ZM23 18C23 18.1658 22.9342 18.3247 22.8169 18.4419C22.6997 18.5592 22.5408 18.625 22.375 18.625H18C17.8342 18.625 17.6753 18.5592 17.5581 18.4419C17.4409 18.3247 17.375 18.1658 17.375 18V13.625C17.375 13.4592 17.4409 13.3003 17.5581 13.1831C17.6753 13.0658 17.8342 13 18 13C18.1658 13 18.3247 13.0658 18.4419 13.1831C18.5592 13.3003 18.625 13.4592 18.625 13.625V17.375H22.375C22.5408 17.375 22.6997 17.4408 22.8169 17.5581C22.9342 17.6753 23 17.8342 23 18Z" fill="#4ABDE8"/>
</svg>
