<svg width="40" height="40" viewBox="0 0 40 40" fill="none" xmlns="http://www.w3.org/2000/svg">
<rect width="40" height="40" rx="20" fill="#4ABDE8"/>
<rect width="40" height="40" rx="20" fill="white" fill-opacity="0.8"/>
<path d="M28.7835 26.7284L23 17.0862V11.75H23.75C23.9489 11.75 24.1397 11.671 24.2804 11.5303C24.421 11.3897 24.5 11.1989 24.5 11C24.5 10.8011 24.421 10.6103 24.2804 10.4697C24.1397 10.329 23.9489 10.25 23.75 10.25H16.25C16.0511 10.25 15.8603 10.329 15.7197 10.4697C15.579 10.6103 15.5 10.8011 15.5 11C15.5 11.1989 15.579 11.3897 15.7197 11.5303C15.8603 11.671 16.0511 11.75 16.25 11.75H17V17.0862L11.2166 26.7284C11.0802 26.9558 11.0065 27.2154 11.0031 27.4805C10.9996 27.7457 11.0665 28.007 11.197 28.2379C11.3274 28.4688 11.5167 28.6609 11.7456 28.7948C11.9745 28.9287 12.2348 28.9995 12.5 29H27.5C27.7654 29 28.0261 28.9295 28.2554 28.7959C28.4847 28.6622 28.6744 28.4701 28.8052 28.2391C28.936 28.0081 29.0031 27.7466 28.9998 27.4812C28.9965 27.2158 28.9228 26.9561 28.7863 26.7284H28.7835ZM18.3931 17.6797C18.4633 17.5634 18.5003 17.4302 18.5 17.2944V11.75H21.5V17.2944C21.4998 17.4302 21.5368 17.5634 21.6069 17.6797L25.19 23.6562C24.065 23.8784 22.4647 23.7847 20.3385 22.7084C18.8469 21.9537 17.4275 21.5534 16.0991 21.5075L18.3931 17.6797ZM12.5 27.5L15.1756 23.0394C16.5116 22.8763 18.0172 23.2128 19.6588 24.0444C21.44 24.9453 22.94 25.2519 24.1588 25.2519C24.7786 25.2546 25.3957 25.1694 25.9916 24.9988L27.5 27.5H12.5Z" fill="#4ABDE8"/>
</svg>
