<svg width="36" height="36" viewBox="0 0 36 36" fill="none" xmlns="http://www.w3.org/2000/svg">
<rect width="36" height="36" rx="18" fill="#5655D7"/>
<rect width="36" height="36" rx="18" fill="white" fill-opacity="0.8"/>
<path d="M27.1252 19.75C27.0596 19.7992 26.9849 19.8351 26.9053 19.8554C26.8258 19.8758 26.7431 19.8803 26.6618 19.8687C26.5806 19.8571 26.5024 19.8296 26.4318 19.7878C26.3612 19.746 26.2995 19.6907 26.2502 19.625C25.8735 19.1186 25.3832 18.7078 24.8187 18.4256C24.2542 18.1433 23.6313 17.9975 23.0002 18C22.8773 18 22.7572 17.9637 22.6547 17.8958C22.5523 17.8278 22.4722 17.7312 22.4245 17.618C22.392 17.5411 22.3753 17.4585 22.3753 17.375C22.3753 17.2915 22.392 17.2089 22.4245 17.132C22.4722 17.0188 22.5523 16.9222 22.6547 16.8542C22.7572 16.7863 22.8773 16.75 23.0002 16.75C23.3509 16.75 23.6946 16.6516 23.9921 16.466C24.2897 16.2805 24.5293 16.0152 24.6836 15.7003C24.838 15.3855 24.901 15.0336 24.8654 14.6847C24.8298 14.3359 24.6971 14.004 24.4823 13.7267C24.2676 13.4495 23.9794 13.2381 23.6505 13.1164C23.3216 12.9948 22.9651 12.9678 22.6217 13.0386C22.2782 13.1094 21.9615 13.275 21.7074 13.5168C21.4534 13.7585 21.2723 14.0667 21.1846 14.4062C21.1641 14.4858 21.1281 14.5604 21.0787 14.6261C21.0293 14.6917 20.9675 14.7469 20.8968 14.7886C20.8261 14.8303 20.7478 14.8577 20.6665 14.8692C20.5852 14.8806 20.5024 14.876 20.4229 14.8555C20.3434 14.8349 20.2687 14.799 20.2031 14.7496C20.1375 14.7002 20.0822 14.6384 20.0405 14.5676C19.9988 14.4969 19.9714 14.4187 19.96 14.3373C19.9485 14.256 19.9532 14.1733 19.9737 14.0937C20.0954 13.6229 20.3253 13.1869 20.6451 12.8206C20.9649 12.4542 21.3658 12.1676 21.8159 11.9834C22.266 11.7992 22.7529 11.7227 23.2378 11.7598C23.7227 11.7969 24.1922 11.9467 24.609 12.1972C25.0259 12.4477 25.3785 12.7921 25.6388 13.2028C25.8991 13.6136 26.06 14.0795 26.1086 14.5633C26.1572 15.0472 26.0922 15.5358 25.9188 15.9901C25.7454 16.4445 25.4683 16.8521 25.1096 17.1805C25.9595 17.5484 26.6982 18.1324 27.2526 18.8742C27.3018 18.94 27.3376 19.0149 27.3578 19.0946C27.3781 19.1743 27.3824 19.2572 27.3706 19.3385C27.3588 19.4199 27.331 19.4981 27.2889 19.5687C27.2468 19.6393 27.1912 19.7009 27.1252 19.75ZM22.9159 24.5625C22.9611 24.6336 22.9914 24.7132 23.0051 24.7964C23.0188 24.8795 23.0155 24.9646 22.9955 25.0465C22.9754 25.1284 22.939 25.2053 22.8884 25.2728C22.8379 25.3402 22.7742 25.3967 22.7012 25.4389C22.6282 25.4811 22.5475 25.5081 22.4638 25.5182C22.3801 25.5284 22.2952 25.5215 22.2143 25.498C22.1333 25.4746 22.058 25.4349 21.9927 25.3816C21.9275 25.3282 21.8737 25.2622 21.8346 25.1875C21.4409 24.5208 20.8802 23.9683 20.2078 23.5845C19.5353 23.2007 18.7745 22.9989 18.0002 22.9989C17.226 22.9989 16.4651 23.2007 15.7927 23.5845C15.1203 23.9683 14.5596 24.5208 14.1659 25.1875C14.1268 25.2622 14.073 25.3282 14.0078 25.3816C13.9425 25.4349 13.8672 25.4746 13.7862 25.498C13.7052 25.5215 13.6204 25.5284 13.5367 25.5182C13.453 25.5081 13.3723 25.4811 13.2993 25.4389C13.2263 25.3967 13.1626 25.3402 13.112 25.2728C13.0615 25.2053 13.0251 25.1284 13.005 25.0465C12.985 24.9646 12.9817 24.8795 12.9953 24.7964C13.009 24.7132 13.0394 24.6336 13.0846 24.5625C13.6905 23.5214 14.6145 22.7021 15.7205 22.225C15.0981 21.7485 14.6407 21.0889 14.4126 20.3389C14.1844 19.589 14.197 18.7864 14.4486 18.044C14.7002 17.3016 15.1781 16.6567 15.8151 16.1999C16.4522 15.7431 17.2164 15.4975 18.0002 15.4975C18.7841 15.4975 19.5483 15.7431 20.1853 16.1999C20.8224 16.6567 21.3003 17.3016 21.5519 18.044C21.8034 18.7864 21.816 19.589 21.5879 20.3389C21.3597 21.0889 20.9023 21.7485 20.2799 22.225C21.386 22.7021 22.3099 23.5214 22.9159 24.5625ZM18.0002 21.75C18.4947 21.75 18.978 21.6034 19.3892 21.3287C19.8003 21.054 20.1207 20.6635 20.3099 20.2067C20.4992 19.7499 20.5487 19.2472 20.4522 18.7623C20.3557 18.2773 20.1176 17.8319 19.768 17.4822C19.4184 17.1326 18.9729 16.8945 18.488 16.798C18.003 16.7016 17.5003 16.7511 17.0435 16.9403C16.5867 17.1295 16.1963 17.4499 15.9216 17.8611C15.6469 18.2722 15.5002 18.7555 15.5002 19.25C15.5002 19.913 15.7636 20.5489 16.2325 21.0178C16.7013 21.4866 17.3372 21.75 18.0002 21.75ZM13.6252 17.375C13.6252 17.2092 13.5594 17.0503 13.4422 16.9331C13.325 16.8158 13.166 16.75 13.0002 16.75C12.6496 16.75 12.3059 16.6516 12.0083 16.466C11.7108 16.2805 11.4712 16.0152 11.3168 15.7003C11.1625 15.3855 11.0995 15.0336 11.1351 14.6847C11.1707 14.3359 11.3034 14.004 11.5181 13.7267C11.7329 13.4495 12.0211 13.2381 12.35 13.1164C12.6789 12.9948 13.0353 12.9678 13.3788 13.0386C13.7223 13.1094 14.039 13.275 14.293 13.5168C14.5471 13.7585 14.7282 14.0667 14.8159 14.4062C14.8573 14.5668 14.9608 14.7044 15.1037 14.7886C15.2465 14.8729 15.417 14.8969 15.5776 14.8555C15.7382 14.814 15.8757 14.7105 15.9599 14.5676C16.0442 14.4248 16.0682 14.2543 16.0268 14.0937C15.9051 13.6229 15.6752 13.1869 15.3554 12.8206C15.0356 12.4542 14.6347 12.1676 14.1846 11.9834C13.7345 11.7992 13.2476 11.7227 12.7627 11.7598C12.2778 11.7969 11.8083 11.9467 11.3914 12.1972C10.9746 12.4477 10.622 12.7921 10.3617 13.2028C10.1013 13.6136 9.94046 14.0795 9.89185 14.5633C9.84325 15.0472 9.90825 15.5358 10.0817 15.9901C10.2551 16.4445 10.5322 16.8521 10.8909 17.1805C10.0419 17.5488 9.30392 18.1327 8.75024 18.8742C8.65068 19.0068 8.60787 19.1736 8.63124 19.3377C8.65461 19.5019 8.74224 19.65 8.87485 19.7496C9.00745 19.8492 9.17418 19.892 9.33835 19.8686C9.50252 19.8452 9.65068 19.7576 9.75024 19.625C10.1269 19.1186 10.6173 18.7078 11.1818 18.4256C11.7463 18.1433 12.3691 17.9975 13.0002 18C13.166 18 13.325 17.9341 13.4422 17.8169C13.5594 17.6997 13.6252 17.5408 13.6252 17.375Z" fill="#5655D7"/>
</svg>
