<svg width="40" height="40" viewBox="0 0 40 40" fill="none" xmlns="http://www.w3.org/2000/svg">
<rect width="40" height="40" rx="20" fill="#465762"/>
<rect width="40" height="40" rx="20" fill="white" fill-opacity="0.8"/>
<path d="M28.25 11.75H14.75C14.3522 11.75 13.9706 11.908 13.6893 12.1893C13.408 12.4706 13.25 12.8522 13.25 13.25V14.75H11.75C11.3522 14.75 10.9706 14.908 10.6893 15.1893C10.408 15.4706 10.25 15.8522 10.25 16.25V26.75C10.25 27.1478 10.408 27.5294 10.6893 27.8107C10.9706 28.092 11.3522 28.25 11.75 28.25H25.25C25.6478 28.25 26.0294 28.092 26.3107 27.8107C26.592 27.5294 26.75 27.1478 26.75 26.75V25.25H28.25C28.6478 25.25 29.0294 25.092 29.3107 24.8107C29.592 24.5294 29.75 24.1478 29.75 23.75V13.25C29.75 12.8522 29.592 12.4706 29.3107 12.1893C29.0294 11.908 28.6478 11.75 28.25 11.75ZM14.75 13.25H28.25V19.1328L27.3059 18.1897C27.1666 18.0504 27.0013 17.9398 26.8193 17.8644C26.6373 17.789 26.4422 17.7502 26.2452 17.7502C26.0481 17.7502 25.8531 17.789 25.6711 17.8644C25.489 17.9398 25.3237 18.0504 25.1844 18.1897L23.3094 20.0647L19.1844 15.9397C18.9031 15.6586 18.5217 15.5007 18.1241 15.5007C17.7264 15.5007 17.345 15.6586 17.0638 15.9397L14.75 18.2534V13.25ZM25.25 26.75H11.75V16.25H13.25V23.75C13.25 24.1478 13.408 24.5294 13.6893 24.8107C13.9706 25.092 14.3522 25.25 14.75 25.25H25.25V26.75ZM28.25 23.75H14.75V20.375L18.125 17L22.7806 21.6556C22.9213 21.7962 23.112 21.8751 23.3108 21.8751C23.5096 21.8751 23.7003 21.7962 23.8409 21.6556L26.2466 19.25L28.25 21.2544V23.75ZM23 15.875C23 15.6525 23.066 15.435 23.1896 15.25C23.3132 15.065 23.4889 14.9208 23.6945 14.8356C23.9 14.7505 24.1262 14.7282 24.3445 14.7716C24.5627 14.815 24.7632 14.9222 24.9205 15.0795C25.0778 15.2368 25.185 15.4373 25.2284 15.6555C25.2718 15.8738 25.2495 16.1 25.1644 16.3055C25.0792 16.5111 24.935 16.6868 24.75 16.8104C24.565 16.934 24.3475 17 24.125 17C23.8266 17 23.5405 16.8815 23.3295 16.6705C23.1185 16.4595 23 16.1734 23 15.875Z" fill="#465762"/>
</svg>
