<svg width="40" height="40" viewBox="0 0 40 40" fill="none" xmlns="http://www.w3.org/2000/svg">
<rect width="40" height="40" rx="20" fill="#FF414B"/>
<rect width="40" height="40" rx="20" fill="white" fill-opacity="0.8"/>
<path d="M27.5057 25.25H22.2501C22.0512 25.25 21.8604 25.329 21.7198 25.4697C21.5791 25.6103 21.5001 25.8011 21.5001 26V27.125C21.5001 28.0207 21.8559 28.8798 22.4893 29.5131C23.1227 30.1465 23.9817 30.5023 24.8774 30.5023C25.7732 30.5023 26.6322 30.1465 27.2656 29.5131C27.8989 28.8798 28.2548 28.0207 28.2548 27.125V26C28.2548 25.8012 28.1759 25.6106 28.0354 25.47C27.895 25.3294 27.7045 25.2502 27.5057 25.25ZM26.7557 27.125C26.7557 27.6223 26.5582 28.0992 26.2065 28.4508C25.8549 28.8025 25.378 29 24.8807 29C24.3834 29 23.9065 28.8025 23.5549 28.4508C23.2032 28.0992 23.0057 27.6223 23.0057 27.125V26.75H26.7557V27.125ZM17.7501 23H12.5001C12.3012 23 12.1104 23.079 11.9698 23.2197C11.8291 23.3603 11.7501 23.5511 11.7501 23.75V24.875C11.7501 25.7701 12.1057 26.6285 12.7386 27.2615C13.3715 27.8944 14.23 28.25 15.1251 28.25C16.0202 28.25 16.8786 27.8944 17.5116 27.2615C18.1445 26.6285 18.5001 25.7701 18.5001 24.875V23.75C18.5001 23.5511 18.4211 23.3603 18.2804 23.2197C18.1398 23.079 17.949 23 17.7501 23ZM17.0001 24.875C17.0001 25.3723 16.8025 25.8492 16.4509 26.2008C16.0993 26.5525 15.6224 26.75 15.1251 26.75C14.6278 26.75 14.1509 26.5525 13.7993 26.2008C13.4476 25.8492 13.2501 25.3723 13.2501 24.875V24.5H17.0001V24.875ZM15.1251 9.5C14.0338 9.5 12.9754 10.4666 12.1438 12.2187C10.8379 14.9731 10.4038 19.0625 12.171 21.2187C12.2415 21.3048 12.3302 21.374 12.4307 21.4215C12.5312 21.469 12.6411 21.4936 12.7523 21.4934H17.4913C17.6025 21.4936 17.7124 21.469 17.8129 21.4215C17.9134 21.374 18.0021 21.3048 18.0726 21.2187C19.8398 19.0625 19.4057 14.9703 18.0998 12.2187C17.2673 10.4666 16.2098 9.5 15.1251 9.5ZM17.1079 20H13.1357C12.067 18.3031 12.4598 15.0594 13.5004 12.8647C14.107 11.5831 14.766 11 15.1251 11C15.4841 11 16.1395 11.5831 16.747 12.8647C17.7838 15.0594 18.1766 18.3031 17.1079 20ZM22.5088 23.75H27.2479C27.3591 23.7502 27.4689 23.7256 27.5694 23.6781C27.67 23.6306 27.7587 23.5613 27.8291 23.4753C29.5963 21.3191 29.1623 17.2269 27.8563 14.4753C27.0248 12.7166 25.9663 11.75 24.8751 11.75C23.7838 11.75 22.7291 12.7166 21.8966 14.4687C20.5907 17.2231 20.1566 21.3125 21.9238 23.4687C21.9943 23.5562 22.0833 23.6268 22.1845 23.6755C22.2858 23.7241 22.3965 23.7496 22.5088 23.75ZM23.2588 15.1147C23.8645 13.8331 24.5235 13.25 24.8751 13.25C25.2266 13.25 25.8895 13.8331 26.496 15.1147C27.5366 17.3094 27.9295 20.5522 26.8616 22.25H22.8923C21.8235 20.5531 22.2163 17.3094 23.257 15.1147H23.2588Z" fill="#FF414B"/>
</svg>
