<svg width="36" height="36" viewBox="0 0 36 36" fill="none" xmlns="http://www.w3.org/2000/svg">
<rect width="36" height="36" rx="18" fill="#FF414B"/>
<rect width="36" height="36" rx="18" fill="white" fill-opacity="0.8"/>
<path d="M24.25 10.5H22.375V9.875C22.375 9.70924 22.3092 9.55027 22.1919 9.43306C22.0747 9.31585 21.9158 9.25 21.75 9.25C21.5842 9.25 21.4253 9.31585 21.3081 9.43306C21.1908 9.55027 21.125 9.70924 21.125 9.875V10.5H14.875V9.875C14.875 9.70924 14.8092 9.55027 14.6919 9.43306C14.5747 9.31585 14.4158 9.25 14.25 9.25C14.0842 9.25 13.9253 9.31585 13.8081 9.43306C13.6908 9.55027 13.625 9.70924 13.625 9.875V10.5H11.75C11.4185 10.5 11.1005 10.6317 10.8661 10.8661C10.6317 11.1005 10.5 11.4185 10.5 11.75V24.25C10.5 24.5815 10.6317 24.8995 10.8661 25.1339C11.1005 25.3683 11.4185 25.5 11.75 25.5H24.25C24.5815 25.5 24.8995 25.3683 25.1339 25.1339C25.3683 24.8995 25.5 24.5815 25.5 24.25V11.75C25.5 11.4185 25.3683 11.1005 25.1339 10.8661C24.8995 10.6317 24.5815 10.5 24.25 10.5ZM13.625 11.75V12.375C13.625 12.5408 13.6908 12.6997 13.8081 12.8169C13.9253 12.9342 14.0842 13 14.25 13C14.4158 13 14.5747 12.9342 14.6919 12.8169C14.8092 12.6997 14.875 12.5408 14.875 12.375V11.75H21.125V12.375C21.125 12.5408 21.1908 12.6997 21.3081 12.8169C21.4253 12.9342 21.5842 13 21.75 13C21.9158 13 22.0747 12.9342 22.1919 12.8169C22.3092 12.6997 22.375 12.5408 22.375 12.375V11.75H24.25V14.25H11.75V11.75H13.625ZM24.25 24.25H11.75V15.5H24.25V24.25ZM20.3172 18.4422L18.8836 19.875L20.3172 21.3078C20.3753 21.3659 20.4213 21.4348 20.4527 21.5107C20.4842 21.5866 20.5003 21.6679 20.5003 21.75C20.5003 21.8321 20.4842 21.9134 20.4527 21.9893C20.4213 22.0652 20.3753 22.1341 20.3172 22.1922C20.2591 22.2503 20.1902 22.2963 20.1143 22.3277C20.0384 22.3592 19.9571 22.3753 19.875 22.3753C19.7929 22.3753 19.7116 22.3592 19.6357 22.3277C19.5598 22.2963 19.4909 22.2503 19.4328 22.1922L18 20.7586L16.5672 22.1922C16.5091 22.2503 16.4402 22.2963 16.3643 22.3277C16.2884 22.3592 16.2071 22.3753 16.125 22.3753C16.0429 22.3753 15.9616 22.3592 15.8857 22.3277C15.8098 22.2963 15.7409 22.2503 15.6828 22.1922C15.6247 22.1341 15.5787 22.0652 15.5473 21.9893C15.5158 21.9134 15.4997 21.8321 15.4997 21.75C15.4997 21.6679 15.5158 21.5866 15.5473 21.5107C15.5787 21.4348 15.6247 21.3659 15.6828 21.3078L17.1164 19.875L15.6828 18.4422C15.5655 18.3249 15.4997 18.1659 15.4997 18C15.4997 17.8341 15.5655 17.6751 15.6828 17.5578C15.8001 17.4405 15.9591 17.3747 16.125 17.3747C16.2909 17.3747 16.4499 17.4405 16.5672 17.5578L18 18.9914L19.4328 17.5578C19.4909 17.4997 19.5598 17.4537 19.6357 17.4223C19.7116 17.3908 19.7929 17.3747 19.875 17.3747C19.9571 17.3747 20.0384 17.3908 20.1143 17.4223C20.1902 17.4537 20.2591 17.4997 20.3172 17.5578C20.3753 17.6159 20.4213 17.6848 20.4527 17.7607C20.4842 17.8366 20.5003 17.9179 20.5003 18C20.5003 18.0821 20.4842 18.1634 20.4527 18.2393C20.4213 18.3152 20.3753 18.3841 20.3172 18.4422Z" fill="#FF414B"/>
</svg>
