<svg width="18" height="18" viewBox="0 0 18 18" fill="none" xmlns="http://www.w3.org/2000/svg">
<rect width="18" height="18" rx="3" fill="#5655D7"/>
<path d="M11.5153 9.26534L7.76531 13.0153C7.73047 13.0502 7.6891 13.0778 7.64358 13.0967C7.59806 13.1155 7.54927 13.1252 7.49999 13.1252C7.45072 13.1252 7.40193 13.1155 7.35641 13.0967C7.31089 13.0778 7.26952 13.0502 7.23468 13.0153C7.19984 12.9805 7.1722 12.9391 7.15335 12.8936C7.13449 12.8481 7.12479 12.7993 7.12479 12.75C7.12479 12.7008 7.13449 12.652 7.15335 12.6064C7.1722 12.5609 7.19984 12.5196 7.23468 12.4847L10.7198 9.00003L7.23468 5.51534C7.16432 5.44497 7.12479 5.34954 7.12479 5.25003C7.12479 5.15051 7.16432 5.05508 7.23468 4.98471C7.30505 4.91435 7.40048 4.87482 7.49999 4.87482C7.59951 4.87482 7.69494 4.91435 7.76531 4.98471L11.5153 8.73471C11.5502 8.76954 11.5778 8.8109 11.5967 8.85642C11.6156 8.90195 11.6253 8.95074 11.6253 9.00003C11.6253 9.04931 11.6156 9.0981 11.5967 9.14363C11.5778 9.18915 11.5502 9.23051 11.5153 9.26534Z" fill="white"/>
</svg>
