<svg width="18" height="18" viewBox="0 0 18 18" fill="none" xmlns="http://www.w3.org/2000/svg">
<rect width="18" height="18" rx="3" fill="#F4F4F4"/>
<path d="M11.5153 9.26528L7.76531 13.0153C7.73047 13.0501 7.6891 13.0778 7.64358 13.0966C7.59806 13.1155 7.54927 13.1252 7.49999 13.1252C7.45072 13.1252 7.40193 13.1155 7.35641 13.0966C7.31089 13.0778 7.26952 13.0501 7.23468 13.0153C7.19984 12.9804 7.1722 12.9391 7.15335 12.8936C7.13449 12.848 7.12479 12.7992 7.12479 12.75C7.12479 12.7007 7.13449 12.6519 7.15335 12.6064C7.1722 12.5609 7.19984 12.5195 7.23468 12.4847L10.7198 8.99996L7.23468 5.51528C7.16432 5.44491 7.12479 5.34948 7.12479 5.24996C7.12479 5.15045 7.16432 5.05502 7.23468 4.98465C7.30505 4.91429 7.40048 4.87476 7.49999 4.87476C7.59951 4.87476 7.69494 4.91429 7.76531 4.98465L11.5153 8.73465C11.5502 8.76948 11.5778 8.81084 11.5967 8.85636C11.6156 8.90189 11.6253 8.95068 11.6253 8.99996C11.6253 9.04925 11.6156 9.09804 11.5967 9.14357C11.5778 9.18909 11.5502 9.23045 11.5153 9.26528Z" fill="#4D5154"/>
</svg>
