<svg width="22" height="22" viewBox="0 0 22 22" fill="none" xmlns="http://www.w3.org/2000/svg">
<path d="M11.6875 10.3125V15.125C11.6875 15.3073 11.615 15.4822 11.4861 15.6111C11.3572 15.7401 11.1823 15.8125 11 15.8125C10.8176 15.8125 10.6428 15.7401 10.5138 15.6111C10.3849 15.4822 10.3125 15.3073 10.3125 15.125V10.3125C10.3125 10.1301 10.3849 9.95528 10.5138 9.82635C10.6428 9.69742 10.8176 9.62498 11 9.62498C11.1823 9.62498 11.3572 9.69742 11.4861 9.82635C11.615 9.95528 11.6875 10.1301 11.6875 10.3125ZM20.6129 8.43131L19.4219 17.3697C19.3777 17.7 19.2151 18.0031 18.9642 18.2225C18.7133 18.4419 18.3913 18.5627 18.058 18.5625H3.94193C3.60865 18.5627 3.28663 18.4419 3.03576 18.2225C2.7849 18.0031 2.62226 17.7 2.5781 17.3697L1.38615 8.43217C1.36017 8.23786 1.37605 8.04025 1.4327 7.85258C1.48936 7.66491 1.5855 7.49153 1.71466 7.34405C1.84381 7.19658 2.00301 7.07843 2.18158 6.99753C2.36014 6.91663 2.55394 6.87485 2.74998 6.87498H5.87552L10.4844 1.60959C10.5489 1.53644 10.6282 1.47785 10.7171 1.43772C10.806 1.39759 10.9024 1.37683 11 1.37683C11.0975 1.37683 11.1939 1.39759 11.2828 1.43772C11.3717 1.47785 11.4511 1.53644 11.5156 1.60959L16.1244 6.87498H19.25C19.4458 6.87511 19.6393 6.91705 19.8176 6.99801C19.9959 7.07897 20.1548 7.19707 20.2838 7.34442C20.4127 7.49176 20.5087 7.66495 20.5654 7.8524C20.622 8.03984 20.6379 8.23721 20.6121 8.43131H20.6129ZM7.70255 6.87498H14.2974L11 3.10662L7.70255 6.87498ZM19.25 8.24998H2.74998L3.94193 17.1875H18.058L19.25 8.24998ZM14.8534 10.2437L14.3722 15.0562C14.3627 15.1463 14.371 15.2374 14.3969 15.3243C14.4227 15.4111 14.4654 15.492 14.5226 15.5623C14.5798 15.6326 14.6503 15.6909 14.7301 15.7338C14.8098 15.7767 14.8973 15.8035 14.9875 15.8125C15.0107 15.8137 15.0339 15.8137 15.0571 15.8125C15.2274 15.8123 15.3915 15.7489 15.5177 15.6346C15.644 15.5203 15.7233 15.3632 15.7403 15.1937L16.2215 10.3812C16.2398 10.1998 16.1852 10.0186 16.0698 9.87739C15.9544 9.73621 15.7877 9.64665 15.6062 9.62842C15.4248 9.61019 15.2436 9.66477 15.1024 9.78016C14.9612 9.89556 14.8716 10.0623 14.8534 10.2437ZM7.14654 10.2437C7.1283 10.0623 7.03875 9.89556 6.89757 9.78016C6.75639 9.66477 6.57515 9.61019 6.39373 9.62842C6.2123 9.64665 6.04555 9.73621 5.93016 9.87739C5.81476 10.0186 5.76018 10.1998 5.77841 10.3812L6.25966 15.1937C6.27676 15.3639 6.35668 15.5216 6.4838 15.636C6.61093 15.7504 6.77614 15.8133 6.94716 15.8125C6.97035 15.8137 6.99359 15.8137 7.01677 15.8125C7.10661 15.8035 7.19378 15.7768 7.27332 15.7341C7.35286 15.6914 7.42321 15.6334 7.48034 15.5635C7.53748 15.4936 7.58029 15.4131 7.60633 15.3267C7.63236 15.2402 7.64111 15.1495 7.63208 15.0597L7.14654 10.2437Z" fill="#00997E"/>
</svg>
