<svg width="335" height="254" viewBox="0 0 335 254" fill="none" xmlns="http://www.w3.org/2000/svg">
<rect y="22" width="22" height="203" rx="4" fill="#5655D7"/>
<rect x="27" y="110" width="21" height="115" rx="4" fill="#FFAE41"/>
<rect x="27" y="110" width="21" height="115" rx="4" fill="white" fill-opacity="0.4"/>
<path d="M17.97 251.12C17.73 251.12 17.5067 251.083 17.3 251.01C17.1 250.943 16.92 250.853 16.76 250.74C16.6 250.62 16.4633 250.487 16.35 250.34C16.2367 250.187 16.1433 250.03 16.07 249.87L16.71 249.5C16.85 249.747 17.02 249.95 17.22 250.11C17.4267 250.27 17.68 250.35 17.98 250.35C18.22 250.35 18.4533 250.293 18.68 250.18C18.9133 250.067 19.1033 249.877 19.25 249.61C19.3967 249.343 19.47 248.993 19.47 248.56V244H20.31V248.89C20.31 249.257 20.2433 249.58 20.11 249.86C19.9833 250.14 19.8067 250.373 19.58 250.56C19.36 250.747 19.11 250.887 18.83 250.98C18.55 251.073 18.2633 251.12 17.97 251.12ZM24.9265 251L24.8765 250.18V248.36C24.8765 247.967 24.8298 247.643 24.7365 247.39C24.6498 247.13 24.5132 246.937 24.3265 246.81C24.1465 246.677 23.9065 246.61 23.6065 246.61C23.3198 246.61 23.0698 246.667 22.8565 246.78C22.6498 246.893 22.4798 247.07 22.3465 247.31L21.6265 247.02C21.7598 246.787 21.9198 246.583 22.1065 246.41C22.2932 246.237 22.5098 246.107 22.7565 246.02C23.0098 245.927 23.2965 245.88 23.6165 245.88C24.0765 245.88 24.4598 245.97 24.7665 246.15C25.0732 246.33 25.3032 246.6 25.4565 246.96C25.6098 247.313 25.6832 247.757 25.6765 248.29L25.6665 251H24.9265ZM23.4265 251.12C22.8398 251.12 22.3798 250.987 22.0465 250.72C21.7198 250.447 21.5565 250.07 21.5565 249.59C21.5565 249.083 21.7232 248.697 22.0565 248.43C22.3965 248.157 22.8698 248.02 23.4765 248.02H24.9065V248.69H23.6565C23.1898 248.69 22.8565 248.767 22.6565 248.92C22.4632 249.073 22.3665 249.293 22.3665 249.58C22.3665 249.84 22.4632 250.047 22.6565 250.2C22.8498 250.347 23.1198 250.42 23.4665 250.42C23.7532 250.42 24.0032 250.353 24.2165 250.22C24.4298 250.087 24.5932 249.907 24.7065 249.68C24.8198 249.447 24.8765 249.183 24.8765 248.89H25.3665C25.3665 249.57 25.1998 250.113 24.8665 250.52C24.5332 250.92 24.0532 251.12 23.4265 251.12ZM26.9441 251V246H27.6941L27.7441 246.92V251H26.9441ZM30.4541 251V248.44L31.2541 248.14V251H30.4541ZM30.4541 248.44C30.4541 247.947 30.3975 247.57 30.2841 247.31C30.1708 247.05 30.0141 246.873 29.8141 246.78C29.6141 246.68 29.3875 246.63 29.1341 246.63C28.6941 246.63 28.3508 246.787 28.1041 247.1C27.8641 247.407 27.7441 247.843 27.7441 248.41H27.3541C27.3541 247.883 27.4308 247.43 27.5841 247.05C27.7375 246.67 27.9575 246.38 28.2441 246.18C28.5375 245.98 28.8908 245.88 29.3041 245.88C29.9108 245.88 30.3875 246.067 30.7341 246.44C31.0875 246.813 31.2608 247.38 31.2541 248.14L30.4541 248.44Z" fill="#465762"/>
<path d="M17.97 251.12C17.73 251.12 17.5067 251.083 17.3 251.01C17.1 250.943 16.92 250.853 16.76 250.74C16.6 250.62 16.4633 250.487 16.35 250.34C16.2367 250.187 16.1433 250.03 16.07 249.87L16.71 249.5C16.85 249.747 17.02 249.95 17.22 250.11C17.4267 250.27 17.68 250.35 17.98 250.35C18.22 250.35 18.4533 250.293 18.68 250.18C18.9133 250.067 19.1033 249.877 19.25 249.61C19.3967 249.343 19.47 248.993 19.47 248.56V244H20.31V248.89C20.31 249.257 20.2433 249.58 20.11 249.86C19.9833 250.14 19.8067 250.373 19.58 250.56C19.36 250.747 19.11 250.887 18.83 250.98C18.55 251.073 18.2633 251.12 17.97 251.12ZM24.9265 251L24.8765 250.18V248.36C24.8765 247.967 24.8298 247.643 24.7365 247.39C24.6498 247.13 24.5132 246.937 24.3265 246.81C24.1465 246.677 23.9065 246.61 23.6065 246.61C23.3198 246.61 23.0698 246.667 22.8565 246.78C22.6498 246.893 22.4798 247.07 22.3465 247.31L21.6265 247.02C21.7598 246.787 21.9198 246.583 22.1065 246.41C22.2932 246.237 22.5098 246.107 22.7565 246.02C23.0098 245.927 23.2965 245.88 23.6165 245.88C24.0765 245.88 24.4598 245.97 24.7665 246.15C25.0732 246.33 25.3032 246.6 25.4565 246.96C25.6098 247.313 25.6832 247.757 25.6765 248.29L25.6665 251H24.9265ZM23.4265 251.12C22.8398 251.12 22.3798 250.987 22.0465 250.72C21.7198 250.447 21.5565 250.07 21.5565 249.59C21.5565 249.083 21.7232 248.697 22.0565 248.43C22.3965 248.157 22.8698 248.02 23.4765 248.02H24.9065V248.69H23.6565C23.1898 248.69 22.8565 248.767 22.6565 248.92C22.4632 249.073 22.3665 249.293 22.3665 249.58C22.3665 249.84 22.4632 250.047 22.6565 250.2C22.8498 250.347 23.1198 250.42 23.4665 250.42C23.7532 250.42 24.0032 250.353 24.2165 250.22C24.4298 250.087 24.5932 249.907 24.7065 249.68C24.8198 249.447 24.8765 249.183 24.8765 248.89H25.3665C25.3665 249.57 25.1998 250.113 24.8665 250.52C24.5332 250.92 24.0532 251.12 23.4265 251.12ZM26.9441 251V246H27.6941L27.7441 246.92V251H26.9441ZM30.4541 251V248.44L31.2541 248.14V251H30.4541ZM30.4541 248.44C30.4541 247.947 30.3975 247.57 30.2841 247.31C30.1708 247.05 30.0141 246.873 29.8141 246.78C29.6141 246.68 29.3875 246.63 29.1341 246.63C28.6941 246.63 28.3508 246.787 28.1041 247.1C27.8641 247.407 27.7441 247.843 27.7441 248.41H27.3541C27.3541 247.883 27.4308 247.43 27.5841 247.05C27.7375 246.67 27.9575 246.38 28.2441 246.18C28.5375 245.98 28.8908 245.88 29.3041 245.88C29.9108 245.88 30.3875 246.067 30.7341 246.44C31.0875 246.813 31.2608 247.38 31.2541 248.14L30.4541 248.44Z" fill="white" fill-opacity="0.4"/>
<rect x="57.4" y="59" width="21" height="166" rx="4" fill="#5655D7"/>
<rect x="83.4" y="48" width="22" height="177" rx="4" fill="#FFAE41"/>
<rect x="83.4" y="48" width="22" height="177" rx="4" fill="white" fill-opacity="0.4"/>
<path d="M73.83 251V244H74.68V251H73.83ZM74.6 247.93V247.16H77.6V247.93H74.6ZM74.6 244.77V244H77.99V244.77H74.6ZM81.1611 251.12C80.6744 251.12 80.2444 251.01 79.8711 250.79C79.4978 250.563 79.2044 250.253 78.9911 249.86C78.7844 249.467 78.6811 249.013 78.6811 248.5C78.6811 247.987 78.7844 247.533 78.9911 247.14C79.2044 246.747 79.4944 246.44 79.8611 246.22C80.2344 245.993 80.6611 245.88 81.1411 245.88C81.6011 245.88 82.0011 245.997 82.3411 246.23C82.6878 246.457 82.9544 246.777 83.1411 247.19C83.3278 247.603 83.4211 248.09 83.4211 248.65H82.6211C82.6211 248.223 82.5644 247.86 82.4511 247.56C82.3378 247.253 82.1678 247.017 81.9411 246.85C81.7211 246.683 81.4511 246.6 81.1311 246.6C80.8044 246.6 80.5144 246.68 80.2611 246.84C80.0144 246.993 79.8244 247.213 79.6911 247.5C79.5578 247.787 79.4911 248.123 79.4911 248.51C79.4911 248.89 79.5644 249.22 79.7111 249.5C79.8578 249.773 80.0611 249.99 80.3211 250.15C80.5811 250.303 80.8744 250.38 81.2011 250.38C81.5478 250.38 81.8411 250.297 82.0811 250.13C82.3211 249.963 82.5111 249.747 82.6511 249.48L83.3511 249.83C83.2244 250.09 83.0544 250.317 82.8411 250.51C82.6344 250.703 82.3878 250.853 82.1011 250.96C81.8211 251.067 81.5078 251.12 81.1611 251.12ZM79.2111 248.65L79.2211 247.96H82.9311V248.65H79.2111ZM84.4301 251V244H85.2301V250.07L85.1901 251H84.4301ZM86.9201 251.12C86.5001 251.12 86.1301 251.01 85.8101 250.79C85.4967 250.57 85.2534 250.263 85.0801 249.87C84.9067 249.47 84.8201 249.013 84.8201 248.5C84.8201 247.98 84.9067 247.523 85.0801 247.13C85.2534 246.737 85.4967 246.43 85.8101 246.21C86.1301 245.99 86.5001 245.88 86.9201 245.88C87.3667 245.88 87.7601 245.99 88.1001 246.21C88.4401 246.43 88.7034 246.737 88.8901 247.13C89.0834 247.523 89.1801 247.98 89.1801 248.5C89.1801 249.013 89.0834 249.47 88.8901 249.87C88.7034 250.263 88.4401 250.57 88.1001 250.79C87.7601 251.01 87.3667 251.12 86.9201 251.12ZM86.7401 250.39C87.0534 250.39 87.3301 250.31 87.5701 250.15C87.8167 249.99 88.0101 249.767 88.1501 249.48C88.2967 249.193 88.3701 248.867 88.3701 248.5C88.3701 248.133 88.3001 247.807 88.1601 247.52C88.0267 247.233 87.8367 247.01 87.5901 246.85C87.3434 246.69 87.0634 246.61 86.7501 246.61C86.4567 246.61 86.1934 246.69 85.9601 246.85C85.7334 247.01 85.5534 247.233 85.4201 247.52C85.2934 247.807 85.2301 248.133 85.2301 248.5C85.2301 248.867 85.2934 249.193 85.4201 249.48C85.5534 249.767 85.7334 249.99 85.9601 250.15C86.1867 250.31 86.4467 250.39 86.7401 250.39Z" fill="#465762"/>
<path d="M73.83 251V244H74.68V251H73.83ZM74.6 247.93V247.16H77.6V247.93H74.6ZM74.6 244.77V244H77.99V244.77H74.6ZM81.1611 251.12C80.6744 251.12 80.2444 251.01 79.8711 250.79C79.4978 250.563 79.2044 250.253 78.9911 249.86C78.7844 249.467 78.6811 249.013 78.6811 248.5C78.6811 247.987 78.7844 247.533 78.9911 247.14C79.2044 246.747 79.4944 246.44 79.8611 246.22C80.2344 245.993 80.6611 245.88 81.1411 245.88C81.6011 245.88 82.0011 245.997 82.3411 246.23C82.6878 246.457 82.9544 246.777 83.1411 247.19C83.3278 247.603 83.4211 248.09 83.4211 248.65H82.6211C82.6211 248.223 82.5644 247.86 82.4511 247.56C82.3378 247.253 82.1678 247.017 81.9411 246.85C81.7211 246.683 81.4511 246.6 81.1311 246.6C80.8044 246.6 80.5144 246.68 80.2611 246.84C80.0144 246.993 79.8244 247.213 79.6911 247.5C79.5578 247.787 79.4911 248.123 79.4911 248.51C79.4911 248.89 79.5644 249.22 79.7111 249.5C79.8578 249.773 80.0611 249.99 80.3211 250.15C80.5811 250.303 80.8744 250.38 81.2011 250.38C81.5478 250.38 81.8411 250.297 82.0811 250.13C82.3211 249.963 82.5111 249.747 82.6511 249.48L83.3511 249.83C83.2244 250.09 83.0544 250.317 82.8411 250.51C82.6344 250.703 82.3878 250.853 82.1011 250.96C81.8211 251.067 81.5078 251.12 81.1611 251.12ZM79.2111 248.65L79.2211 247.96H82.9311V248.65H79.2111ZM84.4301 251V244H85.2301V250.07L85.1901 251H84.4301ZM86.9201 251.12C86.5001 251.12 86.1301 251.01 85.8101 250.79C85.4967 250.57 85.2534 250.263 85.0801 249.87C84.9067 249.47 84.8201 249.013 84.8201 248.5C84.8201 247.98 84.9067 247.523 85.0801 247.13C85.2534 246.737 85.4967 246.43 85.8101 246.21C86.1301 245.99 86.5001 245.88 86.9201 245.88C87.3667 245.88 87.7601 245.99 88.1001 246.21C88.4401 246.43 88.7034 246.737 88.8901 247.13C89.0834 247.523 89.1801 247.98 89.1801 248.5C89.1801 249.013 89.0834 249.47 88.8901 249.87C88.7034 250.263 88.4401 250.57 88.1001 250.79C87.7601 251.01 87.3667 251.12 86.9201 251.12ZM86.7401 250.39C87.0534 250.39 87.3301 250.31 87.5701 250.15C87.8167 249.99 88.0101 249.767 88.1501 249.48C88.2967 249.193 88.3701 248.867 88.3701 248.5C88.3701 248.133 88.3001 247.807 88.1601 247.52C88.0267 247.233 87.8367 247.01 87.5901 246.85C87.3434 246.69 87.0634 246.61 86.7501 246.61C86.4567 246.61 86.1934 246.69 85.9601 246.85C85.7334 247.01 85.5534 247.233 85.4201 247.52C85.2934 247.807 85.2301 248.133 85.2301 248.5C85.2301 248.867 85.2934 249.193 85.4201 249.48C85.5534 249.767 85.7334 249.99 85.9601 250.15C86.1867 250.31 86.4467 250.39 86.7401 250.39Z" fill="white" fill-opacity="0.4"/>
<rect x="114.8" y="34" width="22" height="191" rx="4" fill="#5655D7"/>
<rect x="141.8" y="83" width="21" height="142" rx="4" fill="#FFAE41"/>
<rect x="141.8" y="83" width="21" height="142" rx="4" fill="white" fill-opacity="0.4"/>
<path d="M134.53 249.01L131.37 244.34L131.71 244.16L132.11 244L134.94 248.19L134.53 249.01ZM131.23 251V244H132.08V251H131.23ZM134.53 249.01L134.12 248.19L136.95 244L137.35 244.16L137.68 244.33L134.53 249.01ZM136.98 251V244H137.82V251H136.98ZM142.537 251L142.487 250.18V248.36C142.487 247.967 142.44 247.643 142.347 247.39C142.26 247.13 142.124 246.937 141.937 246.81C141.757 246.677 141.517 246.61 141.217 246.61C140.93 246.61 140.68 246.667 140.467 246.78C140.26 246.893 140.09 247.07 139.957 247.31L139.237 247.02C139.37 246.787 139.53 246.583 139.717 246.41C139.904 246.237 140.12 246.107 140.367 246.02C140.62 245.927 140.907 245.88 141.227 245.88C141.687 245.88 142.07 245.97 142.377 246.15C142.684 246.33 142.914 246.6 143.067 246.96C143.22 247.313 143.294 247.757 143.287 248.29L143.277 251H142.537ZM141.037 251.12C140.45 251.12 139.99 250.987 139.657 250.72C139.33 250.447 139.167 250.07 139.167 249.59C139.167 249.083 139.334 248.697 139.667 248.43C140.007 248.157 140.48 248.02 141.087 248.02H142.517V248.69H141.267C140.8 248.69 140.467 248.767 140.267 248.92C140.074 249.073 139.977 249.293 139.977 249.58C139.977 249.84 140.074 250.047 140.267 250.2C140.46 250.347 140.73 250.42 141.077 250.42C141.364 250.42 141.614 250.353 141.827 250.22C142.04 250.087 142.204 249.907 142.317 249.68C142.43 249.447 142.487 249.183 142.487 248.89H142.977C142.977 249.57 142.81 250.113 142.477 250.52C142.144 250.92 141.664 251.12 141.037 251.12ZM144.995 248.29C144.995 247.75 145.098 247.313 145.305 246.98C145.511 246.64 145.775 246.39 146.095 246.23C146.421 246.063 146.765 245.98 147.125 245.98V246.73C146.831 246.73 146.548 246.78 146.275 246.88C146.008 246.973 145.788 247.13 145.615 247.35C145.441 247.57 145.355 247.87 145.355 248.25L144.995 248.29ZM144.555 251V246H145.355V251H144.555Z" fill="#465762"/>
<path d="M134.53 249.01L131.37 244.34L131.71 244.16L132.11 244L134.94 248.19L134.53 249.01ZM131.23 251V244H132.08V251H131.23ZM134.53 249.01L134.12 248.19L136.95 244L137.35 244.16L137.68 244.33L134.53 249.01ZM136.98 251V244H137.82V251H136.98ZM142.537 251L142.487 250.18V248.36C142.487 247.967 142.44 247.643 142.347 247.39C142.26 247.13 142.124 246.937 141.937 246.81C141.757 246.677 141.517 246.61 141.217 246.61C140.93 246.61 140.68 246.667 140.467 246.78C140.26 246.893 140.09 247.07 139.957 247.31L139.237 247.02C139.37 246.787 139.53 246.583 139.717 246.41C139.904 246.237 140.12 246.107 140.367 246.02C140.62 245.927 140.907 245.88 141.227 245.88C141.687 245.88 142.07 245.97 142.377 246.15C142.684 246.33 142.914 246.6 143.067 246.96C143.22 247.313 143.294 247.757 143.287 248.29L143.277 251H142.537ZM141.037 251.12C140.45 251.12 139.99 250.987 139.657 250.72C139.33 250.447 139.167 250.07 139.167 249.59C139.167 249.083 139.334 248.697 139.667 248.43C140.007 248.157 140.48 248.02 141.087 248.02H142.517V248.69H141.267C140.8 248.69 140.467 248.767 140.267 248.92C140.074 249.073 139.977 249.293 139.977 249.58C139.977 249.84 140.074 250.047 140.267 250.2C140.46 250.347 140.73 250.42 141.077 250.42C141.364 250.42 141.614 250.353 141.827 250.22C142.04 250.087 142.204 249.907 142.317 249.68C142.43 249.447 142.487 249.183 142.487 248.89H142.977C142.977 249.57 142.81 250.113 142.477 250.52C142.144 250.92 141.664 251.12 141.037 251.12ZM144.995 248.29C144.995 247.75 145.098 247.313 145.305 246.98C145.511 246.64 145.775 246.39 146.095 246.23C146.421 246.063 146.765 245.98 147.125 245.98V246.73C146.831 246.73 146.548 246.78 146.275 246.88C146.008 246.973 145.788 247.13 145.615 247.35C145.441 247.57 145.355 247.87 145.355 248.25L144.995 248.29ZM144.555 251V246H145.355V251H144.555Z" fill="white" fill-opacity="0.4"/>
<rect x="172.2" y="10" width="21" height="215" rx="4" fill="#5655D7"/>
<rect x="198.2" y="153" width="22" height="72" rx="4" fill="#FFAE41"/>
<rect x="198.2" y="153" width="22" height="72" rx="4" fill="white" fill-opacity="0.4"/>
<path d="M193.48 251L190.67 244H191.52L194.37 251H193.48ZM187.79 251L190.64 244H191.5L188.69 251H187.79ZM189.14 249.01V248.25H193.03V249.01H189.14ZM195.218 253V246H195.968L196.018 246.92V253H195.218ZM197.708 251.12C197.288 251.12 196.918 251.01 196.598 250.79C196.284 250.57 196.041 250.263 195.868 249.87C195.694 249.47 195.608 249.013 195.608 248.5C195.608 247.98 195.694 247.523 195.868 247.13C196.041 246.737 196.284 246.43 196.598 246.21C196.918 245.99 197.288 245.88 197.708 245.88C198.154 245.88 198.548 245.99 198.888 246.21C199.228 246.43 199.491 246.737 199.678 247.13C199.871 247.523 199.968 247.98 199.968 248.5C199.968 249.013 199.871 249.47 199.678 249.87C199.491 250.263 199.228 250.57 198.888 250.79C198.548 251.01 198.154 251.12 197.708 251.12ZM197.528 250.39C197.841 250.39 198.118 250.31 198.358 250.15C198.604 249.99 198.798 249.767 198.938 249.48C199.084 249.193 199.158 248.867 199.158 248.5C199.158 248.133 199.088 247.807 198.948 247.52C198.814 247.233 198.624 247.01 198.378 246.85C198.131 246.69 197.851 246.61 197.538 246.61C197.244 246.61 196.981 246.69 196.748 246.85C196.521 247.01 196.341 247.233 196.208 247.52C196.081 247.807 196.018 248.133 196.018 248.5C196.018 248.867 196.081 249.193 196.208 249.48C196.341 249.767 196.521 249.99 196.748 250.15C196.974 250.31 197.234 250.39 197.528 250.39ZM201.516 248.29C201.516 247.75 201.619 247.313 201.826 246.98C202.032 246.64 202.296 246.39 202.616 246.23C202.942 246.063 203.286 245.98 203.646 245.98V246.73C203.352 246.73 203.069 246.78 202.796 246.88C202.529 246.973 202.309 247.13 202.136 247.35C201.962 247.57 201.876 247.87 201.876 248.25L201.516 248.29ZM201.076 251V246H201.876V251H201.076Z" fill="#465762"/>
<path d="M193.48 251L190.67 244H191.52L194.37 251H193.48ZM187.79 251L190.64 244H191.5L188.69 251H187.79ZM189.14 249.01V248.25H193.03V249.01H189.14ZM195.218 253V246H195.968L196.018 246.92V253H195.218ZM197.708 251.12C197.288 251.12 196.918 251.01 196.598 250.79C196.284 250.57 196.041 250.263 195.868 249.87C195.694 249.47 195.608 249.013 195.608 248.5C195.608 247.98 195.694 247.523 195.868 247.13C196.041 246.737 196.284 246.43 196.598 246.21C196.918 245.99 197.288 245.88 197.708 245.88C198.154 245.88 198.548 245.99 198.888 246.21C199.228 246.43 199.491 246.737 199.678 247.13C199.871 247.523 199.968 247.98 199.968 248.5C199.968 249.013 199.871 249.47 199.678 249.87C199.491 250.263 199.228 250.57 198.888 250.79C198.548 251.01 198.154 251.12 197.708 251.12ZM197.528 250.39C197.841 250.39 198.118 250.31 198.358 250.15C198.604 249.99 198.798 249.767 198.938 249.48C199.084 249.193 199.158 248.867 199.158 248.5C199.158 248.133 199.088 247.807 198.948 247.52C198.814 247.233 198.624 247.01 198.378 246.85C198.131 246.69 197.851 246.61 197.538 246.61C197.244 246.61 196.981 246.69 196.748 246.85C196.521 247.01 196.341 247.233 196.208 247.52C196.081 247.807 196.018 248.133 196.018 248.5C196.018 248.867 196.081 249.193 196.208 249.48C196.341 249.767 196.521 249.99 196.748 250.15C196.974 250.31 197.234 250.39 197.528 250.39ZM201.516 248.29C201.516 247.75 201.619 247.313 201.826 246.98C202.032 246.64 202.296 246.39 202.616 246.23C202.942 246.063 203.286 245.98 203.646 245.98V246.73C203.352 246.73 203.069 246.78 202.796 246.88C202.529 246.973 202.309 247.13 202.136 247.35C201.962 247.57 201.876 247.87 201.876 248.25L201.516 248.29ZM201.076 251V246H201.876V251H201.076Z" fill="white" fill-opacity="0.4"/>
<rect x="229.6" y="30" width="22" height="195" rx="4" fill="#5655D7"/>
<rect x="256.6" y="121" width="21" height="104" rx="4" fill="#FFAE41"/>
<rect x="256.6" y="121" width="21" height="104" rx="4" fill="white" fill-opacity="0.4"/>
<path d="M248.33 249.01L245.17 244.34L245.51 244.16L245.91 244L248.74 248.19L248.33 249.01ZM245.03 251V244H245.88V251H245.03ZM248.33 249.01L247.92 248.19L250.75 244L251.15 244.16L251.48 244.33L248.33 249.01ZM250.78 251V244H251.62V251H250.78ZM256.337 251L256.287 250.18V248.36C256.287 247.967 256.24 247.643 256.147 247.39C256.06 247.13 255.924 246.937 255.737 246.81C255.557 246.677 255.317 246.61 255.017 246.61C254.73 246.61 254.48 246.667 254.267 246.78C254.06 246.893 253.89 247.07 253.757 247.31L253.037 247.02C253.17 246.787 253.33 246.583 253.517 246.41C253.704 246.237 253.92 246.107 254.167 246.02C254.42 245.927 254.707 245.88 255.027 245.88C255.487 245.88 255.87 245.97 256.177 246.15C256.484 246.33 256.714 246.6 256.867 246.96C257.02 247.313 257.094 247.757 257.087 248.29L257.077 251H256.337ZM254.837 251.12C254.25 251.12 253.79 250.987 253.457 250.72C253.13 250.447 252.967 250.07 252.967 249.59C252.967 249.083 253.134 248.697 253.467 248.43C253.807 248.157 254.28 248.02 254.887 248.02H256.317V248.69H255.067C254.6 248.69 254.267 248.767 254.067 248.92C253.874 249.073 253.777 249.293 253.777 249.58C253.777 249.84 253.874 250.047 254.067 250.2C254.26 250.347 254.53 250.42 254.877 250.42C255.164 250.42 255.414 250.353 255.627 250.22C255.84 250.087 256.004 249.907 256.117 249.68C256.23 249.447 256.287 249.183 256.287 248.89H256.777C256.777 249.57 256.61 250.113 256.277 250.52C255.944 250.92 255.464 251.12 254.837 251.12ZM258.727 253.12C258.6 253.12 258.453 253.093 258.287 253.04C258.12 252.993 257.943 252.93 257.757 252.85L258.057 252.18C258.21 252.247 258.343 252.297 258.457 252.33C258.577 252.363 258.67 252.38 258.737 252.38C258.917 252.38 259.063 252.33 259.177 252.23C259.297 252.137 259.397 252 259.477 251.82L260.047 250.46L261.897 246H262.757L260.357 251.7C260.23 251.993 260.097 252.247 259.957 252.46C259.823 252.673 259.66 252.837 259.467 252.95C259.273 253.063 259.027 253.12 258.727 253.12ZM259.827 251L257.667 246H258.517L260.377 250.45L260.617 251H259.827Z" fill="#465762"/>
<path d="M248.33 249.01L245.17 244.34L245.51 244.16L245.91 244L248.74 248.19L248.33 249.01ZM245.03 251V244H245.88V251H245.03ZM248.33 249.01L247.92 248.19L250.75 244L251.15 244.16L251.48 244.33L248.33 249.01ZM250.78 251V244H251.62V251H250.78ZM256.337 251L256.287 250.18V248.36C256.287 247.967 256.24 247.643 256.147 247.39C256.06 247.13 255.924 246.937 255.737 246.81C255.557 246.677 255.317 246.61 255.017 246.61C254.73 246.61 254.48 246.667 254.267 246.78C254.06 246.893 253.89 247.07 253.757 247.31L253.037 247.02C253.17 246.787 253.33 246.583 253.517 246.41C253.704 246.237 253.92 246.107 254.167 246.02C254.42 245.927 254.707 245.88 255.027 245.88C255.487 245.88 255.87 245.97 256.177 246.15C256.484 246.33 256.714 246.6 256.867 246.96C257.02 247.313 257.094 247.757 257.087 248.29L257.077 251H256.337ZM254.837 251.12C254.25 251.12 253.79 250.987 253.457 250.72C253.13 250.447 252.967 250.07 252.967 249.59C252.967 249.083 253.134 248.697 253.467 248.43C253.807 248.157 254.28 248.02 254.887 248.02H256.317V248.69H255.067C254.6 248.69 254.267 248.767 254.067 248.92C253.874 249.073 253.777 249.293 253.777 249.58C253.777 249.84 253.874 250.047 254.067 250.2C254.26 250.347 254.53 250.42 254.877 250.42C255.164 250.42 255.414 250.353 255.627 250.22C255.84 250.087 256.004 249.907 256.117 249.68C256.23 249.447 256.287 249.183 256.287 248.89H256.777C256.777 249.57 256.61 250.113 256.277 250.52C255.944 250.92 255.464 251.12 254.837 251.12ZM258.727 253.12C258.6 253.12 258.453 253.093 258.287 253.04C258.12 252.993 257.943 252.93 257.757 252.85L258.057 252.18C258.21 252.247 258.343 252.297 258.457 252.33C258.577 252.363 258.67 252.38 258.737 252.38C258.917 252.38 259.063 252.33 259.177 252.23C259.297 252.137 259.397 252 259.477 251.82L260.047 250.46L261.897 246H262.757L260.357 251.7C260.23 251.993 260.097 252.247 259.957 252.46C259.823 252.673 259.66 252.837 259.467 252.95C259.273 253.063 259.027 253.12 258.727 253.12ZM259.827 251L257.667 246H258.517L260.377 250.45L260.617 251H259.827Z" fill="white" fill-opacity="0.4"/>
<rect x="287" y="47" width="21" height="178" rx="4" fill="#5655D7"/>
<rect x="313" y="63" width="22" height="162" rx="4" fill="#FFAE41"/>
<rect x="313" y="63" width="22" height="162" rx="4" fill="white" fill-opacity="0.4"/>
<path d="M304.47 251.12C304.23 251.12 304.007 251.083 303.8 251.01C303.6 250.943 303.42 250.853 303.26 250.74C303.1 250.62 302.963 250.487 302.85 250.34C302.737 250.187 302.643 250.03 302.57 249.87L303.21 249.5C303.35 249.747 303.52 249.95 303.72 250.11C303.927 250.27 304.18 250.35 304.48 250.35C304.72 250.35 304.953 250.293 305.18 250.18C305.413 250.067 305.603 249.877 305.75 249.61C305.897 249.343 305.97 248.993 305.97 248.56V244H306.81V248.89C306.81 249.257 306.743 249.58 306.61 249.86C306.483 250.14 306.307 250.373 306.08 250.56C305.86 250.747 305.61 250.887 305.33 250.98C305.05 251.073 304.763 251.12 304.47 251.12ZM311.776 251L311.726 250.08V246H312.526V251H311.776ZM308.216 248.86V246H309.016V248.56L308.216 248.86ZM309.016 248.56C309.016 249.053 309.073 249.43 309.186 249.69C309.3 249.95 309.456 250.13 309.656 250.23C309.863 250.323 310.093 250.37 310.346 250.37C310.78 250.37 311.116 250.213 311.356 249.9C311.603 249.587 311.726 249.15 311.726 248.59H312.116C312.116 249.117 312.04 249.57 311.886 249.95C311.733 250.33 311.51 250.62 311.216 250.82C310.93 251.02 310.58 251.12 310.166 251.12C309.56 251.12 309.08 250.933 308.726 250.56C308.38 250.187 308.21 249.62 308.216 248.86L309.016 248.56ZM313.923 251V246H314.673L314.723 246.92V251H313.923ZM317.433 251V248.44L318.233 248.14V251H317.433ZM317.433 248.44C317.433 247.947 317.376 247.57 317.263 247.31C317.149 247.05 316.993 246.873 316.793 246.78C316.593 246.68 316.366 246.63 316.113 246.63C315.673 246.63 315.329 246.787 315.083 247.1C314.843 247.407 314.723 247.843 314.723 248.41H314.333C314.333 247.883 314.409 247.43 314.563 247.05C314.716 246.67 314.936 246.38 315.223 246.18C315.516 245.98 315.869 245.88 316.283 245.88C316.889 245.88 317.366 246.067 317.713 246.44C318.066 246.813 318.239 247.38 318.233 248.14L317.433 248.44Z" fill="#465762"/>
<path d="M304.47 251.12C304.23 251.12 304.007 251.083 303.8 251.01C303.6 250.943 303.42 250.853 303.26 250.74C303.1 250.62 302.963 250.487 302.85 250.34C302.737 250.187 302.643 250.03 302.57 249.87L303.21 249.5C303.35 249.747 303.52 249.95 303.72 250.11C303.927 250.27 304.18 250.35 304.48 250.35C304.72 250.35 304.953 250.293 305.18 250.18C305.413 250.067 305.603 249.877 305.75 249.61C305.897 249.343 305.97 248.993 305.97 248.56V244H306.81V248.89C306.81 249.257 306.743 249.58 306.61 249.86C306.483 250.14 306.307 250.373 306.08 250.56C305.86 250.747 305.61 250.887 305.33 250.98C305.05 251.073 304.763 251.12 304.47 251.12ZM311.776 251L311.726 250.08V246H312.526V251H311.776ZM308.216 248.86V246H309.016V248.56L308.216 248.86ZM309.016 248.56C309.016 249.053 309.073 249.43 309.186 249.69C309.3 249.95 309.456 250.13 309.656 250.23C309.863 250.323 310.093 250.37 310.346 250.37C310.78 250.37 311.116 250.213 311.356 249.9C311.603 249.587 311.726 249.15 311.726 248.59H312.116C312.116 249.117 312.04 249.57 311.886 249.95C311.733 250.33 311.51 250.62 311.216 250.82C310.93 251.02 310.58 251.12 310.166 251.12C309.56 251.12 309.08 250.933 308.726 250.56C308.38 250.187 308.21 249.62 308.216 248.86L309.016 248.56ZM313.923 251V246H314.673L314.723 246.92V251H313.923ZM317.433 251V248.44L318.233 248.14V251H317.433ZM317.433 248.44C317.433 247.947 317.376 247.57 317.263 247.31C317.149 247.05 316.993 246.873 316.793 246.78C316.593 246.68 316.366 246.63 316.113 246.63C315.673 246.63 315.329 246.787 315.083 247.1C314.843 247.407 314.723 247.843 314.723 248.41H314.333C314.333 247.883 314.409 247.43 314.563 247.05C314.716 246.67 314.936 246.38 315.223 246.18C315.516 245.98 315.869 245.88 316.283 245.88C316.889 245.88 317.366 246.067 317.713 246.44C318.066 246.813 318.239 247.38 318.233 248.14L317.433 248.44Z" fill="white" fill-opacity="0.4"/>
<g filter="url(#filter0_d_544_10375)">
<circle cx="267.031" cy="119.836" r="6.31929" fill="#5655D7"/>
<circle cx="267.031" cy="119.836" r="7.58315" stroke="white" stroke-width="2.52772"/>
</g>
<g filter="url(#filter1_d_544_10375)">
<path d="M188.364 30C184.849 30 182 33.4085 182 37.6131V92.3186C182 96.5232 184.849 99.9318 188.364 99.9318H260.182L266.09 107L271.999 99.9318H280.636C284.151 99.9318 287 96.5232 287 92.3186V37.6131C287 33.4085 284.151 30 280.636 30H188.364Z" fill="white"/>
</g>
<path d="M210.038 66.8953V66.1816H211.614C211.953 66.1816 212.231 66.058 212.448 65.8109C212.67 65.5575 212.781 65.2362 212.781 64.847C212.781 64.5813 212.723 64.3465 212.605 64.1426C212.488 63.9387 212.324 63.7811 212.114 63.6699C211.91 63.5525 211.672 63.4969 211.4 63.5031H210.038V62.7894L211.41 62.7801C211.83 62.7801 212.201 62.8697 212.522 63.0489C212.849 63.2219 213.103 63.4629 213.282 63.7719C213.467 64.0808 213.56 64.4392 213.56 64.847C213.56 65.2424 213.477 65.5946 213.31 65.9036C213.143 66.2125 212.914 66.4566 212.624 66.6358C212.333 66.8088 211.997 66.8953 211.614 66.8953H210.038ZM209.297 69.2772V62.7894H210.084V69.2772H209.297ZM216.408 69.3884C215.957 69.3884 215.556 69.2865 215.204 69.0826C214.858 68.8725 214.586 68.5852 214.388 68.2206C214.19 67.8561 214.091 67.4359 214.091 66.9601C214.091 66.4844 214.187 66.0642 214.379 65.6997C214.576 65.3351 214.848 65.0509 215.194 64.847C215.546 64.6369 215.945 64.5319 216.39 64.5319C216.847 64.5319 217.249 64.6369 217.595 64.847C217.947 65.0509 218.219 65.3351 218.41 65.6997C218.608 66.0642 218.707 66.4844 218.707 66.9601C218.707 67.4359 218.608 67.8561 218.41 68.2206C218.219 68.5852 217.95 68.8725 217.604 69.0826C217.258 69.2865 216.859 69.3884 216.408 69.3884ZM216.408 68.7026C216.717 68.7026 216.986 68.6284 217.215 68.4801C217.443 68.3319 217.623 68.128 217.752 67.8684C217.888 67.6089 217.956 67.3062 217.956 66.9601C217.956 66.6141 217.888 66.3114 217.752 66.0519C217.623 65.7923 217.44 65.5884 217.205 65.4401C216.971 65.2919 216.699 65.2177 216.39 65.2177C216.087 65.2177 215.818 65.2919 215.584 65.4401C215.355 65.5884 215.173 65.7923 215.037 66.0519C214.907 66.3114 214.842 66.6141 214.842 66.9601C214.842 67.3 214.907 67.6028 215.037 67.8684C215.173 68.128 215.358 68.3319 215.593 68.4801C215.834 68.6284 216.106 68.7026 216.408 68.7026ZM221.358 69.3884C221.019 69.3884 220.722 69.339 220.469 69.2401C220.215 69.1351 220.002 68.9992 219.829 68.8323C219.662 68.6655 219.542 68.4832 219.468 68.2855L220.116 68.0167C220.221 68.2268 220.379 68.3967 220.589 68.5265C220.799 68.6562 221.031 68.7211 221.284 68.7211C221.575 68.7211 221.819 68.6655 222.016 68.5543C222.214 68.4369 222.313 68.2732 222.313 68.0631C222.313 67.8715 222.239 67.7171 222.091 67.5997C221.948 67.4823 221.735 67.3865 221.451 67.3123L221.006 67.1919C220.586 67.0806 220.259 66.9138 220.024 66.6914C219.789 66.4628 219.672 66.2063 219.672 65.9221C219.672 65.4834 219.814 65.1436 220.098 64.9026C220.388 64.6554 220.818 64.5319 221.386 64.5319C221.658 64.5319 221.905 64.572 222.128 64.6523C222.35 64.7327 222.542 64.847 222.702 64.9953C222.863 65.1374 222.98 65.3073 223.055 65.505L222.406 65.7923C222.325 65.5823 222.193 65.4309 222.007 65.3382C221.822 65.2455 221.596 65.1992 221.331 65.1992C221.046 65.1992 220.824 65.261 220.663 65.3845C220.503 65.5019 220.422 65.6688 220.422 65.885C220.422 66.0086 220.487 66.126 220.617 66.2372C220.753 66.3423 220.951 66.4288 221.21 66.4967L221.674 66.6172C221.976 66.6914 222.23 66.8026 222.434 66.9509C222.637 67.093 222.792 67.2567 222.897 67.4421C223.002 67.6275 223.055 67.8252 223.055 68.0353C223.055 68.3133 222.98 68.5543 222.832 68.7582C222.684 68.9621 222.483 69.1197 222.23 69.2309C221.976 69.3359 221.686 69.3884 221.358 69.3884ZM224.1 69.2772L224.119 64.6431H224.86L224.842 69.2772H224.1ZM224.48 63.568C224.357 63.568 224.248 63.5216 224.156 63.4289C224.063 63.3362 224.017 63.2281 224.017 63.1045C224.017 62.9748 224.063 62.8667 224.156 62.7801C224.248 62.6875 224.357 62.6411 224.48 62.6411C224.61 62.6411 224.718 62.6875 224.805 62.7801C224.897 62.8667 224.944 62.9748 224.944 63.1045C224.944 63.2281 224.897 63.3362 224.805 63.4289C224.718 63.5216 224.61 63.568 224.48 63.568ZM227.95 69.3884C227.499 69.3884 227.15 69.271 226.903 69.0362C226.656 68.8014 226.532 68.4709 226.532 68.0445V63.1972H227.274V67.9704C227.274 68.2052 227.336 68.3875 227.459 68.5172C227.589 68.6408 227.768 68.7026 227.997 68.7026C228.071 68.7026 228.142 68.6933 228.21 68.6748C228.284 68.6501 228.38 68.5945 228.497 68.508L228.785 69.1104C228.624 69.2154 228.479 69.2865 228.349 69.3236C228.219 69.3668 228.086 69.3884 227.95 69.3884ZM225.726 65.3011V64.6431H228.664V65.3011H225.726ZM229.757 69.2772L229.776 64.6431H230.517L230.499 69.2772H229.757ZM230.137 63.568C230.013 63.568 229.905 63.5216 229.813 63.4289C229.72 63.3362 229.674 63.2281 229.674 63.1045C229.674 62.9748 229.72 62.8667 229.813 62.7801C229.905 62.6875 230.013 62.6411 230.137 62.6411C230.267 62.6411 230.375 62.6875 230.461 62.7801C230.554 62.8667 230.6 62.9748 230.6 63.1045C230.6 63.2281 230.554 63.3362 230.461 63.4289C230.375 63.5216 230.267 63.568 230.137 63.568ZM233.283 69.2772L235.174 64.6431H235.952L234.015 69.2772H233.283ZM233.237 69.2772L231.3 64.6431H232.069L233.96 69.2772H233.237ZM238.601 69.3884C238.15 69.3884 237.752 69.2865 237.406 69.0826C237.06 68.8725 236.788 68.5852 236.59 68.2206C236.398 67.8561 236.303 67.4359 236.303 66.9601C236.303 66.4844 236.398 66.0642 236.59 65.6997C236.788 65.3351 237.056 65.0509 237.396 64.847C237.742 64.6369 238.138 64.5319 238.583 64.5319C239.009 64.5319 239.38 64.64 239.695 64.8562C240.016 65.0663 240.263 65.3629 240.436 65.746C240.609 66.1291 240.696 66.5801 240.696 67.0992H239.954C239.954 66.7037 239.902 66.367 239.797 66.0889C239.692 65.8047 239.534 65.5854 239.324 65.4309C239.12 65.2764 238.87 65.1992 238.573 65.1992C238.271 65.1992 238.002 65.2733 237.767 65.4216C237.538 65.5637 237.362 65.7676 237.239 66.0333C237.115 66.299 237.053 66.611 237.053 66.9694C237.053 67.3216 237.121 67.6275 237.257 67.887C237.393 68.1403 237.582 68.3411 237.823 68.4894C238.064 68.6315 238.336 68.7026 238.638 68.7026C238.96 68.7026 239.231 68.6254 239.454 68.4709C239.676 68.3164 239.852 68.1156 239.982 67.8684L240.631 68.1928C240.514 68.4338 240.356 68.6439 240.158 68.8231C239.967 69.0023 239.738 69.1413 239.472 69.2401C239.213 69.339 238.922 69.3884 238.601 69.3884ZM236.794 67.0992L236.803 66.4597H240.242V67.0992H236.794ZM242.15 65.6533C242.008 65.6533 241.884 65.6039 241.779 65.505C241.68 65.4062 241.631 65.2857 241.631 65.1436C241.631 65.0014 241.68 64.881 241.779 64.7821C241.884 64.6771 242.008 64.6245 242.15 64.6245C242.286 64.6245 242.403 64.6771 242.502 64.7821C242.607 64.881 242.66 65.0014 242.66 65.1436C242.66 65.2857 242.607 65.4062 242.502 65.505C242.403 65.6039 242.286 65.6533 242.15 65.6533ZM242.159 69.2958C242.017 69.2958 241.897 69.2463 241.798 69.1475C241.699 69.0424 241.65 68.9188 241.65 68.7767C241.65 68.6346 241.699 68.5141 241.798 68.4153C241.897 68.3164 242.017 68.267 242.159 68.267C242.301 68.267 242.422 68.3164 242.521 68.4153C242.626 68.5141 242.678 68.6346 242.678 68.7767C242.678 68.9188 242.626 69.0424 242.521 69.1475C242.422 69.2463 242.301 69.2958 242.159 69.2958ZM247.618 69.2772L247.628 63.2065L247.692 62.7894H248.397L248.378 69.2772H247.618ZM246.172 64.4577V63.7441C246.302 63.7502 246.457 63.707 246.636 63.6143C246.815 63.5216 247 63.4011 247.192 63.2528C247.384 63.1045 247.55 62.9501 247.692 62.7894L248.174 63.3177C247.97 63.534 247.757 63.7286 247.535 63.9016C247.312 64.0746 247.087 64.2136 246.858 64.3187C246.63 64.4175 246.401 64.4639 246.172 64.4577ZM249.816 70.3431L250.344 68.3875H251.178L250.455 70.3431H249.816ZM252.843 68.8231L252.064 68.6284C252.064 68.4245 252.104 68.2237 252.185 68.026C252.271 67.8221 252.392 67.6213 252.546 67.4236C252.707 67.2258 252.901 67.0405 253.13 66.8675L254.474 65.8572C254.634 65.746 254.773 65.6193 254.891 65.4772C255.014 65.3289 255.11 65.1775 255.178 65.0231C255.246 64.8624 255.28 64.708 255.28 64.5597C255.28 64.3434 255.228 64.1488 255.123 63.9758C255.018 63.7966 254.869 63.6545 254.678 63.5494C254.486 63.4444 254.261 63.3919 254.001 63.3919C253.748 63.3919 253.525 63.4413 253.334 63.5401C253.142 63.6328 252.985 63.7595 252.861 63.9201C252.738 64.0746 252.648 64.2414 252.592 64.4206L251.795 64.2631C251.869 63.985 252.002 63.7255 252.194 63.4845C252.392 63.2436 252.642 63.0489 252.945 62.9006C253.247 62.7523 253.584 62.6782 253.955 62.6782C254.387 62.6782 254.761 62.7616 255.076 62.9284C255.391 63.0891 255.635 63.3115 255.808 63.5958C255.988 63.8738 256.077 64.192 256.077 64.5504C256.077 64.8902 255.985 65.2115 255.799 65.5143C255.614 65.8171 255.345 66.1106 254.993 66.3948L253.723 67.3587C253.544 67.4884 253.386 67.6306 253.25 67.785C253.121 67.9395 253.019 68.1032 252.945 68.2762C252.877 68.4431 252.843 68.6254 252.843 68.8231ZM252.064 69.2772V68.6284L252.657 68.5821H256.17V69.2772H252.064ZM257.473 69.2772L260.68 63.2714L261.412 63.4382L258.335 69.2772H257.473ZM257.102 63.5031V62.7894H261.412V63.4382L260.81 63.5031H257.102ZM262.673 67.4606L262.09 67.0992L265.046 62.7894L265.556 63.2343L262.673 67.4606ZM262.09 67.7016V67.0992L262.59 67.0065H267.169V67.7016H262.09ZM265.083 69.2772V63.2899L265.046 62.7894H265.843V69.2772H265.083Z" fill="#465762"/>
<path d="M210.038 66.8953V66.1816H211.614C211.953 66.1816 212.231 66.058 212.448 65.8109C212.67 65.5575 212.781 65.2362 212.781 64.847C212.781 64.5813 212.723 64.3465 212.605 64.1426C212.488 63.9387 212.324 63.7811 212.114 63.6699C211.91 63.5525 211.672 63.4969 211.4 63.5031H210.038V62.7894L211.41 62.7801C211.83 62.7801 212.201 62.8697 212.522 63.0489C212.849 63.2219 213.103 63.4629 213.282 63.7719C213.467 64.0808 213.56 64.4392 213.56 64.847C213.56 65.2424 213.477 65.5946 213.31 65.9036C213.143 66.2125 212.914 66.4566 212.624 66.6358C212.333 66.8088 211.997 66.8953 211.614 66.8953H210.038ZM209.297 69.2772V62.7894H210.084V69.2772H209.297ZM216.408 69.3884C215.957 69.3884 215.556 69.2865 215.204 69.0826C214.858 68.8725 214.586 68.5852 214.388 68.2206C214.19 67.8561 214.091 67.4359 214.091 66.9601C214.091 66.4844 214.187 66.0642 214.379 65.6997C214.576 65.3351 214.848 65.0509 215.194 64.847C215.546 64.6369 215.945 64.5319 216.39 64.5319C216.847 64.5319 217.249 64.6369 217.595 64.847C217.947 65.0509 218.219 65.3351 218.41 65.6997C218.608 66.0642 218.707 66.4844 218.707 66.9601C218.707 67.4359 218.608 67.8561 218.41 68.2206C218.219 68.5852 217.95 68.8725 217.604 69.0826C217.258 69.2865 216.859 69.3884 216.408 69.3884ZM216.408 68.7026C216.717 68.7026 216.986 68.6284 217.215 68.4801C217.443 68.3319 217.623 68.128 217.752 67.8684C217.888 67.6089 217.956 67.3062 217.956 66.9601C217.956 66.6141 217.888 66.3114 217.752 66.0519C217.623 65.7923 217.44 65.5884 217.205 65.4401C216.971 65.2919 216.699 65.2177 216.39 65.2177C216.087 65.2177 215.818 65.2919 215.584 65.4401C215.355 65.5884 215.173 65.7923 215.037 66.0519C214.907 66.3114 214.842 66.6141 214.842 66.9601C214.842 67.3 214.907 67.6028 215.037 67.8684C215.173 68.128 215.358 68.3319 215.593 68.4801C215.834 68.6284 216.106 68.7026 216.408 68.7026ZM221.358 69.3884C221.019 69.3884 220.722 69.339 220.469 69.2401C220.215 69.1351 220.002 68.9992 219.829 68.8323C219.662 68.6655 219.542 68.4832 219.468 68.2855L220.116 68.0167C220.221 68.2268 220.379 68.3967 220.589 68.5265C220.799 68.6562 221.031 68.7211 221.284 68.7211C221.575 68.7211 221.819 68.6655 222.016 68.5543C222.214 68.4369 222.313 68.2732 222.313 68.0631C222.313 67.8715 222.239 67.7171 222.091 67.5997C221.948 67.4823 221.735 67.3865 221.451 67.3123L221.006 67.1919C220.586 67.0806 220.259 66.9138 220.024 66.6914C219.789 66.4628 219.672 66.2063 219.672 65.9221C219.672 65.4834 219.814 65.1436 220.098 64.9026C220.388 64.6554 220.818 64.5319 221.386 64.5319C221.658 64.5319 221.905 64.572 222.128 64.6523C222.35 64.7327 222.542 64.847 222.702 64.9953C222.863 65.1374 222.98 65.3073 223.055 65.505L222.406 65.7923C222.325 65.5823 222.193 65.4309 222.007 65.3382C221.822 65.2455 221.596 65.1992 221.331 65.1992C221.046 65.1992 220.824 65.261 220.663 65.3845C220.503 65.5019 220.422 65.6688 220.422 65.885C220.422 66.0086 220.487 66.126 220.617 66.2372C220.753 66.3423 220.951 66.4288 221.21 66.4967L221.674 66.6172C221.976 66.6914 222.23 66.8026 222.434 66.9509C222.637 67.093 222.792 67.2567 222.897 67.4421C223.002 67.6275 223.055 67.8252 223.055 68.0353C223.055 68.3133 222.98 68.5543 222.832 68.7582C222.684 68.9621 222.483 69.1197 222.23 69.2309C221.976 69.3359 221.686 69.3884 221.358 69.3884ZM224.1 69.2772L224.119 64.6431H224.86L224.842 69.2772H224.1ZM224.48 63.568C224.357 63.568 224.248 63.5216 224.156 63.4289C224.063 63.3362 224.017 63.2281 224.017 63.1045C224.017 62.9748 224.063 62.8667 224.156 62.7801C224.248 62.6875 224.357 62.6411 224.48 62.6411C224.61 62.6411 224.718 62.6875 224.805 62.7801C224.897 62.8667 224.944 62.9748 224.944 63.1045C224.944 63.2281 224.897 63.3362 224.805 63.4289C224.718 63.5216 224.61 63.568 224.48 63.568ZM227.95 69.3884C227.499 69.3884 227.15 69.271 226.903 69.0362C226.656 68.8014 226.532 68.4709 226.532 68.0445V63.1972H227.274V67.9704C227.274 68.2052 227.336 68.3875 227.459 68.5172C227.589 68.6408 227.768 68.7026 227.997 68.7026C228.071 68.7026 228.142 68.6933 228.21 68.6748C228.284 68.6501 228.38 68.5945 228.497 68.508L228.785 69.1104C228.624 69.2154 228.479 69.2865 228.349 69.3236C228.219 69.3668 228.086 69.3884 227.95 69.3884ZM225.726 65.3011V64.6431H228.664V65.3011H225.726ZM229.757 69.2772L229.776 64.6431H230.517L230.499 69.2772H229.757ZM230.137 63.568C230.013 63.568 229.905 63.5216 229.813 63.4289C229.72 63.3362 229.674 63.2281 229.674 63.1045C229.674 62.9748 229.72 62.8667 229.813 62.7801C229.905 62.6875 230.013 62.6411 230.137 62.6411C230.267 62.6411 230.375 62.6875 230.461 62.7801C230.554 62.8667 230.6 62.9748 230.6 63.1045C230.6 63.2281 230.554 63.3362 230.461 63.4289C230.375 63.5216 230.267 63.568 230.137 63.568ZM233.283 69.2772L235.174 64.6431H235.952L234.015 69.2772H233.283ZM233.237 69.2772L231.3 64.6431H232.069L233.96 69.2772H233.237ZM238.601 69.3884C238.15 69.3884 237.752 69.2865 237.406 69.0826C237.06 68.8725 236.788 68.5852 236.59 68.2206C236.398 67.8561 236.303 67.4359 236.303 66.9601C236.303 66.4844 236.398 66.0642 236.59 65.6997C236.788 65.3351 237.056 65.0509 237.396 64.847C237.742 64.6369 238.138 64.5319 238.583 64.5319C239.009 64.5319 239.38 64.64 239.695 64.8562C240.016 65.0663 240.263 65.3629 240.436 65.746C240.609 66.1291 240.696 66.5801 240.696 67.0992H239.954C239.954 66.7037 239.902 66.367 239.797 66.0889C239.692 65.8047 239.534 65.5854 239.324 65.4309C239.12 65.2764 238.87 65.1992 238.573 65.1992C238.271 65.1992 238.002 65.2733 237.767 65.4216C237.538 65.5637 237.362 65.7676 237.239 66.0333C237.115 66.299 237.053 66.611 237.053 66.9694C237.053 67.3216 237.121 67.6275 237.257 67.887C237.393 68.1403 237.582 68.3411 237.823 68.4894C238.064 68.6315 238.336 68.7026 238.638 68.7026C238.96 68.7026 239.231 68.6254 239.454 68.4709C239.676 68.3164 239.852 68.1156 239.982 67.8684L240.631 68.1928C240.514 68.4338 240.356 68.6439 240.158 68.8231C239.967 69.0023 239.738 69.1413 239.472 69.2401C239.213 69.339 238.922 69.3884 238.601 69.3884ZM236.794 67.0992L236.803 66.4597H240.242V67.0992H236.794ZM242.15 65.6533C242.008 65.6533 241.884 65.6039 241.779 65.505C241.68 65.4062 241.631 65.2857 241.631 65.1436C241.631 65.0014 241.68 64.881 241.779 64.7821C241.884 64.6771 242.008 64.6245 242.15 64.6245C242.286 64.6245 242.403 64.6771 242.502 64.7821C242.607 64.881 242.66 65.0014 242.66 65.1436C242.66 65.2857 242.607 65.4062 242.502 65.505C242.403 65.6039 242.286 65.6533 242.15 65.6533ZM242.159 69.2958C242.017 69.2958 241.897 69.2463 241.798 69.1475C241.699 69.0424 241.65 68.9188 241.65 68.7767C241.65 68.6346 241.699 68.5141 241.798 68.4153C241.897 68.3164 242.017 68.267 242.159 68.267C242.301 68.267 242.422 68.3164 242.521 68.4153C242.626 68.5141 242.678 68.6346 242.678 68.7767C242.678 68.9188 242.626 69.0424 242.521 69.1475C242.422 69.2463 242.301 69.2958 242.159 69.2958ZM247.618 69.2772L247.628 63.2065L247.692 62.7894H248.397L248.378 69.2772H247.618ZM246.172 64.4577V63.7441C246.302 63.7502 246.457 63.707 246.636 63.6143C246.815 63.5216 247 63.4011 247.192 63.2528C247.384 63.1045 247.55 62.9501 247.692 62.7894L248.174 63.3177C247.97 63.534 247.757 63.7286 247.535 63.9016C247.312 64.0746 247.087 64.2136 246.858 64.3187C246.63 64.4175 246.401 64.4639 246.172 64.4577ZM249.816 70.3431L250.344 68.3875H251.178L250.455 70.3431H249.816ZM252.843 68.8231L252.064 68.6284C252.064 68.4245 252.104 68.2237 252.185 68.026C252.271 67.8221 252.392 67.6213 252.546 67.4236C252.707 67.2258 252.901 67.0405 253.13 66.8675L254.474 65.8572C254.634 65.746 254.773 65.6193 254.891 65.4772C255.014 65.3289 255.11 65.1775 255.178 65.0231C255.246 64.8624 255.28 64.708 255.28 64.5597C255.28 64.3434 255.228 64.1488 255.123 63.9758C255.018 63.7966 254.869 63.6545 254.678 63.5494C254.486 63.4444 254.261 63.3919 254.001 63.3919C253.748 63.3919 253.525 63.4413 253.334 63.5401C253.142 63.6328 252.985 63.7595 252.861 63.9201C252.738 64.0746 252.648 64.2414 252.592 64.4206L251.795 64.2631C251.869 63.985 252.002 63.7255 252.194 63.4845C252.392 63.2436 252.642 63.0489 252.945 62.9006C253.247 62.7523 253.584 62.6782 253.955 62.6782C254.387 62.6782 254.761 62.7616 255.076 62.9284C255.391 63.0891 255.635 63.3115 255.808 63.5958C255.988 63.8738 256.077 64.192 256.077 64.5504C256.077 64.8902 255.985 65.2115 255.799 65.5143C255.614 65.8171 255.345 66.1106 254.993 66.3948L253.723 67.3587C253.544 67.4884 253.386 67.6306 253.25 67.785C253.121 67.9395 253.019 68.1032 252.945 68.2762C252.877 68.4431 252.843 68.6254 252.843 68.8231ZM252.064 69.2772V68.6284L252.657 68.5821H256.17V69.2772H252.064ZM257.473 69.2772L260.68 63.2714L261.412 63.4382L258.335 69.2772H257.473ZM257.102 63.5031V62.7894H261.412V63.4382L260.81 63.5031H257.102ZM262.673 67.4606L262.09 67.0992L265.046 62.7894L265.556 63.2343L262.673 67.4606ZM262.09 67.7016V67.0992L262.59 67.0065H267.169V67.7016H262.09ZM265.083 69.2772V63.2899L265.046 62.7894H265.843V69.2772H265.083Z" fill="white" fill-opacity="0.2"/>
<circle cx="199.166" cy="66.1752" r="3.37029" fill="#5655D7"/>
<path d="M213.958 85.2861L209.482 79.2339L210.094 78.7983L214.57 84.8413L213.958 85.2861ZM209.297 85.2861V78.7983H210.094L210.084 79.4193V85.2861H209.297ZM213.958 85.2861V78.7983H214.746V85.2861H213.958ZM218.291 85.3974C217.84 85.3974 217.441 85.2954 217.095 85.0915C216.749 84.8814 216.477 84.5941 216.279 84.2295C216.088 83.865 215.992 83.4448 215.992 82.9691C215.992 82.4933 216.088 82.0731 216.279 81.7086C216.477 81.344 216.746 81.0598 217.086 80.8559C217.432 80.6458 217.827 80.5408 218.272 80.5408C218.698 80.5408 219.069 80.6489 219.384 80.8652C219.706 81.0752 219.953 81.3718 220.126 81.7549C220.299 82.138 220.385 82.5891 220.385 83.1081H219.644C219.644 82.7126 219.591 82.3759 219.486 82.0978C219.381 81.8136 219.224 81.5943 219.014 81.4398C218.81 81.2853 218.559 81.2081 218.263 81.2081C217.96 81.2081 217.691 81.2822 217.456 81.4305C217.228 81.5726 217.052 81.7765 216.928 82.0422C216.805 82.3079 216.743 82.62 216.743 82.9783C216.743 83.3305 216.811 83.6364 216.947 83.8959C217.083 84.1492 217.271 84.35 217.512 84.4983C217.753 84.6404 218.025 84.7115 218.328 84.7115C218.649 84.7115 218.921 84.6343 219.143 84.4798C219.366 84.3253 219.542 84.1245 219.672 83.8774L220.32 84.2017C220.203 84.4427 220.045 84.6528 219.848 84.832C219.656 85.0112 219.428 85.1502 219.162 85.2491C218.902 85.3479 218.612 85.3974 218.291 85.3974ZM216.483 83.1081L216.493 82.4686H219.931V83.1081H216.483ZM223.174 87.251C222.877 87.251 222.606 87.2201 222.358 87.1583C222.117 87.1027 221.91 87.0378 221.737 86.9637C221.571 86.8957 221.45 86.837 221.376 86.7876L221.654 86.1852C221.734 86.2284 221.849 86.2809 221.997 86.3427C222.145 86.4107 222.318 86.4663 222.516 86.5095C222.72 86.559 222.936 86.5837 223.165 86.5837C223.461 86.5837 223.727 86.5219 223.962 86.3983C224.203 86.2809 224.388 86.0925 224.518 85.833C224.654 85.5796 224.722 85.2521 224.722 84.8505V80.652H225.463V84.8413C225.463 85.3726 225.364 85.8175 225.167 86.1759C224.969 86.5343 224.697 86.803 224.351 86.9822C224.005 87.1614 223.613 87.251 223.174 87.251ZM223.146 85.2491C222.732 85.2491 222.368 85.1502 222.053 84.9525C221.737 84.7548 221.49 84.4798 221.311 84.1276C221.138 83.7692 221.052 83.3614 221.052 82.9042C221.052 82.4346 221.138 82.0237 221.311 81.6715C221.49 81.3131 221.737 81.0351 222.053 80.8374C222.368 80.6396 222.732 80.5408 223.146 80.5408C223.536 80.5408 223.875 80.6396 224.166 80.8374C224.456 81.0351 224.682 81.3131 224.842 81.6715C225.009 82.0237 225.093 82.4346 225.093 82.9042C225.093 83.3676 225.009 83.7754 224.842 84.1276C224.682 84.4798 224.456 84.7548 224.166 84.9525C223.875 85.1502 223.536 85.2491 223.146 85.2491ZM223.322 84.6095C223.594 84.6095 223.835 84.5354 224.045 84.3871C224.255 84.2388 224.419 84.038 224.536 83.7847C224.654 83.5252 224.713 83.2255 224.713 82.8856C224.713 82.5582 224.651 82.2678 224.527 82.0144C224.41 81.7549 224.246 81.5541 224.036 81.412C223.832 81.2637 223.591 81.1895 223.313 81.1895C223.023 81.1895 222.763 81.2637 222.535 81.412C222.312 81.5541 222.136 81.7549 222.006 82.0144C221.883 82.2678 221.821 82.5582 221.821 82.8856C221.821 83.2255 221.886 83.5252 222.016 83.7847C222.145 84.038 222.321 84.2388 222.544 84.3871C222.772 84.5354 223.032 84.6095 223.322 84.6095ZM229.615 85.2861L229.568 84.5261V82.8393C229.568 82.4748 229.525 82.1751 229.439 81.9403C229.358 81.6993 229.232 81.5201 229.059 81.4027C228.892 81.2791 228.669 81.2174 228.391 81.2174C228.126 81.2174 227.894 81.2699 227.696 81.3749C227.505 81.48 227.347 81.6437 227.223 81.8661L226.556 81.5974C226.68 81.3811 226.828 81.1926 227.001 81.032C227.174 80.8713 227.375 80.7508 227.603 80.6705C227.838 80.584 228.104 80.5408 228.401 80.5408C228.827 80.5408 229.182 80.6242 229.466 80.791C229.751 80.9578 229.964 81.2081 230.106 81.5417C230.248 81.8692 230.316 82.2801 230.31 82.7744L230.301 85.2861H229.615ZM228.224 85.3974C227.681 85.3974 227.254 85.2738 226.945 85.0266C226.643 84.7733 226.491 84.4242 226.491 83.9793C226.491 83.5097 226.646 83.1513 226.955 82.9042C227.27 82.6508 227.709 82.5242 228.271 82.5242H229.596V83.1452H228.438C228.005 83.1452 227.696 83.2162 227.511 83.3583C227.332 83.5004 227.242 83.7043 227.242 83.97C227.242 84.211 227.332 84.4026 227.511 84.5447C227.69 84.6806 227.94 84.7486 228.262 84.7486C228.527 84.7486 228.759 84.6868 228.957 84.5632C229.154 84.4396 229.306 84.2728 229.411 84.0627C229.516 83.8465 229.568 83.6024 229.568 83.3305H230.023C230.023 83.9608 229.868 84.4643 229.559 84.8413C229.25 85.212 228.805 85.3974 228.224 85.3974ZM233.227 85.3974C232.776 85.3974 232.427 85.28 232.18 85.0452C231.933 84.8104 231.809 84.4798 231.809 84.0534V79.2061H232.551V83.9793C232.551 84.2141 232.612 84.3964 232.736 84.5261C232.866 84.6497 233.045 84.7115 233.274 84.7115C233.348 84.7115 233.419 84.7022 233.487 84.6837C233.561 84.659 233.657 84.6034 233.774 84.5169L234.061 85.1193C233.901 85.2243 233.755 85.2954 233.626 85.3325C233.496 85.3757 233.363 85.3974 233.227 85.3974ZM231.003 81.31V80.652H233.941V81.31H231.003ZM235.034 85.2861L235.052 80.652H235.794L235.775 85.2861H235.034ZM235.414 79.5769C235.29 79.5769 235.182 79.5305 235.089 79.4378C234.997 79.3452 234.95 79.237 234.95 79.1134C234.95 78.9837 234.997 78.8756 235.089 78.7891C235.182 78.6964 235.29 78.65 235.414 78.65C235.544 78.65 235.652 78.6964 235.738 78.7891C235.831 78.8756 235.877 78.9837 235.877 79.1134C235.877 79.237 235.831 79.3452 235.738 79.4378C235.652 79.5305 235.544 79.5769 235.414 79.5769ZM238.56 85.2861L240.45 80.652H241.229L239.292 85.2861H238.56ZM238.513 85.2861L236.576 80.652H237.346L239.236 85.2861H238.513ZM243.878 85.3974C243.427 85.3974 243.028 85.2954 242.682 85.0915C242.336 84.8814 242.064 84.5941 241.867 84.2295C241.675 83.865 241.579 83.4448 241.579 82.9691C241.579 82.4933 241.675 82.0731 241.867 81.7086C242.064 81.344 242.333 81.0598 242.673 80.8559C243.019 80.6458 243.415 80.5408 243.859 80.5408C244.286 80.5408 244.657 80.6489 244.972 80.8652C245.293 81.0752 245.54 81.3718 245.713 81.7549C245.886 82.138 245.973 82.5891 245.973 83.1081H245.231C245.231 82.7126 245.179 82.3759 245.074 82.0978C244.969 81.8136 244.811 81.5943 244.601 81.4398C244.397 81.2853 244.147 81.2081 243.85 81.2081C243.547 81.2081 243.279 81.2822 243.044 81.4305C242.815 81.5726 242.639 81.7765 242.516 82.0422C242.392 82.3079 242.33 82.62 242.33 82.9783C242.33 83.3305 242.398 83.6364 242.534 83.8959C242.67 84.1492 242.858 84.35 243.099 84.4983C243.34 84.6404 243.612 84.7115 243.915 84.7115C244.236 84.7115 244.508 84.6343 244.731 84.4798C244.953 84.3253 245.129 84.1245 245.259 83.8774L245.908 84.2017C245.79 84.4427 245.633 84.6528 245.435 84.832C245.243 85.0112 245.015 85.1502 244.749 85.2491C244.49 85.3479 244.199 85.3974 243.878 85.3974ZM242.071 83.1081L242.08 82.4686H245.518V83.1081H242.071ZM247.427 81.6622C247.285 81.6622 247.161 81.6128 247.056 81.5139C246.957 81.4151 246.908 81.2946 246.908 81.1525C246.908 81.0104 246.957 80.8899 247.056 80.791C247.161 80.686 247.285 80.6334 247.427 80.6334C247.563 80.6334 247.68 80.686 247.779 80.791C247.884 80.8899 247.937 81.0104 247.937 81.1525C247.937 81.2946 247.884 81.4151 247.779 81.5139C247.68 81.6128 247.563 81.6622 247.427 81.6622ZM247.436 85.3047C247.294 85.3047 247.173 85.2552 247.075 85.1564C246.976 85.0513 246.926 84.9278 246.926 84.7856C246.926 84.6435 246.976 84.523 247.075 84.4242C247.173 84.3253 247.294 84.2759 247.436 84.2759C247.578 84.2759 247.699 84.3253 247.798 84.4242C247.903 84.523 247.955 84.6435 247.955 84.7856C247.955 84.9278 247.903 85.0513 247.798 85.1564C247.699 85.2552 247.578 85.3047 247.436 85.3047ZM253.386 85.3974C253.071 85.3974 252.784 85.351 252.524 85.2583C252.271 85.1595 252.052 85.0328 251.866 84.8783C251.687 84.7239 251.545 84.5601 251.44 84.3871L252.089 84.0256C252.157 84.1121 252.24 84.211 252.339 84.3222C252.444 84.4273 252.577 84.5169 252.738 84.591C252.898 84.6652 253.096 84.7022 253.331 84.7022C253.751 84.7022 254.088 84.5817 254.341 84.3408C254.594 84.0998 254.721 83.797 254.721 83.4325C254.721 83.1544 254.644 82.9196 254.489 82.7281C254.341 82.5365 254.125 82.3913 253.84 82.2925C253.556 82.1936 253.216 82.1442 252.821 82.1442H252.645V81.5325H252.802C253.192 81.5325 253.55 81.5757 253.878 81.6622C254.205 81.7487 254.489 81.8754 254.73 82.0422C254.977 82.2091 255.166 82.413 255.296 82.6539C255.431 82.8949 255.499 83.173 255.499 83.4881C255.499 83.8712 255.404 84.2079 255.212 84.4983C255.027 84.7826 254.773 85.005 254.452 85.1656C254.131 85.3201 253.776 85.3974 253.386 85.3974ZM252.645 82.0793V81.4769H252.821C253.352 81.4769 253.772 81.3873 254.081 81.2081C254.397 81.0227 254.554 80.7601 254.554 80.4203C254.554 80.2349 254.505 80.065 254.406 79.9105C254.307 79.7499 254.162 79.6232 253.97 79.5305C253.785 79.4317 253.569 79.3822 253.321 79.3822C253.155 79.3822 252.997 79.4069 252.849 79.4564C252.707 79.4996 252.574 79.5676 252.45 79.6603C252.333 79.7468 252.225 79.858 252.126 79.9939L251.514 79.6417C251.631 79.4502 251.78 79.2834 251.959 79.1413C252.144 78.9991 252.354 78.8879 252.589 78.8076C252.824 78.7273 253.08 78.6871 253.358 78.6871C253.735 78.6871 254.072 78.7613 254.369 78.9095C254.671 79.0578 254.909 79.2617 255.082 79.5213C255.255 79.7746 255.342 80.0619 255.342 80.3832C255.342 80.6551 255.277 80.8961 255.147 81.1061C255.018 81.3162 254.835 81.4954 254.6 81.6437C254.372 81.792 254.103 81.9032 253.794 81.9774C253.491 82.0453 253.161 82.0793 252.802 82.0793H252.645ZM258.409 78.6871C258.866 78.6871 259.243 78.7736 259.54 78.9466C259.837 79.1134 260.074 79.3421 260.254 79.6325C260.439 79.9229 260.569 80.2596 260.643 80.6427C260.723 81.0196 260.763 81.4213 260.763 81.8476C260.763 82.4037 260.705 82.9011 260.587 83.3398C260.47 83.7785 260.303 84.1523 260.087 84.4613C259.871 84.764 259.608 84.9957 259.299 85.1564C258.996 85.317 258.65 85.3974 258.261 85.3974C257.94 85.3974 257.618 85.3479 257.297 85.2491C256.982 85.144 256.698 85.0019 256.444 84.8227L256.88 84.2666C257.078 84.4026 257.291 84.5107 257.519 84.591C257.754 84.6652 257.977 84.7022 258.187 84.7022C258.817 84.7022 259.296 84.4365 259.623 83.9052C259.957 83.3738 260.102 82.5705 260.059 81.4954L260.226 81.653C260.077 82.0299 259.84 82.3295 259.512 82.552C259.185 82.7744 258.798 82.8856 258.354 82.8856C257.933 82.8856 257.563 82.7961 257.241 82.6169C256.92 82.4315 256.667 82.1813 256.481 81.8661C256.302 81.551 256.213 81.1865 256.213 80.7725C256.213 80.3647 256.305 80.0063 256.491 79.6974C256.676 79.3822 256.932 79.1351 257.26 78.9559C257.594 78.7767 257.977 78.6871 258.409 78.6871ZM258.409 79.373C258.137 79.373 257.893 79.4348 257.677 79.5583C257.461 79.6757 257.291 79.8426 257.167 80.0588C257.05 80.2689 256.991 80.513 256.991 80.791C256.991 81.0691 257.05 81.3162 257.167 81.5325C257.291 81.7426 257.461 81.9094 257.677 82.033C257.893 82.1504 258.137 82.2091 258.409 82.2091C258.693 82.2091 258.941 82.1504 259.151 82.033C259.367 81.9094 259.534 81.7426 259.651 81.5325C259.775 81.3162 259.837 81.0691 259.837 80.791C259.837 80.513 259.775 80.2689 259.651 80.0588C259.534 79.8426 259.367 79.6757 259.151 79.5583C258.941 79.4348 258.693 79.373 258.409 79.373ZM264.15 85.3974C263.656 85.3974 263.217 85.2552 262.834 84.971C262.451 84.6806 262.151 84.2852 261.935 83.7847C261.719 83.278 261.611 82.6972 261.611 82.0422C261.611 81.3873 261.719 80.8095 261.935 80.3091C262.151 79.8024 262.448 79.4069 262.825 79.1227C263.208 78.8323 263.65 78.6871 264.15 78.6871C264.651 78.6871 265.089 78.8323 265.466 79.1227C265.849 79.4069 266.149 79.8024 266.365 80.3091C266.588 80.8095 266.699 81.3873 266.699 82.0422C266.699 82.6972 266.591 83.278 266.374 83.7847C266.158 84.2852 265.858 84.6806 265.475 84.971C265.092 85.2552 264.651 85.3974 264.15 85.3974ZM264.15 84.693C264.496 84.693 264.802 84.5787 265.068 84.35C265.339 84.1214 265.55 83.8094 265.698 83.4139C265.852 83.0185 265.93 82.5613 265.93 82.0422C265.93 81.5232 265.852 81.066 265.698 80.6705C265.55 80.2689 265.339 79.9569 265.068 79.7344C264.802 79.5058 264.496 79.3915 264.15 79.3915C263.804 79.3915 263.498 79.5058 263.232 79.7344C262.967 79.9569 262.757 80.2689 262.602 80.6705C262.454 81.066 262.38 81.5232 262.38 82.0422C262.38 82.5613 262.454 83.0185 262.602 83.4139C262.757 83.8094 262.967 84.1214 263.232 84.35C263.504 84.5787 263.81 84.693 264.15 84.693Z" fill="#465762"/>
<path d="M213.958 85.2861L209.482 79.2339L210.094 78.7983L214.57 84.8413L213.958 85.2861ZM209.297 85.2861V78.7983H210.094L210.084 79.4193V85.2861H209.297ZM213.958 85.2861V78.7983H214.746V85.2861H213.958ZM218.291 85.3974C217.84 85.3974 217.441 85.2954 217.095 85.0915C216.749 84.8814 216.477 84.5941 216.279 84.2295C216.088 83.865 215.992 83.4448 215.992 82.9691C215.992 82.4933 216.088 82.0731 216.279 81.7086C216.477 81.344 216.746 81.0598 217.086 80.8559C217.432 80.6458 217.827 80.5408 218.272 80.5408C218.698 80.5408 219.069 80.6489 219.384 80.8652C219.706 81.0752 219.953 81.3718 220.126 81.7549C220.299 82.138 220.385 82.5891 220.385 83.1081H219.644C219.644 82.7126 219.591 82.3759 219.486 82.0978C219.381 81.8136 219.224 81.5943 219.014 81.4398C218.81 81.2853 218.559 81.2081 218.263 81.2081C217.96 81.2081 217.691 81.2822 217.456 81.4305C217.228 81.5726 217.052 81.7765 216.928 82.0422C216.805 82.3079 216.743 82.62 216.743 82.9783C216.743 83.3305 216.811 83.6364 216.947 83.8959C217.083 84.1492 217.271 84.35 217.512 84.4983C217.753 84.6404 218.025 84.7115 218.328 84.7115C218.649 84.7115 218.921 84.6343 219.143 84.4798C219.366 84.3253 219.542 84.1245 219.672 83.8774L220.32 84.2017C220.203 84.4427 220.045 84.6528 219.848 84.832C219.656 85.0112 219.428 85.1502 219.162 85.2491C218.902 85.3479 218.612 85.3974 218.291 85.3974ZM216.483 83.1081L216.493 82.4686H219.931V83.1081H216.483ZM223.174 87.251C222.877 87.251 222.606 87.2201 222.358 87.1583C222.117 87.1027 221.91 87.0378 221.737 86.9637C221.571 86.8957 221.45 86.837 221.376 86.7876L221.654 86.1852C221.734 86.2284 221.849 86.2809 221.997 86.3427C222.145 86.4107 222.318 86.4663 222.516 86.5095C222.72 86.559 222.936 86.5837 223.165 86.5837C223.461 86.5837 223.727 86.5219 223.962 86.3983C224.203 86.2809 224.388 86.0925 224.518 85.833C224.654 85.5796 224.722 85.2521 224.722 84.8505V80.652H225.463V84.8413C225.463 85.3726 225.364 85.8175 225.167 86.1759C224.969 86.5343 224.697 86.803 224.351 86.9822C224.005 87.1614 223.613 87.251 223.174 87.251ZM223.146 85.2491C222.732 85.2491 222.368 85.1502 222.053 84.9525C221.737 84.7548 221.49 84.4798 221.311 84.1276C221.138 83.7692 221.052 83.3614 221.052 82.9042C221.052 82.4346 221.138 82.0237 221.311 81.6715C221.49 81.3131 221.737 81.0351 222.053 80.8374C222.368 80.6396 222.732 80.5408 223.146 80.5408C223.536 80.5408 223.875 80.6396 224.166 80.8374C224.456 81.0351 224.682 81.3131 224.842 81.6715C225.009 82.0237 225.093 82.4346 225.093 82.9042C225.093 83.3676 225.009 83.7754 224.842 84.1276C224.682 84.4798 224.456 84.7548 224.166 84.9525C223.875 85.1502 223.536 85.2491 223.146 85.2491ZM223.322 84.6095C223.594 84.6095 223.835 84.5354 224.045 84.3871C224.255 84.2388 224.419 84.038 224.536 83.7847C224.654 83.5252 224.713 83.2255 224.713 82.8856C224.713 82.5582 224.651 82.2678 224.527 82.0144C224.41 81.7549 224.246 81.5541 224.036 81.412C223.832 81.2637 223.591 81.1895 223.313 81.1895C223.023 81.1895 222.763 81.2637 222.535 81.412C222.312 81.5541 222.136 81.7549 222.006 82.0144C221.883 82.2678 221.821 82.5582 221.821 82.8856C221.821 83.2255 221.886 83.5252 222.016 83.7847C222.145 84.038 222.321 84.2388 222.544 84.3871C222.772 84.5354 223.032 84.6095 223.322 84.6095ZM229.615 85.2861L229.568 84.5261V82.8393C229.568 82.4748 229.525 82.1751 229.439 81.9403C229.358 81.6993 229.232 81.5201 229.059 81.4027C228.892 81.2791 228.669 81.2174 228.391 81.2174C228.126 81.2174 227.894 81.2699 227.696 81.3749C227.505 81.48 227.347 81.6437 227.223 81.8661L226.556 81.5974C226.68 81.3811 226.828 81.1926 227.001 81.032C227.174 80.8713 227.375 80.7508 227.603 80.6705C227.838 80.584 228.104 80.5408 228.401 80.5408C228.827 80.5408 229.182 80.6242 229.466 80.791C229.751 80.9578 229.964 81.2081 230.106 81.5417C230.248 81.8692 230.316 82.2801 230.31 82.7744L230.301 85.2861H229.615ZM228.224 85.3974C227.681 85.3974 227.254 85.2738 226.945 85.0266C226.643 84.7733 226.491 84.4242 226.491 83.9793C226.491 83.5097 226.646 83.1513 226.955 82.9042C227.27 82.6508 227.709 82.5242 228.271 82.5242H229.596V83.1452H228.438C228.005 83.1452 227.696 83.2162 227.511 83.3583C227.332 83.5004 227.242 83.7043 227.242 83.97C227.242 84.211 227.332 84.4026 227.511 84.5447C227.69 84.6806 227.94 84.7486 228.262 84.7486C228.527 84.7486 228.759 84.6868 228.957 84.5632C229.154 84.4396 229.306 84.2728 229.411 84.0627C229.516 83.8465 229.568 83.6024 229.568 83.3305H230.023C230.023 83.9608 229.868 84.4643 229.559 84.8413C229.25 85.212 228.805 85.3974 228.224 85.3974ZM233.227 85.3974C232.776 85.3974 232.427 85.28 232.18 85.0452C231.933 84.8104 231.809 84.4798 231.809 84.0534V79.2061H232.551V83.9793C232.551 84.2141 232.612 84.3964 232.736 84.5261C232.866 84.6497 233.045 84.7115 233.274 84.7115C233.348 84.7115 233.419 84.7022 233.487 84.6837C233.561 84.659 233.657 84.6034 233.774 84.5169L234.061 85.1193C233.901 85.2243 233.755 85.2954 233.626 85.3325C233.496 85.3757 233.363 85.3974 233.227 85.3974ZM231.003 81.31V80.652H233.941V81.31H231.003ZM235.034 85.2861L235.052 80.652H235.794L235.775 85.2861H235.034ZM235.414 79.5769C235.29 79.5769 235.182 79.5305 235.089 79.4378C234.997 79.3452 234.95 79.237 234.95 79.1134C234.95 78.9837 234.997 78.8756 235.089 78.7891C235.182 78.6964 235.29 78.65 235.414 78.65C235.544 78.65 235.652 78.6964 235.738 78.7891C235.831 78.8756 235.877 78.9837 235.877 79.1134C235.877 79.237 235.831 79.3452 235.738 79.4378C235.652 79.5305 235.544 79.5769 235.414 79.5769ZM238.56 85.2861L240.45 80.652H241.229L239.292 85.2861H238.56ZM238.513 85.2861L236.576 80.652H237.346L239.236 85.2861H238.513ZM243.878 85.3974C243.427 85.3974 243.028 85.2954 242.682 85.0915C242.336 84.8814 242.064 84.5941 241.867 84.2295C241.675 83.865 241.579 83.4448 241.579 82.9691C241.579 82.4933 241.675 82.0731 241.867 81.7086C242.064 81.344 242.333 81.0598 242.673 80.8559C243.019 80.6458 243.415 80.5408 243.859 80.5408C244.286 80.5408 244.657 80.6489 244.972 80.8652C245.293 81.0752 245.54 81.3718 245.713 81.7549C245.886 82.138 245.973 82.5891 245.973 83.1081H245.231C245.231 82.7126 245.179 82.3759 245.074 82.0978C244.969 81.8136 244.811 81.5943 244.601 81.4398C244.397 81.2853 244.147 81.2081 243.85 81.2081C243.547 81.2081 243.279 81.2822 243.044 81.4305C242.815 81.5726 242.639 81.7765 242.516 82.0422C242.392 82.3079 242.33 82.62 242.33 82.9783C242.33 83.3305 242.398 83.6364 242.534 83.8959C242.67 84.1492 242.858 84.35 243.099 84.4983C243.34 84.6404 243.612 84.7115 243.915 84.7115C244.236 84.7115 244.508 84.6343 244.731 84.4798C244.953 84.3253 245.129 84.1245 245.259 83.8774L245.908 84.2017C245.79 84.4427 245.633 84.6528 245.435 84.832C245.243 85.0112 245.015 85.1502 244.749 85.2491C244.49 85.3479 244.199 85.3974 243.878 85.3974ZM242.071 83.1081L242.08 82.4686H245.518V83.1081H242.071ZM247.427 81.6622C247.285 81.6622 247.161 81.6128 247.056 81.5139C246.957 81.4151 246.908 81.2946 246.908 81.1525C246.908 81.0104 246.957 80.8899 247.056 80.791C247.161 80.686 247.285 80.6334 247.427 80.6334C247.563 80.6334 247.68 80.686 247.779 80.791C247.884 80.8899 247.937 81.0104 247.937 81.1525C247.937 81.2946 247.884 81.4151 247.779 81.5139C247.68 81.6128 247.563 81.6622 247.427 81.6622ZM247.436 85.3047C247.294 85.3047 247.173 85.2552 247.075 85.1564C246.976 85.0513 246.926 84.9278 246.926 84.7856C246.926 84.6435 246.976 84.523 247.075 84.4242C247.173 84.3253 247.294 84.2759 247.436 84.2759C247.578 84.2759 247.699 84.3253 247.798 84.4242C247.903 84.523 247.955 84.6435 247.955 84.7856C247.955 84.9278 247.903 85.0513 247.798 85.1564C247.699 85.2552 247.578 85.3047 247.436 85.3047ZM253.386 85.3974C253.071 85.3974 252.784 85.351 252.524 85.2583C252.271 85.1595 252.052 85.0328 251.866 84.8783C251.687 84.7239 251.545 84.5601 251.44 84.3871L252.089 84.0256C252.157 84.1121 252.24 84.211 252.339 84.3222C252.444 84.4273 252.577 84.5169 252.738 84.591C252.898 84.6652 253.096 84.7022 253.331 84.7022C253.751 84.7022 254.088 84.5817 254.341 84.3408C254.594 84.0998 254.721 83.797 254.721 83.4325C254.721 83.1544 254.644 82.9196 254.489 82.7281C254.341 82.5365 254.125 82.3913 253.84 82.2925C253.556 82.1936 253.216 82.1442 252.821 82.1442H252.645V81.5325H252.802C253.192 81.5325 253.55 81.5757 253.878 81.6622C254.205 81.7487 254.489 81.8754 254.73 82.0422C254.977 82.2091 255.166 82.413 255.296 82.6539C255.431 82.8949 255.499 83.173 255.499 83.4881C255.499 83.8712 255.404 84.2079 255.212 84.4983C255.027 84.7826 254.773 85.005 254.452 85.1656C254.131 85.3201 253.776 85.3974 253.386 85.3974ZM252.645 82.0793V81.4769H252.821C253.352 81.4769 253.772 81.3873 254.081 81.2081C254.397 81.0227 254.554 80.7601 254.554 80.4203C254.554 80.2349 254.505 80.065 254.406 79.9105C254.307 79.7499 254.162 79.6232 253.97 79.5305C253.785 79.4317 253.569 79.3822 253.321 79.3822C253.155 79.3822 252.997 79.4069 252.849 79.4564C252.707 79.4996 252.574 79.5676 252.45 79.6603C252.333 79.7468 252.225 79.858 252.126 79.9939L251.514 79.6417C251.631 79.4502 251.78 79.2834 251.959 79.1413C252.144 78.9991 252.354 78.8879 252.589 78.8076C252.824 78.7273 253.08 78.6871 253.358 78.6871C253.735 78.6871 254.072 78.7613 254.369 78.9095C254.671 79.0578 254.909 79.2617 255.082 79.5213C255.255 79.7746 255.342 80.0619 255.342 80.3832C255.342 80.6551 255.277 80.8961 255.147 81.1061C255.018 81.3162 254.835 81.4954 254.6 81.6437C254.372 81.792 254.103 81.9032 253.794 81.9774C253.491 82.0453 253.161 82.0793 252.802 82.0793H252.645ZM258.409 78.6871C258.866 78.6871 259.243 78.7736 259.54 78.9466C259.837 79.1134 260.074 79.3421 260.254 79.6325C260.439 79.9229 260.569 80.2596 260.643 80.6427C260.723 81.0196 260.763 81.4213 260.763 81.8476C260.763 82.4037 260.705 82.9011 260.587 83.3398C260.47 83.7785 260.303 84.1523 260.087 84.4613C259.871 84.764 259.608 84.9957 259.299 85.1564C258.996 85.317 258.65 85.3974 258.261 85.3974C257.94 85.3974 257.618 85.3479 257.297 85.2491C256.982 85.144 256.698 85.0019 256.444 84.8227L256.88 84.2666C257.078 84.4026 257.291 84.5107 257.519 84.591C257.754 84.6652 257.977 84.7022 258.187 84.7022C258.817 84.7022 259.296 84.4365 259.623 83.9052C259.957 83.3738 260.102 82.5705 260.059 81.4954L260.226 81.653C260.077 82.0299 259.84 82.3295 259.512 82.552C259.185 82.7744 258.798 82.8856 258.354 82.8856C257.933 82.8856 257.563 82.7961 257.241 82.6169C256.92 82.4315 256.667 82.1813 256.481 81.8661C256.302 81.551 256.213 81.1865 256.213 80.7725C256.213 80.3647 256.305 80.0063 256.491 79.6974C256.676 79.3822 256.932 79.1351 257.26 78.9559C257.594 78.7767 257.977 78.6871 258.409 78.6871ZM258.409 79.373C258.137 79.373 257.893 79.4348 257.677 79.5583C257.461 79.6757 257.291 79.8426 257.167 80.0588C257.05 80.2689 256.991 80.513 256.991 80.791C256.991 81.0691 257.05 81.3162 257.167 81.5325C257.291 81.7426 257.461 81.9094 257.677 82.033C257.893 82.1504 258.137 82.2091 258.409 82.2091C258.693 82.2091 258.941 82.1504 259.151 82.033C259.367 81.9094 259.534 81.7426 259.651 81.5325C259.775 81.3162 259.837 81.0691 259.837 80.791C259.837 80.513 259.775 80.2689 259.651 80.0588C259.534 79.8426 259.367 79.6757 259.151 79.5583C258.941 79.4348 258.693 79.373 258.409 79.373ZM264.15 85.3974C263.656 85.3974 263.217 85.2552 262.834 84.971C262.451 84.6806 262.151 84.2852 261.935 83.7847C261.719 83.278 261.611 82.6972 261.611 82.0422C261.611 81.3873 261.719 80.8095 261.935 80.3091C262.151 79.8024 262.448 79.4069 262.825 79.1227C263.208 78.8323 263.65 78.6871 264.15 78.6871C264.651 78.6871 265.089 78.8323 265.466 79.1227C265.849 79.4069 266.149 79.8024 266.365 80.3091C266.588 80.8095 266.699 81.3873 266.699 82.0422C266.699 82.6972 266.591 83.278 266.374 83.7847C266.158 84.2852 265.858 84.6806 265.475 84.971C265.092 85.2552 264.651 85.3974 264.15 85.3974ZM264.15 84.693C264.496 84.693 264.802 84.5787 265.068 84.35C265.339 84.1214 265.55 83.8094 265.698 83.4139C265.852 83.0185 265.93 82.5613 265.93 82.0422C265.93 81.5232 265.852 81.066 265.698 80.6705C265.55 80.2689 265.339 79.9569 265.068 79.7344C264.802 79.5058 264.496 79.3915 264.15 79.3915C263.804 79.3915 263.498 79.5058 263.232 79.7344C262.967 79.9569 262.757 80.2689 262.602 80.6705C262.454 81.066 262.38 81.5232 262.38 82.0422C262.38 82.5613 262.454 83.0185 262.602 83.4139C262.757 83.8094 262.967 84.1214 263.232 84.35C263.504 84.5787 263.81 84.693 264.15 84.693Z" fill="white" fill-opacity="0.2"/>
<circle cx="199.166" cy="81.3415" r="3.37029" fill="#FFAE41"/>
<circle cx="199.166" cy="81.3415" r="3.37029" fill="white" fill-opacity="0.4"/>
<path d="M199.744 45.3317L196.649 40.7902L197.131 40.6141L197.714 40.5122L200.291 44.3122L199.744 45.3317ZM196.565 47V40.5122H197.64V47H196.565ZM199.744 45.3317L199.216 44.3122L201.774 40.5122L202.367 40.6141L202.84 40.7717L199.744 45.3317ZM201.857 47V40.5122H202.932V47H201.857ZM207.08 47L207.034 46.1288V44.618C207.034 44.3029 207 44.0403 206.932 43.8302C206.864 43.6202 206.756 43.4595 206.608 43.3483C206.466 43.2371 206.277 43.1815 206.042 43.1815C205.826 43.1815 205.635 43.2278 205.468 43.3205C205.301 43.4132 205.162 43.5553 205.051 43.7468L204.105 43.4132C204.21 43.2093 204.346 43.0177 204.513 42.8385C204.68 42.6593 204.89 42.5172 205.143 42.4122C205.403 42.3072 205.709 42.2546 206.061 42.2546C206.512 42.2546 206.886 42.338 207.182 42.5049C207.485 42.6717 207.711 42.9189 207.859 43.2463C208.007 43.5738 208.081 43.9785 208.081 44.4605L208.054 47H207.08ZM205.764 47.1112C205.208 47.1112 204.776 46.9876 204.467 46.7405C204.164 46.4933 204.013 46.1442 204.013 45.6932C204.013 45.2112 204.173 44.8436 204.495 44.5902C204.822 44.3369 205.276 44.2102 205.857 44.2102H207.099V45.0073H206.191C205.777 45.0073 205.486 45.066 205.319 45.1834C205.153 45.2946 205.069 45.4553 205.069 45.6654C205.069 45.8446 205.14 45.9867 205.282 46.0917C205.431 46.1906 205.635 46.24 205.894 46.24C206.123 46.24 206.32 46.1875 206.487 46.0824C206.66 45.9712 206.793 45.8291 206.886 45.6561C206.985 45.4769 207.034 45.2854 207.034 45.0815H207.414C207.414 45.7117 207.278 46.2091 207.006 46.5737C206.741 46.932 206.327 47.1112 205.764 47.1112ZM209.765 48.9649C209.617 48.9649 209.45 48.9371 209.265 48.8815C209.085 48.8259 208.912 48.7548 208.746 48.6683L209.135 47.8249C209.252 47.8805 209.36 47.9237 209.459 47.9546C209.558 47.9917 209.639 48.0102 209.7 48.0102C209.849 48.0102 209.972 47.9701 210.071 47.8898C210.176 47.8156 210.259 47.7044 210.321 47.5561L210.868 46.2771L212.434 42.3659H213.565L211.415 47.4912C211.285 47.7878 211.152 48.0473 211.016 48.2698C210.887 48.4922 210.723 48.6621 210.525 48.7795C210.327 48.9031 210.074 48.9649 209.765 48.9649ZM210.59 47L208.514 42.3659H209.645L211.257 46.2678L211.591 47H210.59ZM217.392 46.6571L216.344 46.1751C216.344 45.9836 216.394 45.7859 216.493 45.582C216.592 45.3719 216.731 45.1618 216.91 44.9517C217.095 44.7416 217.311 44.5439 217.559 44.3585L218.689 43.5429C218.831 43.4441 218.961 43.3298 219.079 43.2C219.202 43.0702 219.301 42.9343 219.375 42.7922C219.449 42.6439 219.486 42.4987 219.486 42.3566C219.486 42.1774 219.44 42.0137 219.347 41.8654C219.261 41.7171 219.134 41.5997 218.967 41.5132C218.807 41.4267 218.609 41.3834 218.374 41.3834C218.164 41.3834 217.976 41.4267 217.809 41.5132C217.648 41.5935 217.515 41.7016 217.41 41.8376C217.305 41.9735 217.231 42.1218 217.188 42.2824L216.085 42.0785C216.147 41.782 216.277 41.507 216.474 41.2537C216.678 40.9941 216.938 40.7872 217.253 40.6327C217.574 40.4782 217.939 40.401 218.346 40.401C218.804 40.401 219.199 40.4844 219.533 40.6512C219.873 40.818 220.132 41.0498 220.311 41.3463C220.497 41.6367 220.589 41.9704 220.589 42.3473C220.589 42.7304 220.484 43.0764 220.274 43.3854C220.07 43.6881 219.783 43.9785 219.412 44.2566L218.374 45.0259C218.201 45.1494 218.038 45.2915 217.883 45.4522C217.735 45.6067 217.614 45.7828 217.522 45.9805C217.435 46.1782 217.392 46.4037 217.392 46.6571ZM216.344 47V46.1751L217.142 46.0454H220.673V47H216.344ZM224.123 47.1112C223.617 47.1112 223.166 46.9691 222.77 46.6849C222.375 46.3945 222.063 45.999 221.834 45.4985C221.612 44.9919 221.5 44.4111 221.5 43.7561C221.5 43.1011 221.612 42.5234 221.834 42.0229C222.063 41.5163 222.372 41.1208 222.761 40.8366C223.156 40.5462 223.61 40.401 224.123 40.401C224.636 40.401 225.09 40.5462 225.486 40.8366C225.881 41.1208 226.19 41.5163 226.413 42.0229C226.641 42.5234 226.755 43.1011 226.755 43.7561C226.755 44.4111 226.641 44.9919 226.413 45.4985C226.19 45.999 225.881 46.3945 225.486 46.6849C225.096 46.9691 224.642 47.1112 224.123 47.1112ZM224.133 46.138C224.435 46.138 224.704 46.0361 224.939 45.8322C225.18 45.6283 225.365 45.3472 225.495 44.9888C225.631 44.6304 225.699 44.2195 225.699 43.7561C225.699 43.2927 225.631 42.8818 225.495 42.5234C225.365 42.1589 225.18 41.8746 224.939 41.6707C224.704 41.4668 224.432 41.3649 224.123 41.3649C223.814 41.3649 223.542 41.4668 223.308 41.6707C223.073 41.8746 222.888 42.1558 222.752 42.5141C222.622 42.8725 222.557 43.2865 222.557 43.7561C222.557 44.2195 222.622 44.6304 222.752 44.9888C222.888 45.3472 223.073 45.6283 223.308 45.8322C223.549 46.0361 223.824 46.138 224.133 46.138ZM228.66 46.6571L227.613 46.1751C227.613 45.9836 227.663 45.7859 227.761 45.582C227.86 45.3719 227.999 45.1618 228.178 44.9517C228.364 44.7416 228.58 44.5439 228.827 44.3585L229.958 43.5429C230.1 43.4441 230.23 43.3298 230.347 43.2C230.471 43.0702 230.57 42.9343 230.644 42.7922C230.718 42.6439 230.755 42.4987 230.755 42.3566C230.755 42.1774 230.709 42.0137 230.616 41.8654C230.529 41.7171 230.403 41.5997 230.236 41.5132C230.075 41.4267 229.878 41.3834 229.643 41.3834C229.433 41.3834 229.244 41.4267 229.077 41.5132C228.917 41.5935 228.784 41.7016 228.679 41.8376C228.574 41.9735 228.5 42.1218 228.456 42.2824L227.354 42.0785C227.415 41.782 227.545 41.507 227.743 41.2537C227.947 40.9941 228.206 40.7872 228.521 40.6327C228.843 40.4782 229.207 40.401 229.615 40.401C230.072 40.401 230.468 40.4844 230.801 40.6512C231.141 40.818 231.401 41.0498 231.58 41.3463C231.765 41.6367 231.858 41.9704 231.858 42.3473C231.858 42.7304 231.753 43.0764 231.543 43.3854C231.339 43.6881 231.052 43.9785 230.681 44.2566L229.643 45.0259C229.47 45.1494 229.306 45.2915 229.152 45.4522C229.003 45.6067 228.883 45.7828 228.79 45.9805C228.704 46.1782 228.66 46.4037 228.66 46.6571ZM227.613 47V46.1751L228.41 46.0454H231.941V47H227.613ZM234.966 47.1112C234.613 47.1112 234.292 47.0587 234.002 46.9537C233.711 46.8486 233.467 46.7003 233.269 46.5088C233.072 46.3172 232.93 46.101 232.843 45.86L233.807 45.4985C233.856 45.585 233.924 45.6808 234.011 45.7859C234.097 45.8909 234.212 45.9836 234.354 46.0639C234.496 46.138 234.678 46.1751 234.901 46.1751C235.253 46.1751 235.531 46.0763 235.735 45.8785C235.945 45.6746 236.05 45.4182 236.05 45.1093C236.05 44.8868 235.991 44.6953 235.874 44.5346C235.763 44.374 235.586 44.2504 235.346 44.1639C235.111 44.0774 234.814 44.0341 234.456 44.0341H234.159V43.2741H234.428C234.805 43.2741 235.154 43.3174 235.475 43.4039C235.803 43.4904 236.09 43.6202 236.337 43.7932C236.591 43.96 236.785 44.1639 236.921 44.4049C237.063 44.6459 237.134 44.9177 237.134 45.2205C237.134 45.6098 237.032 45.9465 236.828 46.2307C236.631 46.515 236.368 46.7343 236.041 46.8888C235.713 47.0371 235.355 47.1112 234.966 47.1112ZM234.159 43.8673V43.1444H234.456C234.932 43.1444 235.293 43.0641 235.54 42.9034C235.787 42.7428 235.911 42.5172 235.911 42.2268C235.911 42.06 235.868 41.9117 235.781 41.782C235.701 41.646 235.583 41.5379 235.429 41.4576C235.274 41.3772 235.092 41.3371 234.882 41.3371C234.746 41.3371 234.613 41.3587 234.484 41.402C234.354 41.4452 234.233 41.5132 234.122 41.6059C234.011 41.6985 233.918 41.819 233.844 41.9673L232.908 41.6244C233.001 41.3649 233.149 41.1455 233.353 40.9663C233.557 40.781 233.795 40.642 234.066 40.5493C234.338 40.4504 234.623 40.401 234.919 40.401C235.315 40.401 235.667 40.4751 235.976 40.6234C236.291 40.7717 236.538 40.9787 236.717 41.2444C236.903 41.5039 236.995 41.8036 236.995 42.1434C236.995 42.4276 236.924 42.6779 236.782 42.8941C236.646 43.1104 236.458 43.2927 236.217 43.441C235.976 43.5831 235.701 43.6912 235.392 43.7654C235.089 43.8333 234.765 43.8673 234.419 43.8673H234.159Z" fill="#464255"/>
<line x1="196" y1="53.9468" x2="273" y2="53.9468" stroke="#DCDCDC" stroke-width="0.421286"/>
<defs>
<filter id="filter0_d_544_10375" x="251.443" y="107.619" width="31.1752" height="31.1752" filterUnits="userSpaceOnUse" color-interpolation-filters="sRGB">
<feFlood flood-opacity="0" result="BackgroundImageFix"/>
<feColorMatrix in="SourceAlpha" type="matrix" values="0 0 0 0 0 0 0 0 0 0 0 0 0 0 0 0 0 0 127 0" result="hardAlpha"/>
<feOffset dy="3.37029"/>
<feGaussianBlur stdDeviation="3.37029"/>
<feColorMatrix type="matrix" values="0 0 0 0 0 0 0 0 0 0 0 0 0 0 0 0 0 0 0.04 0"/>
<feBlend mode="normal" in2="BackgroundImageFix" result="effect1_dropShadow_544_10375"/>
<feBlend mode="normal" in="SourceGraphic" in2="effect1_dropShadow_544_10375" result="shape"/>
</filter>
<filter id="filter1_d_544_10375" x="176.945" y="26.6297" width="115.111" height="87.1109" filterUnits="userSpaceOnUse" color-interpolation-filters="sRGB">
<feFlood flood-opacity="0" result="BackgroundImageFix"/>
<feColorMatrix in="SourceAlpha" type="matrix" values="0 0 0 0 0 0 0 0 0 0 0 0 0 0 0 0 0 0 127 0" result="hardAlpha"/>
<feOffset dy="1.68514"/>
<feGaussianBlur stdDeviation="2.52772"/>
<feComposite in2="hardAlpha" operator="out"/>
<feColorMatrix type="matrix" values="0 0 0 0 0.564706 0 0 0 0 0.572549 0 0 0 0 0.580392 0 0 0 0.2 0"/>
<feBlend mode="normal" in2="BackgroundImageFix" result="effect1_dropShadow_544_10375"/>
<feBlend mode="normal" in="SourceGraphic" in2="effect1_dropShadow_544_10375" result="shape"/>
</filter>
</defs>
</svg>
