<svg width="498" height="139" viewBox="0 0 498 139" fill="none" xmlns="http://www.w3.org/2000/svg">
<path fill-rule="evenodd" clip-rule="evenodd" d="M497.965 104.189C493.678 103.512 488.567 100.918 482.089 96.1866C474.759 90.8332 465.897 83.149 457.142 75.5588C446.934 66.7084 436.874 57.9858 429.564 53.2353C416.067 44.4647 399.849 52.2161 399.651 52.3113L399.648 52.3125L399.648 52.3127C399.4 52.4321 360.551 71.1702 348.329 76.2456C347.563 76.5636 346.828 76.9135 346.082 77.2688L345.877 77.3664C341.985 79.2167 329.38 84.1755 318.781 76.7531C306.629 68.2431 265.264 17.8376 261.67 13.445C261.484 13.2179 261.322 13.0275 261.121 12.8134C253.132 4.29099 239.403 4.93153 232.249 14.2613C225.005 23.7085 192.676 54.5289 179.599 64.8097C178.212 65.9 176.978 66.8934 175.863 67.7914C166.459 75.3605 165.479 76.1501 152.44 71.0669C143.49 67.5778 128.555 61.028 115.654 55.3703C107.531 51.8077 100.214 48.5988 95.7058 46.7307C93.6018 45.8588 91.7791 44.9806 90.1335 44.1876C82.6541 40.5838 78.8325 38.7424 68.8834 47.2681C59.227 55.543 20.0958 89.9205 4.49815 103.632C0.372135 107.259 -1.96472 112.463 -1.96472 117.957V138.95H497.965V104.189Z" fill="#5655D7" fill-opacity="0.08"/>
<path fill-rule="evenodd" clip-rule="evenodd" d="M504 99.0336V144.985H-8V117.957C-8 110.741 -4.92583 103.881 0.513462 99.0991C16.089 85.4071 55.2622 50.9924 64.9563 42.6852C70.2192 38.1753 74.9505 35.4076 80.1368 35.1513C84.84 34.9188 88.9379 36.9033 92.2163 38.4909C92.3978 38.5788 92.5769 38.6655 92.7534 38.7505C94.4069 39.5473 96.0886 40.3563 98.0164 41.1552C102.581 43.0469 109.937 46.2728 118 49.8089L118.078 49.8431C131.037 55.526 145.829 62.0118 154.632 65.4438C161.544 68.1382 163.414 68.4051 164.523 68.2204C164.927 68.1531 165.542 67.9611 166.764 67.1614C168.078 66.3015 169.642 65.0514 172.078 63.09L172.088 63.0825C173.199 62.1877 174.455 61.1765 175.869 60.0651C182.162 55.1178 193.335 45.0151 203.937 34.8637C214.634 24.6212 224.171 14.8779 227.46 10.5888C236.885 -1.70194 254.992 -2.55045 265.524 8.68575C265.85 9.03328 266.105 9.33554 266.34 9.62256C268.125 11.8038 279.324 25.4529 291.579 39.604C297.71 46.6833 304.07 53.8477 309.63 59.7506C315.337 65.8091 319.793 70.0937 322.243 71.8095C326 74.4405 330.202 74.9737 334.188 74.5375C338.226 74.0955 341.666 72.6857 343.284 71.9164C343.284 71.9162 343.285 71.916 343.285 71.9157L343.488 71.8192L343.539 71.7948C344.254 71.4546 345.107 71.0489 346.015 70.6717C357.922 65.7268 395.946 47.3975 397.006 46.8863L397.01 46.8843L397.026 46.8766L397.035 46.8724C397.416 46.6893 402.135 44.4554 408.737 43.4783C415.327 42.5029 424.424 42.6976 432.853 48.1746C440.514 53.1537 450.807 62.0779 460.765 70.7114L461.096 70.9988C469.917 78.6468 478.568 86.1409 485.649 91.3128C491.92 95.8936 496.078 97.7807 498.907 98.2282L504 99.0336ZM399.651 52.3113C399.849 52.2162 416.067 44.4647 429.564 53.2353C436.874 57.9858 446.935 66.7084 457.142 75.5589C465.897 83.1491 474.76 90.8333 482.089 96.1866C488.567 100.918 493.679 103.512 497.965 104.189V138.95H-1.96464V117.957C-1.96464 112.463 0.37222 107.259 4.49823 103.632C20.0959 89.9205 59.2271 55.543 68.8835 47.2681C78.8326 38.7424 82.6542 40.5838 90.1336 44.1876C91.7791 44.9806 93.6019 45.8588 95.7059 46.7307C100.213 48.5987 107.53 51.8074 115.653 55.3697L115.654 55.3703C128.555 61.028 143.49 67.5778 152.44 71.0669C165.479 76.1501 166.46 75.3605 175.863 67.7914C176.978 66.8936 178.213 65.8998 179.599 64.8097C192.676 54.5289 225.005 23.7085 232.249 14.2613C239.403 4.93154 253.133 4.291 261.121 12.8134C261.322 13.0275 261.484 13.2179 261.67 13.445C265.264 17.8376 306.629 68.2431 318.781 76.7531C329.38 84.1755 341.985 79.2167 345.877 77.3664L346.082 77.2688C346.828 76.9135 347.564 76.5636 348.329 76.2456C360.551 71.1702 399.401 52.4321 399.648 52.3127L399.651 52.3113Z" fill="url(#paint0_linear_544_10269)"/>
<defs>
<linearGradient id="paint0_linear_544_10269" x1="-8" y1="144.985" x2="67.2566" y2="-122.221" gradientUnits="userSpaceOnUse">
<stop stop-color="#5655D7"/>
<stop offset="1" stop-color="#7F7EFF"/>
</linearGradient>
</defs>
</svg>
