<svg width="497" height="20" viewBox="0 0 497 20" fill="none" xmlns="http://www.w3.org/2000/svg">
<path d="M5.60691 12.413L1.49891 6.342L1.94091 6.108L2.46091 5.9L6.13991 11.347L5.60691 12.413ZM1.31691 15V5.9H2.42191V15H1.31691ZM5.60691 12.413L5.07391 11.347L8.75291 5.9L9.27291 6.108L9.70191 6.329L5.60691 12.413ZM8.79191 15V5.9H9.88391V15H8.79191ZM14.8851 15.156C14.2524 15.156 13.6891 15.013 13.1951 14.727C12.7097 14.4323 12.3284 14.0293 12.0511 13.518C11.7737 13.0067 11.6351 12.4173 11.6351 11.75C11.6351 11.0827 11.7694 10.4933 12.0381 9.982C12.3154 9.47067 12.6967 9.072 13.1821 8.786C13.6761 8.49133 14.2351 8.344 14.8591 8.344C15.5004 8.344 16.0637 8.49133 16.5491 8.786C17.0431 9.072 17.4244 9.47067 17.6931 9.982C17.9704 10.4933 18.1091 11.0827 18.1091 11.75C18.1091 12.4173 17.9704 13.0067 17.6931 13.518C17.4244 14.0293 17.0474 14.4323 16.5621 14.727C16.0767 15.013 15.5177 15.156 14.8851 15.156ZM14.8851 14.194C15.3184 14.194 15.6954 14.09 16.0161 13.882C16.3367 13.674 16.5881 13.388 16.7701 13.024C16.9607 12.66 17.0561 12.2353 17.0561 11.75C17.0561 11.2647 16.9607 10.84 16.7701 10.476C16.5881 10.112 16.3324 9.826 16.0031 9.618C15.6737 9.41 15.2924 9.306 14.8591 9.306C14.4344 9.306 14.0574 9.41 13.7281 9.618C13.4074 9.826 13.1517 10.112 12.9611 10.476C12.7791 10.84 12.6881 11.2647 12.6881 11.75C12.6881 12.2267 12.7791 12.6513 12.9611 13.024C13.1517 13.388 13.4117 13.674 13.7411 13.882C14.0791 14.09 14.4604 14.194 14.8851 14.194ZM19.5531 15V8.5H20.5281L20.5931 9.696V15H19.5531ZM24.1161 15V11.672L25.1561 11.282V15H24.1161ZM24.1161 11.672C24.1161 11.0307 24.0424 10.541 23.8951 10.203C23.7477 9.865 23.5441 9.63533 23.2841 9.514C23.0241 9.384 22.7294 9.319 22.4001 9.319C21.8281 9.319 21.3817 9.52267 21.0611 9.93C20.7491 10.3287 20.5931 10.8963 20.5931 11.633H20.0861C20.0861 10.9483 20.1857 10.359 20.3851 9.865C20.5844 9.371 20.8704 8.994 21.2431 8.734C21.6244 8.474 22.0837 8.344 22.6211 8.344C23.4097 8.344 24.0294 8.58667 24.4801 9.072C24.9394 9.55733 25.1647 10.294 25.1561 11.282L24.1161 11.672Z" fill="#7A7C7F"/>
<path d="M86.2541 15V6.654H87.3461V15H86.2541ZM83.3551 6.901V5.9H90.2451V6.901H83.3551ZM95.1446 15L95.0796 13.804V8.5H96.1196V15H95.1446ZM90.5166 12.218V8.5H91.5566V11.828L90.5166 12.218ZM91.5566 11.828C91.5566 12.4693 91.6302 12.959 91.7776 13.297C91.9249 13.635 92.1286 13.869 92.3886 13.999C92.6572 14.1203 92.9562 14.181 93.2856 14.181C93.8489 14.181 94.2866 13.9773 94.5986 13.57C94.9192 13.1627 95.0796 12.595 95.0796 11.867H95.5866C95.5866 12.5517 95.4869 13.141 95.2876 13.635C95.0882 14.129 94.7979 14.506 94.4166 14.766C94.0439 15.026 93.5889 15.156 93.0516 15.156C92.2629 15.156 91.6389 14.9133 91.1796 14.428C90.7289 13.9427 90.5079 13.206 90.5166 12.218L91.5566 11.828ZM100.782 15.156C100.149 15.156 99.5899 15.013 99.1046 14.727C98.6193 14.4323 98.2379 14.0293 97.9606 13.518C97.6919 13.0067 97.5576 12.4173 97.5576 11.75C97.5576 11.0827 97.6919 10.4933 97.9606 9.982C98.2379 9.47067 98.6149 9.072 99.0916 8.786C99.5769 8.49133 100.132 8.344 100.756 8.344C101.354 8.344 101.874 8.49567 102.316 8.799C102.766 9.09367 103.113 9.50967 103.356 10.047C103.598 10.5843 103.72 11.217 103.72 11.945H102.68C102.68 11.3903 102.606 10.918 102.459 10.528C102.311 10.1293 102.09 9.82167 101.796 9.605C101.51 9.38833 101.159 9.28 100.743 9.28C100.318 9.28 99.9409 9.384 99.6116 9.592C99.2909 9.79133 99.0439 10.0773 98.8706 10.45C98.6973 10.8227 98.6106 11.2603 98.6106 11.763C98.6106 12.257 98.7059 12.686 98.8966 13.05C99.0873 13.4053 99.3516 13.687 99.6896 13.895C100.028 14.0943 100.409 14.194 100.834 14.194C101.284 14.194 101.666 14.0857 101.978 13.869C102.29 13.6523 102.537 13.3707 102.719 13.024L103.629 13.479C103.464 13.817 103.243 14.1117 102.966 14.363C102.697 14.6143 102.376 14.8093 102.004 14.948C101.64 15.0867 101.232 15.156 100.782 15.156ZM98.2466 11.945L98.2596 11.048H103.083V11.945H98.2466Z" fill="#7A7C7F"/>
<path d="M169.94 15L172.748 5.9H173.853L171.032 15H169.94ZM164.402 15L161.62 5.9H162.725L165.481 15H164.402ZM164.519 15L167.197 5.9H168.25L165.572 15H164.519ZM169.849 15L167.236 5.9H168.289L170.941 15H169.849ZM177.207 15.156C176.574 15.156 176.015 15.013 175.53 14.727C175.044 14.4323 174.663 14.0293 174.386 13.518C174.117 13.0067 173.983 12.4173 173.983 11.75C173.983 11.0827 174.117 10.4933 174.386 9.982C174.663 9.47067 175.04 9.072 175.517 8.786C176.002 8.49133 176.557 8.344 177.181 8.344C177.779 8.344 178.299 8.49567 178.741 8.799C179.191 9.09367 179.538 9.50967 179.781 10.047C180.023 10.5843 180.145 11.217 180.145 11.945H179.105C179.105 11.3903 179.031 10.918 178.884 10.528C178.736 10.1293 178.515 9.82167 178.221 9.605C177.935 9.38833 177.584 9.28 177.168 9.28C176.743 9.28 176.366 9.384 176.037 9.592C175.716 9.79133 175.469 10.0773 175.296 10.45C175.122 10.8227 175.036 11.2603 175.036 11.763C175.036 12.257 175.131 12.686 175.322 13.05C175.512 13.4053 175.777 13.687 176.115 13.895C176.453 14.0943 176.834 14.194 177.259 14.194C177.709 14.194 178.091 14.0857 178.403 13.869C178.715 13.6523 178.962 13.3707 179.144 13.024L180.054 13.479C179.889 13.817 179.668 14.1117 179.391 14.363C179.122 14.6143 178.801 14.8093 178.429 14.948C178.065 15.0867 177.657 15.156 177.207 15.156ZM174.672 11.945L174.685 11.048H179.508V11.945H174.672ZM186.266 15L186.214 13.791V5.9H187.254V15H186.266ZM184.017 15.156C183.437 15.156 182.925 15.013 182.483 14.727C182.041 14.441 181.695 14.0423 181.443 13.531C181.201 13.011 181.079 12.4173 181.079 11.75C181.079 11.074 181.201 10.4803 181.443 9.969C181.695 9.45767 182.041 9.059 182.483 8.773C182.925 8.487 183.437 8.344 184.017 8.344C184.563 8.344 185.04 8.487 185.447 8.773C185.863 9.059 186.184 9.45767 186.409 9.969C186.635 10.4803 186.747 11.074 186.747 11.75C186.747 12.4173 186.635 13.011 186.409 13.531C186.184 14.0423 185.863 14.441 185.447 14.727C185.04 15.013 184.563 15.156 184.017 15.156ZM184.251 14.207C184.633 14.207 184.971 14.103 185.265 13.895C185.56 13.687 185.79 13.3967 185.954 13.024C186.128 12.6513 186.214 12.2267 186.214 11.75C186.214 11.2733 186.128 10.8487 185.954 10.476C185.79 10.1033 185.56 9.813 185.265 9.605C184.971 9.397 184.628 9.293 184.238 9.293C183.831 9.293 183.467 9.397 183.146 9.605C182.834 9.813 182.587 10.1033 182.405 10.476C182.223 10.8487 182.132 11.2733 182.132 11.75C182.132 12.2267 182.223 12.6513 182.405 13.024C182.587 13.3967 182.839 13.687 183.159 13.895C183.48 14.103 183.844 14.207 184.251 14.207Z" fill="#7A7C7F"/>
<path d="M248.707 15V6.654H249.799V15H248.707ZM245.808 6.901V5.9H252.698V6.901H245.808ZM253.747 15V5.731H254.787V15H253.747ZM258.323 15V11.672L259.363 11.282V15H258.323ZM258.323 11.672C258.323 11.0307 258.245 10.541 258.089 10.203C257.942 9.865 257.738 9.63533 257.478 9.514C257.218 9.384 256.924 9.319 256.594 9.319C256.022 9.319 255.576 9.52267 255.255 9.93C254.943 10.3287 254.787 10.8963 254.787 11.633H254.28C254.28 10.9483 254.38 10.359 254.579 9.865C254.779 9.371 255.069 8.994 255.45 8.734C255.832 8.474 256.291 8.344 256.828 8.344C257.608 8.344 258.228 8.58667 258.687 9.072C259.147 9.55733 259.372 10.294 259.363 11.282L258.323 11.672ZM265.455 15L265.39 13.804V8.5H266.43V15H265.455ZM260.827 12.218V8.5H261.867V11.828L260.827 12.218ZM261.867 11.828C261.867 12.4693 261.941 12.959 262.088 13.297C262.236 13.635 262.439 13.869 262.699 13.999C262.968 14.1203 263.267 14.181 263.596 14.181C264.16 14.181 264.597 13.9773 264.909 13.57C265.23 13.1627 265.39 12.595 265.39 11.867H265.897C265.897 12.5517 265.798 13.141 265.598 13.635C265.399 14.129 265.109 14.506 264.727 14.766C264.355 15.026 263.9 15.156 263.362 15.156C262.574 15.156 261.95 14.9133 261.49 14.428C261.04 13.9427 260.819 13.206 260.827 12.218L261.867 11.828Z" fill="#7A7C7F"/>
<path d="M326.203 15V5.9H327.308V15H326.203ZM327.204 11.009V10.008H331.104V11.009H327.204ZM327.204 6.901V5.9H331.611V6.901H327.204ZM333.407 11.477C333.407 10.775 333.542 10.2073 333.81 9.774C334.079 9.332 334.421 9.007 334.837 8.799C335.262 8.58233 335.708 8.474 336.176 8.474V9.449C335.795 9.449 335.427 9.514 335.071 9.644C334.725 9.76533 334.439 9.969 334.213 10.255C333.988 10.541 333.875 10.931 333.875 11.425L333.407 11.477ZM332.835 15V8.5H333.875V15H332.835ZM337.293 15L337.319 8.5H338.359L338.333 15H337.293ZM337.826 6.992C337.653 6.992 337.501 6.927 337.371 6.797C337.241 6.667 337.176 6.51533 337.176 6.342C337.176 6.16 337.241 6.00833 337.371 5.887C337.501 5.757 337.653 5.692 337.826 5.692C338.008 5.692 338.16 5.757 338.281 5.887C338.411 6.00833 338.476 6.16 338.476 6.342C338.476 6.51533 338.411 6.667 338.281 6.797C338.16 6.927 338.008 6.992 337.826 6.992Z" fill="#7A7C7F"/>
<path d="M401.192 15.156C400.689 15.156 400.243 15.104 399.853 15C399.463 14.8873 399.125 14.7357 398.839 14.545C398.553 14.3457 398.319 14.129 398.137 13.895C397.955 13.6523 397.82 13.3967 397.734 13.128L398.787 12.764C398.917 13.1453 399.177 13.479 399.567 13.765C399.965 14.0423 400.451 14.181 401.023 14.181C401.725 14.181 402.275 14.0423 402.674 13.765C403.072 13.4877 403.272 13.1193 403.272 12.66C403.272 12.2353 403.094 11.893 402.739 11.633C402.383 11.3643 401.915 11.1563 401.335 11.009L400.334 10.749C399.926 10.645 399.549 10.4933 399.203 10.294C398.865 10.086 398.592 9.826 398.384 9.514C398.184 9.19333 398.085 8.812 398.085 8.37C398.085 7.54667 398.349 6.90533 398.878 6.446C399.415 5.978 400.186 5.744 401.192 5.744C401.79 5.744 402.305 5.84367 402.739 6.043C403.172 6.23367 403.523 6.48067 403.792 6.784C404.069 7.07867 404.264 7.39933 404.377 7.746L403.337 8.11C403.172 7.67667 402.895 7.33867 402.505 7.096C402.115 6.84467 401.642 6.719 401.088 6.719C400.507 6.719 400.043 6.862 399.697 7.148C399.359 7.42533 399.19 7.80667 399.19 8.292C399.19 8.708 399.324 9.02867 399.593 9.254C399.861 9.47067 400.212 9.631 400.646 9.735L401.647 9.982C402.531 10.19 403.207 10.5367 403.675 11.022C404.151 11.4987 404.39 12.0143 404.39 12.569C404.39 13.0457 404.268 13.4833 404.026 13.882C403.783 14.272 403.423 14.584 402.947 14.818C402.479 15.0433 401.894 15.156 401.192 15.156ZM409.97 15L409.905 13.934V11.568C409.905 11.0567 409.844 10.6363 409.723 10.307C409.61 9.969 409.433 9.71767 409.19 9.553C408.956 9.37967 408.644 9.293 408.254 9.293C407.881 9.293 407.556 9.36667 407.279 9.514C407.01 9.66133 406.789 9.891 406.616 10.203L405.68 9.826C405.853 9.52267 406.061 9.25833 406.304 9.033C406.547 8.80767 406.828 8.63867 407.149 8.526C407.478 8.40467 407.851 8.344 408.267 8.344C408.865 8.344 409.363 8.461 409.762 8.695C410.161 8.929 410.46 9.28 410.659 9.748C410.858 10.2073 410.954 10.7837 410.945 11.477L410.932 15H409.97ZM408.02 15.156C407.257 15.156 406.659 14.9827 406.226 14.636C405.801 14.2807 405.589 13.791 405.589 13.167C405.589 12.5083 405.806 12.0057 406.239 11.659C406.681 11.3037 407.296 11.126 408.085 11.126H409.944V11.997H408.319C407.712 11.997 407.279 12.0967 407.019 12.296C406.768 12.4953 406.642 12.7813 406.642 13.154C406.642 13.492 406.768 13.7607 407.019 13.96C407.27 14.1507 407.621 14.246 408.072 14.246C408.445 14.246 408.77 14.1593 409.047 13.986C409.324 13.8127 409.537 13.5787 409.684 13.284C409.831 12.9807 409.905 12.6383 409.905 12.257H410.542C410.542 13.141 410.325 13.8473 409.892 14.376C409.459 14.896 408.835 15.156 408.02 15.156ZM415.037 15.156C414.404 15.156 413.915 14.9913 413.568 14.662C413.221 14.3327 413.048 13.869 413.048 13.271V6.472H414.088V13.167C414.088 13.4963 414.175 13.752 414.348 13.934C414.53 14.1073 414.781 14.194 415.102 14.194C415.206 14.194 415.306 14.181 415.401 14.155C415.505 14.1203 415.639 14.0423 415.804 13.921L416.207 14.766C415.982 14.9133 415.778 15.013 415.596 15.065C415.414 15.1257 415.228 15.156 415.037 15.156ZM411.917 9.423V8.5H416.038V9.423H411.917Z" fill="#7A7C7F"/>
<path d="M478.379 15.156C477.877 15.156 477.43 15.104 477.04 15C476.65 14.8873 476.312 14.7357 476.026 14.545C475.74 14.3457 475.506 14.129 475.324 13.895C475.142 13.6523 475.008 13.3967 474.921 13.128L475.974 12.764C476.104 13.1453 476.364 13.479 476.754 13.765C477.153 14.0423 477.638 14.181 478.21 14.181C478.912 14.181 479.463 14.0423 479.861 13.765C480.26 13.4877 480.459 13.1193 480.459 12.66C480.459 12.2353 480.282 11.893 479.926 11.633C479.571 11.3643 479.103 11.1563 478.522 11.009L477.521 10.749C477.114 10.645 476.737 10.4933 476.39 10.294C476.052 10.086 475.779 9.826 475.571 9.514C475.372 9.19333 475.272 8.812 475.272 8.37C475.272 7.54667 475.537 6.90533 476.065 6.446C476.603 5.978 477.374 5.744 478.379 5.744C478.977 5.744 479.493 5.84367 479.926 6.043C480.36 6.23367 480.711 6.48067 480.979 6.784C481.257 7.07867 481.452 7.39933 481.564 7.746L480.524 8.11C480.36 7.67667 480.082 7.33867 479.692 7.096C479.302 6.84467 478.83 6.719 478.275 6.719C477.695 6.719 477.231 6.862 476.884 7.148C476.546 7.42533 476.377 7.80667 476.377 8.292C476.377 8.708 476.512 9.02867 476.78 9.254C477.049 9.47067 477.4 9.631 477.833 9.735L478.834 9.982C479.718 10.19 480.394 10.5367 480.862 11.022C481.339 11.4987 481.577 12.0143 481.577 12.569C481.577 13.0457 481.456 13.4833 481.213 13.882C480.971 14.272 480.611 14.584 480.134 14.818C479.666 15.0433 479.081 15.156 478.379 15.156ZM487.613 15L487.548 13.804V8.5H488.588V15H487.613ZM482.985 12.218V8.5H484.025V11.828L482.985 12.218ZM484.025 11.828C484.025 12.4693 484.098 12.959 484.246 13.297C484.393 13.635 484.597 13.869 484.857 13.999C485.125 14.1203 485.424 14.181 485.754 14.181C486.317 14.181 486.755 13.9773 487.067 13.57C487.387 13.1627 487.548 12.595 487.548 11.867H488.055C488.055 12.5517 487.955 13.141 487.756 13.635C487.556 14.129 487.266 14.506 486.885 14.766C486.512 15.026 486.057 15.156 485.52 15.156C484.731 15.156 484.107 14.9133 483.648 14.428C483.197 13.9427 482.976 13.206 482.985 12.218L484.025 11.828ZM490.403 15V8.5H491.378L491.443 9.696V15H490.403ZM494.966 15V11.672L496.006 11.282V15H494.966ZM494.966 11.672C494.966 11.0307 494.892 10.541 494.745 10.203C494.597 9.865 494.394 9.63533 494.134 9.514C493.874 9.384 493.579 9.319 493.25 9.319C492.678 9.319 492.231 9.52267 491.911 9.93C491.599 10.3287 491.443 10.8963 491.443 11.633H490.936C490.936 10.9483 491.035 10.359 491.235 9.865C491.434 9.371 491.72 8.994 492.093 8.734C492.474 8.474 492.933 8.344 493.471 8.344C494.259 8.344 494.879 8.58667 495.33 9.072C495.789 9.55733 496.014 10.294 496.006 11.282L494.966 11.672Z" fill="#7A7C7F"/>
</svg>
