<svg width="105" height="44" viewBox="0 0 105 44" fill="none" xmlns="http://www.w3.org/2000/svg">
<path d="M1 42.2027C5.25018 39.1665 17.4372 31.2318 26.553 25.3C29.7689 23.2073 33.7418 22.6411 37.4144 23.7517L58.5918 30.1554C62.628 31.3759 67.0056 30.5629 70.3344 27.9745L104 1.7973" stroke="#00997E" stroke-width="2" stroke-linecap="round"/>
<path d="M30.0648 23.0143C20.8886 28.9896 5.82656 38.7547 1 42.2027H100C102.209 42.2027 104 40.4119 104 38.2027V1.7973L84.5135 16.9493L66.6601 30.8316C65.6358 31.628 64.2889 31.8782 63.0469 31.5026L33.404 22.539C32.274 22.1973 31.0541 22.3701 30.0648 23.0143Z" fill="#00997E" fill-opacity="0.08"/>
</svg>
