<svg width="161" height="161" viewBox="0 0 161 161" fill="none" xmlns="http://www.w3.org/2000/svg">
<path d="M80.4999 5C96.4899 5 112.067 10.0767 124.987 19.4985C137.906 28.9202 147.5 42.2005 152.387 57.4255L112.849 70.1164C110.65 63.2652 106.333 57.2891 100.519 53.0493C94.7051 48.8095 87.6954 46.525 80.4999 46.525L80.4999 5Z" fill="#FFAE41" stroke="white" stroke-width="9.0827"/>
<path d="M151.807 55.6895C157.569 72.2498 157.387 90.2993 151.293 106.74C145.199 123.181 133.572 136.989 118.409 145.793C103.245 154.597 85.4899 157.848 68.1904 154.99C50.8909 152.131 35.1257 143.34 23.6006 130.126L54.8951 102.832C60.0814 108.778 67.1757 112.734 74.9605 114.02C82.7453 115.307 90.7351 113.843 97.5588 109.882C104.382 105.92 109.614 99.7066 112.357 92.3081C115.099 84.9097 115.181 76.7874 112.588 69.3352L151.807 55.6895Z" fill="#00997E" stroke="white" stroke-width="9.0827"/>
<path d="M24.4169 131.046C14.6464 120.206 8.22726 106.765 5.9362 92.3525C3.64513 77.9395 5.58039 63.1714 11.5078 49.8354C17.4351 36.4994 27.1006 25.167 39.3344 17.2098C51.5682 9.25264 65.846 5.01161 80.4399 5L80.4729 46.525C73.9057 46.5302 67.4807 48.4386 61.9754 52.0194C56.4702 55.6001 52.1208 60.6997 49.4535 66.7009C46.7862 72.7021 45.9153 79.3477 46.9463 85.8336C47.9773 92.3194 50.8659 98.3674 55.2626 103.246L24.4169 131.046Z" fill="#5655D7" stroke="white" stroke-width="9.0827"/>
</svg>
