<svg width="16" height="16" viewBox="0 0 16 16" fill="none" xmlns="http://www.w3.org/2000/svg">
<path d="M13 2L3 2C2.73478 2 2.48043 2.10536 2.29289 2.29289C2.10536 2.48043 2 2.73478 2 3L2 13C2 13.2652 2.10536 13.5196 2.29289 13.7071C2.48043 13.8946 2.73478 14 3 14L13 14C13.2652 14 13.5196 13.8946 13.7071 13.7071C13.8946 13.5196 14 13.2652 14 13L14 3C14 2.73478 13.8946 2.48043 13.7071 2.29289C13.5196 2.10536 13.2652 2 13 2ZM13 13L3 13L3 3L13 3L13 13ZM5.64625 10.3538C5.59976 10.3073 5.56288 10.2522 5.53772 10.1915C5.51256 10.1308 5.49961 10.0657 5.49961 10C5.49961 9.93429 5.51256 9.86923 5.53772 9.80853C5.56288 9.74783 5.59976 9.69269 5.64625 9.64625L8.79313 6.5H7C6.86739 6.5 6.74021 6.44732 6.64645 6.35355C6.55268 6.25979 6.5 6.13261 6.5 6C6.5 5.86739 6.55268 5.74021 6.64645 5.64645C6.74021 5.55268 6.86739 5.5 7 5.5L10 5.5C10.1326 5.5 10.2598 5.55268 10.3536 5.64645C10.4473 5.74021 10.5 5.86739 10.5 6L10.5 9C10.5 9.13261 10.4473 9.25979 10.3536 9.35355C10.2598 9.44732 10.1326 9.5 10 9.5C9.86739 9.5 9.74021 9.44732 9.64645 9.35355C9.55268 9.25979 9.5 9.13261 9.5 9V7.20687L6.35375 10.3538C6.30731 10.4002 6.25217 10.4371 6.19147 10.4623C6.13077 10.4874 6.06571 10.5004 6 10.5004C5.93429 10.5004 5.86923 10.4874 5.80853 10.4623C5.74783 10.4371 5.69269 10.4002 5.64625 10.3538Z" fill="white"/>
</svg>
