<svg width="47" height="22" viewBox="0 0 47 22" fill="none" xmlns="http://www.w3.org/2000/svg">
<path d="M1.22168 20.9508L1.8436 20.5321C2.46552 20.1134 3.70936 19.276 4.95321 17.74C6.19705 16.204 7.44089 13.9695 8.68473 11.8616C9.92858 9.75377 11.1724 7.77255 12.4163 7.03947C13.6601 6.3064 14.9039 6.82149 16.1478 8.4735C17.3916 10.1255 18.6355 12.9145 19.8793 13.1629C21.1232 13.4112 22.367 11.119 23.6108 11.3372C24.8547 11.5553 26.0985 14.2837 27.3424 13.9136C28.5862 13.5435 29.8301 10.0749 31.0739 8.11743C32.3177 6.16001 33.5616 5.71381 34.8054 7.09732C36.0493 8.48083 37.2931 11.694 38.5369 13.029C39.7808 14.3639 41.0246 13.8206 42.2685 11.5109C43.5123 9.20125 44.7562 5.12528 45.3781 3.0873L46 1.04932" stroke="url(#paint0_linear_399_13702)" stroke-width="1.99015" stroke-linecap="round"/>
<defs>
<linearGradient id="paint0_linear_399_13702" x1="1.22168" y1="20.9508" x2="15.9939" y2="-12.2867" gradientUnits="userSpaceOnUse">
<stop stop-color="#5655D7"/>
<stop offset="1" stop-color="#7F7EFF"/>
</linearGradient>
</defs>
</svg>
