<svg width="47" height="22" viewBox="0 0 47 22" fill="none" xmlns="http://www.w3.org/2000/svg">
<path d="M46 20.9508L45.3781 20.5321C44.7562 20.1134 43.5123 19.276 42.2685 17.74C41.0246 16.204 39.7808 13.9695 38.5369 11.8616C37.2931 9.75377 36.0493 7.77255 34.8054 7.03947C33.5616 6.3064 32.3177 6.82149 31.0739 8.4735C29.8301 10.1255 28.5862 12.9145 27.3424 13.1629C26.0985 13.4112 24.8547 11.119 23.6108 11.3372C22.367 11.5553 21.1232 14.2837 19.8793 13.9136C18.6355 13.5435 17.3916 10.0749 16.1478 8.11743C14.9039 6.16001 13.6601 5.71381 12.4163 7.09732C11.1724 8.48083 9.92857 11.694 8.68473 13.029C7.44089 14.3639 6.19705 13.8206 4.9532 11.5109C3.70936 9.20125 2.46552 5.12528 1.8436 3.0873L1.22168 1.04932" stroke="url(#paint0_linear_399_19683)" stroke-width="1.99015" stroke-linecap="round"/>
<defs>
<linearGradient id="paint0_linear_399_19683" x1="46" y1="20.9508" x2="31.2278" y2="-12.2867" gradientUnits="userSpaceOnUse">
<stop stop-color="#FF414B"/>
<stop offset="1" stop-color="#FF7A81"/>
</linearGradient>
</defs>
</svg>
