<svg width="58" height="58" viewBox="0 0 58 58" fill="none" xmlns="http://www.w3.org/2000/svg">
<rect width="58" height="58" rx="10" fill="#FF414B"/>
<path d="M33.375 31.625C33.375 31.857 33.2828 32.0796 33.1187 32.2437C32.9546 32.4078 32.7321 32.5 32.5 32.5H25.5C25.2679 32.5 25.0454 32.4078 24.8813 32.2437C24.7172 32.0796 24.625 31.857 24.625 31.625C24.625 31.3929 24.7172 31.1703 24.8813 31.0062C25.0454 30.8421 25.2679 30.75 25.5 30.75H32.5C32.7321 30.75 32.9546 30.8421 33.1187 31.0062C33.2828 31.1703 33.375 31.3929 33.375 31.625ZM32.5 27.25H25.5C25.2679 27.25 25.0454 27.3422 24.8813 27.5062C24.7172 27.6703 24.625 27.8929 24.625 28.125C24.625 28.357 24.7172 28.5796 24.8813 28.7437C25.0454 28.9078 25.2679 29 25.5 29H32.5C32.7321 29 32.9546 28.9078 33.1187 28.7437C33.2828 28.5796 33.375 28.357 33.375 28.125C33.375 27.8929 33.2828 27.6703 33.1187 27.5062C32.9546 27.3422 32.7321 27.25 32.5 27.25ZM38.625 20.25V38.625C38.625 39.0891 38.4406 39.5342 38.1124 39.8624C37.7842 40.1906 37.3391 40.375 36.875 40.375H21.125C20.6609 40.375 20.2158 40.1906 19.8876 39.8624C19.5594 39.5342 19.375 39.0891 19.375 38.625V20.25C19.375 19.7858 19.5594 19.3407 19.8876 19.0125C20.2158 18.6843 20.6609 18.5 21.125 18.5H25.0909C25.5826 17.9495 26.1849 17.5091 26.8586 17.2075C27.5322 16.906 28.2619 16.7501 29 16.7501C29.7381 16.7501 30.4678 16.906 31.1414 17.2075C31.8151 17.5091 32.4174 17.9495 32.9091 18.5H36.875C37.3391 18.5 37.7842 18.6843 38.1124 19.0125C38.4406 19.3407 38.625 19.7858 38.625 20.25ZM25.5 22H32.5C32.5 21.0717 32.1313 20.1815 31.4749 19.5251C30.8185 18.8687 29.9283 18.5 29 18.5C28.0717 18.5 27.1815 18.8687 26.5251 19.5251C25.8687 20.1815 25.5 21.0717 25.5 22ZM36.875 20.25H33.9492C34.1483 20.8119 34.25 21.4038 34.25 22V22.875C34.25 23.107 34.1578 23.3296 33.9937 23.4937C33.8296 23.6578 33.6071 23.75 33.375 23.75H24.625C24.3929 23.75 24.1704 23.6578 24.0063 23.4937C23.8422 23.3296 23.75 23.107 23.75 22.875V22C23.75 21.4038 23.8517 20.8119 24.0508 20.25H21.125V38.625H36.875V20.25Z" fill="white"/>
</svg>
