<svg width="18" height="18" viewBox="0 0 18 18" fill="none" xmlns="http://www.w3.org/2000/svg">
<path d="M16.5 0H1.5C1.10218 0 0.720644 0.158035 0.43934 0.43934C0.158035 0.720644 0 1.10218 0 1.5V16.5C0 16.8978 0.158035 17.2794 0.43934 17.5607C0.720644 17.842 1.10218 18 1.5 18H16.5C16.8978 18 17.2794 17.842 17.5607 17.5607C17.842 17.2794 18 16.8978 18 16.5V1.5C18 1.10218 17.842 0.720644 17.5607 0.43934C17.2794 0.158035 16.8978 0 16.5 0ZM16.5 16.5H1.5V1.5H16.5V16.5ZM4.71937 9.53063C4.64964 9.46097 4.59432 9.37825 4.55658 9.2872C4.51884 9.19616 4.49941 9.09856 4.49941 9C4.49941 8.90144 4.51884 8.80384 4.55658 8.7128C4.59432 8.62175 4.64964 8.53903 4.71937 8.46937L7.71937 5.46937C7.86011 5.32864 8.05098 5.24958 8.25 5.24958C8.44902 5.24958 8.63989 5.32864 8.78063 5.46937C8.92136 5.61011 9.00042 5.80098 9.00042 6C9.00042 6.19902 8.92136 6.38989 8.78063 6.53063L7.06031 8.25H12.75C12.9489 8.25 13.1397 8.32902 13.2803 8.46967C13.421 8.61032 13.5 8.80109 13.5 9C13.5 9.19891 13.421 9.38968 13.2803 9.53033C13.1397 9.67098 12.9489 9.75 12.75 9.75H7.06031L8.78063 11.4694C8.85031 11.5391 8.90558 11.6218 8.9433 11.7128C8.98101 11.8039 9.00042 11.9015 9.00042 12C9.00042 12.0985 8.98101 12.1961 8.9433 12.2872C8.90558 12.3782 8.85031 12.4609 8.78063 12.5306C8.71094 12.6003 8.62822 12.6556 8.53717 12.6933C8.44613 12.731 8.34855 12.7504 8.25 12.7504C8.15145 12.7504 8.05387 12.731 7.96283 12.6933C7.87178 12.6556 7.78906 12.6003 7.71937 12.5306L4.71937 9.53063Z" fill="#A6A8A9"/>
</svg>
