<svg width="58" height="58" viewBox="0 0 58 58" fill="none" xmlns="http://www.w3.org/2000/svg">
<rect width="58" height="58" rx="10" fill="#FFAE41"/>
<path d="M37.75 22.875H17.625V20.25C17.625 20.0179 17.5328 19.7954 17.3687 19.6313C17.2046 19.4672 16.9821 19.375 16.75 19.375C16.5179 19.375 16.2954 19.4672 16.1313 19.6313C15.9672 19.7954 15.875 20.0179 15.875 20.25V37.75C15.875 37.9821 15.9672 38.2046 16.1313 38.3687C16.2954 38.5328 16.5179 38.625 16.75 38.625C16.9821 38.625 17.2046 38.5328 17.3687 38.3687C17.5328 38.2046 17.625 37.9821 17.625 37.75V34.25H40.375V37.75C40.375 37.9821 40.4672 38.2046 40.6313 38.3687C40.7954 38.5328 41.0179 38.625 41.25 38.625C41.4821 38.625 41.7046 38.5328 41.8687 38.3687C42.0328 38.2046 42.125 37.9821 42.125 37.75V27.25C42.125 26.0897 41.6641 24.9769 40.8436 24.1564C40.0231 23.3359 38.9103 22.875 37.75 22.875ZM17.625 24.625H25.5V32.5H17.625V24.625ZM27.25 32.5V24.625H37.75C38.4462 24.625 39.1139 24.9016 39.6062 25.3938C40.0984 25.8861 40.375 26.5538 40.375 27.25V32.5H27.25Z" fill="white"/>
</svg>
