<svg width="58" height="58" viewBox="0 0 58 58" fill="none" xmlns="http://www.w3.org/2000/svg">
<rect width="58" height="58" rx="10" fill="#5655D7"/>
<path d="M41.7748 31.45C41.6829 31.519 41.5783 31.5691 41.467 31.5977C41.3557 31.6262 41.2399 31.6325 41.1261 31.6162C41.0123 31.6 40.9029 31.5615 40.804 31.5029C40.7052 31.4444 40.6188 31.367 40.5498 31.275C40.0225 30.5661 39.336 29.991 38.5457 29.5958C37.7554 29.2007 36.8834 28.9966 35.9998 29C35.8278 29 35.6595 28.9493 35.5162 28.8541C35.3728 28.759 35.2606 28.6237 35.1938 28.4652C35.1483 28.3575 35.1249 28.2419 35.1249 28.125C35.1249 28.0082 35.1483 27.8925 35.1938 27.7849C35.2606 27.6263 35.3728 27.4911 35.5162 27.3959C35.6595 27.3008 35.8278 27.25 35.9998 27.25C36.4908 27.25 36.9719 27.1123 37.3885 26.8525C37.8051 26.5927 38.1405 26.2213 38.3566 25.7805C38.5727 25.3397 38.6609 24.8471 38.6111 24.3587C38.5612 23.8702 38.3755 23.4056 38.0748 23.0175C37.7741 22.6293 37.3706 22.3333 36.9102 22.163C36.4497 21.9927 35.9507 21.955 35.4699 22.054C34.989 22.1531 34.5456 22.3851 34.1899 22.7235C33.8343 23.062 33.5807 23.4934 33.458 23.9688C33.4292 24.0801 33.3789 24.1847 33.3097 24.2765C33.2406 24.3684 33.154 24.4457 33.055 24.5041C32.956 24.5625 32.8464 24.6008 32.7326 24.6169C32.6188 24.6329 32.5029 24.6264 32.3916 24.5977C32.2802 24.569 32.1757 24.5186 32.0838 24.4495C31.992 24.3803 31.9146 24.2938 31.8562 24.1947C31.7978 24.0957 31.7595 23.9862 31.7435 23.8723C31.7274 23.7585 31.7339 23.6426 31.7627 23.5313C31.933 22.8721 32.2549 22.2618 32.7026 21.7489C33.1504 21.2359 33.7116 20.8346 34.3418 20.5768C34.9719 20.319 35.6535 20.2118 36.3324 20.2637C37.0112 20.3157 37.6686 20.5254 38.2522 20.8761C38.8357 21.2268 39.3294 21.7089 39.6939 22.284C40.0583 22.8591 40.2835 23.5113 40.3516 24.1887C40.4196 24.8661 40.3286 25.5501 40.0858 26.1862C39.843 26.8223 39.4551 27.3929 38.953 27.8527C40.1428 28.3678 41.1771 29.1853 41.9531 30.2239C42.0221 30.3161 42.0721 30.421 42.1005 30.5325C42.1289 30.644 42.1349 30.7601 42.1184 30.874C42.1018 30.9879 42.0629 31.0974 42.004 31.1962C41.945 31.2951 41.8672 31.3813 41.7748 31.45ZM35.8817 38.1875C35.945 38.2871 35.9875 38.3985 36.0067 38.5149C36.0258 38.6314 36.0212 38.7505 35.9932 38.8651C35.9651 38.9797 35.9141 39.0875 35.8433 39.1819C35.7725 39.2763 35.6834 39.3554 35.5812 39.4145C35.479 39.4736 35.366 39.5113 35.2488 39.5256C35.1317 39.5398 35.0128 39.5302 34.8995 39.4973C34.7862 39.4644 34.6806 39.409 34.5893 39.3342C34.498 39.2595 34.4227 39.1671 34.368 39.0625C33.8168 38.1292 33.0318 37.3557 32.0904 36.8184C31.149 36.281 30.0838 35.9984 28.9998 35.9984C27.9159 35.9984 26.8507 36.281 25.9093 36.8184C24.9679 37.3557 24.1829 38.1292 23.6317 39.0625C23.577 39.1671 23.5017 39.2595 23.4104 39.3342C23.319 39.409 23.2135 39.4644 23.1002 39.4973C22.9869 39.5302 22.868 39.5398 22.7509 39.5256C22.6337 39.5113 22.5207 39.4736 22.4185 39.4145C22.3163 39.3554 22.2272 39.2763 22.1564 39.1819C22.0856 39.0875 22.0346 38.9797 22.0065 38.8651C21.9784 38.7505 21.9738 38.6314 21.993 38.5149C22.0121 38.3985 22.0547 38.2871 22.118 38.1875C22.9663 36.73 24.2597 35.583 25.8083 34.915C24.9369 34.2479 24.2965 33.3245 23.9771 32.2745C23.6577 31.2246 23.6754 30.101 24.0276 29.0616C24.3798 28.0222 25.0488 27.1194 25.9407 26.4799C26.8326 25.8404 27.9024 25.4965 28.9998 25.4965C30.0973 25.4965 31.1671 25.8404 32.059 26.4799C32.9509 27.1194 33.6199 28.0222 33.9721 29.0616C34.3243 30.101 34.342 31.2246 34.0226 32.2745C33.7032 33.3245 33.0628 34.2479 32.1914 34.915C33.7399 35.583 35.0334 36.73 35.8817 38.1875ZM28.9998 34.25C29.6921 34.25 30.3688 34.0448 30.9443 33.6602C31.5199 33.2756 31.9685 32.729 32.2334 32.0894C32.4983 31.4499 32.5676 30.7462 32.4326 30.0672C32.2975 29.3883 31.9642 28.7646 31.4747 28.2752C30.9852 27.7857 30.3616 27.4523 29.6827 27.3173C29.0037 27.1822 28.3 27.2515 27.6605 27.5165C27.0209 27.7814 26.4743 28.23 26.0897 28.8055C25.7051 29.3811 25.4998 30.0578 25.4998 30.75C25.4998 31.6783 25.8686 32.5685 26.525 33.2249C27.1813 33.8813 28.0716 34.25 28.9998 34.25ZM22.8748 28.125C22.8748 27.893 22.7827 27.6704 22.6186 27.5063C22.4545 27.3422 22.2319 27.25 21.9998 27.25C21.5089 27.25 21.0278 27.1123 20.6112 26.8525C20.1946 26.5927 19.8592 26.2213 19.6431 25.7805C19.427 25.3397 19.3388 24.8471 19.3886 24.3587C19.4384 23.8702 19.6242 23.4056 19.9249 23.0175C20.2256 22.6293 20.629 22.3333 21.0895 22.163C21.55 21.9927 22.049 21.955 22.5298 22.054C23.0107 22.1531 23.4541 22.3851 23.8098 22.7235C24.1654 23.062 24.419 23.4934 24.5417 23.9688C24.5997 24.1936 24.7447 24.3862 24.9447 24.5041C25.1447 24.622 25.3833 24.6557 25.6081 24.5977C25.8329 24.5397 26.0255 24.3947 26.1434 24.1947C26.2614 23.9947 26.295 23.7561 26.237 23.5313C26.0667 22.8721 25.7448 22.2618 25.2971 21.7489C24.8493 21.2359 24.2881 20.8346 23.6579 20.5768C23.0278 20.319 22.3462 20.2118 21.6673 20.2637C20.9884 20.3157 20.3311 20.5254 19.7475 20.8761C19.164 21.2268 18.6703 21.7089 18.3058 22.284C17.9414 22.8591 17.7162 23.5113 17.6481 24.1887C17.5801 24.8661 17.6711 25.5501 17.9139 26.1862C18.1567 26.8223 18.5446 27.3929 19.0467 27.8527C17.8581 28.3683 16.825 29.1858 16.0498 30.2239C15.9105 30.4096 15.8505 30.643 15.8833 30.8728C15.916 31.1027 16.0386 31.3101 16.2243 31.4495C16.4099 31.5889 16.6434 31.6488 16.8732 31.6161C17.103 31.5834 17.3105 31.4607 17.4498 31.275C17.9772 30.5661 18.6637 29.991 19.454 29.5958C20.2443 29.2007 21.1163 28.9966 21.9998 29C22.2319 29 22.4545 28.9078 22.6186 28.7438C22.7827 28.5797 22.8748 28.3571 22.8748 28.125Z" fill="white"/>
</svg>
