<svg width="686" height="299" viewBox="0 0 686 299" fill="none" xmlns="http://www.w3.org/2000/svg">
<path d="M7.46348 16L7.47848 6.295L7.61348 5.5H8.91848L8.90348 16H7.46348ZM5.15348 8.365V7.03C5.37348 7.04 5.62848 6.97 5.91848 6.82C6.21848 6.67 6.51848 6.475 6.81848 6.235C7.11848 5.995 7.38348 5.745 7.61348 5.485L8.52848 6.475C8.18848 6.835 7.83348 7.16 7.46348 7.45C7.09348 7.74 6.71348 7.97 6.32348 8.14C5.94348 8.31 5.55348 8.385 5.15348 8.365ZM11.1087 17.725L11.9787 14.455H13.5237L12.2637 17.725H11.1087ZM18.899 16.18C18.089 16.18 17.369 15.95 16.739 15.49C16.109 15.02 15.614 14.38 15.254 13.57C14.904 12.75 14.729 11.81 14.729 10.75C14.729 9.69 14.904 8.755 15.254 7.945C15.614 7.125 16.104 6.485 16.724 6.025C17.354 5.555 18.079 5.32 18.899 5.32C19.719 5.32 20.439 5.555 21.059 6.025C21.689 6.485 22.184 7.125 22.544 7.945C22.904 8.755 23.084 9.69 23.084 10.75C23.084 11.81 22.904 12.75 22.544 13.57C22.194 14.38 21.704 15.02 21.074 15.49C20.444 15.95 19.719 16.18 18.899 16.18ZM18.899 14.83C19.429 14.83 19.899 14.655 20.309 14.305C20.729 13.955 21.054 13.475 21.284 12.865C21.514 12.255 21.629 11.55 21.629 10.75C21.629 9.95 21.514 9.245 21.284 8.635C21.054 8.015 20.729 7.53 20.309 7.18C19.899 6.83 19.429 6.655 18.899 6.655C18.369 6.655 17.899 6.83 17.489 7.18C17.079 7.53 16.759 8.015 16.529 8.635C16.299 9.245 16.184 9.95 16.184 10.75C16.184 11.55 16.299 12.26 16.529 12.88C16.759 13.49 17.079 13.97 17.489 14.32C17.899 14.66 18.369 14.83 18.899 14.83ZM28.5377 16.18C27.7277 16.18 27.0077 15.95 26.3777 15.49C25.7477 15.02 25.2527 14.38 24.8927 13.57C24.5427 12.75 24.3677 11.81 24.3677 10.75C24.3677 9.69 24.5427 8.755 24.8927 7.945C25.2527 7.125 25.7427 6.485 26.3627 6.025C26.9927 5.555 27.7177 5.32 28.5377 5.32C29.3577 5.32 30.0777 5.555 30.6977 6.025C31.3277 6.485 31.8227 7.125 32.1827 7.945C32.5427 8.755 32.7227 9.69 32.7227 10.75C32.7227 11.81 32.5427 12.75 32.1827 13.57C31.8327 14.38 31.3427 15.02 30.7127 15.49C30.0827 15.95 29.3577 16.18 28.5377 16.18ZM28.5377 14.83C29.0677 14.83 29.5377 14.655 29.9477 14.305C30.3677 13.955 30.6927 13.475 30.9227 12.865C31.1527 12.255 31.2677 11.55 31.2677 10.75C31.2677 9.95 31.1527 9.245 30.9227 8.635C30.6927 8.015 30.3677 7.53 29.9477 7.18C29.5377 6.83 29.0677 6.655 28.5377 6.655C28.0077 6.655 27.5377 6.83 27.1277 7.18C26.7177 7.53 26.3977 8.015 26.1677 8.635C25.9377 9.245 25.8227 9.95 25.8227 10.75C25.8227 11.55 25.9377 12.26 26.1677 12.88C26.3977 13.49 26.7177 13.97 27.1277 14.32C27.5377 14.66 28.0077 14.83 28.5377 14.83ZM38.1763 16.18C37.3663 16.18 36.6463 15.95 36.0163 15.49C35.3863 15.02 34.8913 14.38 34.5313 13.57C34.1813 12.75 34.0063 11.81 34.0063 10.75C34.0063 9.69 34.1813 8.755 34.5313 7.945C34.8913 7.125 35.3813 6.485 36.0013 6.025C36.6313 5.555 37.3563 5.32 38.1763 5.32C38.9963 5.32 39.7163 5.555 40.3363 6.025C40.9663 6.485 41.4613 7.125 41.8213 7.945C42.1813 8.755 42.3613 9.69 42.3613 10.75C42.3613 11.81 42.1813 12.75 41.8213 13.57C41.4713 14.38 40.9813 15.02 40.3513 15.49C39.7213 15.95 38.9963 16.18 38.1763 16.18ZM38.1763 14.83C38.7063 14.83 39.1763 14.655 39.5863 14.305C40.0063 13.955 40.3313 13.475 40.5613 12.865C40.7913 12.255 40.9063 11.55 40.9063 10.75C40.9063 9.95 40.7913 9.245 40.5613 8.635C40.3313 8.015 40.0063 7.53 39.5863 7.18C39.1763 6.83 38.7063 6.655 38.1763 6.655C37.6463 6.655 37.1763 6.83 36.7663 7.18C36.3563 7.53 36.0363 8.015 35.8063 8.635C35.5763 9.245 35.4613 9.95 35.4613 10.75C35.4613 11.55 35.5763 12.26 35.8063 12.88C36.0363 13.49 36.3563 13.97 36.7663 14.32C37.1763 14.66 37.6463 14.83 38.1763 14.83Z" fill="#808080"/>
<path d="M19.0988 78.18C18.3188 78.18 17.6438 78.06 17.0738 77.82C16.5038 77.57 16.0588 77.23 15.7388 76.8C15.4288 76.36 15.2738 75.85 15.2738 75.27C15.2738 74.66 15.4288 74.125 15.7388 73.665C16.0588 73.195 16.5038 72.83 17.0738 72.57C17.6438 72.31 18.3188 72.185 19.0988 72.195C19.8888 72.185 20.5688 72.31 21.1388 72.57C21.7088 72.83 22.1488 73.195 22.4588 73.665C22.7788 74.125 22.9388 74.66 22.9388 75.27C22.9388 75.85 22.7788 76.36 22.4588 76.8C22.1488 77.23 21.7088 77.57 21.1388 77.82C20.5688 78.06 19.8888 78.18 19.0988 78.18ZM19.0988 76.905C19.7888 76.905 20.3488 76.74 20.7788 76.41C21.2188 76.07 21.4388 75.635 21.4388 75.105C21.4388 74.555 21.2188 74.11 20.7788 73.77C20.3488 73.43 19.7888 73.26 19.0988 73.26C18.6488 73.26 18.2488 73.335 17.8988 73.485C17.5488 73.635 17.2738 73.855 17.0738 74.145C16.8838 74.425 16.7888 74.745 16.7888 75.105C16.7888 75.455 16.8838 75.77 17.0738 76.05C17.2738 76.32 17.5488 76.53 17.8988 76.68C18.2488 76.83 18.6488 76.905 19.0988 76.905ZM19.0988 72.945C18.4088 72.945 17.8038 72.83 17.2838 72.6C16.7638 72.36 16.3588 72.035 16.0688 71.625C15.7888 71.205 15.6488 70.72 15.6488 70.17C15.6488 69.61 15.7888 69.115 16.0688 68.685C16.3588 68.255 16.7638 67.92 17.2838 67.68C17.8038 67.44 18.4088 67.32 19.0988 67.32C19.7988 67.32 20.4088 67.44 20.9288 67.68C21.4488 67.92 21.8488 68.255 22.1288 68.685C22.4188 69.115 22.5638 69.61 22.5638 70.17C22.5638 70.72 22.4188 71.205 22.1288 71.625C21.8488 72.035 21.4488 72.36 20.9288 72.6C20.4088 72.83 19.7988 72.945 19.0988 72.945ZM19.0988 71.955C19.6888 71.955 20.1688 71.805 20.5388 71.505C20.9188 71.195 21.1088 70.8 21.1088 70.32C21.1088 69.8 20.9188 69.38 20.5388 69.06C20.1688 68.73 19.6888 68.565 19.0988 68.565C18.5188 68.565 18.0438 68.73 17.6738 69.06C17.3038 69.38 17.1188 69.8 17.1188 70.32C17.1188 70.8 17.3038 71.195 17.6738 71.505C18.0438 71.805 18.5188 71.955 19.0988 71.955ZM28.5377 78.18C27.7277 78.18 27.0077 77.95 26.3777 77.49C25.7477 77.02 25.2527 76.38 24.8927 75.57C24.5427 74.75 24.3677 73.81 24.3677 72.75C24.3677 71.69 24.5427 70.755 24.8927 69.945C25.2527 69.125 25.7427 68.485 26.3627 68.025C26.9927 67.555 27.7177 67.32 28.5377 67.32C29.3577 67.32 30.0777 67.555 30.6977 68.025C31.3277 68.485 31.8227 69.125 32.1827 69.945C32.5427 70.755 32.7227 71.69 32.7227 72.75C32.7227 73.81 32.5427 74.75 32.1827 75.57C31.8327 76.38 31.3427 77.02 30.7127 77.49C30.0827 77.95 29.3577 78.18 28.5377 78.18ZM28.5377 76.83C29.0677 76.83 29.5377 76.655 29.9477 76.305C30.3677 75.955 30.6927 75.475 30.9227 74.865C31.1527 74.255 31.2677 73.55 31.2677 72.75C31.2677 71.95 31.1527 71.245 30.9227 70.635C30.6927 70.015 30.3677 69.53 29.9477 69.18C29.5377 68.83 29.0677 68.655 28.5377 68.655C28.0077 68.655 27.5377 68.83 27.1277 69.18C26.7177 69.53 26.3977 70.015 26.1677 70.635C25.9377 71.245 25.8227 71.95 25.8227 72.75C25.8227 73.55 25.9377 74.26 26.1677 74.88C26.3977 75.49 26.7177 75.97 27.1277 76.32C27.5377 76.66 28.0077 76.83 28.5377 76.83ZM38.1763 78.18C37.3663 78.18 36.6463 77.95 36.0163 77.49C35.3863 77.02 34.8913 76.38 34.5313 75.57C34.1813 74.75 34.0063 73.81 34.0063 72.75C34.0063 71.69 34.1813 70.755 34.5313 69.945C34.8913 69.125 35.3813 68.485 36.0013 68.025C36.6313 67.555 37.3563 67.32 38.1763 67.32C38.9963 67.32 39.7163 67.555 40.3363 68.025C40.9663 68.485 41.4613 69.125 41.8213 69.945C42.1813 70.755 42.3613 71.69 42.3613 72.75C42.3613 73.81 42.1813 74.75 41.8213 75.57C41.4713 76.38 40.9813 77.02 40.3513 77.49C39.7213 77.95 38.9963 78.18 38.1763 78.18ZM38.1763 76.83C38.7063 76.83 39.1763 76.655 39.5863 76.305C40.0063 75.955 40.3313 75.475 40.5613 74.865C40.7913 74.255 40.9063 73.55 40.9063 72.75C40.9063 71.95 40.7913 71.245 40.5613 70.635C40.3313 70.015 40.0063 69.53 39.5863 69.18C39.1763 68.83 38.7063 68.655 38.1763 68.655C37.6463 68.655 37.1763 68.83 36.7663 69.18C36.3563 69.53 36.0363 70.015 35.8063 70.635C35.5763 71.245 35.4613 71.95 35.4613 72.75C35.4613 73.55 35.5763 74.26 35.8063 74.88C36.0363 75.49 36.3563 75.97 36.7663 76.32C37.1763 76.66 37.6463 76.83 38.1763 76.83Z" fill="#808080"/>
<path d="M19.6526 140.18C18.9326 140.18 18.3276 140.045 17.8376 139.775C17.3476 139.505 16.9526 139.14 16.6526 138.68C16.3626 138.21 16.1526 137.67 16.0226 137.06C15.8926 136.45 15.8276 135.8 15.8276 135.11C15.8276 134.24 15.9176 133.45 16.0976 132.74C16.2776 132.03 16.5426 131.42 16.8926 130.91C17.2426 130.4 17.6726 130.01 18.1826 129.74C18.6926 129.46 19.2776 129.32 19.9376 129.32C20.4676 129.32 20.9926 129.405 21.5126 129.575C22.0326 129.735 22.4976 129.96 22.9076 130.25L22.1126 131.315C21.7926 131.095 21.4476 130.93 21.0776 130.82C20.7076 130.7 20.3626 130.64 20.0426 130.64C19.0926 130.64 18.3626 131.045 17.8526 131.855C17.3426 132.655 17.1126 133.89 17.1626 135.56L16.8626 135.305C17.1026 134.715 17.4776 134.245 17.9876 133.895C18.5076 133.535 19.1176 133.355 19.8176 133.355C20.4976 133.355 21.0976 133.505 21.6176 133.805C22.1376 134.105 22.5426 134.515 22.8326 135.035C23.1226 135.545 23.2676 136.135 23.2676 136.805C23.2676 137.455 23.1176 138.035 22.8176 138.545C22.5176 139.055 22.0926 139.455 21.5426 139.745C21.0026 140.035 20.3726 140.18 19.6526 140.18ZM19.6676 138.89C20.0776 138.89 20.4426 138.8 20.7626 138.62C21.0826 138.44 21.3326 138.19 21.5126 137.87C21.7026 137.54 21.7976 137.17 21.7976 136.76C21.7976 136.34 21.7026 135.97 21.5126 135.65C21.3326 135.32 21.0826 135.065 20.7626 134.885C20.4426 134.705 20.0776 134.615 19.6676 134.615C19.2476 134.615 18.8726 134.705 18.5426 134.885C18.2226 135.065 17.9676 135.32 17.7776 135.65C17.5976 135.97 17.5076 136.34 17.5076 136.76C17.5076 137.17 17.5976 137.54 17.7776 137.87C17.9676 138.19 18.2226 138.44 18.5426 138.62C18.8726 138.8 19.2476 138.89 19.6676 138.89ZM28.5377 140.18C27.7277 140.18 27.0077 139.95 26.3777 139.49C25.7477 139.02 25.2527 138.38 24.8927 137.57C24.5427 136.75 24.3677 135.81 24.3677 134.75C24.3677 133.69 24.5427 132.755 24.8927 131.945C25.2527 131.125 25.7427 130.485 26.3627 130.025C26.9927 129.555 27.7177 129.32 28.5377 129.32C29.3577 129.32 30.0777 129.555 30.6977 130.025C31.3277 130.485 31.8227 131.125 32.1827 131.945C32.5427 132.755 32.7227 133.69 32.7227 134.75C32.7227 135.81 32.5427 136.75 32.1827 137.57C31.8327 138.38 31.3427 139.02 30.7127 139.49C30.0827 139.95 29.3577 140.18 28.5377 140.18ZM28.5377 138.83C29.0677 138.83 29.5377 138.655 29.9477 138.305C30.3677 137.955 30.6927 137.475 30.9227 136.865C31.1527 136.255 31.2677 135.55 31.2677 134.75C31.2677 133.95 31.1527 133.245 30.9227 132.635C30.6927 132.015 30.3677 131.53 29.9477 131.18C29.5377 130.83 29.0677 130.655 28.5377 130.655C28.0077 130.655 27.5377 130.83 27.1277 131.18C26.7177 131.53 26.3977 132.015 26.1677 132.635C25.9377 133.245 25.8227 133.95 25.8227 134.75C25.8227 135.55 25.9377 136.26 26.1677 136.88C26.3977 137.49 26.7177 137.97 27.1277 138.32C27.5377 138.66 28.0077 138.83 28.5377 138.83ZM38.1763 140.18C37.3663 140.18 36.6463 139.95 36.0163 139.49C35.3863 139.02 34.8913 138.38 34.5313 137.57C34.1813 136.75 34.0063 135.81 34.0063 134.75C34.0063 133.69 34.1813 132.755 34.5313 131.945C34.8913 131.125 35.3813 130.485 36.0013 130.025C36.6313 129.555 37.3563 129.32 38.1763 129.32C38.9963 129.32 39.7163 129.555 40.3363 130.025C40.9663 130.485 41.4613 131.125 41.8213 131.945C42.1813 132.755 42.3613 133.69 42.3613 134.75C42.3613 135.81 42.1813 136.75 41.8213 137.57C41.4713 138.38 40.9813 139.02 40.3513 139.49C39.7213 139.95 38.9963 140.18 38.1763 140.18ZM38.1763 138.83C38.7063 138.83 39.1763 138.655 39.5863 138.305C40.0063 137.955 40.3313 137.475 40.5613 136.865C40.7913 136.255 40.9063 135.55 40.9063 134.75C40.9063 133.95 40.7913 133.245 40.5613 132.635C40.3313 132.015 40.0063 131.53 39.5863 131.18C39.1763 130.83 38.7063 130.655 38.1763 130.655C37.6463 130.655 37.1763 130.83 36.7663 131.18C36.3563 131.53 36.0363 132.015 35.8063 132.635C35.5763 133.245 35.4613 133.95 35.4613 134.75C35.4613 135.55 35.5763 136.26 35.8063 136.88C36.0363 137.49 36.3563 137.97 36.7663 138.32C37.1763 138.66 37.6463 138.83 38.1763 138.83Z" fill="#808080"/>
<path d="M16.0273 199.075L14.9473 198.43L19.6873 191.5L20.6173 192.34L16.0273 199.075ZM14.9473 199.585V198.43L15.8473 198.28H23.2723V199.585H14.9473ZM19.7923 202V192.4L19.6873 191.5H21.2173V202H19.7923ZM28.5377 202.18C27.7277 202.18 27.0077 201.95 26.3777 201.49C25.7477 201.02 25.2527 200.38 24.8927 199.57C24.5427 198.75 24.3677 197.81 24.3677 196.75C24.3677 195.69 24.5427 194.755 24.8927 193.945C25.2527 193.125 25.7427 192.485 26.3627 192.025C26.9927 191.555 27.7177 191.32 28.5377 191.32C29.3577 191.32 30.0777 191.555 30.6977 192.025C31.3277 192.485 31.8227 193.125 32.1827 193.945C32.5427 194.755 32.7227 195.69 32.7227 196.75C32.7227 197.81 32.5427 198.75 32.1827 199.57C31.8327 200.38 31.3427 201.02 30.7127 201.49C30.0827 201.95 29.3577 202.18 28.5377 202.18ZM28.5377 200.83C29.0677 200.83 29.5377 200.655 29.9477 200.305C30.3677 199.955 30.6927 199.475 30.9227 198.865C31.1527 198.255 31.2677 197.55 31.2677 196.75C31.2677 195.95 31.1527 195.245 30.9227 194.635C30.6927 194.015 30.3677 193.53 29.9477 193.18C29.5377 192.83 29.0677 192.655 28.5377 192.655C28.0077 192.655 27.5377 192.83 27.1277 193.18C26.7177 193.53 26.3977 194.015 26.1677 194.635C25.9377 195.245 25.8227 195.95 25.8227 196.75C25.8227 197.55 25.9377 198.26 26.1677 198.88C26.3977 199.49 26.7177 199.97 27.1277 200.32C27.5377 200.66 28.0077 200.83 28.5377 200.83ZM38.1763 202.18C37.3663 202.18 36.6463 201.95 36.0163 201.49C35.3863 201.02 34.8913 200.38 34.5313 199.57C34.1813 198.75 34.0063 197.81 34.0063 196.75C34.0063 195.69 34.1813 194.755 34.5313 193.945C34.8913 193.125 35.3813 192.485 36.0013 192.025C36.6313 191.555 37.3563 191.32 38.1763 191.32C38.9963 191.32 39.7163 191.555 40.3363 192.025C40.9663 192.485 41.4613 193.125 41.8213 193.945C42.1813 194.755 42.3613 195.69 42.3613 196.75C42.3613 197.81 42.1813 198.75 41.8213 199.57C41.4713 200.38 40.9813 201.02 40.3513 201.49C39.7213 201.95 38.9963 202.18 38.1763 202.18ZM38.1763 200.83C38.7063 200.83 39.1763 200.655 39.5863 200.305C40.0063 199.955 40.3313 199.475 40.5613 198.865C40.7913 198.255 40.9063 197.55 40.9063 196.75C40.9063 195.95 40.7913 195.245 40.5613 194.635C40.3313 194.015 40.0063 193.53 39.5863 193.18C39.1763 192.83 38.7063 192.655 38.1763 192.655C37.6463 192.655 37.1763 192.83 36.7663 193.18C36.3563 193.53 36.0363 194.015 35.8063 194.635C35.5763 195.245 35.4613 195.95 35.4613 196.75C35.4613 197.55 35.5763 198.26 35.8063 198.88C36.0363 199.49 36.3563 199.97 36.7663 200.32C37.1763 200.66 37.6463 200.83 38.1763 200.83Z" fill="#808080"/>
<path d="M22.8096 263V254.04H21.4656V252.878H24.0976V263H22.8096ZM26.286 257.834C26.286 254.936 27.014 252.724 29.814 252.724C32.6 252.724 33.328 254.936 33.328 257.834C33.328 260.774 32.6 263 29.814 263C27.014 263 26.286 260.774 26.286 257.834ZM32.068 257.834C32.068 255.734 31.802 253.886 29.814 253.886C27.812 253.886 27.546 255.734 27.546 257.834C27.546 260.018 27.812 261.838 29.814 261.838C31.802 261.838 32.068 260.018 32.068 257.834ZM35.077 257.834C35.077 254.936 35.805 252.724 38.605 252.724C41.391 252.724 42.119 254.936 42.119 257.834C42.119 260.774 41.391 263 38.605 263C35.805 263 35.077 260.774 35.077 257.834ZM40.859 257.834C40.859 255.734 40.593 253.886 38.605 253.886C36.603 253.886 36.337 255.734 36.337 257.834C36.337 260.018 36.603 261.838 38.605 261.838C40.593 261.838 40.859 260.018 40.859 257.834Z" fill="#808080"/>
<line x1="63" y1="262.5" x2="676" y2="262.5" stroke="#909294" stroke-opacity="0.24"/>
<line x1="63" y1="200.5" x2="676" y2="200.5" stroke="#909294" stroke-opacity="0.24"/>
<line x1="63" y1="138.5" x2="676" y2="138.5" stroke="#909294" stroke-opacity="0.24"/>
<line x1="63" y1="76.5" x2="676" y2="76.5" stroke="#909294" stroke-opacity="0.24"/>
<line x1="63" y1="14.5" x2="676" y2="14.5" stroke="#909294" stroke-opacity="0.24"/>
<rect x="63" y="164" width="16" height="100" rx="6" fill="#4ABDE8"/>
<rect x="63" y="164" width="16" height="100" rx="6" fill="white" fill-opacity="0.8"/>
<rect x="84" y="104" width="16" height="160" rx="6" fill="#5655D7"/>
<rect x="84" y="104" width="16" height="160" rx="6" fill="white" fill-opacity="0.8"/>
<rect x="105" y="116" width="16" height="148" rx="6" fill="#00997E"/>
<rect x="105" y="116" width="16" height="148" rx="6" fill="white" fill-opacity="0.8"/>
<path d="M84.499 291.413L80.391 285.342L80.833 285.108L81.353 284.9L85.032 290.347L84.499 291.413ZM80.209 294V284.9H81.314V294H80.209ZM84.499 291.413L83.966 290.347L87.645 284.9L88.165 285.108L88.594 285.329L84.499 291.413ZM87.684 294V284.9H88.776V294H87.684ZM93.7771 294.156C93.1445 294.156 92.5811 294.013 92.0871 293.727C91.6018 293.432 91.2205 293.029 90.9431 292.518C90.6658 292.007 90.5271 291.417 90.5271 290.75C90.5271 290.083 90.6615 289.493 90.9301 288.982C91.2075 288.471 91.5888 288.072 92.0741 287.786C92.5681 287.491 93.1271 287.344 93.7511 287.344C94.3925 287.344 94.9558 287.491 95.4411 287.786C95.9351 288.072 96.3165 288.471 96.5851 288.982C96.8625 289.493 97.0011 290.083 97.0011 290.75C97.0011 291.417 96.8625 292.007 96.5851 292.518C96.3165 293.029 95.9395 293.432 95.4541 293.727C94.9688 294.013 94.4098 294.156 93.7771 294.156ZM93.7771 293.194C94.2105 293.194 94.5875 293.09 94.9081 292.882C95.2288 292.674 95.4801 292.388 95.6621 292.024C95.8528 291.66 95.9481 291.235 95.9481 290.75C95.9481 290.265 95.8528 289.84 95.6621 289.476C95.4801 289.112 95.2245 288.826 94.8951 288.618C94.5658 288.41 94.1845 288.306 93.7511 288.306C93.3265 288.306 92.9495 288.41 92.6201 288.618C92.2995 288.826 92.0438 289.112 91.8531 289.476C91.6711 289.84 91.5801 290.265 91.5801 290.75C91.5801 291.227 91.6711 291.651 91.8531 292.024C92.0438 292.388 92.3038 292.674 92.6331 292.882C92.9711 293.09 93.3525 293.194 93.7771 293.194ZM98.4452 294V287.5H99.4202L99.4852 288.696V294H98.4452ZM103.008 294V290.672L104.048 290.282V294H103.008ZM103.008 290.672C103.008 290.031 102.934 289.541 102.787 289.203C102.64 288.865 102.436 288.635 102.176 288.514C101.916 288.384 101.621 288.319 101.292 288.319C100.72 288.319 100.274 288.523 99.9532 288.93C99.6412 289.329 99.4852 289.896 99.4852 290.633H98.9782C98.9782 289.948 99.0778 289.359 99.2772 288.865C99.4765 288.371 99.7625 287.994 100.135 287.734C100.516 287.474 100.976 287.344 101.513 287.344C102.302 287.344 102.921 287.587 103.372 288.072C103.831 288.557 104.057 289.294 104.048 290.282L103.008 290.672Z" fill="#465762"/>
<path d="M84.499 291.413L80.391 285.342L80.833 285.108L81.353 284.9L85.032 290.347L84.499 291.413ZM80.209 294V284.9H81.314V294H80.209ZM84.499 291.413L83.966 290.347L87.645 284.9L88.165 285.108L88.594 285.329L84.499 291.413ZM87.684 294V284.9H88.776V294H87.684ZM93.7771 294.156C93.1445 294.156 92.5811 294.013 92.0871 293.727C91.6018 293.432 91.2205 293.029 90.9431 292.518C90.6658 292.007 90.5271 291.417 90.5271 290.75C90.5271 290.083 90.6615 289.493 90.9301 288.982C91.2075 288.471 91.5888 288.072 92.0741 287.786C92.5681 287.491 93.1271 287.344 93.7511 287.344C94.3925 287.344 94.9558 287.491 95.4411 287.786C95.9351 288.072 96.3165 288.471 96.5851 288.982C96.8625 289.493 97.0011 290.083 97.0011 290.75C97.0011 291.417 96.8625 292.007 96.5851 292.518C96.3165 293.029 95.9395 293.432 95.4541 293.727C94.9688 294.013 94.4098 294.156 93.7771 294.156ZM93.7771 293.194C94.2105 293.194 94.5875 293.09 94.9081 292.882C95.2288 292.674 95.4801 292.388 95.6621 292.024C95.8528 291.66 95.9481 291.235 95.9481 290.75C95.9481 290.265 95.8528 289.84 95.6621 289.476C95.4801 289.112 95.2245 288.826 94.8951 288.618C94.5658 288.41 94.1845 288.306 93.7511 288.306C93.3265 288.306 92.9495 288.41 92.6201 288.618C92.2995 288.826 92.0438 289.112 91.8531 289.476C91.6711 289.84 91.5801 290.265 91.5801 290.75C91.5801 291.227 91.6711 291.651 91.8531 292.024C92.0438 292.388 92.3038 292.674 92.6331 292.882C92.9711 293.09 93.3525 293.194 93.7771 293.194ZM98.4452 294V287.5H99.4202L99.4852 288.696V294H98.4452ZM103.008 294V290.672L104.048 290.282V294H103.008ZM103.008 290.672C103.008 290.031 102.934 289.541 102.787 289.203C102.64 288.865 102.436 288.635 102.176 288.514C101.916 288.384 101.621 288.319 101.292 288.319C100.72 288.319 100.274 288.523 99.9532 288.93C99.6412 289.329 99.4852 289.896 99.4852 290.633H98.9782C98.9782 289.948 99.0778 289.359 99.2772 288.865C99.4765 288.371 99.7625 287.994 100.135 287.734C100.516 287.474 100.976 287.344 101.513 287.344C102.302 287.344 102.921 287.587 103.372 288.072C103.831 288.557 104.057 289.294 104.048 290.282L103.008 290.672Z" fill="white" fill-opacity="0.4"/>
<rect x="155.5" y="86" width="16" height="178" rx="6" fill="#4ABDE8"/>
<rect x="155.5" y="86" width="16" height="178" rx="6" fill="white" fill-opacity="0.8"/>
<rect x="176.5" y="115" width="16" height="149" rx="6" fill="#5655D7"/>
<rect x="176.5" y="115" width="16" height="149" rx="6" fill="white" fill-opacity="0.8"/>
<rect x="197.5" y="110" width="16" height="154" rx="6" fill="#00997E"/>
<rect x="197.5" y="110" width="16" height="154" rx="6" fill="white" fill-opacity="0.8"/>
<path d="M177.042 294V285.654H178.134V294H177.042ZM174.143 285.901V284.9H181.033V285.901H174.143ZM185.932 294L185.867 292.804V287.5H186.907V294H185.932ZM181.304 291.218V287.5H182.344V290.828L181.304 291.218ZM182.344 290.828C182.344 291.469 182.418 291.959 182.565 292.297C182.713 292.635 182.916 292.869 183.176 292.999C183.445 293.12 183.744 293.181 184.073 293.181C184.637 293.181 185.074 292.977 185.386 292.57C185.707 292.163 185.867 291.595 185.867 290.867H186.374C186.374 291.552 186.275 292.141 186.075 292.635C185.876 293.129 185.586 293.506 185.204 293.766C184.832 294.026 184.377 294.156 183.839 294.156C183.051 294.156 182.427 293.913 181.967 293.428C181.517 292.943 181.296 292.206 181.304 291.218L182.344 290.828ZM191.57 294.156C190.937 294.156 190.378 294.013 189.893 293.727C189.407 293.432 189.026 293.029 188.749 292.518C188.48 292.007 188.346 291.417 188.346 290.75C188.346 290.083 188.48 289.493 188.749 288.982C189.026 288.471 189.403 288.072 189.88 287.786C190.365 287.491 190.92 287.344 191.544 287.344C192.142 287.344 192.662 287.496 193.104 287.799C193.554 288.094 193.901 288.51 194.144 289.047C194.386 289.584 194.508 290.217 194.508 290.945H193.468C193.468 290.39 193.394 289.918 193.247 289.528C193.099 289.129 192.878 288.822 192.584 288.605C192.298 288.388 191.947 288.28 191.531 288.28C191.106 288.28 190.729 288.384 190.4 288.592C190.079 288.791 189.832 289.077 189.659 289.45C189.485 289.823 189.399 290.26 189.399 290.763C189.399 291.257 189.494 291.686 189.685 292.05C189.875 292.405 190.14 292.687 190.478 292.895C190.816 293.094 191.197 293.194 191.622 293.194C192.072 293.194 192.454 293.086 192.766 292.869C193.078 292.652 193.325 292.371 193.507 292.024L194.417 292.479C194.252 292.817 194.031 293.112 193.754 293.363C193.485 293.614 193.164 293.809 192.792 293.948C192.428 294.087 192.02 294.156 191.57 294.156ZM189.035 290.945L189.048 290.048H193.871V290.945H189.035Z" fill="#465762"/>
<path d="M177.042 294V285.654H178.134V294H177.042ZM174.143 285.901V284.9H181.033V285.901H174.143ZM185.932 294L185.867 292.804V287.5H186.907V294H185.932ZM181.304 291.218V287.5H182.344V290.828L181.304 291.218ZM182.344 290.828C182.344 291.469 182.418 291.959 182.565 292.297C182.713 292.635 182.916 292.869 183.176 292.999C183.445 293.12 183.744 293.181 184.073 293.181C184.637 293.181 185.074 292.977 185.386 292.57C185.707 292.163 185.867 291.595 185.867 290.867H186.374C186.374 291.552 186.275 292.141 186.075 292.635C185.876 293.129 185.586 293.506 185.204 293.766C184.832 294.026 184.377 294.156 183.839 294.156C183.051 294.156 182.427 293.913 181.967 293.428C181.517 292.943 181.296 292.206 181.304 291.218L182.344 290.828ZM191.57 294.156C190.937 294.156 190.378 294.013 189.893 293.727C189.407 293.432 189.026 293.029 188.749 292.518C188.48 292.007 188.346 291.417 188.346 290.75C188.346 290.083 188.48 289.493 188.749 288.982C189.026 288.471 189.403 288.072 189.88 287.786C190.365 287.491 190.92 287.344 191.544 287.344C192.142 287.344 192.662 287.496 193.104 287.799C193.554 288.094 193.901 288.51 194.144 289.047C194.386 289.584 194.508 290.217 194.508 290.945H193.468C193.468 290.39 193.394 289.918 193.247 289.528C193.099 289.129 192.878 288.822 192.584 288.605C192.298 288.388 191.947 288.28 191.531 288.28C191.106 288.28 190.729 288.384 190.4 288.592C190.079 288.791 189.832 289.077 189.659 289.45C189.485 289.823 189.399 290.26 189.399 290.763C189.399 291.257 189.494 291.686 189.685 292.05C189.875 292.405 190.14 292.687 190.478 292.895C190.816 293.094 191.197 293.194 191.622 293.194C192.072 293.194 192.454 293.086 192.766 292.869C193.078 292.652 193.325 292.371 193.507 292.024L194.417 292.479C194.252 292.817 194.031 293.112 193.754 293.363C193.485 293.614 193.164 293.809 192.792 293.948C192.428 294.087 192.02 294.156 191.57 294.156ZM189.035 290.945L189.048 290.048H193.871V290.945H189.035Z" fill="white" fill-opacity="0.4"/>
<rect x="248" y="77" width="16" height="187" rx="6" fill="url(#paint0_linear_609_18483)"/>
<rect x="269" y="94" width="16" height="170" rx="6" fill="url(#paint1_linear_609_18483)"/>
<rect x="290" y="128" width="16" height="136" rx="6" fill="url(#paint2_linear_609_18483)"/>
<g filter="url(#filter0_d_609_18483)">
<path d="M250.771 143C247.031 143 244 146.128 244 149.987V183.526C244 187.385 247.031 190.513 250.771 190.513H271.422L277.708 197L283.994 190.513H302.229C305.969 190.513 309 187.385 309 183.526V149.987C309 146.128 305.969 143 302.229 143H250.771Z" fill="#465762"/>
</g>
<path d="M257.117 165.792L255.662 165.267C255.662 164.957 255.732 164.637 255.872 164.307C256.022 163.967 256.232 163.632 256.502 163.302C256.782 162.972 257.112 162.667 257.492 162.387L259.517 160.887C259.757 160.717 259.972 160.522 260.162 160.302C260.362 160.072 260.517 159.837 260.627 159.597C260.747 159.347 260.807 159.102 260.807 158.862C260.807 158.542 260.727 158.252 260.567 157.992C260.407 157.722 260.182 157.512 259.892 157.362C259.602 157.202 259.257 157.122 258.857 157.122C258.477 157.122 258.142 157.197 257.852 157.347C257.572 157.487 257.337 157.677 257.147 157.917C256.957 158.157 256.822 158.412 256.742 158.682L255.227 158.397C255.337 157.937 255.552 157.507 255.872 157.107C256.192 156.707 256.602 156.387 257.102 156.147C257.602 155.897 258.167 155.772 258.797 155.772C259.517 155.772 260.137 155.907 260.657 156.177C261.187 156.437 261.597 156.802 261.887 157.272C262.177 157.732 262.322 158.262 262.322 158.862C262.322 159.442 262.162 159.977 261.842 160.467C261.532 160.957 261.082 161.432 260.492 161.892L258.617 163.302C258.327 163.512 258.067 163.742 257.837 163.992C257.607 164.242 257.427 164.517 257.297 164.817C257.177 165.107 257.117 165.432 257.117 165.792ZM255.662 166.452V165.267L256.772 165.132H262.457V166.452H255.662ZM267.369 166.632C266.829 166.632 266.339 166.552 265.899 166.392C265.459 166.232 265.089 166.012 264.789 165.732C264.489 165.452 264.259 165.147 264.099 164.817L265.374 164.232C265.474 164.372 265.599 164.532 265.749 164.712C265.899 164.882 266.099 165.027 266.349 165.147C266.599 165.267 266.909 165.327 267.279 165.327C267.909 165.327 268.409 165.147 268.779 164.787C269.159 164.427 269.349 163.972 269.349 163.422C269.349 163.012 269.239 162.667 269.019 162.387C268.799 162.097 268.474 161.877 268.044 161.727C267.624 161.577 267.109 161.502 266.499 161.502H266.124V160.392H266.469C267.089 160.392 267.659 160.462 268.179 160.602C268.709 160.742 269.174 160.952 269.574 161.232C269.974 161.502 270.284 161.832 270.504 162.222C270.724 162.612 270.834 163.057 270.834 163.557C270.834 164.177 270.674 164.722 270.354 165.192C270.044 165.652 269.624 166.007 269.094 166.257C268.574 166.507 267.999 166.632 267.369 166.632ZM266.124 161.322V160.257H266.499C267.319 160.257 267.959 160.117 268.419 159.837C268.879 159.557 269.109 159.162 269.109 158.652C269.109 158.362 269.029 158.102 268.869 157.872C268.719 157.632 268.504 157.442 268.224 157.302C267.954 157.152 267.629 157.077 267.249 157.077C267.009 157.077 266.774 157.117 266.544 157.197C266.324 157.267 266.119 157.377 265.929 157.527C265.739 157.667 265.574 157.852 265.434 158.082L264.204 157.527C264.374 157.157 264.614 156.842 264.924 156.582C265.234 156.322 265.594 156.122 266.004 155.982C266.414 155.842 266.849 155.772 267.309 155.772C267.939 155.772 268.499 155.892 268.989 156.132C269.479 156.372 269.864 156.702 270.144 157.122C270.434 157.542 270.579 158.017 270.579 158.547C270.579 158.997 270.469 159.397 270.249 159.747C270.039 160.087 269.744 160.377 269.364 160.617C268.984 160.847 268.544 161.022 268.044 161.142C267.554 161.262 267.024 161.322 266.454 161.322H266.124ZM278.259 166.632C277.849 166.632 277.479 166.572 277.149 166.452C276.829 166.332 276.544 166.177 276.294 165.987C276.044 165.787 275.834 165.567 275.664 165.327C275.494 165.077 275.359 164.827 275.259 164.577L276.444 163.977C276.634 164.367 276.874 164.682 277.164 164.922C277.464 165.162 277.829 165.282 278.259 165.282C278.609 165.282 278.944 165.202 279.264 165.042C279.584 164.882 279.849 164.617 280.059 164.247C280.269 163.867 280.374 163.372 280.374 162.762V155.952H281.844V163.287C281.844 163.837 281.744 164.322 281.544 164.742C281.354 165.152 281.089 165.502 280.749 165.792C280.419 166.072 280.039 166.282 279.609 166.422C279.179 166.562 278.729 166.632 278.259 166.632ZM288.615 166.452L288.54 165.147V162.537C288.54 161.987 288.475 161.532 288.345 161.172C288.225 160.802 288.035 160.522 287.775 160.332C287.525 160.142 287.19 160.047 286.77 160.047C286.38 160.047 286.035 160.127 285.735 160.287C285.445 160.447 285.205 160.697 285.015 161.037L283.725 160.557C283.905 160.217 284.135 159.912 284.415 159.642C284.695 159.372 285.03 159.162 285.42 159.012C285.82 158.852 286.28 158.772 286.8 158.772C287.5 158.772 288.085 158.907 288.555 159.177C289.035 159.447 289.39 159.852 289.62 160.392C289.86 160.922 289.975 161.582 289.965 162.372L289.95 166.452H288.615ZM286.425 166.632C285.535 166.632 284.84 166.432 284.34 166.032C283.85 165.622 283.605 165.057 283.605 164.337C283.605 163.567 283.86 162.982 284.37 162.582C284.89 162.172 285.61 161.967 286.53 161.967H288.615V163.092H286.92C286.23 163.092 285.745 163.202 285.465 163.422C285.185 163.632 285.045 163.927 285.045 164.307C285.045 164.657 285.175 164.932 285.435 165.132C285.705 165.322 286.075 165.417 286.545 165.417C286.955 165.417 287.305 165.322 287.595 165.132C287.895 164.942 288.125 164.692 288.285 164.382C288.455 164.062 288.54 163.707 288.54 163.317H289.215C289.215 164.337 288.98 165.147 288.51 165.747C288.04 166.337 287.345 166.632 286.425 166.632ZM291.76 166.452V158.952H293.095L293.185 160.332V166.452H291.76ZM296.95 166.452V162.612L298.375 162.162V166.452H296.95ZM296.95 162.612C296.95 161.932 296.87 161.417 296.71 161.067C296.56 160.707 296.345 160.457 296.065 160.317C295.795 160.177 295.48 160.102 295.12 160.092C294.51 160.092 294.035 160.307 293.695 160.737C293.355 161.167 293.185 161.772 293.185 162.552H292.57C292.57 161.762 292.685 161.087 292.915 160.527C293.145 159.957 293.475 159.522 293.905 159.222C294.345 158.922 294.87 158.772 295.48 158.772C296.38 158.772 297.085 159.052 297.595 159.612C298.115 160.162 298.375 161.012 298.375 162.162L296.95 162.612Z" fill="white"/>
<path d="M265.005 179.461L264.081 179.23C264.081 178.988 264.128 178.75 264.224 178.515C264.326 178.273 264.469 178.035 264.653 177.8C264.843 177.565 265.074 177.345 265.346 177.14L266.941 175.941C267.131 175.809 267.296 175.659 267.436 175.49C267.582 175.314 267.696 175.134 267.777 174.951C267.857 174.76 267.898 174.577 267.898 174.401C267.898 174.144 267.835 173.913 267.711 173.708C267.586 173.495 267.41 173.327 267.183 173.202C266.955 173.077 266.688 173.015 266.38 173.015C266.079 173.015 265.815 173.074 265.588 173.191C265.36 173.301 265.173 173.451 265.027 173.642C264.88 173.825 264.774 174.023 264.708 174.236L263.762 174.049C263.85 173.719 264.007 173.411 264.235 173.125C264.469 172.839 264.766 172.608 265.126 172.432C265.485 172.256 265.885 172.168 266.325 172.168C266.838 172.168 267.282 172.267 267.656 172.465C268.03 172.656 268.319 172.92 268.525 173.257C268.737 173.587 268.844 173.965 268.844 174.39C268.844 174.793 268.734 175.175 268.514 175.534C268.294 175.893 267.975 176.242 267.557 176.579L266.05 177.723C265.837 177.877 265.65 178.046 265.489 178.229C265.335 178.412 265.214 178.607 265.126 178.812C265.045 179.01 265.005 179.226 265.005 179.461ZM264.081 180V179.23L264.785 179.175H268.954V180H264.081ZM273.118 180.132C272.531 180.132 272.011 179.963 271.556 179.626C271.101 179.281 270.746 178.812 270.489 178.218C270.232 177.617 270.104 176.927 270.104 176.15C270.104 175.373 270.232 174.687 270.489 174.093C270.746 173.492 271.098 173.022 271.545 172.685C272 172.34 272.524 172.168 273.118 172.168C273.712 172.168 274.233 172.34 274.68 172.685C275.135 173.022 275.49 173.492 275.747 174.093C276.011 174.687 276.143 175.373 276.143 176.15C276.143 176.927 276.015 177.617 275.758 178.218C275.501 178.812 275.146 179.281 274.691 179.626C274.236 179.963 273.712 180.132 273.118 180.132ZM273.118 179.296C273.529 179.296 273.892 179.16 274.207 178.889C274.53 178.618 274.779 178.247 274.955 177.778C275.138 177.309 275.23 176.766 275.23 176.15C275.23 175.534 275.138 174.991 274.955 174.522C274.779 174.045 274.53 173.675 274.207 173.411C273.892 173.14 273.529 173.004 273.118 173.004C272.707 173.004 272.344 173.14 272.029 173.411C271.714 173.675 271.464 174.045 271.281 174.522C271.105 174.991 271.017 175.534 271.017 176.15C271.017 176.766 271.105 177.309 271.281 177.778C271.464 178.247 271.714 178.618 272.029 178.889C272.352 179.16 272.715 179.296 273.118 179.296ZM278.196 179.461L277.272 179.23C277.272 178.988 277.32 178.75 277.415 178.515C277.518 178.273 277.661 178.035 277.844 177.8C278.035 177.565 278.266 177.345 278.537 177.14L280.132 175.941C280.323 175.809 280.488 175.659 280.627 175.49C280.774 175.314 280.887 175.134 280.968 174.951C281.049 174.76 281.089 174.577 281.089 174.401C281.089 174.144 281.027 173.913 280.902 173.708C280.777 173.495 280.601 173.327 280.374 173.202C280.147 173.077 279.879 173.015 279.571 173.015C279.27 173.015 279.006 173.074 278.779 173.191C278.552 173.301 278.365 173.451 278.218 173.642C278.071 173.825 277.965 174.023 277.899 174.236L276.953 174.049C277.041 173.719 277.199 173.411 277.426 173.125C277.661 172.839 277.958 172.608 278.317 172.432C278.676 172.256 279.076 172.168 279.516 172.168C280.029 172.168 280.473 172.267 280.847 172.465C281.221 172.656 281.511 172.92 281.716 173.257C281.929 173.587 282.035 173.965 282.035 174.39C282.035 174.793 281.925 175.175 281.705 175.534C281.485 175.893 281.166 176.242 280.748 176.579L279.241 177.723C279.028 177.877 278.841 178.046 278.68 178.229C278.526 178.412 278.405 178.607 278.317 178.812C278.236 179.01 278.196 179.226 278.196 179.461ZM277.272 180V179.23L277.976 179.175H282.145V180H277.272ZM286.156 180.132C285.606 180.132 285.122 180.044 284.704 179.868C284.286 179.685 283.963 179.435 283.736 179.12C283.508 178.797 283.395 178.423 283.395 177.998C283.395 177.551 283.508 177.158 283.736 176.821C283.963 176.484 284.286 176.223 284.704 176.04C285.122 175.849 285.606 175.754 286.156 175.754C286.72 175.754 287.208 175.849 287.619 176.04C288.037 176.223 288.359 176.484 288.587 176.821C288.821 177.158 288.939 177.551 288.939 177.998C288.939 178.423 288.821 178.797 288.587 179.12C288.359 179.435 288.037 179.685 287.619 179.868C287.208 180.044 286.72 180.132 286.156 180.132ZM286.156 179.318C286.698 179.318 287.142 179.19 287.487 178.933C287.831 178.669 288.004 178.328 288.004 177.91C288.004 177.485 287.831 177.14 287.487 176.876C287.142 176.605 286.698 176.469 286.156 176.469C285.804 176.469 285.488 176.531 285.21 176.656C284.938 176.773 284.722 176.942 284.561 177.162C284.407 177.375 284.33 177.624 284.33 177.91C284.33 178.189 284.407 178.434 284.561 178.647C284.722 178.86 284.938 179.025 285.21 179.142C285.488 179.259 285.804 179.318 286.156 179.318ZM286.156 176.293C285.664 176.293 285.232 176.209 284.858 176.04C284.484 175.864 284.194 175.626 283.989 175.325C283.783 175.017 283.681 174.661 283.681 174.258C283.681 173.847 283.783 173.484 283.989 173.169C284.194 172.854 284.484 172.608 284.858 172.432C285.232 172.256 285.664 172.168 286.156 172.168C286.662 172.168 287.098 172.256 287.465 172.432C287.839 172.608 288.128 172.854 288.334 173.169C288.546 173.484 288.653 173.847 288.653 174.258C288.653 174.661 288.546 175.017 288.334 175.325C288.128 175.626 287.839 175.864 287.465 176.04C287.098 176.209 286.662 176.293 286.156 176.293ZM286.156 175.6C286.618 175.6 286.995 175.486 287.289 175.259C287.589 175.024 287.74 174.72 287.74 174.346C287.74 173.935 287.589 173.605 287.289 173.356C286.995 173.099 286.618 172.971 286.156 172.971C285.701 172.971 285.327 173.099 285.034 173.356C284.74 173.605 284.594 173.935 284.594 174.346C284.594 174.72 284.74 175.024 285.034 175.259C285.327 175.486 285.701 175.6 286.156 175.6Z" fill="#465762"/>
<path d="M265.005 179.461L264.081 179.23C264.081 178.988 264.128 178.75 264.224 178.515C264.326 178.273 264.469 178.035 264.653 177.8C264.843 177.565 265.074 177.345 265.346 177.14L266.941 175.941C267.131 175.809 267.296 175.659 267.436 175.49C267.582 175.314 267.696 175.134 267.777 174.951C267.857 174.76 267.898 174.577 267.898 174.401C267.898 174.144 267.835 173.913 267.711 173.708C267.586 173.495 267.41 173.327 267.183 173.202C266.955 173.077 266.688 173.015 266.38 173.015C266.079 173.015 265.815 173.074 265.588 173.191C265.36 173.301 265.173 173.451 265.027 173.642C264.88 173.825 264.774 174.023 264.708 174.236L263.762 174.049C263.85 173.719 264.007 173.411 264.235 173.125C264.469 172.839 264.766 172.608 265.126 172.432C265.485 172.256 265.885 172.168 266.325 172.168C266.838 172.168 267.282 172.267 267.656 172.465C268.03 172.656 268.319 172.92 268.525 173.257C268.737 173.587 268.844 173.965 268.844 174.39C268.844 174.793 268.734 175.175 268.514 175.534C268.294 175.893 267.975 176.242 267.557 176.579L266.05 177.723C265.837 177.877 265.65 178.046 265.489 178.229C265.335 178.412 265.214 178.607 265.126 178.812C265.045 179.01 265.005 179.226 265.005 179.461ZM264.081 180V179.23L264.785 179.175H268.954V180H264.081ZM273.118 180.132C272.531 180.132 272.011 179.963 271.556 179.626C271.101 179.281 270.746 178.812 270.489 178.218C270.232 177.617 270.104 176.927 270.104 176.15C270.104 175.373 270.232 174.687 270.489 174.093C270.746 173.492 271.098 173.022 271.545 172.685C272 172.34 272.524 172.168 273.118 172.168C273.712 172.168 274.233 172.34 274.68 172.685C275.135 173.022 275.49 173.492 275.747 174.093C276.011 174.687 276.143 175.373 276.143 176.15C276.143 176.927 276.015 177.617 275.758 178.218C275.501 178.812 275.146 179.281 274.691 179.626C274.236 179.963 273.712 180.132 273.118 180.132ZM273.118 179.296C273.529 179.296 273.892 179.16 274.207 178.889C274.53 178.618 274.779 178.247 274.955 177.778C275.138 177.309 275.23 176.766 275.23 176.15C275.23 175.534 275.138 174.991 274.955 174.522C274.779 174.045 274.53 173.675 274.207 173.411C273.892 173.14 273.529 173.004 273.118 173.004C272.707 173.004 272.344 173.14 272.029 173.411C271.714 173.675 271.464 174.045 271.281 174.522C271.105 174.991 271.017 175.534 271.017 176.15C271.017 176.766 271.105 177.309 271.281 177.778C271.464 178.247 271.714 178.618 272.029 178.889C272.352 179.16 272.715 179.296 273.118 179.296ZM278.196 179.461L277.272 179.23C277.272 178.988 277.32 178.75 277.415 178.515C277.518 178.273 277.661 178.035 277.844 177.8C278.035 177.565 278.266 177.345 278.537 177.14L280.132 175.941C280.323 175.809 280.488 175.659 280.627 175.49C280.774 175.314 280.887 175.134 280.968 174.951C281.049 174.76 281.089 174.577 281.089 174.401C281.089 174.144 281.027 173.913 280.902 173.708C280.777 173.495 280.601 173.327 280.374 173.202C280.147 173.077 279.879 173.015 279.571 173.015C279.27 173.015 279.006 173.074 278.779 173.191C278.552 173.301 278.365 173.451 278.218 173.642C278.071 173.825 277.965 174.023 277.899 174.236L276.953 174.049C277.041 173.719 277.199 173.411 277.426 173.125C277.661 172.839 277.958 172.608 278.317 172.432C278.676 172.256 279.076 172.168 279.516 172.168C280.029 172.168 280.473 172.267 280.847 172.465C281.221 172.656 281.511 172.92 281.716 173.257C281.929 173.587 282.035 173.965 282.035 174.39C282.035 174.793 281.925 175.175 281.705 175.534C281.485 175.893 281.166 176.242 280.748 176.579L279.241 177.723C279.028 177.877 278.841 178.046 278.68 178.229C278.526 178.412 278.405 178.607 278.317 178.812C278.236 179.01 278.196 179.226 278.196 179.461ZM277.272 180V179.23L277.976 179.175H282.145V180H277.272ZM286.156 180.132C285.606 180.132 285.122 180.044 284.704 179.868C284.286 179.685 283.963 179.435 283.736 179.12C283.508 178.797 283.395 178.423 283.395 177.998C283.395 177.551 283.508 177.158 283.736 176.821C283.963 176.484 284.286 176.223 284.704 176.04C285.122 175.849 285.606 175.754 286.156 175.754C286.72 175.754 287.208 175.849 287.619 176.04C288.037 176.223 288.359 176.484 288.587 176.821C288.821 177.158 288.939 177.551 288.939 177.998C288.939 178.423 288.821 178.797 288.587 179.12C288.359 179.435 288.037 179.685 287.619 179.868C287.208 180.044 286.72 180.132 286.156 180.132ZM286.156 179.318C286.698 179.318 287.142 179.19 287.487 178.933C287.831 178.669 288.004 178.328 288.004 177.91C288.004 177.485 287.831 177.14 287.487 176.876C287.142 176.605 286.698 176.469 286.156 176.469C285.804 176.469 285.488 176.531 285.21 176.656C284.938 176.773 284.722 176.942 284.561 177.162C284.407 177.375 284.33 177.624 284.33 177.91C284.33 178.189 284.407 178.434 284.561 178.647C284.722 178.86 284.938 179.025 285.21 179.142C285.488 179.259 285.804 179.318 286.156 179.318ZM286.156 176.293C285.664 176.293 285.232 176.209 284.858 176.04C284.484 175.864 284.194 175.626 283.989 175.325C283.783 175.017 283.681 174.661 283.681 174.258C283.681 173.847 283.783 173.484 283.989 173.169C284.194 172.854 284.484 172.608 284.858 172.432C285.232 172.256 285.664 172.168 286.156 172.168C286.662 172.168 287.098 172.256 287.465 172.432C287.839 172.608 288.128 172.854 288.334 173.169C288.546 173.484 288.653 173.847 288.653 174.258C288.653 174.661 288.546 175.017 288.334 175.325C288.128 175.626 287.839 175.864 287.465 176.04C287.098 176.209 286.662 176.293 286.156 176.293ZM286.156 175.6C286.618 175.6 286.995 175.486 287.289 175.259C287.589 175.024 287.74 174.72 287.74 174.346C287.74 173.935 287.589 173.605 287.289 173.356C286.995 173.099 286.618 172.971 286.156 172.971C285.701 172.971 285.327 173.099 285.034 173.356C284.74 173.605 284.594 173.935 284.594 174.346C284.594 174.72 284.74 175.024 285.034 175.259C285.327 175.486 285.701 175.6 286.156 175.6Z" fill="white" fill-opacity="0.6"/>
<path d="M271.937 294L274.745 284.9H275.85L273.029 294H271.937ZM266.399 294L263.617 284.9H264.722L267.478 294H266.399ZM266.516 294L269.194 284.9H270.247L267.569 294H266.516ZM271.846 294L269.233 284.9H270.286L272.938 294H271.846ZM279.203 294.156C278.571 294.156 278.012 294.013 277.526 293.727C277.041 293.432 276.66 293.029 276.382 292.518C276.114 292.007 275.979 291.417 275.979 290.75C275.979 290.083 276.114 289.493 276.382 288.982C276.66 288.471 277.037 288.072 277.513 287.786C277.999 287.491 278.553 287.344 279.177 287.344C279.775 287.344 280.295 287.496 280.737 287.799C281.188 288.094 281.535 288.51 281.777 289.047C282.02 289.584 282.141 290.217 282.141 290.945H281.101C281.101 290.39 281.028 289.918 280.88 289.528C280.733 289.129 280.512 288.822 280.217 288.605C279.931 288.388 279.58 288.28 279.164 288.28C278.74 288.28 278.363 288.384 278.033 288.592C277.713 288.791 277.466 289.077 277.292 289.45C277.119 289.823 277.032 290.26 277.032 290.763C277.032 291.257 277.128 291.686 277.318 292.05C277.509 292.405 277.773 292.687 278.111 292.895C278.449 293.094 278.831 293.194 279.255 293.194C279.706 293.194 280.087 293.086 280.399 292.869C280.711 292.652 280.958 292.371 281.14 292.024L282.05 292.479C281.886 292.817 281.665 293.112 281.387 293.363C281.119 293.614 280.798 293.809 280.425 293.948C280.061 294.087 279.654 294.156 279.203 294.156ZM276.668 290.945L276.681 290.048H281.504V290.945H276.668ZM288.263 294L288.211 292.791V284.9H289.251V294H288.263ZM286.014 294.156C285.433 294.156 284.922 294.013 284.48 293.727C284.038 293.441 283.691 293.042 283.44 292.531C283.197 292.011 283.076 291.417 283.076 290.75C283.076 290.074 283.197 289.48 283.44 288.969C283.691 288.458 284.038 288.059 284.48 287.773C284.922 287.487 285.433 287.344 286.014 287.344C286.56 287.344 287.037 287.487 287.444 287.773C287.86 288.059 288.181 288.458 288.406 288.969C288.631 289.48 288.744 290.074 288.744 290.75C288.744 291.417 288.631 292.011 288.406 292.531C288.181 293.042 287.86 293.441 287.444 293.727C287.037 294.013 286.56 294.156 286.014 294.156ZM286.248 293.207C286.629 293.207 286.967 293.103 287.262 292.895C287.557 292.687 287.786 292.397 287.951 292.024C288.124 291.651 288.211 291.227 288.211 290.75C288.211 290.273 288.124 289.849 287.951 289.476C287.786 289.103 287.557 288.813 287.262 288.605C286.967 288.397 286.625 288.293 286.235 288.293C285.828 288.293 285.464 288.397 285.143 288.605C284.831 288.813 284.584 289.103 284.402 289.476C284.22 289.849 284.129 290.273 284.129 290.75C284.129 291.227 284.22 291.651 284.402 292.024C284.584 292.397 284.835 292.687 285.156 292.895C285.477 293.103 285.841 293.207 286.248 293.207Z" fill="#465762"/>
<path d="M271.937 294L274.745 284.9H275.85L273.029 294H271.937ZM266.399 294L263.617 284.9H264.722L267.478 294H266.399ZM266.516 294L269.194 284.9H270.247L267.569 294H266.516ZM271.846 294L269.233 284.9H270.286L272.938 294H271.846ZM279.203 294.156C278.571 294.156 278.012 294.013 277.526 293.727C277.041 293.432 276.66 293.029 276.382 292.518C276.114 292.007 275.979 291.417 275.979 290.75C275.979 290.083 276.114 289.493 276.382 288.982C276.66 288.471 277.037 288.072 277.513 287.786C277.999 287.491 278.553 287.344 279.177 287.344C279.775 287.344 280.295 287.496 280.737 287.799C281.188 288.094 281.535 288.51 281.777 289.047C282.02 289.584 282.141 290.217 282.141 290.945H281.101C281.101 290.39 281.028 289.918 280.88 289.528C280.733 289.129 280.512 288.822 280.217 288.605C279.931 288.388 279.58 288.28 279.164 288.28C278.74 288.28 278.363 288.384 278.033 288.592C277.713 288.791 277.466 289.077 277.292 289.45C277.119 289.823 277.032 290.26 277.032 290.763C277.032 291.257 277.128 291.686 277.318 292.05C277.509 292.405 277.773 292.687 278.111 292.895C278.449 293.094 278.831 293.194 279.255 293.194C279.706 293.194 280.087 293.086 280.399 292.869C280.711 292.652 280.958 292.371 281.14 292.024L282.05 292.479C281.886 292.817 281.665 293.112 281.387 293.363C281.119 293.614 280.798 293.809 280.425 293.948C280.061 294.087 279.654 294.156 279.203 294.156ZM276.668 290.945L276.681 290.048H281.504V290.945H276.668ZM288.263 294L288.211 292.791V284.9H289.251V294H288.263ZM286.014 294.156C285.433 294.156 284.922 294.013 284.48 293.727C284.038 293.441 283.691 293.042 283.44 292.531C283.197 292.011 283.076 291.417 283.076 290.75C283.076 290.074 283.197 289.48 283.44 288.969C283.691 288.458 284.038 288.059 284.48 287.773C284.922 287.487 285.433 287.344 286.014 287.344C286.56 287.344 287.037 287.487 287.444 287.773C287.86 288.059 288.181 288.458 288.406 288.969C288.631 289.48 288.744 290.074 288.744 290.75C288.744 291.417 288.631 292.011 288.406 292.531C288.181 293.042 287.86 293.441 287.444 293.727C287.037 294.013 286.56 294.156 286.014 294.156ZM286.248 293.207C286.629 293.207 286.967 293.103 287.262 292.895C287.557 292.687 287.786 292.397 287.951 292.024C288.124 291.651 288.211 291.227 288.211 290.75C288.211 290.273 288.124 289.849 287.951 289.476C287.786 289.103 287.557 288.813 287.262 288.605C286.967 288.397 286.625 288.293 286.235 288.293C285.828 288.293 285.464 288.397 285.143 288.605C284.831 288.813 284.584 289.103 284.402 289.476C284.22 289.849 284.129 290.273 284.129 290.75C284.129 291.227 284.22 291.651 284.402 292.024C284.584 292.397 284.835 292.687 285.156 292.895C285.477 293.103 285.841 293.207 286.248 293.207Z" fill="white" fill-opacity="0.4"/>
<rect x="340.5" y="188" width="16" height="76" rx="6" fill="#4ABDE8"/>
<rect x="340.5" y="188" width="16" height="76" rx="6" fill="white" fill-opacity="0.8"/>
<rect x="361.5" y="165" width="16" height="99" rx="6" fill="#5655D7"/>
<rect x="361.5" y="165" width="16" height="99" rx="6" fill="white" fill-opacity="0.8"/>
<rect x="382.5" y="173" width="16" height="91" rx="6" fill="#00997E"/>
<rect x="382.5" y="173" width="16" height="91" rx="6" fill="white" fill-opacity="0.8"/>
<path d="M361.542 294V285.654H362.634V294H361.542ZM358.643 285.901V284.9H365.533V285.901H358.643ZM366.583 294V284.731H367.623V294H366.583ZM371.159 294V290.672L372.199 290.282V294H371.159ZM371.159 290.672C371.159 290.031 371.081 289.541 370.925 289.203C370.778 288.865 370.574 288.635 370.314 288.514C370.054 288.384 369.759 288.319 369.43 288.319C368.858 288.319 368.412 288.523 368.091 288.93C367.779 289.329 367.623 289.896 367.623 290.633H367.116C367.116 289.948 367.216 289.359 367.415 288.865C367.614 288.371 367.905 287.994 368.286 287.734C368.667 287.474 369.127 287.344 369.664 287.344C370.444 287.344 371.064 287.587 371.523 288.072C371.982 288.557 372.208 289.294 372.199 290.282L371.159 290.672ZM378.291 294L378.226 292.804V287.5H379.266V294H378.291ZM373.663 291.218V287.5H374.703V290.828L373.663 291.218ZM374.703 290.828C374.703 291.469 374.777 291.959 374.924 292.297C375.071 292.635 375.275 292.869 375.535 292.999C375.804 293.12 376.103 293.181 376.432 293.181C376.995 293.181 377.433 292.977 377.745 292.57C378.066 292.163 378.226 291.595 378.226 290.867H378.733C378.733 291.552 378.633 292.141 378.434 292.635C378.235 293.129 377.944 293.506 377.563 293.766C377.19 294.026 376.735 294.156 376.198 294.156C375.409 294.156 374.785 293.913 374.326 293.428C373.875 292.943 373.654 292.206 373.663 291.218L374.703 290.828Z" fill="#465762"/>
<path d="M361.542 294V285.654H362.634V294H361.542ZM358.643 285.901V284.9H365.533V285.901H358.643ZM366.583 294V284.731H367.623V294H366.583ZM371.159 294V290.672L372.199 290.282V294H371.159ZM371.159 290.672C371.159 290.031 371.081 289.541 370.925 289.203C370.778 288.865 370.574 288.635 370.314 288.514C370.054 288.384 369.759 288.319 369.43 288.319C368.858 288.319 368.412 288.523 368.091 288.93C367.779 289.329 367.623 289.896 367.623 290.633H367.116C367.116 289.948 367.216 289.359 367.415 288.865C367.614 288.371 367.905 287.994 368.286 287.734C368.667 287.474 369.127 287.344 369.664 287.344C370.444 287.344 371.064 287.587 371.523 288.072C371.982 288.557 372.208 289.294 372.199 290.282L371.159 290.672ZM378.291 294L378.226 292.804V287.5H379.266V294H378.291ZM373.663 291.218V287.5H374.703V290.828L373.663 291.218ZM374.703 290.828C374.703 291.469 374.777 291.959 374.924 292.297C375.071 292.635 375.275 292.869 375.535 292.999C375.804 293.12 376.103 293.181 376.432 293.181C376.995 293.181 377.433 292.977 377.745 292.57C378.066 292.163 378.226 291.595 378.226 290.867H378.733C378.733 291.552 378.633 292.141 378.434 292.635C378.235 293.129 377.944 293.506 377.563 293.766C377.19 294.026 376.735 294.156 376.198 294.156C375.409 294.156 374.785 293.913 374.326 293.428C373.875 292.943 373.654 292.206 373.663 291.218L374.703 290.828Z" fill="white" fill-opacity="0.4"/>
<rect x="433" y="140" width="16" height="124" rx="6" fill="#4ABDE8"/>
<rect x="433" y="140" width="16" height="124" rx="6" fill="white" fill-opacity="0.8"/>
<rect x="454" y="116" width="16" height="148" rx="6" fill="#5655D7"/>
<rect x="454" y="116" width="16" height="148" rx="6" fill="white" fill-opacity="0.8"/>
<rect x="475" y="172" width="16" height="92" rx="6" fill="#00997E"/>
<rect x="475" y="172" width="16" height="92" rx="6" fill="white" fill-opacity="0.8"/>
<path d="M455.709 294V284.9H456.814V294H455.709ZM456.71 290.009V289.008H460.61V290.009H456.71ZM456.71 285.901V284.9H461.117V285.901H456.71ZM462.914 290.477C462.914 289.775 463.048 289.207 463.317 288.774C463.585 288.332 463.928 288.007 464.344 287.799C464.768 287.582 465.215 287.474 465.683 287.474V288.449C465.301 288.449 464.933 288.514 464.578 288.644C464.231 288.765 463.945 288.969 463.72 289.255C463.494 289.541 463.382 289.931 463.382 290.425L462.914 290.477ZM462.342 294V287.5H463.382V294H462.342ZM466.799 294L466.825 287.5H467.865L467.839 294H466.799ZM467.332 285.992C467.159 285.992 467.007 285.927 466.877 285.797C466.747 285.667 466.682 285.515 466.682 285.342C466.682 285.16 466.747 285.008 466.877 284.887C467.007 284.757 467.159 284.692 467.332 284.692C467.514 284.692 467.666 284.757 467.787 284.887C467.917 285.008 467.982 285.16 467.982 285.342C467.982 285.515 467.917 285.667 467.787 285.797C467.666 285.927 467.514 285.992 467.332 285.992Z" fill="#465762"/>
<path d="M455.709 294V284.9H456.814V294H455.709ZM456.71 290.009V289.008H460.61V290.009H456.71ZM456.71 285.901V284.9H461.117V285.901H456.71ZM462.914 290.477C462.914 289.775 463.048 289.207 463.317 288.774C463.585 288.332 463.928 288.007 464.344 287.799C464.768 287.582 465.215 287.474 465.683 287.474V288.449C465.301 288.449 464.933 288.514 464.578 288.644C464.231 288.765 463.945 288.969 463.72 289.255C463.494 289.541 463.382 289.931 463.382 290.425L462.914 290.477ZM462.342 294V287.5H463.382V294H462.342ZM466.799 294L466.825 287.5H467.865L467.839 294H466.799ZM467.332 285.992C467.159 285.992 467.007 285.927 466.877 285.797C466.747 285.667 466.682 285.515 466.682 285.342C466.682 285.16 466.747 285.008 466.877 284.887C467.007 284.757 467.159 284.692 467.332 284.692C467.514 284.692 467.666 284.757 467.787 284.887C467.917 285.008 467.982 285.16 467.982 285.342C467.982 285.515 467.917 285.667 467.787 285.797C467.666 285.927 467.514 285.992 467.332 285.992Z" fill="white" fill-opacity="0.4"/>
<rect x="525.5" y="121" width="16" height="143" rx="6" fill="#4ABDE8"/>
<rect x="525.5" y="121" width="16" height="143" rx="6" fill="white" fill-opacity="0.8"/>
<rect x="546.5" y="96" width="16" height="168" rx="6" fill="#5655D7"/>
<rect x="546.5" y="96" width="16" height="168" rx="6" fill="white" fill-opacity="0.8"/>
<rect x="567.5" y="78" width="16" height="186" rx="6" fill="#00997E"/>
<rect x="567.5" y="78" width="16" height="186" rx="6" fill="white" fill-opacity="0.8"/>
<path d="M548.621 294.156C548.118 294.156 547.672 294.104 547.282 294C546.892 293.887 546.554 293.736 546.268 293.545C545.982 293.346 545.748 293.129 545.566 292.895C545.384 292.652 545.25 292.397 545.163 292.128L546.216 291.764C546.346 292.145 546.606 292.479 546.996 292.765C547.395 293.042 547.88 293.181 548.452 293.181C549.154 293.181 549.704 293.042 550.103 292.765C550.502 292.488 550.701 292.119 550.701 291.66C550.701 291.235 550.523 290.893 550.168 290.633C549.813 290.364 549.345 290.156 548.764 290.009L547.763 289.749C547.356 289.645 546.979 289.493 546.632 289.294C546.294 289.086 546.021 288.826 545.813 288.514C545.614 288.193 545.514 287.812 545.514 287.37C545.514 286.547 545.778 285.905 546.307 285.446C546.844 284.978 547.616 284.744 548.621 284.744C549.219 284.744 549.735 284.844 550.168 285.043C550.601 285.234 550.952 285.481 551.221 285.784C551.498 286.079 551.693 286.399 551.806 286.746L550.766 287.11C550.601 286.677 550.324 286.339 549.934 286.096C549.544 285.845 549.072 285.719 548.517 285.719C547.936 285.719 547.473 285.862 547.126 286.148C546.788 286.425 546.619 286.807 546.619 287.292C546.619 287.708 546.753 288.029 547.022 288.254C547.291 288.471 547.642 288.631 548.075 288.735L549.076 288.982C549.96 289.19 550.636 289.537 551.104 290.022C551.581 290.499 551.819 291.014 551.819 291.569C551.819 292.046 551.698 292.483 551.455 292.882C551.212 293.272 550.853 293.584 550.376 293.818C549.908 294.043 549.323 294.156 548.621 294.156ZM557.399 294L557.334 292.934V290.568C557.334 290.057 557.274 289.636 557.152 289.307C557.04 288.969 556.862 288.718 556.619 288.553C556.385 288.38 556.073 288.293 555.683 288.293C555.311 288.293 554.986 288.367 554.708 288.514C554.44 288.661 554.219 288.891 554.045 289.203L553.109 288.826C553.283 288.523 553.491 288.258 553.733 288.033C553.976 287.808 554.258 287.639 554.578 287.526C554.908 287.405 555.28 287.344 555.696 287.344C556.294 287.344 556.793 287.461 557.191 287.695C557.59 287.929 557.889 288.28 558.088 288.748C558.288 289.207 558.383 289.784 558.374 290.477L558.361 294H557.399ZM555.449 294.156C554.687 294.156 554.089 293.983 553.655 293.636C553.231 293.281 553.018 292.791 553.018 292.167C553.018 291.508 553.235 291.006 553.668 290.659C554.11 290.304 554.726 290.126 555.514 290.126H557.373V290.997H555.748C555.142 290.997 554.708 291.097 554.448 291.296C554.197 291.495 554.071 291.781 554.071 292.154C554.071 292.492 554.197 292.761 554.448 292.96C554.7 293.151 555.051 293.246 555.501 293.246C555.874 293.246 556.199 293.159 556.476 292.986C556.754 292.813 556.966 292.579 557.113 292.284C557.261 291.981 557.334 291.638 557.334 291.257H557.971C557.971 292.141 557.755 292.847 557.321 293.376C556.888 293.896 556.264 294.156 555.449 294.156ZM562.466 294.156C561.834 294.156 561.344 293.991 560.997 293.662C560.651 293.333 560.477 292.869 560.477 292.271V285.472H561.517V292.167C561.517 292.496 561.604 292.752 561.777 292.934C561.959 293.107 562.211 293.194 562.531 293.194C562.635 293.194 562.735 293.181 562.83 293.155C562.934 293.12 563.069 293.042 563.233 292.921L563.636 293.766C563.411 293.913 563.207 294.013 563.025 294.065C562.843 294.126 562.657 294.156 562.466 294.156ZM559.346 288.423V287.5H563.467V288.423H559.346Z" fill="#465762"/>
<path d="M548.621 294.156C548.118 294.156 547.672 294.104 547.282 294C546.892 293.887 546.554 293.736 546.268 293.545C545.982 293.346 545.748 293.129 545.566 292.895C545.384 292.652 545.25 292.397 545.163 292.128L546.216 291.764C546.346 292.145 546.606 292.479 546.996 292.765C547.395 293.042 547.88 293.181 548.452 293.181C549.154 293.181 549.704 293.042 550.103 292.765C550.502 292.488 550.701 292.119 550.701 291.66C550.701 291.235 550.523 290.893 550.168 290.633C549.813 290.364 549.345 290.156 548.764 290.009L547.763 289.749C547.356 289.645 546.979 289.493 546.632 289.294C546.294 289.086 546.021 288.826 545.813 288.514C545.614 288.193 545.514 287.812 545.514 287.37C545.514 286.547 545.778 285.905 546.307 285.446C546.844 284.978 547.616 284.744 548.621 284.744C549.219 284.744 549.735 284.844 550.168 285.043C550.601 285.234 550.952 285.481 551.221 285.784C551.498 286.079 551.693 286.399 551.806 286.746L550.766 287.11C550.601 286.677 550.324 286.339 549.934 286.096C549.544 285.845 549.072 285.719 548.517 285.719C547.936 285.719 547.473 285.862 547.126 286.148C546.788 286.425 546.619 286.807 546.619 287.292C546.619 287.708 546.753 288.029 547.022 288.254C547.291 288.471 547.642 288.631 548.075 288.735L549.076 288.982C549.96 289.19 550.636 289.537 551.104 290.022C551.581 290.499 551.819 291.014 551.819 291.569C551.819 292.046 551.698 292.483 551.455 292.882C551.212 293.272 550.853 293.584 550.376 293.818C549.908 294.043 549.323 294.156 548.621 294.156ZM557.399 294L557.334 292.934V290.568C557.334 290.057 557.274 289.636 557.152 289.307C557.04 288.969 556.862 288.718 556.619 288.553C556.385 288.38 556.073 288.293 555.683 288.293C555.311 288.293 554.986 288.367 554.708 288.514C554.44 288.661 554.219 288.891 554.045 289.203L553.109 288.826C553.283 288.523 553.491 288.258 553.733 288.033C553.976 287.808 554.258 287.639 554.578 287.526C554.908 287.405 555.28 287.344 555.696 287.344C556.294 287.344 556.793 287.461 557.191 287.695C557.59 287.929 557.889 288.28 558.088 288.748C558.288 289.207 558.383 289.784 558.374 290.477L558.361 294H557.399ZM555.449 294.156C554.687 294.156 554.089 293.983 553.655 293.636C553.231 293.281 553.018 292.791 553.018 292.167C553.018 291.508 553.235 291.006 553.668 290.659C554.11 290.304 554.726 290.126 555.514 290.126H557.373V290.997H555.748C555.142 290.997 554.708 291.097 554.448 291.296C554.197 291.495 554.071 291.781 554.071 292.154C554.071 292.492 554.197 292.761 554.448 292.96C554.7 293.151 555.051 293.246 555.501 293.246C555.874 293.246 556.199 293.159 556.476 292.986C556.754 292.813 556.966 292.579 557.113 292.284C557.261 291.981 557.334 291.638 557.334 291.257H557.971C557.971 292.141 557.755 292.847 557.321 293.376C556.888 293.896 556.264 294.156 555.449 294.156ZM562.466 294.156C561.834 294.156 561.344 293.991 560.997 293.662C560.651 293.333 560.477 292.869 560.477 292.271V285.472H561.517V292.167C561.517 292.496 561.604 292.752 561.777 292.934C561.959 293.107 562.211 293.194 562.531 293.194C562.635 293.194 562.735 293.181 562.83 293.155C562.934 293.12 563.069 293.042 563.233 292.921L563.636 293.766C563.411 293.913 563.207 294.013 563.025 294.065C562.843 294.126 562.657 294.156 562.466 294.156ZM559.346 288.423V287.5H563.467V288.423H559.346Z" fill="white" fill-opacity="0.4"/>
<rect x="618" y="71" width="16" height="193" rx="6" fill="#4ABDE8"/>
<rect x="618" y="71" width="16" height="193" rx="6" fill="white" fill-opacity="0.8"/>
<rect x="639" y="15" width="16" height="249" rx="6" fill="#5655D7"/>
<rect x="639" y="15" width="16" height="249" rx="6" fill="white" fill-opacity="0.8"/>
<rect x="660" y="34" width="16" height="230" rx="6" fill="#00997E"/>
<rect x="660" y="34" width="16" height="230" rx="6" fill="white" fill-opacity="0.8"/>
<path d="M639.621 294.156C639.118 294.156 638.672 294.104 638.282 294C637.892 293.887 637.554 293.736 637.268 293.545C636.982 293.346 636.748 293.129 636.566 292.895C636.384 292.652 636.25 292.397 636.163 292.128L637.216 291.764C637.346 292.145 637.606 292.479 637.996 292.765C638.395 293.042 638.88 293.181 639.452 293.181C640.154 293.181 640.704 293.042 641.103 292.765C641.502 292.488 641.701 292.119 641.701 291.66C641.701 291.235 641.523 290.893 641.168 290.633C640.813 290.364 640.345 290.156 639.764 290.009L638.763 289.749C638.356 289.645 637.979 289.493 637.632 289.294C637.294 289.086 637.021 288.826 636.813 288.514C636.614 288.193 636.514 287.812 636.514 287.37C636.514 286.547 636.778 285.905 637.307 285.446C637.844 284.978 638.616 284.744 639.621 284.744C640.219 284.744 640.735 284.844 641.168 285.043C641.601 285.234 641.952 285.481 642.221 285.784C642.498 286.079 642.693 286.399 642.806 286.746L641.766 287.11C641.601 286.677 641.324 286.339 640.934 286.096C640.544 285.845 640.072 285.719 639.517 285.719C638.936 285.719 638.473 285.862 638.126 286.148C637.788 286.425 637.619 286.807 637.619 287.292C637.619 287.708 637.753 288.029 638.022 288.254C638.291 288.471 638.642 288.631 639.075 288.735L640.076 288.982C640.96 289.19 641.636 289.537 642.104 290.022C642.581 290.499 642.819 291.014 642.819 291.569C642.819 292.046 642.698 292.483 642.455 292.882C642.212 293.272 641.853 293.584 641.376 293.818C640.908 294.043 640.323 294.156 639.621 294.156ZM648.854 294L648.789 292.804V287.5H649.829V294H648.854ZM644.226 291.218V287.5H645.266V290.828L644.226 291.218ZM645.266 290.828C645.266 291.469 645.34 291.959 645.487 292.297C645.635 292.635 645.838 292.869 646.098 292.999C646.367 293.12 646.666 293.181 646.995 293.181C647.559 293.181 647.996 292.977 648.308 292.57C648.629 292.163 648.789 291.595 648.789 290.867H649.296C649.296 291.552 649.197 292.141 648.997 292.635C648.798 293.129 648.508 293.506 648.126 293.766C647.754 294.026 647.299 294.156 646.761 294.156C645.973 294.156 645.349 293.913 644.889 293.428C644.439 292.943 644.218 292.206 644.226 291.218L645.266 290.828ZM651.644 294V287.5H652.619L652.684 288.696V294H651.644ZM656.207 294V290.672L657.247 290.282V294H656.207ZM656.207 290.672C656.207 290.031 656.134 289.541 655.986 289.203C655.839 288.865 655.635 288.635 655.375 288.514C655.115 288.384 654.821 288.319 654.491 288.319C653.919 288.319 653.473 288.523 653.152 288.93C652.84 289.329 652.684 289.896 652.684 290.633H652.177C652.177 289.948 652.277 289.359 652.476 288.865C652.676 288.371 652.962 287.994 653.334 287.734C653.716 287.474 654.175 287.344 654.712 287.344C655.501 287.344 656.121 287.587 656.571 288.072C657.031 288.557 657.256 289.294 657.247 290.282L656.207 290.672Z" fill="#465762"/>
<path d="M639.621 294.156C639.118 294.156 638.672 294.104 638.282 294C637.892 293.887 637.554 293.736 637.268 293.545C636.982 293.346 636.748 293.129 636.566 292.895C636.384 292.652 636.25 292.397 636.163 292.128L637.216 291.764C637.346 292.145 637.606 292.479 637.996 292.765C638.395 293.042 638.88 293.181 639.452 293.181C640.154 293.181 640.704 293.042 641.103 292.765C641.502 292.488 641.701 292.119 641.701 291.66C641.701 291.235 641.523 290.893 641.168 290.633C640.813 290.364 640.345 290.156 639.764 290.009L638.763 289.749C638.356 289.645 637.979 289.493 637.632 289.294C637.294 289.086 637.021 288.826 636.813 288.514C636.614 288.193 636.514 287.812 636.514 287.37C636.514 286.547 636.778 285.905 637.307 285.446C637.844 284.978 638.616 284.744 639.621 284.744C640.219 284.744 640.735 284.844 641.168 285.043C641.601 285.234 641.952 285.481 642.221 285.784C642.498 286.079 642.693 286.399 642.806 286.746L641.766 287.11C641.601 286.677 641.324 286.339 640.934 286.096C640.544 285.845 640.072 285.719 639.517 285.719C638.936 285.719 638.473 285.862 638.126 286.148C637.788 286.425 637.619 286.807 637.619 287.292C637.619 287.708 637.753 288.029 638.022 288.254C638.291 288.471 638.642 288.631 639.075 288.735L640.076 288.982C640.96 289.19 641.636 289.537 642.104 290.022C642.581 290.499 642.819 291.014 642.819 291.569C642.819 292.046 642.698 292.483 642.455 292.882C642.212 293.272 641.853 293.584 641.376 293.818C640.908 294.043 640.323 294.156 639.621 294.156ZM648.854 294L648.789 292.804V287.5H649.829V294H648.854ZM644.226 291.218V287.5H645.266V290.828L644.226 291.218ZM645.266 290.828C645.266 291.469 645.34 291.959 645.487 292.297C645.635 292.635 645.838 292.869 646.098 292.999C646.367 293.12 646.666 293.181 646.995 293.181C647.559 293.181 647.996 292.977 648.308 292.57C648.629 292.163 648.789 291.595 648.789 290.867H649.296C649.296 291.552 649.197 292.141 648.997 292.635C648.798 293.129 648.508 293.506 648.126 293.766C647.754 294.026 647.299 294.156 646.761 294.156C645.973 294.156 645.349 293.913 644.889 293.428C644.439 292.943 644.218 292.206 644.226 291.218L645.266 290.828ZM651.644 294V287.5H652.619L652.684 288.696V294H651.644ZM656.207 294V290.672L657.247 290.282V294H656.207ZM656.207 290.672C656.207 290.031 656.134 289.541 655.986 289.203C655.839 288.865 655.635 288.635 655.375 288.514C655.115 288.384 654.821 288.319 654.491 288.319C653.919 288.319 653.473 288.523 653.152 288.93C652.84 289.329 652.684 289.896 652.684 290.633H652.177C652.177 289.948 652.277 289.359 652.476 288.865C652.676 288.371 652.962 287.994 653.334 287.734C653.716 287.474 654.175 287.344 654.712 287.344C655.501 287.344 656.121 287.587 656.571 288.072C657.031 288.557 657.256 289.294 657.247 290.282L656.207 290.672Z" fill="white" fill-opacity="0.4"/>
<defs>
<filter id="filter0_d_609_18483" x="228" y="135" width="97" height="86" filterUnits="userSpaceOnUse" color-interpolation-filters="sRGB">
<feFlood flood-opacity="0" result="BackgroundImageFix"/>
<feColorMatrix in="SourceAlpha" type="matrix" values="0 0 0 0 0 0 0 0 0 0 0 0 0 0 0 0 0 0 127 0" result="hardAlpha"/>
<feOffset dy="8"/>
<feGaussianBlur stdDeviation="8"/>
<feColorMatrix type="matrix" values="0 0 0 0 0 0 0 0 0 0 0 0 0 0 0 0 0 0 0.06 0"/>
<feBlend mode="normal" in2="BackgroundImageFix" result="effect1_dropShadow_609_18483"/>
<feBlend mode="normal" in="SourceGraphic" in2="effect1_dropShadow_609_18483" result="shape"/>
</filter>
<linearGradient id="paint0_linear_609_18483" x1="248" y1="264" x2="279.767" y2="261.282" gradientUnits="userSpaceOnUse">
<stop stop-color="#4ABDE8"/>
<stop offset="1" stop-color="#77DAFF"/>
</linearGradient>
<linearGradient id="paint1_linear_609_18483" x1="269" y1="264" x2="300.719" y2="261.015" gradientUnits="userSpaceOnUse">
<stop stop-color="#5655D7"/>
<stop offset="1" stop-color="#7F7EFF"/>
</linearGradient>
<linearGradient id="paint2_linear_609_18483" x1="290" y1="264" x2="321.563" y2="260.287" gradientUnits="userSpaceOnUse">
<stop stop-color="#00997E"/>
<stop offset="1" stop-color="#00C9A5"/>
</linearGradient>
</defs>
</svg>
