<svg width="498" height="206" viewBox="0 0 498 206" fill="none" xmlns="http://www.w3.org/2000/svg">
<rect y="3" width="498" height="0.770788" rx="0.385394" fill="#364760"/>
<rect y="39.0821" width="498" height="0.770788" rx="0.385394" fill="#364760"/>
<rect x="0.192697" y="75.3569" width="497.615" height="0.385394" rx="0.192697" stroke="#4D5154" stroke-width="0.385394" stroke-dasharray="1.54 1.54"/>
<rect y="111.246" width="498" height="0.770788" rx="0.385394" fill="#364760"/>
<rect y="147.328" width="498" height="0.770788" rx="0.385394" fill="#364760"/>
<rect y="183.41" width="498" height="0.770788" rx="0.385394" fill="#364760"/>
<rect width="180" height="0.558296" rx="0.279148" transform="matrix(-4.37114e-08 1 1 4.37114e-08 0 4)" fill="#364760"/>
<rect width="180" height="0.558296" rx="0.279148" transform="matrix(-4.37114e-08 1 1 4.37114e-08 45.2222 4)" fill="#364760"/>
<rect width="180" height="0.558296" rx="0.279148" transform="matrix(-4.37114e-08 1 1 4.37114e-08 90.4438 4)" fill="#364760"/>
<rect width="180" height="0.558296" rx="0.279148" transform="matrix(-4.37114e-08 1 1 4.37114e-08 135.666 4)" fill="#364760"/>
<rect width="180" height="0.558296" rx="0.279148" transform="matrix(-4.37114e-08 1 1 4.37114e-08 180.888 4)" fill="#364760"/>
<rect x="0.139574" y="0.139574" width="179.721" height="0.279148" rx="0.139574" transform="matrix(-4.37114e-08 1 1 4.37114e-08 226.11 4)" stroke="#4D5154" stroke-width="0.279148" stroke-dasharray="1.54 1.54"/>
<rect width="180" height="0.558296" rx="0.279148" transform="matrix(-4.37114e-08 1 1 4.37114e-08 271.332 4)" fill="#364760"/>
<rect width="180" height="0.558296" rx="0.279148" transform="matrix(-4.37114e-08 1 1 4.37114e-08 316.554 4)" fill="#364760"/>
<rect width="180" height="0.558296" rx="0.279148" transform="matrix(-4.37114e-08 1 1 4.37114e-08 361.776 4.00003)" fill="#364760"/>
<rect width="180" height="0.558296" rx="0.279148" transform="matrix(-4.37114e-08 1 1 4.37114e-08 406.998 4.00003)" fill="#364760"/>
<rect width="180" height="0.558296" rx="0.279148" transform="matrix(-4.37114e-08 1 1 4.37114e-08 452.22 4.00003)" fill="#364760"/>
<rect width="180" height="0.558296" rx="0.279148" transform="matrix(-4.37114e-08 1 1 4.37114e-08 497.442 4.00003)" fill="#364760"/>
<path d="M3.96583 202.977C3.70183 202.977 3.45616 202.936 3.22883 202.856C3.00883 202.782 2.81083 202.683 2.63483 202.559C2.45883 202.427 2.30849 202.28 2.18383 202.119C2.05916 201.95 1.95649 201.778 1.87583 201.602L2.57983 201.195C2.73383 201.466 2.92083 201.69 3.14083 201.866C3.36816 202.042 3.64683 202.13 3.97683 202.13C4.24083 202.13 4.49749 202.067 4.74683 201.943C5.00349 201.818 5.21249 201.609 5.37383 201.316C5.53516 201.022 5.61583 200.637 5.61583 200.161V195.145H6.53983V200.524C6.53983 200.927 6.4665 201.283 6.31983 201.591C6.18049 201.899 5.98616 202.155 5.73683 202.361C5.49483 202.566 5.21983 202.72 4.91183 202.823C4.60383 202.925 4.28849 202.977 3.96583 202.977ZM11.618 202.845L11.563 201.943V199.941C11.563 199.508 11.5116 199.152 11.409 198.874C11.3136 198.588 11.1633 198.375 10.958 198.236C10.76 198.089 10.496 198.016 10.166 198.016C9.85063 198.016 9.57563 198.078 9.34096 198.203C9.11363 198.327 8.92663 198.522 8.77996 198.786L7.98796 198.467C8.13463 198.21 8.31063 197.986 8.51596 197.796C8.72129 197.605 8.95963 197.462 9.23096 197.367C9.50963 197.264 9.82496 197.213 10.177 197.213C10.683 197.213 11.1046 197.312 11.442 197.51C11.7793 197.708 12.0323 198.005 12.201 198.401C12.3696 198.789 12.4503 199.277 12.443 199.864L12.432 202.845H11.618ZM9.96796 202.977C9.32263 202.977 8.81663 202.83 8.44996 202.537C8.09063 202.236 7.91096 201.822 7.91096 201.294C7.91096 200.736 8.09429 200.311 8.46096 200.018C8.83496 199.717 9.35563 199.567 10.023 199.567H11.596V200.304H10.221C9.70763 200.304 9.34096 200.388 9.12096 200.557C8.90829 200.725 8.80196 200.967 8.80196 201.283C8.80196 201.569 8.90829 201.796 9.12096 201.965C9.33363 202.126 9.63063 202.207 10.012 202.207C10.3273 202.207 10.6023 202.133 10.837 201.987C11.0716 201.84 11.2513 201.642 11.376 201.393C11.5006 201.136 11.563 200.846 11.563 200.524H12.102C12.102 201.272 11.9186 201.869 11.552 202.317C11.1853 202.757 10.6573 202.977 9.96796 202.977ZM13.8374 202.845V197.345H14.6624L14.7174 198.357V202.845H13.8374ZM17.6984 202.845V200.029L18.5784 199.699V202.845H17.6984ZM17.6984 200.029C17.6984 199.486 17.636 199.072 17.5114 198.786C17.3867 198.5 17.2144 198.305 16.9944 198.203C16.7744 198.093 16.525 198.038 16.2464 198.038C15.7624 198.038 15.3847 198.21 15.1134 198.555C14.8494 198.892 14.7174 199.372 14.7174 199.996H14.2884C14.2884 199.416 14.3727 198.918 14.5414 198.5C14.71 198.082 14.952 197.763 15.2674 197.543C15.59 197.323 15.9787 197.213 16.4334 197.213C17.1007 197.213 17.625 197.418 18.0064 197.829C18.395 198.239 18.5857 198.863 18.5784 199.699L17.6984 200.029Z" fill="#465762"/>
<path d="M45.7076 202.845V195.145H46.6426V202.845H45.7076ZM46.5546 199.468V198.621H49.8546V199.468H46.5546ZM46.5546 195.992V195.145H50.2836V195.992H46.5546ZM53.7718 202.977C53.2364 202.977 52.7634 202.856 52.3528 202.614C51.9421 202.364 51.6194 202.023 51.3848 201.591C51.1574 201.158 51.0438 200.659 51.0438 200.095C51.0438 199.53 51.1574 199.031 51.3848 198.599C51.6194 198.166 51.9384 197.829 52.3418 197.587C52.7524 197.337 53.2218 197.213 53.7498 197.213C54.2558 197.213 54.6958 197.341 55.0698 197.598C55.4511 197.847 55.7444 198.199 55.9498 198.654C56.1551 199.108 56.2578 199.644 56.2578 200.26H55.3778C55.3778 199.79 55.3154 199.391 55.1908 199.061C55.0661 198.723 54.8791 198.463 54.6298 198.28C54.3878 198.096 54.0908 198.005 53.7388 198.005C53.3794 198.005 53.0604 198.093 52.7818 198.269C52.5104 198.437 52.3014 198.679 52.1548 198.995C52.0081 199.31 51.9348 199.68 51.9348 200.106C51.9348 200.524 52.0154 200.887 52.1768 201.195C52.3381 201.495 52.5618 201.734 52.8478 201.91C53.1338 202.078 53.4564 202.163 53.8158 202.163C54.1971 202.163 54.5198 202.071 54.7838 201.888C55.0478 201.704 55.2568 201.466 55.4108 201.173L56.1808 201.558C56.0414 201.844 55.8544 202.093 55.6198 202.306C55.3924 202.518 55.1211 202.683 54.8058 202.801C54.4978 202.918 54.1531 202.977 53.7718 202.977ZM51.6268 200.26L51.6378 199.501H55.7188V200.26H51.6268ZM57.3677 202.845V195.145H58.2477V201.822L58.2037 202.845H57.3677ZM60.1067 202.977C59.6447 202.977 59.2377 202.856 58.8857 202.614C58.541 202.372 58.2733 202.034 58.0827 201.602C57.892 201.162 57.7967 200.659 57.7967 200.095C57.7967 199.523 57.892 199.02 58.0827 198.588C58.2733 198.155 58.541 197.818 58.8857 197.576C59.2377 197.334 59.6447 197.213 60.1067 197.213C60.598 197.213 61.0307 197.334 61.4047 197.576C61.7787 197.818 62.0683 198.155 62.2737 198.588C62.4863 199.02 62.5927 199.523 62.5927 200.095C62.5927 200.659 62.4863 201.162 62.2737 201.602C62.0683 202.034 61.7787 202.372 61.4047 202.614C61.0307 202.856 60.598 202.977 60.1067 202.977ZM59.9087 202.174C60.2533 202.174 60.5577 202.086 60.8217 201.91C61.093 201.734 61.3057 201.488 61.4597 201.173C61.621 200.857 61.7017 200.498 61.7017 200.095C61.7017 199.691 61.6247 199.332 61.4707 199.017C61.324 198.701 61.115 198.456 60.8437 198.28C60.5723 198.104 60.2643 198.016 59.9197 198.016C59.597 198.016 59.3073 198.104 59.0507 198.28C58.8013 198.456 58.6033 198.701 58.4567 199.017C58.3173 199.332 58.2477 199.691 58.2477 200.095C58.2477 200.498 58.3173 200.857 58.4567 201.173C58.6033 201.488 58.8013 201.734 59.0507 201.91C59.3 202.086 59.586 202.174 59.9087 202.174Z" fill="#465762"/>
<path d="M92.5666 200.656L89.0906 195.519L89.4646 195.321L89.9046 195.145L93.0176 199.754L92.5666 200.656ZM88.9366 202.845V195.145H89.8716V202.845H88.9366ZM92.5666 200.656L92.1156 199.754L95.2286 195.145L95.6686 195.321L96.0316 195.508L92.5666 200.656ZM95.2616 202.845V195.145H96.1856V202.845H95.2616ZM101.374 202.845L101.319 201.943V199.941C101.319 199.508 101.268 199.152 101.165 198.874C101.07 198.588 100.92 198.375 100.714 198.236C100.516 198.089 100.252 198.016 99.9223 198.016C99.607 198.016 99.332 198.078 99.0973 198.203C98.87 198.327 98.683 198.522 98.5363 198.786L97.7443 198.467C97.891 198.21 98.067 197.986 98.2723 197.796C98.4776 197.605 98.716 197.462 98.9873 197.367C99.266 197.264 99.5813 197.213 99.9333 197.213C100.439 197.213 100.861 197.312 101.198 197.51C101.536 197.708 101.789 198.005 101.957 198.401C102.126 198.789 102.207 199.277 102.199 199.864L102.188 202.845H101.374ZM99.7243 202.977C99.079 202.977 98.573 202.83 98.2063 202.537C97.847 202.236 97.6673 201.822 97.6673 201.294C97.6673 200.736 97.8506 200.311 98.2173 200.018C98.5913 199.717 99.112 199.567 99.7793 199.567H101.352V200.304H99.9773C99.464 200.304 99.0973 200.388 98.8773 200.557C98.6646 200.725 98.5583 200.967 98.5583 201.283C98.5583 201.569 98.6646 201.796 98.8773 201.965C99.09 202.126 99.387 202.207 99.7683 202.207C100.084 202.207 100.359 202.133 100.593 201.987C100.828 201.84 101.008 201.642 101.132 201.393C101.257 201.136 101.319 200.846 101.319 200.524H101.858C101.858 201.272 101.675 201.869 101.308 202.317C100.942 202.757 100.414 202.977 99.7243 202.977ZM104.078 199.864C104.078 199.27 104.191 198.789 104.419 198.423C104.646 198.049 104.936 197.774 105.288 197.598C105.647 197.414 106.025 197.323 106.421 197.323V198.148C106.098 198.148 105.786 198.203 105.486 198.313C105.192 198.415 104.95 198.588 104.76 198.83C104.569 199.072 104.474 199.402 104.474 199.82L104.078 199.864ZM103.594 202.845V197.345H104.474V202.845H103.594Z" fill="#465762"/>
<path d="M138.119 202.845L135.028 195.145H135.963L139.098 202.845H138.119ZM131.86 202.845L134.995 195.145H135.941L132.85 202.845H131.86ZM133.345 200.656V199.82H137.624V200.656H133.345ZM140.03 205.045V197.345H140.855L140.91 198.357V205.045H140.03ZM142.769 202.977C142.307 202.977 141.9 202.856 141.548 202.614C141.203 202.372 140.936 202.034 140.745 201.602C140.554 201.162 140.459 200.659 140.459 200.095C140.459 199.523 140.554 199.02 140.745 198.588C140.936 198.155 141.203 197.818 141.548 197.576C141.9 197.334 142.307 197.213 142.769 197.213C143.26 197.213 143.693 197.334 144.067 197.576C144.441 197.818 144.731 198.155 144.936 198.588C145.149 199.02 145.255 199.523 145.255 200.095C145.255 200.659 145.149 201.162 144.936 201.602C144.731 202.034 144.441 202.372 144.067 202.614C143.693 202.856 143.26 202.977 142.769 202.977ZM142.571 202.174C142.916 202.174 143.22 202.086 143.484 201.91C143.755 201.734 143.968 201.488 144.122 201.173C144.283 200.857 144.364 200.498 144.364 200.095C144.364 199.691 144.287 199.332 144.133 199.017C143.986 198.701 143.777 198.456 143.506 198.28C143.235 198.104 142.927 198.016 142.582 198.016C142.259 198.016 141.97 198.104 141.713 198.28C141.464 198.456 141.266 198.701 141.119 199.017C140.98 199.332 140.91 199.691 140.91 200.095C140.91 200.498 140.98 200.857 141.119 201.173C141.266 201.488 141.464 201.734 141.713 201.91C141.962 202.086 142.248 202.174 142.571 202.174ZM146.958 199.864C146.958 199.27 147.072 198.789 147.299 198.423C147.526 198.049 147.816 197.774 148.168 197.598C148.527 197.414 148.905 197.323 149.301 197.323V198.148C148.978 198.148 148.667 198.203 148.366 198.313C148.073 198.415 147.831 198.588 147.64 198.83C147.449 199.072 147.354 199.402 147.354 199.82L146.958 199.864ZM146.474 202.845V197.345H147.354V202.845H146.474Z" fill="#465762"/>
<path d="M178.3 200.656L174.824 195.519L175.198 195.321L175.638 195.145L178.751 199.754L178.3 200.656ZM174.67 202.845V195.145H175.605V202.845H174.67ZM178.3 200.656L177.849 199.754L180.962 195.145L181.402 195.321L181.765 195.508L178.3 200.656ZM180.995 202.845V195.145H181.919V202.845H180.995ZM187.108 202.845L187.053 201.943V199.941C187.053 199.508 187.002 199.152 186.899 198.874C186.804 198.588 186.654 198.375 186.448 198.236C186.25 198.089 185.986 198.016 185.656 198.016C185.341 198.016 185.066 198.078 184.831 198.203C184.604 198.327 184.417 198.522 184.27 198.786L183.478 198.467C183.625 198.21 183.801 197.986 184.006 197.796C184.212 197.605 184.45 197.462 184.721 197.367C185 197.264 185.315 197.213 185.667 197.213C186.173 197.213 186.595 197.312 186.932 197.51C187.27 197.708 187.523 198.005 187.691 198.401C187.86 198.789 187.941 199.277 187.933 199.864L187.922 202.845H187.108ZM185.458 202.977C184.813 202.977 184.307 202.83 183.94 202.537C183.581 202.236 183.401 201.822 183.401 201.294C183.401 200.736 183.585 200.311 183.951 200.018C184.325 199.717 184.846 199.567 185.513 199.567H187.086V200.304H185.711C185.198 200.304 184.831 200.388 184.611 200.557C184.399 200.725 184.292 200.967 184.292 201.283C184.292 201.569 184.399 201.796 184.611 201.965C184.824 202.126 185.121 202.207 185.502 202.207C185.818 202.207 186.093 202.133 186.327 201.987C186.562 201.84 186.742 201.642 186.866 201.393C186.991 201.136 187.053 200.846 187.053 200.524H187.592C187.592 201.272 187.409 201.869 187.042 202.317C186.676 202.757 186.148 202.977 185.458 202.977ZM189.737 205.177C189.597 205.177 189.436 205.147 189.253 205.089C189.069 205.037 188.875 204.968 188.67 204.88L189 204.143C189.168 204.216 189.315 204.271 189.44 204.308C189.572 204.344 189.674 204.363 189.748 204.363C189.946 204.363 190.107 204.308 190.232 204.198C190.364 204.095 190.474 203.945 190.562 203.747L191.189 202.251L193.224 197.345H194.17L191.53 203.615C191.39 203.937 191.244 204.216 191.09 204.451C190.943 204.685 190.763 204.865 190.551 204.99C190.338 205.114 190.067 205.177 189.737 205.177ZM190.947 202.845L188.571 197.345H189.506L191.552 202.24L191.816 202.845H190.947Z" fill="#465762"/>
<path d="M220.521 202.977C220.257 202.977 220.011 202.936 219.784 202.856C219.564 202.782 219.366 202.683 219.19 202.559C219.014 202.427 218.864 202.28 218.739 202.119C218.614 201.95 218.512 201.778 218.431 201.602L219.135 201.195C219.289 201.466 219.476 201.69 219.696 201.866C219.923 202.042 220.202 202.13 220.532 202.13C220.796 202.13 221.053 202.067 221.302 201.943C221.559 201.818 221.768 201.609 221.929 201.316C222.09 201.022 222.171 200.637 222.171 200.161V195.145H223.095V200.524C223.095 200.927 223.022 201.283 222.875 201.591C222.736 201.899 222.541 202.155 222.292 202.361C222.05 202.566 221.775 202.72 221.467 202.823C221.159 202.925 220.844 202.977 220.521 202.977ZM228.558 202.845L228.503 201.833V197.345H229.383V202.845H228.558ZM224.642 200.491V197.345H225.522V200.161L224.642 200.491ZM225.522 200.161C225.522 200.703 225.584 201.118 225.709 201.404C225.834 201.69 226.006 201.888 226.226 201.998C226.453 202.1 226.706 202.152 226.985 202.152C227.462 202.152 227.832 201.979 228.096 201.635C228.367 201.29 228.503 200.81 228.503 200.194H228.932C228.932 200.773 228.848 201.272 228.679 201.69C228.51 202.108 228.265 202.427 227.942 202.647C227.627 202.867 227.242 202.977 226.787 202.977C226.12 202.977 225.592 202.771 225.203 202.361C224.822 201.95 224.635 201.327 224.642 200.491L225.522 200.161ZM230.919 202.845V197.345H231.744L231.799 198.357V202.845H230.919ZM234.78 202.845V200.029L235.66 199.699V202.845H234.78ZM234.78 200.029C234.78 199.486 234.718 199.072 234.593 198.786C234.468 198.5 234.296 198.305 234.076 198.203C233.856 198.093 233.607 198.038 233.328 198.038C232.844 198.038 232.466 198.21 232.195 198.555C231.931 198.892 231.799 199.372 231.799 199.996H231.37C231.37 199.416 231.454 198.918 231.623 198.5C231.792 198.082 232.034 197.763 232.349 197.543C232.672 197.323 233.06 197.213 233.515 197.213C234.182 197.213 234.707 197.418 235.088 197.829C235.477 198.239 235.667 198.863 235.66 199.699L234.78 200.029Z" fill="#465762"/>
<path d="M265.743 202.977C265.479 202.977 265.233 202.936 265.006 202.856C264.786 202.782 264.588 202.683 264.412 202.559C264.236 202.427 264.085 202.28 263.961 202.119C263.836 201.95 263.733 201.778 263.653 201.602L264.357 201.195C264.511 201.466 264.698 201.69 264.918 201.866C265.145 202.042 265.424 202.13 265.754 202.13C266.018 202.13 266.274 202.067 266.524 201.943C266.78 201.818 266.989 201.609 267.151 201.316C267.312 201.022 267.393 200.637 267.393 200.161V195.145H268.317V200.524C268.317 200.927 268.243 201.283 268.097 201.591C267.957 201.899 267.763 202.155 267.514 202.361C267.272 202.566 266.997 202.72 266.689 202.823C266.381 202.925 266.065 202.977 265.743 202.977ZM273.78 202.845L273.725 201.833V197.345H274.605V202.845H273.78ZM269.864 200.491V197.345H270.744V200.161L269.864 200.491ZM270.744 200.161C270.744 200.703 270.806 201.118 270.931 201.404C271.055 201.69 271.228 201.888 271.448 201.998C271.675 202.1 271.928 202.152 272.207 202.152C272.683 202.152 273.054 201.979 273.318 201.635C273.589 201.29 273.725 200.81 273.725 200.194H274.154C274.154 200.773 274.069 201.272 273.901 201.69C273.732 202.108 273.486 202.427 273.164 202.647C272.848 202.867 272.463 202.977 272.009 202.977C271.341 202.977 270.813 202.771 270.425 202.361C270.043 201.95 269.856 201.327 269.864 200.491L270.744 200.161ZM276.141 202.845V195.145H277.021V202.845H276.141Z" fill="#4D5154"/>
<path d="M310.386 202.845L307.295 195.145H308.23L311.365 202.845H310.386ZM304.127 202.845L307.262 195.145H308.208L305.117 202.845H304.127ZM305.612 200.656V199.82H309.891V200.656H305.612ZM316.016 202.845L315.961 201.833V197.345H316.841V202.845H316.016ZM312.1 200.491V197.345H312.98V200.161L312.1 200.491ZM312.98 200.161C312.98 200.703 313.042 201.118 313.167 201.404C313.291 201.69 313.464 201.888 313.684 201.998C313.911 202.1 314.164 202.152 314.443 202.152C314.919 202.152 315.29 201.979 315.554 201.635C315.825 201.29 315.961 200.81 315.961 200.194H316.39C316.39 200.773 316.305 201.272 316.137 201.69C315.968 202.108 315.722 202.427 315.4 202.647C315.084 202.867 314.699 202.977 314.245 202.977C313.577 202.977 313.049 202.771 312.661 202.361C312.279 201.95 312.092 201.327 312.1 200.491L312.98 200.161ZM320.576 205.177C320.224 205.177 319.902 205.14 319.608 205.067C319.322 205.001 319.077 204.924 318.871 204.836C318.673 204.755 318.53 204.685 318.442 204.627L318.772 203.912C318.868 203.963 319.003 204.025 319.179 204.099C319.355 204.179 319.561 204.245 319.795 204.297C320.037 204.355 320.294 204.385 320.565 204.385C320.917 204.385 321.233 204.311 321.511 204.165C321.797 204.025 322.017 203.802 322.171 203.494C322.333 203.193 322.413 202.804 322.413 202.328V197.345H323.293V202.317C323.293 202.947 323.176 203.475 322.941 203.901C322.707 204.326 322.384 204.645 321.973 204.858C321.563 205.07 321.097 205.177 320.576 205.177ZM320.543 202.801C320.052 202.801 319.619 202.683 319.245 202.449C318.871 202.214 318.578 201.888 318.365 201.47C318.16 201.044 318.057 200.56 318.057 200.018C318.057 199.46 318.16 198.973 318.365 198.555C318.578 198.129 318.871 197.799 319.245 197.565C319.619 197.33 320.052 197.213 320.543 197.213C321.005 197.213 321.409 197.33 321.753 197.565C322.098 197.799 322.366 198.129 322.556 198.555C322.754 198.973 322.853 199.46 322.853 200.018C322.853 200.568 322.754 201.052 322.556 201.47C322.366 201.888 322.098 202.214 321.753 202.449C321.409 202.683 321.005 202.801 320.543 202.801ZM320.752 202.042C321.075 202.042 321.361 201.954 321.61 201.778C321.86 201.602 322.054 201.363 322.193 201.063C322.333 200.755 322.402 200.399 322.402 199.996C322.402 199.607 322.329 199.262 322.182 198.962C322.043 198.654 321.849 198.415 321.599 198.247C321.357 198.071 321.071 197.983 320.741 197.983C320.397 197.983 320.089 198.071 319.817 198.247C319.553 198.415 319.344 198.654 319.19 198.962C319.044 199.262 318.97 199.607 318.97 199.996C318.97 200.399 319.047 200.755 319.201 201.063C319.355 201.363 319.564 201.602 319.828 201.778C320.1 201.954 320.408 202.042 320.752 202.042Z" fill="#465762"/>
<path d="M351.266 202.977C350.84 202.977 350.463 202.933 350.133 202.845C349.803 202.749 349.517 202.621 349.275 202.46C349.033 202.291 348.835 202.108 348.681 201.91C348.527 201.704 348.413 201.488 348.34 201.261L349.231 200.953C349.341 201.275 349.561 201.558 349.891 201.8C350.228 202.034 350.639 202.152 351.123 202.152C351.717 202.152 352.182 202.034 352.52 201.8C352.857 201.565 353.026 201.253 353.026 200.865C353.026 200.505 352.875 200.216 352.575 199.996C352.274 199.768 351.878 199.592 351.387 199.468L350.54 199.248C350.195 199.16 349.876 199.031 349.583 198.863C349.297 198.687 349.066 198.467 348.89 198.203C348.721 197.931 348.637 197.609 348.637 197.235C348.637 196.538 348.86 195.995 349.308 195.607C349.762 195.211 350.415 195.013 351.266 195.013C351.772 195.013 352.208 195.097 352.575 195.266C352.941 195.427 353.238 195.636 353.466 195.893C353.7 196.142 353.865 196.413 353.961 196.707L353.081 197.015C352.941 196.648 352.707 196.362 352.377 196.157C352.047 195.944 351.647 195.838 351.178 195.838C350.686 195.838 350.294 195.959 350.001 196.201C349.715 196.435 349.572 196.758 349.572 197.169C349.572 197.521 349.685 197.792 349.913 197.983C350.14 198.166 350.437 198.302 350.804 198.39L351.651 198.599C352.399 198.775 352.971 199.068 353.367 199.479C353.77 199.882 353.972 200.318 353.972 200.788C353.972 201.191 353.869 201.561 353.664 201.899C353.458 202.229 353.154 202.493 352.751 202.691C352.355 202.881 351.86 202.977 351.266 202.977ZM357.715 202.977C357.179 202.977 356.706 202.856 356.296 202.614C355.885 202.364 355.562 202.023 355.328 201.591C355.1 201.158 354.987 200.659 354.987 200.095C354.987 199.53 355.1 199.031 355.328 198.599C355.562 198.166 355.881 197.829 356.285 197.587C356.695 197.337 357.165 197.213 357.693 197.213C358.199 197.213 358.639 197.341 359.013 197.598C359.394 197.847 359.687 198.199 359.893 198.654C360.098 199.108 360.201 199.644 360.201 200.26H359.321C359.321 199.79 359.258 199.391 359.134 199.061C359.009 198.723 358.822 198.463 358.573 198.28C358.331 198.096 358.034 198.005 357.682 198.005C357.322 198.005 357.003 198.093 356.725 198.269C356.453 198.437 356.244 198.679 356.098 198.995C355.951 199.31 355.878 199.68 355.878 200.106C355.878 200.524 355.958 200.887 356.12 201.195C356.281 201.495 356.505 201.734 356.791 201.91C357.077 202.078 357.399 202.163 357.759 202.163C358.14 202.163 358.463 202.071 358.727 201.888C358.991 201.704 359.2 201.466 359.354 201.173L360.124 201.558C359.984 201.844 359.797 202.093 359.563 202.306C359.335 202.518 359.064 202.683 358.749 202.801C358.441 202.918 358.096 202.977 357.715 202.977ZM355.57 200.26L355.581 199.501H359.662V200.26H355.57ZM361.366 205.045V197.345H362.191L362.246 198.357V205.045H361.366ZM364.105 202.977C363.643 202.977 363.236 202.856 362.884 202.614C362.539 202.372 362.271 202.034 362.081 201.602C361.89 201.162 361.795 200.659 361.795 200.095C361.795 199.523 361.89 199.02 362.081 198.588C362.271 198.155 362.539 197.818 362.884 197.576C363.236 197.334 363.643 197.213 364.105 197.213C364.596 197.213 365.029 197.334 365.403 197.576C365.777 197.818 366.066 198.155 366.272 198.588C366.484 199.02 366.591 199.523 366.591 200.095C366.591 200.659 366.484 201.162 366.272 201.602C366.066 202.034 365.777 202.372 365.403 202.614C365.029 202.856 364.596 202.977 364.105 202.977ZM363.907 202.174C364.251 202.174 364.556 202.086 364.82 201.91C365.091 201.734 365.304 201.488 365.458 201.173C365.619 200.857 365.7 200.498 365.7 200.095C365.7 199.691 365.623 199.332 365.469 199.017C365.322 198.701 365.113 198.456 364.842 198.28C364.57 198.104 364.262 198.016 363.918 198.016C363.595 198.016 363.305 198.104 363.049 198.28C362.799 198.456 362.601 198.701 362.455 199.017C362.315 199.332 362.246 199.691 362.246 200.095C362.246 200.498 362.315 200.857 362.455 201.173C362.601 201.488 362.799 201.734 363.049 201.91C363.298 202.086 363.584 202.174 363.907 202.174Z" fill="#465762"/>
<path d="M395.75 202.977C395.009 202.977 394.353 202.808 393.781 202.471C393.209 202.133 392.761 201.664 392.439 201.063C392.116 200.461 391.955 199.772 391.955 198.995C391.955 198.21 392.112 197.521 392.428 196.927C392.75 196.325 393.194 195.856 393.759 195.519C394.323 195.181 394.976 195.013 395.717 195.013C396.457 195.013 397.11 195.185 397.675 195.53C398.247 195.867 398.69 196.336 399.006 196.938C399.321 197.532 399.479 198.217 399.479 198.995C399.479 199.772 399.321 200.461 399.006 201.063C398.69 201.664 398.25 202.133 397.686 202.471C397.128 202.808 396.483 202.977 395.75 202.977ZM395.75 202.13C396.3 202.13 396.784 201.998 397.202 201.734C397.62 201.462 397.946 201.092 398.181 200.623C398.423 200.153 398.544 199.611 398.544 198.995C398.544 198.386 398.423 197.847 398.181 197.378C397.939 196.901 397.605 196.531 397.18 196.267C396.762 195.995 396.274 195.86 395.717 195.86C395.167 195.86 394.679 195.995 394.254 196.267C393.828 196.531 393.495 196.901 393.253 197.378C393.011 197.847 392.89 198.386 392.89 198.995C392.89 199.611 393.011 200.153 393.253 200.623C393.495 201.092 393.832 201.462 394.265 201.734C394.697 201.998 395.192 202.13 395.75 202.13ZM403.212 202.977C402.669 202.977 402.189 202.856 401.771 202.614C401.353 202.364 401.026 202.023 400.792 201.591C400.557 201.158 400.44 200.659 400.44 200.095C400.44 199.53 400.553 199.031 400.781 198.599C401.015 198.166 401.342 197.829 401.76 197.587C402.178 197.337 402.654 197.213 403.19 197.213C403.718 197.213 404.191 197.334 404.609 197.576C405.027 197.818 405.346 198.159 405.566 198.599L404.763 198.962C404.616 198.668 404.403 198.441 404.125 198.28C403.846 198.111 403.527 198.027 403.168 198.027C402.808 198.027 402.489 198.115 402.211 198.291C401.939 198.467 401.723 198.712 401.562 199.028C401.408 199.336 401.331 199.691 401.331 200.095C401.331 200.498 401.408 200.857 401.562 201.173C401.723 201.481 401.943 201.723 402.222 201.899C402.508 202.075 402.83 202.163 403.19 202.163C403.549 202.163 403.868 202.071 404.147 201.888C404.433 201.704 404.649 201.448 404.796 201.118L405.599 201.481C405.379 201.95 405.06 202.317 404.642 202.581C404.224 202.845 403.747 202.977 403.212 202.977ZM408.778 202.977C408.243 202.977 407.828 202.837 407.535 202.559C407.242 202.28 407.095 201.888 407.095 201.382V195.629H407.975V201.294C407.975 201.572 408.048 201.789 408.195 201.943C408.349 202.089 408.562 202.163 408.833 202.163C408.921 202.163 409.005 202.152 409.086 202.13C409.174 202.1 409.288 202.034 409.427 201.932L409.768 202.647C409.577 202.771 409.405 202.856 409.251 202.9C409.097 202.951 408.939 202.977 408.778 202.977ZM406.138 198.126V197.345H409.625V198.126H406.138Z" fill="#465762"/>
<path d="M440.455 202.845L435.142 195.662L435.868 195.145L441.181 202.317L440.455 202.845ZM434.922 202.845V195.145H435.868L435.857 195.882V202.845H434.922ZM440.455 202.845V195.145H441.39V202.845H440.455ZM445.618 202.977C445.083 202.977 444.606 202.856 444.188 202.614C443.778 202.364 443.455 202.023 443.22 201.591C442.986 201.158 442.868 200.659 442.868 200.095C442.868 199.53 442.982 199.031 443.209 198.599C443.444 198.166 443.767 197.829 444.177 197.587C444.595 197.337 445.068 197.213 445.596 197.213C446.139 197.213 446.616 197.337 447.026 197.587C447.444 197.829 447.767 198.166 447.994 198.599C448.229 199.031 448.346 199.53 448.346 200.095C448.346 200.659 448.229 201.158 447.994 201.591C447.767 202.023 447.448 202.364 447.037 202.614C446.627 202.856 446.154 202.977 445.618 202.977ZM445.618 202.163C445.985 202.163 446.304 202.075 446.575 201.899C446.847 201.723 447.059 201.481 447.213 201.173C447.375 200.865 447.455 200.505 447.455 200.095C447.455 199.684 447.375 199.325 447.213 199.017C447.059 198.709 446.843 198.467 446.564 198.291C446.286 198.115 445.963 198.027 445.596 198.027C445.237 198.027 444.918 198.115 444.639 198.291C444.368 198.467 444.152 198.709 443.99 199.017C443.836 199.325 443.759 199.684 443.759 200.095C443.759 200.498 443.836 200.857 443.99 201.173C444.152 201.481 444.372 201.723 444.65 201.899C444.936 202.075 445.259 202.163 445.618 202.163ZM451.112 202.845L453.356 197.345H454.28L451.981 202.845H451.112ZM451.057 202.845L448.758 197.345H449.671L451.915 202.845H451.057Z" fill="#465762"/>
<path d="M481.101 202.845V201.987C481.49 201.987 481.849 201.913 482.179 201.767C482.509 201.613 482.799 201.396 483.048 201.118C483.305 200.839 483.503 200.52 483.642 200.161C483.789 199.794 483.862 199.405 483.862 198.995C483.862 198.584 483.789 198.199 483.642 197.84C483.503 197.473 483.305 197.15 483.048 196.872C482.799 196.593 482.509 196.38 482.179 196.234C481.849 196.08 481.49 196.003 481.101 196.003V195.145C481.827 195.145 482.465 195.31 483.015 195.64C483.573 195.962 484.009 196.413 484.324 196.993C484.64 197.572 484.797 198.239 484.797 198.995C484.797 199.743 484.64 200.406 484.324 200.986C484.009 201.565 483.573 202.02 483.015 202.35C482.465 202.68 481.827 202.845 481.101 202.845ZM479.506 202.845V201.987H481.101V202.845H479.506ZM478.758 202.845V195.145H479.693V202.845H478.758ZM479.506 196.003V195.145H481.101V196.003H479.506ZM488.488 202.977C487.952 202.977 487.479 202.856 487.069 202.614C486.658 202.364 486.335 202.023 486.101 201.591C485.873 201.158 485.76 200.659 485.76 200.095C485.76 199.53 485.873 199.031 486.101 198.599C486.335 198.166 486.654 197.829 487.058 197.587C487.468 197.337 487.938 197.213 488.466 197.213C488.972 197.213 489.412 197.341 489.786 197.598C490.167 197.847 490.46 198.199 490.666 198.654C490.871 199.108 490.974 199.644 490.974 200.26H490.094C490.094 199.79 490.031 199.391 489.907 199.061C489.782 198.723 489.595 198.463 489.346 198.28C489.104 198.096 488.807 198.005 488.455 198.005C488.095 198.005 487.776 198.093 487.498 198.269C487.226 198.437 487.017 198.679 486.871 198.995C486.724 199.31 486.651 199.68 486.651 200.106C486.651 200.524 486.731 200.887 486.893 201.195C487.054 201.495 487.278 201.734 487.564 201.91C487.85 202.078 488.172 202.163 488.532 202.163C488.913 202.163 489.236 202.071 489.5 201.888C489.764 201.704 489.973 201.466 490.127 201.173L490.897 201.558C490.757 201.844 490.57 202.093 490.336 202.306C490.108 202.518 489.837 202.683 489.522 202.801C489.214 202.918 488.869 202.977 488.488 202.977ZM486.343 200.26L486.354 199.501H490.435V200.26H486.343ZM494.536 202.977C493.994 202.977 493.513 202.856 493.095 202.614C492.677 202.364 492.351 202.023 492.116 201.591C491.882 201.158 491.764 200.659 491.764 200.095C491.764 199.53 491.878 199.031 492.105 198.599C492.34 198.166 492.666 197.829 493.084 197.587C493.502 197.337 493.979 197.213 494.514 197.213C495.042 197.213 495.515 197.334 495.933 197.576C496.351 197.818 496.67 198.159 496.89 198.599L496.087 198.962C495.941 198.668 495.728 198.441 495.449 198.28C495.171 198.111 494.852 198.027 494.492 198.027C494.133 198.027 493.814 198.115 493.535 198.291C493.264 198.467 493.048 198.712 492.886 199.028C492.732 199.336 492.655 199.691 492.655 200.095C492.655 200.498 492.732 200.857 492.886 201.173C493.048 201.481 493.268 201.723 493.546 201.899C493.832 202.075 494.155 202.163 494.514 202.163C494.874 202.163 495.193 202.071 495.471 201.888C495.757 201.704 495.974 201.448 496.12 201.118L496.923 201.481C496.703 201.95 496.384 202.317 495.966 202.581C495.548 202.845 495.072 202.977 494.536 202.977Z" fill="#465762"/>
<path d="M28.357 48.631L0.5 96.5534V183.473H497.5V32.7589L476.31 79.9138C466.733 101.229 437.54 103.894 424.261 84.6657L416.5 73.4279L400.676 53.5345C387.712 37.2375 362.494 38.782 351.616 56.5392L347.082 63.9414C339.145 76.8976 321.174 79.007 310.452 68.2408C300.253 57.9989 283.308 59.3269 274.828 71.0326L262.214 88.4469C252.449 101.927 233.578 104.88 220.162 95.0286L191.99 74.341C181.796 66.8553 168.002 66.5667 157.503 73.6195L127.7 93.642C113.639 103.088 94.5514 99.0277 85.553 84.6765L62.5925 48.0576C54.5988 35.3087 35.9193 35.6215 28.357 48.631Z" fill="#4ABDE8" fill-opacity="0.16"/>
<path d="M3.5 96.1547L28.6477 50.0074C35.9646 36.5804 55.0308 35.9978 63.1539 48.9531L85.553 84.6765C94.5514 99.0277 113.639 103.088 127.7 93.642L157.503 73.6195C168.002 66.5667 181.795 66.8553 191.99 74.341L220.162 95.0286C233.578 104.88 252.449 101.927 262.214 88.4469L274.828 71.0326C283.308 59.3269 300.253 57.9989 310.452 68.2408V68.2408C321.174 79.007 339.145 76.8976 347.082 63.9414L351.616 56.5392C362.494 38.782 387.712 37.2375 400.676 53.5346L416.5 73.4279L423.306 83.2829C436.787 102.803 466.521 99.6926 475.67 77.8048L494.5 32.7589" stroke="url(#paint0_linear_629_16473)" stroke-width="6" stroke-linecap="round"/>
<path d="M40.1685 148.263L0.5 155.563V183.473H497.5V79.8073L481.573 130.425C475.749 148.936 449.624 149.139 443.513 130.72L440.647 122.083C437.178 111.625 424.36 107.811 415.737 114.67C409.08 119.966 399.429 119.062 393.871 112.622L368.527 83.254C357.78 70.7993 337.429 75.9242 333.862 91.9839L327.993 118.407C324.277 135.135 302.621 139.75 292.409 125.99L289.5 122.071L261.436 76.9535C255.297 67.0833 242.066 64.508 232.673 71.3549L227.459 75.1555C226.488 75.863 225.583 76.6565 224.755 77.5263L164.915 140.375C157.059 148.626 143.908 148.658 136.012 140.445L110.26 113.658C102.645 105.736 90.064 105.442 82.0869 113L50.3043 143.112C47.4952 145.774 43.9743 147.563 40.1685 148.263Z" fill="#FFAE41" fill-opacity="0.16"/>
<path d="M3.5 155.165L40.2096 148.277C43.9896 147.568 47.4849 145.783 50.2768 143.138L82.0869 113C90.064 105.442 102.645 105.736 110.26 113.658L136.035 140.468C143.922 148.672 157.056 148.651 164.916 140.422L225.751 76.7296C226.582 75.8593 227.49 75.0658 228.464 74.3588L232.682 71.2965C242.076 64.4769 255.283 67.0609 261.414 76.9179L289.5 122.071L292.409 125.99C302.621 139.75 324.277 135.135 327.993 118.407L333.862 91.9839C337.429 75.9242 357.78 70.7993 368.527 83.254L393.871 112.622C399.429 119.062 409.08 119.966 415.737 114.67V114.67C424.36 107.811 437.178 111.625 440.647 122.083L443.238 129.891C449.375 148.389 475.649 148.078 481.347 129.44L487.5 109.312L494.5 79.8073" stroke="url(#paint1_linear_629_16473)" stroke-width="6" stroke-linecap="round"/>
<path d="M223 3.79681H230V183.876H223V3.79681Z" fill="#FFAE41" fill-opacity="0.16"/>
<g filter="url(#filter0_d_629_16473)">
<circle cx="227.479" cy="74.4787" r="8.47867" fill="url(#paint2_linear_629_16473)"/>
<circle cx="227.479" cy="74.4787" r="10.0202" stroke="white" stroke-width="3.08315"/>
</g>
<g filter="url(#filter1_d_629_16473)">
<rect x="163" y="4" width="130" height="50" rx="10.791" fill="white"/>
</g>
<path d="M207.503 25.6251C206.948 25.6251 206.446 25.5384 205.995 25.3651C205.544 25.1917 205.172 24.9577 204.877 24.6631C204.591 24.3684 204.409 24.0521 204.331 23.7141L205.917 23.2461C206.012 23.5061 206.186 23.7314 206.437 23.9221C206.697 24.1041 207.022 24.1994 207.412 24.2081C207.819 24.2167 208.149 24.1301 208.4 23.9481C208.66 23.7661 208.79 23.5234 208.79 23.2201C208.79 22.9774 208.686 22.7694 208.478 22.5961C208.279 22.4141 208.001 22.2797 207.646 22.1931L206.58 21.9331C206.181 21.8204 205.83 21.6601 205.527 21.4521C205.224 21.2441 204.99 20.9884 204.825 20.6851C204.66 20.3731 204.578 20.0134 204.578 19.6061C204.578 18.8347 204.829 18.2324 205.332 17.7991C205.843 17.3657 206.567 17.1491 207.503 17.1491C208.023 17.1491 208.478 17.2227 208.868 17.3701C209.267 17.5174 209.6 17.7341 209.869 18.0201C210.138 18.2974 210.341 18.6311 210.48 19.0211L208.894 19.5021C208.807 19.2507 208.638 19.0341 208.387 18.8521C208.144 18.6614 207.832 18.5661 207.451 18.5661C207.078 18.5661 206.784 18.6571 206.567 18.8391C206.35 19.0124 206.242 19.2551 206.242 19.5671C206.242 19.8184 206.324 20.0221 206.489 20.1781C206.662 20.3254 206.896 20.4337 207.191 20.5031L208.27 20.7761C208.972 20.9494 209.514 21.2614 209.895 21.7121C210.285 22.1541 210.48 22.6481 210.48 23.1941C210.48 23.6881 210.363 24.1171 210.129 24.4811C209.895 24.8451 209.557 25.1267 209.115 25.3261C208.673 25.5254 208.136 25.6251 207.503 25.6251ZM206.814 27.2761V25.0141H208.244V27.2761H206.814ZM206.814 18.0591V15.7971H208.244V18.0591H206.814ZM214.662 26.0931C214.125 26.0931 213.64 26.0151 213.206 25.8591C212.773 25.6944 212.409 25.4647 212.114 25.1701C211.828 24.8667 211.629 24.5114 211.516 24.1041L213.154 23.6231C213.215 23.7271 213.297 23.8571 213.401 24.0131C213.505 24.1604 213.648 24.2861 213.83 24.3901C214.012 24.4941 214.251 24.5461 214.545 24.5461C214.979 24.5461 215.321 24.4291 215.572 24.1951C215.832 23.9524 215.962 23.6404 215.962 23.2591C215.962 22.9991 215.897 22.7694 215.767 22.5701C215.637 22.3707 215.425 22.2191 215.13 22.1151C214.844 22.0024 214.467 21.9461 213.999 21.9461H213.453V20.7371H213.934C214.454 20.7371 214.944 20.8021 215.403 20.9321C215.863 21.0534 216.266 21.2354 216.612 21.4781C216.968 21.7121 217.245 21.9981 217.444 22.3361C217.644 22.6654 217.743 23.0424 217.743 23.4671C217.743 24.0131 217.6 24.4854 217.314 24.8841C217.028 25.2741 216.651 25.5731 216.183 25.7811C215.715 25.9891 215.208 26.0931 214.662 26.0931ZM213.453 21.6211V20.4901H213.999C214.606 20.4901 215.057 20.3861 215.351 20.1781C215.646 19.9701 215.793 19.6841 215.793 19.3201C215.793 19.1121 215.741 18.9257 215.637 18.7611C215.533 18.5964 215.386 18.4664 215.195 18.3711C215.005 18.2757 214.784 18.2281 214.532 18.2281C214.368 18.2281 214.199 18.2584 214.025 18.3191C213.852 18.3711 213.692 18.4621 213.544 18.5921C213.406 18.7134 213.293 18.8911 213.206 19.1251L211.594 18.6441C211.716 18.2194 211.924 17.8641 212.218 17.5781C212.522 17.2834 212.881 17.0624 213.297 16.9151C213.713 16.7591 214.142 16.6811 214.584 16.6811C215.148 16.6811 215.655 16.7894 216.105 17.0061C216.556 17.2141 216.911 17.5044 217.171 17.8771C217.431 18.2497 217.561 18.6787 217.561 19.1641C217.561 19.5801 217.462 19.9397 217.262 20.2431C217.063 20.5464 216.79 20.8021 216.443 21.0101C216.105 21.2181 215.72 21.3741 215.286 21.4781C214.853 21.5734 214.402 21.6211 213.934 21.6211H213.453ZM219.858 23.4281L218.571 22.7261L222.601 16.8371L223.667 17.8381L219.858 23.4281ZM218.571 24.1431V22.7261L219.572 22.6221H226.072V24.1431H218.571ZM222.809 25.9371V17.8121L222.614 16.8371H224.486V25.9371H222.809ZM226.836 27.4191L227.629 24.3511H229.41L228.136 27.4191H226.836ZM233.607 26.0931C233.191 26.0931 232.762 26.0237 232.32 25.8851C231.887 25.7464 231.493 25.5384 231.137 25.2611C230.791 24.9837 230.535 24.6414 230.37 24.2341L231.995 23.7531C232.186 24.0304 232.411 24.2341 232.671 24.3641C232.94 24.4941 233.217 24.5591 233.503 24.5591C233.954 24.5591 234.318 24.4247 234.595 24.1561C234.881 23.8787 235.024 23.5104 235.024 23.0511C235.024 22.6264 234.886 22.2711 234.608 21.9851C234.34 21.6991 233.98 21.5561 233.529 21.5561C233.261 21.5561 233.014 21.6167 232.788 21.7381C232.563 21.8594 232.39 22.0024 232.268 22.1671L230.669 21.8161L231.215 16.8371H236.363V18.4491H231.475L231.215 16.8891H232.983L232.268 21.9851L231.319 21.8161C231.397 21.6601 231.519 21.4911 231.683 21.3091C231.848 21.1184 232.052 20.9364 232.294 20.7631C232.546 20.5897 232.827 20.4511 233.139 20.3471C233.451 20.2431 233.798 20.1954 234.179 20.2041C234.673 20.2041 235.124 20.3254 235.531 20.5681C235.939 20.8021 236.259 21.1271 236.493 21.5431C236.736 21.9504 236.857 22.4271 236.857 22.9731C236.857 23.5884 236.719 24.1301 236.441 24.5981C236.164 25.0661 235.783 25.4344 235.297 25.7031C234.812 25.9631 234.249 26.0931 233.607 26.0931ZM241.239 26.0931C240.624 26.0931 240.099 25.9847 239.666 25.7681C239.241 25.5427 238.89 25.2351 238.613 24.8451C238.344 24.4551 238.145 24.0044 238.015 23.4931C237.894 22.9731 237.833 22.4141 237.833 21.8161C237.833 21.1227 237.907 20.4684 238.054 19.8531C238.201 19.2291 238.422 18.6787 238.717 18.2021C239.02 17.7254 239.406 17.3527 239.874 17.0841C240.342 16.8154 240.905 16.6811 241.564 16.6811C242.041 16.6811 242.504 16.7504 242.955 16.8891C243.414 17.0277 243.826 17.2271 244.19 17.4871L243.306 18.7871C243.037 18.5964 242.747 18.4577 242.435 18.3711C242.132 18.2844 241.85 18.2411 241.59 18.2411C240.923 18.2411 240.398 18.5357 240.017 19.1251C239.636 19.7144 239.454 20.6461 239.471 21.9201L239.12 21.6731C239.319 21.1964 239.627 20.8151 240.043 20.5291C240.459 20.2431 240.953 20.1001 241.525 20.1001C242.106 20.1001 242.617 20.2344 243.059 20.5031C243.51 20.7717 243.861 21.1401 244.112 21.6081C244.372 22.0674 244.502 22.5831 244.502 23.1551C244.502 23.7184 244.368 24.2254 244.099 24.6761C243.83 25.1181 243.449 25.4647 242.955 25.7161C242.47 25.9674 241.898 26.0931 241.239 26.0931ZM241.239 24.5851C241.525 24.5851 241.781 24.5201 242.006 24.3901C242.231 24.2601 242.409 24.0824 242.539 23.8571C242.669 23.6317 242.734 23.3717 242.734 23.0771C242.734 22.7824 242.669 22.5224 242.539 22.2971C242.409 22.0631 242.231 21.8811 242.006 21.7511C241.781 21.6124 241.525 21.5431 241.239 21.5431C240.953 21.5431 240.693 21.6124 240.459 21.7511C240.234 21.8811 240.056 22.0631 239.926 22.2971C239.796 22.5224 239.731 22.7824 239.731 23.0771C239.731 23.3717 239.796 23.6317 239.926 23.8571C240.056 24.0824 240.234 24.2601 240.459 24.3901C240.693 24.5201 240.953 24.5851 241.239 24.5851ZM248.858 26.0931C248.13 26.0931 247.51 25.9891 246.999 25.7811C246.488 25.5644 246.098 25.2697 245.829 24.8971C245.569 24.5157 245.439 24.0737 245.439 23.5711C245.439 23.0337 245.569 22.5614 245.829 22.1541C246.098 21.7467 246.488 21.4261 246.999 21.1921C247.51 20.9581 248.13 20.8454 248.858 20.8541C249.595 20.8454 250.219 20.9581 250.73 21.1921C251.241 21.4261 251.631 21.7467 251.9 22.1541C252.169 22.5614 252.303 23.0337 252.303 23.5711C252.303 24.0737 252.169 24.5157 251.9 24.8971C251.631 25.2697 251.241 25.5644 250.73 25.7811C250.219 25.9891 249.595 26.0931 248.858 26.0931ZM248.858 24.6111C249.335 24.6111 249.725 24.4941 250.028 24.2601C250.331 24.0174 250.483 23.7097 250.483 23.3371C250.483 22.9297 250.331 22.6004 250.028 22.3491C249.725 22.0977 249.335 21.9721 248.858 21.9721C248.546 21.9721 248.269 22.0284 248.026 22.1411C247.792 22.2537 247.606 22.4141 247.467 22.6221C247.328 22.8301 247.259 23.0684 247.259 23.3371C247.259 23.5884 247.328 23.8094 247.467 24.0001C247.606 24.1907 247.792 24.3424 248.026 24.4551C248.269 24.5591 248.546 24.6111 248.858 24.6111ZM248.858 21.5561C248.208 21.5561 247.649 21.4564 247.181 21.2571C246.713 21.0491 246.353 20.7674 246.102 20.4121C245.859 20.0481 245.738 19.6277 245.738 19.1511C245.738 18.6657 245.859 18.2367 246.102 17.8641C246.353 17.4914 246.713 17.2011 247.181 16.9931C247.649 16.7851 248.208 16.6811 248.858 16.6811C249.517 16.6811 250.08 16.7851 250.548 16.9931C251.016 17.2011 251.376 17.4914 251.627 17.8641C251.878 18.2367 252.004 18.6657 252.004 19.1511C252.004 19.6277 251.878 20.0481 251.627 20.4121C251.376 20.7674 251.016 21.0491 250.548 21.2571C250.08 21.4564 249.517 21.5561 248.858 21.5561ZM248.858 20.5551C249.274 20.5551 249.612 20.4424 249.872 20.2171C250.141 19.9917 250.275 19.7057 250.275 19.3591C250.275 18.9864 250.141 18.6874 249.872 18.4621C249.612 18.2281 249.274 18.1111 248.858 18.1111C248.451 18.1111 248.117 18.2281 247.857 18.4621C247.597 18.6874 247.467 18.9864 247.467 19.3591C247.467 19.7057 247.597 19.9917 247.857 20.2171C248.117 20.4424 248.451 20.5551 248.858 20.5551Z" fill="#4D5154"/>
<path d="M191.334 41.568C191.07 41.568 190.825 41.5276 190.597 41.447C190.377 41.3736 190.179 41.2746 190.003 41.15C189.827 41.018 189.677 40.8713 189.552 40.71C189.428 40.5413 189.325 40.369 189.244 40.193L189.948 39.786C190.102 40.0573 190.289 40.281 190.509 40.457C190.737 40.633 191.015 40.721 191.345 40.721C191.609 40.721 191.866 40.6586 192.115 40.534C192.372 40.4093 192.581 40.2003 192.742 39.907C192.904 39.6136 192.984 39.2286 192.984 38.752V33.736H193.908V39.115C193.908 39.5183 193.835 39.874 193.688 40.182C193.549 40.49 193.355 40.7466 193.105 40.952C192.863 41.1573 192.588 41.3113 192.28 41.414C191.972 41.5166 191.657 41.568 191.334 41.568ZM199.69 41.601C199.11 41.601 198.597 41.48 198.15 41.238C197.71 40.9886 197.365 40.6476 197.116 40.215C196.866 39.775 196.742 39.269 196.742 38.697H197.677C197.677 39.1003 197.761 39.4596 197.93 39.775C198.106 40.083 198.348 40.325 198.656 40.501C198.964 40.6696 199.316 40.754 199.712 40.754C200.115 40.754 200.471 40.6696 200.779 40.501C201.094 40.325 201.336 40.083 201.505 39.775C201.681 39.4596 201.769 39.1003 201.769 38.697H202.693C202.693 39.269 202.568 39.775 202.319 40.215C202.069 40.6476 201.717 40.9886 201.263 41.238C200.808 41.48 200.284 41.601 199.69 41.601ZM196.742 38.697V33.736H197.677V38.697H196.742ZM201.769 38.697V33.736H202.693V38.697H201.769ZM211.162 41.436L205.849 34.253L206.575 33.736L211.888 40.908L211.162 41.436ZM205.629 41.436V33.736H206.575L206.564 34.473V41.436H205.629ZM211.162 41.436V33.736H212.097V41.436H211.162ZM219.393 40.897L218.469 40.666C218.469 40.424 218.517 40.1856 218.612 39.951C218.715 39.709 218.858 39.4706 219.041 39.236C219.232 39.0013 219.463 38.7813 219.734 38.576L221.329 37.377C221.52 37.245 221.685 37.0946 221.824 36.926C221.971 36.75 222.085 36.5703 222.165 36.387C222.246 36.1963 222.286 36.013 222.286 35.837C222.286 35.5803 222.224 35.3493 222.099 35.144C221.975 34.9313 221.799 34.7626 221.571 34.638C221.344 34.5133 221.076 34.451 220.768 34.451C220.468 34.451 220.204 34.5096 219.976 34.627C219.749 34.737 219.562 34.8873 219.415 35.078C219.269 35.2613 219.162 35.4593 219.096 35.672L218.15 35.485C218.238 35.155 218.396 34.847 218.623 34.561C218.858 34.275 219.155 34.044 219.514 33.868C219.874 33.692 220.273 33.604 220.713 33.604C221.227 33.604 221.67 33.703 222.044 33.901C222.418 34.0916 222.708 34.3556 222.913 34.693C223.126 35.023 223.232 35.4006 223.232 35.826C223.232 36.2293 223.122 36.6106 222.902 36.97C222.682 37.3293 222.363 37.6776 221.945 38.015L220.438 39.159C220.226 39.313 220.039 39.4816 219.877 39.665C219.723 39.8483 219.602 40.0426 219.514 40.248C219.434 40.446 219.393 40.6623 219.393 40.897ZM218.469 41.436V40.666L219.173 40.611H223.342V41.436H218.469ZM227.946 41.568C227.572 41.568 227.231 41.513 226.923 41.403C226.622 41.2856 226.362 41.1353 226.142 40.952C225.929 40.7686 225.76 40.5743 225.636 40.369L226.406 39.94C226.486 40.0426 226.585 40.16 226.703 40.292C226.827 40.4166 226.985 40.523 227.176 40.611C227.366 40.699 227.601 40.743 227.88 40.743C228.378 40.743 228.778 40.6 229.079 40.314C229.379 40.028 229.53 39.6686 229.53 39.236C229.53 38.906 229.438 38.6273 229.255 38.4C229.079 38.1726 228.822 38.0003 228.485 37.883C228.147 37.7656 227.744 37.707 227.275 37.707H227.066V36.981H227.253C227.715 36.981 228.14 37.0323 228.529 37.135C228.917 37.2376 229.255 37.388 229.541 37.586C229.834 37.784 230.058 38.026 230.212 38.312C230.373 38.598 230.454 38.928 230.454 39.302C230.454 39.7566 230.34 40.1563 230.113 40.501C229.893 40.8383 229.592 41.1023 229.211 41.293C228.829 41.4763 228.408 41.568 227.946 41.568ZM227.066 37.63V36.915H227.275C227.905 36.915 228.404 36.8086 228.771 36.596C229.145 36.376 229.332 36.0643 229.332 35.661C229.332 35.441 229.273 35.2393 229.156 35.056C229.038 34.8653 228.866 34.715 228.639 34.605C228.419 34.4876 228.162 34.429 227.869 34.429C227.671 34.429 227.484 34.4583 227.308 34.517C227.139 34.5683 226.981 34.649 226.835 34.759C226.695 34.8616 226.567 34.9936 226.45 35.155L225.724 34.737C225.863 34.5096 226.039 34.3116 226.252 34.143C226.472 33.9743 226.721 33.8423 227 33.747C227.278 33.6516 227.583 33.604 227.913 33.604C228.36 33.604 228.76 33.692 229.112 33.868C229.471 34.044 229.753 34.286 229.959 34.594C230.164 34.8946 230.267 35.2356 230.267 35.617C230.267 35.9396 230.19 36.2256 230.036 36.475C229.882 36.7243 229.665 36.937 229.387 37.113C229.115 37.289 228.796 37.421 228.43 37.509C228.07 37.5896 227.678 37.63 227.253 37.63H227.066ZM232.41 42.701L233.037 40.38H234.027L233.169 42.701H232.41ZM240.72 40.897L239.796 40.666C239.796 40.424 239.844 40.1856 239.939 39.951C240.042 39.709 240.185 39.4706 240.368 39.236C240.559 39.0013 240.79 38.7813 241.061 38.576L242.656 37.377C242.847 37.245 243.012 37.0946 243.151 36.926C243.298 36.75 243.412 36.5703 243.492 36.387C243.573 36.1963 243.613 36.013 243.613 35.837C243.613 35.5803 243.551 35.3493 243.426 35.144C243.302 34.9313 243.126 34.7626 242.898 34.638C242.671 34.5133 242.403 34.451 242.095 34.451C241.795 34.451 241.531 34.5096 241.303 34.627C241.076 34.737 240.889 34.8873 240.742 35.078C240.596 35.2613 240.489 35.4593 240.423 35.672L239.477 35.485C239.565 35.155 239.723 34.847 239.95 34.561C240.185 34.275 240.482 34.044 240.841 33.868C241.201 33.692 241.6 33.604 242.04 33.604C242.554 33.604 242.997 33.703 243.371 33.901C243.745 34.0916 244.035 34.3556 244.24 34.693C244.453 35.023 244.559 35.4006 244.559 35.826C244.559 36.2293 244.449 36.6106 244.229 36.97C244.009 37.3293 243.69 37.6776 243.272 38.015L241.765 39.159C241.553 39.313 241.366 39.4816 241.204 39.665C241.05 39.8483 240.929 40.0426 240.841 40.248C240.761 40.446 240.72 40.6623 240.72 40.897ZM239.796 41.436V40.666L240.5 40.611H244.669V41.436H239.796ZM249.834 41.568C249.247 41.568 248.727 41.3993 248.272 41.062C247.817 40.7173 247.462 40.248 247.205 39.654C246.948 39.0526 246.82 38.3633 246.82 37.586C246.82 36.8086 246.948 36.123 247.205 35.529C247.462 34.9276 247.814 34.4583 248.261 34.121C248.716 33.7763 249.24 33.604 249.834 33.604C250.428 33.604 250.949 33.7763 251.396 34.121C251.851 34.4583 252.206 34.9276 252.463 35.529C252.727 36.123 252.859 36.8086 252.859 37.586C252.859 38.3633 252.731 39.0526 252.474 39.654C252.217 40.248 251.862 40.7173 251.407 41.062C250.952 41.3993 250.428 41.568 249.834 41.568ZM249.834 40.732C250.245 40.732 250.608 40.5963 250.923 40.325C251.246 40.0536 251.495 39.6833 251.671 39.214C251.854 38.7446 251.946 38.202 251.946 37.586C251.946 36.97 251.854 36.4273 251.671 35.958C251.495 35.4813 251.246 35.111 250.923 34.847C250.608 34.5756 250.245 34.44 249.834 34.44C249.423 34.44 249.06 34.5756 248.745 34.847C248.43 35.111 248.18 35.4813 247.997 35.958C247.821 36.4273 247.733 36.97 247.733 37.586C247.733 38.202 247.821 38.7446 247.997 39.214C248.18 39.6833 248.43 40.0536 248.745 40.325C249.068 40.5963 249.431 40.732 249.834 40.732ZM255.912 40.897L254.988 40.666C254.988 40.424 255.036 40.1856 255.131 39.951C255.234 39.709 255.377 39.4706 255.56 39.236C255.751 39.0013 255.982 38.7813 256.253 38.576L257.848 37.377C258.039 37.245 258.204 37.0946 258.343 36.926C258.49 36.75 258.603 36.5703 258.684 36.387C258.765 36.1963 258.805 36.013 258.805 35.837C258.805 35.5803 258.743 35.3493 258.618 35.144C258.493 34.9313 258.317 34.7626 258.09 34.638C257.863 34.5133 257.595 34.451 257.287 34.451C256.986 34.451 256.722 34.5096 256.495 34.627C256.268 34.737 256.081 34.8873 255.934 35.078C255.787 35.2613 255.681 35.4593 255.615 35.672L254.669 35.485C254.757 35.155 254.915 34.847 255.142 34.561C255.377 34.275 255.674 34.044 256.033 33.868C256.392 33.692 256.792 33.604 257.232 33.604C257.745 33.604 258.189 33.703 258.563 33.901C258.937 34.0916 259.227 34.3556 259.432 34.693C259.645 35.023 259.751 35.4006 259.751 35.826C259.751 36.2293 259.641 36.6106 259.421 36.97C259.201 37.3293 258.882 37.6776 258.464 38.015L256.957 39.159C256.744 39.313 256.557 39.4816 256.396 39.665C256.242 39.8483 256.121 40.0426 256.033 40.248C255.952 40.446 255.912 40.6623 255.912 40.897ZM254.988 41.436V40.666L255.692 40.611H259.861V41.436H254.988ZM264.695 41.568C264.387 41.568 264.072 41.524 263.749 41.436C263.434 41.3406 263.133 41.1976 262.847 41.007C262.569 40.8163 262.338 40.5706 262.154 40.27L262.902 39.841C263.159 40.1636 263.438 40.3983 263.738 40.545C264.039 40.6916 264.351 40.765 264.673 40.765C265.179 40.765 265.59 40.611 265.905 40.303C266.228 39.9876 266.389 39.577 266.389 39.071C266.389 38.5723 266.235 38.1653 265.927 37.85C265.619 37.5346 265.216 37.377 264.717 37.377C264.446 37.377 264.178 37.4393 263.914 37.564C263.65 37.6813 263.445 37.828 263.298 38.004L262.462 37.806L262.836 33.736H266.939V34.572H262.891L262.836 33.769H263.76L263.331 37.85L262.616 37.806C262.719 37.6446 262.847 37.4943 263.001 37.355C263.155 37.2156 263.331 37.091 263.529 36.981C263.735 36.8636 263.951 36.772 264.178 36.706C264.406 36.64 264.637 36.6106 264.871 36.618C265.341 36.618 265.759 36.7206 266.125 36.926C266.492 37.1313 266.782 37.4173 266.994 37.784C267.207 38.1506 267.313 38.5723 267.313 39.049C267.313 39.5476 267.2 39.9876 266.972 40.369C266.752 40.743 266.444 41.0363 266.048 41.249C265.66 41.4616 265.209 41.568 264.695 41.568Z" fill="#465762"/>
<defs>
<filter id="filter0_d_629_16473" x="202.043" y="52.1258" width="50.8719" height="50.872" filterUnits="userSpaceOnUse" color-interpolation-filters="sRGB">
<feFlood flood-opacity="0" result="BackgroundImageFix"/>
<feColorMatrix in="SourceAlpha" type="matrix" values="0 0 0 0 0 0 0 0 0 0 0 0 0 0 0 0 0 0 127 0" result="hardAlpha"/>
<feOffset dy="3.08315"/>
<feGaussianBlur stdDeviation="6.93709"/>
<feColorMatrix type="matrix" values="0 0 0 0 0 0 0 0 0 0 0 0 0 0 0 0 0 0 0.25 0"/>
<feBlend mode="normal" in2="BackgroundImageFix" result="effect1_dropShadow_629_16473"/>
<feBlend mode="normal" in="SourceGraphic" in2="effect1_dropShadow_629_16473" result="shape"/>
</filter>
<filter id="filter1_d_629_16473" x="157" y="0" width="142" height="62" filterUnits="userSpaceOnUse" color-interpolation-filters="sRGB">
<feFlood flood-opacity="0" result="BackgroundImageFix"/>
<feColorMatrix in="SourceAlpha" type="matrix" values="0 0 0 0 0 0 0 0 0 0 0 0 0 0 0 0 0 0 127 0" result="hardAlpha"/>
<feOffset dy="2"/>
<feGaussianBlur stdDeviation="3"/>
<feComposite in2="hardAlpha" operator="out"/>
<feColorMatrix type="matrix" values="0 0 0 0 0.564706 0 0 0 0 0.572549 0 0 0 0 0.580392 0 0 0 0.2 0"/>
<feBlend mode="normal" in2="BackgroundImageFix" result="effect1_dropShadow_629_16473"/>
<feBlend mode="normal" in="SourceGraphic" in2="effect1_dropShadow_629_16473" result="shape"/>
</filter>
<linearGradient id="paint0_linear_629_16473" x1="3.5" y1="128.451" x2="49.18" y2="-78.361" gradientUnits="userSpaceOnUse">
<stop stop-color="#4ABDE8"/>
<stop offset="1" stop-color="#77DAFF"/>
</linearGradient>
<linearGradient id="paint1_linear_629_16473" x1="3.5" y1="189.454" x2="73.8169" y2="-63.7389" gradientUnits="userSpaceOnUse">
<stop stop-color="#FFAE41"/>
<stop offset="1" stop-color="#FFC06A"/>
</linearGradient>
<linearGradient id="paint2_linear_629_16473" x1="219" y1="82.9573" x2="235.957" y2="66" gradientUnits="userSpaceOnUse">
<stop stop-color="#FFAE41"/>
<stop offset="1" stop-color="#FFC06A"/>
</linearGradient>
</defs>
</svg>
