<svg width="58" height="58" viewBox="0 0 58 58" fill="none" xmlns="http://www.w3.org/2000/svg">
<rect width="58" height="58" rx="10" fill="#00997E"/>
<path d="M17.975 28.825C18.0669 28.8939 18.1715 28.9441 18.2828 28.9726C18.3942 29.0011 18.51 29.0075 18.6237 28.9912C18.7375 28.975 18.8469 28.9365 18.9458 28.8779C19.0447 28.8194 19.1311 28.7419 19.2 28.65C19.7298 27.9436 20.4167 27.3703 21.2065 26.9754C21.9962 26.5806 22.867 26.375 23.75 26.375C24.633 26.375 25.5038 26.5806 26.2935 26.9754C27.0833 27.3703 27.7702 27.9436 28.3 28.65C28.4394 28.8355 28.6468 28.958 28.8765 28.9906C29.1062 29.0232 29.3395 28.9633 29.525 28.8239C29.5911 28.7747 29.6497 28.7161 29.6989 28.65C30.2287 27.9436 30.9156 27.3703 31.7054 26.9754C32.4951 26.5806 33.366 26.375 34.2489 26.375C35.1319 26.375 36.0027 26.5806 36.7924 26.9754C37.5822 27.3703 38.2691 27.9436 38.7989 28.65C38.9383 28.8357 39.1457 28.9583 39.3755 28.991C39.6054 29.0238 39.8388 28.9638 40.0245 28.8245C40.2101 28.6851 40.3328 28.4776 40.3655 28.2478C40.3982 28.018 40.3383 27.7846 40.1989 27.5989C39.4244 26.5606 38.3916 25.7431 37.2031 25.2277C37.8547 24.6328 38.3111 23.8549 38.5126 22.996C38.7141 22.1371 38.6513 21.2373 38.3323 20.4147C38.0132 19.5922 37.453 18.8853 36.7251 18.3869C35.9971 17.8884 35.1355 17.6217 34.2533 17.6217C33.371 17.6217 32.5094 17.8884 31.7815 18.3869C31.0536 18.8853 30.4933 19.5922 30.1743 20.4147C29.8553 21.2373 29.7924 22.1371 29.9939 22.996C30.1954 23.8549 30.6519 24.6328 31.3034 25.2277C30.4453 25.5987 29.6658 26.1299 29.0066 26.7928C28.3473 26.1299 27.5678 25.5987 26.7097 25.2277C27.3612 24.6328 27.8177 23.8549 28.0192 22.996C28.2207 22.1371 28.1578 21.2373 27.8388 20.4147C27.5198 19.5922 26.9596 18.8853 26.2316 18.3869C25.5037 17.8884 24.6421 17.6217 23.7598 17.6217C22.8776 17.6217 22.016 17.8884 21.288 18.3869C20.5601 18.8853 19.9999 19.5922 19.6809 20.4147C19.3619 21.2373 19.299 22.1371 19.5005 22.996C19.702 23.8549 20.1585 24.6328 20.81 25.2277C19.6163 25.7414 18.5784 26.5594 17.8 27.6C17.7311 27.6919 17.6809 27.7965 17.6524 27.9078C17.6239 28.0192 17.6175 28.135 17.6338 28.2487C17.65 28.3625 17.6885 28.4719 17.7471 28.5708C17.8056 28.6697 17.8831 28.7561 17.975 28.825ZM34.25 19.375C34.7692 19.375 35.2767 19.529 35.7084 19.8174C36.1401 20.1058 36.4765 20.5158 36.6752 20.9955C36.8739 21.4751 36.9258 22.0029 36.8246 22.5121C36.7233 23.0213 36.4733 23.489 36.1062 23.8562C35.739 24.2233 35.2713 24.4733 34.7621 24.5746C34.2529 24.6758 33.7251 24.6239 33.2455 24.4252C32.7658 24.2265 32.3558 23.8901 32.0674 23.4584C31.779 23.0267 31.625 22.5192 31.625 22C31.625 21.3038 31.9016 20.6361 32.3938 20.1438C32.8861 19.6516 33.5538 19.375 34.25 19.375ZM23.75 19.375C24.2692 19.375 24.7767 19.529 25.2084 19.8174C25.6401 20.1058 25.9765 20.5158 26.1752 20.9955C26.3739 21.4751 26.4258 22.0029 26.3246 22.5121C26.2233 23.0213 25.9733 23.489 25.6062 23.8562C25.239 24.2233 24.7713 24.4733 24.2621 24.5746C23.7529 24.6758 23.2251 24.6239 22.7455 24.4252C22.2658 24.2265 21.8558 23.8901 21.5674 23.4584C21.279 23.0267 21.125 22.5192 21.125 22C21.125 21.3038 21.4016 20.6361 21.8938 20.1438C22.3861 19.6516 23.0538 19.375 23.75 19.375ZM37.2031 36.6027C37.8547 36.0078 38.3111 35.2299 38.5126 34.371C38.7141 33.512 38.6513 32.6123 38.3323 31.7897C38.0132 30.9672 37.453 30.2603 36.7251 29.7619C35.9971 29.2634 35.1355 28.9967 34.2533 28.9967C33.371 28.9967 32.5094 29.2634 31.7815 29.7619C31.0536 30.2603 30.4933 30.9672 30.1743 31.7897C29.8553 32.6123 29.7924 33.512 29.9939 34.371C30.1954 35.2299 30.6519 36.0078 31.3034 36.6027C30.4453 36.9737 29.6658 37.5049 29.0066 38.1678C28.3473 37.5049 27.5678 36.9737 26.7097 36.6027C27.3612 36.0078 27.8177 35.2299 28.0192 34.371C28.2207 33.512 28.1578 32.6123 27.8388 31.7897C27.5198 30.9672 26.9596 30.2603 26.2316 29.7619C25.5037 29.2634 24.6421 28.9967 23.7598 28.9967C22.8776 28.9967 22.016 29.2634 21.288 29.7619C20.5601 30.2603 19.9999 30.9672 19.6809 31.7897C19.3619 32.6123 19.299 33.512 19.5005 34.371C19.702 35.2299 20.1585 36.0078 20.81 36.6027C19.6163 37.1164 18.5784 37.9344 17.8 38.975C17.7311 39.0669 17.6809 39.1715 17.6524 39.2828C17.6239 39.3942 17.6175 39.51 17.6338 39.6237C17.65 39.7375 17.6885 39.8469 17.7471 39.9458C17.8056 40.0447 17.8831 40.1311 17.975 40.2C18.0669 40.2689 18.1715 40.3191 18.2828 40.3476C18.3942 40.3761 18.51 40.3825 18.6237 40.3662C18.7375 40.35 18.8469 40.3115 18.9458 40.2529C19.0447 40.1944 19.1311 40.1169 19.2 40.025C19.7298 39.3186 20.4167 38.7453 21.2065 38.3504C21.9962 37.9556 22.867 37.75 23.75 37.75C24.633 37.75 25.5038 37.9556 26.2935 38.3504C27.0833 38.7453 27.7702 39.3186 28.3 40.025C28.4394 40.2105 28.6468 40.333 28.8765 40.3656C29.1062 40.3982 29.3395 40.3383 29.525 40.1989C29.5911 40.1497 29.6497 40.0911 29.6989 40.025C30.2287 39.3186 30.9156 38.7453 31.7054 38.3504C32.4951 37.9556 33.366 37.75 34.2489 37.75C35.1319 37.75 36.0027 37.9556 36.7924 38.3504C37.5822 38.7453 38.2691 39.3186 38.7989 40.025C38.9383 40.2106 39.1457 40.3333 39.3755 40.366C39.6054 40.3988 39.8388 40.3388 40.0245 40.1995C40.2101 40.0601 40.3328 39.8526 40.3655 39.6228C40.3982 39.393 40.3383 39.1596 40.1989 38.9739C39.4244 37.9356 38.3916 37.1181 37.2031 36.6027ZM23.75 30.75C24.2692 30.75 24.7767 30.904 25.2084 31.1924C25.6401 31.4808 25.9765 31.8908 26.1752 32.3705C26.3739 32.8501 26.4258 33.3779 26.3246 33.8871C26.2233 34.3963 25.9733 34.864 25.6062 35.2312C25.239 35.5983 24.7713 35.8483 24.2621 35.9496C23.7529 36.0508 23.2251 35.9989 22.7455 35.8002C22.2658 35.6015 21.8558 35.265 21.5674 34.8334C21.279 34.4017 21.125 33.8942 21.125 33.375C21.125 32.6788 21.4016 32.0111 21.8938 31.5188C22.3861 31.0266 23.0538 30.75 23.75 30.75ZM34.25 30.75C34.7692 30.75 35.2767 30.904 35.7084 31.1924C36.1401 31.4808 36.4765 31.8908 36.6752 32.3705C36.8739 32.8501 36.9258 33.3779 36.8246 33.8871C36.7233 34.3963 36.4733 34.864 36.1062 35.2312C35.739 35.5983 35.2713 35.8483 34.7621 35.9496C34.2529 36.0508 33.7251 35.9989 33.2455 35.8002C32.7658 35.6015 32.3558 35.265 32.0674 34.8334C31.779 34.4017 31.625 33.8942 31.625 33.375C31.625 32.6788 31.9016 32.0111 32.3938 31.5188C32.8861 31.0266 33.5538 30.75 34.25 30.75Z" fill="white"/>
</svg>
