<svg width="244" height="165" viewBox="0 0 244 165" fill="none" xmlns="http://www.w3.org/2000/svg">
<path d="M6.56299 121.437C3.24929 121.437 0.547511 118.749 0.711047 115.439C2.19456 85.4157 14.7749 56.9242 36.131 35.568C58.9049 12.7942 89.7928 3.45532e-06 122 0C154.207 -3.45531e-06 185.095 12.7942 207.869 35.568C229.225 56.9242 241.805 85.4157 243.289 115.439C243.452 118.749 240.75 121.437 237.437 121.437L200.862 121.437C197.548 121.437 194.888 118.746 194.615 115.443C193.202 98.3137 185.766 82.16 173.521 69.9156C159.857 56.2513 141.324 48.5748 122 48.5748C102.676 48.5748 84.1429 56.2513 70.4786 69.9156C58.2341 82.16 50.7977 98.3137 49.3845 115.443C49.112 118.746 46.4515 121.437 43.1377 121.437H6.56299Z" fill="#4ABDE8"/>
<path d="M6.56299 121.437C3.24929 121.437 0.547525 118.749 0.711179 115.439C1.55649 98.344 6.0078 81.5964 13.7988 66.3057C22.4991 49.2304 35.1171 34.4567 50.6211 23.1924C66.1251 11.9281 84.0749 4.49301 103.003 1.4951C119.953 -1.1895 137.256 -0.247668 153.776 4.23109C156.974 5.09819 158.696 8.49838 157.672 11.6499L146.37 46.4346C145.346 49.5861 141.964 51.285 138.739 50.5237C129.536 48.3513 119.979 47.9866 110.602 49.4718C99.2449 51.2706 88.475 55.7316 79.1726 62.4902C69.8702 69.2488 62.2994 78.113 57.0792 88.3582C52.769 96.8174 50.1624 106.02 49.3846 115.444C49.1121 118.746 46.4515 121.437 43.1377 121.437L6.56299 121.437Z" fill="#5655D7"/>
<g filter="url(#filter0_d_204_8714)">
<circle cx="121.388" cy="106.825" r="45.8252" fill="#5655D7"/>
<circle cx="121.388" cy="106.825" r="41.8252" stroke="white" stroke-width="8"/>
</g>
<path d="M124.957 120.458L133.617 97.0935L133.624 97.0723C133.753 96.6962 133.775 96.2913 133.686 95.9037C133.596 95.5161 133.4 95.1613 133.119 94.8797C132.838 94.5981 132.484 94.401 132.097 94.3108C131.709 94.2207 131.304 94.241 130.928 94.3696C130.921 94.3712 130.914 94.3734 130.907 94.3762L107.542 103.044C107.126 103.186 106.765 103.456 106.51 103.815C106.256 104.174 106.121 104.605 106.125 105.045L106.125 105.085C106.129 105.534 106.276 105.97 106.546 106.328C106.816 106.687 107.194 106.95 107.625 107.077L117.793 110.206L120.922 120.374C121.053 120.802 121.316 121.176 121.673 121.446C122.03 121.715 122.463 121.865 122.909 121.874C123.356 121.883 123.795 121.751 124.162 121.496C124.53 121.242 124.808 120.878 124.957 120.457L124.957 120.458ZM122.952 119.75L119.823 109.582C119.721 109.251 119.54 108.95 119.295 108.705C119.05 108.46 118.749 108.279 118.418 108.177L108.25 105.048L108.273 105.04L131.625 96.375L122.963 119.726L122.955 119.747L122.952 119.75Z" fill="white"/>
<defs>
<filter id="filter0_d_204_8714" x="67.563" y="57" width="107.65" height="107.651" filterUnits="userSpaceOnUse" color-interpolation-filters="sRGB">
<feFlood flood-opacity="0" result="BackgroundImageFix"/>
<feColorMatrix in="SourceAlpha" type="matrix" values="0 0 0 0 0 0 0 0 0 0 0 0 0 0 0 0 0 0 127 0" result="hardAlpha"/>
<feOffset dy="4"/>
<feGaussianBlur stdDeviation="4"/>
<feColorMatrix type="matrix" values="0 0 0 0 0 0 0 0 0 0 0 0 0 0 0 0 0 0 0.12 0"/>
<feBlend mode="normal" in2="BackgroundImageFix" result="effect1_dropShadow_204_8714"/>
<feBlend mode="normal" in="SourceGraphic" in2="effect1_dropShadow_204_8714" result="shape"/>
</filter>
</defs>
</svg>
