<svg width="40" height="40" viewBox="0 0 40 40" fill="none" xmlns="http://www.w3.org/2000/svg">
<rect width="40" height="40" rx="20" fill="white"/>
<path d="M30.9498 22.1C30.871 22.1591 30.7813 22.2021 30.6859 22.2266C30.5905 22.251 30.4912 22.2564 30.3937 22.2425C30.2962 22.2286 30.2024 22.1956 30.1177 22.1454C30.0329 22.0952 29.9589 22.0288 29.8998 21.95C29.4477 21.3424 28.8593 20.8494 28.182 20.5107C27.5046 20.172 26.7571 19.9971 25.9998 20C25.8523 20 25.7081 19.9565 25.5852 19.875C25.4623 19.7935 25.3662 19.6775 25.3089 19.5416C25.2699 19.4493 25.2499 19.3502 25.2499 19.25C25.2499 19.1499 25.2699 19.0508 25.3089 18.9585C25.3662 18.8226 25.4623 18.7066 25.5852 18.6251C25.7081 18.5436 25.8523 18.5001 25.9998 18.5C26.4206 18.5 26.833 18.382 27.1901 18.1593C27.5472 17.9366 27.8347 17.6183 28.0199 17.2405C28.2051 16.8626 28.2807 16.4404 28.238 16.0217C28.1953 15.6031 28.036 15.2048 27.7783 14.8721C27.5206 14.5395 27.1748 14.2857 26.7801 14.1397C26.3854 13.9938 25.9577 13.9614 25.5455 14.0463C25.1334 14.1313 24.7533 14.3301 24.4484 14.6202C24.1436 14.9103 23.9262 15.2801 23.821 15.6875C23.7964 15.783 23.7532 15.8726 23.694 15.9513C23.6347 16.03 23.5605 16.0963 23.4757 16.1464C23.3908 16.1964 23.2969 16.2293 23.1993 16.2431C23.1017 16.2568 23.0024 16.2512 22.907 16.2266C22.8116 16.202 22.7219 16.1588 22.6432 16.0995C22.5645 16.0403 22.4982 15.9661 22.4481 15.8812C22.3981 15.7963 22.3652 15.7024 22.3515 15.6049C22.3377 15.5073 22.3433 15.408 22.3679 15.3125C22.5139 14.7475 22.7898 14.2244 23.1736 13.7847C23.5574 13.3451 24.0385 13.0011 24.5786 12.7801C25.1187 12.5591 25.703 12.4673 26.2848 12.5118C26.8667 12.5563 27.4302 12.7361 27.9304 13.0367C28.4306 13.3373 28.8537 13.7505 29.1661 14.2434C29.4785 14.7364 29.6715 15.2954 29.7299 15.8761C29.7882 16.4567 29.7102 17.043 29.5021 17.5882C29.2939 18.1334 28.9615 18.6225 28.531 19.0166C29.5509 19.4582 30.4374 20.1589 31.1026 21.0491C31.1617 21.1281 31.2046 21.218 31.2289 21.3136C31.2532 21.4092 31.2584 21.5087 31.2442 21.6063C31.23 21.7039 31.1967 21.7978 31.1462 21.8825C31.0957 21.9672 31.0289 22.0412 30.9498 22.1ZM25.8985 27.875C25.9528 27.9604 25.9892 28.0559 26.0057 28.1557C26.0221 28.2555 26.0181 28.3576 25.9941 28.4558C25.97 28.5541 25.9263 28.6464 25.8656 28.7274C25.8049 28.8083 25.7285 28.8761 25.6409 28.9267C25.5534 28.9773 25.4565 29.0097 25.356 29.0219C25.2556 29.0341 25.1538 29.0259 25.0566 28.9977C24.9595 28.9695 24.8691 28.922 24.7908 28.8579C24.7125 28.7939 24.6479 28.7147 24.601 28.625C24.1286 27.825 23.4557 27.1621 22.6488 26.7015C21.8419 26.2409 20.9289 25.9987 19.9998 25.9987C19.0707 25.9987 18.1577 26.2409 17.3508 26.7015C16.5439 27.1621 15.871 27.825 15.3985 28.625C15.3517 28.7147 15.2871 28.7939 15.2088 28.8579C15.1305 28.922 15.0401 28.9695 14.9429 28.9977C14.8458 29.0259 14.744 29.0341 14.6435 29.0219C14.5431 29.0097 14.4462 28.9773 14.3586 28.9267C14.2711 28.8761 14.1946 28.8083 14.134 28.7274C14.0733 28.6464 14.0296 28.5541 14.0055 28.4558C13.9815 28.3576 13.9775 28.2555 13.9939 28.1557C14.0103 28.0559 14.0468 27.9604 14.101 27.875C14.8282 26.6257 15.9369 25.6426 17.2642 25.07C16.5173 24.4982 15.9684 23.7067 15.6946 22.8068C15.4208 21.9068 15.436 20.9437 15.7378 20.0528C16.0397 19.1619 16.6132 18.388 17.3777 17.8399C18.1421 17.2918 19.0591 16.997 19.9998 16.997C20.9404 16.997 21.8575 17.2918 22.6219 17.8399C23.3864 18.388 23.9599 19.1619 24.2617 20.0528C24.5636 20.9437 24.5788 21.9068 24.305 22.8068C24.0312 23.7067 23.4823 24.4982 22.7354 25.07C24.0627 25.6426 25.1714 26.6257 25.8985 27.875ZM19.9998 24.5C20.5931 24.5 21.1732 24.3241 21.6665 23.9945C22.1599 23.6648 22.5444 23.1963 22.7714 22.6481C22.9985 22.0999 23.0579 21.4967 22.9422 20.9148C22.8264 20.3328 22.5407 19.7983 22.1211 19.3787C21.7016 18.9592 21.167 18.6734 20.5851 18.5577C20.0031 18.4419 19.3999 18.5013 18.8517 18.7284C18.3036 18.9555 17.835 19.34 17.5054 19.8333C17.1757 20.3267 16.9998 20.9067 16.9998 21.5C16.9998 22.2957 17.3159 23.0588 17.8785 23.6214C18.4411 24.184 19.2041 24.5 19.9998 24.5ZM14.7498 19.25C14.7498 19.0511 14.6708 18.8604 14.5301 18.7197C14.3895 18.5791 14.1987 18.5 13.9998 18.5C13.579 18.5 13.1666 18.382 12.8095 18.1593C12.4524 17.9366 12.1649 17.6183 11.9797 17.2405C11.7945 16.8626 11.7189 16.4404 11.7616 16.0217C11.8043 15.6031 11.9636 15.2048 12.2213 14.8721C12.479 14.5395 12.8248 14.2857 13.2195 14.1397C13.6142 13.9938 14.0419 13.9614 14.4541 14.0463C14.8662 14.1313 15.2463 14.3301 15.5511 14.6202C15.856 14.9103 16.0733 15.2801 16.1785 15.6875C16.2283 15.8802 16.3525 16.0453 16.5239 16.1464C16.6954 16.2475 16.8999 16.2763 17.0926 16.2266C17.2853 16.1769 17.4504 16.0526 17.5514 15.8812C17.6525 15.7098 17.6814 15.5052 17.6317 15.3125C17.4856 14.7475 17.2098 14.2244 16.826 13.7847C16.4422 13.3451 15.9611 13.0011 15.421 12.7801C14.8809 12.5591 14.2966 12.4673 13.7148 12.5118C13.1329 12.5563 12.5694 12.7361 12.0692 13.0367C11.569 13.3373 11.1459 13.7505 10.8335 14.2434C10.5211 14.7364 10.3281 15.2954 10.2697 15.8761C10.2114 16.4567 10.2894 17.043 10.4975 17.5882C10.7056 18.1334 11.0381 18.6225 11.4685 19.0166C10.4497 19.4586 9.56422 20.1593 8.8998 21.0491C8.78032 21.2082 8.72896 21.4083 8.757 21.6053C8.78505 21.8023 8.8902 21.9801 9.04933 22.0996C9.20846 22.219 9.40853 22.2704 9.60553 22.2424C9.80253 22.2143 9.98032 22.1092 10.0998 21.95C10.5518 21.3424 11.1402 20.8494 11.8176 20.5107C12.495 20.172 13.2425 19.9971 13.9998 20C14.1987 20 14.3895 19.921 14.5301 19.7804C14.6708 19.6397 14.7498 19.449 14.7498 19.25Z" fill="#5655D7"/>
</svg>
