<svg width="686" height="35" viewBox="0 0 686 35" fill="none" xmlns="http://www.w3.org/2000/svg">
<rect width="686" height="35" rx="10" fill="#F7F8FA"/>
<rect width="543" height="35" rx="6" fill="#FFAE41"/>
<path d="M513.47 23.18C512.76 23.18 512.155 23.05 511.655 22.79C511.165 22.52 510.77 22.16 510.47 21.71C510.17 21.25 509.95 20.72 509.81 20.12C509.67 19.51 509.6 18.86 509.6 18.17C509.6 17.33 509.685 16.555 509.855 15.845C510.035 15.135 510.3 14.515 510.65 13.985C511 13.455 511.435 13.045 511.955 12.755C512.485 12.465 513.1 12.32 513.8 12.32C514.34 12.32 514.87 12.405 515.39 12.575C515.92 12.735 516.39 12.96 516.8 13.25L515.9 14.51C515.59 14.29 515.25 14.125 514.88 14.015C514.52 13.905 514.185 13.85 513.875 13.85C513.005 13.85 512.33 14.225 511.85 14.975C511.38 15.725 511.165 16.89 511.205 18.47L510.845 18.2C511.075 17.63 511.44 17.175 511.94 16.835C512.44 16.485 513.035 16.31 513.725 16.31C514.395 16.31 514.99 16.465 515.51 16.775C516.03 17.075 516.435 17.49 516.725 18.02C517.015 18.54 517.16 19.135 517.16 19.805C517.16 20.455 517.005 21.035 516.695 21.545C516.395 22.055 515.965 22.455 515.405 22.745C514.855 23.035 514.21 23.18 513.47 23.18ZM513.485 21.695C513.855 21.695 514.185 21.61 514.475 21.44C514.775 21.27 515.01 21.04 515.18 20.75C515.35 20.45 515.435 20.11 515.435 19.73C515.435 19.35 515.35 19.01 515.18 18.71C515.01 18.41 514.775 18.18 514.475 18.02C514.185 17.85 513.855 17.765 513.485 17.765C513.105 17.765 512.765 17.85 512.465 18.02C512.175 18.18 511.945 18.41 511.775 18.71C511.605 19.01 511.52 19.35 511.52 19.73C511.52 20.11 511.605 20.45 511.775 20.75C511.945 21.04 512.175 21.27 512.465 21.44C512.765 21.61 513.105 21.695 513.485 21.695ZM519.008 23L526.463 12.5H528.203L520.703 23H519.008ZM526.598 23.24C526.128 23.24 525.713 23.13 525.353 22.91C524.993 22.69 524.708 22.385 524.498 21.995C524.298 21.605 524.198 21.165 524.198 20.675C524.198 20.175 524.298 19.735 524.498 19.355C524.698 18.975 524.978 18.675 525.338 18.455C525.708 18.235 526.128 18.125 526.598 18.125C527.068 18.125 527.483 18.235 527.843 18.455C528.203 18.675 528.483 18.975 528.683 19.355C528.893 19.735 528.998 20.175 528.998 20.675C528.998 21.165 528.893 21.605 528.683 21.995C528.483 22.385 528.203 22.69 527.843 22.91C527.483 23.13 527.068 23.24 526.598 23.24ZM526.598 22.055C526.928 22.055 527.198 21.925 527.408 21.665C527.618 21.405 527.723 21.075 527.723 20.675C527.723 20.285 527.618 19.96 527.408 19.7C527.198 19.43 526.928 19.295 526.598 19.295C526.268 19.295 525.993 19.43 525.773 19.7C525.563 19.96 525.458 20.285 525.458 20.675C525.458 21.075 525.563 21.405 525.773 21.665C525.993 21.925 526.268 22.055 526.598 22.055ZM520.658 17.375C520.198 17.375 519.783 17.265 519.413 17.045C519.053 16.825 518.773 16.52 518.573 16.13C518.373 15.74 518.273 15.3 518.273 14.81C518.273 14.31 518.373 13.87 518.573 13.49C518.773 13.11 519.053 12.81 519.413 12.59C519.783 12.37 520.203 12.26 520.673 12.26C521.143 12.26 521.558 12.37 521.918 12.59C522.278 12.81 522.558 13.11 522.758 13.49C522.958 13.87 523.058 14.31 523.058 14.81C523.058 15.3 522.958 15.74 522.758 16.13C522.558 16.52 522.273 16.825 521.903 17.045C521.543 17.265 521.128 17.375 520.658 17.375ZM520.658 16.19C520.998 16.19 521.273 16.06 521.483 15.8C521.693 15.54 521.798 15.21 521.798 14.81C521.798 14.42 521.693 14.095 521.483 13.835C521.273 13.575 520.998 13.445 520.658 13.445C520.328 13.445 520.058 13.575 519.848 13.835C519.638 14.095 519.533 14.42 519.533 14.81C519.533 15.21 519.638 15.54 519.848 15.8C520.058 16.06 520.328 16.19 520.658 16.19Z" fill="white"/>
<rect width="499" height="35" rx="6" fill="#4ABDE8"/>
<path d="M405.505 22.445L403.81 21.665C403.81 21.355 403.89 21.035 404.05 20.705C404.21 20.365 404.435 20.025 404.725 19.685C405.025 19.345 405.375 19.025 405.775 18.725L407.605 17.405C407.835 17.245 408.045 17.06 408.235 16.85C408.435 16.64 408.595 16.42 408.715 16.19C408.835 15.95 408.895 15.715 408.895 15.485C408.895 15.195 408.82 14.93 408.67 14.69C408.53 14.45 408.325 14.26 408.055 14.12C407.795 13.98 407.475 13.91 407.095 13.91C406.755 13.91 406.45 13.98 406.18 14.12C405.92 14.25 405.705 14.425 405.535 14.645C405.365 14.865 405.245 15.105 405.175 15.365L403.39 15.035C403.49 14.555 403.7 14.11 404.02 13.7C404.35 13.28 404.77 12.945 405.28 12.695C405.8 12.445 406.39 12.32 407.05 12.32C407.79 12.32 408.43 12.455 408.97 12.725C409.52 12.995 409.94 13.37 410.23 13.85C410.53 14.32 410.68 14.86 410.68 15.47C410.68 16.09 410.51 16.65 410.17 17.15C409.84 17.64 409.375 18.11 408.775 18.56L407.095 19.805C406.815 20.005 406.55 20.235 406.3 20.495C406.06 20.745 405.865 21.03 405.715 21.35C405.575 21.67 405.505 22.035 405.505 22.445ZM403.81 23V21.665L405.1 21.455H410.815V23H403.81ZM415.949 23.18C415.489 23.18 415.019 23.11 414.539 22.97C414.069 22.82 413.634 22.6 413.234 22.31C412.834 22.01 412.529 21.635 412.319 21.185L413.864 20.615C414.124 20.985 414.429 21.255 414.779 21.425C415.129 21.585 415.489 21.665 415.859 21.665C416.449 21.665 416.929 21.49 417.299 21.14C417.669 20.78 417.854 20.305 417.854 19.715C417.854 19.145 417.674 18.675 417.314 18.305C416.954 17.935 416.484 17.75 415.904 17.75C415.564 17.75 415.244 17.825 414.944 17.975C414.654 18.125 414.429 18.305 414.269 18.515L412.694 18.17L413.279 12.5H419.084V14.075H413.489L413.279 12.56H415.004L414.284 18.305L413.219 18.17C413.339 17.97 413.494 17.77 413.684 17.57C413.884 17.36 414.124 17.165 414.404 16.985C414.684 16.805 414.994 16.66 415.334 16.55C415.674 16.44 416.044 16.39 416.444 16.4C417.044 16.4 417.584 16.54 418.064 16.82C418.544 17.1 418.924 17.485 419.204 17.975C419.484 18.455 419.624 19.01 419.624 19.64C419.624 20.34 419.464 20.955 419.144 21.485C418.834 22.015 418.404 22.43 417.854 22.73C417.304 23.03 416.669 23.18 415.949 23.18ZM421.636 23L429.091 12.5H430.831L423.331 23H421.636ZM429.226 23.24C428.756 23.24 428.341 23.13 427.981 22.91C427.621 22.69 427.336 22.385 427.126 21.995C426.926 21.605 426.826 21.165 426.826 20.675C426.826 20.175 426.926 19.735 427.126 19.355C427.326 18.975 427.606 18.675 427.966 18.455C428.336 18.235 428.756 18.125 429.226 18.125C429.696 18.125 430.111 18.235 430.471 18.455C430.831 18.675 431.111 18.975 431.311 19.355C431.521 19.735 431.626 20.175 431.626 20.675C431.626 21.165 431.521 21.605 431.311 21.995C431.111 22.385 430.831 22.69 430.471 22.91C430.111 23.13 429.696 23.24 429.226 23.24ZM429.226 22.055C429.556 22.055 429.826 21.925 430.036 21.665C430.246 21.405 430.351 21.075 430.351 20.675C430.351 20.285 430.246 19.96 430.036 19.7C429.826 19.43 429.556 19.295 429.226 19.295C428.896 19.295 428.621 19.43 428.401 19.7C428.191 19.96 428.086 20.285 428.086 20.675C428.086 21.075 428.191 21.405 428.401 21.665C428.621 21.925 428.896 22.055 429.226 22.055ZM423.286 17.375C422.826 17.375 422.411 17.265 422.041 17.045C421.681 16.825 421.401 16.52 421.201 16.13C421.001 15.74 420.901 15.3 420.901 14.81C420.901 14.31 421.001 13.87 421.201 13.49C421.401 13.11 421.681 12.81 422.041 12.59C422.411 12.37 422.831 12.26 423.301 12.26C423.771 12.26 424.186 12.37 424.546 12.59C424.906 12.81 425.186 13.11 425.386 13.49C425.586 13.87 425.686 14.31 425.686 14.81C425.686 15.3 425.586 15.74 425.386 16.13C425.186 16.52 424.901 16.825 424.531 17.045C424.171 17.265 423.756 17.375 423.286 17.375ZM423.286 16.19C423.626 16.19 423.901 16.06 424.111 15.8C424.321 15.54 424.426 15.21 424.426 14.81C424.426 14.42 424.321 14.095 424.111 13.835C423.901 13.575 423.626 13.445 423.286 13.445C422.956 13.445 422.686 13.575 422.476 13.835C422.266 14.095 422.161 14.42 422.161 14.81C422.161 15.21 422.266 15.54 422.476 15.8C422.686 16.06 422.956 16.19 423.286 16.19Z" fill="white"/>
<rect width="343" height="35" rx="6" fill="#5655D7"/>
<path d="M157.38 23.18C156.92 23.18 156.45 23.11 155.97 22.97C155.5 22.82 155.065 22.6 154.665 22.31C154.265 22.01 153.96 21.635 153.75 21.185L155.295 20.615C155.555 20.985 155.86 21.255 156.21 21.425C156.56 21.585 156.92 21.665 157.29 21.665C157.88 21.665 158.36 21.49 158.73 21.14C159.1 20.78 159.285 20.305 159.285 19.715C159.285 19.145 159.105 18.675 158.745 18.305C158.385 17.935 157.915 17.75 157.335 17.75C156.995 17.75 156.675 17.825 156.375 17.975C156.085 18.125 155.86 18.305 155.7 18.515L154.125 18.17L154.71 12.5H160.515V14.075H154.92L154.71 12.56H156.435L155.715 18.305L154.65 18.17C154.77 17.97 154.925 17.77 155.115 17.57C155.315 17.36 155.555 17.165 155.835 16.985C156.115 16.805 156.425 16.66 156.765 16.55C157.105 16.44 157.475 16.39 157.875 16.4C158.475 16.4 159.015 16.54 159.495 16.82C159.975 17.1 160.355 17.485 160.635 17.975C160.915 18.455 161.055 19.01 161.055 19.64C161.055 20.34 160.895 20.955 160.575 21.485C160.265 22.015 159.835 22.43 159.285 22.73C158.735 23.03 158.1 23.18 157.38 23.18ZM166.502 23.18C165.682 23.18 164.952 22.95 164.312 22.49C163.672 22.02 163.167 21.38 162.797 20.57C162.437 19.75 162.257 18.81 162.257 17.75C162.257 16.69 162.437 15.755 162.797 14.945C163.167 14.125 163.667 13.485 164.297 13.025C164.937 12.555 165.672 12.32 166.502 12.32C167.332 12.32 168.067 12.555 168.707 13.025C169.347 13.485 169.847 14.125 170.207 14.945C170.577 15.755 170.762 16.69 170.762 17.75C170.762 18.81 170.577 19.75 170.207 20.57C169.847 21.38 169.347 22.02 168.707 22.49C168.077 22.95 167.342 23.18 166.502 23.18ZM166.517 21.605C167.007 21.605 167.442 21.44 167.822 21.11C168.212 20.78 168.512 20.325 168.722 19.745C168.942 19.165 169.052 18.5 169.052 17.75C169.052 17 168.942 16.335 168.722 15.755C168.512 15.165 168.212 14.705 167.822 14.375C167.442 14.045 167.002 13.88 166.502 13.88C166.002 13.88 165.562 14.045 165.182 14.375C164.802 14.705 164.502 15.16 164.282 15.74C164.072 16.32 163.967 16.99 163.967 17.75C163.967 18.5 164.072 19.165 164.282 19.745C164.502 20.325 164.802 20.78 165.182 21.11C165.572 21.44 166.017 21.605 166.517 21.605ZM172.735 23L180.19 12.5H181.93L174.43 23H172.735ZM180.325 23.24C179.855 23.24 179.44 23.13 179.08 22.91C178.72 22.69 178.435 22.385 178.225 21.995C178.025 21.605 177.925 21.165 177.925 20.675C177.925 20.175 178.025 19.735 178.225 19.355C178.425 18.975 178.705 18.675 179.065 18.455C179.435 18.235 179.855 18.125 180.325 18.125C180.795 18.125 181.21 18.235 181.57 18.455C181.93 18.675 182.21 18.975 182.41 19.355C182.62 19.735 182.725 20.175 182.725 20.675C182.725 21.165 182.62 21.605 182.41 21.995C182.21 22.385 181.93 22.69 181.57 22.91C181.21 23.13 180.795 23.24 180.325 23.24ZM180.325 22.055C180.655 22.055 180.925 21.925 181.135 21.665C181.345 21.405 181.45 21.075 181.45 20.675C181.45 20.285 181.345 19.96 181.135 19.7C180.925 19.43 180.655 19.295 180.325 19.295C179.995 19.295 179.72 19.43 179.5 19.7C179.29 19.96 179.185 20.285 179.185 20.675C179.185 21.075 179.29 21.405 179.5 21.665C179.72 21.925 179.995 22.055 180.325 22.055ZM174.385 17.375C173.925 17.375 173.51 17.265 173.14 17.045C172.78 16.825 172.5 16.52 172.3 16.13C172.1 15.74 172 15.3 172 14.81C172 14.31 172.1 13.87 172.3 13.49C172.5 13.11 172.78 12.81 173.14 12.59C173.51 12.37 173.93 12.26 174.4 12.26C174.87 12.26 175.285 12.37 175.645 12.59C176.005 12.81 176.285 13.11 176.485 13.49C176.685 13.87 176.785 14.31 176.785 14.81C176.785 15.3 176.685 15.74 176.485 16.13C176.285 16.52 176 16.825 175.63 17.045C175.27 17.265 174.855 17.375 174.385 17.375ZM174.385 16.19C174.725 16.19 175 16.06 175.21 15.8C175.42 15.54 175.525 15.21 175.525 14.81C175.525 14.42 175.42 14.095 175.21 13.835C175 13.575 174.725 13.445 174.385 13.445C174.055 13.445 173.785 13.575 173.575 13.835C173.365 14.095 173.26 14.42 173.26 14.81C173.26 15.21 173.365 15.54 173.575 15.8C173.785 16.06 174.055 16.19 174.385 16.19Z" fill="white"/>
</svg>
