<svg width="40" height="40" viewBox="0 0 40 40" fill="none" xmlns="http://www.w3.org/2000/svg">
<rect width="40" height="40" rx="20" fill="white"/>
<path d="M27.5 11H25.25V10.25C25.25 10.0511 25.171 9.86032 25.0303 9.71967C24.8897 9.57902 24.6989 9.5 24.5 9.5C24.3011 9.5 24.1103 9.57902 23.9697 9.71967C23.829 9.86032 23.75 10.0511 23.75 10.25V11H16.25V10.25C16.25 10.0511 16.171 9.86032 16.0303 9.71967C15.8897 9.57902 15.6989 9.5 15.5 9.5C15.3011 9.5 15.1103 9.57902 14.9697 9.71967C14.829 9.86032 14.75 10.0511 14.75 10.25V11H12.5C12.1022 11 11.7206 11.158 11.4393 11.4393C11.158 11.7206 11 12.1022 11 12.5V27.5C11 27.8978 11.158 28.2794 11.4393 28.5607C11.7206 28.842 12.1022 29 12.5 29H27.5C27.8978 29 28.2794 28.842 28.5607 28.5607C28.842 28.2794 29 27.8978 29 27.5V12.5C29 12.1022 28.842 11.7206 28.5607 11.4393C28.2794 11.158 27.8978 11 27.5 11ZM14.75 12.5V13.25C14.75 13.4489 14.829 13.6397 14.9697 13.7803C15.1103 13.921 15.3011 14 15.5 14C15.6989 14 15.8897 13.921 16.0303 13.7803C16.171 13.6397 16.25 13.4489 16.25 13.25V12.5H23.75V13.25C23.75 13.4489 23.829 13.6397 23.9697 13.7803C24.1103 13.921 24.3011 14 24.5 14C24.6989 14 24.8897 13.921 25.0303 13.7803C25.171 13.6397 25.25 13.4489 25.25 13.25V12.5H27.5V15.5H12.5V12.5H14.75ZM27.5 27.5H12.5V17H27.5V27.5ZM22.7806 20.5306L21.0603 22.25L22.7806 23.9694C22.8503 24.0391 22.9056 24.1218 22.9433 24.2128C22.981 24.3039 23.0004 24.4015 23.0004 24.5C23.0004 24.5985 22.981 24.6961 22.9433 24.7872C22.9056 24.8782 22.8503 24.9609 22.7806 25.0306C22.7109 25.1003 22.6282 25.1556 22.5372 25.1933C22.4461 25.231 22.3485 25.2504 22.25 25.2504C22.1515 25.2504 22.0539 25.231 21.9628 25.1933C21.8718 25.1556 21.7891 25.1003 21.7194 25.0306L20 23.3103L18.2806 25.0306C18.2109 25.1003 18.1282 25.1556 18.0372 25.1933C17.9461 25.231 17.8485 25.2504 17.75 25.2504C17.6515 25.2504 17.5539 25.231 17.4628 25.1933C17.3718 25.1556 17.2891 25.1003 17.2194 25.0306C17.1497 24.9609 17.0944 24.8782 17.0567 24.7872C17.019 24.6961 16.9996 24.5985 16.9996 24.5C16.9996 24.4015 17.019 24.3039 17.0567 24.2128C17.0944 24.1218 17.1497 24.0391 17.2194 23.9694L18.9397 22.25L17.2194 20.5306C17.0786 20.3899 16.9996 20.199 16.9996 20C16.9996 19.801 17.0786 19.6101 17.2194 19.4694C17.3601 19.3286 17.551 19.2496 17.75 19.2496C17.949 19.2496 18.1399 19.3286 18.2806 19.4694L20 21.1897L21.7194 19.4694C21.7891 19.3997 21.8718 19.3444 21.9628 19.3067C22.0539 19.269 22.1515 19.2496 22.25 19.2496C22.3485 19.2496 22.4461 19.269 22.5372 19.3067C22.6282 19.3444 22.7109 19.3997 22.7806 19.4694C22.8503 19.5391 22.9056 19.6218 22.9433 19.7128C22.981 19.8039 23.0004 19.9015 23.0004 20C23.0004 20.0985 22.981 20.1961 22.9433 20.2872C22.9056 20.3782 22.8503 20.4609 22.7806 20.5306Z" fill="#FF414B"/>
</svg>
