<svg width="40" height="40" viewBox="0 0 40 40" fill="none" xmlns="http://www.w3.org/2000/svg">
<rect width="40" height="40" rx="20" fill="white"/>
<path d="M27.5 11H25.25V10.25C25.25 10.0511 25.171 9.86032 25.0303 9.71967C24.8897 9.57902 24.6989 9.5 24.5 9.5C24.3011 9.5 24.1103 9.57902 23.9697 9.71967C23.829 9.86032 23.75 10.0511 23.75 10.25V11H16.25V10.25C16.25 10.0511 16.171 9.86032 16.0303 9.71967C15.8897 9.57902 15.6989 9.5 15.5 9.5C15.3011 9.5 15.1103 9.57902 14.9697 9.71967C14.829 9.86032 14.75 10.0511 14.75 10.25V11H12.5C12.1022 11 11.7206 11.158 11.4393 11.4393C11.158 11.7206 11 12.1022 11 12.5V27.5C11 27.8978 11.158 28.2794 11.4393 28.5607C11.7206 28.842 12.1022 29 12.5 29H27.5C27.8978 29 28.2794 28.842 28.5607 28.5607C28.842 28.2794 29 27.8978 29 27.5V12.5C29 12.1022 28.842 11.7206 28.5607 11.4393C28.2794 11.158 27.8978 11 27.5 11ZM14.75 12.5V13.25C14.75 13.4489 14.829 13.6397 14.9697 13.7803C15.1103 13.921 15.3011 14 15.5 14C15.6989 14 15.8897 13.921 16.0303 13.7803C16.171 13.6397 16.25 13.4489 16.25 13.25V12.5H23.75V13.25C23.75 13.4489 23.829 13.6397 23.9697 13.7803C24.1103 13.921 24.3011 14 24.5 14C24.6989 14 24.8897 13.921 25.0303 13.7803C25.171 13.6397 25.25 13.4489 25.25 13.25V12.5H27.5V15.5H12.5V12.5H14.75ZM27.5 27.5H12.5V17H27.5V27.5ZM23.9056 19.4694C23.9754 19.539 24.0307 19.6217 24.0684 19.7128C24.1062 19.8038 24.1256 19.9014 24.1256 20C24.1256 20.0986 24.1062 20.1962 24.0684 20.2872C24.0307 20.3783 23.9754 20.461 23.9056 20.5306L19.4056 25.0306C19.336 25.1004 19.2533 25.1557 19.1622 25.1934C19.0712 25.2312 18.9736 25.2506 18.875 25.2506C18.7764 25.2506 18.6788 25.2312 18.5878 25.1934C18.4967 25.1557 18.414 25.1004 18.3444 25.0306L16.0944 22.7806C15.9536 22.6399 15.8746 22.449 15.8746 22.25C15.8746 22.051 15.9536 21.8601 16.0944 21.7194C16.2351 21.5786 16.426 21.4996 16.625 21.4996C16.824 21.4996 17.0149 21.5786 17.1556 21.7194L18.875 23.4397L22.8444 19.4694C22.914 19.3996 22.9967 19.3443 23.0878 19.3066C23.1788 19.2688 23.2764 19.2494 23.375 19.2494C23.4736 19.2494 23.5712 19.2688 23.6622 19.3066C23.7533 19.3443 23.836 19.3996 23.9056 19.4694Z" fill="#00997E"/>
</svg>
