<svg width="13" height="9" viewBox="0 0 13 9" fill="none" xmlns="http://www.w3.org/2000/svg">
<path d="M12.1877 1.34375V4.59375C12.1877 4.70149 12.1449 4.80483 12.0687 4.88101C11.9926 4.9572 11.8892 5 11.7815 5C11.6737 5 11.5704 4.9572 11.4942 4.88101C11.418 4.80483 11.3752 4.70149 11.3752 4.59375V2.32434L7.1939 6.50617C7.15617 6.54394 7.11136 6.57391 7.06205 6.59435C7.01273 6.6148 6.95986 6.62532 6.90648 6.62532C6.85309 6.62532 6.80022 6.6148 6.75091 6.59435C6.70159 6.57391 6.65678 6.54394 6.61905 6.50617L4.87523 4.76184L1.5064 8.13117C1.43017 8.2074 1.32678 8.25023 1.21898 8.25023C1.11117 8.25023 1.00778 8.2074 0.931554 8.13117C0.855325 8.05494 0.8125 7.95155 0.8125 7.84375C0.8125 7.73595 0.855325 7.63256 0.931554 7.55633L4.5878 3.90008C4.62553 3.86231 4.67034 3.83234 4.71966 3.8119C4.76897 3.79145 4.82184 3.78093 4.87523 3.78093C4.92861 3.78093 4.98148 3.79145 5.0308 3.8119C5.08011 3.83234 5.12492 3.86231 5.16265 3.90008L6.90648 5.64441L10.8009 1.75H8.53148C8.42373 1.75 8.3204 1.7072 8.24421 1.63101C8.16803 1.55483 8.12523 1.45149 8.12523 1.34375C8.12523 1.23601 8.16803 1.13267 8.24421 1.05649C8.3204 0.980301 8.42373 0.9375 8.53148 0.9375H11.7815C11.8892 0.9375 11.9926 0.980301 12.0687 1.05649C12.1449 1.13267 12.1877 1.23601 12.1877 1.34375Z" fill="#5655D7"/>
</svg>
