<svg width="13" height="9" viewBox="0 0 13 9" fill="none" xmlns="http://www.w3.org/2000/svg">
<path d="M12.1877 4.40623V7.65623C12.1877 7.76398 12.1449 7.86731 12.0687 7.9435C11.9926 8.01968 11.8892 8.06248 11.7815 8.06248H8.53148C8.42373 8.06248 8.3204 8.01968 8.24421 7.9435C8.16803 7.86731 8.12523 7.76398 8.12523 7.65623C8.12523 7.54849 8.16803 7.44516 8.24421 7.36897C8.3204 7.29278 8.42373 7.24998 8.53148 7.24998H10.8009L6.90648 3.35557L5.16265 5.0999C5.12492 5.13768 5.08011 5.16764 5.0308 5.18808C4.98148 5.20853 4.92861 5.21905 4.87523 5.21905C4.82184 5.21905 4.76897 5.20853 4.71966 5.18808C4.67034 5.16764 4.62553 5.13768 4.5878 5.0999L0.931554 1.44365C0.855325 1.36742 0.8125 1.26404 0.8125 1.15623C0.8125 1.04843 0.855325 0.945039 0.931554 0.86881C1.00778 0.792581 1.11117 0.749756 1.21898 0.749756C1.32678 0.749756 1.43017 0.792581 1.5064 0.86881L4.87523 4.23815L6.61905 2.49381C6.65678 2.45604 6.70159 2.42607 6.75091 2.40563C6.80022 2.38519 6.85309 2.37466 6.90648 2.37466C6.95986 2.37466 7.01273 2.38519 7.06205 2.40563C7.11136 2.42607 7.15617 2.45604 7.1939 2.49381L11.3752 6.67565V4.40623C11.3752 4.29849 11.418 4.19516 11.4942 4.11897C11.5704 4.04278 11.6737 3.99998 11.7815 3.99998C11.8892 3.99998 11.9926 4.04278 12.0687 4.11897C12.1449 4.19516 12.1877 4.29849 12.1877 4.40623Z" fill="#FFAE41"/>
</svg>
