<svg width="12" height="7" viewBox="0 0 12 7" fill="none" xmlns="http://www.w3.org/2000/svg">
<path d="M11.3535 1.3113L6.35354 6.3113C6.3071 6.35779 6.25196 6.39467 6.19126 6.41983C6.13056 6.445 6.0655 6.45795 5.99979 6.45795C5.93408 6.45795 5.86902 6.445 5.80832 6.41983C5.74762 6.39467 5.69248 6.35779 5.64604 6.3113L0.64604 1.3113C0.552219 1.21748 0.499512 1.09024 0.499512 0.957553C0.499512 0.824871 0.552219 0.697623 0.64604 0.603803C0.73986 0.509983 0.867108 0.457275 0.99979 0.457275C1.13247 0.457275 1.25972 0.509983 1.35354 0.603803L5.99979 5.25068L10.646 0.603803C10.6925 0.557348 10.7476 0.520498 10.8083 0.495357C10.869 0.470215 10.9341 0.457275 10.9998 0.457275C11.0655 0.457275 11.1305 0.470215 11.1912 0.495357C11.2519 0.520498 11.3071 0.557348 11.3535 0.603803C11.4 0.650258 11.4368 0.705409 11.462 0.766105C11.4871 0.826802 11.5001 0.891856 11.5001 0.957553C11.5001 1.02325 11.4871 1.08831 11.462 1.149C11.4368 1.2097 11.4 1.26485 11.3535 1.3113Z" fill="#5655D7"/>
<path d="M11.3535 1.3113L6.35354 6.3113C6.3071 6.35779 6.25196 6.39467 6.19126 6.41983C6.13056 6.445 6.0655 6.45795 5.99979 6.45795C5.93408 6.45795 5.86902 6.445 5.80832 6.41983C5.74762 6.39467 5.69248 6.35779 5.64604 6.3113L0.64604 1.3113C0.552219 1.21748 0.499512 1.09024 0.499512 0.957553C0.499512 0.824871 0.552219 0.697623 0.64604 0.603803C0.73986 0.509983 0.867108 0.457275 0.99979 0.457275C1.13247 0.457275 1.25972 0.509983 1.35354 0.603803L5.99979 5.25068L10.646 0.603803C10.6925 0.557348 10.7476 0.520498 10.8083 0.495357C10.869 0.470215 10.9341 0.457275 10.9998 0.457275C11.0655 0.457275 11.1305 0.470215 11.1912 0.495357C11.2519 0.520498 11.3071 0.557348 11.3535 0.603803C11.4 0.650258 11.4368 0.705409 11.462 0.766105C11.4871 0.826802 11.5001 0.891856 11.5001 0.957553C11.5001 1.02325 11.4871 1.08831 11.462 1.149C11.4368 1.2097 11.4 1.26485 11.3535 1.3113Z" fill="white" fill-opacity="0.8"/>
</svg>
