<svg width="16" height="17" viewBox="0 0 16 17" fill="none" xmlns="http://www.w3.org/2000/svg">
<path d="M6.35354 3.60373L11.3535 8.60374C11.4 8.65017 11.4369 8.70532 11.4621 8.76602C11.4872 8.82671 11.5002 8.89178 11.5002 8.95749C11.5002 9.02319 11.4872 9.08826 11.4621 9.14896C11.4369 9.20965 11.4 9.2648 11.3535 9.31124L6.35354 14.3112C6.25972 14.4051 6.13247 14.4578 5.99979 14.4578C5.86711 14.4578 5.73986 14.4051 5.64604 14.3112C5.55222 14.2174 5.49951 14.0902 5.49951 13.9575C5.49951 13.8248 5.55222 13.6976 5.64604 13.6037L10.2929 8.95749L5.64604 4.31124C5.59958 4.26478 5.56273 4.20963 5.53759 4.14893C5.51245 4.08824 5.49951 4.02318 5.49951 3.95749C5.49951 3.89179 5.51245 3.82673 5.53759 3.76604C5.56273 3.70534 5.59958 3.65019 5.64604 3.60373C5.69249 3.55728 5.74764 3.52043 5.80834 3.49529C5.86904 3.47015 5.93409 3.45721 5.99979 3.45721C6.06549 3.45721 6.13054 3.47015 6.19124 3.49529C6.25193 3.52043 6.30708 3.55728 6.35354 3.60373Z" fill="#4D5154"/>
</svg>
