<svg width="24" height="25" viewBox="0 0 24 25" fill="none" xmlns="http://www.w3.org/2000/svg">
<path d="M12.75 12.2075V21.2075C12.75 21.4064 12.671 21.5972 12.5303 21.7379C12.3897 21.8785 12.1989 21.9575 12 21.9575C11.8011 21.9575 11.6103 21.8785 11.4697 21.7379C11.329 21.5972 11.25 21.4064 11.25 21.2075V12.2075C11.25 12.0086 11.329 11.8178 11.4697 11.6772C11.6103 11.5365 11.8011 11.4575 12 11.4575C12.1989 11.4575 12.3897 11.5365 12.5303 11.6772C12.671 11.8178 12.75 12.0086 12.75 12.2075ZM18.75 18.9575C18.5511 18.9575 18.3603 19.0365 18.2197 19.1772C18.079 19.3178 18 19.5086 18 19.7075V21.2075C18 21.4064 18.079 21.5972 18.2197 21.7379C18.3603 21.8785 18.5511 21.9575 18.75 21.9575C18.9489 21.9575 19.1397 21.8785 19.2803 21.7379C19.421 21.5972 19.5 21.4064 19.5 21.2075V19.7075C19.5 19.5086 19.421 19.3178 19.2803 19.1772C19.1397 19.0365 18.9489 18.9575 18.75 18.9575ZM21 15.9575H19.5V4.70752C19.5 4.50861 19.421 4.31784 19.2803 4.17719C19.1397 4.03654 18.9489 3.95752 18.75 3.95752C18.5511 3.95752 18.3603 4.03654 18.2197 4.17719C18.079 4.31784 18 4.50861 18 4.70752V15.9575H16.5C16.3011 15.9575 16.1103 16.0365 15.9697 16.1772C15.829 16.3178 15.75 16.5086 15.75 16.7075C15.75 16.9064 15.829 17.0972 15.9697 17.2379C16.1103 17.3785 16.3011 17.4575 16.5 17.4575H21C21.1989 17.4575 21.3897 17.3785 21.5303 17.2379C21.671 17.0972 21.75 16.9064 21.75 16.7075C21.75 16.5086 21.671 16.3178 21.5303 16.1772C21.3897 16.0365 21.1989 15.9575 21 15.9575ZM5.25 15.9575C5.05109 15.9575 4.86032 16.0365 4.71967 16.1772C4.57902 16.3178 4.5 16.5086 4.5 16.7075V21.2075C4.5 21.4064 4.57902 21.5972 4.71967 21.7379C4.86032 21.8785 5.05109 21.9575 5.25 21.9575C5.44891 21.9575 5.63968 21.8785 5.78033 21.7379C5.92098 21.5972 6 21.4064 6 21.2075V16.7075C6 16.5086 5.92098 16.3178 5.78033 16.1772C5.63968 16.0365 5.44891 15.9575 5.25 15.9575ZM7.5 12.9575H6V4.70752C6 4.50861 5.92098 4.31784 5.78033 4.17719C5.63968 4.03654 5.44891 3.95752 5.25 3.95752C5.05109 3.95752 4.86032 4.03654 4.71967 4.17719C4.57902 4.31784 4.5 4.50861 4.5 4.70752V12.9575H3C2.80109 12.9575 2.61032 13.0365 2.46967 13.1772C2.32902 13.3178 2.25 13.5086 2.25 13.7075C2.25 13.9064 2.32902 14.0972 2.46967 14.2379C2.61032 14.3785 2.80109 14.4575 3 14.4575H7.5C7.69891 14.4575 7.88968 14.3785 8.03033 14.2379C8.17098 14.0972 8.25 13.9064 8.25 13.7075C8.25 13.5086 8.17098 13.3178 8.03033 13.1772C7.88968 13.0365 7.69891 12.9575 7.5 12.9575ZM14.25 8.45752H12.75V4.70752C12.75 4.50861 12.671 4.31784 12.5303 4.17719C12.3897 4.03654 12.1989 3.95752 12 3.95752C11.8011 3.95752 11.6103 4.03654 11.4697 4.17719C11.329 4.31784 11.25 4.50861 11.25 4.70752V8.45752H9.75C9.55109 8.45752 9.36032 8.53654 9.21967 8.67719C9.07902 8.81784 9 9.00861 9 9.20752C9 9.40643 9.07902 9.5972 9.21967 9.73785C9.36032 9.8785 9.55109 9.95752 9.75 9.95752H14.25C14.4489 9.95752 14.6397 9.8785 14.7803 9.73785C14.921 9.5972 15 9.40643 15 9.20752C15 9.00861 14.921 8.81784 14.7803 8.67719C14.6397 8.53654 14.4489 8.45752 14.25 8.45752Z" fill="#4D5154"/>
</svg>
