<svg width="24" height="25" viewBox="0 0 24 25" fill="none" xmlns="http://www.w3.org/2000/svg">
<path d="M12 8.45752C11.11 8.45752 10.24 8.72144 9.49998 9.2159C8.75996 9.71037 8.18318 10.4132 7.84259 11.2354C7.50199 12.0577 7.41288 12.9625 7.58651 13.8354C7.76014 14.7083 8.18873 15.5102 8.81806 16.1395C9.4474 16.7688 10.2492 17.1974 11.1221 17.3711C11.9951 17.5447 12.8999 17.4556 13.7221 17.115C14.5444 16.7744 15.2472 16.1976 15.7417 15.4576C16.2361 14.7176 16.5 13.8475 16.5 12.9575C16.4988 11.7644 16.0243 10.6206 15.1807 9.77691C14.337 8.93326 13.1931 8.45876 12 8.45752ZM12 15.9575C11.4067 15.9575 10.8267 15.7816 10.3333 15.4519C9.83999 15.1223 9.45547 14.6537 9.2284 14.1056C9.00134 13.5574 8.94193 12.9542 9.05769 12.3722C9.17344 11.7903 9.45917 11.2558 9.87872 10.8362C10.2983 10.4166 10.8328 10.1309 11.4148 10.0152C11.9967 9.89941 12.5999 9.95882 13.1481 10.1859C13.6963 10.4129 14.1648 10.7975 14.4945 11.2908C14.8241 11.7842 15 12.3642 15 12.9575C15 13.7532 14.684 14.5162 14.1214 15.0788C13.5588 15.6414 12.7957 15.9575 12 15.9575ZM20.25 13.16C20.2538 13.025 20.2538 12.89 20.25 12.755L21.6488 11.0075C21.7221 10.9158 21.7729 10.8081 21.797 10.6931C21.8211 10.5781 21.8179 10.4591 21.7875 10.3456C21.5582 9.48371 21.2152 8.65613 20.7675 7.8847C20.7089 7.78375 20.6276 7.69788 20.5299 7.63391C20.4322 7.56995 20.321 7.52967 20.205 7.51627L17.9813 7.26877C17.8888 7.17127 17.795 7.07752 17.7 6.98752L17.4375 4.75814C17.424 4.64209 17.3836 4.5308 17.3195 4.43314C17.2554 4.33548 17.1693 4.25415 17.0682 4.19564C16.2965 3.74878 15.4689 3.40611 14.6072 3.17658C14.4937 3.14639 14.3746 3.1433 14.2597 3.16756C14.1447 3.19183 14.037 3.24276 13.9454 3.31627L12.2025 4.70752C12.0675 4.70752 11.9325 4.70752 11.7975 4.70752L10.05 3.31158C9.95829 3.23824 9.8506 3.18747 9.73563 3.16337C9.62067 3.13927 9.50165 3.14251 9.38817 3.17283C8.52637 3.40254 7.69884 3.74553 6.92723 4.19283C6.82628 4.25145 6.7404 4.33282 6.67644 4.43047C6.61248 4.52813 6.57219 4.63936 6.55879 4.75533L6.31129 6.98283C6.21379 7.07595 6.12004 7.1697 6.03004 7.26408L3.80067 7.52002C3.68462 7.53352 3.57333 7.57395 3.47567 7.63808C3.37801 7.70221 3.29668 7.78827 3.23817 7.88939C2.79131 8.66111 2.44864 9.48862 2.21911 10.3503C2.18891 10.4639 2.18583 10.5829 2.21009 10.6979C2.23435 10.8129 2.28529 10.9205 2.35879 11.0122L3.75004 12.755C3.75004 12.89 3.75004 13.025 3.75004 13.16L2.35411 14.9075C2.28076 14.9993 2.23 15.107 2.2059 15.2219C2.1818 15.3369 2.18504 15.4559 2.21536 15.5694C2.44466 16.4313 2.78767 17.2589 3.23536 18.0303C3.29397 18.1313 3.37535 18.2172 3.473 18.2811C3.57065 18.3451 3.68189 18.3854 3.79786 18.3988L6.02161 18.6463C6.11473 18.7438 6.20848 18.8375 6.30286 18.9275L6.56254 21.1569C6.57605 21.2729 6.61647 21.3842 6.6806 21.4819C6.74473 21.5796 6.83079 21.6609 6.93192 21.7194C7.70363 22.1663 8.53114 22.5089 9.39286 22.7385C9.50641 22.7686 9.62547 22.7717 9.74044 22.7475C9.8554 22.7232 9.96306 22.6723 10.0547 22.5988L11.7975 21.2075C11.9325 21.2113 12.0675 21.2113 12.2025 21.2075L13.95 22.6063C14.0418 22.6796 14.1495 22.7304 14.2645 22.7545C14.3794 22.7786 14.4984 22.7753 14.6119 22.745C15.4739 22.5157 16.3014 22.1727 17.0729 21.725C17.1738 21.6664 17.2597 21.585 17.3236 21.4874C17.3876 21.3897 17.4279 21.2785 17.4413 21.1625L17.6888 18.9388C17.7863 18.8463 17.88 18.7525 17.97 18.6575L20.1994 18.395C20.3155 18.3815 20.4268 18.3411 20.5244 18.277C20.6221 18.2128 20.7034 18.1268 20.7619 18.0256C21.2088 17.2539 21.5515 16.4264 21.781 15.5647C21.8112 15.4512 21.8143 15.3321 21.79 15.2171C21.7657 15.1022 21.7148 14.9945 21.6413 14.9028L20.25 13.16ZM18.7407 12.5506C18.7566 12.8217 18.7566 13.0934 18.7407 13.3644C18.7295 13.5499 18.7876 13.733 18.9038 13.8781L20.2341 15.5403C20.0815 16.0255 19.886 16.4961 19.65 16.9466L17.5313 17.1866C17.3468 17.2071 17.1764 17.2952 17.0532 17.4341C16.8727 17.637 16.6805 17.8292 16.4775 18.0097C16.3387 18.133 16.2505 18.3033 16.23 18.4878L15.9947 20.6047C15.5443 20.8408 15.0736 21.0362 14.5885 21.1888L12.9254 19.8585C12.7923 19.7521 12.627 19.6943 12.4566 19.6944H12.4116C12.1406 19.7103 11.8689 19.7103 11.5979 19.6944C11.4123 19.6832 11.2292 19.7414 11.0841 19.8575L9.41723 21.1888C8.93211 21.0361 8.4615 20.8407 8.01098 20.6047L7.77098 18.4888C7.7505 18.3043 7.66231 18.1339 7.52348 18.0106C7.32052 17.8302 7.12832 17.638 6.94786 17.435C6.82461 17.2962 6.65424 17.208 6.46973 17.1875L4.35286 16.9513C4.11679 16.5008 3.92132 16.0302 3.76879 15.545L5.09911 13.8819C5.21527 13.7368 5.2734 13.5537 5.26223 13.3681C5.24629 13.0971 5.24629 12.8254 5.26223 12.5544C5.2734 12.3688 5.21527 12.1858 5.09911 12.0406L3.76879 10.3747C3.92144 9.88958 4.1169 9.41898 4.35286 8.96845L6.46879 8.72845C6.65331 8.70797 6.82367 8.61979 6.94692 8.48095C7.12738 8.27799 7.31958 8.08579 7.52254 7.90533C7.66193 7.782 7.75048 7.61125 7.77098 7.42627L8.00629 5.31033C8.45677 5.07426 8.92738 4.8788 9.41254 4.72627L11.0757 6.05658C11.2208 6.17274 11.4039 6.23087 11.5894 6.2197C11.8604 6.20377 12.1322 6.20377 12.4032 6.2197C12.5887 6.23087 12.7718 6.17274 12.9169 6.05658L14.5829 4.72627C15.068 4.87892 15.5386 5.07437 15.9891 5.31033L16.2291 7.42627C16.2496 7.61078 16.3378 7.78114 16.4766 7.90439C16.6796 8.08485 16.8718 8.27706 17.0522 8.48002C17.1755 8.61885 17.3458 8.70704 17.5304 8.72752L19.6472 8.96283C19.8833 9.4133 20.0788 9.88391 20.2313 10.3691L18.901 12.0322C18.7837 12.1785 18.7255 12.3635 18.7379 12.5506H18.7407Z" fill="#4D5154"/>
</svg>
