<svg width="24" height="25" viewBox="0 0 24 25" fill="none" xmlns="http://www.w3.org/2000/svg">
<path d="M10.9921 15.7625C11.9973 15.0933 12.7605 14.1184 13.1687 12.9819C13.577 11.8455 13.6087 10.6078 13.2591 9.45192C12.9095 8.29605 12.1973 7.28336 11.2276 6.5636C10.258 5.84384 9.0825 5.45523 7.87492 5.45523C6.66735 5.45523 5.49184 5.84384 4.52221 6.5636C3.55258 7.28336 2.84032 8.29605 2.49076 9.45192C2.1412 10.6078 2.17288 11.8455 2.58114 12.9819C2.9894 14.1184 3.75255 15.0933 4.75774 15.7625C2.93945 16.4327 1.38659 17.6728 0.330862 19.2978C0.275377 19.3803 0.236837 19.473 0.217482 19.5705C0.198127 19.6679 0.198344 19.7683 0.218119 19.8657C0.237895 19.9631 0.276835 20.0556 0.332676 20.1379C0.388516 20.2201 0.460144 20.2904 0.543396 20.3447C0.626647 20.399 0.719861 20.4362 0.81762 20.4542C0.915378 20.4721 1.01573 20.4705 1.11285 20.4493C1.20996 20.4281 1.3019 20.3879 1.38332 20.3309C1.46473 20.2738 1.53401 20.2012 1.58711 20.1172C2.2681 19.0698 3.19995 18.2091 4.29802 17.6133C5.3961 17.0175 6.62562 16.7054 7.87492 16.7054C9.12423 16.7054 10.3538 17.0175 11.4518 17.6133C12.5499 18.2091 13.4817 19.0698 14.1627 20.1172C14.2727 20.2807 14.4427 20.3943 14.6358 20.4335C14.8289 20.4727 15.0297 20.4344 15.1947 20.3267C15.3598 20.2191 15.4758 20.0508 15.5178 19.8582C15.5598 19.6657 15.5243 19.4644 15.419 19.2978C14.3633 17.6728 12.8104 16.4327 10.9921 15.7625ZM3.74992 11.0825C3.74992 10.2667 3.99185 9.46914 4.44511 8.79079C4.89837 8.11243 5.54261 7.58372 6.29636 7.27151C7.0501 6.9593 7.8795 6.87761 8.67967 7.03677C9.47984 7.19594 10.2148 7.58881 10.7917 8.1657C11.3686 8.74259 11.7615 9.47759 11.9207 10.2778C12.0798 11.0779 11.9981 11.9073 11.6859 12.6611C11.3737 13.4148 10.845 14.0591 10.1667 14.5123C9.4883 14.9656 8.69077 15.2075 7.87492 15.2075C6.78129 15.2063 5.7328 14.7713 4.95948 13.998C4.18616 13.2246 3.75117 12.1762 3.74992 11.0825ZM23.4506 20.3356C23.284 20.4443 23.081 20.4823 22.8864 20.4413C22.6918 20.4004 22.5214 20.2838 22.4127 20.1172C21.7326 19.0692 20.8008 18.2081 19.7025 17.6126C18.6042 17.017 17.3743 16.7058 16.1249 16.7075C15.926 16.7075 15.7352 16.6285 15.5946 16.4878C15.4539 16.3472 15.3749 16.1564 15.3749 15.9575C15.3749 15.7586 15.4539 15.5678 15.5946 15.4272C15.7352 15.2865 15.926 15.2075 16.1249 15.2075C16.7324 15.2069 17.3322 15.0722 17.8816 14.8129C18.431 14.5537 18.9163 14.1763 19.3029 13.7077C19.6895 13.2391 19.9678 12.6909 20.118 12.1023C20.2682 11.5137 20.2865 10.8992 20.1716 10.3027C20.0568 9.70614 19.8116 9.14235 19.4536 8.65157C19.0956 8.1608 18.6337 7.75515 18.1007 7.46361C17.5678 7.17207 16.977 7.00184 16.3707 6.96507C15.7643 6.92831 15.1573 7.02593 14.5931 7.25095C14.501 7.29072 14.402 7.31165 14.3018 7.3125C14.2016 7.31334 14.1022 7.29409 14.0095 7.25588C13.9169 7.21767 13.8328 7.16128 13.7623 7.09003C13.6918 7.01878 13.6363 6.93413 13.5991 6.84107C13.5619 6.74801 13.5437 6.64843 13.5456 6.54822C13.5475 6.44801 13.5695 6.3492 13.6102 6.25762C13.651 6.16605 13.7097 6.08357 13.7828 6.01507C13.856 5.94656 13.9421 5.89341 14.0362 5.85876C15.3275 5.34375 16.7639 5.32522 18.0681 5.80674C19.3723 6.28826 20.452 7.23572 21.0989 8.46634C21.7458 9.69696 21.914 11.1235 21.5711 12.4709C21.2283 13.8182 20.3986 14.9908 19.2421 15.7625C21.0604 16.4327 22.6133 17.6728 23.669 19.2978C23.7776 19.4644 23.8156 19.6673 23.7747 19.862C23.7337 20.0566 23.6171 20.227 23.4506 20.3356Z" fill="#4D5154"/>
</svg>
