<svg width="24" height="25" viewBox="0 0 24 25" fill="none" xmlns="http://www.w3.org/2000/svg">
<path d="M20.25 7.70752H5.25C5.05109 7.70752 4.86032 7.6285 4.71967 7.48785C4.57902 7.3472 4.5 7.15643 4.5 6.95752C4.5 6.75861 4.57902 6.56784 4.71967 6.42719C4.86032 6.28654 5.05109 6.20752 5.25 6.20752H18C18.1989 6.20752 18.3897 6.1285 18.5303 5.98785C18.671 5.8472 18.75 5.65643 18.75 5.45752C18.75 5.25861 18.671 5.06784 18.5303 4.92719C18.3897 4.78654 18.1989 4.70752 18 4.70752H5.25C4.65326 4.70752 4.08097 4.94457 3.65901 5.36653C3.23705 5.78849 3 6.36078 3 6.95752V18.9575C3 19.5543 3.23705 20.1266 3.65901 20.5485C4.08097 20.9705 4.65326 21.2075 5.25 21.2075H20.25C20.6478 21.2075 21.0294 21.0495 21.3107 20.7682C21.592 20.4869 21.75 20.1053 21.75 19.7075V9.20752C21.75 8.80969 21.592 8.42816 21.3107 8.14686C21.0294 7.86556 20.6478 7.70752 20.25 7.70752ZM20.25 19.7075H5.25C5.05109 19.7075 4.86032 19.6285 4.71967 19.4879C4.57902 19.3472 4.5 19.1564 4.5 18.9575V9.07908C4.74082 9.16445 4.9945 9.20789 5.25 9.20752H20.25V19.7075ZM15.75 14.0825C15.75 13.86 15.816 13.6425 15.9396 13.4575C16.0632 13.2725 16.2389 13.1283 16.4445 13.0432C16.65 12.958 16.8762 12.9357 17.0945 12.9791C17.3127 13.0225 17.5132 13.1297 17.6705 13.287C17.8278 13.4444 17.935 13.6448 17.9784 13.863C18.0218 14.0813 17.9995 14.3075 17.9144 14.513C17.8292 14.7186 17.685 14.8943 17.5 15.0179C17.315 15.1415 17.0975 15.2075 16.875 15.2075C16.5766 15.2075 16.2905 15.089 16.0795 14.878C15.8685 14.667 15.75 14.3809 15.75 14.0825Z" fill="#4D5154"/>
</svg>
