<svg width="214" height="261" viewBox="0 0 214 261" fill="none" xmlns="http://www.w3.org/2000/svg">
<path d="M131 239.075C131 251.736 120.659 262.204 108.192 259.999C94.6277 257.601 81.4791 253.07 69.247 246.532C50.2477 236.376 34.0462 221.692 22.0775 203.78C10.1088 185.867 2.74239 165.28 0.630801 143.84C-1.48079 122.401 1.7276 100.772 9.97178 80.8685C18.216 60.9653 31.2414 43.4024 47.8945 29.7356C64.5475 16.0689 84.314 6.71998 105.443 2.51713C126.572 -1.68572 148.412 -0.612811 169.027 5.64081C182.3 9.66699 194.801 15.7606 206.088 23.6558C216.463 30.913 216.373 45.6267 207.421 54.5794C198.468 63.5322 184.037 63.1924 173.026 56.9435C167.569 53.8469 161.767 51.3514 155.718 49.5165C142.318 45.4517 128.122 44.7543 114.388 47.4861C100.654 50.218 87.8059 56.2948 76.9814 65.1782C66.1569 74.0616 57.6904 85.4774 52.3317 98.4145C46.9729 111.352 44.8875 125.411 46.26 139.346C47.6326 153.282 52.4207 166.664 60.2004 178.307C67.98 189.95 78.511 199.495 90.8606 206.096C96.4352 209.075 102.303 211.414 108.351 213.082C120.556 216.45 131 226.414 131 239.075Z" fill="url(#paint0_linear_2684_11327)"/>
<defs>
<linearGradient id="paint0_linear_2684_11327" x1="-1.28103e-06" y1="262" x2="262" y2="-1.28103e-06" gradientUnits="userSpaceOnUse">
<stop stop-color="#5655D7"/>
<stop offset="1" stop-color="#7F7EFF"/>
</linearGradient>
</defs>
</svg>
