<svg width="64" height="64" viewBox="0 0 64 64" fill="none" xmlns="http://www.w3.org/2000/svg">
<circle cx="32" cy="32" r="32" fill="#5655D7" fill-opacity="0.08"/>
<path d="M64 32C64 25.671 62.1232 19.4841 58.607 14.2218C55.0908 8.95938 50.0931 4.85786 44.2459 2.43585C38.3986 0.0138507 31.9645 -0.619856 25.7571 0.614871C19.5497 1.8496 13.8479 4.8973 9.37258 9.37258C4.8973 13.8479 1.8496 19.5497 0.614871 25.7571C-0.619856 31.9645 0.0138508 38.3986 2.43586 44.2459C4.85786 50.0931 8.95938 55.0908 14.2218 58.607C19.4841 62.1232 25.671 64 32 64V32H64Z" fill="#5655D7"/>
<circle cx="32.3926" cy="32" r="24" fill="white"/>
<path d="M18.377 37L23.027 27.835H24.812L20.297 37H18.377ZM17.582 28.09V26.5H24.812V27.835L23.177 28.09H17.582ZM29.6398 37.18C29.1798 37.18 28.7098 37.11 28.2298 36.97C27.7598 36.82 27.3248 36.6 26.9248 36.31C26.5248 36.01 26.2198 35.635 26.0098 35.185L27.5548 34.615C27.8148 34.985 28.1198 35.255 28.4698 35.425C28.8198 35.585 29.1798 35.665 29.5498 35.665C30.1398 35.665 30.6198 35.49 30.9898 35.14C31.3598 34.78 31.5448 34.305 31.5448 33.715C31.5448 33.145 31.3648 32.675 31.0048 32.305C30.6448 31.935 30.1748 31.75 29.5948 31.75C29.2548 31.75 28.9348 31.825 28.6348 31.975C28.3448 32.125 28.1198 32.305 27.9598 32.515L26.3848 32.17L26.9698 26.5H32.7748V28.075H27.1798L26.9698 26.56H28.6948L27.9748 32.305L26.9098 32.17C27.0298 31.97 27.1848 31.77 27.3748 31.57C27.5748 31.36 27.8148 31.165 28.0948 30.985C28.3748 30.805 28.6848 30.66 29.0248 30.55C29.3648 30.44 29.7348 30.39 30.1348 30.4C30.7348 30.4 31.2748 30.54 31.7548 30.82C32.2348 31.1 32.6148 31.485 32.8948 31.975C33.1748 32.455 33.3148 33.01 33.3148 33.64C33.3148 34.34 33.1548 34.955 32.8348 35.485C32.5248 36.015 32.0948 36.43 31.5448 36.73C30.9948 37.03 30.3598 37.18 29.6398 37.18ZM35.3266 37L42.7816 26.5H44.5216L37.0216 37H35.3266ZM42.9166 37.24C42.4466 37.24 42.0316 37.13 41.6716 36.91C41.3116 36.69 41.0266 36.385 40.8166 35.995C40.6166 35.605 40.5166 35.165 40.5166 34.675C40.5166 34.175 40.6166 33.735 40.8166 33.355C41.0166 32.975 41.2966 32.675 41.6566 32.455C42.0266 32.235 42.4466 32.125 42.9166 32.125C43.3866 32.125 43.8016 32.235 44.1616 32.455C44.5216 32.675 44.8016 32.975 45.0016 33.355C45.2116 33.735 45.3166 34.175 45.3166 34.675C45.3166 35.165 45.2116 35.605 45.0016 35.995C44.8016 36.385 44.5216 36.69 44.1616 36.91C43.8016 37.13 43.3866 37.24 42.9166 37.24ZM42.9166 36.055C43.2466 36.055 43.5166 35.925 43.7266 35.665C43.9366 35.405 44.0416 35.075 44.0416 34.675C44.0416 34.285 43.9366 33.96 43.7266 33.7C43.5166 33.43 43.2466 33.295 42.9166 33.295C42.5866 33.295 42.3116 33.43 42.0916 33.7C41.8816 33.96 41.7766 34.285 41.7766 34.675C41.7766 35.075 41.8816 35.405 42.0916 35.665C42.3116 35.925 42.5866 36.055 42.9166 36.055ZM36.9766 31.375C36.5166 31.375 36.1016 31.265 35.7316 31.045C35.3716 30.825 35.0916 30.52 34.8916 30.13C34.6916 29.74 34.5916 29.3 34.5916 28.81C34.5916 28.31 34.6916 27.87 34.8916 27.49C35.0916 27.11 35.3716 26.81 35.7316 26.59C36.1016 26.37 36.5216 26.26 36.9916 26.26C37.4616 26.26 37.8766 26.37 38.2366 26.59C38.5966 26.81 38.8766 27.11 39.0766 27.49C39.2766 27.87 39.3766 28.31 39.3766 28.81C39.3766 29.3 39.2766 29.74 39.0766 30.13C38.8766 30.52 38.5916 30.825 38.2216 31.045C37.8616 31.265 37.4466 31.375 36.9766 31.375ZM36.9766 30.19C37.3166 30.19 37.5916 30.06 37.8016 29.8C38.0116 29.54 38.1166 29.21 38.1166 28.81C38.1166 28.42 38.0116 28.095 37.8016 27.835C37.5916 27.575 37.3166 27.445 36.9766 27.445C36.6466 27.445 36.3766 27.575 36.1666 27.835C35.9566 28.095 35.8516 28.42 35.8516 28.81C35.8516 29.21 35.9566 29.54 36.1666 29.8C36.3766 30.06 36.6466 30.19 36.9766 30.19Z" fill="#5655D7"/>
</svg>
