<svg width="64" height="64" viewBox="0 0 64 64" fill="none" xmlns="http://www.w3.org/2000/svg">
<circle cx="32" cy="32" r="32" fill="#00997E" fill-opacity="0.08"/>
<path d="M32 0C23.5131 -1.01206e-07 15.3737 3.37142 9.37258 9.37258C3.37142 15.3737 7.41951e-07 23.5131 0 32C-7.41951e-07 40.4869 3.37142 48.6263 9.37258 54.6274C15.3737 60.6286 23.5131 64 32 64L32 32V0Z" fill="#00997E"/>
<circle cx="32.3926" cy="32" r="24" fill="white"/>
<path d="M20.6969 37.18C20.2369 37.18 19.7669 37.11 19.2869 36.97C18.8169 36.82 18.3819 36.6 17.9819 36.31C17.5819 36.01 17.2769 35.635 17.0669 35.185L18.6119 34.615C18.8719 34.985 19.1769 35.255 19.5269 35.425C19.8769 35.585 20.2369 35.665 20.6069 35.665C21.1969 35.665 21.6769 35.49 22.0469 35.14C22.4169 34.78 22.6019 34.305 22.6019 33.715C22.6019 33.145 22.4219 32.675 22.0619 32.305C21.7019 31.935 21.2319 31.75 20.6519 31.75C20.3119 31.75 19.9919 31.825 19.6919 31.975C19.4019 32.125 19.1769 32.305 19.0169 32.515L17.4419 32.17L18.0269 26.5H23.8319V28.075H18.2369L18.0269 26.56H19.7519L19.0319 32.305L17.9669 32.17C18.0869 31.97 18.2419 31.77 18.4319 31.57C18.6319 31.36 18.8719 31.165 19.1519 30.985C19.4319 30.805 19.7419 30.66 20.0819 30.55C20.4219 30.44 20.7919 30.39 21.1919 30.4C21.7919 30.4 22.3319 30.54 22.8119 30.82C23.2919 31.1 23.6719 31.485 23.9519 31.975C24.2319 32.455 24.3719 33.01 24.3719 33.64C24.3719 34.34 24.2119 34.955 23.8919 35.485C23.5819 36.015 23.1519 36.43 22.6019 36.73C22.0519 37.03 21.4169 37.18 20.6969 37.18ZM29.8188 37.18C28.9988 37.18 28.2688 36.95 27.6288 36.49C26.9888 36.02 26.4838 35.38 26.1138 34.57C25.7538 33.75 25.5738 32.81 25.5738 31.75C25.5738 30.69 25.7538 29.755 26.1138 28.945C26.4838 28.125 26.9838 27.485 27.6138 27.025C28.2538 26.555 28.9888 26.32 29.8188 26.32C30.6488 26.32 31.3838 26.555 32.0238 27.025C32.6638 27.485 33.1638 28.125 33.5238 28.945C33.8938 29.755 34.0788 30.69 34.0788 31.75C34.0788 32.81 33.8938 33.75 33.5238 34.57C33.1638 35.38 32.6638 36.02 32.0238 36.49C31.3938 36.95 30.6588 37.18 29.8188 37.18ZM29.8338 35.605C30.3238 35.605 30.7588 35.44 31.1388 35.11C31.5288 34.78 31.8288 34.325 32.0388 33.745C32.2588 33.165 32.3688 32.5 32.3688 31.75C32.3688 31 32.2588 30.335 32.0388 29.755C31.8288 29.165 31.5288 28.705 31.1388 28.375C30.7588 28.045 30.3188 27.88 29.8188 27.88C29.3188 27.88 28.8788 28.045 28.4988 28.375C28.1188 28.705 27.8188 29.16 27.5988 29.74C27.3888 30.32 27.2838 30.99 27.2838 31.75C27.2838 32.5 27.3888 33.165 27.5988 33.745C27.8188 34.325 28.1188 34.78 28.4988 35.11C28.8888 35.44 29.3338 35.605 29.8338 35.605ZM36.0517 37L43.5067 26.5H45.2467L37.7467 37H36.0517ZM43.6417 37.24C43.1717 37.24 42.7567 37.13 42.3967 36.91C42.0367 36.69 41.7517 36.385 41.5417 35.995C41.3417 35.605 41.2417 35.165 41.2417 34.675C41.2417 34.175 41.3417 33.735 41.5417 33.355C41.7417 32.975 42.0217 32.675 42.3817 32.455C42.7517 32.235 43.1717 32.125 43.6417 32.125C44.1117 32.125 44.5267 32.235 44.8867 32.455C45.2467 32.675 45.5267 32.975 45.7267 33.355C45.9367 33.735 46.0417 34.175 46.0417 34.675C46.0417 35.165 45.9367 35.605 45.7267 35.995C45.5267 36.385 45.2467 36.69 44.8867 36.91C44.5267 37.13 44.1117 37.24 43.6417 37.24ZM43.6417 36.055C43.9717 36.055 44.2417 35.925 44.4517 35.665C44.6617 35.405 44.7667 35.075 44.7667 34.675C44.7667 34.285 44.6617 33.96 44.4517 33.7C44.2417 33.43 43.9717 33.295 43.6417 33.295C43.3117 33.295 43.0367 33.43 42.8167 33.7C42.6067 33.96 42.5017 34.285 42.5017 34.675C42.5017 35.075 42.6067 35.405 42.8167 35.665C43.0367 35.925 43.3117 36.055 43.6417 36.055ZM37.7017 31.375C37.2417 31.375 36.8267 31.265 36.4567 31.045C36.0967 30.825 35.8167 30.52 35.6167 30.13C35.4167 29.74 35.3167 29.3 35.3167 28.81C35.3167 28.31 35.4167 27.87 35.6167 27.49C35.8167 27.11 36.0967 26.81 36.4567 26.59C36.8267 26.37 37.2467 26.26 37.7167 26.26C38.1867 26.26 38.6017 26.37 38.9617 26.59C39.3217 26.81 39.6017 27.11 39.8017 27.49C40.0017 27.87 40.1017 28.31 40.1017 28.81C40.1017 29.3 40.0017 29.74 39.8017 30.13C39.6017 30.52 39.3167 30.825 38.9467 31.045C38.5867 31.265 38.1717 31.375 37.7017 31.375ZM37.7017 30.19C38.0417 30.19 38.3167 30.06 38.5267 29.8C38.7367 29.54 38.8417 29.21 38.8417 28.81C38.8417 28.42 38.7367 28.095 38.5267 27.835C38.3167 27.575 38.0417 27.445 37.7017 27.445C37.3717 27.445 37.1017 27.575 36.8917 27.835C36.6817 28.095 36.5767 28.42 36.5767 28.81C36.5767 29.21 36.6817 29.54 36.8917 29.8C37.1017 30.06 37.3717 30.19 37.7017 30.19Z" fill="#00997E"/>
</svg>
