<svg width="64" height="64" viewBox="0 0 64 64" fill="none" xmlns="http://www.w3.org/2000/svg">
<circle cx="32" cy="32" r="32" fill="#4ABDE8" fill-opacity="0.08"/>
<path d="M64 32C64 25.2423 61.8606 18.658 57.8885 13.1909C53.9164 7.72375 48.3155 3.65445 41.8885 1.56619C35.4616 -0.522064 28.5384 -0.522064 22.1115 1.56619C15.6845 3.65445 10.0836 7.72375 6.11145 13.1909C2.13936 18.658 -5.9078e-07 25.2423 0 32C5.9078e-07 38.7577 2.13936 45.342 6.11146 50.8091C10.0836 56.2763 15.6845 60.3456 22.1115 62.4338C28.5385 64.5221 35.4616 64.5221 41.8885 62.4338L32 32H64Z" fill="#4ABDE8"/>
<circle cx="32.3926" cy="32" r="24" fill="white"/>
<path d="M20.6432 37.18C19.8332 37.18 19.1382 37.06 18.5582 36.82C17.9782 36.57 17.5332 36.23 17.2232 35.8C16.9132 35.36 16.7582 34.85 16.7582 34.27C16.7582 33.65 16.9132 33.11 17.2232 32.65C17.5332 32.18 17.9782 31.815 18.5582 31.555C19.1382 31.285 19.8332 31.155 20.6432 31.165C21.4532 31.155 22.1482 31.285 22.7282 31.555C23.3082 31.815 23.7532 32.18 24.0632 32.65C24.3832 33.11 24.5432 33.65 24.5432 34.27C24.5432 34.85 24.3832 35.36 24.0632 35.8C23.7532 36.23 23.3082 36.57 22.7282 36.82C22.1482 37.06 21.4532 37.18 20.6432 37.18ZM20.6432 35.71C21.2632 35.71 21.7732 35.555 22.1732 35.245C22.5732 34.935 22.7732 34.54 22.7732 34.06C22.7732 33.55 22.5732 33.135 22.1732 32.815C21.7732 32.495 21.2632 32.335 20.6432 32.335C20.2332 32.335 19.8682 32.405 19.5482 32.545C19.2382 32.685 18.9882 32.89 18.7982 33.16C18.6182 33.42 18.5282 33.72 18.5282 34.06C18.5282 34.38 18.6182 34.665 18.7982 34.915C18.9882 35.165 19.2382 35.36 19.5482 35.5C19.8682 35.64 20.2332 35.71 20.6432 35.71ZM20.6432 31.945C19.9232 31.945 19.2982 31.83 18.7682 31.6C18.2382 31.36 17.8282 31.035 17.5382 30.625C17.2582 30.205 17.1182 29.72 17.1182 29.17C17.1182 28.61 17.2582 28.115 17.5382 27.685C17.8282 27.255 18.2382 26.92 18.7682 26.68C19.2982 26.44 19.9232 26.32 20.6432 26.32C21.3632 26.32 21.9882 26.44 22.5182 26.68C23.0482 26.92 23.4582 27.255 23.7482 27.685C24.0382 28.115 24.1832 28.61 24.1832 29.17C24.1832 29.72 24.0382 30.205 23.7482 30.625C23.4582 31.035 23.0482 31.36 22.5182 31.6C21.9882 31.83 21.3632 31.945 20.6432 31.945ZM20.6432 30.88C21.1732 30.88 21.6082 30.74 21.9482 30.46C22.2982 30.17 22.4732 29.805 22.4732 29.365C22.4732 28.885 22.2982 28.495 21.9482 28.195C21.6082 27.895 21.1732 27.745 20.6432 27.745C20.1132 27.745 19.6782 27.895 19.3382 28.195C18.9982 28.495 18.8282 28.885 18.8282 29.365C18.8282 29.805 18.9982 30.17 19.3382 30.46C19.6782 30.74 20.1132 30.88 20.6432 30.88ZM30.0824 37.18C29.2624 37.18 28.5324 36.95 27.8924 36.49C27.2524 36.02 26.7474 35.38 26.3774 34.57C26.0174 33.75 25.8374 32.81 25.8374 31.75C25.8374 30.69 26.0174 29.755 26.3774 28.945C26.7474 28.125 27.2474 27.485 27.8774 27.025C28.5174 26.555 29.2524 26.32 30.0824 26.32C30.9124 26.32 31.6474 26.555 32.2874 27.025C32.9274 27.485 33.4274 28.125 33.7874 28.945C34.1574 29.755 34.3424 30.69 34.3424 31.75C34.3424 32.81 34.1574 33.75 33.7874 34.57C33.4274 35.38 32.9274 36.02 32.2874 36.49C31.6574 36.95 30.9224 37.18 30.0824 37.18ZM30.0974 35.605C30.5874 35.605 31.0224 35.44 31.4024 35.11C31.7924 34.78 32.0924 34.325 32.3024 33.745C32.5224 33.165 32.6324 32.5 32.6324 31.75C32.6324 31 32.5224 30.335 32.3024 29.755C32.0924 29.165 31.7924 28.705 31.4024 28.375C31.0224 28.045 30.5824 27.88 30.0824 27.88C29.5824 27.88 29.1424 28.045 28.7624 28.375C28.3824 28.705 28.0824 29.16 27.8624 29.74C27.6524 30.32 27.5474 30.99 27.5474 31.75C27.5474 32.5 27.6524 33.165 27.8624 33.745C28.0824 34.325 28.3824 34.78 28.7624 35.11C29.1524 35.44 29.5974 35.605 30.0974 35.605ZM36.3154 37L43.7704 26.5H45.5104L38.0104 37H36.3154ZM43.9054 37.24C43.4354 37.24 43.0204 37.13 42.6604 36.91C42.3004 36.69 42.0154 36.385 41.8054 35.995C41.6054 35.605 41.5054 35.165 41.5054 34.675C41.5054 34.175 41.6054 33.735 41.8054 33.355C42.0054 32.975 42.2854 32.675 42.6454 32.455C43.0154 32.235 43.4354 32.125 43.9054 32.125C44.3754 32.125 44.7904 32.235 45.1504 32.455C45.5104 32.675 45.7904 32.975 45.9904 33.355C46.2004 33.735 46.3054 34.175 46.3054 34.675C46.3054 35.165 46.2004 35.605 45.9904 35.995C45.7904 36.385 45.5104 36.69 45.1504 36.91C44.7904 37.13 44.3754 37.24 43.9054 37.24ZM43.9054 36.055C44.2354 36.055 44.5054 35.925 44.7154 35.665C44.9254 35.405 45.0304 35.075 45.0304 34.675C45.0304 34.285 44.9254 33.96 44.7154 33.7C44.5054 33.43 44.2354 33.295 43.9054 33.295C43.5754 33.295 43.3004 33.43 43.0804 33.7C42.8704 33.96 42.7654 34.285 42.7654 34.675C42.7654 35.075 42.8704 35.405 43.0804 35.665C43.3004 35.925 43.5754 36.055 43.9054 36.055ZM37.9654 31.375C37.5054 31.375 37.0904 31.265 36.7204 31.045C36.3604 30.825 36.0804 30.52 35.8804 30.13C35.6804 29.74 35.5804 29.3 35.5804 28.81C35.5804 28.31 35.6804 27.87 35.8804 27.49C36.0804 27.11 36.3604 26.81 36.7204 26.59C37.0904 26.37 37.5104 26.26 37.9804 26.26C38.4504 26.26 38.8654 26.37 39.2254 26.59C39.5854 26.81 39.8654 27.11 40.0654 27.49C40.2654 27.87 40.3654 28.31 40.3654 28.81C40.3654 29.3 40.2654 29.74 40.0654 30.13C39.8654 30.52 39.5804 30.825 39.2104 31.045C38.8504 31.265 38.4354 31.375 37.9654 31.375ZM37.9654 30.19C38.3054 30.19 38.5804 30.06 38.7904 29.8C39.0004 29.54 39.1054 29.21 39.1054 28.81C39.1054 28.42 39.0004 28.095 38.7904 27.835C38.5804 27.575 38.3054 27.445 37.9654 27.445C37.6354 27.445 37.3654 27.575 37.1554 27.835C36.9454 28.095 36.8404 28.42 36.8404 28.81C36.8404 29.21 36.9454 29.54 37.1554 29.8C37.3654 30.06 37.6354 30.19 37.9654 30.19Z" fill="#4ABDE8"/>
</svg>
