<svg width="64" height="64" viewBox="0 0 64 64" fill="none" xmlns="http://www.w3.org/2000/svg">
<circle cx="32" cy="32" r="32" fill="#4ABDE8" fill-opacity="0.08"/>
<path d="M64 32C64 26.5248 62.5952 21.1412 59.9199 16.3641C57.2446 11.587 53.3883 7.57629 48.72 4.71551C44.0516 1.85474 38.7273 0.239625 33.2563 0.0246707C27.7853 -0.190284 22.3507 1.00211 17.4723 3.48779C12.5939 5.97348 8.43482 9.6693 5.39297 14.2218C2.35112 18.7742 0.528222 24.031 0.0986449 29.4893C-0.330932 34.9476 0.647179 40.4249 2.93942 45.3971C5.23166 50.3694 8.76136 54.6703 13.1909 57.8885L32 32H64Z" fill="#FFAE41"/>
<circle cx="32.3926" cy="32" r="24" fill="white"/>
<path d="M20.8142 37.18C20.1042 37.18 19.4992 37.05 18.9992 36.79C18.5092 36.52 18.1142 36.16 17.8142 35.71C17.5142 35.25 17.2942 34.72 17.1542 34.12C17.0142 33.51 16.9442 32.86 16.9442 32.17C16.9442 31.33 17.0292 30.555 17.1992 29.845C17.3792 29.135 17.6442 28.515 17.9942 27.985C18.3442 27.455 18.7792 27.045 19.2992 26.755C19.8292 26.465 20.4442 26.32 21.1442 26.32C21.6842 26.32 22.2142 26.405 22.7342 26.575C23.2642 26.735 23.7342 26.96 24.1442 27.25L23.2442 28.51C22.9342 28.29 22.5942 28.125 22.2242 28.015C21.8642 27.905 21.5292 27.85 21.2192 27.85C20.3492 27.85 19.6742 28.225 19.1942 28.975C18.7242 29.725 18.5092 30.89 18.5492 32.47L18.1892 32.2C18.4192 31.63 18.7842 31.175 19.2842 30.835C19.7842 30.485 20.3792 30.31 21.0692 30.31C21.7392 30.31 22.3342 30.465 22.8542 30.775C23.3742 31.075 23.7792 31.49 24.0692 32.02C24.3592 32.54 24.5042 33.135 24.5042 33.805C24.5042 34.455 24.3492 35.035 24.0392 35.545C23.7392 36.055 23.3092 36.455 22.7492 36.745C22.1992 37.035 21.5542 37.18 20.8142 37.18ZM20.8292 35.695C21.1992 35.695 21.5292 35.61 21.8192 35.44C22.1192 35.27 22.3542 35.04 22.5242 34.75C22.6942 34.45 22.7792 34.11 22.7792 33.73C22.7792 33.35 22.6942 33.01 22.5242 32.71C22.3542 32.41 22.1192 32.18 21.8192 32.02C21.5292 31.85 21.1992 31.765 20.8292 31.765C20.4492 31.765 20.1092 31.85 19.8092 32.02C19.5192 32.18 19.2892 32.41 19.1192 32.71C18.9492 33.01 18.8642 33.35 18.8642 33.73C18.8642 34.11 18.9492 34.45 19.1192 34.75C19.2892 35.04 19.5192 35.27 19.8092 35.44C20.1092 35.61 20.4492 35.695 20.8292 35.695ZM29.3375 37.18C28.8775 37.18 28.4075 37.11 27.9275 36.97C27.4575 36.82 27.0225 36.6 26.6225 36.31C26.2225 36.01 25.9175 35.635 25.7075 35.185L27.2525 34.615C27.5125 34.985 27.8175 35.255 28.1675 35.425C28.5175 35.585 28.8775 35.665 29.2475 35.665C29.8375 35.665 30.3175 35.49 30.6875 35.14C31.0575 34.78 31.2425 34.305 31.2425 33.715C31.2425 33.145 31.0625 32.675 30.7025 32.305C30.3425 31.935 29.8725 31.75 29.2925 31.75C28.9525 31.75 28.6325 31.825 28.3325 31.975C28.0425 32.125 27.8175 32.305 27.6575 32.515L26.0825 32.17L26.6675 26.5H32.4725V28.075H26.8775L26.6675 26.56H28.3925L27.6725 32.305L26.6075 32.17C26.7275 31.97 26.8825 31.77 27.0725 31.57C27.2725 31.36 27.5125 31.165 27.7925 30.985C28.0725 30.805 28.3825 30.66 28.7225 30.55C29.0625 30.44 29.4325 30.39 29.8325 30.4C30.4325 30.4 30.9725 30.54 31.4525 30.82C31.9325 31.1 32.3125 31.485 32.5925 31.975C32.8725 32.455 33.0125 33.01 33.0125 33.64C33.0125 34.34 32.8525 34.955 32.5325 35.485C32.2225 36.015 31.7925 36.43 31.2425 36.73C30.6925 37.03 30.0575 37.18 29.3375 37.18ZM35.0244 37L42.4794 26.5H44.2194L36.7194 37H35.0244ZM42.6144 37.24C42.1444 37.24 41.7294 37.13 41.3694 36.91C41.0094 36.69 40.7244 36.385 40.5144 35.995C40.3144 35.605 40.2144 35.165 40.2144 34.675C40.2144 34.175 40.3144 33.735 40.5144 33.355C40.7144 32.975 40.9944 32.675 41.3544 32.455C41.7244 32.235 42.1444 32.125 42.6144 32.125C43.0844 32.125 43.4994 32.235 43.8594 32.455C44.2194 32.675 44.4994 32.975 44.6994 33.355C44.9094 33.735 45.0144 34.175 45.0144 34.675C45.0144 35.165 44.9094 35.605 44.6994 35.995C44.4994 36.385 44.2194 36.69 43.8594 36.91C43.4994 37.13 43.0844 37.24 42.6144 37.24ZM42.6144 36.055C42.9444 36.055 43.2144 35.925 43.4244 35.665C43.6344 35.405 43.7394 35.075 43.7394 34.675C43.7394 34.285 43.6344 33.96 43.4244 33.7C43.2144 33.43 42.9444 33.295 42.6144 33.295C42.2844 33.295 42.0094 33.43 41.7894 33.7C41.5794 33.96 41.4744 34.285 41.4744 34.675C41.4744 35.075 41.5794 35.405 41.7894 35.665C42.0094 35.925 42.2844 36.055 42.6144 36.055ZM36.6744 31.375C36.2144 31.375 35.7994 31.265 35.4294 31.045C35.0694 30.825 34.7894 30.52 34.5894 30.13C34.3894 29.74 34.2894 29.3 34.2894 28.81C34.2894 28.31 34.3894 27.87 34.5894 27.49C34.7894 27.11 35.0694 26.81 35.4294 26.59C35.7994 26.37 36.2194 26.26 36.6894 26.26C37.1594 26.26 37.5744 26.37 37.9344 26.59C38.2944 26.81 38.5744 27.11 38.7744 27.49C38.9744 27.87 39.0744 28.31 39.0744 28.81C39.0744 29.3 38.9744 29.74 38.7744 30.13C38.5744 30.52 38.2894 30.825 37.9194 31.045C37.5594 31.265 37.1444 31.375 36.6744 31.375ZM36.6744 30.19C37.0144 30.19 37.2894 30.06 37.4994 29.8C37.7094 29.54 37.8144 29.21 37.8144 28.81C37.8144 28.42 37.7094 28.095 37.4994 27.835C37.2894 27.575 37.0144 27.445 36.6744 27.445C36.3444 27.445 36.0744 27.575 35.8644 27.835C35.6544 28.095 35.5494 28.42 35.5494 28.81C35.5494 29.21 35.6544 29.54 35.8644 29.8C36.0744 30.06 36.3444 30.19 36.6744 30.19Z" fill="#FFAE41"/>
</svg>
