<svg width="64" height="64" viewBox="0 0 64 64" fill="none" xmlns="http://www.w3.org/2000/svg">
<circle cx="32" cy="32" r="32" fill="#FF414B" fill-opacity="0.08"/>
<path d="M32 0C23.5131 -1.01206e-07 15.3737 3.37142 9.37258 9.37258C3.37142 15.3737 7.41951e-07 23.5131 0 32L32 32V0Z" fill="#FF414B"/>
<circle cx="32.3926" cy="32" r="24" fill="white"/>
<path d="M18.8712 36.445L17.1762 35.665C17.1762 35.355 17.2562 35.035 17.4162 34.705C17.5762 34.365 17.8012 34.025 18.0912 33.685C18.3912 33.345 18.7412 33.025 19.1412 32.725L20.9712 31.405C21.2012 31.245 21.4112 31.06 21.6012 30.85C21.8012 30.64 21.9612 30.42 22.0812 30.19C22.2012 29.95 22.2612 29.715 22.2612 29.485C22.2612 29.195 22.1862 28.93 22.0362 28.69C21.8962 28.45 21.6912 28.26 21.4212 28.12C21.1612 27.98 20.8412 27.91 20.4612 27.91C20.1212 27.91 19.8162 27.98 19.5462 28.12C19.2862 28.25 19.0712 28.425 18.9012 28.645C18.7312 28.865 18.6112 29.105 18.5412 29.365L16.7562 29.035C16.8562 28.555 17.0662 28.11 17.3862 27.7C17.7162 27.28 18.1362 26.945 18.6462 26.695C19.1662 26.445 19.7562 26.32 20.4162 26.32C21.1562 26.32 21.7962 26.455 22.3362 26.725C22.8862 26.995 23.3062 27.37 23.5962 27.85C23.8962 28.32 24.0462 28.86 24.0462 29.47C24.0462 30.09 23.8762 30.65 23.5362 31.15C23.2062 31.64 22.7412 32.11 22.1412 32.56L20.4612 33.805C20.1812 34.005 19.9162 34.235 19.6662 34.495C19.4262 34.745 19.2312 35.03 19.0812 35.35C18.9412 35.67 18.8712 36.035 18.8712 36.445ZM17.1762 37V35.665L18.4662 35.455H24.1812V37H17.1762ZM29.3155 37.18C28.8555 37.18 28.3855 37.11 27.9055 36.97C27.4355 36.82 27.0005 36.6 26.6005 36.31C26.2005 36.01 25.8955 35.635 25.6855 35.185L27.2305 34.615C27.4905 34.985 27.7955 35.255 28.1455 35.425C28.4955 35.585 28.8555 35.665 29.2255 35.665C29.8155 35.665 30.2955 35.49 30.6655 35.14C31.0355 34.78 31.2205 34.305 31.2205 33.715C31.2205 33.145 31.0405 32.675 30.6805 32.305C30.3205 31.935 29.8505 31.75 29.2705 31.75C28.9305 31.75 28.6105 31.825 28.3105 31.975C28.0205 32.125 27.7955 32.305 27.6355 32.515L26.0605 32.17L26.6455 26.5H32.4505V28.075H26.8555L26.6455 26.56H28.3705L27.6505 32.305L26.5855 32.17C26.7055 31.97 26.8605 31.77 27.0505 31.57C27.2505 31.36 27.4905 31.165 27.7705 30.985C28.0505 30.805 28.3605 30.66 28.7005 30.55C29.0405 30.44 29.4105 30.39 29.8105 30.4C30.4105 30.4 30.9505 30.54 31.4305 30.82C31.9105 31.1 32.2905 31.485 32.5705 31.975C32.8505 32.455 32.9905 33.01 32.9905 33.64C32.9905 34.34 32.8305 34.955 32.5105 35.485C32.2005 36.015 31.7705 36.43 31.2205 36.73C30.6705 37.03 30.0355 37.18 29.3155 37.18ZM35.0024 37L42.4574 26.5H44.1974L36.6974 37H35.0024ZM42.5924 37.24C42.1224 37.24 41.7074 37.13 41.3474 36.91C40.9874 36.69 40.7024 36.385 40.4924 35.995C40.2924 35.605 40.1924 35.165 40.1924 34.675C40.1924 34.175 40.2924 33.735 40.4924 33.355C40.6924 32.975 40.9724 32.675 41.3324 32.455C41.7024 32.235 42.1224 32.125 42.5924 32.125C43.0624 32.125 43.4774 32.235 43.8374 32.455C44.1974 32.675 44.4774 32.975 44.6774 33.355C44.8874 33.735 44.9924 34.175 44.9924 34.675C44.9924 35.165 44.8874 35.605 44.6774 35.995C44.4774 36.385 44.1974 36.69 43.8374 36.91C43.4774 37.13 43.0624 37.24 42.5924 37.24ZM42.5924 36.055C42.9224 36.055 43.1924 35.925 43.4024 35.665C43.6124 35.405 43.7174 35.075 43.7174 34.675C43.7174 34.285 43.6124 33.96 43.4024 33.7C43.1924 33.43 42.9224 33.295 42.5924 33.295C42.2624 33.295 41.9874 33.43 41.7674 33.7C41.5574 33.96 41.4524 34.285 41.4524 34.675C41.4524 35.075 41.5574 35.405 41.7674 35.665C41.9874 35.925 42.2624 36.055 42.5924 36.055ZM36.6524 31.375C36.1924 31.375 35.7774 31.265 35.4074 31.045C35.0474 30.825 34.7674 30.52 34.5674 30.13C34.3674 29.74 34.2674 29.3 34.2674 28.81C34.2674 28.31 34.3674 27.87 34.5674 27.49C34.7674 27.11 35.0474 26.81 35.4074 26.59C35.7774 26.37 36.1974 26.26 36.6674 26.26C37.1374 26.26 37.5524 26.37 37.9124 26.59C38.2724 26.81 38.5524 27.11 38.7524 27.49C38.9524 27.87 39.0524 28.31 39.0524 28.81C39.0524 29.3 38.9524 29.74 38.7524 30.13C38.5524 30.52 38.2674 30.825 37.8974 31.045C37.5374 31.265 37.1224 31.375 36.6524 31.375ZM36.6524 30.19C36.9924 30.19 37.2674 30.06 37.4774 29.8C37.6874 29.54 37.7924 29.21 37.7924 28.81C37.7924 28.42 37.6874 28.095 37.4774 27.835C37.2674 27.575 36.9924 27.445 36.6524 27.445C36.3224 27.445 36.0524 27.575 35.8424 27.835C35.6324 28.095 35.5274 28.42 35.5274 28.81C35.5274 29.21 35.6324 29.54 35.8424 29.8C36.0524 30.06 36.3224 30.19 36.6524 30.19Z" fill="#FF414B"/>
</svg>
