<svg width="32" height="33" viewBox="0 0 32 33" fill="none" xmlns="http://www.w3.org/2000/svg">
<rect y="0.5" width="32" height="32" rx="16" fill="#4ABDE8"/>
<path d="M16 11.625C15.0358 11.625 14.0933 11.9109 13.2916 12.4466C12.4899 12.9823 11.8651 13.7436 11.4961 14.6344C11.1271 15.5252 11.0306 16.5054 11.2187 17.4511C11.4068 18.3967 11.8711 19.2654 12.5529 19.9471C13.2346 20.6289 14.1033 21.0932 15.0489 21.2813C15.9946 21.4694 16.9748 21.3729 17.8656 21.0039C18.7564 20.6349 19.5177 20.0101 20.0534 19.2084C20.5891 18.4067 20.875 17.4642 20.875 16.5C20.8736 15.2075 20.3596 13.9683 19.4456 13.0544C18.5317 12.1404 17.2925 11.6264 16 11.625ZM16 20.625C15.1842 20.625 14.3866 20.3831 13.7083 19.9298C13.0299 19.4766 12.5012 18.8323 12.189 18.0786C11.8768 17.3248 11.7951 16.4954 11.9543 15.6953C12.1134 14.8951 12.5063 14.1601 13.0832 13.5832C13.6601 13.0063 14.3951 12.6134 15.1953 12.4543C15.9954 12.2951 16.8248 12.3768 17.5786 12.689C18.3323 13.0012 18.9766 13.5299 19.4298 14.2083C19.8831 14.8866 20.125 15.6842 20.125 16.5C20.1238 17.5936 19.6888 18.6421 18.9154 19.4154C18.1421 20.1888 17.0936 20.6238 16 20.625ZM17.875 17.4375C17.875 17.7856 17.7367 18.1194 17.4906 18.3656C17.2444 18.6117 16.9106 18.75 16.5625 18.75H16.375V19.125C16.375 19.2245 16.3355 19.3198 16.2652 19.3902C16.1948 19.4605 16.0995 19.5 16 19.5C15.9005 19.5 15.8052 19.4605 15.7348 19.3902C15.6645 19.3198 15.625 19.2245 15.625 19.125V18.75H14.875C14.7755 18.75 14.6802 18.7105 14.6098 18.6402C14.5395 18.5698 14.5 18.4745 14.5 18.375C14.5 18.2755 14.5395 18.1802 14.6098 18.1098C14.6802 18.0395 14.7755 18 14.875 18H16.5625C16.7117 18 16.8548 17.9407 16.9602 17.8352C17.0657 17.7298 17.125 17.5867 17.125 17.4375C17.125 17.2883 17.0657 17.1452 16.9602 17.0398C16.8548 16.9343 16.7117 16.875 16.5625 16.875H15.4375C15.0894 16.875 14.7556 16.7367 14.5094 16.4906C14.2633 16.2444 14.125 15.9106 14.125 15.5625C14.125 15.2144 14.2633 14.8806 14.5094 14.6344C14.7556 14.3883 15.0894 14.25 15.4375 14.25H15.625V13.875C15.625 13.7755 15.6645 13.6802 15.7348 13.6098C15.8052 13.5395 15.9005 13.5 16 13.5C16.0995 13.5 16.1948 13.5395 16.2652 13.6098C16.3355 13.6802 16.375 13.7755 16.375 13.875V14.25H17.125C17.2245 14.25 17.3198 14.2895 17.3902 14.3598C17.4605 14.4302 17.5 14.5255 17.5 14.625C17.5 14.7245 17.4605 14.8198 17.3902 14.8902C17.3198 14.9605 17.2245 15 17.125 15H15.4375C15.2883 15 15.1452 15.0593 15.0398 15.1648C14.9343 15.2702 14.875 15.4133 14.875 15.5625C14.875 15.7117 14.9343 15.8548 15.0398 15.9602C15.1452 16.0657 15.2883 16.125 15.4375 16.125H16.5625C16.9106 16.125 17.2444 16.2633 17.4906 16.5094C17.7367 16.7556 17.875 17.0894 17.875 17.4375Z" fill="white"/>
</svg>
