<svg width="32" height="33" viewBox="0 0 32 33" fill="none" xmlns="http://www.w3.org/2000/svg">
<rect y="0.5" width="32" height="32" rx="16" fill="#5655D7"/>
<path d="M21.25 19.125H20.875V13.2141L21.3283 13.1166C21.3775 13.1073 21.4243 13.0884 21.4661 13.0607C21.5078 13.0331 21.5436 12.9974 21.5713 12.9557C21.5991 12.9141 21.6182 12.8673 21.6275 12.8181C21.6369 12.7689 21.6363 12.7184 21.6258 12.6694C21.6154 12.6205 21.5952 12.5742 21.5665 12.5331C21.5378 12.4921 21.5012 12.4572 21.4589 12.4306C21.4165 12.4039 21.3692 12.386 21.3198 12.3779C21.2704 12.3698 21.2199 12.3717 21.1713 12.3834L10.6712 14.6334C10.5808 14.653 10.5007 14.7052 10.4465 14.7802C10.3923 14.8552 10.3677 14.9476 10.3774 15.0396C10.3872 15.1316 10.4307 15.2168 10.4994 15.2787C10.5682 15.3406 10.6575 15.3749 10.75 15.375C10.7766 15.3749 10.8032 15.3721 10.8292 15.3666L11.125 15.3033V19.125H10.75C10.6505 19.125 10.5552 19.1645 10.4848 19.2348C10.4145 19.3052 10.375 19.4005 10.375 19.5C10.375 19.5995 10.4145 19.6948 10.4848 19.7652C10.5552 19.8355 10.6505 19.875 10.75 19.875H21.25C21.3495 19.875 21.4448 19.8355 21.5152 19.7652C21.5855 19.6948 21.625 19.5995 21.625 19.5C21.625 19.4005 21.5855 19.3052 21.5152 19.2348C21.4448 19.1645 21.3495 19.125 21.25 19.125ZM11.875 15.1406L20.125 13.3748V19.125H19V16.5C19 16.4005 18.9605 16.3052 18.8902 16.2348C18.8198 16.1645 18.7245 16.125 18.625 16.125H13.375C13.2755 16.125 13.1802 16.1645 13.1098 16.2348C13.0395 16.3052 13 16.4005 13 16.5V19.125H11.875V15.1406ZM18.25 17.625H13.75V16.875H18.25V17.625ZM13.75 18.375H18.25V19.125H13.75V18.375Z" fill="#5655D7"/>
<path d="M21.25 19.125H20.875V13.2141L21.3283 13.1166C21.3775 13.1073 21.4243 13.0884 21.4661 13.0607C21.5078 13.0331 21.5436 12.9974 21.5713 12.9557C21.5991 12.9141 21.6182 12.8673 21.6275 12.8181C21.6369 12.7689 21.6363 12.7184 21.6258 12.6694C21.6154 12.6205 21.5952 12.5742 21.5665 12.5331C21.5378 12.4921 21.5012 12.4572 21.4589 12.4306C21.4165 12.4039 21.3692 12.386 21.3198 12.3779C21.2704 12.3698 21.2199 12.3717 21.1713 12.3834L10.6712 14.6334C10.5808 14.653 10.5007 14.7052 10.4465 14.7802C10.3923 14.8552 10.3677 14.9476 10.3774 15.0396C10.3872 15.1316 10.4307 15.2168 10.4994 15.2787C10.5682 15.3406 10.6575 15.3749 10.75 15.375C10.7766 15.3749 10.8032 15.3721 10.8292 15.3666L11.125 15.3033V19.125H10.75C10.6505 19.125 10.5552 19.1645 10.4848 19.2348C10.4145 19.3052 10.375 19.4005 10.375 19.5C10.375 19.5995 10.4145 19.6948 10.4848 19.7652C10.5552 19.8355 10.6505 19.875 10.75 19.875H21.25C21.3495 19.875 21.4448 19.8355 21.5152 19.7652C21.5855 19.6948 21.625 19.5995 21.625 19.5C21.625 19.4005 21.5855 19.3052 21.5152 19.2348C21.4448 19.1645 21.3495 19.125 21.25 19.125ZM11.875 15.1406L20.125 13.3748V19.125H19V16.5C19 16.4005 18.9605 16.3052 18.8902 16.2348C18.8198 16.1645 18.7245 16.125 18.625 16.125H13.375C13.2755 16.125 13.1802 16.1645 13.1098 16.2348C13.0395 16.3052 13 16.4005 13 16.5V19.125H11.875V15.1406ZM18.25 17.625H13.75V16.875H18.25V17.625ZM13.75 18.375H18.25V19.125H13.75V18.375Z" fill="white" fill-opacity="0.8"/>
</svg>
