<svg width="32" height="33" viewBox="0 0 32 33" fill="none" xmlns="http://www.w3.org/2000/svg">
<rect y="0.5" width="32" height="32" rx="16" fill="#FF414B"/>
<path d="M15.4961 17.9025C15.9987 17.5679 16.3802 17.0805 16.5844 16.5122C16.7885 15.944 16.8043 15.3252 16.6295 14.7472C16.4548 14.1693 16.0986 13.6629 15.6138 13.3031C15.129 12.9432 14.5412 12.7489 13.9375 12.7489C13.3337 12.7489 12.7459 12.9432 12.2611 13.3031C11.7763 13.6629 11.4202 14.1693 11.2454 14.7472C11.0706 15.3252 11.0864 15.944 11.2906 16.5122C11.4947 17.0805 11.8763 17.5679 12.3789 17.9025C11.4697 18.2376 10.6933 18.8577 10.1654 19.6702C10.1377 19.7114 10.1184 19.7577 10.1087 19.8065C10.0991 19.8552 10.0992 19.9054 10.1091 19.9541C10.1189 20.0028 10.1384 20.0491 10.1663 20.0902C10.1943 20.1313 10.2301 20.1664 10.2717 20.1936C10.3133 20.2207 10.3599 20.2394 10.4088 20.2483C10.4577 20.2573 10.5079 20.2565 10.5564 20.2459C10.605 20.2353 10.6509 20.2152 10.6917 20.1867C10.7324 20.1582 10.767 20.1219 10.7936 20.0799C11.1341 19.5562 11.6 19.1258 12.149 18.8279C12.698 18.53 13.3128 18.374 13.9375 18.374C14.5621 18.374 15.1769 18.53 15.7259 18.8279C16.275 19.1258 16.7409 19.5562 17.0814 20.0799C17.1364 20.1616 17.2213 20.2184 17.3179 20.238C17.4144 20.2576 17.5148 20.2384 17.5974 20.1846C17.6799 20.1308 17.7379 20.0466 17.7589 19.9504C17.7799 19.8541 17.7621 19.7535 17.7095 19.6702C17.1816 18.8577 16.4052 18.2376 15.4961 17.9025ZM11.875 15.5625C11.875 15.1546 11.9959 14.7558 12.2226 14.4166C12.4492 14.0775 12.7713 13.8131 13.1482 13.657C13.5251 13.5009 13.9398 13.4601 14.3398 13.5396C14.7399 13.6192 15.1074 13.8157 15.3959 14.1041C15.6843 14.3925 15.8807 14.7601 15.9603 15.1601C16.0399 15.5602 15.9991 15.9749 15.843 16.3518C15.6869 16.7287 15.4225 17.0508 15.0833 17.2774C14.7441 17.504 14.3454 17.625 13.9375 17.625C13.3906 17.6244 12.8664 17.4069 12.4797 17.0202C12.0931 16.6336 11.8756 16.1093 11.875 15.5625ZM21.7253 20.1891C21.642 20.2434 21.5405 20.2624 21.4432 20.2419C21.3459 20.2214 21.2607 20.1631 21.2064 20.0799C20.8663 19.5558 20.4004 19.1253 19.8513 18.8275C19.3021 18.5297 18.6872 18.3742 18.0625 18.375C17.963 18.375 17.8676 18.3355 17.7973 18.2652C17.727 18.1949 17.6875 18.0995 17.6875 18C17.6875 17.9006 17.727 17.8052 17.7973 17.7348C17.8676 17.6645 17.963 17.625 18.0625 17.625C18.3662 17.6247 18.6661 17.5574 18.9408 17.4277C19.2155 17.2981 19.4581 17.1094 19.6514 16.8751C19.8447 16.6408 19.9839 16.3667 20.059 16.0724C20.1341 15.7781 20.1432 15.4708 20.0858 15.1726C20.0284 14.8743 19.9058 14.5924 19.7268 14.347C19.5478 14.1017 19.3168 13.8988 19.0504 13.7531C18.7839 13.6073 18.4885 13.5222 18.1853 13.5038C17.8822 13.4854 17.5787 13.5342 17.2965 13.6467C17.2505 13.6666 17.201 13.6771 17.1509 13.6775C17.1008 13.6779 17.0511 13.6683 17.0048 13.6492C16.9584 13.6301 16.9164 13.6019 16.8812 13.5663C16.8459 13.5306 16.8182 13.4883 16.7995 13.4418C16.7809 13.3953 16.7718 13.3455 16.7728 13.2954C16.7737 13.2453 16.7847 13.1959 16.8051 13.1501C16.8255 13.1043 16.8548 13.063 16.8914 13.0288C16.928 12.9945 16.9711 12.968 17.0181 12.9506C17.6638 12.6931 18.3819 12.6839 19.0341 12.9246C19.6862 13.1654 20.226 13.6391 20.5495 14.2544C20.8729 14.8697 20.957 15.583 20.7856 16.2567C20.6141 16.9304 20.1993 17.5167 19.6211 17.9025C20.5302 18.2376 21.3066 18.8577 21.8345 19.6702C21.8888 19.7535 21.9078 19.8549 21.8873 19.9522C21.8669 20.0495 21.8086 20.1347 21.7253 20.1891Z" fill="#FF414B"/>
<path d="M15.4961 17.9025C15.9987 17.5679 16.3802 17.0805 16.5844 16.5122C16.7885 15.944 16.8043 15.3252 16.6295 14.7472C16.4548 14.1693 16.0986 13.6629 15.6138 13.3031C15.129 12.9432 14.5412 12.7489 13.9375 12.7489C13.3337 12.7489 12.7459 12.9432 12.2611 13.3031C11.7763 13.6629 11.4202 14.1693 11.2454 14.7472C11.0706 15.3252 11.0864 15.944 11.2906 16.5122C11.4947 17.0805 11.8763 17.5679 12.3789 17.9025C11.4697 18.2376 10.6933 18.8577 10.1654 19.6702C10.1377 19.7114 10.1184 19.7577 10.1087 19.8065C10.0991 19.8552 10.0992 19.9054 10.1091 19.9541C10.1189 20.0028 10.1384 20.0491 10.1663 20.0902C10.1943 20.1313 10.2301 20.1664 10.2717 20.1936C10.3133 20.2207 10.3599 20.2394 10.4088 20.2483C10.4577 20.2573 10.5079 20.2565 10.5564 20.2459C10.605 20.2353 10.6509 20.2152 10.6917 20.1867C10.7324 20.1582 10.767 20.1219 10.7936 20.0799C11.1341 19.5562 11.6 19.1258 12.149 18.8279C12.698 18.53 13.3128 18.374 13.9375 18.374C14.5621 18.374 15.1769 18.53 15.7259 18.8279C16.275 19.1258 16.7409 19.5562 17.0814 20.0799C17.1364 20.1616 17.2213 20.2184 17.3179 20.238C17.4144 20.2576 17.5148 20.2384 17.5974 20.1846C17.6799 20.1308 17.7379 20.0466 17.7589 19.9504C17.7799 19.8541 17.7621 19.7535 17.7095 19.6702C17.1816 18.8577 16.4052 18.2376 15.4961 17.9025ZM11.875 15.5625C11.875 15.1546 11.9959 14.7558 12.2226 14.4166C12.4492 14.0775 12.7713 13.8131 13.1482 13.657C13.5251 13.5009 13.9398 13.4601 14.3398 13.5396C14.7399 13.6192 15.1074 13.8157 15.3959 14.1041C15.6843 14.3925 15.8807 14.7601 15.9603 15.1601C16.0399 15.5602 15.9991 15.9749 15.843 16.3518C15.6869 16.7287 15.4225 17.0508 15.0833 17.2774C14.7441 17.504 14.3454 17.625 13.9375 17.625C13.3906 17.6244 12.8664 17.4069 12.4797 17.0202C12.0931 16.6336 11.8756 16.1093 11.875 15.5625ZM21.7253 20.1891C21.642 20.2434 21.5405 20.2624 21.4432 20.2419C21.3459 20.2214 21.2607 20.1631 21.2064 20.0799C20.8663 19.5558 20.4004 19.1253 19.8513 18.8275C19.3021 18.5297 18.6872 18.3742 18.0625 18.375C17.963 18.375 17.8676 18.3355 17.7973 18.2652C17.727 18.1949 17.6875 18.0995 17.6875 18C17.6875 17.9006 17.727 17.8052 17.7973 17.7348C17.8676 17.6645 17.963 17.625 18.0625 17.625C18.3662 17.6247 18.6661 17.5574 18.9408 17.4277C19.2155 17.2981 19.4581 17.1094 19.6514 16.8751C19.8447 16.6408 19.9839 16.3667 20.059 16.0724C20.1341 15.7781 20.1432 15.4708 20.0858 15.1726C20.0284 14.8743 19.9058 14.5924 19.7268 14.347C19.5478 14.1017 19.3168 13.8988 19.0504 13.7531C18.7839 13.6073 18.4885 13.5222 18.1853 13.5038C17.8822 13.4854 17.5787 13.5342 17.2965 13.6467C17.2505 13.6666 17.201 13.6771 17.1509 13.6775C17.1008 13.6779 17.0511 13.6683 17.0048 13.6492C16.9584 13.6301 16.9164 13.6019 16.8812 13.5663C16.8459 13.5306 16.8182 13.4883 16.7995 13.4418C16.7809 13.3953 16.7718 13.3455 16.7728 13.2954C16.7737 13.2453 16.7847 13.1959 16.8051 13.1501C16.8255 13.1043 16.8548 13.063 16.8914 13.0288C16.928 12.9945 16.9711 12.968 17.0181 12.9506C17.6638 12.6931 18.3819 12.6839 19.0341 12.9246C19.6862 13.1654 20.226 13.6391 20.5495 14.2544C20.8729 14.8697 20.957 15.583 20.7856 16.2567C20.6141 16.9304 20.1993 17.5167 19.6211 17.9025C20.5302 18.2376 21.3066 18.8577 21.8345 19.6702C21.8888 19.7535 21.9078 19.8549 21.8873 19.9522C21.8669 20.0495 21.8086 20.1347 21.7253 20.1891Z" fill="white" fill-opacity="0.8"/>
</svg>
