<svg width="32" height="33" viewBox="0 0 32 33" fill="none" xmlns="http://www.w3.org/2000/svg">
<rect y="0.5" width="32" height="32" rx="16" fill="#FFAE41"/>
<path d="M20.875 20.25C20.875 20.3495 20.8355 20.4448 20.7652 20.5152C20.6948 20.5855 20.5995 20.625 20.5 20.625H11.5C11.4005 20.625 11.3052 20.5855 11.2348 20.5152C11.1645 20.4448 11.125 20.3495 11.125 20.25V12.75C11.125 12.6505 11.1645 12.5552 11.2348 12.4848C11.3052 12.4145 11.4005 12.375 11.5 12.375C11.5995 12.375 11.6948 12.4145 11.7652 12.4848C11.8355 12.5552 11.875 12.6505 11.875 12.75V17.8448L14.2347 15.4847C14.2695 15.4498 14.3109 15.4222 14.3564 15.4033C14.4019 15.3844 14.4507 15.3747 14.5 15.3747C14.5493 15.3747 14.5981 15.3844 14.6436 15.4033C14.6891 15.4222 14.7305 15.4498 14.7653 15.4847L16 16.7198L18.4698 14.25H17.5C17.4005 14.25 17.3052 14.2105 17.2348 14.1402C17.1645 14.0698 17.125 13.9745 17.125 13.875C17.125 13.7755 17.1645 13.6802 17.2348 13.6098C17.3052 13.5395 17.4005 13.5 17.5 13.5H19.375C19.4745 13.5 19.5698 13.5395 19.6402 13.6098C19.7105 13.6802 19.75 13.7755 19.75 13.875V15.75C19.75 15.8495 19.7105 15.9448 19.6402 16.0152C19.5698 16.0855 19.4745 16.125 19.375 16.125C19.2755 16.125 19.1802 16.0855 19.1098 16.0152C19.0395 15.9448 19 15.8495 19 15.75V14.7802L16.2653 17.5153C16.2305 17.5502 16.1891 17.5778 16.1436 17.5967C16.0981 17.6156 16.0493 17.6253 16 17.6253C15.9507 17.6253 15.9019 17.6156 15.8564 17.5967C15.8109 17.5778 15.7695 17.5502 15.7347 17.5153L14.5 16.2802L11.875 18.9052V19.875H20.5C20.5995 19.875 20.6948 19.9145 20.7652 19.9848C20.8355 20.0552 20.875 20.1505 20.875 20.25Z" fill="white"/>
</svg>
