<svg width="58" height="30" viewBox="0 0 58 30" fill="none" xmlns="http://www.w3.org/2000/svg">
<path d="M57 1.20879L52.0155 19.4312C51.4804 21.3872 48.7095 21.3968 48.1609 19.4445L46.9864 15.2647C46.5446 13.6923 44.3385 13.6302 43.8089 15.1752V15.1752C43.2519 16.7998 40.8982 16.6194 40.5953 14.9289L38.5193 3.34178C38.1181 1.10242 34.8853 1.16418 34.57 3.41723L31.3318 26.5506C31.0126 28.8311 27.7264 28.8546 27.3746 26.5789L25.1175 11.9769C24.7781 9.78125 21.6472 9.69303 21.1847 11.8661L21.0642 12.4326L19.5668 19.1449L17.8846 26.088C17.4139 28.0308 14.6986 28.1573 14.0493 26.2667L9.86613 14.0864C9.31969 12.4953 7.17254 12.2486 6.27957 13.6744L5.2663 15.2922C4.34266 16.767 2.10658 16.4403 1.64344 14.763L1 12.4326" stroke="#FF414B" stroke-width="2"/>
</svg>
