<svg width="32" height="33" viewBox="0 0 32 33" fill="none" xmlns="http://www.w3.org/2000/svg">
<rect y="0.5" width="32" height="32" rx="16" fill="#00997E"/>
<path d="M11.275 16.425C11.3144 16.4546 11.3592 16.4761 11.4069 16.4883C11.4546 16.5005 11.5043 16.5032 11.553 16.4962C11.6018 16.4893 11.6487 16.4728 11.6911 16.4477C11.7334 16.4226 11.7705 16.3894 11.8 16.35C12.027 16.0473 12.3215 15.8016 12.6599 15.6323C12.9984 15.4631 13.3716 15.375 13.75 15.375C14.1284 15.375 14.5016 15.4631 14.8401 15.6323C15.1785 15.8016 15.473 16.0473 15.7 16.35C15.7597 16.4295 15.8486 16.482 15.9471 16.496C16.0455 16.51 16.1455 16.4843 16.225 16.4245C16.2533 16.4035 16.2785 16.3784 16.2995 16.35C16.5266 16.0473 16.821 15.8016 17.1594 15.6323C17.4979 15.4631 17.8711 15.375 18.2495 15.375C18.6279 15.375 19.0012 15.4631 19.3396 15.6323C19.6781 15.8016 19.9725 16.0473 20.1995 16.35C20.2593 16.4296 20.3482 16.4821 20.4467 16.4962C20.5452 16.5102 20.6452 16.4845 20.7248 16.4248C20.8043 16.365 20.8569 16.2761 20.8709 16.1776C20.8849 16.0791 20.8593 15.9791 20.7995 15.8995C20.4676 15.4545 20.025 15.1042 19.5156 14.8833C19.7949 14.6284 19.9905 14.295 20.0768 13.9269C20.1632 13.5587 20.1363 13.1731 19.9995 12.8206C19.8628 12.4681 19.6227 12.1651 19.3107 11.9515C18.9988 11.7379 18.6295 11.6236 18.2514 11.6236C17.8733 11.6236 17.504 11.7379 17.1921 11.9515C16.8801 12.1651 16.64 12.4681 16.5033 12.8206C16.3666 13.1731 16.3396 13.5587 16.426 13.9269C16.5123 14.295 16.708 14.6284 16.9872 14.8833C16.6194 15.0423 16.2853 15.27 16.0028 15.5541C15.7203 15.27 15.3862 15.0423 15.0184 14.8833C15.2977 14.6284 15.4933 14.295 15.5797 13.9269C15.666 13.5587 15.6391 13.1731 15.5023 12.8206C15.3656 12.4681 15.1255 12.1651 14.8136 11.9515C14.5016 11.7379 14.1323 11.6236 13.7542 11.6236C13.3761 11.6236 13.0069 11.7379 12.6949 11.9515C12.3829 12.1651 12.1428 12.4681 12.0061 12.8206C11.8694 13.1731 11.8424 13.5587 11.9288 13.9269C12.0151 14.295 12.2108 14.6284 12.49 14.8833C11.9784 15.1035 11.5336 15.454 11.2 15.9C11.1705 15.9394 11.149 15.9842 11.1367 16.0319C11.1245 16.0796 11.1218 16.1293 11.1288 16.178C11.1357 16.2268 11.1522 16.2737 11.1773 16.3161C11.2024 16.3584 11.2356 16.3955 11.275 16.425ZM18.25 12.375C18.4725 12.375 18.69 12.441 18.875 12.5646C19.06 12.6882 19.2042 12.8639 19.2894 13.0695C19.3745 13.2751 19.3968 13.5013 19.3534 13.7195C19.31 13.9377 19.2028 14.1382 19.0455 14.2955C18.8882 14.4528 18.6877 14.56 18.4695 14.6034C18.2512 14.6468 18.025 14.6245 17.8195 14.5394C17.6139 14.4542 17.4382 14.31 17.3146 14.125C17.191 13.94 17.125 13.7225 17.125 13.5C17.125 13.2016 17.2435 12.9155 17.4545 12.7045C17.6655 12.4935 17.9516 12.375 18.25 12.375ZM13.75 12.375C13.9725 12.375 14.19 12.441 14.375 12.5646C14.56 12.6882 14.7042 12.8639 14.7894 13.0695C14.8745 13.2751 14.8968 13.5013 14.8534 13.7195C14.81 13.9377 14.7028 14.1382 14.5455 14.2955C14.3882 14.4528 14.1877 14.56 13.9695 14.6034C13.7512 14.6468 13.525 14.6245 13.3195 14.5394C13.1139 14.4542 12.9382 14.31 12.8146 14.125C12.691 13.94 12.625 13.7225 12.625 13.5C12.625 13.2016 12.7435 12.9155 12.9545 12.7045C13.1655 12.4935 13.4516 12.375 13.75 12.375ZM19.5156 19.7583C19.7949 19.5034 19.9905 19.17 20.0768 18.8019C20.1632 18.4337 20.1363 18.0481 19.9995 17.6956C19.8628 17.3431 19.6227 17.0401 19.3107 16.8265C18.9988 16.6129 18.6295 16.4986 18.2514 16.4986C17.8733 16.4986 17.504 16.6129 17.1921 16.8265C16.8801 17.0401 16.64 17.3431 16.5033 17.6956C16.3666 18.0481 16.3396 18.4337 16.426 18.8019C16.5123 19.17 16.708 19.5034 16.9872 19.7583C16.6194 19.9173 16.2853 20.145 16.0028 20.4291C15.7203 20.145 15.3862 19.9173 15.0184 19.7583C15.2977 19.5034 15.4933 19.17 15.5797 18.8019C15.666 18.4337 15.6391 18.0481 15.5023 17.6956C15.3656 17.3431 15.1255 17.0401 14.8136 16.8265C14.5016 16.6129 14.1323 16.4986 13.7542 16.4986C13.3761 16.4986 13.0069 16.6129 12.6949 16.8265C12.3829 17.0401 12.1428 17.3431 12.0061 17.6956C11.8694 18.0481 11.8424 18.4337 11.9288 18.8019C12.0151 19.17 12.2108 19.5034 12.49 19.7583C11.9784 19.9785 11.5336 20.329 11.2 20.775C11.1705 20.8144 11.149 20.8592 11.1367 20.9069C11.1245 20.9546 11.1218 21.0043 11.1288 21.053C11.1357 21.1018 11.1522 21.1487 11.1773 21.1911C11.2024 21.2334 11.2356 21.2705 11.275 21.3C11.3144 21.3296 11.3592 21.3511 11.4069 21.3633C11.4546 21.3755 11.5043 21.3782 11.553 21.3712C11.6018 21.3643 11.6487 21.3478 11.6911 21.3227C11.7334 21.2976 11.7705 21.2644 11.8 21.225C12.027 20.9223 12.3215 20.6766 12.6599 20.5073C12.9984 20.3381 13.3716 20.25 13.75 20.25C14.1284 20.25 14.5016 20.3381 14.8401 20.5073C15.1785 20.6766 15.473 20.9223 15.7 21.225C15.7597 21.3045 15.8486 21.357 15.9471 21.371C16.0455 21.385 16.1455 21.3593 16.225 21.2995C16.2533 21.2785 16.2785 21.2534 16.2995 21.225C16.5266 20.9223 16.821 20.6766 17.1594 20.5073C17.4979 20.3381 17.8711 20.25 18.2495 20.25C18.6279 20.25 19.0012 20.3381 19.3396 20.5073C19.6781 20.6766 19.9725 20.9223 20.1995 21.225C20.2593 21.3046 20.3482 21.3571 20.4467 21.3712C20.5452 21.3852 20.6452 21.3595 20.7248 21.2998C20.8043 21.24 20.8569 21.1511 20.8709 21.0526C20.8849 20.9541 20.8593 20.8541 20.7995 20.7745C20.4676 20.3295 20.025 19.9792 19.5156 19.7583ZM13.75 17.25C13.9725 17.25 14.19 17.316 14.375 17.4396C14.56 17.5632 14.7042 17.7389 14.7894 17.9445C14.8745 18.1501 14.8968 18.3763 14.8534 18.5945C14.81 18.8127 14.7028 19.0132 14.5455 19.1705C14.3882 19.3278 14.1877 19.435 13.9695 19.4784C13.7512 19.5218 13.525 19.4995 13.3195 19.4144C13.1139 19.3292 12.9382 19.185 12.8146 19C12.691 18.815 12.625 18.5975 12.625 18.375C12.625 18.0766 12.7435 17.7905 12.9545 17.5795C13.1655 17.3685 13.4516 17.25 13.75 17.25ZM18.25 17.25C18.4725 17.25 18.69 17.316 18.875 17.4396C19.06 17.5632 19.2042 17.7389 19.2894 17.9445C19.3745 18.1501 19.3968 18.3763 19.3534 18.5945C19.31 18.8127 19.2028 19.0132 19.0455 19.1705C18.8882 19.3278 18.6877 19.435 18.4695 19.4784C18.2512 19.5218 18.025 19.4995 17.8195 19.4144C17.6139 19.3292 17.4382 19.185 17.3146 19C17.191 18.815 17.125 18.5975 17.125 18.375C17.125 18.0766 17.2435 17.7905 17.4545 17.5795C17.6655 17.3685 17.9516 17.25 18.25 17.25Z" fill="#00997E"/>
<path d="M11.275 16.425C11.3144 16.4546 11.3592 16.4761 11.4069 16.4883C11.4546 16.5005 11.5043 16.5032 11.553 16.4962C11.6018 16.4893 11.6487 16.4728 11.6911 16.4477C11.7334 16.4226 11.7705 16.3894 11.8 16.35C12.027 16.0473 12.3215 15.8016 12.6599 15.6323C12.9984 15.4631 13.3716 15.375 13.75 15.375C14.1284 15.375 14.5016 15.4631 14.8401 15.6323C15.1785 15.8016 15.473 16.0473 15.7 16.35C15.7597 16.4295 15.8486 16.482 15.9471 16.496C16.0455 16.51 16.1455 16.4843 16.225 16.4245C16.2533 16.4035 16.2785 16.3784 16.2995 16.35C16.5266 16.0473 16.821 15.8016 17.1594 15.6323C17.4979 15.4631 17.8711 15.375 18.2495 15.375C18.6279 15.375 19.0012 15.4631 19.3396 15.6323C19.6781 15.8016 19.9725 16.0473 20.1995 16.35C20.2593 16.4296 20.3482 16.4821 20.4467 16.4962C20.5452 16.5102 20.6452 16.4845 20.7248 16.4248C20.8043 16.365 20.8569 16.2761 20.8709 16.1776C20.8849 16.0791 20.8593 15.9791 20.7995 15.8995C20.4676 15.4545 20.025 15.1042 19.5156 14.8833C19.7949 14.6284 19.9905 14.295 20.0768 13.9269C20.1632 13.5587 20.1363 13.1731 19.9995 12.8206C19.8628 12.4681 19.6227 12.1651 19.3107 11.9515C18.9988 11.7379 18.6295 11.6236 18.2514 11.6236C17.8733 11.6236 17.504 11.7379 17.1921 11.9515C16.8801 12.1651 16.64 12.4681 16.5033 12.8206C16.3666 13.1731 16.3396 13.5587 16.426 13.9269C16.5123 14.295 16.708 14.6284 16.9872 14.8833C16.6194 15.0423 16.2853 15.27 16.0028 15.5541C15.7203 15.27 15.3862 15.0423 15.0184 14.8833C15.2977 14.6284 15.4933 14.295 15.5797 13.9269C15.666 13.5587 15.6391 13.1731 15.5023 12.8206C15.3656 12.4681 15.1255 12.1651 14.8136 11.9515C14.5016 11.7379 14.1323 11.6236 13.7542 11.6236C13.3761 11.6236 13.0069 11.7379 12.6949 11.9515C12.3829 12.1651 12.1428 12.4681 12.0061 12.8206C11.8694 13.1731 11.8424 13.5587 11.9288 13.9269C12.0151 14.295 12.2108 14.6284 12.49 14.8833C11.9784 15.1035 11.5336 15.454 11.2 15.9C11.1705 15.9394 11.149 15.9842 11.1367 16.0319C11.1245 16.0796 11.1218 16.1293 11.1288 16.178C11.1357 16.2268 11.1522 16.2737 11.1773 16.3161C11.2024 16.3584 11.2356 16.3955 11.275 16.425ZM18.25 12.375C18.4725 12.375 18.69 12.441 18.875 12.5646C19.06 12.6882 19.2042 12.8639 19.2894 13.0695C19.3745 13.2751 19.3968 13.5013 19.3534 13.7195C19.31 13.9377 19.2028 14.1382 19.0455 14.2955C18.8882 14.4528 18.6877 14.56 18.4695 14.6034C18.2512 14.6468 18.025 14.6245 17.8195 14.5394C17.6139 14.4542 17.4382 14.31 17.3146 14.125C17.191 13.94 17.125 13.7225 17.125 13.5C17.125 13.2016 17.2435 12.9155 17.4545 12.7045C17.6655 12.4935 17.9516 12.375 18.25 12.375ZM13.75 12.375C13.9725 12.375 14.19 12.441 14.375 12.5646C14.56 12.6882 14.7042 12.8639 14.7894 13.0695C14.8745 13.2751 14.8968 13.5013 14.8534 13.7195C14.81 13.9377 14.7028 14.1382 14.5455 14.2955C14.3882 14.4528 14.1877 14.56 13.9695 14.6034C13.7512 14.6468 13.525 14.6245 13.3195 14.5394C13.1139 14.4542 12.9382 14.31 12.8146 14.125C12.691 13.94 12.625 13.7225 12.625 13.5C12.625 13.2016 12.7435 12.9155 12.9545 12.7045C13.1655 12.4935 13.4516 12.375 13.75 12.375ZM19.5156 19.7583C19.7949 19.5034 19.9905 19.17 20.0768 18.8019C20.1632 18.4337 20.1363 18.0481 19.9995 17.6956C19.8628 17.3431 19.6227 17.0401 19.3107 16.8265C18.9988 16.6129 18.6295 16.4986 18.2514 16.4986C17.8733 16.4986 17.504 16.6129 17.1921 16.8265C16.8801 17.0401 16.64 17.3431 16.5033 17.6956C16.3666 18.0481 16.3396 18.4337 16.426 18.8019C16.5123 19.17 16.708 19.5034 16.9872 19.7583C16.6194 19.9173 16.2853 20.145 16.0028 20.4291C15.7203 20.145 15.3862 19.9173 15.0184 19.7583C15.2977 19.5034 15.4933 19.17 15.5797 18.8019C15.666 18.4337 15.6391 18.0481 15.5023 17.6956C15.3656 17.3431 15.1255 17.0401 14.8136 16.8265C14.5016 16.6129 14.1323 16.4986 13.7542 16.4986C13.3761 16.4986 13.0069 16.6129 12.6949 16.8265C12.3829 17.0401 12.1428 17.3431 12.0061 17.6956C11.8694 18.0481 11.8424 18.4337 11.9288 18.8019C12.0151 19.17 12.2108 19.5034 12.49 19.7583C11.9784 19.9785 11.5336 20.329 11.2 20.775C11.1705 20.8144 11.149 20.8592 11.1367 20.9069C11.1245 20.9546 11.1218 21.0043 11.1288 21.053C11.1357 21.1018 11.1522 21.1487 11.1773 21.1911C11.2024 21.2334 11.2356 21.2705 11.275 21.3C11.3144 21.3296 11.3592 21.3511 11.4069 21.3633C11.4546 21.3755 11.5043 21.3782 11.553 21.3712C11.6018 21.3643 11.6487 21.3478 11.6911 21.3227C11.7334 21.2976 11.7705 21.2644 11.8 21.225C12.027 20.9223 12.3215 20.6766 12.6599 20.5073C12.9984 20.3381 13.3716 20.25 13.75 20.25C14.1284 20.25 14.5016 20.3381 14.8401 20.5073C15.1785 20.6766 15.473 20.9223 15.7 21.225C15.7597 21.3045 15.8486 21.357 15.9471 21.371C16.0455 21.385 16.1455 21.3593 16.225 21.2995C16.2533 21.2785 16.2785 21.2534 16.2995 21.225C16.5266 20.9223 16.821 20.6766 17.1594 20.5073C17.4979 20.3381 17.8711 20.25 18.2495 20.25C18.6279 20.25 19.0012 20.3381 19.3396 20.5073C19.6781 20.6766 19.9725 20.9223 20.1995 21.225C20.2593 21.3046 20.3482 21.3571 20.4467 21.3712C20.5452 21.3852 20.6452 21.3595 20.7248 21.2998C20.8043 21.24 20.8569 21.1511 20.8709 21.0526C20.8849 20.9541 20.8593 20.8541 20.7995 20.7745C20.4676 20.3295 20.025 19.9792 19.5156 19.7583ZM13.75 17.25C13.9725 17.25 14.19 17.316 14.375 17.4396C14.56 17.5632 14.7042 17.7389 14.7894 17.9445C14.8745 18.1501 14.8968 18.3763 14.8534 18.5945C14.81 18.8127 14.7028 19.0132 14.5455 19.1705C14.3882 19.3278 14.1877 19.435 13.9695 19.4784C13.7512 19.5218 13.525 19.4995 13.3195 19.4144C13.1139 19.3292 12.9382 19.185 12.8146 19C12.691 18.815 12.625 18.5975 12.625 18.375C12.625 18.0766 12.7435 17.7905 12.9545 17.5795C13.1655 17.3685 13.4516 17.25 13.75 17.25ZM18.25 17.25C18.4725 17.25 18.69 17.316 18.875 17.4396C19.06 17.5632 19.2042 17.7389 19.2894 17.9445C19.3745 18.1501 19.3968 18.3763 19.3534 18.5945C19.31 18.8127 19.2028 19.0132 19.0455 19.1705C18.8882 19.3278 18.6877 19.435 18.4695 19.4784C18.2512 19.5218 18.025 19.4995 17.8195 19.4144C17.6139 19.3292 17.4382 19.185 17.3146 19C17.191 18.815 17.125 18.5975 17.125 18.375C17.125 18.0766 17.2435 17.7905 17.4545 17.5795C17.6655 17.3685 17.9516 17.25 18.25 17.25Z" fill="white" fill-opacity="0.8"/>
</svg>
