<svg width="12" height="10" viewBox="0 0 12 10" fill="none" xmlns="http://www.w3.org/2000/svg">
<path d="M11.25 5.875V8.875C11.25 9.07391 11.171 9.26468 11.0303 9.40533C10.8897 9.54598 10.6989 9.625 10.5 9.625H1.5C1.30109 9.625 1.11032 9.54598 0.96967 9.40533C0.829018 9.26468 0.75 9.07391 0.75 8.875V5.875C0.75 5.67609 0.829018 5.48532 0.96967 5.34467C1.11032 5.20402 1.30109 5.125 1.5 5.125H3.375C3.47446 5.125 3.56984 5.16451 3.64016 5.23484C3.71049 5.30516 3.75 5.40054 3.75 5.5C3.75 5.59946 3.71049 5.69484 3.64016 5.76517C3.56984 5.83549 3.47446 5.875 3.375 5.875H1.5V8.875H10.5V5.875H8.625C8.52554 5.875 8.43016 5.83549 8.35983 5.76517C8.28951 5.69484 8.25 5.59946 8.25 5.5C8.25 5.40054 8.28951 5.30516 8.35983 5.23484C8.43016 5.16451 8.52554 5.125 8.625 5.125H10.5C10.6989 5.125 10.8897 5.20402 11.0303 5.34467C11.171 5.48532 11.25 5.67609 11.25 5.875ZM5.73469 5.76531C5.76951 5.80018 5.81087 5.82784 5.8564 5.84671C5.90192 5.86558 5.95072 5.87529 6 5.87529C6.04928 5.87529 6.09808 5.86558 6.1436 5.84671C6.18913 5.82784 6.23049 5.80018 6.26531 5.76531L8.51531 3.51531C8.58568 3.44495 8.62521 3.34951 8.62521 3.25C8.62521 3.15049 8.58568 3.05505 8.51531 2.98469C8.44495 2.91432 8.34951 2.87479 8.25 2.87479C8.15049 2.87479 8.05505 2.91432 7.98469 2.98469L6.375 4.59484V0.625C6.375 0.525544 6.33549 0.430161 6.26517 0.359835C6.19484 0.289509 6.09946 0.25 6 0.25C5.90054 0.25 5.80516 0.289509 5.73484 0.359835C5.66451 0.430161 5.625 0.525544 5.625 0.625V4.59484L4.01531 2.98469C3.94495 2.91432 3.84951 2.87479 3.75 2.87479C3.65049 2.87479 3.55505 2.91432 3.48469 2.98469C3.41432 3.05505 3.37479 3.15049 3.37479 3.25C3.37479 3.34951 3.41432 3.44495 3.48469 3.51531L5.73469 5.76531ZM9.375 7.375C9.375 7.26375 9.34201 7.15499 9.2802 7.06249C9.21839 6.96999 9.13054 6.89789 9.02776 6.85532C8.92498 6.81274 8.81188 6.8016 8.70276 6.82331C8.59365 6.84501 8.49342 6.89859 8.41475 6.97725C8.33609 7.05592 8.28251 7.15615 8.26081 7.26526C8.2391 7.37438 8.25024 7.48748 8.29282 7.59026C8.33539 7.69304 8.40749 7.78089 8.49999 7.8427C8.59249 7.90451 8.70125 7.9375 8.8125 7.9375C8.96168 7.9375 9.10476 7.87824 9.21025 7.77275C9.31574 7.66726 9.375 7.52418 9.375 7.375Z" fill="white"/>
</svg>
