<svg width="73" height="13" viewBox="0 0 73 13" fill="none" xmlns="http://www.w3.org/2000/svg">
<path d="M11.9082 5.80838L9.61797 7.80713L10.304 10.7829C10.3403 10.9385 10.33 11.1013 10.2742 11.251C10.2185 11.4007 10.1199 11.5307 9.99071 11.6246C9.86152 11.7186 9.7075 11.7724 9.54791 11.7793C9.38831 11.7862 9.23022 11.7459 9.0934 11.6635L6.49797 10.0892L3.90813 11.6635C3.77131 11.7459 3.61322 11.7862 3.45362 11.7793C3.29403 11.7724 3.14001 11.7186 3.01082 11.6246C2.88163 11.5307 2.78301 11.4007 2.72728 11.251C2.67156 11.1013 2.6612 10.9385 2.6975 10.7829L3.38254 7.81018L1.0918 5.80838C0.970639 5.70388 0.883028 5.56594 0.839952 5.41185C0.796877 5.25776 0.800254 5.09439 0.84966 4.94221C0.899066 4.79003 0.992302 4.65583 1.11768 4.55643C1.24305 4.45703 1.39498 4.39686 1.55442 4.38346L4.57387 4.12193L5.7525 1.31068C5.81405 1.16317 5.91787 1.03717 6.05089 0.948542C6.1839 0.859914 6.34016 0.812622 6.5 0.812622C6.65984 0.812622 6.8161 0.859914 6.94912 0.948542C7.08213 1.03717 7.18595 1.16317 7.2475 1.31068L8.42969 4.12193L11.4481 4.38346C11.6076 4.39686 11.7595 4.45703 11.8849 4.55643C12.0102 4.65583 12.1035 4.79003 12.1529 4.94221C12.2023 5.09439 12.2057 5.25776 12.1626 5.41185C12.1195 5.56594 12.0319 5.70388 11.9107 5.80838H11.9082Z" fill="#FFAE41"/>
<path d="M26.9082 5.80838L24.618 7.80713L25.304 10.7829C25.3403 10.9385 25.33 11.1013 25.2742 11.251C25.2185 11.4007 25.1199 11.5307 24.9907 11.6246C24.8615 11.7186 24.7075 11.7724 24.5479 11.7793C24.3883 11.7862 24.2302 11.7459 24.0934 11.6635L21.498 10.0892L18.9081 11.6635C18.7713 11.7459 18.6132 11.7862 18.4536 11.7793C18.294 11.7724 18.14 11.7186 18.0108 11.6246C17.8816 11.5307 17.783 11.4007 17.7273 11.251C17.6716 11.1013 17.6612 10.9385 17.6975 10.7829L18.3825 7.81018L16.0918 5.80838C15.9706 5.70388 15.883 5.56594 15.84 5.41185C15.7969 5.25776 15.8003 5.09439 15.8497 4.94221C15.8991 4.79003 15.9923 4.65583 16.1177 4.55643C16.2431 4.45703 16.395 4.39686 16.5544 4.38346L19.5739 4.12193L20.7525 1.31068C20.8141 1.16317 20.9179 1.03717 21.0509 0.948542C21.1839 0.859914 21.3402 0.812622 21.5 0.812622C21.6598 0.812622 21.8161 0.859914 21.9491 0.948542C22.0821 1.03717 22.186 1.16317 22.2475 1.31068L23.4297 4.12193L26.4481 4.38346C26.6076 4.39686 26.7595 4.45703 26.8849 4.55643C27.0102 4.65583 27.1035 4.79003 27.1529 4.94221C27.2023 5.09439 27.2057 5.25776 27.1626 5.41185C27.1195 5.56594 27.0319 5.70388 26.9107 5.80838H26.9082Z" fill="#FFAE41"/>
<path d="M41.9082 5.80838L39.618 7.80713L40.304 10.7829C40.3403 10.9385 40.33 11.1013 40.2742 11.251C40.2185 11.4007 40.1199 11.5307 39.9907 11.6246C39.8615 11.7186 39.7075 11.7724 39.5479 11.7793C39.3883 11.7862 39.2302 11.7459 39.0934 11.6635L36.498 10.0892L33.9081 11.6635C33.7713 11.7459 33.6132 11.7862 33.4536 11.7793C33.294 11.7724 33.14 11.7186 33.0108 11.6246C32.8816 11.5307 32.783 11.4007 32.7273 11.251C32.6716 11.1013 32.6612 10.9385 32.6975 10.7829L33.3825 7.81018L31.0918 5.80838C30.9706 5.70388 30.883 5.56594 30.84 5.41185C30.7969 5.25776 30.8003 5.09439 30.8497 4.94221C30.8991 4.79003 30.9923 4.65583 31.1177 4.55643C31.2431 4.45703 31.395 4.39686 31.5544 4.38346L34.5739 4.12193L35.7525 1.31068C35.8141 1.16317 35.9179 1.03717 36.0509 0.948542C36.1839 0.859914 36.3402 0.812622 36.5 0.812622C36.6598 0.812622 36.8161 0.859914 36.9491 0.948542C37.0821 1.03717 37.186 1.16317 37.2475 1.31068L38.4297 4.12193L41.4481 4.38346C41.6076 4.39686 41.7595 4.45703 41.8849 4.55643C42.0102 4.65583 42.1035 4.79003 42.1529 4.94221C42.2023 5.09439 42.2057 5.25776 42.1626 5.41185C42.1195 5.56594 42.0319 5.70388 41.9107 5.80838H41.9082Z" fill="#FFAE41"/>
<path d="M56.9082 5.80838L54.618 7.80713L55.304 10.7829C55.3403 10.9385 55.33 11.1013 55.2742 11.251C55.2185 11.4007 55.1199 11.5307 54.9907 11.6246C54.8615 11.7186 54.7075 11.7724 54.5479 11.7793C54.3883 11.7862 54.2302 11.7459 54.0934 11.6635L51.498 10.0892L48.9081 11.6635C48.7713 11.7459 48.6132 11.7862 48.4536 11.7793C48.294 11.7724 48.14 11.7186 48.0108 11.6246C47.8816 11.5307 47.783 11.4007 47.7273 11.251C47.6716 11.1013 47.6612 10.9385 47.6975 10.7829L48.3825 7.81018L46.0918 5.80838C45.9706 5.70388 45.883 5.56594 45.84 5.41185C45.7969 5.25776 45.8003 5.09439 45.8497 4.94221C45.8991 4.79003 45.9923 4.65583 46.1177 4.55643C46.2431 4.45703 46.395 4.39686 46.5544 4.38346L49.5739 4.12193L50.7525 1.31068C50.8141 1.16317 50.9179 1.03717 51.0509 0.948542C51.1839 0.859914 51.3402 0.812622 51.5 0.812622C51.6598 0.812622 51.8161 0.859914 51.9491 0.948542C52.0821 1.03717 52.186 1.16317 52.2475 1.31068L53.4297 4.12193L56.4481 4.38346C56.6076 4.39686 56.7595 4.45703 56.8849 4.55643C57.0102 4.65583 57.1035 4.79003 57.1529 4.94221C57.2023 5.09439 57.2057 5.25776 57.1626 5.41185C57.1195 5.56594 57.0319 5.70388 56.9107 5.80838H56.9082Z" fill="#FFAE41"/>
<path d="M71.9082 5.80838L69.618 7.80713L70.304 10.7829C70.3403 10.9385 70.33 11.1013 70.2742 11.251C70.2185 11.4007 70.1199 11.5307 69.9907 11.6246C69.8615 11.7186 69.7075 11.7724 69.5479 11.7793C69.3883 11.7862 69.2302 11.7459 69.0934 11.6635L66.498 10.0892L63.9081 11.6635C63.7713 11.7459 63.6132 11.7862 63.4536 11.7793C63.294 11.7724 63.14 11.7186 63.0108 11.6246C62.8816 11.5307 62.783 11.4007 62.7273 11.251C62.6716 11.1013 62.6612 10.9385 62.6975 10.7829L63.3825 7.81018L61.0918 5.80838C60.9706 5.70388 60.883 5.56594 60.84 5.41185C60.7969 5.25776 60.8003 5.09439 60.8497 4.94221C60.8991 4.79003 60.9923 4.65583 61.1177 4.55643C61.2431 4.45703 61.395 4.39686 61.5544 4.38346L64.5739 4.12193L65.7525 1.31068C65.8141 1.16317 65.9179 1.03717 66.0509 0.948542C66.1839 0.859914 66.3402 0.812622 66.5 0.812622C66.6598 0.812622 66.8161 0.859914 66.9491 0.948542C67.0821 1.03717 67.186 1.16317 67.2475 1.31068L68.4297 4.12193L71.4481 4.38346C71.6076 4.39686 71.7595 4.45703 71.8849 4.55643C72.0102 4.65583 72.1035 4.79003 72.1529 4.94221C72.2023 5.09439 72.2057 5.25776 72.1626 5.41185C72.1195 5.56594 72.0319 5.70388 71.9107 5.80838H71.9082Z" fill="#D3D3D4"/>
</svg>
