<svg width="22" height="22" viewBox="0 0 22 22" fill="none" xmlns="http://www.w3.org/2000/svg">
<rect width="22" height="22" rx="11" fill="#5655D7" fill-opacity="0.16"/>
<path d="M15.6552 8.43921L13.5608 6.34436C13.4911 6.2747 13.4085 6.21944 13.3174 6.18174C13.2264 6.14404 13.1289 6.12463 13.0304 6.12463C12.9319 6.12463 12.8343 6.14404 12.7433 6.18174C12.6523 6.21944 12.5696 6.2747 12.5 6.34436L6.71985 12.125C6.6499 12.1944 6.59444 12.277 6.5567 12.368C6.51896 12.459 6.49969 12.5566 6.5 12.6551V14.75C6.5 14.9489 6.57902 15.1397 6.71967 15.2803C6.86033 15.421 7.05109 15.5 7.25 15.5H9.34485C9.44338 15.5003 9.54098 15.481 9.632 15.4433C9.72301 15.4055 9.80561 15.3501 9.875 15.2801L15.6552 9.49999C15.7248 9.43034 15.7801 9.34766 15.8178 9.25665C15.8555 9.16565 15.8749 9.0681 15.8749 8.9696C15.8749 8.87109 15.8555 8.77355 15.8178 8.68255C15.7801 8.59154 15.7248 8.50885 15.6552 8.43921ZM9.34485 14.75H7.25V12.6551L11.375 8.53015L13.4698 10.625L9.34485 14.75ZM14 10.0944L11.9052 7.99999L13.0302 6.87499L15.125 8.96936L14 10.0944Z" fill="#5655D7"/>
</svg>
