<svg width="22" height="22" viewBox="0 0 22 22" fill="none" xmlns="http://www.w3.org/2000/svg">
<rect width="22" height="22" rx="11" fill="#00997E" fill-opacity="0.16"/>
<path d="M13.1403 9.60969C13.1752 9.64451 13.2028 9.68587 13.2217 9.7314C13.2406 9.77692 13.2503 9.82572 13.2503 9.875C13.2503 9.92428 13.2406 9.97308 13.2217 10.0186C13.2028 10.0641 13.1752 10.1055 13.1403 10.1403L10.5153 12.7653C10.4805 12.8002 10.4391 12.8278 10.3936 12.8467C10.3481 12.8656 10.2993 12.8753 10.25 12.8753C10.2007 12.8753 10.1519 12.8656 10.1064 12.8467C10.0609 12.8278 10.0195 12.8002 9.98469 12.7653L8.85969 11.6403C8.78932 11.5699 8.74979 11.4745 8.74979 11.375C8.74979 11.2755 8.78932 11.1801 8.85969 11.1097C8.93005 11.0393 9.02549 10.9998 9.125 10.9998C9.22451 10.9998 9.31995 11.0393 9.39031 11.1097L10.25 11.9698L12.6097 9.60969C12.6445 9.57482 12.6859 9.54716 12.7314 9.52829C12.7769 9.50942 12.8257 9.4997 12.875 9.4997C12.9243 9.4997 12.9731 9.50942 13.0186 9.52829C13.0641 9.54716 13.1055 9.57482 13.1403 9.60969ZM15.875 11C15.875 11.9642 15.5891 12.9067 15.0534 13.7084C14.5177 14.5101 13.7564 15.1349 12.8656 15.5039C11.9748 15.8729 10.9946 15.9694 10.0489 15.7813C9.10328 15.5932 8.23464 15.1289 7.55286 14.4471C6.87108 13.7654 6.40678 12.8967 6.21867 11.9511C6.03057 11.0054 6.12711 10.0252 6.49609 9.13442C6.86507 8.24363 7.48991 7.48226 8.2916 6.94659C9.09329 6.41091 10.0358 6.125 11 6.125C12.2925 6.12636 13.5317 6.64042 14.4456 7.55436C15.3596 8.46831 15.8736 9.70749 15.875 11ZM15.125 11C15.125 10.1842 14.8831 9.38663 14.4298 8.70827C13.9766 8.02992 13.3323 7.50121 12.5786 7.189C11.8248 6.87679 10.9954 6.7951 10.1953 6.95426C9.39508 7.11342 8.66008 7.50629 8.08319 8.08318C7.5063 8.66008 7.11343 9.39508 6.95426 10.1953C6.7951 10.9954 6.87679 11.8248 7.189 12.5786C7.50121 13.3323 8.02992 13.9766 8.70827 14.4298C9.38663 14.8831 10.1842 15.125 11 15.125C12.0936 15.1238 13.1421 14.6888 13.9154 13.9154C14.6888 13.1421 15.1238 12.0936 15.125 11Z" fill="#00997E"/>
</svg>
