<svg width="17" height="16" viewBox="0 0 17 16" fill="none" xmlns="http://www.w3.org/2000/svg">
<path d="M15.7586 4.10361L12.268 0.612208C12.1519 0.496105 12.0141 0.404005 11.8624 0.341169C11.7107 0.278332 11.5482 0.245991 11.384 0.245991C11.2198 0.245991 11.0572 0.278332 10.9056 0.341169C10.7539 0.404005 10.6161 0.496105 10.5 0.612208L0.866412 10.2466C0.749834 10.3622 0.657407 10.4999 0.594506 10.6516C0.531604 10.8033 0.499482 10.966 0.500006 11.1302V14.6216C0.500006 14.9531 0.631702 15.271 0.866123 15.5055C1.10054 15.7399 1.41849 15.8716 1.75001 15.8716H5.24141C5.40563 15.8721 5.5683 15.84 5.71999 15.7771C5.87168 15.7142 6.00935 15.6218 6.12501 15.5052L15.7586 5.87158C15.8747 5.75551 15.9668 5.61769 16.0296 5.46602C16.0925 5.31434 16.1248 5.15177 16.1248 4.9876C16.1248 4.82342 16.0925 4.66085 16.0296 4.50918C15.9668 4.3575 15.8747 4.21969 15.7586 4.10361ZM5.24141 14.6216H1.75001V11.1302L8.62501 4.25518L12.1164 7.74658L5.24141 14.6216ZM13 6.86221L9.5086 3.37158L11.3836 1.49658L14.875 4.98721L13 6.86221Z" fill="#7A7C7F"/>
</svg>
