<svg width="20" height="21" viewBox="0 0 20 21" fill="none" xmlns="http://www.w3.org/2000/svg">
<path d="M19.3211 10.1185C19.2937 10.0567 18.632 8.58877 17.1609 7.11768C15.2008 5.15752 12.725 4.12158 9.99999 4.12158C7.27499 4.12158 4.79921 5.15752 2.83905 7.11768C1.36796 8.58877 0.703118 10.0591 0.678899 10.1185C0.643362 10.1984 0.625 10.2849 0.625 10.3724C0.625 10.4598 0.643362 10.5463 0.678899 10.6263C0.706243 10.688 1.36796 12.1552 2.83905 13.6263C4.79921 15.5856 7.27499 16.6216 9.99999 16.6216C12.725 16.6216 15.2008 15.5856 17.1609 13.6263C18.632 12.1552 19.2937 10.688 19.3211 10.6263C19.3566 10.5463 19.375 10.4598 19.375 10.3724C19.375 10.2849 19.3566 10.1984 19.3211 10.1185ZM9.99999 15.3716C7.5953 15.3716 5.49452 14.4974 3.75546 12.7739C3.0419 12.0643 2.43483 11.2551 1.95312 10.3716C2.4347 9.48794 3.04179 8.67875 3.75546 7.96924C5.49452 6.2458 7.5953 5.37158 9.99999 5.37158C12.4047 5.37158 14.5055 6.2458 16.2445 7.96924C16.9595 8.67858 17.5679 9.48777 18.0508 10.3716C17.4875 11.4231 15.0336 15.3716 9.99999 15.3716ZM9.99999 6.62158C9.25831 6.62158 8.53329 6.84152 7.9166 7.25357C7.29992 7.66563 6.81927 8.2513 6.53544 8.93652C6.25162 9.62174 6.17735 10.3757 6.32205 11.1032C6.46674 11.8306 6.82389 12.4988 7.34834 13.0232C7.87279 13.5477 8.54097 13.9048 9.2684 14.0495C9.99583 14.1942 10.7498 14.12 11.4351 13.8361C12.1203 13.5523 12.7059 13.0717 13.118 12.455C13.5301 11.8383 13.75 11.1133 13.75 10.3716C13.749 9.37734 13.3535 8.42411 12.6505 7.72107C11.9475 7.01804 10.9942 6.62262 9.99999 6.62158ZM9.99999 12.8716C9.50554 12.8716 9.02219 12.725 8.61107 12.4503C8.19994 12.1756 7.87951 11.7851 7.69029 11.3283C7.50107 10.8715 7.45157 10.3688 7.54803 9.88386C7.64449 9.3989 7.88259 8.95345 8.23222 8.60382C8.58186 8.25418 9.02731 8.01608 9.51227 7.91962C9.99722 7.82316 10.4999 7.87266 10.9567 8.06188C11.4135 8.2511 11.804 8.57153 12.0787 8.98266C12.3534 9.39378 12.5 9.87713 12.5 10.3716C12.5 11.0346 12.2366 11.6705 11.7678 12.1393C11.2989 12.6082 10.663 12.8716 9.99999 12.8716Z" fill="#7A7C7F"/>
</svg>
