<svg width="20" height="21" viewBox="0 0 20 21" fill="none" xmlns="http://www.w3.org/2000/svg">
<path d="M16.7711 5.99658H15.625V3.49658C15.625 3.33082 15.5592 3.17185 15.4419 3.05464C15.3247 2.93743 15.1658 2.87158 15 2.87158H5C4.83424 2.87158 4.67527 2.93743 4.55806 3.05464C4.44085 3.17185 4.375 3.33082 4.375 3.49658V5.99658H3.22891C2.1375 5.99658 1.25 6.83799 1.25 7.87158V14.1216C1.25 14.2873 1.31585 14.4463 1.43306 14.5635C1.55027 14.6807 1.70924 14.7466 1.875 14.7466H4.375V17.2466C4.375 17.4123 4.44085 17.5713 4.55806 17.6885C4.67527 17.8057 4.83424 17.8716 5 17.8716H15C15.1658 17.8716 15.3247 17.8057 15.4419 17.6885C15.5592 17.5713 15.625 17.4123 15.625 17.2466V14.7466H18.125C18.2908 14.7466 18.4497 14.6807 18.5669 14.5635C18.6842 14.4463 18.75 14.2873 18.75 14.1216V7.87158C18.75 6.83799 17.8625 5.99658 16.7711 5.99658ZM5.625 4.12158H14.375V5.99658H5.625V4.12158ZM14.375 16.6216H5.625V12.8716H14.375V16.6216ZM17.5 13.4966H15.625V12.2466C15.625 12.0808 15.5592 11.9219 15.4419 11.8046C15.3247 11.6874 15.1658 11.6216 15 11.6216H5C4.83424 11.6216 4.67527 11.6874 4.55806 11.8046C4.44085 11.9219 4.375 12.0808 4.375 12.2466V13.4966H2.5V7.87158C2.5 7.52705 2.82734 7.24658 3.22891 7.24658H16.7711C17.1727 7.24658 17.5 7.52705 17.5 7.87158V13.4966ZM15.625 9.43408C15.625 9.6195 15.57 9.80076 15.467 9.95493C15.364 10.1091 15.2176 10.2293 15.0463 10.3002C14.875 10.3712 14.6865 10.3897 14.5046 10.3536C14.3227 10.3174 14.1557 10.2281 14.0246 10.097C13.8935 9.96588 13.8042 9.79884 13.768 9.61698C13.7318 9.43512 13.7504 9.24662 13.8214 9.07532C13.8923 8.90401 14.0125 8.75759 14.1667 8.65458C14.3208 8.55157 14.5021 8.49658 14.6875 8.49658C14.9361 8.49658 15.1746 8.59535 15.3504 8.77117C15.5262 8.94698 15.625 9.18544 15.625 9.43408Z" fill="#7A7C7F"/>
</svg>
