<svg width="77" height="78" viewBox="0 0 77 78" fill="none" xmlns="http://www.w3.org/2000/svg">
<circle cx="38.5" cy="38.5272" r="30.0385" stroke="#F7F8FA" stroke-width="16.9231" stroke-linecap="round"/>
<path d="M38.5 70.2897C38.5 74.0107 35.4609 77.0871 31.7968 76.4392C27.8104 75.7343 23.9461 74.4027 20.3512 72.4812C14.7675 69.4966 10.0059 65.181 6.48842 59.9167C2.9709 54.6523 0.80597 48.6018 0.185388 42.3009C-0.435194 36 0.50773 29.6433 2.93064 23.7939C5.35354 17.9445 9.18165 12.7829 14.0759 8.76632C18.9701 4.74975 24.7793 2.00218 30.989 0.766989C37.1987 -0.468199 43.6172 -0.152879 49.676 1.68502C53.5767 2.86828 57.2507 4.65914 60.5679 6.9795C63.617 9.11235 63.5906 13.4366 60.9595 16.0677C58.3283 18.6989 54.0873 18.599 50.851 16.7625C49.2474 15.8525 47.5421 15.1191 45.7644 14.5798C41.8262 13.3852 37.6542 13.1802 33.6179 13.9831C29.5816 14.7859 25.8055 16.5719 22.6243 19.1826C19.4431 21.7934 16.9548 25.1484 15.3799 28.9506C13.805 32.7527 13.1921 36.8845 13.5955 40.9801C13.9989 45.0757 15.4061 49.0085 17.6925 52.4304C19.9789 55.8522 23.0739 58.6573 26.7033 60.5973C28.3416 61.473 30.0661 62.1602 31.8435 62.6507C35.4305 63.6405 38.5 66.5687 38.5 70.2897Z" fill="url(#paint0_linear_609_16941)"/>
<g filter="url(#filter0_d_609_16941)">
<rect x="12" y="12.0272" width="53" height="53" rx="26.5" fill="white"/>
</g>
<path d="M46.97 31.2288L38.72 26.7147C38.4996 26.5929 38.2518 26.5291 38 26.5291C37.7482 26.5291 37.5004 26.5929 37.28 26.7147L29.03 31.2307C28.7944 31.3596 28.5977 31.5494 28.4605 31.7803C28.3233 32.0111 28.2506 32.2746 28.25 32.5432V41.5094C28.2506 41.778 28.3233 42.0415 28.4605 42.2723C28.5977 42.5032 28.7944 42.693 29.03 42.8219L37.28 47.3379C37.5004 47.4597 37.7482 47.5236 38 47.5236C38.2518 47.5236 38.4996 47.4597 38.72 47.3379L46.97 42.8219C47.2056 42.693 47.4023 42.5032 47.5395 42.2723C47.6767 42.0415 47.7494 41.778 47.75 41.5094V32.5441C47.7499 32.2751 47.6774 32.011 47.5402 31.7796C47.403 31.5482 47.206 31.3579 46.97 31.2288ZM38 28.0272L45.5319 32.1522L42.7409 33.6804L35.2081 29.5554L38 28.0272ZM38 36.2772L30.4681 32.1522L33.6462 30.4122L41.1781 34.5372L38 36.2772ZM29.75 33.4647L37.25 37.5691V45.6119L29.75 41.5104V33.4647ZM46.25 41.5066L38.75 45.6119V37.5729L41.75 35.9313V39.2772C41.75 39.4762 41.829 39.6669 41.9697 39.8076C42.1103 39.9482 42.3011 40.0272 42.5 40.0272C42.6989 40.0272 42.8897 39.9482 43.0303 39.8076C43.171 39.6669 43.25 39.4762 43.25 39.2772V35.1101L46.25 33.4647V41.5057V41.5066Z" fill="url(#paint1_linear_609_16941)"/>
<defs>
<filter id="filter0_d_609_16941" x="6" y="8.02722" width="65" height="65" filterUnits="userSpaceOnUse" color-interpolation-filters="sRGB">
<feFlood flood-opacity="0" result="BackgroundImageFix"/>
<feColorMatrix in="SourceAlpha" type="matrix" values="0 0 0 0 0 0 0 0 0 0 0 0 0 0 0 0 0 0 127 0" result="hardAlpha"/>
<feOffset dy="2"/>
<feGaussianBlur stdDeviation="3"/>
<feComposite in2="hardAlpha" operator="out"/>
<feColorMatrix type="matrix" values="0 0 0 0 0.564706 0 0 0 0 0.572549 0 0 0 0 0.580392 0 0 0 0.2 0"/>
<feBlend mode="normal" in2="BackgroundImageFix" result="effect1_dropShadow_609_16941"/>
<feBlend mode="normal" in="SourceGraphic" in2="effect1_dropShadow_609_16941" result="shape"/>
</filter>
<linearGradient id="paint0_linear_609_16941" x1="-3.76486e-07" y1="77.0272" x2="77" y2="0.0272213" gradientUnits="userSpaceOnUse">
<stop stop-color="#5655D7"/>
<stop offset="1" stop-color="#7F7EFF"/>
</linearGradient>
<linearGradient id="paint1_linear_609_16941" x1="28.25" y1="47.5235" x2="49.1874" y2="28.0766" gradientUnits="userSpaceOnUse">
<stop stop-color="#5655D7"/>
<stop offset="1" stop-color="#7F7EFF"/>
</linearGradient>
</defs>
</svg>
