<svg width="77" height="78" viewBox="0 0 77 78" fill="none" xmlns="http://www.w3.org/2000/svg">
<circle cx="38.5" cy="38.5272" r="30.0385" stroke="#F7F8FA" stroke-width="16.9231" stroke-linecap="round"/>
<path d="M38.5 70.2897C38.5 74.0107 35.4608 77.0872 31.7967 76.4392C25.0752 75.2508 18.7478 72.2881 13.4963 67.8028C6.52563 61.8494 1.90803 53.6041 0.473999 44.5499C-0.960031 35.4958 0.883624 26.2272 5.67335 18.411C9.28186 12.5225 14.3841 7.74954 20.4093 4.54219C23.6939 2.79371 27.535 4.78039 28.6848 8.31929C29.8347 11.8582 27.8202 15.5916 24.7147 17.6414C21.6781 19.6457 19.0919 22.3034 17.1627 25.4517C14.0494 30.5322 12.851 36.5568 13.7831 42.442C14.7152 48.3272 17.7167 53.6866 22.2476 57.5564C25.0553 59.9544 28.3361 61.6828 31.8435 62.6507C35.4304 63.6405 38.5 66.5687 38.5 70.2897Z" fill="url(#paint0_linear_609_16957)"/>
<g filter="url(#filter0_d_609_16957)">
<rect x="12" y="12.0272" width="53" height="53" rx="26.5" fill="white"/>
</g>
<path d="M43.3747 35.7345L46.1066 33.1638L46.1225 33.1479C46.6852 32.5852 47.0013 31.8221 47.0013 31.0263C47.0013 30.2306 46.6852 29.4675 46.1225 28.9048C45.5598 28.3421 44.7967 28.026 44.0009 28.026C43.2052 28.026 42.4421 28.3421 41.8794 28.9048C41.8794 28.9104 41.8691 28.9151 41.8634 28.9207L39.2928 31.6526L31.5116 28.8213C31.3775 28.7726 31.2322 28.7631 31.0929 28.7939C30.9536 28.8248 30.8259 28.8948 30.725 28.9957L28.475 31.2457C28.3966 31.3242 28.3366 31.4191 28.2993 31.5235C28.2619 31.628 28.2483 31.7394 28.2592 31.8498C28.2701 31.9602 28.3054 32.0668 28.3625 32.1619C28.4196 32.257 28.4971 32.3382 28.5894 32.3998L34.5791 36.3926L33.1897 37.7773H31.25C31.0514 37.7774 30.8609 37.8563 30.7203 37.9967L28.4703 40.2467C28.3826 40.3342 28.3179 40.4421 28.282 40.5608C28.2462 40.6794 28.2403 40.8051 28.2649 40.9266C28.2895 41.048 28.3439 41.1615 28.4231 41.2569C28.5023 41.3522 28.6039 41.4264 28.7188 41.4729L32.1706 42.8538L33.5488 46.2992L33.5544 46.3142C33.6021 46.4296 33.6778 46.5312 33.7747 46.61C33.8716 46.6887 33.9867 46.742 34.1094 46.765C34.2321 46.788 34.3587 46.78 34.4775 46.7417C34.5964 46.7034 34.7038 46.636 34.79 46.5457L37.0278 44.307C37.0978 44.2376 37.1535 44.1551 37.1916 44.0642C37.2298 43.9734 37.2496 43.8758 37.25 43.7773V41.8376L38.6338 40.4538L42.6266 46.4435C42.6881 46.5358 42.7694 46.6133 42.8645 46.6704C42.9596 46.7275 43.0662 46.7628 43.1765 46.7737C43.2869 46.7846 43.3984 46.771 43.5028 46.7337C43.6073 46.6963 43.7022 46.6363 43.7806 46.5579L46.0306 44.3079C46.1315 44.207 46.2015 44.0794 46.2324 43.94C46.2633 43.8007 46.2538 43.6555 46.205 43.5213L43.3747 35.7345ZM43.3681 44.8498L39.3753 38.861C39.3141 38.768 39.233 38.6899 39.1378 38.6321C39.0426 38.5744 38.9358 38.5386 38.825 38.5273C38.7997 38.5273 38.7753 38.5273 38.7509 38.5273C38.6524 38.5273 38.5547 38.5468 38.4637 38.5846C38.3726 38.6224 38.2899 38.6778 38.2203 38.7476L35.9703 40.9976C35.8296 41.138 35.7503 41.3285 35.75 41.5273V43.467L34.5247 44.6923L33.4466 41.996C33.4088 41.9024 33.3526 41.8174 33.2813 41.746C33.2099 41.6747 33.1249 41.6184 33.0313 41.5807L30.3369 40.5026L31.5613 39.2773H33.5C33.5985 39.2774 33.6961 39.258 33.7871 39.2204C33.8782 39.1827 33.9609 39.1275 34.0306 39.0579L36.2806 36.8079C36.3592 36.7294 36.4194 36.6345 36.4568 36.5299C36.4942 36.4254 36.5079 36.3138 36.497 36.2033C36.4861 36.0928 36.4507 35.9861 36.3935 35.8909C36.3363 35.7957 36.2587 35.7144 36.1663 35.6529L30.1775 31.6592L31.4431 30.3945L39.245 33.2313C39.3825 33.2819 39.5317 33.291 39.6743 33.2577C39.8169 33.2244 39.9467 33.15 40.0475 33.0438L42.9481 29.9585C43.2309 29.6841 43.6102 29.5319 44.0042 29.5349C44.3982 29.5378 44.7753 29.6957 45.0538 29.9744C45.3324 30.2531 45.4901 30.6302 45.4929 31.0242C45.4957 31.4182 45.3433 31.7975 45.0688 32.0801L41.9872 34.9798C41.881 35.0806 41.8067 35.2104 41.7733 35.353C41.74 35.4956 41.7492 35.6448 41.7997 35.7823L44.6366 43.5842L43.3681 44.8498Z" fill="url(#paint1_linear_609_16957)"/>
<defs>
<filter id="filter0_d_609_16957" x="6" y="8.02722" width="65" height="65" filterUnits="userSpaceOnUse" color-interpolation-filters="sRGB">
<feFlood flood-opacity="0" result="BackgroundImageFix"/>
<feColorMatrix in="SourceAlpha" type="matrix" values="0 0 0 0 0 0 0 0 0 0 0 0 0 0 0 0 0 0 127 0" result="hardAlpha"/>
<feOffset dy="2"/>
<feGaussianBlur stdDeviation="3"/>
<feComposite in2="hardAlpha" operator="out"/>
<feColorMatrix type="matrix" values="0 0 0 0 0.564706 0 0 0 0 0.572549 0 0 0 0 0.580392 0 0 0 0.2 0"/>
<feBlend mode="normal" in2="BackgroundImageFix" result="effect1_dropShadow_609_16957"/>
<feBlend mode="normal" in="SourceGraphic" in2="effect1_dropShadow_609_16957" result="shape"/>
</filter>
<linearGradient id="paint0_linear_609_16957" x1="-3.76486e-07" y1="77.0272" x2="77" y2="0.0272213" gradientUnits="userSpaceOnUse">
<stop stop-color="#00997E"/>
<stop offset="1" stop-color="#00C9A5"/>
</linearGradient>
<linearGradient id="paint1_linear_609_16957" x1="28.25" y1="46.7778" x2="47.0018" y2="28.0265" gradientUnits="userSpaceOnUse">
<stop stop-color="#00997E"/>
<stop offset="1" stop-color="#00C9A5"/>
</linearGradient>
</defs>
</svg>
