<svg width="77" height="78" viewBox="0 0 77 78" fill="none" xmlns="http://www.w3.org/2000/svg">
<circle cx="38.5" cy="38.5272" r="30.0385" stroke="#F7F8FA" stroke-width="16.9231" stroke-linecap="round"/>
<path d="M38.5 70.2897C38.5 74.0107 35.4609 77.0871 31.7967 76.4392C26.271 75.4622 20.9976 73.2838 16.3623 70.026C9.87937 65.4697 4.96021 59.0241 2.27609 51.5686C-0.408031 44.1132 -0.72636 36.0111 1.36454 28.3681C3.45544 20.7251 7.85372 13.9133 13.9592 8.86246C20.0646 3.81158 27.5799 0.767603 35.4793 0.145904C43.3788 -0.475796 51.2777 1.35507 58.0981 5.38866C64.9185 9.42225 70.3282 15.4621 73.589 22.6839C75.9205 27.8476 77.0722 33.4357 76.9965 39.0467C76.9463 42.7674 73.355 45.1762 69.6999 44.4789C66.0448 43.7817 63.7436 40.2178 63.4435 36.5089C63.2132 33.6632 62.4964 30.8613 61.3079 28.2291C59.1884 23.5349 55.672 19.609 51.2388 16.9872C46.8055 14.3653 41.6712 13.1753 36.5366 13.5794C31.4019 13.9835 26.517 15.9621 22.5485 19.2451C18.5799 22.5282 15.721 26.9558 14.362 31.9238C13.0029 36.8918 13.2098 42.1581 14.9545 47.0041C16.6991 51.8502 19.8966 56.0398 24.1105 59.0014C26.4734 60.6621 29.0914 61.8913 31.8435 62.6507C35.4305 63.6405 38.5 66.5687 38.5 70.2897Z" fill="url(#paint0_linear_609_16973)"/>
<g filter="url(#filter0_d_609_16973)">
<rect x="12" y="12.0272" width="53" height="53" rx="26.5" fill="white"/>
</g>
<path d="M49.1956 35.996L47.8831 32.7147C47.7718 32.4371 47.5796 32.1993 47.3316 32.0322C47.0835 31.865 46.791 31.7762 46.4919 31.7772H43.25V31.0272C43.25 30.8283 43.171 30.6375 43.0303 30.4969C42.8897 30.3562 42.6989 30.2772 42.5 30.2772H28.25C27.8522 30.2772 27.4706 30.4353 27.1893 30.7166C26.908 30.9979 26.75 31.3794 26.75 31.7772V42.2772C26.75 42.675 26.908 43.0566 27.1893 43.3379C27.4706 43.6192 27.8522 43.7772 28.25 43.7772H29.8438C30.009 44.4225 30.3843 44.9945 30.9105 45.403C31.4367 45.8114 32.0839 46.0331 32.75 46.0331C33.4161 46.0331 34.0633 45.8114 34.5895 45.403C35.1157 44.9945 35.491 44.4225 35.6563 43.7772H40.3438C40.509 44.4225 40.8843 44.9945 41.4105 45.403C41.9367 45.8114 42.5839 46.0331 43.25 46.0331C43.9161 46.0331 44.5633 45.8114 45.0895 45.403C45.6157 44.9945 45.991 44.4225 46.1563 43.7772H47.75C48.1478 43.7772 48.5294 43.6192 48.8107 43.3379C49.092 43.0566 49.25 42.675 49.25 42.2772V36.2772C49.2503 36.1808 49.2318 36.0853 49.1956 35.996ZM43.25 33.2772H46.4919L47.3919 35.5272H43.25V33.2772ZM28.25 31.7772H41.75V37.7772H28.25V31.7772ZM32.75 44.5272C32.4533 44.5272 32.1633 44.4392 31.9166 44.2744C31.67 44.1096 31.4777 43.8753 31.3642 43.6012C31.2506 43.3272 31.2209 43.0256 31.2788 42.7346C31.3367 42.4436 31.4796 42.1763 31.6893 41.9666C31.8991 41.7568 32.1664 41.6139 32.4574 41.556C32.7483 41.4982 33.0499 41.5279 33.324 41.6414C33.5981 41.7549 33.8324 41.9472 33.9972 42.1939C34.162 42.4405 34.25 42.7305 34.25 43.0272C34.25 43.425 34.092 43.8066 33.8107 44.0879C33.5294 44.3692 33.1478 44.5272 32.75 44.5272ZM40.3438 42.2772H35.6563C35.491 41.6319 35.1157 41.0599 34.5895 40.6515C34.0633 40.243 33.4161 40.0213 32.75 40.0213C32.0839 40.0213 31.4367 40.243 30.9105 40.6515C30.3843 41.0599 30.009 41.6319 29.8438 42.2772H28.25V39.2772H41.75V40.4313C41.4051 40.6306 41.1032 40.8964 40.8619 41.2133C40.6205 41.5302 40.4444 41.8918 40.3438 42.2772ZM43.25 44.5272C42.9533 44.5272 42.6633 44.4392 42.4166 44.2744C42.17 44.1096 41.9777 43.8753 41.8642 43.6012C41.7507 43.3272 41.7209 43.0256 41.7788 42.7346C41.8367 42.4436 41.9796 42.1763 42.1893 41.9666C42.3991 41.7568 42.6664 41.6139 42.9574 41.556C43.2483 41.4982 43.5499 41.5279 43.824 41.6414C44.0981 41.7549 44.3324 41.9472 44.4972 42.1939C44.662 42.4405 44.75 42.7305 44.75 43.0272C44.75 43.425 44.592 43.8066 44.3107 44.0879C44.0294 44.3692 43.6478 44.5272 43.25 44.5272ZM47.75 42.2772H46.1563C45.989 41.6335 45.613 41.0634 45.0871 40.6562C44.5612 40.2491 43.9151 40.0279 43.25 40.0272V37.0272H47.75V42.2772Z" fill="url(#paint1_linear_609_16973)"/>
<defs>
<filter id="filter0_d_609_16973" x="6" y="8.02722" width="65" height="65" filterUnits="userSpaceOnUse" color-interpolation-filters="sRGB">
<feFlood flood-opacity="0" result="BackgroundImageFix"/>
<feColorMatrix in="SourceAlpha" type="matrix" values="0 0 0 0 0 0 0 0 0 0 0 0 0 0 0 0 0 0 127 0" result="hardAlpha"/>
<feOffset dy="2"/>
<feGaussianBlur stdDeviation="3"/>
<feComposite in2="hardAlpha" operator="out"/>
<feColorMatrix type="matrix" values="0 0 0 0 0.564706 0 0 0 0 0.572549 0 0 0 0 0.580392 0 0 0 0.2 0"/>
<feBlend mode="normal" in2="BackgroundImageFix" result="effect1_dropShadow_609_16973"/>
<feBlend mode="normal" in="SourceGraphic" in2="effect1_dropShadow_609_16973" result="shape"/>
</filter>
<linearGradient id="paint0_linear_609_16973" x1="-3.76486e-07" y1="77.0272" x2="77" y2="0.0272213" gradientUnits="userSpaceOnUse">
<stop stop-color="#FFAE41"/>
<stop offset="1" stop-color="#FFC06A"/>
</linearGradient>
<linearGradient id="paint1_linear_609_16973" x1="26.75" y1="46.0331" x2="41.5561" y2="24.8895" gradientUnits="userSpaceOnUse">
<stop stop-color="#FFAE41"/>
<stop offset="1" stop-color="#FFC06A"/>
</linearGradient>
</defs>
</svg>
