<svg width="404" height="189" viewBox="0 0 404 189" fill="none" xmlns="http://www.w3.org/2000/svg">
<g clip-path="url(#clip0_609_1026)">
<line x1="0.5" y1="104" x2="0.500005" y2="217" stroke="#DCDCDC"/>
<line x1="72.5" y1="30" x2="72.5" y2="217" stroke="#DCDCDC"/>
<line x1="144.5" y1="45" x2="144.5" y2="217" stroke="#DCDCDC"/>
<line x1="216.5" y1="13" x2="216.5" y2="217" stroke="#DCDCDC"/>
<line x1="288.5" y1="83" x2="288.5" y2="217" stroke="#DCDCDC"/>
<line x1="360.5" y1="63" x2="360.5" y2="217" stroke="#DCDCDC"/>
<path d="M28.348 92.6737L-2.0554 101.527H-20L-11.2465 201.027L454 196.027V121.527H432.116L406.698 116.688C401.146 115.63 396.3 112.273 393.359 107.446L368.059 65.9188C364.255 59.6753 355.256 59.4908 351.2 65.5731L335.86 88.5731C329.78 97.6901 317.495 100.216 308.311 94.238L293.423 84.5476C289.436 81.9527 284.655 80.8636 279.938 81.476L256.561 84.5108C251.97 85.1068 247.571 82.4743 245.926 78.1474L223.618 19.4659C220.515 11.3036 209.175 10.7603 205.306 18.5885L190.182 49.1891C184.515 60.6553 169.689 63.9288 159.721 55.915L152.061 49.7568C147.537 46.1205 140.879 47.0858 137.574 51.857L129.522 63.4836C121.327 75.3158 103.693 74.8787 96.0946 62.6551L79.8697 36.5542C75.5145 29.5481 65.0275 30.5314 62.0506 38.225L47.939 74.6958C44.566 83.4132 37.3225 90.0603 28.348 92.6737Z" fill="#5655D7" fill-opacity="0.08" stroke="url(#paint0_linear_609_1026)" stroke-width="6" stroke-linecap="round"/>
<g filter="url(#filter0_d_609_1026)">
<path d="M237.994 14.0002C237.994 6.26818 244.573 0.000164032 252.689 0.000164032L352.5 0C360.616 0 367.195 6.26801 367.195 14V41C367.195 48.732 360.616 55 352.5 55H252.689C244.573 55 237.994 48.732 237.994 41V14.0002Z" fill="white"/>
<path d="M240.602 6.03487C241.832 4.8633 243.826 4.8633 245.055 6.03487L251.735 12.3988C252.965 13.5704 252.965 15.4699 251.735 16.6415L245.055 23.0054C243.826 24.177 241.832 24.177 240.602 23.0054L233.922 16.6415C232.693 15.4699 232.693 13.5704 233.922 12.3988L240.602 6.03487Z" fill="white"/>
</g>
<rect x="253" y="11.4727" width="32" height="32" rx="16" fill="#5655D7"/>
<path d="M268.244 29.5764C268.998 29.0745 269.57 28.3433 269.877 27.491C270.183 26.6386 270.206 25.7104 269.944 24.8435C269.682 23.9766 269.148 23.217 268.421 22.6772C267.694 22.1374 266.812 21.8459 265.906 21.8459C265.001 21.8459 264.119 22.1374 263.392 22.6772C262.664 23.217 262.13 23.9766 261.868 24.8435C261.606 25.7104 261.63 26.6386 261.936 27.491C262.242 28.3433 262.814 29.0745 263.568 29.5764C262.205 30.079 261.04 31.0091 260.248 32.2279C260.207 32.2897 260.178 32.3592 260.163 32.4324C260.149 32.5055 260.149 32.5808 260.164 32.6538C260.178 32.7269 260.208 32.7962 260.25 32.8579C260.291 32.9196 260.345 32.9723 260.408 33.013C260.47 33.0538 260.54 33.0817 260.613 33.0951C260.687 33.1086 260.762 33.1074 260.835 33.0915C260.907 33.0756 260.976 33.0454 261.037 33.0027C261.099 32.9599 261.151 32.9054 261.19 32.8424C261.701 32.0569 262.4 31.4114 263.224 30.9645C264.047 30.5176 264.969 30.2836 265.906 30.2836C266.843 30.2836 267.765 30.5176 268.589 30.9645C269.412 31.4114 270.111 32.0569 270.622 32.8424C270.705 32.965 270.832 33.0503 270.977 33.0797C271.122 33.1091 271.272 33.0803 271.396 32.9996C271.52 32.9188 271.607 32.7926 271.638 32.6482C271.67 32.5038 271.643 32.3528 271.564 32.2279C270.772 31.0091 269.608 30.079 268.244 29.5764ZM262.812 26.0664C262.812 25.4545 262.994 24.8564 263.334 24.3476C263.674 23.8388 264.157 23.4423 264.722 23.2082C265.288 22.974 265.91 22.9127 266.51 23.0321C267.11 23.1515 267.661 23.4461 268.094 23.8788C268.526 24.3115 268.821 24.8627 268.94 25.4628C269.06 26.063 268.999 26.685 268.764 27.2503C268.53 27.8156 268.134 28.2988 267.625 28.6388C267.116 28.9787 266.518 29.1602 265.906 29.1602C265.086 29.1592 264.3 28.833 263.72 28.253C263.14 27.673 262.813 26.8866 262.812 26.0664ZM277.588 33.0063C277.463 33.0877 277.311 33.1162 277.165 33.0855C277.019 33.0548 276.891 32.9674 276.81 32.8424C276.299 32.0564 275.601 31.4106 274.777 30.9639C273.953 30.5173 273.031 30.2839 272.094 30.2852C271.945 30.2852 271.801 30.2259 271.696 30.1204C271.59 30.0149 271.531 29.8718 271.531 29.7227C271.531 29.5735 271.59 29.4304 271.696 29.3249C271.801 29.2194 271.945 29.1602 272.094 29.1602C272.549 29.1597 272.999 29.0587 273.411 28.8642C273.823 28.6698 274.187 28.3867 274.477 28.0353C274.767 27.6838 274.976 27.2727 275.088 26.8313C275.201 26.3898 275.215 25.9289 275.129 25.4815C275.043 25.0341 274.859 24.6113 274.59 24.2432C274.322 23.8751 273.975 23.5709 273.576 23.3522C273.176 23.1336 272.733 23.0059 272.278 22.9783C271.823 22.9508 271.368 23.024 270.945 23.1927C270.876 23.2226 270.802 23.2383 270.726 23.2389C270.651 23.2395 270.577 23.2251 270.507 23.1964C270.438 23.1678 270.375 23.1255 270.322 23.072C270.269 23.0186 270.227 22.9551 270.199 22.8853C270.171 22.8155 270.158 22.7408 270.159 22.6657C270.161 22.5905 270.177 22.5164 270.208 22.4477C270.238 22.3791 270.282 22.3172 270.337 22.2658C270.392 22.2144 270.457 22.1746 270.527 22.1486C271.496 21.7623 272.573 21.7484 273.551 22.1096C274.529 22.4707 275.339 23.1813 275.824 24.1043C276.309 25.0272 276.436 26.0972 276.178 27.1077C275.921 28.1182 275.299 28.9976 274.432 29.5764C275.795 30.079 276.96 31.0091 277.752 32.2279C277.833 32.3528 277.862 32.505 277.831 32.651C277.8 32.797 277.713 32.9248 277.588 33.0063Z" fill="white"/>
<path d="M296.654 25.9727L296.672 14.4887L296.87 13.3727H298.688L298.67 25.9727H296.654ZM293.936 17.0627V15.1727C294.212 15.1847 294.524 15.1067 294.872 14.9387C295.232 14.7587 295.586 14.5247 295.934 14.2367C296.282 13.9487 296.594 13.6547 296.87 13.3547L298.166 14.7047C297.746 15.1487 297.308 15.5567 296.852 15.9287C296.396 16.3007 295.922 16.5887 295.43 16.7927C294.95 16.9967 294.452 17.0867 293.936 17.0627ZM302.647 22.4807L301.135 21.6167L306.769 13.3727L308.047 14.5427L302.647 22.4807ZM301.135 23.2727V21.6167L302.359 21.4547H311.305V23.2727H301.135ZM306.967 25.9727V14.5787L306.787 13.3727H308.965V25.9727H306.967ZM312.438 28.0427L313.518 23.9567H315.642L314.022 28.0427H312.438ZM321.224 13.1567C322.088 13.1567 322.814 13.3187 323.402 13.6427C323.99 13.9547 324.464 14.3867 324.824 14.9387C325.196 15.4907 325.46 16.1267 325.616 16.8467C325.784 17.5667 325.868 18.3407 325.868 19.1687C325.868 20.1767 325.76 21.1127 325.544 21.9767C325.34 22.8287 325.028 23.5727 324.608 24.2087C324.2 24.8327 323.678 25.3187 323.042 25.6667C322.418 26.0147 321.68 26.1887 320.828 26.1887C320.18 26.1887 319.544 26.0927 318.92 25.9007C318.296 25.7087 317.732 25.4327 317.228 25.0727L318.308 23.5607C318.68 23.8247 319.082 24.0227 319.514 24.1547C319.958 24.2867 320.366 24.3527 320.738 24.3527C321.782 24.3527 322.592 23.9027 323.168 23.0027C323.744 22.1027 324.008 20.7047 323.96 18.8087L324.392 19.1327C324.104 19.8167 323.66 20.3687 323.06 20.7887C322.46 21.1967 321.746 21.4007 320.918 21.4007C320.114 21.4007 319.4 21.2207 318.776 20.8607C318.164 20.4887 317.678 19.9907 317.318 19.3667C316.97 18.7307 316.796 18.0167 316.796 17.2247C316.796 16.4327 316.976 15.7307 317.336 15.1187C317.708 14.5067 318.224 14.0267 318.884 13.6787C319.556 13.3307 320.336 13.1567 321.224 13.1567ZM321.206 14.9567C320.762 14.9567 320.36 15.0587 320 15.2627C319.652 15.4547 319.376 15.7307 319.172 16.0907C318.98 16.4387 318.884 16.8407 318.884 17.2967C318.884 17.7527 318.98 18.1607 319.172 18.5207C319.376 18.8807 319.652 19.1627 320 19.3667C320.36 19.5707 320.762 19.6727 321.206 19.6727C321.674 19.6727 322.082 19.5707 322.43 19.3667C322.79 19.1627 323.066 18.8807 323.258 18.5207C323.462 18.1607 323.564 17.7527 323.564 17.2967C323.564 16.8407 323.462 16.4387 323.258 16.0907C323.066 15.7307 322.79 15.4547 322.43 15.2627C322.082 15.0587 321.674 14.9567 321.206 14.9567ZM331.56 13.1567C332.424 13.1567 333.15 13.3187 333.738 13.6427C334.326 13.9547 334.8 14.3867 335.16 14.9387C335.532 15.4907 335.796 16.1267 335.952 16.8467C336.12 17.5667 336.204 18.3407 336.204 19.1687C336.204 20.1767 336.096 21.1127 335.88 21.9767C335.676 22.8287 335.364 23.5727 334.944 24.2087C334.536 24.8327 334.014 25.3187 333.378 25.6667C332.754 26.0147 332.016 26.1887 331.164 26.1887C330.516 26.1887 329.88 26.0927 329.256 25.9007C328.632 25.7087 328.068 25.4327 327.564 25.0727L328.644 23.5607C329.016 23.8247 329.418 24.0227 329.85 24.1547C330.294 24.2867 330.702 24.3527 331.074 24.3527C332.118 24.3527 332.928 23.9027 333.504 23.0027C334.08 22.1027 334.344 20.7047 334.296 18.8087L334.728 19.1327C334.44 19.8167 333.996 20.3687 333.396 20.7887C332.796 21.1967 332.082 21.4007 331.254 21.4007C330.45 21.4007 329.736 21.2207 329.112 20.8607C328.5 20.4887 328.014 19.9907 327.654 19.3667C327.306 18.7307 327.132 18.0167 327.132 17.2247C327.132 16.4327 327.312 15.7307 327.672 15.1187C328.044 14.5067 328.56 14.0267 329.22 13.6787C329.892 13.3307 330.672 13.1567 331.56 13.1567ZM331.542 14.9567C331.098 14.9567 330.696 15.0587 330.336 15.2627C329.988 15.4547 329.712 15.7307 329.508 16.0907C329.316 16.4387 329.22 16.8407 329.22 17.2967C329.22 17.7527 329.316 18.1607 329.508 18.5207C329.712 18.8807 329.988 19.1627 330.336 19.3667C330.696 19.5707 331.098 19.6727 331.542 19.6727C332.01 19.6727 332.418 19.5707 332.766 19.3667C333.126 19.1627 333.402 18.8807 333.594 18.5207C333.798 18.1607 333.9 17.7527 333.9 17.2967C333.9 16.8407 333.798 16.4387 333.594 16.0907C333.402 15.7307 333.126 15.4547 332.766 15.2627C332.418 15.0587 332.01 14.9567 331.542 14.9567ZM342.292 26.1887C341.44 26.1887 340.714 26.0327 340.114 25.7207C339.526 25.3967 339.052 24.9647 338.692 24.4247C338.332 23.8727 338.068 23.2367 337.9 22.5167C337.732 21.7847 337.648 21.0047 337.648 20.1767C337.648 19.1687 337.75 18.2387 337.954 17.3867C338.17 16.5347 338.488 15.7907 338.908 15.1547C339.328 14.5187 339.85 14.0267 340.474 13.6787C341.11 13.3307 341.848 13.1567 342.688 13.1567C343.336 13.1567 343.972 13.2587 344.596 13.4627C345.232 13.6547 345.796 13.9247 346.288 14.2727L345.208 15.7847C344.836 15.5207 344.428 15.3227 343.984 15.1907C343.552 15.0587 343.15 14.9927 342.778 14.9927C341.734 14.9927 340.924 15.4427 340.348 16.3427C339.784 17.2427 339.526 18.6407 339.574 20.5367L339.142 20.2127C339.418 19.5287 339.856 18.9827 340.456 18.5747C341.056 18.1547 341.77 17.9447 342.598 17.9447C343.402 17.9447 344.116 18.1307 344.74 18.5027C345.364 18.8627 345.85 19.3607 346.198 19.9967C346.546 20.6207 346.72 21.3347 346.72 22.1387C346.72 22.9187 346.534 23.6147 346.162 24.2267C345.802 24.8387 345.286 25.3187 344.614 25.6667C343.954 26.0147 343.18 26.1887 342.292 26.1887ZM342.31 24.4067C342.754 24.4067 343.15 24.3047 343.498 24.1007C343.858 23.8967 344.14 23.6207 344.344 23.2727C344.548 22.9127 344.65 22.5047 344.65 22.0487C344.65 21.5927 344.548 21.1847 344.344 20.8247C344.14 20.4647 343.858 20.1887 343.498 19.9967C343.15 19.7927 342.754 19.6907 342.31 19.6907C341.854 19.6907 341.446 19.7927 341.086 19.9967C340.738 20.1887 340.462 20.4647 340.258 20.8247C340.054 21.1847 339.952 21.5927 339.952 22.0487C339.952 22.5047 340.054 22.9127 340.258 23.2727C340.462 23.6207 340.738 23.8967 341.086 24.1007C341.446 24.3047 341.854 24.4067 342.31 24.4067Z" fill="#4D5154"/>
<path d="M295.899 41.9727L298.551 35.4727H299.643L296.926 41.9727H295.899ZM295.834 41.9727L293.117 35.4727H294.196L296.848 41.9727H295.834ZM300.729 41.9727L300.755 35.4727H301.795L301.769 41.9727H300.729ZM301.262 33.9647C301.089 33.9647 300.937 33.8997 300.807 33.7697C300.677 33.6397 300.612 33.488 300.612 33.3147C300.612 33.1327 300.677 32.981 300.807 32.8597C300.937 32.7297 301.089 32.6647 301.262 32.6647C301.444 32.6647 301.596 32.7297 301.717 32.8597C301.847 32.981 301.912 33.1327 301.912 33.3147C301.912 33.488 301.847 33.6397 301.717 33.7697C301.596 33.8997 301.444 33.9647 301.262 33.9647ZM305.96 42.1287C305.484 42.1287 305.068 42.0593 304.712 41.9207C304.357 41.7733 304.058 41.5827 303.815 41.3487C303.581 41.1147 303.412 40.859 303.308 40.5817L304.218 40.2047C304.366 40.4993 304.587 40.7377 304.881 40.9197C305.176 41.1017 305.501 41.1927 305.856 41.1927C306.264 41.1927 306.606 41.1147 306.883 40.9587C307.161 40.794 307.299 40.5643 307.299 40.2697C307.299 40.001 307.195 39.7843 306.987 39.6197C306.788 39.455 306.489 39.3207 306.09 39.2167L305.466 39.0477C304.877 38.8917 304.418 38.6577 304.088 38.3457C303.759 38.025 303.594 37.6653 303.594 37.2667C303.594 36.6513 303.794 36.1747 304.192 35.8367C304.6 35.49 305.202 35.3167 305.999 35.3167C306.381 35.3167 306.727 35.373 307.039 35.4857C307.351 35.5983 307.62 35.7587 307.845 35.9667C308.071 36.166 308.235 36.4043 308.339 36.6817L307.429 37.0847C307.317 36.79 307.13 36.5777 306.87 36.4477C306.61 36.3177 306.294 36.2527 305.921 36.2527C305.523 36.2527 305.211 36.3393 304.985 36.5127C304.76 36.6773 304.647 36.9113 304.647 37.2147C304.647 37.388 304.738 37.5527 304.92 37.7087C305.111 37.856 305.388 37.9773 305.752 38.0727L306.402 38.2417C306.827 38.3457 307.182 38.5017 307.468 38.7097C307.754 38.909 307.971 39.1387 308.118 39.3987C308.266 39.6587 308.339 39.936 308.339 40.2307C308.339 40.6207 308.235 40.9587 308.027 41.2447C307.819 41.5307 307.538 41.7517 307.182 41.9077C306.827 42.055 306.42 42.1287 305.96 42.1287ZM309.806 41.9727L309.832 35.4727H310.872L310.846 41.9727H309.806ZM310.339 33.9647C310.166 33.9647 310.014 33.8997 309.884 33.7697C309.754 33.6397 309.689 33.488 309.689 33.3147C309.689 33.1327 309.754 32.981 309.884 32.8597C310.014 32.7297 310.166 32.6647 310.339 32.6647C310.521 32.6647 310.673 32.7297 310.794 32.8597C310.924 32.981 310.989 33.1327 310.989 33.3147C310.989 33.488 310.924 33.6397 310.794 33.7697C310.673 33.8997 310.521 33.9647 310.339 33.9647ZM315.207 42.1287C314.574 42.1287 314.084 41.964 313.738 41.6347C313.391 41.3053 313.218 40.8417 313.218 40.2437V33.4447H314.258V40.1397C314.258 40.469 314.344 40.7247 314.518 40.9067C314.7 41.08 314.951 41.1667 315.272 41.1667C315.376 41.1667 315.475 41.1537 315.571 41.1277C315.675 41.093 315.809 41.015 315.974 40.8937L316.377 41.7387C316.151 41.886 315.948 41.9857 315.766 42.0377C315.584 42.0983 315.397 42.1287 315.207 42.1287ZM312.087 36.3957V35.4727H316.208V36.3957H312.087ZM320.511 42.1287C319.878 42.1287 319.315 41.9857 318.821 41.6997C318.335 41.405 317.954 41.002 317.677 40.4907C317.399 39.9793 317.261 39.39 317.261 38.7227C317.261 38.0553 317.395 37.466 317.664 36.9547C317.941 36.4433 318.322 36.0447 318.808 35.7587C319.302 35.464 319.861 35.3167 320.485 35.3167C321.126 35.3167 321.689 35.464 322.175 35.7587C322.669 36.0447 323.05 36.4433 323.319 36.9547C323.596 37.466 323.735 38.0553 323.735 38.7227C323.735 39.39 323.596 39.9793 323.319 40.4907C323.05 41.002 322.673 41.405 322.188 41.6997C321.702 41.9857 321.143 42.1287 320.511 42.1287ZM320.511 41.1667C320.944 41.1667 321.321 41.0627 321.642 40.8547C321.962 40.6467 322.214 40.3607 322.396 39.9967C322.586 39.6327 322.682 39.208 322.682 38.7227C322.682 38.2373 322.586 37.8127 322.396 37.4487C322.214 37.0847 321.958 36.7987 321.629 36.5907C321.299 36.3827 320.918 36.2787 320.485 36.2787C320.06 36.2787 319.683 36.3827 319.354 36.5907C319.033 36.7987 318.777 37.0847 318.587 37.4487C318.405 37.8127 318.314 38.2373 318.314 38.7227C318.314 39.1993 318.405 39.624 318.587 39.9967C318.777 40.3607 319.037 40.6467 319.367 40.8547C319.705 41.0627 320.086 41.1667 320.511 41.1667ZM325.751 38.4497C325.751 37.7477 325.885 37.18 326.154 36.7467C326.422 36.3047 326.765 35.9797 327.181 35.7717C327.605 35.555 328.052 35.4467 328.52 35.4467V36.4217C328.138 36.4217 327.77 36.4867 327.415 36.6167C327.068 36.738 326.782 36.9417 326.557 37.2277C326.331 37.5137 326.219 37.9037 326.219 38.3977L325.751 38.4497ZM325.179 41.9727V35.4727H326.219V41.9727H325.179ZM331.846 42.1287C331.369 42.1287 330.953 42.0593 330.598 41.9207C330.243 41.7733 329.944 41.5827 329.701 41.3487C329.467 41.1147 329.298 40.859 329.194 40.5817L330.104 40.2047C330.251 40.4993 330.472 40.7377 330.767 40.9197C331.062 41.1017 331.387 41.1927 331.742 41.1927C332.149 41.1927 332.492 41.1147 332.769 40.9587C333.046 40.794 333.185 40.5643 333.185 40.2697C333.185 40.001 333.081 39.7843 332.873 39.6197C332.674 39.455 332.375 39.3207 331.976 39.2167L331.352 39.0477C330.763 38.8917 330.303 38.6577 329.974 38.3457C329.645 38.025 329.48 37.6653 329.48 37.2667C329.48 36.6513 329.679 36.1747 330.078 35.8367C330.485 35.49 331.088 35.3167 331.885 35.3167C332.266 35.3167 332.613 35.373 332.925 35.4857C333.237 35.5983 333.506 35.7587 333.731 35.9667C333.956 36.166 334.121 36.4043 334.225 36.6817L333.315 37.0847C333.202 36.79 333.016 36.5777 332.756 36.4477C332.496 36.3177 332.18 36.2527 331.807 36.2527C331.408 36.2527 331.096 36.3393 330.871 36.5127C330.646 36.6773 330.533 36.9113 330.533 37.2147C330.533 37.388 330.624 37.5527 330.806 37.7087C330.997 37.856 331.274 37.9773 331.638 38.0727L332.288 38.2417C332.713 38.3457 333.068 38.5017 333.354 38.7097C333.64 38.909 333.857 39.1387 334.004 39.3987C334.151 39.6587 334.225 39.936 334.225 40.2307C334.225 40.6207 334.121 40.9587 333.913 41.2447C333.705 41.5307 333.423 41.7517 333.068 41.9077C332.713 42.055 332.305 42.1287 331.846 42.1287Z" fill="#A6A8A9"/>
<circle cx="216.5" cy="9.5" r="10" fill="#5655D7" stroke="white" stroke-width="3"/>
</g>
<path d="M5.60691 180.44L1.49891 174.369L1.94091 174.135L2.46091 173.927L6.13991 179.374L5.60691 180.44ZM1.31691 183.027V173.927H2.42191V183.027H1.31691ZM5.60691 180.44L5.07391 179.374L8.75291 173.927L9.27291 174.135L9.70191 174.356L5.60691 180.44ZM8.79191 183.027V173.927H9.88391V183.027H8.79191ZM14.8851 183.183C14.2524 183.183 13.6891 183.04 13.1951 182.754C12.7097 182.46 12.3284 182.057 12.0511 181.545C11.7737 181.034 11.6351 180.445 11.6351 179.777C11.6351 179.11 11.7694 178.521 12.0381 178.009C12.3154 177.498 12.6967 177.099 13.1821 176.813C13.6761 176.519 14.2351 176.371 14.8591 176.371C15.5004 176.371 16.0637 176.519 16.5491 176.813C17.0431 177.099 17.4244 177.498 17.6931 178.009C17.9704 178.521 18.1091 179.11 18.1091 179.777C18.1091 180.445 17.9704 181.034 17.6931 181.545C17.4244 182.057 17.0474 182.46 16.5621 182.754C16.0767 183.04 15.5177 183.183 14.8851 183.183ZM14.8851 182.221C15.3184 182.221 15.6954 182.117 16.0161 181.909C16.3367 181.701 16.5881 181.415 16.7701 181.051C16.9607 180.687 17.0561 180.263 17.0561 179.777C17.0561 179.292 16.9607 178.867 16.7701 178.503C16.5881 178.139 16.3324 177.853 16.0031 177.645C15.6737 177.437 15.2924 177.333 14.8591 177.333C14.4344 177.333 14.0574 177.437 13.7281 177.645C13.4074 177.853 13.1517 178.139 12.9611 178.503C12.7791 178.867 12.6881 179.292 12.6881 179.777C12.6881 180.254 12.7791 180.679 12.9611 181.051C13.1517 181.415 13.4117 181.701 13.7411 181.909C14.0791 182.117 14.4604 182.221 14.8851 182.221ZM19.5531 183.027V176.527H20.5281L20.5931 177.723V183.027H19.5531ZM24.1161 183.027V179.699L25.1561 179.309V183.027H24.1161ZM24.1161 179.699C24.1161 179.058 24.0424 178.568 23.8951 178.23C23.7477 177.892 23.5441 177.663 23.2841 177.541C23.0241 177.411 22.7294 177.346 22.4001 177.346C21.8281 177.346 21.3817 177.55 21.0611 177.957C20.7491 178.356 20.5931 178.924 20.5931 179.66H20.0861C20.0861 178.976 20.1857 178.386 20.3851 177.892C20.5844 177.398 20.8704 177.021 21.2431 176.761C21.6244 176.501 22.0837 176.371 22.6211 176.371C23.4097 176.371 24.0294 176.614 24.4801 177.099C24.9394 177.585 25.1647 178.321 25.1561 179.309L24.1161 179.699Z" fill="#7A7C7F"/>
<path d="M70.7539 183.027V174.681H71.8459V183.027H70.7539ZM67.8549 174.928V173.927H74.7449V174.928H67.8549ZM79.6444 183.027L79.5794 181.831V176.527H80.6194V183.027H79.6444ZM75.0164 180.245V176.527H76.0564V179.855L75.0164 180.245ZM76.0564 179.855C76.0564 180.497 76.1301 180.986 76.2774 181.324C76.4247 181.662 76.6284 181.896 76.8884 182.026C77.1571 182.148 77.4561 182.208 77.7854 182.208C78.3487 182.208 78.7864 182.005 79.0984 181.597C79.4191 181.19 79.5794 180.622 79.5794 179.894H80.0864C80.0864 180.579 79.9867 181.168 79.7874 181.662C79.5881 182.156 79.2977 182.533 78.9164 182.793C78.5437 183.053 78.0887 183.183 77.5514 183.183C76.7627 183.183 76.1387 182.941 75.6794 182.455C75.2287 181.97 75.0077 181.233 75.0164 180.245L76.0564 179.855ZM85.2814 183.183C84.6487 183.183 84.0897 183.04 83.6044 182.754C83.1191 182.46 82.7377 182.057 82.4604 181.545C82.1917 181.034 82.0574 180.445 82.0574 179.777C82.0574 179.11 82.1917 178.521 82.4604 178.009C82.7377 177.498 83.1147 177.099 83.5914 176.813C84.0767 176.519 84.6314 176.371 85.2554 176.371C85.8534 176.371 86.3734 176.523 86.8154 176.826C87.2661 177.121 87.6127 177.537 87.8554 178.074C88.0981 178.612 88.2194 179.244 88.2194 179.972H87.1794C87.1794 179.418 87.1057 178.945 86.9584 178.555C86.8111 178.157 86.5901 177.849 86.2954 177.632C86.0094 177.416 85.6584 177.307 85.2424 177.307C84.8177 177.307 84.4407 177.411 84.1114 177.619C83.7907 177.819 83.5437 178.105 83.3704 178.477C83.1971 178.85 83.1104 179.288 83.1104 179.79C83.1104 180.284 83.2057 180.713 83.3964 181.077C83.5871 181.433 83.8514 181.714 84.1894 181.922C84.5274 182.122 84.9087 182.221 85.3334 182.221C85.7841 182.221 86.1654 182.113 86.4774 181.896C86.7894 181.68 87.0364 181.398 87.2184 181.051L88.1284 181.506C87.9637 181.844 87.7427 182.139 87.4654 182.39C87.1967 182.642 86.8761 182.837 86.5034 182.975C86.1394 183.114 85.7321 183.183 85.2814 183.183ZM82.7464 179.972L82.7594 179.075H87.5824V179.972H82.7464Z" fill="#7A7C7F"/>
<path d="M138.94 183.027L141.748 173.927H142.853L140.032 183.027H138.94ZM133.402 183.027L130.62 173.927H131.725L134.481 183.027H133.402ZM133.519 183.027L136.197 173.927H137.25L134.572 183.027H133.519ZM138.849 183.027L136.236 173.927H137.289L139.941 183.027H138.849ZM146.207 183.183C145.574 183.183 145.015 183.04 144.53 182.754C144.044 182.46 143.663 182.057 143.386 181.545C143.117 181.034 142.983 180.445 142.983 179.777C142.983 179.11 143.117 178.521 143.386 178.009C143.663 177.498 144.04 177.099 144.517 176.813C145.002 176.519 145.557 176.371 146.181 176.371C146.779 176.371 147.299 176.523 147.741 176.826C148.191 177.121 148.538 177.537 148.781 178.074C149.023 178.612 149.145 179.244 149.145 179.972H148.105C148.105 179.418 148.031 178.945 147.884 178.555C147.736 178.157 147.515 177.849 147.221 177.632C146.935 177.416 146.584 177.307 146.168 177.307C145.743 177.307 145.366 177.411 145.037 177.619C144.716 177.819 144.469 178.105 144.296 178.477C144.122 178.85 144.036 179.288 144.036 179.79C144.036 180.284 144.131 180.713 144.322 181.077C144.512 181.433 144.777 181.714 145.115 181.922C145.453 182.122 145.834 182.221 146.259 182.221C146.709 182.221 147.091 182.113 147.403 181.896C147.715 181.68 147.962 181.398 148.144 181.051L149.054 181.506C148.889 181.844 148.668 182.139 148.391 182.39C148.122 182.642 147.801 182.837 147.429 182.975C147.065 183.114 146.657 183.183 146.207 183.183ZM143.672 179.972L143.685 179.075H148.508V179.972H143.672ZM155.266 183.027L155.214 181.818V173.927H156.254V183.027H155.266ZM153.017 183.183C152.437 183.183 151.925 183.04 151.483 182.754C151.041 182.468 150.695 182.07 150.443 181.558C150.201 181.038 150.079 180.445 150.079 179.777C150.079 179.101 150.201 178.508 150.443 177.996C150.695 177.485 151.041 177.086 151.483 176.8C151.925 176.514 152.437 176.371 153.017 176.371C153.563 176.371 154.04 176.514 154.447 176.8C154.863 177.086 155.184 177.485 155.409 177.996C155.635 178.508 155.747 179.101 155.747 179.777C155.747 180.445 155.635 181.038 155.409 181.558C155.184 182.07 154.863 182.468 154.447 182.754C154.04 183.04 153.563 183.183 153.017 183.183ZM153.251 182.234C153.633 182.234 153.971 182.13 154.265 181.922C154.56 181.714 154.79 181.424 154.954 181.051C155.128 180.679 155.214 180.254 155.214 179.777C155.214 179.301 155.128 178.876 154.954 178.503C154.79 178.131 154.56 177.84 154.265 177.632C153.971 177.424 153.628 177.32 153.238 177.32C152.831 177.32 152.467 177.424 152.146 177.632C151.834 177.84 151.587 178.131 151.405 178.503C151.223 178.876 151.132 179.301 151.132 179.777C151.132 180.254 151.223 180.679 151.405 181.051C151.587 181.424 151.839 181.714 152.159 181.922C152.48 182.13 152.844 182.234 153.251 182.234Z" fill="#7A7C7F"/>
<path d="M202.207 183.027V174.681H203.299V183.027H202.207ZM199.308 174.928V173.927H206.198V174.928H199.308ZM207.247 183.027V173.758H208.287V183.027H207.247ZM211.823 183.027V179.699L212.863 179.309V183.027H211.823ZM211.823 179.699C211.823 179.058 211.745 178.568 211.589 178.23C211.442 177.892 211.238 177.663 210.978 177.541C210.718 177.411 210.424 177.346 210.094 177.346C209.522 177.346 209.076 177.55 208.755 177.957C208.443 178.356 208.287 178.924 208.287 179.66H207.78C207.78 178.976 207.88 178.386 208.079 177.892C208.279 177.398 208.569 177.021 208.95 176.761C209.332 176.501 209.791 176.371 210.328 176.371C211.108 176.371 211.728 176.614 212.187 177.099C212.647 177.585 212.872 178.321 212.863 179.309L211.823 179.699ZM218.955 183.027L218.89 181.831V176.527H219.93V183.027H218.955ZM214.327 180.245V176.527H215.367V179.855L214.327 180.245ZM215.367 179.855C215.367 180.497 215.441 180.986 215.588 181.324C215.736 181.662 215.939 181.896 216.199 182.026C216.468 182.148 216.767 182.208 217.096 182.208C217.66 182.208 218.097 182.005 218.409 181.597C218.73 181.19 218.89 180.622 218.89 179.894H219.397C219.397 180.579 219.298 181.168 219.098 181.662C218.899 182.156 218.609 182.533 218.227 182.793C217.855 183.053 217.4 183.183 216.862 183.183C216.074 183.183 215.45 182.941 214.99 182.455C214.54 181.97 214.319 181.233 214.327 180.245L215.367 179.855Z" fill="#7A7C7F"/>
<path d="M264.203 183.027V173.927H265.308V183.027H264.203ZM265.204 179.036V178.035H269.104V179.036H265.204ZM265.204 174.928V173.927H269.611V174.928H265.204ZM271.407 179.504C271.407 178.802 271.542 178.235 271.81 177.801C272.079 177.359 272.421 177.034 272.837 176.826C273.262 176.61 273.708 176.501 274.176 176.501V177.476C273.795 177.476 273.427 177.541 273.071 177.671C272.725 177.793 272.439 177.996 272.213 178.282C271.988 178.568 271.875 178.958 271.875 179.452L271.407 179.504ZM270.835 183.027V176.527H271.875V183.027H270.835ZM275.293 183.027L275.319 176.527H276.359L276.333 183.027H275.293ZM275.826 175.019C275.653 175.019 275.501 174.954 275.371 174.824C275.241 174.694 275.176 174.543 275.176 174.369C275.176 174.187 275.241 174.036 275.371 173.914C275.501 173.784 275.653 173.719 275.826 173.719C276.008 173.719 276.16 173.784 276.281 173.914C276.411 174.036 276.476 174.187 276.476 174.369C276.476 174.543 276.411 174.694 276.281 174.824C276.16 174.954 276.008 175.019 275.826 175.019Z" fill="#7A7C7F"/>
<path d="M323.692 183.183C323.189 183.183 322.743 183.131 322.353 183.027C321.963 182.915 321.625 182.763 321.339 182.572C321.053 182.373 320.819 182.156 320.637 181.922C320.455 181.68 320.32 181.424 320.234 181.155L321.287 180.791C321.417 181.173 321.677 181.506 322.067 181.792C322.465 182.07 322.951 182.208 323.523 182.208C324.225 182.208 324.775 182.07 325.174 181.792C325.572 181.515 325.772 181.147 325.772 180.687C325.772 180.263 325.594 179.92 325.239 179.66C324.883 179.392 324.415 179.184 323.835 179.036L322.834 178.776C322.426 178.672 322.049 178.521 321.703 178.321C321.365 178.113 321.092 177.853 320.884 177.541C320.684 177.221 320.585 176.839 320.585 176.397C320.585 175.574 320.849 174.933 321.378 174.473C321.915 174.005 322.686 173.771 323.692 173.771C324.29 173.771 324.805 173.871 325.239 174.07C325.672 174.261 326.023 174.508 326.292 174.811C326.569 175.106 326.764 175.427 326.877 175.773L325.837 176.137C325.672 175.704 325.395 175.366 325.005 175.123C324.615 174.872 324.142 174.746 323.588 174.746C323.007 174.746 322.543 174.889 322.197 175.175C321.859 175.453 321.69 175.834 321.69 176.319C321.69 176.735 321.824 177.056 322.093 177.281C322.361 177.498 322.712 177.658 323.146 177.762L324.147 178.009C325.031 178.217 325.707 178.564 326.175 179.049C326.651 179.526 326.89 180.042 326.89 180.596C326.89 181.073 326.768 181.511 326.526 181.909C326.283 182.299 325.923 182.611 325.447 182.845C324.979 183.071 324.394 183.183 323.692 183.183ZM332.47 183.027L332.405 181.961V179.595C332.405 179.084 332.344 178.664 332.223 178.334C332.11 177.996 331.933 177.745 331.69 177.58C331.456 177.407 331.144 177.32 330.754 177.32C330.381 177.32 330.056 177.394 329.779 177.541C329.51 177.689 329.289 177.918 329.116 178.23L328.18 177.853C328.353 177.55 328.561 177.286 328.804 177.06C329.047 176.835 329.328 176.666 329.649 176.553C329.978 176.432 330.351 176.371 330.767 176.371C331.365 176.371 331.863 176.488 332.262 176.722C332.661 176.956 332.96 177.307 333.159 177.775C333.358 178.235 333.454 178.811 333.445 179.504L333.432 183.027H332.47ZM330.52 183.183C329.757 183.183 329.159 183.01 328.726 182.663C328.301 182.308 328.089 181.818 328.089 181.194C328.089 180.536 328.306 180.033 328.739 179.686C329.181 179.331 329.796 179.153 330.585 179.153H332.444V180.024H330.819C330.212 180.024 329.779 180.124 329.519 180.323C329.268 180.523 329.142 180.809 329.142 181.181C329.142 181.519 329.268 181.788 329.519 181.987C329.77 182.178 330.121 182.273 330.572 182.273C330.945 182.273 331.27 182.187 331.547 182.013C331.824 181.84 332.037 181.606 332.184 181.311C332.331 181.008 332.405 180.666 332.405 180.284H333.042C333.042 181.168 332.825 181.875 332.392 182.403C331.959 182.923 331.335 183.183 330.52 183.183ZM337.537 183.183C336.904 183.183 336.415 183.019 336.068 182.689C335.721 182.36 335.548 181.896 335.548 181.298V174.499H336.588V181.194C336.588 181.524 336.675 181.779 336.848 181.961C337.03 182.135 337.281 182.221 337.602 182.221C337.706 182.221 337.806 182.208 337.901 182.182C338.005 182.148 338.139 182.07 338.304 181.948L338.707 182.793C338.482 182.941 338.278 183.04 338.096 183.092C337.914 183.153 337.728 183.183 337.537 183.183ZM334.417 177.45V176.527H338.538V177.45H334.417Z" fill="#7A7C7F"/>
<path d="M385.379 183.183C384.877 183.183 384.43 183.131 384.04 183.027C383.65 182.915 383.312 182.763 383.026 182.572C382.74 182.373 382.506 182.156 382.324 181.922C382.142 181.68 382.008 181.424 381.921 181.155L382.974 180.791C383.104 181.173 383.364 181.506 383.754 181.792C384.153 182.07 384.638 182.208 385.21 182.208C385.912 182.208 386.463 182.07 386.861 181.792C387.26 181.515 387.459 181.147 387.459 180.687C387.459 180.263 387.282 179.92 386.926 179.66C386.571 179.392 386.103 179.184 385.522 179.036L384.521 178.776C384.114 178.672 383.737 178.521 383.39 178.321C383.052 178.113 382.779 177.853 382.571 177.541C382.372 177.221 382.272 176.839 382.272 176.397C382.272 175.574 382.537 174.933 383.065 174.473C383.603 174.005 384.374 173.771 385.379 173.771C385.977 173.771 386.493 173.871 386.926 174.07C387.36 174.261 387.711 174.508 387.979 174.811C388.257 175.106 388.452 175.427 388.564 175.773L387.524 176.137C387.36 175.704 387.082 175.366 386.692 175.123C386.302 174.872 385.83 174.746 385.275 174.746C384.695 174.746 384.231 174.889 383.884 175.175C383.546 175.453 383.377 175.834 383.377 176.319C383.377 176.735 383.512 177.056 383.78 177.281C384.049 177.498 384.4 177.658 384.833 177.762L385.834 178.009C386.718 178.217 387.394 178.564 387.862 179.049C388.339 179.526 388.577 180.042 388.577 180.596C388.577 181.073 388.456 181.511 388.213 181.909C387.971 182.299 387.611 182.611 387.134 182.845C386.666 183.071 386.081 183.183 385.379 183.183ZM394.613 183.027L394.548 181.831V176.527H395.588V183.027H394.613ZM389.985 180.245V176.527H391.025V179.855L389.985 180.245ZM391.025 179.855C391.025 180.497 391.098 180.986 391.246 181.324C391.393 181.662 391.597 181.896 391.857 182.026C392.125 182.148 392.424 182.208 392.754 182.208C393.317 182.208 393.755 182.005 394.067 181.597C394.387 181.19 394.548 180.622 394.548 179.894H395.055C395.055 180.579 394.955 181.168 394.756 181.662C394.556 182.156 394.266 182.533 393.885 182.793C393.512 183.053 393.057 183.183 392.52 183.183C391.731 183.183 391.107 182.941 390.648 182.455C390.197 181.97 389.976 181.233 389.985 180.245L391.025 179.855ZM397.403 183.027V176.527H398.378L398.443 177.723V183.027H397.403ZM401.966 183.027V179.699L403.006 179.309V183.027H401.966ZM401.966 179.699C401.966 179.058 401.892 178.568 401.745 178.23C401.597 177.892 401.394 177.663 401.134 177.541C400.874 177.411 400.579 177.346 400.25 177.346C399.678 177.346 399.231 177.55 398.911 177.957C398.599 178.356 398.443 178.924 398.443 179.66H397.936C397.936 178.976 398.035 178.386 398.235 177.892C398.434 177.398 398.72 177.021 399.093 176.761C399.474 176.501 399.933 176.371 400.471 176.371C401.259 176.371 401.879 176.614 402.33 177.099C402.789 177.585 403.014 178.321 403.006 179.309L401.966 179.699Z" fill="#7A7C7F"/>
<defs>
<filter id="filter0_d_609_1026" x="225" y="-4" width="150.195" height="71" filterUnits="userSpaceOnUse" color-interpolation-filters="sRGB">
<feFlood flood-opacity="0" result="BackgroundImageFix"/>
<feColorMatrix in="SourceAlpha" type="matrix" values="0 0 0 0 0 0 0 0 0 0 0 0 0 0 0 0 0 0 127 0" result="hardAlpha"/>
<feOffset dy="4"/>
<feGaussianBlur stdDeviation="4"/>
<feColorMatrix type="matrix" values="0 0 0 0 0 0 0 0 0 0 0 0 0 0 0 0 0 0 0.12 0"/>
<feBlend mode="normal" in2="BackgroundImageFix" result="effect1_dropShadow_609_1026"/>
<feBlend mode="normal" in="SourceGraphic" in2="effect1_dropShadow_609_1026" result="shape"/>
</filter>
<linearGradient id="paint0_linear_609_1026" x1="-20" y1="201.027" x2="126.929" y2="-142.048" gradientUnits="userSpaceOnUse">
<stop stop-color="#5655D7"/>
<stop offset="1" stop-color="#7F7EFF"/>
</linearGradient>
<clipPath id="clip0_609_1026">
<rect width="404" height="158" fill="white" transform="translate(0 0.0272217)"/>
</clipPath>
</defs>
</svg>
