<svg width="32" height="33" viewBox="0 0 32 33" fill="none" xmlns="http://www.w3.org/2000/svg">
<rect y="0.472656" width="32" height="32" rx="16" fill="#5655D7"/>
<path d="M15.2441 18.5764C15.998 18.0745 16.5703 17.3433 16.8765 16.491C17.1827 15.6386 17.2065 14.7104 16.9443 13.8435C16.6821 12.9766 16.1479 12.217 15.4207 11.6772C14.6935 11.1374 13.8119 10.8459 12.9062 10.8459C12.0005 10.8459 11.1189 11.1374 10.3917 11.6772C9.66444 12.217 9.13024 12.9766 8.86807 13.8435C8.6059 14.7104 8.62966 15.6386 8.93586 16.491C9.24205 17.3433 9.81441 18.0745 10.5683 18.5764C9.20459 19.079 8.03994 20.0091 7.24815 21.2279C7.20653 21.2897 7.17763 21.3592 7.16311 21.4324C7.1486 21.5055 7.14876 21.5808 7.16359 21.6538C7.17842 21.7269 7.20763 21.7962 7.24951 21.8579C7.29139 21.9196 7.34511 21.9723 7.40755 22.013C7.46999 22.0538 7.5399 22.0817 7.61321 22.0951C7.68653 22.1086 7.7618 22.1074 7.83463 22.0915C7.90747 22.0756 7.97642 22.0454 8.03749 22.0027C8.09855 21.9599 8.15051 21.9054 8.19033 21.8424C8.70108 21.0569 9.39996 20.4114 10.2235 19.9645C11.0471 19.5176 11.9692 19.2836 12.9062 19.2836C13.8432 19.2836 14.7653 19.5176 15.5889 19.9645C16.4124 20.4114 17.1113 21.0569 17.6221 21.8424C17.7046 21.965 17.832 22.0503 17.9768 22.0797C18.1217 22.1091 18.2723 22.0803 18.396 21.9996C18.5198 21.9188 18.6069 21.7926 18.6383 21.6482C18.6698 21.5038 18.6432 21.3528 18.5642 21.2279C17.7724 20.0091 16.6078 19.079 15.2441 18.5764ZM9.81244 15.0664C9.81244 14.4545 9.99389 13.8564 10.3338 13.3476C10.6738 12.8388 11.157 12.4423 11.7223 12.2082C12.2876 11.974 12.9096 11.9127 13.5098 12.0321C14.1099 12.1515 14.6611 12.4461 15.0938 12.8788C15.5265 13.3115 15.8211 13.8627 15.9405 14.4628C16.0599 15.063 15.9986 15.685 15.7644 16.2503C15.5303 16.8156 15.1338 17.2988 14.625 17.6388C14.1162 17.9787 13.5181 18.1602 12.9062 18.1602C12.086 18.1592 11.2996 17.833 10.7196 17.253C10.1396 16.673 9.81337 15.8866 9.81244 15.0664ZM24.5879 22.0063C24.463 22.0877 24.3108 22.1162 24.1648 22.0855C24.0188 22.0548 23.8911 21.9674 23.8096 21.8424C23.2994 21.0564 22.6006 20.4106 21.7769 19.9639C20.9532 19.5173 20.0307 19.2839 19.0937 19.2852C18.9445 19.2852 18.8014 19.2259 18.6959 19.1204C18.5905 19.0149 18.5312 18.8718 18.5312 18.7227C18.5312 18.5735 18.5905 18.4304 18.6959 18.3249C18.8014 18.2194 18.9445 18.1602 19.0937 18.1602C19.5493 18.1597 19.9992 18.0587 20.4112 17.8642C20.8232 17.6698 21.1872 17.3867 21.4772 17.0353C21.7671 16.6838 21.9759 16.2727 22.0885 15.8313C22.2011 15.3898 22.2149 14.9289 22.1287 14.4815C22.0426 14.0341 21.8587 13.6113 21.5902 13.2432C21.3217 12.8751 20.9752 12.5709 20.5755 12.3522C20.1758 12.1336 19.7328 12.0059 19.278 11.9783C18.8232 11.9508 18.368 12.024 17.9448 12.1927C17.8758 12.2226 17.8015 12.2383 17.7263 12.2389C17.6512 12.2395 17.5766 12.2251 17.5071 12.1964C17.4376 12.1678 17.3746 12.1255 17.3217 12.072C17.2689 12.0186 17.2272 11.9551 17.1993 11.8853C17.1714 11.8155 17.1578 11.7408 17.1592 11.6657C17.1606 11.5905 17.1771 11.5164 17.2077 11.4477C17.2382 11.3791 17.2822 11.3172 17.3371 11.2658C17.392 11.2144 17.4566 11.1746 17.5271 11.1486C18.4957 10.7623 19.5729 10.7484 20.5511 11.1096C21.5293 11.4707 22.339 12.1813 22.8242 13.1043C23.3094 14.0272 23.4355 15.0972 23.1784 16.1077C22.9212 17.1182 22.2989 17.9976 21.4316 18.5764C22.7953 19.079 23.9599 20.0091 24.7517 21.2279C24.8332 21.3528 24.8617 21.505 24.831 21.651C24.8003 21.797 24.7128 21.9248 24.5879 22.0063Z" fill="white"/>
</svg>
