<svg width="461" height="319" viewBox="0 0 461 319" fill="none" xmlns="http://www.w3.org/2000/svg">
<path d="M2.76562 16.363L1.67362 16.09C1.67362 15.804 1.72995 15.5223 1.84262 15.245C1.96395 14.959 2.13295 14.6773 2.34962 14.4C2.57495 14.1227 2.84795 13.8627 3.16862 13.62L5.05362 12.203C5.27895 12.047 5.47395 11.8693 5.63862 11.67C5.81195 11.462 5.94628 11.2497 6.04162 11.033C6.13695 10.8077 6.18462 10.591 6.18462 10.383C6.18462 10.0797 6.11095 9.80667 5.96362 9.564C5.81628 9.31267 5.60828 9.11333 5.33962 8.966C5.07095 8.81867 4.75462 8.745 4.39062 8.745C4.03528 8.745 3.72328 8.81433 3.45462 8.953C3.18595 9.083 2.96495 9.26067 2.79162 9.486C2.61828 9.70267 2.49262 9.93667 2.41462 10.188L1.29662 9.967C1.40062 9.577 1.58695 9.213 1.85562 8.875C2.13295 8.537 2.48395 8.264 2.90862 8.056C3.33328 7.848 3.80562 7.744 4.32562 7.744C4.93228 7.744 5.45662 7.861 5.89862 8.095C6.34062 8.32033 6.68295 8.63233 6.92562 9.031C7.17695 9.421 7.30262 9.86733 7.30262 10.37C7.30262 10.8467 7.17262 11.2973 6.91262 11.722C6.65262 12.1467 6.27562 12.5583 5.78162 12.957L4.00062 14.309C3.74928 14.491 3.52828 14.6903 3.33762 14.907C3.15562 15.1237 3.01262 15.3533 2.90862 15.596C2.81328 15.83 2.76562 16.0857 2.76562 16.363ZM1.67362 17V16.09L2.50562 16.025H7.43262V17H1.67362ZM11.9643 17.156C11.6003 17.156 11.2277 17.104 10.8463 17C10.4737 16.8873 10.1183 16.7183 9.78034 16.493C9.451 16.2677 9.178 15.9773 8.96134 15.622L9.84534 15.115C10.1487 15.4963 10.478 15.7737 10.8333 15.947C11.1887 16.1203 11.557 16.207 11.9383 16.207C12.5363 16.207 13.0217 16.025 13.3943 15.661C13.7757 15.2883 13.9663 14.803 13.9663 14.205C13.9663 13.6157 13.7843 13.1347 13.4203 12.762C13.0563 12.3893 12.5797 12.203 11.9903 12.203C11.6697 12.203 11.3533 12.2767 11.0413 12.424C10.7293 12.5627 10.4867 12.736 10.3133 12.944L9.32534 12.71L9.76734 7.9H14.6163V8.888H9.83234L9.76734 7.939H10.8593L10.3523 12.762L9.50734 12.71C9.62867 12.5193 9.78034 12.3417 9.96234 12.177C10.1443 12.0123 10.3523 11.865 10.5863 11.735C10.829 11.5963 11.0847 11.488 11.3533 11.41C11.622 11.332 11.895 11.2973 12.1723 11.306C12.727 11.306 13.221 11.4273 13.6543 11.67C14.0877 11.9127 14.43 12.2507 14.6813 12.684C14.9327 13.1173 15.0583 13.6157 15.0583 14.179C15.0583 14.7683 14.924 15.2883 14.6553 15.739C14.3953 16.181 14.0313 16.5277 13.5633 16.779C13.104 17.0303 12.571 17.156 11.9643 17.156ZM19.8319 17.156C19.1385 17.156 18.5232 16.9567 17.9859 16.558C17.4485 16.1507 17.0282 15.596 16.7249 14.894C16.4215 14.1833 16.2699 13.3687 16.2699 12.45C16.2699 11.5313 16.4215 10.721 16.7249 10.019C17.0282 9.30833 17.4442 8.75367 17.9729 8.355C18.5102 7.94767 19.1299 7.744 19.8319 7.744C20.5339 7.744 21.1492 7.94767 21.6779 8.355C22.2152 8.75367 22.6355 9.30833 22.9389 10.019C23.2509 10.721 23.4069 11.5313 23.4069 12.45C23.4069 13.3687 23.2552 14.1833 22.9519 14.894C22.6485 15.596 22.2282 16.1507 21.6909 16.558C21.1535 16.9567 20.5339 17.156 19.8319 17.156ZM19.8319 16.168C20.3172 16.168 20.7462 16.0077 21.1189 15.687C21.5002 15.3663 21.7949 14.9287 22.0029 14.374C22.2195 13.8193 22.3279 13.178 22.3279 12.45C22.3279 11.722 22.2195 11.0807 22.0029 10.526C21.7949 9.96267 21.5002 9.525 21.1189 9.213C20.7462 8.89233 20.3172 8.732 19.8319 8.732C19.3465 8.732 18.9175 8.89233 18.5449 9.213C18.1722 9.525 17.8775 9.96267 17.6609 10.526C17.4529 11.0807 17.3489 11.722 17.3489 12.45C17.3489 13.178 17.4529 13.8193 17.6609 14.374C17.8775 14.9287 18.1722 15.3663 18.5449 15.687C18.9262 16.0077 19.3552 16.168 19.8319 16.168Z" fill="#7A7C7F"/>
<path d="M1.91503 72.363L0.823031 72.09C0.823031 71.804 0.879365 71.5223 0.992031 71.245C1.11336 70.959 1.28236 70.6773 1.49903 70.4C1.72436 70.1227 1.99736 69.8627 2.31803 69.62L4.20303 68.203C4.42836 68.047 4.62336 67.8693 4.78803 67.67C4.96136 67.462 5.0957 67.2497 5.19103 67.033C5.28636 66.8077 5.33403 66.591 5.33403 66.383C5.33403 66.0797 5.26036 65.8067 5.11303 65.564C4.9657 65.3127 4.7577 65.1133 4.48903 64.966C4.22036 64.8187 3.90403 64.745 3.54003 64.745C3.1847 64.745 2.8727 64.8143 2.60403 64.953C2.33536 65.083 2.11436 65.2607 1.94103 65.486C1.7677 65.7027 1.64203 65.9367 1.56403 66.188L0.446031 65.967C0.550031 65.577 0.736365 65.213 1.00503 64.875C1.28236 64.537 1.63336 64.264 2.05803 64.056C2.4827 63.848 2.95503 63.744 3.47503 63.744C4.0817 63.744 4.60603 63.861 5.04803 64.095C5.49003 64.3203 5.83236 64.6323 6.07503 65.031C6.32636 65.421 6.45203 65.8673 6.45203 66.37C6.45203 66.8467 6.32203 67.2973 6.06203 67.722C5.80203 68.1467 5.42503 68.5583 4.93103 68.957L3.15003 70.309C2.8987 70.491 2.6777 70.6903 2.48703 70.907C2.30503 71.1237 2.16203 71.3533 2.05803 71.596C1.9627 71.83 1.91503 72.0857 1.91503 72.363ZM0.823031 73V72.09L1.65503 72.025H6.58203V73H0.823031ZM11.5038 73.156C10.8104 73.156 10.1951 72.9567 9.65775 72.558C9.12042 72.1507 8.70008 71.596 8.39675 70.894C8.09342 70.1833 7.94175 69.3687 7.94175 68.45C7.94175 67.5313 8.09342 66.721 8.39675 66.019C8.70008 65.3083 9.11608 64.7537 9.64475 64.355C10.1821 63.9477 10.8018 63.744 11.5038 63.744C12.2058 63.744 12.8211 63.9477 13.3498 64.355C13.8871 64.7537 14.3074 65.3083 14.6108 66.019C14.9228 66.721 15.0788 67.5313 15.0788 68.45C15.0788 69.3687 14.9271 70.1833 14.6238 70.894C14.3204 71.596 13.9001 72.1507 13.3628 72.558C12.8254 72.9567 12.2058 73.156 11.5038 73.156ZM11.5038 72.168C11.9891 72.168 12.4181 72.0077 12.7908 71.687C13.1721 71.3663 13.4668 70.9287 13.6748 70.374C13.8914 69.8193 13.9998 69.178 13.9998 68.45C13.9998 67.722 13.8914 67.0807 13.6748 66.526C13.4668 65.9627 13.1721 65.525 12.7908 65.213C12.4181 64.8923 11.9891 64.732 11.5038 64.732C11.0184 64.732 10.5894 64.8923 10.2168 65.213C9.84408 65.525 9.54942 65.9627 9.33275 66.526C9.12475 67.0807 9.02075 67.722 9.02075 68.45C9.02075 69.178 9.12475 69.8193 9.33275 70.374C9.54942 70.9287 9.84408 71.3663 10.2168 71.687C10.5981 72.0077 11.0271 72.168 11.5038 72.168ZM19.8319 73.156C19.1385 73.156 18.5232 72.9567 17.9859 72.558C17.4485 72.1507 17.0282 71.596 16.7249 70.894C16.4215 70.1833 16.2699 69.3687 16.2699 68.45C16.2699 67.5313 16.4215 66.721 16.7249 66.019C17.0282 65.3083 17.4442 64.7537 17.9729 64.355C18.5102 63.9477 19.1299 63.744 19.8319 63.744C20.5339 63.744 21.1492 63.9477 21.6779 64.355C22.2152 64.7537 22.6355 65.3083 22.9389 66.019C23.2509 66.721 23.4069 67.5313 23.4069 68.45C23.4069 69.3687 23.2552 70.1833 22.9519 70.894C22.6485 71.596 22.2282 72.1507 21.6909 72.558C21.1535 72.9567 20.5339 73.156 19.8319 73.156ZM19.8319 72.168C20.3172 72.168 20.7462 72.0077 21.1189 71.687C21.5002 71.3663 21.7949 70.9287 22.0029 70.374C22.2195 69.8193 22.3279 69.178 22.3279 68.45C22.3279 67.722 22.2195 67.0807 22.0029 66.526C21.7949 65.9627 21.5002 65.525 21.1189 65.213C20.7462 64.8923 20.3172 64.732 19.8319 64.732C19.3465 64.732 18.9175 64.8923 18.5449 65.213C18.1722 65.525 17.8775 65.9627 17.6609 66.526C17.4529 67.0807 17.3489 67.722 17.3489 68.45C17.3489 69.178 17.4529 69.8193 17.6609 70.374C17.8775 70.9287 18.1722 71.3663 18.5449 71.687C18.9262 72.0077 19.3552 72.168 19.8319 72.168Z" fill="#7A7C7F"/>
<path d="M5.63222 129L5.64522 120.485L5.73622 119.9H6.72422L6.69822 129H5.63222ZM3.60422 122.24V121.239C3.78622 121.248 4.00289 121.187 4.25422 121.057C4.50555 120.927 4.76555 120.758 5.03422 120.55C5.30289 120.342 5.53689 120.125 5.73622 119.9L6.41222 120.641C6.12622 120.944 5.82722 121.217 5.51522 121.46C5.20322 121.703 4.88689 121.898 4.56622 122.045C4.24555 122.184 3.92489 122.249 3.60422 122.24ZM11.9643 129.156C11.6003 129.156 11.2277 129.104 10.8463 129C10.4737 128.887 10.1183 128.718 9.78034 128.493C9.451 128.268 9.178 127.977 8.96134 127.622L9.84534 127.115C10.1487 127.496 10.478 127.774 10.8333 127.947C11.1887 128.12 11.557 128.207 11.9383 128.207C12.5363 128.207 13.0217 128.025 13.3943 127.661C13.7757 127.288 13.9663 126.803 13.9663 126.205C13.9663 125.616 13.7843 125.135 13.4203 124.762C13.0563 124.389 12.5797 124.203 11.9903 124.203C11.6697 124.203 11.3533 124.277 11.0413 124.424C10.7293 124.563 10.4867 124.736 10.3133 124.944L9.32534 124.71L9.76734 119.9H14.6163V120.888H9.83234L9.76734 119.939H10.8593L10.3523 124.762L9.50734 124.71C9.62867 124.519 9.78034 124.342 9.96234 124.177C10.1443 124.012 10.3523 123.865 10.5863 123.735C10.829 123.596 11.0847 123.488 11.3533 123.41C11.622 123.332 11.895 123.297 12.1723 123.306C12.727 123.306 13.221 123.427 13.6543 123.67C14.0877 123.913 14.43 124.251 14.6813 124.684C14.9327 125.117 15.0583 125.616 15.0583 126.179C15.0583 126.768 14.924 127.288 14.6553 127.739C14.3953 128.181 14.0313 128.528 13.5633 128.779C13.104 129.03 12.571 129.156 11.9643 129.156ZM19.8319 129.156C19.1385 129.156 18.5232 128.957 17.9859 128.558C17.4485 128.151 17.0282 127.596 16.7249 126.894C16.4215 126.183 16.2699 125.369 16.2699 124.45C16.2699 123.531 16.4215 122.721 16.7249 122.019C17.0282 121.308 17.4442 120.754 17.9729 120.355C18.5102 119.948 19.1299 119.744 19.8319 119.744C20.5339 119.744 21.1492 119.948 21.6779 120.355C22.2152 120.754 22.6355 121.308 22.9389 122.019C23.2509 122.721 23.4069 123.531 23.4069 124.45C23.4069 125.369 23.2552 126.183 22.9519 126.894C22.6485 127.596 22.2282 128.151 21.6909 128.558C21.1535 128.957 20.5339 129.156 19.8319 129.156ZM19.8319 128.168C20.3172 128.168 20.7462 128.008 21.1189 127.687C21.5002 127.366 21.7949 126.929 22.0029 126.374C22.2195 125.819 22.3279 125.178 22.3279 124.45C22.3279 123.722 22.2195 123.081 22.0029 122.526C21.7949 121.963 21.5002 121.525 21.1189 121.213C20.7462 120.892 20.3172 120.732 19.8319 120.732C19.3465 120.732 18.9175 120.892 18.5449 121.213C18.1722 121.525 17.8775 121.963 17.6609 122.526C17.4529 123.081 17.3489 123.722 17.3489 124.45C17.3489 125.178 17.4529 125.819 17.6609 126.374C17.8775 126.929 18.1722 127.366 18.5449 127.687C18.9262 128.008 19.3552 128.168 19.8319 128.168Z" fill="#7A7C7F"/>
<path d="M4.78163 185L4.79463 176.485L4.88563 175.9H5.87363L5.84763 185H4.78163ZM2.75363 178.24V177.239C2.93563 177.248 3.1523 177.187 3.40363 177.057C3.65497 176.927 3.91497 176.758 4.18363 176.55C4.4523 176.342 4.6863 176.125 4.88563 175.9L5.56163 176.641C5.27563 176.944 4.97663 177.217 4.66463 177.46C4.35263 177.703 4.0363 177.898 3.71563 178.045C3.39497 178.184 3.0743 178.249 2.75363 178.24ZM11.5038 185.156C10.8104 185.156 10.1951 184.957 9.65775 184.558C9.12042 184.151 8.70008 183.596 8.39675 182.894C8.09342 182.183 7.94175 181.369 7.94175 180.45C7.94175 179.531 8.09342 178.721 8.39675 178.019C8.70008 177.308 9.11608 176.754 9.64475 176.355C10.1821 175.948 10.8018 175.744 11.5038 175.744C12.2058 175.744 12.8211 175.948 13.3498 176.355C13.8871 176.754 14.3074 177.308 14.6108 178.019C14.9228 178.721 15.0788 179.531 15.0788 180.45C15.0788 181.369 14.9271 182.183 14.6238 182.894C14.3204 183.596 13.9001 184.151 13.3628 184.558C12.8254 184.957 12.2058 185.156 11.5038 185.156ZM11.5038 184.168C11.9891 184.168 12.4181 184.008 12.7908 183.687C13.1721 183.366 13.4668 182.929 13.6748 182.374C13.8914 181.819 13.9998 181.178 13.9998 180.45C13.9998 179.722 13.8914 179.081 13.6748 178.526C13.4668 177.963 13.1721 177.525 12.7908 177.213C12.4181 176.892 11.9891 176.732 11.5038 176.732C11.0184 176.732 10.5894 176.892 10.2168 177.213C9.84408 177.525 9.54942 177.963 9.33275 178.526C9.12475 179.081 9.02075 179.722 9.02075 180.45C9.02075 181.178 9.12475 181.819 9.33275 182.374C9.54942 182.929 9.84408 183.366 10.2168 183.687C10.5981 184.008 11.0271 184.168 11.5038 184.168ZM19.8319 185.156C19.1385 185.156 18.5232 184.957 17.9859 184.558C17.4485 184.151 17.0282 183.596 16.7249 182.894C16.4215 182.183 16.2699 181.369 16.2699 180.45C16.2699 179.531 16.4215 178.721 16.7249 178.019C17.0282 177.308 17.4442 176.754 17.9729 176.355C18.5102 175.948 19.1299 175.744 19.8319 175.744C20.5339 175.744 21.1492 175.948 21.6779 176.355C22.2152 176.754 22.6355 177.308 22.9389 178.019C23.2509 178.721 23.4069 179.531 23.4069 180.45C23.4069 181.369 23.2552 182.183 22.9519 182.894C22.6485 183.596 22.2282 184.151 21.6909 184.558C21.1535 184.957 20.5339 185.156 19.8319 185.156ZM19.8319 184.168C20.3172 184.168 20.7462 184.008 21.1189 183.687C21.5002 183.366 21.7949 182.929 22.0029 182.374C22.2195 181.819 22.3279 181.178 22.3279 180.45C22.3279 179.722 22.2195 179.081 22.0029 178.526C21.7949 177.963 21.5002 177.525 21.1189 177.213C20.7462 176.892 20.3172 176.732 19.8319 176.732C19.3465 176.732 18.9175 176.892 18.5449 177.213C18.1722 177.525 17.8775 177.963 17.6609 178.526C17.4529 179.081 17.3489 179.722 17.3489 180.45C17.3489 181.178 17.4529 181.819 17.6609 182.374C17.8775 182.929 18.1722 183.366 18.5449 183.687C18.9262 184.008 19.3552 184.168 19.8319 184.168Z" fill="#7A7C7F"/>
<path d="M11.9643 241.156C11.6003 241.156 11.2277 241.104 10.8463 241C10.4737 240.887 10.1183 240.718 9.78034 240.493C9.451 240.268 9.178 239.977 8.96134 239.622L9.84534 239.115C10.1487 239.496 10.478 239.774 10.8333 239.947C11.1887 240.12 11.557 240.207 11.9383 240.207C12.5363 240.207 13.0217 240.025 13.3943 239.661C13.7757 239.288 13.9663 238.803 13.9663 238.205C13.9663 237.616 13.7843 237.135 13.4203 236.762C13.0563 236.389 12.5797 236.203 11.9903 236.203C11.6697 236.203 11.3533 236.277 11.0413 236.424C10.7293 236.563 10.4867 236.736 10.3133 236.944L9.32534 236.71L9.76734 231.9H14.6163V232.888H9.83234L9.76734 231.939H10.8593L10.3523 236.762L9.50734 236.71C9.62867 236.519 9.78034 236.342 9.96234 236.177C10.1443 236.012 10.3523 235.865 10.5863 235.735C10.829 235.596 11.0847 235.488 11.3533 235.41C11.622 235.332 11.895 235.297 12.1723 235.306C12.727 235.306 13.221 235.427 13.6543 235.67C14.0877 235.913 14.43 236.251 14.6813 236.684C14.9327 237.117 15.0583 237.616 15.0583 238.179C15.0583 238.768 14.924 239.288 14.6553 239.739C14.3953 240.181 14.0313 240.528 13.5633 240.779C13.104 241.03 12.571 241.156 11.9643 241.156ZM19.8319 241.156C19.1385 241.156 18.5232 240.957 17.9859 240.558C17.4485 240.151 17.0282 239.596 16.7249 238.894C16.4215 238.183 16.2699 237.369 16.2699 236.45C16.2699 235.531 16.4215 234.721 16.7249 234.019C17.0282 233.308 17.4442 232.754 17.9729 232.355C18.5102 231.948 19.1299 231.744 19.8319 231.744C20.5339 231.744 21.1492 231.948 21.6779 232.355C22.2152 232.754 22.6355 233.308 22.9389 234.019C23.2509 234.721 23.4069 235.531 23.4069 236.45C23.4069 237.369 23.2552 238.183 22.9519 238.894C22.6485 239.596 22.2282 240.151 21.6909 240.558C21.1535 240.957 20.5339 241.156 19.8319 241.156ZM19.8319 240.168C20.3172 240.168 20.7462 240.008 21.1189 239.687C21.5002 239.366 21.7949 238.929 22.0029 238.374C22.2195 237.819 22.3279 237.178 22.3279 236.45C22.3279 235.722 22.2195 235.081 22.0029 234.526C21.7949 233.963 21.5002 233.525 21.1189 233.213C20.7462 232.892 20.3172 232.732 19.8319 232.732C19.3465 232.732 18.9175 232.892 18.5449 233.213C18.1722 233.525 17.8775 233.963 17.6609 234.526C17.4529 235.081 17.3489 235.722 17.3489 236.45C17.3489 237.178 17.4529 237.819 17.6609 238.374C17.8775 238.929 18.1722 239.366 18.5449 239.687C18.9262 240.008 19.3552 240.168 19.8319 240.168Z" fill="#7A7C7F"/>
<path d="M19.8319 297.156C19.1385 297.156 18.5232 296.957 17.9859 296.558C17.4485 296.151 17.0282 295.596 16.7249 294.894C16.4215 294.183 16.2699 293.369 16.2699 292.45C16.2699 291.531 16.4215 290.721 16.7249 290.019C17.0282 289.308 17.4442 288.754 17.9729 288.355C18.5102 287.948 19.1299 287.744 19.8319 287.744C20.5339 287.744 21.1492 287.948 21.6779 288.355C22.2152 288.754 22.6355 289.308 22.9389 290.019C23.2509 290.721 23.4069 291.531 23.4069 292.45C23.4069 293.369 23.2552 294.183 22.9519 294.894C22.6485 295.596 22.2282 296.151 21.6909 296.558C21.1535 296.957 20.5339 297.156 19.8319 297.156ZM19.8319 296.168C20.3172 296.168 20.7462 296.008 21.1189 295.687C21.5002 295.366 21.7949 294.929 22.0029 294.374C22.2195 293.819 22.3279 293.178 22.3279 292.45C22.3279 291.722 22.2195 291.081 22.0029 290.526C21.7949 289.963 21.5002 289.525 21.1189 289.213C20.7462 288.892 20.3172 288.732 19.8319 288.732C19.3465 288.732 18.9175 288.892 18.5449 289.213C18.1722 289.525 17.8775 289.963 17.6609 290.526C17.4529 291.081 17.3489 291.722 17.3489 292.45C17.3489 293.178 17.4529 293.819 17.6609 294.374C17.8775 294.929 18.1722 295.366 18.5449 295.687C18.9262 296.008 19.3552 296.168 19.8319 296.168Z" fill="#7A7C7F"/>
<rect x="37" y="180.994" width="423.756" height="1.18436" fill="#ECEAF3"/>
<rect x="37" y="237" width="423.756" height="1.18436" fill="#ECEAF3"/>
<rect x="37" y="293.006" width="423.756" height="1.18436" fill="#ECEAF3"/>
<rect x="37" y="125.33" width="423.756" height="1.18436" fill="#ECEAF3"/>
<rect x="37" y="69.6648" width="423.756" height="1.18436" fill="#ECEAF3"/>
<rect x="37" y="14" width="423.756" height="1.18436" fill="#ECEAF3"/>
<path d="M39 30.7374C39 28.121 41.121 26 43.7374 26H51.2626C53.879 26 56 28.121 56 30.7374V294H39V30.7374Z" fill="url(#paint0_linear_399_16182)"/>
<path d="M61 232.737C61 230.121 63.121 228 65.7374 228H73.2626C75.879 228 78 230.121 78 232.737V294H61V232.737Z" fill="url(#paint1_linear_399_16182)"/>
<path d="M50.999 311.413L46.891 305.342L47.333 305.108L47.853 304.9L51.532 310.347L50.999 311.413ZM46.709 314V304.9H47.814V314H46.709ZM50.999 311.413L50.466 310.347L54.145 304.9L54.665 305.108L55.094 305.329L50.999 311.413ZM54.184 314V304.9H55.276V314H54.184ZM60.2771 314.156C59.6445 314.156 59.0811 314.013 58.5871 313.727C58.1018 313.432 57.7205 313.029 57.4431 312.518C57.1658 312.007 57.0271 311.417 57.0271 310.75C57.0271 310.083 57.1615 309.493 57.4301 308.982C57.7075 308.471 58.0888 308.072 58.5741 307.786C59.0681 307.491 59.6271 307.344 60.2511 307.344C60.8925 307.344 61.4558 307.491 61.9411 307.786C62.4351 308.072 62.8165 308.471 63.0851 308.982C63.3625 309.493 63.5011 310.083 63.5011 310.75C63.5011 311.417 63.3625 312.007 63.0851 312.518C62.8165 313.029 62.4395 313.432 61.9541 313.727C61.4688 314.013 60.9098 314.156 60.2771 314.156ZM60.2771 313.194C60.7105 313.194 61.0875 313.09 61.4081 312.882C61.7288 312.674 61.9801 312.388 62.1621 312.024C62.3528 311.66 62.4481 311.235 62.4481 310.75C62.4481 310.265 62.3528 309.84 62.1621 309.476C61.9801 309.112 61.7245 308.826 61.3951 308.618C61.0658 308.41 60.6845 308.306 60.2511 308.306C59.8265 308.306 59.4495 308.41 59.1201 308.618C58.7995 308.826 58.5438 309.112 58.3531 309.476C58.1711 309.84 58.0801 310.265 58.0801 310.75C58.0801 311.227 58.1711 311.651 58.3531 312.024C58.5438 312.388 58.8038 312.674 59.1331 312.882C59.4711 313.09 59.8525 313.194 60.2771 313.194ZM64.9452 314V307.5H65.9202L65.9852 308.696V314H64.9452ZM69.5082 314V310.672L70.5482 310.282V314H69.5082ZM69.5082 310.672C69.5082 310.031 69.4345 309.541 69.2872 309.203C69.1398 308.865 68.9362 308.635 68.6762 308.514C68.4162 308.384 68.1215 308.319 67.7922 308.319C67.2202 308.319 66.7738 308.523 66.4532 308.93C66.1412 309.329 65.9852 309.896 65.9852 310.633H65.4782C65.4782 309.948 65.5778 309.359 65.7772 308.865C65.9765 308.371 66.2625 307.994 66.6352 307.734C67.0165 307.474 67.4758 307.344 68.0132 307.344C68.8018 307.344 69.4215 307.587 69.8722 308.072C70.3315 308.557 70.5568 309.294 70.5482 310.282L69.5082 310.672Z" fill="#7A7C7F"/>
<path d="M102.333 20.7374C102.333 18.121 104.454 16 107.071 16H114.596C117.212 16 119.333 18.121 119.333 20.7374V294H102.333V20.7374Z" fill="url(#paint2_linear_399_16182)"/>
<path d="M124.333 251.737C124.333 249.121 126.454 247 129.071 247H136.596C139.212 247 141.333 249.121 141.333 251.737V294H124.333V251.737Z" fill="url(#paint3_linear_399_16182)"/>
<path d="M114.375 314V305.654H115.467V314H114.375ZM111.476 305.901V304.9H118.366V305.901H111.476ZM123.266 314L123.201 312.804V307.5H124.241V314H123.266ZM118.638 311.218V307.5H119.678V310.828L118.638 311.218ZM119.678 310.828C119.678 311.469 119.751 311.959 119.899 312.297C120.046 312.635 120.25 312.869 120.51 312.999C120.778 313.12 121.077 313.181 121.407 313.181C121.97 313.181 122.408 312.977 122.72 312.57C123.04 312.163 123.201 311.595 123.201 310.867H123.708C123.708 311.552 123.608 312.141 123.409 312.635C123.209 313.129 122.919 313.506 122.538 313.766C122.165 314.026 121.71 314.156 121.173 314.156C120.384 314.156 119.76 313.913 119.301 313.428C118.85 312.943 118.629 312.206 118.638 311.218L119.678 310.828ZM128.903 314.156C128.27 314.156 127.711 314.013 127.226 313.727C126.74 313.432 126.359 313.029 126.082 312.518C125.813 312.007 125.679 311.417 125.679 310.75C125.679 310.083 125.813 309.493 126.082 308.982C126.359 308.471 126.736 308.072 127.213 307.786C127.698 307.491 128.253 307.344 128.877 307.344C129.475 307.344 129.995 307.496 130.437 307.799C130.887 308.094 131.234 308.51 131.477 309.047C131.719 309.584 131.841 310.217 131.841 310.945H130.801C130.801 310.39 130.727 309.918 130.58 309.528C130.432 309.129 130.211 308.822 129.917 308.605C129.631 308.388 129.28 308.28 128.864 308.28C128.439 308.28 128.062 308.384 127.733 308.592C127.412 308.791 127.165 309.077 126.992 309.45C126.818 309.823 126.732 310.26 126.732 310.763C126.732 311.257 126.827 311.686 127.018 312.05C127.208 312.405 127.473 312.687 127.811 312.895C128.149 313.094 128.53 313.194 128.955 313.194C129.405 313.194 129.787 313.086 130.099 312.869C130.411 312.652 130.658 312.371 130.84 312.024L131.75 312.479C131.585 312.817 131.364 313.112 131.087 313.363C130.818 313.614 130.497 313.809 130.125 313.948C129.761 314.087 129.353 314.156 128.903 314.156ZM126.368 310.945L126.381 310.048H131.204V310.945H126.368Z" fill="#7A7C7F"/>
<path d="M165.667 53.7374C165.667 51.121 167.788 49 170.404 49H177.929C180.546 49 182.667 51.121 182.667 53.7374V294H165.667V53.7374Z" fill="url(#paint4_linear_399_16182)"/>
<path d="M187.667 204.737C187.667 202.121 189.788 200 192.404 200H199.929C202.546 200 204.667 202.121 204.667 204.737V294H187.667V204.737Z" fill="url(#paint5_linear_399_16182)"/>
<path d="M180.104 314L182.912 304.9H184.017L181.196 314H180.104ZM174.566 314L171.784 304.9H172.889L175.645 314H174.566ZM174.683 314L177.361 304.9H178.414L175.736 314H174.683ZM180.013 314L177.4 304.9H178.453L181.105 314H180.013ZM187.37 314.156C186.737 314.156 186.178 314.013 185.693 313.727C185.208 313.432 184.826 313.029 184.549 312.518C184.28 312.007 184.146 311.417 184.146 310.75C184.146 310.083 184.28 309.493 184.549 308.982C184.826 308.471 185.203 308.072 185.68 307.786C186.165 307.491 186.72 307.344 187.344 307.344C187.942 307.344 188.462 307.496 188.904 307.799C189.355 308.094 189.701 308.51 189.944 309.047C190.187 309.584 190.308 310.217 190.308 310.945H189.268C189.268 310.39 189.194 309.918 189.047 309.528C188.9 309.129 188.679 308.822 188.384 308.605C188.098 308.388 187.747 308.28 187.331 308.28C186.906 308.28 186.529 308.384 186.2 308.592C185.879 308.791 185.632 309.077 185.459 309.45C185.286 309.823 185.199 310.26 185.199 310.763C185.199 311.257 185.294 311.686 185.485 312.05C185.676 312.405 185.94 312.687 186.278 312.895C186.616 313.094 186.997 313.194 187.422 313.194C187.873 313.194 188.254 313.086 188.566 312.869C188.878 312.652 189.125 312.371 189.307 312.024L190.217 312.479C190.052 312.817 189.831 313.112 189.554 313.363C189.285 313.614 188.965 313.809 188.592 313.948C188.228 314.087 187.821 314.156 187.37 314.156ZM184.835 310.945L184.848 310.048H189.671V310.945H184.835ZM196.43 314L196.378 312.791V304.9H197.418V314H196.43ZM194.181 314.156C193.6 314.156 193.089 314.013 192.647 313.727C192.205 313.441 191.858 313.042 191.607 312.531C191.364 312.011 191.243 311.417 191.243 310.75C191.243 310.074 191.364 309.48 191.607 308.969C191.858 308.458 192.205 308.059 192.647 307.773C193.089 307.487 193.6 307.344 194.181 307.344C194.727 307.344 195.203 307.487 195.611 307.773C196.027 308.059 196.347 308.458 196.573 308.969C196.798 309.48 196.911 310.074 196.911 310.75C196.911 311.417 196.798 312.011 196.573 312.531C196.347 313.042 196.027 313.441 195.611 313.727C195.203 314.013 194.727 314.156 194.181 314.156ZM194.415 313.207C194.796 313.207 195.134 313.103 195.429 312.895C195.723 312.687 195.953 312.397 196.118 312.024C196.291 311.651 196.378 311.227 196.378 310.75C196.378 310.273 196.291 309.849 196.118 309.476C195.953 309.103 195.723 308.813 195.429 308.605C195.134 308.397 194.792 308.293 194.402 308.293C193.994 308.293 193.63 308.397 193.31 308.605C192.998 308.813 192.751 309.103 192.569 309.476C192.387 309.849 192.296 310.273 192.296 310.75C192.296 311.227 192.387 311.651 192.569 312.024C192.751 312.397 193.002 312.687 193.323 312.895C193.643 313.103 194.007 313.207 194.415 313.207Z" fill="#7A7C7F"/>
<path d="M229 37.7374C229 35.121 231.121 33 233.737 33H241.263C243.879 33 246 35.121 246 37.7374V294H229V37.7374Z" fill="url(#paint6_linear_399_16182)"/>
<path d="M251 260.737C251 258.121 253.121 256 255.737 256H263.263C265.879 256 268 258.121 268 260.737V294H251V260.737Z" fill="url(#paint7_linear_399_16182)"/>
<path d="M240.542 314V305.654H241.634V314H240.542ZM237.643 305.901V304.9H244.533V305.901H237.643ZM245.583 314V304.731H246.623V314H245.583ZM250.159 314V310.672L251.199 310.282V314H250.159ZM250.159 310.672C250.159 310.031 250.081 309.541 249.925 309.203C249.778 308.865 249.574 308.635 249.314 308.514C249.054 308.384 248.759 308.319 248.43 308.319C247.858 308.319 247.412 308.523 247.091 308.93C246.779 309.329 246.623 309.896 246.623 310.633H246.116C246.116 309.948 246.216 309.359 246.415 308.865C246.614 308.371 246.905 307.994 247.286 307.734C247.667 307.474 248.127 307.344 248.664 307.344C249.444 307.344 250.064 307.587 250.523 308.072C250.982 308.557 251.208 309.294 251.199 310.282L250.159 310.672ZM257.291 314L257.226 312.804V307.5H258.266V314H257.291ZM252.663 311.218V307.5H253.703V310.828L252.663 311.218ZM253.703 310.828C253.703 311.469 253.777 311.959 253.924 312.297C254.071 312.635 254.275 312.869 254.535 312.999C254.804 313.12 255.103 313.181 255.432 313.181C255.995 313.181 256.433 312.977 256.745 312.57C257.066 312.163 257.226 311.595 257.226 310.867H257.733C257.733 311.552 257.633 312.141 257.434 312.635C257.235 313.129 256.944 313.506 256.563 313.766C256.19 314.026 255.735 314.156 255.198 314.156C254.409 314.156 253.785 313.913 253.326 313.428C252.875 312.943 252.654 312.206 252.663 311.218L253.703 310.828Z" fill="#7A7C7F"/>
<path d="M292.333 60.7374C292.333 58.121 294.454 56 297.071 56H304.596C307.212 56 309.333 58.121 309.333 60.7374V294H292.333V60.7374Z" fill="url(#paint8_linear_399_16182)"/>
<path d="M314.333 219.737C314.333 217.121 316.454 215 319.071 215H326.596C329.212 215 331.333 217.121 331.333 219.737V294H314.333V219.737Z" fill="url(#paint9_linear_399_16182)"/>
<path d="M305.542 314V304.9H306.647V314H305.542ZM306.543 310.009V309.008H310.443V310.009H306.543ZM306.543 305.901V304.9H310.95V305.901H306.543ZM312.747 310.477C312.747 309.775 312.881 309.207 313.15 308.774C313.419 308.332 313.761 308.007 314.177 307.799C314.602 307.582 315.048 307.474 315.516 307.474V308.449C315.135 308.449 314.766 308.514 314.411 308.644C314.064 308.765 313.778 308.969 313.553 309.255C313.328 309.541 313.215 309.931 313.215 310.425L312.747 310.477ZM312.175 314V307.5H313.215V314H312.175ZM316.632 314L316.658 307.5H317.698L317.672 314H316.632ZM317.165 305.992C316.992 305.992 316.84 305.927 316.71 305.797C316.58 305.667 316.515 305.515 316.515 305.342C316.515 305.16 316.58 305.008 316.71 304.887C316.84 304.757 316.992 304.692 317.165 304.692C317.347 304.692 317.499 304.757 317.62 304.887C317.75 305.008 317.815 305.16 317.815 305.342C317.815 305.515 317.75 305.667 317.62 305.797C317.499 305.927 317.347 305.992 317.165 305.992Z" fill="#7A7C7F"/>
<path d="M355.667 246.737C355.667 244.121 357.788 242 360.404 242H367.929C370.546 242 372.667 244.121 372.667 246.737V294H355.667V246.737Z" fill="url(#paint10_linear_399_16182)"/>
<path d="M377.667 281.737C377.667 279.121 379.788 277 382.404 277H389.929C392.546 277 394.667 279.121 394.667 281.737V294H377.667V281.737Z" fill="url(#paint11_linear_399_16182)"/>
<path d="M369.288 314.156C368.785 314.156 368.339 314.104 367.949 314C367.559 313.887 367.221 313.736 366.935 313.545C366.649 313.346 366.415 313.129 366.233 312.895C366.051 312.652 365.916 312.397 365.83 312.128L366.883 311.764C367.013 312.145 367.273 312.479 367.663 312.765C368.061 313.042 368.547 313.181 369.119 313.181C369.821 313.181 370.371 313.042 370.77 312.765C371.168 312.488 371.368 312.119 371.368 311.66C371.368 311.235 371.19 310.893 370.835 310.633C370.479 310.364 370.011 310.156 369.431 310.009L368.43 309.749C368.022 309.645 367.645 309.493 367.299 309.294C366.961 309.086 366.688 308.826 366.48 308.514C366.28 308.193 366.181 307.812 366.181 307.37C366.181 306.547 366.445 305.905 366.974 305.446C367.511 304.978 368.282 304.744 369.288 304.744C369.886 304.744 370.401 304.844 370.835 305.043C371.268 305.234 371.619 305.481 371.888 305.784C372.165 306.079 372.36 306.399 372.473 306.746L371.433 307.11C371.268 306.677 370.991 306.339 370.601 306.096C370.211 305.845 369.738 305.719 369.184 305.719C368.603 305.719 368.139 305.862 367.793 306.148C367.455 306.425 367.286 306.807 367.286 307.292C367.286 307.708 367.42 308.029 367.689 308.254C367.957 308.471 368.308 308.631 368.742 308.735L369.743 308.982C370.627 309.19 371.303 309.537 371.771 310.022C372.247 310.499 372.486 311.014 372.486 311.569C372.486 312.046 372.364 312.483 372.122 312.882C371.879 313.272 371.519 313.584 371.043 313.818C370.575 314.043 369.99 314.156 369.288 314.156ZM378.066 314L378.001 312.934V310.568C378.001 310.057 377.94 309.636 377.819 309.307C377.706 308.969 377.529 308.718 377.286 308.553C377.052 308.38 376.74 308.293 376.35 308.293C375.977 308.293 375.652 308.367 375.375 308.514C375.106 308.661 374.885 308.891 374.712 309.203L373.776 308.826C373.949 308.523 374.157 308.258 374.4 308.033C374.643 307.808 374.924 307.639 375.245 307.526C375.574 307.405 375.947 307.344 376.363 307.344C376.961 307.344 377.459 307.461 377.858 307.695C378.257 307.929 378.556 308.28 378.755 308.748C378.954 309.207 379.05 309.784 379.041 310.477L379.028 314H378.066ZM376.116 314.156C375.353 314.156 374.755 313.983 374.322 313.636C373.897 313.281 373.685 312.791 373.685 312.167C373.685 311.508 373.902 311.006 374.335 310.659C374.777 310.304 375.392 310.126 376.181 310.126H378.04V310.997H376.415C375.808 310.997 375.375 311.097 375.115 311.296C374.864 311.495 374.738 311.781 374.738 312.154C374.738 312.492 374.864 312.761 375.115 312.96C375.366 313.151 375.717 313.246 376.168 313.246C376.541 313.246 376.866 313.159 377.143 312.986C377.42 312.813 377.633 312.579 377.78 312.284C377.927 311.981 378.001 311.638 378.001 311.257H378.638C378.638 312.141 378.421 312.847 377.988 313.376C377.555 313.896 376.931 314.156 376.116 314.156ZM383.133 314.156C382.5 314.156 382.011 313.991 381.664 313.662C381.317 313.333 381.144 312.869 381.144 312.271V305.472H382.184V312.167C382.184 312.496 382.271 312.752 382.444 312.934C382.626 313.107 382.877 313.194 383.198 313.194C383.302 313.194 383.402 313.181 383.497 313.155C383.601 313.12 383.735 313.042 383.9 312.921L384.303 313.766C384.078 313.913 383.874 314.013 383.692 314.065C383.51 314.126 383.324 314.156 383.133 314.156ZM380.013 308.423V307.5H384.134V308.423H380.013Z" fill="#7A7C7F"/>
<path d="M419 274.737C419 272.121 421.121 270 423.737 270H431.263C433.879 270 436 272.121 436 274.737V294H419V274.737Z" fill="url(#paint12_linear_399_16182)"/>
<path d="M441 292.737C441 290.121 443.121 288 445.737 288H453.263C455.879 288 458 290.121 458 292.737V294H441V292.737Z" fill="url(#paint13_linear_399_16182)"/>
<path d="M431.121 314.156C430.618 314.156 430.172 314.104 429.782 314C429.392 313.887 429.054 313.736 428.768 313.545C428.482 313.346 428.248 313.129 428.066 312.895C427.884 312.652 427.75 312.397 427.663 312.128L428.716 311.764C428.846 312.145 429.106 312.479 429.496 312.765C429.895 313.042 430.38 313.181 430.952 313.181C431.654 313.181 432.204 313.042 432.603 312.765C433.002 312.488 433.201 312.119 433.201 311.66C433.201 311.235 433.023 310.893 432.668 310.633C432.313 310.364 431.845 310.156 431.264 310.009L430.263 309.749C429.856 309.645 429.479 309.493 429.132 309.294C428.794 309.086 428.521 308.826 428.313 308.514C428.114 308.193 428.014 307.812 428.014 307.37C428.014 306.547 428.278 305.905 428.807 305.446C429.344 304.978 430.116 304.744 431.121 304.744C431.719 304.744 432.235 304.844 432.668 305.043C433.101 305.234 433.452 305.481 433.721 305.784C433.998 306.079 434.193 306.399 434.306 306.746L433.266 307.11C433.101 306.677 432.824 306.339 432.434 306.096C432.044 305.845 431.572 305.719 431.017 305.719C430.436 305.719 429.973 305.862 429.626 306.148C429.288 306.425 429.119 306.807 429.119 307.292C429.119 307.708 429.253 308.029 429.522 308.254C429.791 308.471 430.142 308.631 430.575 308.735L431.576 308.982C432.46 309.19 433.136 309.537 433.604 310.022C434.081 310.499 434.319 311.014 434.319 311.569C434.319 312.046 434.198 312.483 433.955 312.882C433.712 313.272 433.353 313.584 432.876 313.818C432.408 314.043 431.823 314.156 431.121 314.156ZM440.354 314L440.289 312.804V307.5H441.329V314H440.354ZM435.726 311.218V307.5H436.766V310.828L435.726 311.218ZM436.766 310.828C436.766 311.469 436.84 311.959 436.987 312.297C437.135 312.635 437.338 312.869 437.598 312.999C437.867 313.12 438.166 313.181 438.495 313.181C439.059 313.181 439.496 312.977 439.808 312.57C440.129 312.163 440.289 311.595 440.289 310.867H440.796C440.796 311.552 440.697 312.141 440.497 312.635C440.298 313.129 440.008 313.506 439.626 313.766C439.254 314.026 438.799 314.156 438.261 314.156C437.473 314.156 436.849 313.913 436.389 313.428C435.939 312.943 435.718 312.206 435.726 311.218L436.766 310.828ZM443.144 314V307.5H444.119L444.184 308.696V314H443.144ZM447.707 314V310.672L448.747 310.282V314H447.707ZM447.707 310.672C447.707 310.031 447.634 309.541 447.486 309.203C447.339 308.865 447.135 308.635 446.875 308.514C446.615 308.384 446.321 308.319 445.991 308.319C445.419 308.319 444.973 308.523 444.652 308.93C444.34 309.329 444.184 309.896 444.184 310.633H443.677C443.677 309.948 443.777 309.359 443.976 308.865C444.176 308.371 444.462 307.994 444.834 307.734C445.216 307.474 445.675 307.344 446.212 307.344C447.001 307.344 447.621 307.587 448.071 308.072C448.531 308.557 448.756 309.294 448.747 310.282L447.707 310.672Z" fill="#7A7C7F"/>
<g filter="url(#filter0_d_399_16182)">
<path d="M169.771 140C166.031 140 163 143.128 163 146.987V180.526C163 184.385 166.031 187.513 169.771 187.513H190.422L196.708 194L202.994 187.513H221.229C224.969 187.513 228 184.385 228 180.526V146.987C228 143.128 224.969 140 221.229 140H169.771Z" fill="#465762"/>
</g>
<path d="M187.504 163.632C187.064 163.632 186.614 163.567 186.154 163.437C185.704 163.297 185.284 163.092 184.894 162.822C184.504 162.542 184.194 162.187 183.964 161.757L185.209 161.187C185.529 161.587 185.879 161.882 186.259 162.072C186.639 162.252 187.034 162.342 187.444 162.342C188.094 162.342 188.619 162.147 189.019 161.757C189.419 161.367 189.619 160.847 189.619 160.197C189.619 159.567 189.424 159.052 189.034 158.652C188.644 158.252 188.134 158.052 187.504 158.052C187.144 158.052 186.799 158.132 186.469 158.292C186.139 158.442 185.884 158.632 185.704 158.862L184.369 158.562L184.909 152.952H190.594V154.302H185.044L184.909 152.997H186.379L185.734 158.652L184.714 158.562C184.844 158.352 185.009 158.147 185.209 157.947C185.419 157.747 185.659 157.567 185.929 157.407C186.209 157.237 186.509 157.102 186.829 157.002C187.159 156.902 187.499 156.857 187.849 156.867C188.479 156.867 189.039 157.007 189.529 157.287C190.019 157.567 190.404 157.957 190.684 158.457C190.974 158.947 191.119 159.512 191.119 160.152C191.119 160.842 190.964 161.447 190.654 161.967C190.344 162.487 189.919 162.897 189.379 163.197C188.839 163.487 188.214 163.632 187.504 163.632ZM196.251 163.632C195.531 163.632 194.926 163.497 194.436 163.227C193.946 162.957 193.551 162.592 193.251 162.132C192.961 161.662 192.751 161.122 192.621 160.512C192.491 159.902 192.426 159.252 192.426 158.562C192.426 157.692 192.516 156.902 192.696 156.192C192.876 155.482 193.141 154.872 193.491 154.362C193.841 153.852 194.271 153.462 194.781 153.192C195.291 152.912 195.876 152.772 196.536 152.772C197.066 152.772 197.591 152.857 198.111 153.027C198.631 153.187 199.096 153.412 199.506 153.702L198.711 154.767C198.391 154.547 198.046 154.382 197.676 154.272C197.306 154.152 196.961 154.092 196.641 154.092C195.691 154.092 194.961 154.497 194.451 155.307C193.941 156.107 193.711 157.342 193.761 159.012L193.461 158.757C193.701 158.167 194.076 157.697 194.586 157.347C195.106 156.987 195.716 156.807 196.416 156.807C197.096 156.807 197.696 156.957 198.216 157.257C198.736 157.557 199.141 157.967 199.431 158.487C199.721 158.997 199.866 159.587 199.866 160.257C199.866 160.907 199.716 161.487 199.416 161.997C199.116 162.507 198.691 162.907 198.141 163.197C197.601 163.487 196.971 163.632 196.251 163.632ZM196.266 162.342C196.676 162.342 197.041 162.252 197.361 162.072C197.681 161.892 197.931 161.642 198.111 161.322C198.301 160.992 198.396 160.622 198.396 160.212C198.396 159.792 198.301 159.422 198.111 159.102C197.931 158.772 197.681 158.517 197.361 158.337C197.041 158.157 196.676 158.067 196.266 158.067C195.846 158.067 195.471 158.157 195.141 158.337C194.821 158.517 194.566 158.772 194.376 159.102C194.196 159.422 194.106 159.792 194.106 160.212C194.106 160.622 194.196 160.992 194.376 161.322C194.566 161.642 194.821 161.892 195.141 162.072C195.471 162.252 195.846 162.342 196.266 162.342ZM204.386 152.772C205.116 152.772 205.721 152.907 206.201 153.177C206.691 153.447 207.086 153.817 207.386 154.287C207.686 154.747 207.901 155.282 208.031 155.892C208.161 156.502 208.226 157.152 208.226 157.842C208.226 158.712 208.131 159.507 207.941 160.227C207.761 160.937 207.496 161.547 207.146 162.057C206.806 162.557 206.381 162.947 205.871 163.227C205.361 163.497 204.771 163.632 204.101 163.632C203.571 163.632 203.046 163.552 202.526 163.392C202.016 163.232 201.556 163.002 201.146 162.702L201.941 161.637C202.251 161.857 202.591 162.027 202.961 162.147C203.331 162.267 203.681 162.327 204.011 162.327C204.961 162.327 205.691 161.922 206.201 161.112C206.711 160.302 206.936 159.062 206.876 157.392L207.191 157.647C206.951 158.237 206.571 158.712 206.051 159.072C205.541 159.422 204.931 159.597 204.221 159.597C203.551 159.597 202.956 159.447 202.436 159.147C201.916 158.847 201.506 158.442 201.206 157.932C200.916 157.412 200.771 156.822 200.771 156.162C200.771 155.492 200.921 154.907 201.221 154.407C201.521 153.897 201.941 153.497 202.481 153.207C203.031 152.917 203.666 152.772 204.386 152.772ZM204.386 154.062C203.976 154.062 203.606 154.152 203.276 154.332C202.956 154.512 202.701 154.762 202.511 155.082C202.331 155.402 202.241 155.772 202.241 156.192C202.241 156.612 202.331 156.987 202.511 157.317C202.701 157.637 202.956 157.892 203.276 158.082C203.606 158.262 203.976 158.352 204.386 158.352C204.806 158.352 205.176 158.262 205.496 158.082C205.826 157.892 206.081 157.637 206.261 157.317C206.451 156.987 206.546 156.612 206.546 156.192C206.546 155.772 206.451 155.402 206.261 155.082C206.081 154.762 205.826 154.512 205.496 154.332C205.176 154.152 204.806 154.062 204.386 154.062Z" fill="white"/>
<path d="M179.545 177V169.3H180.48V177H179.545ZM180.326 177V176.153H184.11V177H180.326ZM187.416 177.132C186.88 177.132 186.407 177.011 185.997 176.769C185.586 176.52 185.263 176.179 185.029 175.746C184.801 175.313 184.688 174.815 184.688 174.25C184.688 173.685 184.801 173.187 185.029 172.754C185.263 172.321 185.582 171.984 185.986 171.742C186.396 171.493 186.866 171.368 187.394 171.368C187.9 171.368 188.34 171.496 188.714 171.753C189.095 172.002 189.388 172.354 189.594 172.809C189.799 173.264 189.902 173.799 189.902 174.415H189.022C189.022 173.946 188.959 173.546 188.835 173.216C188.71 172.879 188.523 172.618 188.274 172.435C188.032 172.252 187.735 172.16 187.383 172.16C187.023 172.16 186.704 172.248 186.426 172.424C186.154 172.593 185.945 172.835 185.799 173.15C185.652 173.465 185.579 173.836 185.579 174.261C185.579 174.679 185.659 175.042 185.821 175.35C185.982 175.651 186.206 175.889 186.492 176.065C186.778 176.234 187.1 176.318 187.46 176.318C187.841 176.318 188.164 176.226 188.428 176.043C188.692 175.86 188.901 175.621 189.055 175.328L189.825 175.713C189.685 175.999 189.498 176.248 189.264 176.461C189.036 176.674 188.765 176.839 188.45 176.956C188.142 177.073 187.797 177.132 187.416 177.132ZM185.271 174.415L185.282 173.656H189.363V174.415H185.271ZM194.4 177L194.345 176.098V174.096C194.345 173.663 194.293 173.308 194.191 173.029C194.095 172.743 193.945 172.53 193.74 172.391C193.542 172.244 193.278 172.171 192.948 172.171C192.632 172.171 192.357 172.233 192.123 172.358C191.895 172.483 191.708 172.677 191.562 172.941L190.77 172.622C190.916 172.365 191.092 172.142 191.298 171.951C191.503 171.76 191.741 171.617 192.013 171.522C192.291 171.419 192.607 171.368 192.959 171.368C193.465 171.368 193.886 171.467 194.224 171.665C194.561 171.863 194.814 172.16 194.983 172.556C195.151 172.945 195.232 173.432 195.225 174.019L195.214 177H194.4ZM192.75 177.132C192.104 177.132 191.598 176.985 191.232 176.692C190.872 176.391 190.693 175.977 190.693 175.449C190.693 174.892 190.876 174.466 191.243 174.173C191.617 173.872 192.137 173.722 192.805 173.722H194.378V174.459H193.003C192.489 174.459 192.123 174.543 191.903 174.712C191.69 174.881 191.584 175.123 191.584 175.438C191.584 175.724 191.69 175.951 191.903 176.12C192.115 176.281 192.412 176.362 192.794 176.362C193.109 176.362 193.384 176.289 193.619 176.142C193.853 175.995 194.033 175.797 194.158 175.548C194.282 175.291 194.345 175.002 194.345 174.679H194.884C194.884 175.427 194.7 176.025 194.334 176.472C193.967 176.912 193.439 177.132 192.75 177.132ZM198.216 177L200.46 171.5H201.384L199.085 177H198.216ZM198.161 177L195.862 171.5H196.775L199.019 177H198.161ZM204.528 177.132C203.993 177.132 203.52 177.011 203.109 176.769C202.698 176.52 202.376 176.179 202.141 175.746C201.914 175.313 201.8 174.815 201.8 174.25C201.8 173.685 201.914 173.187 202.141 172.754C202.376 172.321 202.695 171.984 203.098 171.742C203.509 171.493 203.978 171.368 204.506 171.368C205.012 171.368 205.452 171.496 205.826 171.753C206.207 172.002 206.501 172.354 206.706 172.809C206.911 173.264 207.014 173.799 207.014 174.415H206.134C206.134 173.946 206.072 173.546 205.947 173.216C205.822 172.879 205.635 172.618 205.386 172.435C205.144 172.252 204.847 172.16 204.495 172.16C204.136 172.16 203.817 172.248 203.538 172.424C203.267 172.593 203.058 172.835 202.911 173.15C202.764 173.465 202.691 173.836 202.691 174.261C202.691 174.679 202.772 175.042 202.933 175.35C203.094 175.651 203.318 175.889 203.604 176.065C203.89 176.234 204.213 176.318 204.572 176.318C204.953 176.318 205.276 176.226 205.54 176.043C205.804 175.86 206.013 175.621 206.167 175.328L206.937 175.713C206.798 175.999 206.611 176.248 206.376 176.461C206.149 176.674 205.877 176.839 205.562 176.956C205.254 177.073 204.909 177.132 204.528 177.132ZM202.383 174.415L202.394 173.656H206.475V174.415H202.383ZM210.049 177.132C209.646 177.132 209.294 177.073 208.993 176.956C208.692 176.831 208.439 176.67 208.234 176.472C208.036 176.274 207.893 176.058 207.805 175.823L208.575 175.504C208.7 175.753 208.887 175.955 209.136 176.109C209.385 176.263 209.66 176.34 209.961 176.34C210.306 176.34 210.595 176.274 210.83 176.142C211.065 176.003 211.182 175.808 211.182 175.559C211.182 175.332 211.094 175.148 210.918 175.009C210.749 174.87 210.496 174.756 210.159 174.668L209.631 174.525C209.132 174.393 208.744 174.195 208.465 173.931C208.186 173.66 208.047 173.355 208.047 173.018C208.047 172.497 208.216 172.094 208.553 171.808C208.898 171.515 209.407 171.368 210.082 171.368C210.405 171.368 210.698 171.416 210.962 171.511C211.226 171.606 211.453 171.742 211.644 171.918C211.835 172.087 211.974 172.288 212.062 172.523L211.292 172.864C211.197 172.615 211.039 172.435 210.819 172.325C210.599 172.215 210.331 172.16 210.016 172.16C209.679 172.16 209.415 172.233 209.224 172.38C209.033 172.519 208.938 172.717 208.938 172.974C208.938 173.121 209.015 173.26 209.169 173.392C209.33 173.517 209.565 173.619 209.873 173.7L210.423 173.843C210.782 173.931 211.083 174.063 211.325 174.239C211.567 174.408 211.75 174.602 211.875 174.822C212 175.042 212.062 175.277 212.062 175.526C212.062 175.856 211.974 176.142 211.798 176.384C211.622 176.626 211.384 176.813 211.083 176.945C210.782 177.07 210.438 177.132 210.049 177.132Z" fill="#465762"/>
<path d="M179.545 177V169.3H180.48V177H179.545ZM180.326 177V176.153H184.11V177H180.326ZM187.416 177.132C186.88 177.132 186.407 177.011 185.997 176.769C185.586 176.52 185.263 176.179 185.029 175.746C184.801 175.313 184.688 174.815 184.688 174.25C184.688 173.685 184.801 173.187 185.029 172.754C185.263 172.321 185.582 171.984 185.986 171.742C186.396 171.493 186.866 171.368 187.394 171.368C187.9 171.368 188.34 171.496 188.714 171.753C189.095 172.002 189.388 172.354 189.594 172.809C189.799 173.264 189.902 173.799 189.902 174.415H189.022C189.022 173.946 188.959 173.546 188.835 173.216C188.71 172.879 188.523 172.618 188.274 172.435C188.032 172.252 187.735 172.16 187.383 172.16C187.023 172.16 186.704 172.248 186.426 172.424C186.154 172.593 185.945 172.835 185.799 173.15C185.652 173.465 185.579 173.836 185.579 174.261C185.579 174.679 185.659 175.042 185.821 175.35C185.982 175.651 186.206 175.889 186.492 176.065C186.778 176.234 187.1 176.318 187.46 176.318C187.841 176.318 188.164 176.226 188.428 176.043C188.692 175.86 188.901 175.621 189.055 175.328L189.825 175.713C189.685 175.999 189.498 176.248 189.264 176.461C189.036 176.674 188.765 176.839 188.45 176.956C188.142 177.073 187.797 177.132 187.416 177.132ZM185.271 174.415L185.282 173.656H189.363V174.415H185.271ZM194.4 177L194.345 176.098V174.096C194.345 173.663 194.293 173.308 194.191 173.029C194.095 172.743 193.945 172.53 193.74 172.391C193.542 172.244 193.278 172.171 192.948 172.171C192.632 172.171 192.357 172.233 192.123 172.358C191.895 172.483 191.708 172.677 191.562 172.941L190.77 172.622C190.916 172.365 191.092 172.142 191.298 171.951C191.503 171.76 191.741 171.617 192.013 171.522C192.291 171.419 192.607 171.368 192.959 171.368C193.465 171.368 193.886 171.467 194.224 171.665C194.561 171.863 194.814 172.16 194.983 172.556C195.151 172.945 195.232 173.432 195.225 174.019L195.214 177H194.4ZM192.75 177.132C192.104 177.132 191.598 176.985 191.232 176.692C190.872 176.391 190.693 175.977 190.693 175.449C190.693 174.892 190.876 174.466 191.243 174.173C191.617 173.872 192.137 173.722 192.805 173.722H194.378V174.459H193.003C192.489 174.459 192.123 174.543 191.903 174.712C191.69 174.881 191.584 175.123 191.584 175.438C191.584 175.724 191.69 175.951 191.903 176.12C192.115 176.281 192.412 176.362 192.794 176.362C193.109 176.362 193.384 176.289 193.619 176.142C193.853 175.995 194.033 175.797 194.158 175.548C194.282 175.291 194.345 175.002 194.345 174.679H194.884C194.884 175.427 194.7 176.025 194.334 176.472C193.967 176.912 193.439 177.132 192.75 177.132ZM198.216 177L200.46 171.5H201.384L199.085 177H198.216ZM198.161 177L195.862 171.5H196.775L199.019 177H198.161ZM204.528 177.132C203.993 177.132 203.52 177.011 203.109 176.769C202.698 176.52 202.376 176.179 202.141 175.746C201.914 175.313 201.8 174.815 201.8 174.25C201.8 173.685 201.914 173.187 202.141 172.754C202.376 172.321 202.695 171.984 203.098 171.742C203.509 171.493 203.978 171.368 204.506 171.368C205.012 171.368 205.452 171.496 205.826 171.753C206.207 172.002 206.501 172.354 206.706 172.809C206.911 173.264 207.014 173.799 207.014 174.415H206.134C206.134 173.946 206.072 173.546 205.947 173.216C205.822 172.879 205.635 172.618 205.386 172.435C205.144 172.252 204.847 172.16 204.495 172.16C204.136 172.16 203.817 172.248 203.538 172.424C203.267 172.593 203.058 172.835 202.911 173.15C202.764 173.465 202.691 173.836 202.691 174.261C202.691 174.679 202.772 175.042 202.933 175.35C203.094 175.651 203.318 175.889 203.604 176.065C203.89 176.234 204.213 176.318 204.572 176.318C204.953 176.318 205.276 176.226 205.54 176.043C205.804 175.86 206.013 175.621 206.167 175.328L206.937 175.713C206.798 175.999 206.611 176.248 206.376 176.461C206.149 176.674 205.877 176.839 205.562 176.956C205.254 177.073 204.909 177.132 204.528 177.132ZM202.383 174.415L202.394 173.656H206.475V174.415H202.383ZM210.049 177.132C209.646 177.132 209.294 177.073 208.993 176.956C208.692 176.831 208.439 176.67 208.234 176.472C208.036 176.274 207.893 176.058 207.805 175.823L208.575 175.504C208.7 175.753 208.887 175.955 209.136 176.109C209.385 176.263 209.66 176.34 209.961 176.34C210.306 176.34 210.595 176.274 210.83 176.142C211.065 176.003 211.182 175.808 211.182 175.559C211.182 175.332 211.094 175.148 210.918 175.009C210.749 174.87 210.496 174.756 210.159 174.668L209.631 174.525C209.132 174.393 208.744 174.195 208.465 173.931C208.186 173.66 208.047 173.355 208.047 173.018C208.047 172.497 208.216 172.094 208.553 171.808C208.898 171.515 209.407 171.368 210.082 171.368C210.405 171.368 210.698 171.416 210.962 171.511C211.226 171.606 211.453 171.742 211.644 171.918C211.835 172.087 211.974 172.288 212.062 172.523L211.292 172.864C211.197 172.615 211.039 172.435 210.819 172.325C210.599 172.215 210.331 172.16 210.016 172.16C209.679 172.16 209.415 172.233 209.224 172.38C209.033 172.519 208.938 172.717 208.938 172.974C208.938 173.121 209.015 173.26 209.169 173.392C209.33 173.517 209.565 173.619 209.873 173.7L210.423 173.843C210.782 173.931 211.083 174.063 211.325 174.239C211.567 174.408 211.75 174.602 211.875 174.822C212 175.042 212.062 175.277 212.062 175.526C212.062 175.856 211.974 176.142 211.798 176.384C211.622 176.626 211.384 176.813 211.083 176.945C210.782 177.07 210.438 177.132 210.049 177.132Z" fill="white" fill-opacity="0.6"/>
<defs>
<filter id="filter0_d_399_16182" x="147" y="132" width="97" height="86" filterUnits="userSpaceOnUse" color-interpolation-filters="sRGB">
<feFlood flood-opacity="0" result="BackgroundImageFix"/>
<feColorMatrix in="SourceAlpha" type="matrix" values="0 0 0 0 0 0 0 0 0 0 0 0 0 0 0 0 0 0 127 0" result="hardAlpha"/>
<feOffset dy="8"/>
<feGaussianBlur stdDeviation="8"/>
<feColorMatrix type="matrix" values="0 0 0 0 0 0 0 0 0 0 0 0 0 0 0 0 0 0 0.06 0"/>
<feBlend mode="normal" in2="BackgroundImageFix" result="effect1_dropShadow_399_16182"/>
<feBlend mode="normal" in="SourceGraphic" in2="effect1_dropShadow_399_16182" result="shape"/>
</filter>
<linearGradient id="paint0_linear_399_16182" x1="39" y1="294" x2="72.8637" y2="291.852" gradientUnits="userSpaceOnUse">
<stop stop-color="#5655D7"/>
<stop offset="1" stop-color="#7F7EFF"/>
</linearGradient>
<linearGradient id="paint1_linear_399_16182" x1="61" y1="294" x2="92.8846" y2="285.787" gradientUnits="userSpaceOnUse">
<stop stop-color="#4ABDE8"/>
<stop offset="1" stop-color="#77DAFF"/>
</linearGradient>
<linearGradient id="paint2_linear_399_16182" x1="102.333" y1="294" x2="136.207" y2="291.929" gradientUnits="userSpaceOnUse">
<stop stop-color="#5655D7"/>
<stop offset="1" stop-color="#7F7EFF"/>
</linearGradient>
<linearGradient id="paint3_linear_399_16182" x1="124.333" y1="294" x2="154.4" y2="283.125" gradientUnits="userSpaceOnUse">
<stop stop-color="#4ABDE8"/>
<stop offset="1" stop-color="#77DAFF"/>
</linearGradient>
<linearGradient id="paint4_linear_399_16182" x1="165.667" y1="294" x2="199.504" y2="291.652" gradientUnits="userSpaceOnUse">
<stop stop-color="#5655D7"/>
<stop offset="1" stop-color="#7F7EFF"/>
</linearGradient>
<linearGradient id="paint5_linear_399_16182" x1="187.667" y1="294" x2="220.59" y2="288.046" gradientUnits="userSpaceOnUse">
<stop stop-color="#4ABDE8"/>
<stop offset="1" stop-color="#77DAFF"/>
</linearGradient>
<linearGradient id="paint6_linear_399_16182" x1="229" y1="294" x2="262.856" y2="291.795" gradientUnits="userSpaceOnUse">
<stop stop-color="#5655D7"/>
<stop offset="1" stop-color="#7F7EFF"/>
</linearGradient>
<linearGradient id="paint7_linear_399_16182" x1="251" y1="294" x2="279.33" y2="281.326" gradientUnits="userSpaceOnUse">
<stop stop-color="#4ABDE8"/>
<stop offset="1" stop-color="#77DAFF"/>
</linearGradient>
<linearGradient id="paint8_linear_399_16182" x1="292.333" y1="294" x2="326.161" y2="291.584" gradientUnits="userSpaceOnUse">
<stop stop-color="#5655D7"/>
<stop offset="1" stop-color="#7F7EFF"/>
</linearGradient>
<linearGradient id="paint9_linear_399_16182" x1="314.333" y1="294" x2="346.829" y2="287.007" gradientUnits="userSpaceOnUse">
<stop stop-color="#4ABDE8"/>
<stop offset="1" stop-color="#77DAFF"/>
</linearGradient>
<linearGradient id="paint10_linear_399_16182" x1="355.667" y1="294" x2="386.384" y2="283.958" gradientUnits="userSpaceOnUse">
<stop stop-color="#5655D7"/>
<stop offset="1" stop-color="#7F7EFF"/>
</linearGradient>
<linearGradient id="paint11_linear_399_16182" x1="377.667" y1="294" x2="394.667" y2="277" gradientUnits="userSpaceOnUse">
<stop stop-color="#4ABDE8"/>
<stop offset="1" stop-color="#77DAFF"/>
</linearGradient>
<linearGradient id="paint12_linear_399_16182" x1="419" y1="294" x2="441.64" y2="277.963" gradientUnits="userSpaceOnUse">
<stop stop-color="#5655D7"/>
<stop offset="1" stop-color="#7F7EFF"/>
</linearGradient>
<linearGradient id="paint13_linear_399_16182" x1="441" y1="294" x2="444.766" y2="283.329" gradientUnits="userSpaceOnUse">
<stop stop-color="#4ABDE8"/>
<stop offset="1" stop-color="#77DAFF"/>
</linearGradient>
</defs>
</svg>
