<svg width="56" height="22" viewBox="0 0 56 22" fill="none" xmlns="http://www.w3.org/2000/svg">
<rect y="0.5" width="56" height="21" rx="10.5" fill="#5655D7" fill-opacity="0.16"/>
<path d="M20.1875 7.34375V10.5938C20.1875 10.7015 20.1447 10.8048 20.0685 10.881C19.9923 10.9572 19.889 11 19.7812 11C19.6735 11 19.5702 10.9572 19.494 10.881C19.4178 10.8048 19.375 10.7015 19.375 10.5938V8.32434L15.1937 12.5062C15.1559 12.5439 15.1111 12.5739 15.0618 12.5944C15.0125 12.6148 14.9596 12.6253 14.9062 12.6253C14.8528 12.6253 14.8 12.6148 14.7507 12.5944C14.7013 12.5739 14.6565 12.5439 14.6188 12.5062L12.875 10.7618L9.50615 14.1312C9.42992 14.2074 9.32654 14.2502 9.21873 14.2502C9.11093 14.2502 9.00754 14.2074 8.93131 14.1312C8.85508 14.0549 8.81226 13.9516 8.81226 13.8438C8.81226 13.7359 8.85508 13.6326 8.93131 13.5563L12.5876 9.90008C12.6253 9.86231 12.6701 9.83234 12.7194 9.8119C12.7687 9.79145 12.8216 9.78093 12.875 9.78093C12.9284 9.78093 12.9812 9.79145 13.0306 9.8119C13.0799 9.83234 13.1247 9.86231 13.1624 9.90008L14.9062 11.6444L18.8006 7.75H16.5312C16.4235 7.75 16.3202 7.7072 16.244 7.63101C16.1678 7.55483 16.125 7.45149 16.125 7.34375C16.125 7.23601 16.1678 7.13267 16.244 7.05649C16.3202 6.9803 16.4235 6.9375 16.5312 6.9375H19.7812C19.889 6.9375 19.9923 6.9803 20.0685 7.05649C20.1447 7.13267 20.1875 7.23601 20.1875 7.34375Z" fill="#5655D7"/>
<path d="M27.837 14.093L26.594 13.521C26.594 13.2937 26.6527 13.059 26.77 12.817C26.8873 12.5677 27.0523 12.3183 27.265 12.069C27.485 11.8197 27.7417 11.585 28.035 11.365L29.377 10.397C29.5457 10.2797 29.6997 10.144 29.839 9.99C29.9857 9.836 30.103 9.67467 30.191 9.506C30.279 9.33 30.323 9.15767 30.323 8.989C30.323 8.77633 30.268 8.582 30.158 8.406C30.0553 8.23 29.905 8.09067 29.707 7.988C29.5163 7.88533 29.2817 7.834 29.003 7.834C28.7537 7.834 28.53 7.88533 28.332 7.988C28.1413 8.08333 27.9837 8.21167 27.859 8.373C27.7343 8.53433 27.6463 8.71033 27.595 8.901L26.286 8.659C26.3593 8.307 26.5133 7.98067 26.748 7.68C26.99 7.372 27.298 7.12633 27.672 6.943C28.0533 6.75967 28.486 6.668 28.97 6.668C29.5127 6.668 29.982 6.767 30.378 6.965C30.7813 7.163 31.0893 7.438 31.302 7.79C31.522 8.13467 31.632 8.53067 31.632 8.978C31.632 9.43267 31.5073 9.84333 31.258 10.21C31.016 10.5693 30.675 10.914 30.235 11.244L29.003 12.157C28.7977 12.3037 28.6033 12.4723 28.42 12.663C28.244 12.8463 28.101 13.0553 27.991 13.29C27.8883 13.5247 27.837 13.7923 27.837 14.093ZM26.594 14.5V13.521L27.54 13.367H31.731V14.5H26.594ZM35.4962 14.632C35.1588 14.632 34.8142 14.5807 34.4622 14.478C34.1175 14.368 33.7985 14.2067 33.5052 13.994C33.2118 13.774 32.9882 13.499 32.8342 13.169L33.9672 12.751C34.1578 13.0223 34.3815 13.2203 34.6382 13.345C34.8948 13.4623 35.1588 13.521 35.4302 13.521C35.8628 13.521 36.2148 13.3927 36.4862 13.136C36.7575 12.872 36.8932 12.5237 36.8932 12.091C36.8932 11.673 36.7612 11.3283 36.4972 11.057C36.2332 10.7857 35.8885 10.65 35.4632 10.65C35.2138 10.65 34.9792 10.705 34.7592 10.815C34.5465 10.925 34.3815 11.057 34.2642 11.211L33.1092 10.958L33.5382 6.8H37.7952V7.955H33.6922L33.5382 6.844H34.8032L34.2752 11.057L33.4942 10.958C33.5822 10.8113 33.6958 10.6647 33.8352 10.518C33.9818 10.364 34.1578 10.221 34.3632 10.089C34.5685 9.957 34.7958 9.85067 35.0452 9.77C35.2945 9.68933 35.5658 9.65267 35.8592 9.66C36.2992 9.66 36.6952 9.76267 37.0472 9.968C37.3992 10.1733 37.6778 10.4557 37.8832 10.815C38.0885 11.167 38.1912 11.574 38.1912 12.036C38.1912 12.5493 38.0738 13.0003 37.8392 13.389C37.6118 13.7777 37.2965 14.082 36.8932 14.302C36.4898 14.522 36.0242 14.632 35.4962 14.632ZM39.6666 14.5L45.1336 6.8H46.4096L40.9096 14.5H39.6666ZM45.2326 14.676C44.8879 14.676 44.5836 14.5953 44.3196 14.434C44.0556 14.2727 43.8466 14.049 43.6926 13.763C43.5459 13.477 43.4726 13.1543 43.4726 12.795C43.4726 12.4283 43.5459 12.1057 43.6926 11.827C43.8392 11.5483 44.0446 11.3283 44.3086 11.167C44.5799 11.0057 44.8879 10.925 45.2326 10.925C45.5772 10.925 45.8816 11.0057 46.1456 11.167C46.4096 11.3283 46.6149 11.5483 46.7616 11.827C46.9156 12.1057 46.9926 12.4283 46.9926 12.795C46.9926 13.1543 46.9156 13.477 46.7616 13.763C46.6149 14.049 46.4096 14.2727 46.1456 14.434C45.8816 14.5953 45.5772 14.676 45.2326 14.676ZM45.2326 13.807C45.4746 13.807 45.6726 13.7117 45.8266 13.521C45.9806 13.3303 46.0576 13.0883 46.0576 12.795C46.0576 12.509 45.9806 12.2707 45.8266 12.08C45.6726 11.882 45.4746 11.783 45.2326 11.783C44.9906 11.783 44.7889 11.882 44.6276 12.08C44.4736 12.2707 44.3966 12.509 44.3966 12.795C44.3966 13.0883 44.4736 13.3303 44.6276 13.521C44.7889 13.7117 44.9906 13.807 45.2326 13.807ZM40.8766 10.375C40.5392 10.375 40.2349 10.2943 39.9636 10.133C39.6996 9.97167 39.4942 9.748 39.3476 9.462C39.2009 9.176 39.1276 8.85333 39.1276 8.494C39.1276 8.12733 39.2009 7.80467 39.3476 7.526C39.4942 7.24733 39.6996 7.02733 39.9636 6.866C40.2349 6.70467 40.5429 6.624 40.8876 6.624C41.2322 6.624 41.5366 6.70467 41.8006 6.866C42.0646 7.02733 42.2699 7.24733 42.4166 7.526C42.5632 7.80467 42.6366 8.12733 42.6366 8.494C42.6366 8.85333 42.5632 9.176 42.4166 9.462C42.2699 9.748 42.0609 9.97167 41.7896 10.133C41.5256 10.2943 41.2212 10.375 40.8766 10.375ZM40.8766 9.506C41.1259 9.506 41.3276 9.41067 41.4816 9.22C41.6356 9.02933 41.7126 8.78733 41.7126 8.494C41.7126 8.208 41.6356 7.96967 41.4816 7.779C41.3276 7.58833 41.1259 7.493 40.8766 7.493C40.6346 7.493 40.4366 7.58833 40.2826 7.779C40.1286 7.96967 40.0516 8.208 40.0516 8.494C40.0516 8.78733 40.1286 9.02933 40.2826 9.22C40.4366 9.41067 40.6346 9.506 40.8766 9.506Z" fill="#5655D7"/>
</svg>
