<svg width="50" height="22" viewBox="0 0 50 22" fill="none" xmlns="http://www.w3.org/2000/svg">
<rect y="0.5" width="50" height="21" rx="10.5" fill="#4ABDE8" fill-opacity="0.16"/>
<path d="M20.1875 11.4062V14.6562C20.1875 14.764 20.1447 14.8673 20.0685 14.9435C19.9923 15.0197 19.889 15.0625 19.7812 15.0625H16.5312C16.4235 15.0625 16.3202 15.0197 16.244 14.9435C16.1678 14.8673 16.125 14.764 16.125 14.6562C16.125 14.5485 16.1678 14.4452 16.244 14.369C16.3202 14.2928 16.4235 14.25 16.5312 14.25H18.8006L14.9062 10.3556L13.1624 12.0999C13.1247 12.1377 13.0799 12.1676 13.0306 12.1881C12.9812 12.2085 12.9284 12.2191 12.875 12.2191C12.8216 12.2191 12.7687 12.2085 12.7194 12.1881C12.6701 12.1676 12.6253 12.1377 12.5876 12.0999L8.93131 8.44365C8.85508 8.36742 8.81226 8.26404 8.81226 8.15623C8.81226 8.04843 8.85508 7.94504 8.93131 7.86881C9.00754 7.79258 9.11093 7.74976 9.21873 7.74976C9.32654 7.74976 9.42992 7.79258 9.50615 7.86881L12.875 11.2381L14.6188 9.49381C14.6565 9.45604 14.7013 9.42607 14.7507 9.40563C14.8 9.38519 14.8528 9.37466 14.9062 9.37466C14.9596 9.37466 15.0125 9.38519 15.0618 9.40563C15.1111 9.42607 15.1559 9.45604 15.1937 9.49381L19.375 13.6756V11.4062C19.375 11.2985 19.4178 11.1952 19.494 11.119C19.5702 11.0428 19.6735 11 19.7812 11C19.889 11 19.9923 11.0428 20.0685 11.119C20.1447 11.1952 20.1875 11.2985 20.1875 11.4062Z" fill="#4ABDE8"/>
<path d="M29.212 14.632C28.8747 14.632 28.53 14.5807 28.178 14.478C27.8333 14.368 27.5143 14.2067 27.221 13.994C26.9277 13.774 26.704 13.499 26.55 13.169L27.683 12.751C27.8737 13.0223 28.0973 13.2203 28.354 13.345C28.6107 13.4623 28.8747 13.521 29.146 13.521C29.5787 13.521 29.9307 13.3927 30.202 13.136C30.4733 12.872 30.609 12.5237 30.609 12.091C30.609 11.673 30.477 11.3283 30.213 11.057C29.949 10.7857 29.6043 10.65 29.179 10.65C28.9297 10.65 28.695 10.705 28.475 10.815C28.2623 10.925 28.0973 11.057 27.98 11.211L26.825 10.958L27.254 6.8H31.511V7.955H27.408L27.254 6.844H28.519L27.991 11.057L27.21 10.958C27.298 10.8113 27.4117 10.6647 27.551 10.518C27.6977 10.364 27.8737 10.221 28.079 10.089C28.2843 9.957 28.5117 9.85067 28.761 9.77C29.0103 9.68933 29.2817 9.65267 29.575 9.66C30.015 9.66 30.411 9.76267 30.763 9.968C31.115 10.1733 31.3937 10.4557 31.599 10.815C31.8043 11.167 31.907 11.574 31.907 12.036C31.907 12.5493 31.7897 13.0003 31.555 13.389C31.3277 13.7777 31.0123 14.082 30.609 14.302C30.2057 14.522 29.74 14.632 29.212 14.632ZM33.3824 14.5L38.8494 6.8H40.1254L34.6254 14.5H33.3824ZM38.9484 14.676C38.6037 14.676 38.2994 14.5953 38.0354 14.434C37.7714 14.2727 37.5624 14.049 37.4084 13.763C37.2617 13.477 37.1884 13.1543 37.1884 12.795C37.1884 12.4283 37.2617 12.1057 37.4084 11.827C37.555 11.5483 37.7604 11.3283 38.0244 11.167C38.2957 11.0057 38.6037 10.925 38.9484 10.925C39.293 10.925 39.5974 11.0057 39.8614 11.167C40.1254 11.3283 40.3307 11.5483 40.4774 11.827C40.6314 12.1057 40.7084 12.4283 40.7084 12.795C40.7084 13.1543 40.6314 13.477 40.4774 13.763C40.3307 14.049 40.1254 14.2727 39.8614 14.434C39.5974 14.5953 39.293 14.676 38.9484 14.676ZM38.9484 13.807C39.1904 13.807 39.3884 13.7117 39.5424 13.521C39.6964 13.3303 39.7734 13.0883 39.7734 12.795C39.7734 12.509 39.6964 12.2707 39.5424 12.08C39.3884 11.882 39.1904 11.783 38.9484 11.783C38.7064 11.783 38.5047 11.882 38.3434 12.08C38.1894 12.2707 38.1124 12.509 38.1124 12.795C38.1124 13.0883 38.1894 13.3303 38.3434 13.521C38.5047 13.7117 38.7064 13.807 38.9484 13.807ZM34.5924 10.375C34.255 10.375 33.9507 10.2943 33.6794 10.133C33.4154 9.97167 33.21 9.748 33.0634 9.462C32.9167 9.176 32.8434 8.85333 32.8434 8.494C32.8434 8.12733 32.9167 7.80467 33.0634 7.526C33.21 7.24733 33.4154 7.02733 33.6794 6.866C33.9507 6.70467 34.2587 6.624 34.6034 6.624C34.948 6.624 35.2524 6.70467 35.5164 6.866C35.7804 7.02733 35.9857 7.24733 36.1324 7.526C36.279 7.80467 36.3524 8.12733 36.3524 8.494C36.3524 8.85333 36.279 9.176 36.1324 9.462C35.9857 9.748 35.7767 9.97167 35.5054 10.133C35.2414 10.2943 34.937 10.375 34.5924 10.375ZM34.5924 9.506C34.8417 9.506 35.0434 9.41067 35.1974 9.22C35.3514 9.02933 35.4284 8.78733 35.4284 8.494C35.4284 8.208 35.3514 7.96967 35.1974 7.779C35.0434 7.58833 34.8417 7.493 34.5924 7.493C34.3504 7.493 34.1524 7.58833 33.9984 7.779C33.8444 7.96967 33.7674 8.208 33.7674 8.494C33.7674 8.78733 33.8444 9.02933 33.9984 9.22C34.1524 9.41067 34.3504 9.506 34.5924 9.506Z" fill="#4ABDE8"/>
</svg>
