<svg width="24" height="25" viewBox="0 0 24 25" fill="none" xmlns="http://www.w3.org/2000/svg">
<path d="M12 9.20752C11.2583 9.20752 10.5333 9.42745 9.91661 9.83951C9.29993 10.2516 8.81928 10.8372 8.53545 11.5225C8.25162 12.2077 8.17736 12.9617 8.32205 13.6891C8.46675 14.4165 8.8239 15.0847 9.34835 15.6092C9.8728 16.1336 10.541 16.4908 11.2684 16.6355C11.9958 16.7802 12.7498 16.7059 13.4351 16.4221C14.1203 16.1382 14.706 15.6576 15.118 15.0409C15.5301 14.4242 15.75 13.6992 15.75 12.9575C15.75 11.963 15.3549 11.0091 14.6517 10.3059C13.9484 9.60261 12.9946 9.20752 12 9.20752ZM12 15.2075C11.555 15.2075 11.12 15.0756 10.75 14.8283C10.38 14.5811 10.0916 14.2297 9.92127 13.8186C9.75097 13.4074 9.70642 12.955 9.79323 12.5186C9.88005 12.0821 10.0943 11.6812 10.409 11.3665C10.7237 11.0519 11.1246 10.8376 11.561 10.7508C11.9975 10.6639 12.4499 10.7085 12.861 10.8788C13.2722 11.0491 13.6236 11.3375 13.8708 11.7075C14.118 12.0775 14.25 12.5125 14.25 12.9575C14.25 13.5543 14.0129 14.1266 13.591 14.5485C13.169 14.9705 12.5967 15.2075 12 15.2075ZM22.5 6.20752H1.5C1.30109 6.20752 1.11032 6.28654 0.96967 6.42719C0.829018 6.56784 0.75 6.75861 0.75 6.95752V18.9575C0.75 19.1564 0.829018 19.3472 0.96967 19.4879C1.11032 19.6285 1.30109 19.7075 1.5 19.7075H22.5C22.6989 19.7075 22.8897 19.6285 23.0303 19.4879C23.171 19.3472 23.25 19.1564 23.25 18.9575V6.95752C23.25 6.75861 23.171 6.56784 23.0303 6.42719C22.8897 6.28654 22.6989 6.20752 22.5 6.20752ZM18.1547 18.2075H5.84531C5.5935 17.3559 5.13263 16.5808 4.50467 15.9528C3.87671 15.3249 3.10162 14.864 2.25 14.6122V11.3028C3.10162 11.051 3.87671 10.5902 4.50467 9.96219C5.13263 9.33423 5.5935 8.55914 5.84531 7.70752H18.1547C18.4065 8.55914 18.8674 9.33423 19.4953 9.96219C20.1233 10.5902 20.8984 11.051 21.75 11.3028V14.6122C20.8984 14.864 20.1233 15.3249 19.4953 15.9528C18.8674 16.5808 18.4065 17.3559 18.1547 18.2075ZM21.75 9.71096C20.8504 9.32414 20.1334 8.60711 19.7466 7.70752H21.75V9.71096ZM4.25344 7.70752C3.86662 8.60711 3.14959 9.32414 2.25 9.71096V7.70752H4.25344ZM2.25 16.2041C3.14959 16.5909 3.86662 17.3079 4.25344 18.2075H2.25V16.2041ZM19.7466 18.2075C20.1334 17.3079 20.8504 16.5909 21.75 16.2041V18.2075H19.7466Z" fill="#4D5154"/>
</svg>
