<svg width="24" height="25" viewBox="0 0 24 25" fill="none" xmlns="http://www.w3.org/2000/svg">
<path d="M19.5 3.95752H17.25V3.20752C17.25 3.00861 17.171 2.81784 17.0303 2.67719C16.8897 2.53654 16.6989 2.45752 16.5 2.45752C16.3011 2.45752 16.1103 2.53654 15.9697 2.67719C15.829 2.81784 15.75 3.00861 15.75 3.20752V3.95752H8.25V3.20752C8.25 3.00861 8.17098 2.81784 8.03033 2.67719C7.88968 2.53654 7.69891 2.45752 7.5 2.45752C7.30109 2.45752 7.11032 2.53654 6.96967 2.67719C6.82902 2.81784 6.75 3.00861 6.75 3.20752V3.95752H4.5C4.10218 3.95752 3.72064 4.11555 3.43934 4.39686C3.15804 4.67816 3 5.05969 3 5.45752V20.4575C3 20.8553 3.15804 21.2369 3.43934 21.5182C3.72064 21.7995 4.10218 21.9575 4.5 21.9575H19.5C19.8978 21.9575 20.2794 21.7995 20.5607 21.5182C20.842 21.2369 21 20.8553 21 20.4575V5.45752C21 5.05969 20.842 4.67816 20.5607 4.39686C20.2794 4.11555 19.8978 3.95752 19.5 3.95752ZM6.75 5.45752V6.20752C6.75 6.40643 6.82902 6.5972 6.96967 6.73785C7.11032 6.8785 7.30109 6.95752 7.5 6.95752C7.69891 6.95752 7.88968 6.8785 8.03033 6.73785C8.17098 6.5972 8.25 6.40643 8.25 6.20752V5.45752H15.75V6.20752C15.75 6.40643 15.829 6.5972 15.9697 6.73785C16.1103 6.8785 16.3011 6.95752 16.5 6.95752C16.6989 6.95752 16.8897 6.8785 17.0303 6.73785C17.171 6.5972 17.25 6.40643 17.25 6.20752V5.45752H19.5V8.45752H4.5V5.45752H6.75ZM19.5 20.4575H4.5V9.95752H19.5V20.4575ZM10.5 12.2075V18.2075C10.5 18.4064 10.421 18.5972 10.2803 18.7379C10.1397 18.8785 9.94891 18.9575 9.75 18.9575C9.55109 18.9575 9.36032 18.8785 9.21967 18.7379C9.07902 18.5972 9 18.4064 9 18.2075V13.4206L8.58563 13.6288C8.4076 13.7178 8.2015 13.7324 8.01268 13.6695C7.82385 13.6065 7.66776 13.4712 7.57875 13.2931C7.48974 13.1151 7.47509 12.909 7.53803 12.7202C7.60097 12.5314 7.73635 12.3753 7.91437 12.2863L9.41437 11.5363C9.52876 11.479 9.65589 11.452 9.78367 11.4577C9.91145 11.4635 10.0356 11.5018 10.1444 11.5691C10.2532 11.6363 10.343 11.7303 10.4052 11.8421C10.4675 11.9538 10.5001 12.0796 10.5 12.2075ZM16.0463 15.0622L14.25 17.4575H15.75C15.9489 17.4575 16.1397 17.5365 16.2803 17.6772C16.421 17.8178 16.5 18.0086 16.5 18.2075C16.5 18.4064 16.421 18.5972 16.2803 18.7379C16.1397 18.8785 15.9489 18.9575 15.75 18.9575H12.75C12.6107 18.9575 12.4742 18.9187 12.3557 18.8455C12.2372 18.7723 12.1415 18.6675 12.0792 18.5429C12.0169 18.4184 11.9905 18.2789 12.003 18.1402C12.0155 18.0014 12.0664 17.8689 12.15 17.7575L14.8481 14.1603C14.9095 14.0786 14.9535 13.9852 14.9775 13.8859C15.0015 13.7866 15.0049 13.6834 14.9876 13.5827C14.9703 13.482 14.9325 13.3859 14.8767 13.3003C14.8209 13.2147 14.7482 13.1414 14.6631 13.0849C14.5779 13.0284 14.4821 12.9899 14.3816 12.9718C14.281 12.9537 14.1778 12.9563 14.0783 12.9795C13.9788 13.0026 13.885 13.0459 13.8028 13.1066C13.7206 13.1673 13.6517 13.2442 13.6003 13.3325C13.5525 13.4205 13.4876 13.4981 13.4093 13.5606C13.3311 13.6231 13.2411 13.6693 13.1447 13.6965C13.0483 13.7237 12.9474 13.7313 12.8481 13.7188C12.7487 13.7064 12.6528 13.6742 12.5661 13.6241C12.4794 13.574 12.4035 13.507 12.3431 13.4271C12.2827 13.3473 12.2389 13.2561 12.2142 13.159C12.1896 13.062 12.1847 12.9609 12.1997 12.8619C12.2148 12.7629 12.2495 12.6679 12.3019 12.5825C12.5496 12.1538 12.9319 11.8188 13.3894 11.6294C13.8469 11.44 14.3541 11.4068 14.8324 11.5349C15.3107 11.6631 15.7333 11.9455 16.0348 12.3383C16.3363 12.7311 16.4998 13.2124 16.5 13.7075C16.5016 14.1967 16.3421 14.6727 16.0463 15.0622Z" fill="#4D5154"/>
</svg>
