<svg width="24" height="25" viewBox="0 0 24 25" fill="none" xmlns="http://www.w3.org/2000/svg">
<path d="M7.79906 17.3075C7.87788 17.3668 7.96761 17.4099 8.06312 17.4344C8.15862 17.4589 8.25802 17.4644 8.35564 17.4504C8.45325 17.4365 8.54716 17.4035 8.63198 17.3532C8.71681 17.3029 8.7909 17.2364 8.85 17.1575C9.30409 16.5521 9.89291 16.0606 10.5698 15.7222C11.2468 15.3837 11.9932 15.2075 12.75 15.2075C13.5068 15.2075 14.2532 15.3837 14.9302 15.7222C15.6071 16.0606 16.1959 16.5521 16.65 17.1575C16.7091 17.2363 16.7831 17.3027 16.8679 17.3529C16.9526 17.4031 17.0464 17.4361 17.1439 17.45C17.2414 17.4639 17.3407 17.4585 17.4361 17.4341C17.5315 17.4096 17.6212 17.3666 17.7 17.3075C17.7788 17.2484 17.8452 17.1744 17.8954 17.0896C17.9455 17.0049 17.9785 16.9111 17.9925 16.8136C18.0064 16.7161 18.001 16.6168 17.9765 16.5214C17.9521 16.426 17.9091 16.3363 17.85 16.2575C17.1859 15.3671 16.3003 14.6661 15.2812 14.2241C15.8397 13.7142 16.231 13.0474 16.4037 12.3112C16.5764 11.575 16.5225 10.8038 16.2491 10.0987C15.9756 9.39369 15.4954 8.7878 14.8715 8.36056C14.2476 7.93332 13.509 7.70469 12.7528 7.70469C11.9966 7.70469 11.2581 7.93332 10.6341 8.36056C10.0102 8.7878 9.52999 9.39369 9.25655 10.0987C8.98311 10.8038 8.92922 11.575 9.10194 12.3112C9.27466 13.0474 9.66592 13.7142 10.2244 14.2241C9.20328 14.6653 8.31566 15.3664 7.65 16.2575C7.53055 16.4165 7.47915 16.6165 7.50711 16.8134C7.53506 17.0103 7.64008 17.188 7.79906 17.3075ZM10.5 11.4575C10.5 11.0125 10.632 10.5775 10.8792 10.2075C11.1264 9.83748 11.4778 9.54909 11.889 9.37879C12.3001 9.20849 12.7525 9.16394 13.189 9.25075C13.6254 9.33757 14.0263 9.55186 14.341 9.86653C14.6557 10.1812 14.87 10.5821 14.9568 11.0186C15.0436 11.455 14.999 11.9074 14.8287 12.3186C14.6584 12.7297 14.37 13.0811 14 13.3283C13.63 13.5756 13.195 13.7075 12.75 13.7075C12.1533 13.7075 11.581 13.4705 11.159 13.0485C10.7371 12.6266 10.5 12.0543 10.5 11.4575ZM19.5 3.20752H6C5.60218 3.20752 5.22064 3.36555 4.93934 3.64686C4.65804 3.92816 4.5 4.30969 4.5 4.70752V6.95752H3C2.80109 6.95752 2.61032 7.03654 2.46967 7.17719C2.32902 7.31784 2.25 7.50861 2.25 7.70752C2.25 7.90643 2.32902 8.0972 2.46967 8.23785C2.61032 8.3785 2.80109 8.45752 3 8.45752H4.5V12.2075H3C2.80109 12.2075 2.61032 12.2865 2.46967 12.4272C2.32902 12.5678 2.25 12.7586 2.25 12.9575C2.25 13.1564 2.32902 13.3472 2.46967 13.4879C2.61032 13.6285 2.80109 13.7075 3 13.7075H4.5V17.4575H3C2.80109 17.4575 2.61032 17.5365 2.46967 17.6772C2.32902 17.8178 2.25 18.0086 2.25 18.2075C2.25 18.4064 2.32902 18.5972 2.46967 18.7379C2.61032 18.8785 2.80109 18.9575 3 18.9575H4.5V21.2075C4.5 21.6053 4.65804 21.9869 4.93934 22.2682C5.22064 22.5495 5.60218 22.7075 6 22.7075H19.5C19.8978 22.7075 20.2794 22.5495 20.5607 22.2682C20.842 21.9869 21 21.6053 21 21.2075V4.70752C21 4.30969 20.842 3.92816 20.5607 3.64686C20.2794 3.36555 19.8978 3.20752 19.5 3.20752ZM19.5 21.2075H6V4.70752H19.5V21.2075Z" fill="#4D5154"/>
</svg>
