<svg width="24" height="25" viewBox="0 0 24 25" fill="none" xmlns="http://www.w3.org/2000/svg">
<path d="M22.4999 6.20752V12.2075C22.4999 12.4064 22.4209 12.5972 22.2803 12.7378C22.1396 12.8785 21.9488 12.9575 21.7499 12.9575C21.551 12.9575 21.3603 12.8785 21.2196 12.7378C21.0789 12.5972 20.9999 12.4064 20.9999 12.2075V8.01783L13.2806 15.7381C13.2109 15.8079 13.1282 15.8632 13.0371 15.9009C12.9461 15.9387 12.8485 15.9581 12.7499 15.9581C12.6514 15.9581 12.5538 15.9387 12.4627 15.9009C12.3717 15.8632 12.289 15.8079 12.2193 15.7381L8.99993 12.5178L2.78055 18.7381C2.63982 18.8789 2.44895 18.9579 2.24993 18.9579C2.05091 18.9579 1.86003 18.8789 1.7193 18.7381C1.57857 18.5974 1.49951 18.4065 1.49951 18.2075C1.49951 18.0085 1.57857 17.8176 1.7193 17.6769L8.4693 10.9269C8.53896 10.8572 8.62168 10.8018 8.71272 10.7641C8.80377 10.7264 8.90137 10.7069 8.99993 10.7069C9.09849 10.7069 9.19609 10.7264 9.28713 10.7641C9.37818 10.8018 9.4609 10.8572 9.53055 10.9269L12.7499 14.1472L19.9396 6.95752H15.7499C15.551 6.95752 15.3603 6.8785 15.2196 6.73785C15.0789 6.5972 14.9999 6.40643 14.9999 6.20752C14.9999 6.00861 15.0789 5.81784 15.2196 5.67719C15.3603 5.53654 15.551 5.45752 15.7499 5.45752H21.7499C21.9488 5.45752 22.1396 5.53654 22.2803 5.67719C22.4209 5.81784 22.4999 6.00861 22.4999 6.20752Z" fill="#4D5154"/>
</svg>
