<svg width="24" height="25" viewBox="0 0 24 25" fill="none" xmlns="http://www.w3.org/2000/svg">
<path d="M20.5153 10.6859L13.0153 3.6097C13.0116 3.6065 13.0082 3.60306 13.005 3.59939C12.7289 3.34826 12.369 3.20911 11.9958 3.20911C11.6225 3.20911 11.2627 3.34826 10.9866 3.59939L10.9763 3.6097L3.48469 10.6859C3.33187 10.8265 3.20989 10.9972 3.12646 11.1873C3.04303 11.3774 2.99997 11.5827 3 11.7903V20.4575C3 20.8553 3.15804 21.2369 3.43934 21.5182C3.72064 21.7995 4.10218 21.9575 4.5 21.9575H19.5C19.8978 21.9575 20.2794 21.7995 20.5607 21.5182C20.842 21.2369 21 20.8553 21 20.4575V11.7903C21 11.5827 20.957 11.3774 20.8735 11.1873C20.7901 10.9972 20.6681 10.8265 20.5153 10.6859ZM19.5 20.4575H4.5V11.7903L4.51031 11.7809L12 4.70751L19.4906 11.7791L19.5009 11.7884L19.5 20.4575Z" fill="#4D5154"/>
</svg>
