<svg width="24" height="25" viewBox="0 0 24 25" fill="none" xmlns="http://www.w3.org/2000/svg">
<path d="M20.25 4.70752H3.75C3.35218 4.70752 2.97064 4.86555 2.68934 5.14686C2.40804 5.42816 2.25 5.80969 2.25 6.20752V19.7075C2.25 20.1053 2.40804 20.4869 2.68934 20.7682C2.97064 21.0495 3.35218 21.2075 3.75 21.2075H20.25C20.6478 21.2075 21.0294 21.0495 21.3107 20.7682C21.592 20.4869 21.75 20.1053 21.75 19.7075V6.20752C21.75 5.80969 21.592 5.42816 21.3107 5.14686C21.0294 4.86555 20.6478 4.70752 20.25 4.70752ZM20.25 6.20752V7.70752H3.75V6.20752H20.25ZM20.25 19.7075H3.75V9.20752H20.25V19.7075ZM16.5 11.4575C16.5 12.651 16.0259 13.7956 15.182 14.6395C14.3381 15.4834 13.1935 15.9575 12 15.9575C10.8065 15.9575 9.66193 15.4834 8.81802 14.6395C7.97411 13.7956 7.5 12.651 7.5 11.4575C7.5 11.2586 7.57902 11.0678 7.71967 10.9272C7.86032 10.7865 8.05109 10.7075 8.25 10.7075C8.44891 10.7075 8.63968 10.7865 8.78033 10.9272C8.92098 11.0678 9 11.2586 9 11.4575C9 12.2532 9.31607 13.0162 9.87868 13.5788C10.4413 14.1414 11.2044 14.4575 12 14.4575C12.7956 14.4575 13.5587 14.1414 14.1213 13.5788C14.6839 13.0162 15 12.2532 15 11.4575C15 11.2586 15.079 11.0678 15.2197 10.9272C15.3603 10.7865 15.5511 10.7075 15.75 10.7075C15.9489 10.7075 16.1397 10.7865 16.2803 10.9272C16.421 11.0678 16.5 11.2586 16.5 11.4575Z" fill="#4D5154"/>
</svg>
