<svg width="24" height="25" viewBox="0 0 24 25" fill="none" xmlns="http://www.w3.org/2000/svg">
<path d="M21.2372 6.24601L12.2372 3.24601C12.0832 3.19469 11.9168 3.19469 11.7628 3.24601L2.76281 6.24601C2.61347 6.2958 2.48358 6.39131 2.39155 6.51902C2.29951 6.64673 2.24999 6.80016 2.25 6.95758V14.4576C2.25 14.6565 2.32902 14.8473 2.46967 14.9879C2.61032 15.1286 2.80109 15.2076 3 15.2076C3.19891 15.2076 3.38968 15.1286 3.53033 14.9879C3.67098 14.8473 3.75 14.6565 3.75 14.4576V7.9982L6.89906 9.04726C6.0624 10.399 5.79634 12.0274 6.15931 13.5751C6.52229 15.1228 7.48462 16.4632 8.835 17.302C7.1475 17.9638 5.68875 19.161 4.62187 20.7979C4.56639 20.8804 4.52785 20.973 4.50849 21.0705C4.48914 21.168 4.48936 21.2684 4.50913 21.3658C4.52891 21.4632 4.56785 21.5557 4.62369 21.6379C4.67953 21.7201 4.75116 21.7905 4.83441 21.8448C4.91766 21.8991 5.01087 21.9363 5.10863 21.9542C5.20639 21.9722 5.30674 21.9705 5.40386 21.9494C5.50097 21.9282 5.59291 21.8879 5.67433 21.8309C5.75575 21.7739 5.82502 21.7013 5.87813 21.6173C7.29094 19.4498 9.52219 18.2076 12 18.2076C14.4778 18.2076 16.7091 19.4498 18.1219 21.6173C18.2319 21.7808 18.4018 21.8944 18.5949 21.9336C18.788 21.9728 18.9888 21.9344 19.1539 21.8268C19.3189 21.7191 19.435 21.5508 19.4769 21.3583C19.5189 21.1658 19.4834 20.9645 19.3781 20.7979C18.3112 19.161 16.8469 17.9638 15.165 17.302C16.5141 16.4632 17.4755 15.1237 17.8384 13.5772C18.2013 12.0306 17.9361 10.4032 17.1009 9.05195L21.2372 7.67383C21.3866 7.62407 21.5165 7.52857 21.6086 7.40086C21.7006 7.27315 21.7502 7.1197 21.7502 6.96226C21.7502 6.80482 21.7006 6.65138 21.6086 6.52367C21.5165 6.39595 21.3866 6.30046 21.2372 6.2507V6.24601ZM16.5 12.2076C16.5002 12.919 16.3317 13.6203 16.0084 14.254C15.6851 14.8878 15.2161 15.4358 14.6399 15.8531C14.0638 16.2705 13.3969 16.5453 12.694 16.655C11.9911 16.7647 11.2722 16.7062 10.5962 16.4843C9.92031 16.2624 9.30663 15.8833 8.80555 15.3783C8.30448 14.8733 7.93028 14.2567 7.71367 13.579C7.49705 12.9014 7.44419 12.182 7.55942 11.48C7.67465 10.7779 7.95469 10.1132 8.37656 9.54039L11.7628 10.6654C11.9168 10.7167 12.0832 10.7167 12.2372 10.6654L15.6234 9.54039C16.1932 10.3129 16.5005 11.2477 16.5 12.2076ZM12 9.16726L5.37187 6.95758L12 4.74789L18.6281 6.95758L12 9.16726Z" fill="#4D5154"/>
</svg>
