<svg width="24" height="25" viewBox="0 0 24 25" fill="none" xmlns="http://www.w3.org/2000/svg">
<path d="M20.25 7.70752H12.2503L9.64969 5.75752C9.38967 5.56351 9.07411 5.45832 8.74969 5.45752H3.75C3.35218 5.45752 2.97064 5.61555 2.68934 5.89686C2.40804 6.17816 2.25 6.55969 2.25 6.95752V19.7075C2.25 20.1053 2.40804 20.4869 2.68934 20.7682C2.97064 21.0495 3.35218 21.2075 3.75 21.2075H20.25C20.6478 21.2075 21.0294 21.0495 21.3107 20.7682C21.592 20.4869 21.75 20.1053 21.75 19.7075V9.20752C21.75 8.80969 21.592 8.42816 21.3107 8.14686C21.0294 7.86556 20.6478 7.70752 20.25 7.70752ZM3.75 6.95752H8.74969L10.7503 8.45752L8.74969 9.95752H3.75V6.95752ZM20.25 19.7075H3.75V11.4575H8.74969C9.07411 11.4567 9.38967 11.3515 9.64969 11.1575L12.2503 9.20752H20.25V19.7075Z" fill="#4D5154"/>
</svg>
