<svg width="24" height="25" viewBox="0 0 24 25" fill="none" xmlns="http://www.w3.org/2000/svg">
<path d="M22.9498 15.0575C22.871 15.1166 22.7813 15.1596 22.6859 15.184C22.5905 15.2085 22.4912 15.2139 22.3937 15.2C22.2962 15.186 22.2024 15.153 22.1177 15.1029C22.0329 15.0527 21.9589 14.9863 21.8998 14.9075C21.4477 14.2999 20.8593 13.8069 20.182 13.4682C19.5046 13.1295 18.7571 12.9546 17.9998 12.9575C17.8523 12.9575 17.7081 12.914 17.5852 12.8325C17.4623 12.7509 17.3662 12.6349 17.3089 12.4991C17.2699 12.4068 17.2499 12.3077 17.2499 12.2075C17.2499 12.1074 17.2699 12.0082 17.3089 11.9159C17.3662 11.7801 17.4623 11.6641 17.5852 11.5826C17.7081 11.501 17.8523 11.4575 17.9998 11.4575C18.4206 11.4575 18.833 11.3394 19.1901 11.1168C19.5472 10.8941 19.8347 10.5758 20.0199 10.1979C20.2051 9.82006 20.2807 9.39783 20.238 8.97919C20.1953 8.56054 20.036 8.16226 19.7783 7.82959C19.5206 7.49691 19.1748 7.24318 18.7801 7.09721C18.3854 6.95123 17.9577 6.91887 17.5455 7.0038C17.1334 7.08873 16.7533 7.28754 16.4484 7.57765C16.1436 7.86776 15.9262 8.23755 15.821 8.645C15.7964 8.74042 15.7532 8.83005 15.694 8.90877C15.6347 8.9875 15.5605 9.05379 15.4757 9.10384C15.3908 9.1539 15.2969 9.18675 15.1993 9.20051C15.1017 9.21428 15.0024 9.20869 14.907 9.18407C14.8116 9.15944 14.7219 9.11627 14.6432 9.05701C14.5645 8.99774 14.4982 8.92356 14.4481 8.83868C14.3981 8.7538 14.3652 8.65989 14.3515 8.56232C14.3377 8.46475 14.3433 8.36542 14.3679 8.27C14.5139 7.70499 14.7898 7.18185 15.1736 6.74221C15.5574 6.30257 16.0385 5.95857 16.5786 5.73758C17.1187 5.51659 17.703 5.42471 18.2848 5.46925C18.8667 5.51379 19.4302 5.69352 19.9304 5.99414C20.4306 6.29476 20.8537 6.70797 21.1661 7.2009C21.4785 7.69382 21.6715 8.25285 21.7299 8.83351C21.7882 9.41417 21.7102 10.0004 21.5021 10.5456C21.2939 11.0909 20.9615 11.58 20.531 11.9741C21.5509 12.4156 22.4374 13.1163 23.1026 14.0066C23.1617 14.0856 23.2046 14.1754 23.2289 14.271C23.2532 14.3667 23.2584 14.4661 23.2442 14.5637C23.23 14.6614 23.1967 14.7552 23.1462 14.84C23.0957 14.9247 23.0289 14.9986 22.9498 15.0575ZM17.8985 20.8325C17.9528 20.9179 17.9892 21.0133 18.0057 21.1131C18.0221 21.2129 18.0181 21.315 17.9941 21.4133C17.97 21.5115 17.9263 21.6039 17.8656 21.6848C17.8049 21.7658 17.7285 21.8336 17.6409 21.8842C17.5534 21.9348 17.4565 21.9672 17.356 21.9794C17.2556 21.9916 17.1538 21.9833 17.0566 21.9552C16.9595 21.927 16.8691 21.8794 16.7908 21.8154C16.7125 21.7514 16.6479 21.6721 16.601 21.5825C16.1286 20.7825 15.4557 20.1195 14.6488 19.6589C13.8419 19.1984 12.9289 18.9561 11.9998 18.9561C11.0707 18.9561 10.1577 19.1984 9.35077 19.6589C8.54388 20.1195 7.871 20.7825 7.39855 21.5825C7.35166 21.6721 7.28713 21.7514 7.20883 21.8154C7.13054 21.8794 7.04009 21.927 6.94295 21.9552C6.8458 21.9833 6.74396 21.9916 6.64355 21.9794C6.54313 21.9672 6.44622 21.9348 6.35865 21.8842C6.27108 21.8336 6.19465 21.7658 6.13396 21.6848C6.07327 21.6039 6.02958 21.5115 6.00552 21.4133C5.98145 21.315 5.97751 21.2129 5.99393 21.1131C6.01034 21.0133 6.04678 20.9179 6.10105 20.8325C6.82817 19.5832 7.93685 18.6 9.26417 18.0275C8.51729 17.4557 7.96838 16.6642 7.69461 15.7642C7.42083 14.8643 7.43595 13.9012 7.73784 13.0103C8.03973 12.1194 8.61321 11.3455 9.37767 10.7974C10.1421 10.2493 11.0591 9.9545 11.9998 9.9545C12.9404 9.9545 13.8575 10.2493 14.6219 10.7974C15.3864 11.3455 15.9599 12.1194 16.2617 13.0103C16.5636 13.9012 16.5788 14.8643 16.305 15.7642C16.0312 16.6642 15.4823 17.4557 14.7354 18.0275C16.0627 18.6 17.1714 19.5832 17.8985 20.8325ZM11.9998 17.4575C12.5931 17.4575 13.1732 17.2816 13.6665 16.9519C14.1599 16.6223 14.5444 16.1537 14.7714 15.6056C14.9985 15.0574 15.0579 14.4542 14.9422 13.8722C14.8264 13.2903 14.5407 12.7557 14.1211 12.3362C13.7016 11.9166 13.167 11.6309 12.5851 11.5151C12.0031 11.3994 11.3999 11.4588 10.8517 11.6859C10.3036 11.9129 9.83503 12.2974 9.50539 12.7908C9.17574 13.2841 8.9998 13.8642 8.9998 14.4575C8.9998 15.2532 9.31587 16.0162 9.87848 16.5788C10.4411 17.1414 11.2041 17.4575 11.9998 17.4575ZM6.7498 12.2075C6.7498 12.0086 6.67078 11.8178 6.53013 11.6772C6.38947 11.5365 6.19871 11.4575 5.9998 11.4575C5.57898 11.4575 5.1666 11.3394 4.80952 11.1168C4.45243 10.8941 4.16494 10.5758 3.9797 10.1979C3.79446 9.82006 3.7189 9.39783 3.76161 8.97919C3.80431 8.56054 3.96356 8.16226 4.22127 7.82959C4.47898 7.49691 4.82483 7.24318 5.21951 7.09721C5.6142 6.95123 6.04192 6.91887 6.45408 7.0038C6.86624 7.08873 7.24632 7.28754 7.55115 7.57765C7.85598 7.86776 8.07334 8.23755 8.17855 8.645C8.22827 8.8377 8.35251 9.00275 8.52393 9.10384C8.69535 9.20494 8.89991 9.23379 9.09261 9.18407C9.2853 9.13434 9.45035 9.0101 9.55145 8.83868C9.65254 8.66726 9.6814 8.4627 9.63167 8.27C9.48565 7.70499 9.20977 7.18185 8.82599 6.74221C8.44221 6.30257 7.96112 5.95857 7.421 5.73758C6.88088 5.51659 6.29664 5.42471 5.71476 5.46925C5.13288 5.51379 4.56942 5.69352 4.06923 5.99414C3.56903 6.29476 3.1459 6.70797 2.8335 7.2009C2.5211 7.69382 2.32806 8.25285 2.26974 8.83351C2.21141 9.41417 2.28941 10.0004 2.49752 10.5456C2.70564 11.0909 3.03813 11.58 3.46855 11.9741C2.44975 12.416 1.56422 13.1167 0.899796 14.0066C0.780324 14.1657 0.72896 14.3658 0.757003 14.5628C0.785045 14.7598 0.890197 14.9376 1.04933 15.057C1.20846 15.1765 1.40853 15.2279 1.60553 15.1998C1.80253 15.1718 1.98032 15.0666 2.0998 14.9075C2.55185 14.2999 3.14025 13.8069 3.81763 13.4682C4.49502 13.1295 5.24246 12.9546 5.9998 12.9575C6.19871 12.9575 6.38947 12.8785 6.53013 12.7378C6.67078 12.5972 6.7498 12.4064 6.7498 12.2075Z" fill="#4D5154"/>
</svg>
