<svg width="24" height="25" viewBox="0 0 24 25" fill="none" xmlns="http://www.w3.org/2000/svg">
<path d="M8.25 9.95752C8.25 9.75861 8.32902 9.56784 8.46967 9.42719C8.61032 9.28654 8.80109 9.20752 9 9.20752H15C15.1989 9.20752 15.3897 9.28654 15.5303 9.42719C15.671 9.56784 15.75 9.75861 15.75 9.95752C15.75 10.1564 15.671 10.3472 15.5303 10.4878C15.3897 10.6285 15.1989 10.7075 15 10.7075H9C8.80109 10.7075 8.61032 10.6285 8.46967 10.4878C8.32902 10.3472 8.25 10.1564 8.25 9.95752ZM9 13.7075H15C15.1989 13.7075 15.3897 13.6285 15.5303 13.4879C15.671 13.3472 15.75 13.1564 15.75 12.9575C15.75 12.7586 15.671 12.5678 15.5303 12.4272C15.3897 12.2865 15.1989 12.2075 15 12.2075H9C8.80109 12.2075 8.61032 12.2865 8.46967 12.4272C8.32902 12.5678 8.25 12.7586 8.25 12.9575C8.25 13.1564 8.32902 13.3472 8.46967 13.4879C8.61032 13.6285 8.80109 13.7075 9 13.7075ZM12 15.2075H9C8.80109 15.2075 8.61032 15.2865 8.46967 15.4272C8.32902 15.5678 8.25 15.7586 8.25 15.9575C8.25 16.1564 8.32902 16.3472 8.46967 16.4879C8.61032 16.6285 8.80109 16.7075 9 16.7075H12C12.1989 16.7075 12.3897 16.6285 12.5303 16.4879C12.671 16.3472 12.75 16.1564 12.75 15.9575C12.75 15.7586 12.671 15.5678 12.5303 15.4272C12.3897 15.2865 12.1989 15.2075 12 15.2075ZM21 5.45752V15.6472C21.0006 15.8443 20.9621 16.0395 20.8866 16.2215C20.8111 16.4035 20.7002 16.5687 20.5603 16.7075L15.75 21.5178C15.6112 21.6577 15.446 21.7686 15.264 21.8441C15.082 21.9196 14.8867 21.9581 14.6897 21.9575H4.5C4.10218 21.9575 3.72064 21.7995 3.43934 21.5182C3.15804 21.2369 3 20.8553 3 20.4575V5.45752C3 5.05969 3.15804 4.67816 3.43934 4.39686C3.72064 4.11555 4.10218 3.95752 4.5 3.95752H19.5C19.8978 3.95752 20.2794 4.11555 20.5607 4.39686C20.842 4.67816 21 5.05969 21 5.45752ZM4.5 20.4575H14.25V15.9575C14.25 15.7586 14.329 15.5678 14.4697 15.4272C14.6103 15.2865 14.8011 15.2075 15 15.2075H19.5V5.45752H4.5V20.4575ZM15.75 16.7075V19.3981L18.4397 16.7075H15.75Z" fill="#4D5154"/>
</svg>
