<svg width="24" height="25" viewBox="0 0 24 25" fill="none" xmlns="http://www.w3.org/2000/svg">
<path d="M20.25 5.45752H3.75C3.55109 5.45752 3.36032 5.53654 3.21967 5.67719C3.07902 5.81784 3 6.00861 3 6.20752V20.4575C3 20.8553 3.15804 21.2369 3.43934 21.5182C3.72064 21.7995 4.10218 21.9575 4.5 21.9575H8.25C8.64782 21.9575 9.02936 21.7995 9.31066 21.5182C9.59196 21.2369 9.75 20.8553 9.75 20.4575V15.9575H14.25V17.4575C14.25 17.8553 14.408 18.2369 14.6893 18.5182C14.9706 18.7995 15.3522 18.9575 15.75 18.9575H19.5C19.8978 18.9575 20.2794 18.7995 20.5607 18.5182C20.842 18.2369 21 17.8553 21 17.4575V6.20752C21 6.00861 20.921 5.81784 20.7803 5.67719C20.6397 5.53654 20.4489 5.45752 20.25 5.45752ZM8.25 20.4575H4.5V12.9575H8.25V20.4575ZM8.25 11.4575H4.5V6.95752H8.25V11.4575ZM14.25 14.4575H9.75V6.95752H14.25V14.4575ZM19.5 17.4575H15.75V12.9575H19.5V17.4575ZM19.5 11.4575H15.75V6.95752H19.5V11.4575Z" fill="#4D5154"/>
</svg>
