<svg width="24" height="25" viewBox="0 0 24 25" fill="none" xmlns="http://www.w3.org/2000/svg">
<path d="M21.7303 18.5197C22.2593 17.4446 22.5229 16.2584 22.4992 15.0604C22.4754 13.8624 22.165 12.6875 21.5939 11.6342C21.0228 10.5809 20.2076 9.67967 19.2166 9.00611C18.2257 8.33255 17.0877 7.90623 15.8981 7.76285C15.502 6.84538 14.9266 6.01634 14.2055 5.3244C13.4845 4.63247 12.6325 4.0916 11.6995 3.73358C10.7665 3.37555 9.7714 3.20759 8.77259 3.23956C7.77378 3.27152 6.79143 3.50277 5.88325 3.91972C4.97507 4.33667 4.15937 4.93091 3.48407 5.66754C2.80877 6.40416 2.2875 7.26831 1.95086 8.20922C1.61422 9.15014 1.46902 10.1488 1.52377 11.1467C1.57853 12.1445 1.83214 13.1213 2.26971 14.0197L1.55158 16.5341C1.49573 16.7294 1.48595 16.9349 1.52303 17.1346C1.5601 17.3343 1.64302 17.5227 1.76524 17.6849C1.88747 17.8471 2.04567 17.9787 2.22739 18.0694C2.40912 18.1601 2.60942 18.2074 2.81252 18.2075C2.93432 18.2079 3.05554 18.1908 3.17252 18.1569L5.68689 17.4388C6.44534 17.8137 7.26252 18.0557 8.10283 18.1541C8.50288 19.0911 9.08963 19.9367 9.82728 20.6394C10.5649 21.3422 11.438 21.8872 12.3933 22.2414C13.3486 22.5955 14.366 22.7514 15.3834 22.6993C16.4009 22.6473 17.3971 22.3885 18.3113 21.9388L20.8256 22.6569C21.0506 22.721 21.2886 22.7238 21.515 22.665C21.7414 22.6063 21.9479 22.4881 22.1133 22.3227C22.2787 22.1573 22.3969 21.9507 22.4557 21.7243C22.5144 21.498 22.5116 21.26 22.4475 21.035L21.7303 18.5197ZM6.12752 15.9772C5.95555 15.8833 5.75365 15.8604 5.56502 15.9135L3.08908 16.6213L3.79689 14.1453C3.84994 13.9567 3.82706 13.7548 3.73314 13.5828C2.95937 12.1922 2.76973 10.5511 3.20593 9.02066C3.64212 7.49019 4.66844 6.19568 6.05908 5.42191C7.44973 4.64814 9.0908 4.45849 10.6213 4.89469C12.1517 5.33089 13.4462 6.3572 14.22 7.74785C12.3769 7.94309 10.6711 8.81288 9.43053 10.1899C8.19001 11.567 7.50243 13.3541 7.50002 15.2075C7.50033 15.6572 7.54144 16.1059 7.62283 16.5482C7.10091 16.4262 6.59791 16.2341 6.12752 15.9772ZM20.206 18.6453L20.9138 21.1213L18.4378 20.4135C18.2492 20.3604 18.0473 20.3833 17.8753 20.4772C16.6093 21.1668 15.1371 21.3771 13.7286 21.0696C12.3201 20.762 11.0696 19.9572 10.2062 18.8026C9.34283 17.648 8.92442 16.221 9.02764 14.783C9.13087 13.345 9.74881 11.9924 10.7682 10.9729C11.7877 9.95351 13.1403 9.33557 14.5783 9.23235C16.0163 9.12912 17.4433 9.54753 18.5979 10.4109C19.7525 11.2743 20.5573 12.5248 20.8649 13.9333C21.1724 15.3418 20.9621 16.814 20.2725 18.08C20.1769 18.2524 20.153 18.4555 20.206 18.6453ZM13.5 14.0825C13.5 14.305 13.434 14.5225 13.3104 14.7076C13.1868 14.8926 13.0111 15.0367 12.8055 15.1219C12.6 15.207 12.3738 15.2293 12.1555 15.1859C11.9373 15.1425 11.7369 15.0354 11.5795 14.878C11.4222 14.7207 11.315 14.5202 11.2716 14.302C11.2282 14.0838 11.2505 13.8576 11.3357 13.652C11.4208 13.4464 11.565 13.2707 11.75 13.1471C11.935 13.0235 12.1525 12.9575 12.375 12.9575C12.6734 12.9575 12.9595 13.0761 13.1705 13.287C13.3815 13.498 13.5 13.7842 13.5 14.0825ZM18.75 14.0825C18.75 14.305 18.684 14.5225 18.5604 14.7076C18.4368 14.8926 18.2611 15.0367 18.0555 15.1219C17.85 15.207 17.6238 15.2293 17.4055 15.1859C17.1873 15.1425 16.9869 15.0354 16.8295 14.878C16.6722 14.7207 16.565 14.5202 16.5216 14.302C16.4782 14.0838 16.5005 13.8576 16.5857 13.652C16.6708 13.4464 16.815 13.2707 17 13.1471C17.185 13.0235 17.4025 12.9575 17.625 12.9575C17.9234 12.9575 18.2095 13.0761 18.4205 13.287C18.6315 13.498 18.75 13.7842 18.75 14.0825Z" fill="#4D5154"/>
</svg>
