<svg width="24" height="25" viewBox="0 0 24 25" fill="none" xmlns="http://www.w3.org/2000/svg">
<path d="M12 3.20752C10.0716 3.20752 8.18657 3.77935 6.58319 4.85069C4.97982 5.92203 3.73013 7.44478 2.99218 9.22636C2.25422 11.0079 2.06114 12.9683 2.43735 14.8597C2.81355 16.751 3.74215 18.4882 5.10571 19.8518C6.46928 21.2154 8.20656 22.144 10.0979 22.5202C11.9892 22.8964 13.9496 22.7033 15.7312 21.9653C17.5127 21.2274 19.0355 19.9777 20.1068 18.3743C21.1782 16.7709 21.75 14.8859 21.75 12.9575C21.7473 10.3725 20.7192 7.89413 18.8913 6.06624C17.0634 4.23836 14.585 3.21025 12 3.20752ZM6.945 19.4731C7.48757 18.6246 8.23501 17.9263 9.11843 17.4426C10.0019 16.9589 10.9928 16.7053 12 16.7053C13.0072 16.7053 13.9982 16.9589 14.8816 17.4426C15.765 17.9263 16.5124 18.6246 17.055 19.4731C15.6097 20.5972 13.831 21.2075 12 21.2075C10.169 21.2075 8.39032 20.5972 6.945 19.4731ZM9 12.2075C9 11.6142 9.17595 11.0342 9.5056 10.5408C9.83524 10.0475 10.3038 9.66294 10.852 9.43588C11.4001 9.20882 12.0033 9.14941 12.5853 9.26516C13.1672 9.38092 13.7018 9.66664 14.1213 10.0862C14.5409 10.5058 14.8266 11.0403 14.9424 11.6222C15.0581 12.2042 14.9987 12.8074 14.7716 13.3556C14.5446 13.9037 14.1601 14.3723 13.6667 14.7019C13.1734 15.0316 12.5933 15.2075 12 15.2075C11.2044 15.2075 10.4413 14.8914 9.87868 14.3288C9.31607 13.7662 9 13.0032 9 12.2075ZM18.165 18.4335C17.3285 17.2213 16.1524 16.2836 14.7844 15.7381C15.5192 15.1594 16.0554 14.366 16.3184 13.4684C16.5815 12.5707 16.5582 11.6134 16.252 10.7296C15.9457 9.84577 15.3716 9.07935 14.6096 8.53692C13.8475 7.99448 12.9354 7.703 12 7.703C11.0646 7.703 10.1525 7.99448 9.39044 8.53692C8.62839 9.07935 8.05432 9.84577 7.74805 10.7296C7.44179 11.6134 7.41855 12.5707 7.68157 13.4684C7.94459 14.366 8.4808 15.1594 9.21563 15.7381C7.84765 16.2836 6.67147 17.2213 5.835 18.4335C4.77804 17.2449 4.0872 15.7761 3.84567 14.2039C3.60415 12.6318 3.82224 11.0234 4.47368 9.5723C5.12512 8.12124 6.18213 6.88944 7.51745 6.02521C8.85276 5.16098 10.4094 4.70119 12 4.70119C13.5906 4.70119 15.1473 5.16098 16.4826 6.02521C17.8179 6.88944 18.8749 8.12124 19.5263 9.5723C20.1778 11.0234 20.3959 12.6318 20.1543 14.2039C19.9128 15.7761 19.222 17.2449 18.165 18.4335Z" fill="#4D5154"/>
</svg>
