<svg width="24" height="25" viewBox="0 0 24 25" fill="none" xmlns="http://www.w3.org/2000/svg">
<path d="M21 10.7075H20.2153C20.0269 8.65896 19.0799 6.75472 17.56 5.36829C16.0402 3.98185 14.0572 3.21326 12 3.21326C9.94279 3.21326 7.95981 3.98185 6.43998 5.36829C4.92015 6.75472 3.97314 8.65896 3.78469 10.7075H3C2.80109 10.7075 2.61032 10.7865 2.46967 10.9272C2.32902 11.0678 2.25 11.2586 2.25 11.4575C2.2533 13.2411 2.74415 14.9899 3.66948 16.5147C4.59481 18.0395 5.9194 19.2823 7.5 20.1088V20.4575C7.5 20.8553 7.65804 21.2369 7.93934 21.5182C8.22064 21.7995 8.60218 21.9575 9 21.9575H15C15.3978 21.9575 15.7794 21.7995 16.0607 21.5182C16.342 21.2369 16.5 20.8553 16.5 20.4575V20.1088C18.0806 19.2823 19.4052 18.0395 20.3305 16.5147C21.2558 14.9899 21.7467 13.2411 21.75 11.4575C21.75 11.2586 21.671 11.0678 21.5303 10.9272C21.3897 10.7865 21.1989 10.7075 21 10.7075ZM18.7069 10.7075H13.8862C14.7955 9.34335 16.1712 8.35769 17.7553 7.93533C18.2733 8.77782 18.5982 9.72454 18.7069 10.7075ZM16.2638 6.22908C16.4356 6.36971 16.6003 6.51814 16.7578 6.67439C14.7613 7.37672 13.1114 8.82015 12.15 10.7056H9.38437C9.85313 9.39167 10.7161 8.25446 11.8555 7.44937C12.9948 6.64429 14.3549 6.21058 15.75 6.20752C15.9216 6.20752 16.0931 6.21596 16.2638 6.22908ZM12 4.70752C12.6018 4.70792 13.2009 4.78895 13.7812 4.94846C12.3679 5.29906 11.072 6.01602 10.024 7.0271C8.97606 8.03818 8.21316 9.30763 7.81219 10.7075H5.29312C5.47917 9.05833 6.26562 7.53527 7.50254 6.42871C8.73946 5.32216 10.3403 4.70949 12 4.70752ZM15.4369 18.9575C15.306 19.0176 15.1953 19.1141 15.1178 19.2355C15.0404 19.3568 14.9994 19.4979 15 19.6419V20.4575H9V19.6419C9.00055 19.4979 8.95965 19.3568 8.88218 19.2355C8.80471 19.1141 8.69395 19.0176 8.56312 18.9575C7.24417 18.3506 6.10807 17.4074 5.26885 16.2226C4.42963 15.0378 3.91681 13.6531 3.78188 12.2075H20.2153C20.0806 13.6528 19.5682 15.0373 18.7295 16.2221C17.8908 17.4068 16.7553 18.3502 15.4369 18.9575Z" fill="#4D5154"/>
</svg>
