<svg width="24" height="25" viewBox="0 0 24 25" fill="none" xmlns="http://www.w3.org/2000/svg">
<path d="M21.75 5.45752V9.20752C21.75 9.40643 21.671 9.5972 21.5303 9.73785C21.3897 9.8785 21.1989 9.95752 21 9.95752C20.8011 9.95752 20.6103 9.8785 20.4697 9.73785C20.329 9.5972 20.25 9.40643 20.25 9.20752V6.20752H17.25C17.0511 6.20752 16.8603 6.1285 16.7197 5.98785C16.579 5.8472 16.5 5.65643 16.5 5.45752C16.5 5.25861 16.579 5.06784 16.7197 4.92719C16.8603 4.78654 17.0511 4.70752 17.25 4.70752H21C21.1989 4.70752 21.3897 4.78654 21.5303 4.92719C21.671 5.06784 21.75 5.25861 21.75 5.45752ZM6.75 19.7075H3.75V16.7075C3.75 16.5086 3.67098 16.3178 3.53033 16.1772C3.38968 16.0365 3.19891 15.9575 3 15.9575C2.80109 15.9575 2.61032 16.0365 2.46967 16.1772C2.32902 16.3178 2.25 16.5086 2.25 16.7075V20.4575C2.25 20.6564 2.32902 20.8472 2.46967 20.9879C2.61032 21.1285 2.80109 21.2075 3 21.2075H6.75C6.94891 21.2075 7.13968 21.1285 7.28033 20.9879C7.42098 20.8472 7.5 20.6564 7.5 20.4575C7.5 20.2586 7.42098 20.0678 7.28033 19.9272C7.13968 19.7865 6.94891 19.7075 6.75 19.7075ZM21 15.9575C20.8011 15.9575 20.6103 16.0365 20.4697 16.1772C20.329 16.3178 20.25 16.5086 20.25 16.7075V19.7075H17.25C17.0511 19.7075 16.8603 19.7865 16.7197 19.9272C16.579 20.0678 16.5 20.2586 16.5 20.4575C16.5 20.6564 16.579 20.8472 16.7197 20.9879C16.8603 21.1285 17.0511 21.2075 17.25 21.2075H21C21.1989 21.2075 21.3897 21.1285 21.5303 20.9879C21.671 20.8472 21.75 20.6564 21.75 20.4575V16.7075C21.75 16.5086 21.671 16.3178 21.5303 16.1772C21.3897 16.0365 21.1989 15.9575 21 15.9575ZM3 9.95752C3.19891 9.95752 3.38968 9.8785 3.53033 9.73785C3.67098 9.5972 3.75 9.40643 3.75 9.20752V6.20752H6.75C6.94891 6.20752 7.13968 6.1285 7.28033 5.98785C7.42098 5.8472 7.5 5.65643 7.5 5.45752C7.5 5.25861 7.42098 5.06784 7.28033 4.92719C7.13968 4.78654 6.94891 4.70752 6.75 4.70752H3C2.80109 4.70752 2.61032 4.78654 2.46967 4.92719C2.32902 5.06784 2.25 5.25861 2.25 5.45752V9.20752C2.25 9.40643 2.32902 9.5972 2.46967 9.73785C2.61032 9.8785 2.80109 9.95752 3 9.95752ZM7.5 8.45752C7.30109 8.45752 7.11032 8.53654 6.96967 8.67719C6.82902 8.81784 6.75 9.00861 6.75 9.20752V16.7075C6.75 16.9064 6.82902 17.0972 6.96967 17.2379C7.11032 17.3785 7.30109 17.4575 7.5 17.4575C7.69891 17.4575 7.88968 17.3785 8.03033 17.2379C8.17098 17.0972 8.25 16.9064 8.25 16.7075V9.20752C8.25 9.00861 8.17098 8.81784 8.03033 8.67719C7.88968 8.53654 7.69891 8.45752 7.5 8.45752ZM17.25 16.7075V9.20752C17.25 9.00861 17.171 8.81784 17.0303 8.67719C16.8897 8.53654 16.6989 8.45752 16.5 8.45752C16.3011 8.45752 16.1103 8.53654 15.9697 8.67719C15.829 8.81784 15.75 9.00861 15.75 9.20752V16.7075C15.75 16.9064 15.829 17.0972 15.9697 17.2379C16.1103 17.3785 16.3011 17.4575 16.5 17.4575C16.6989 17.4575 16.8897 17.3785 17.0303 17.2379C17.171 17.0972 17.25 16.9064 17.25 16.7075ZM13.5 8.45752C13.3011 8.45752 13.1103 8.53654 12.9697 8.67719C12.829 8.81784 12.75 9.00861 12.75 9.20752V16.7075C12.75 16.9064 12.829 17.0972 12.9697 17.2379C13.1103 17.3785 13.3011 17.4575 13.5 17.4575C13.6989 17.4575 13.8897 17.3785 14.0303 17.2379C14.171 17.0972 14.25 16.9064 14.25 16.7075V9.20752C14.25 9.00861 14.171 8.81784 14.0303 8.67719C13.8897 8.53654 13.6989 8.45752 13.5 8.45752ZM10.5 8.45752C10.3011 8.45752 10.1103 8.53654 9.96967 8.67719C9.82902 8.81784 9.75 9.00861 9.75 9.20752V16.7075C9.75 16.9064 9.82902 17.0972 9.96967 17.2379C10.1103 17.3785 10.3011 17.4575 10.5 17.4575C10.6989 17.4575 10.8897 17.3785 11.0303 17.2379C11.171 17.0972 11.25 16.9064 11.25 16.7075V9.20752C11.25 9.00861 11.171 8.81784 11.0303 8.67719C10.8897 8.53654 10.6989 8.45752 10.5 8.45752Z" fill="#4D5154"/>
</svg>
