<svg width="24" height="25" viewBox="0 0 24 25" fill="none" xmlns="http://www.w3.org/2000/svg">
<path d="M19.875 15.2075C19.875 15.43 19.809 15.6475 19.6854 15.8325C19.5618 16.0175 19.3861 16.1617 19.1805 16.2469C18.975 16.332 18.7488 16.3543 18.5305 16.3109C18.3123 16.2675 18.1118 16.1603 17.9545 16.003C17.7972 15.8457 17.69 15.6452 17.6466 15.427C17.6032 15.2088 17.6255 14.9826 17.7106 14.777C17.7958 14.5714 17.94 14.3957 18.125 14.2721C18.31 14.1485 18.5275 14.0825 18.75 14.0825C19.0484 14.0825 19.3345 14.201 19.5455 14.412C19.7565 14.623 19.875 14.9092 19.875 15.2075ZM19.4484 18.891C19.2837 19.953 18.7449 20.9212 17.9293 21.621C17.1136 22.3208 16.0747 22.7061 15 22.7075H12.75C11.5569 22.7063 10.413 22.2318 9.56939 21.3881C8.72575 20.5445 8.25124 19.4006 8.25 18.2075V14.4097C6.80018 14.227 5.46686 13.5216 4.50025 12.4257C3.53364 11.3298 3.00018 9.9188 3 8.45752V4.70752C3 4.30969 3.15804 3.92816 3.43934 3.64686C3.72064 3.36555 4.10218 3.20752 4.5 3.20752H6C6.19891 3.20752 6.38968 3.28654 6.53033 3.42719C6.67098 3.56784 6.75 3.75861 6.75 3.95752C6.75 4.15643 6.67098 4.3472 6.53033 4.48785C6.38968 4.6285 6.19891 4.70752 6 4.70752H4.5V8.45752C4.49995 9.05355 4.6183 9.64365 4.84819 10.1936C5.07808 10.7435 5.41492 11.2422 5.83916 11.6609C6.2634 12.0796 6.76658 12.4098 7.31949 12.6324C7.8724 12.8549 8.46402 12.9655 9.06 12.9575C11.5078 12.9256 13.5 10.8716 13.5 8.37971V4.70752H12C11.8011 4.70752 11.6103 4.6285 11.4697 4.48785C11.329 4.3472 11.25 4.15643 11.25 3.95752C11.25 3.75861 11.329 3.56784 11.4697 3.42719C11.6103 3.28654 11.8011 3.20752 12 3.20752H13.5C13.8978 3.20752 14.2794 3.36555 14.5607 3.64686C14.842 3.92816 15 4.30969 15 4.70752V8.37971C15 11.4585 12.7003 14.0319 9.75 14.4088V18.2075C9.75 19.0032 10.0661 19.7662 10.6287 20.3288C11.1913 20.8914 11.9544 21.2075 12.75 21.2075H15C15.6813 21.2064 16.3419 20.9739 16.8737 20.548C17.4055 20.1222 17.7769 19.5283 17.9269 18.8638C17.0211 18.6603 16.223 18.1281 15.687 17.3701C15.1509 16.6122 14.9151 15.6823 15.0252 14.7605C15.1352 13.8387 15.5832 12.9905 16.2826 12.3799C16.9819 11.7694 17.8829 11.44 18.8111 11.4555C19.7393 11.4709 20.6288 11.8301 21.3075 12.4635C21.9862 13.097 22.4057 13.9596 22.485 14.8846C22.5643 15.8096 22.2977 16.7311 21.7368 17.4708C21.1759 18.2105 20.3605 18.7159 19.4484 18.8891V18.891ZM21 15.2075C21 14.7625 20.868 14.3275 20.6208 13.9575C20.3736 13.5875 20.0222 13.2991 19.611 13.1288C19.1999 12.9585 18.7475 12.9139 18.311 13.0008C17.8746 13.0876 17.4737 13.3019 17.159 13.6165C16.8443 13.9312 16.63 14.3321 16.5432 14.7686C16.4564 15.205 16.501 15.6574 16.6713 16.0686C16.8416 16.4797 17.13 16.8311 17.5 17.0783C17.87 17.3256 18.305 17.4575 18.75 17.4575C19.3467 17.4575 19.919 17.2205 20.341 16.7985C20.7629 16.3766 21 15.8043 21 15.2075Z" fill="#4D5154"/>
</svg>
