<svg width="24" height="25" viewBox="0 0 24 25" fill="none" xmlns="http://www.w3.org/2000/svg">
<path d="M21.2991 10.7525C21.6379 10.6836 21.9425 10.4997 22.1613 10.232C22.3802 9.96431 22.4998 9.62922 22.5 9.28346V6.95752C22.5 6.55969 22.342 6.17816 22.0607 5.89686C21.7794 5.61555 21.3978 5.45752 21 5.45752H3C2.60218 5.45752 2.22065 5.61555 1.93934 5.89686C1.65804 6.17816 1.5 6.55969 1.5 6.95752V9.28346C1.50019 9.62922 1.61983 9.96431 1.83867 10.232C2.05751 10.4997 2.36212 10.6836 2.70094 10.7525C3.20757 10.8576 3.66251 11.134 3.98912 11.5353C4.31573 11.9366 4.49406 12.4382 4.49406 12.9556C4.49406 13.4731 4.31573 13.9747 3.98912 14.3759C3.66251 14.7772 3.20757 15.0537 2.70094 15.1588C2.36148 15.2278 2.0564 15.4123 1.83748 15.6807C1.61857 15.9492 1.49933 16.2852 1.5 16.6316V18.9575C1.5 19.3553 1.65804 19.7369 1.93934 20.0182C2.22065 20.2995 2.60218 20.4575 3 20.4575H21C21.3978 20.4575 21.7794 20.2995 22.0607 20.0182C22.342 19.7369 22.5 19.3553 22.5 18.9575V16.6316C22.4998 16.2858 22.3802 15.9507 22.1613 15.683C21.9425 15.4153 21.6379 15.2315 21.2991 15.1625C20.7924 15.0575 20.3375 14.781 20.0109 14.3797C19.6843 13.9784 19.5059 13.4768 19.5059 12.9594C19.5059 12.442 19.6843 11.9404 20.0109 11.5391C20.3375 11.1378 20.7924 10.8613 21.2991 10.7563V10.7525ZM3 16.6325C3.84722 16.4599 4.60876 15.9999 5.15573 15.3303C5.70269 14.6607 6.00146 13.8226 6.00146 12.958C6.00146 12.0934 5.70269 11.2553 5.15573 10.5857C4.60876 9.91609 3.84722 9.45604 3 9.28346V6.95752H8.25V18.9575H3V16.6325ZM21 16.6325V18.9575H9.75V6.95752H21V9.28252C20.1528 9.45511 19.3912 9.91515 18.8443 10.5848C18.2973 11.2544 17.9985 12.0924 17.9985 12.9571C17.9985 13.8217 18.2973 14.6597 18.8443 15.3293C19.3912 15.999 20.1528 16.459 21 16.6316V16.6325Z" fill="#4D5154"/>
</svg>
