<svg width="24" height="25" viewBox="0 0 24 25" fill="none" xmlns="http://www.w3.org/2000/svg">
<path d="M23.1956 11.9263L21.8831 8.64502C21.7718 8.3674 21.5796 8.12961 21.3316 7.96246C21.0835 7.7953 20.791 7.70649 20.4919 7.70752H17.25V6.95752C17.25 6.75861 17.171 6.56784 17.0303 6.42719C16.8897 6.28654 16.6989 6.20752 16.5 6.20752H2.25C1.85218 6.20752 1.47064 6.36555 1.18934 6.64686C0.908035 6.92816 0.75 7.30969 0.75 7.70752V18.2075C0.75 18.6053 0.908035 18.9869 1.18934 19.2682C1.47064 19.5495 1.85218 19.7075 2.25 19.7075H3.84375C4.00898 20.3528 4.38428 20.9248 4.91048 21.3332C5.43669 21.7417 6.08387 21.9634 6.75 21.9634C7.41613 21.9634 8.06331 21.7417 8.58952 21.3332C9.11573 20.9248 9.49102 20.3528 9.65625 19.7075H14.3438C14.509 20.3528 14.8843 20.9248 15.4105 21.3332C15.9367 21.7417 16.5839 21.9634 17.25 21.9634C17.9161 21.9634 18.5633 21.7417 19.0895 21.3332C19.6157 20.9248 19.991 20.3528 20.1563 19.7075H21.75C22.1478 19.7075 22.5294 19.5495 22.8107 19.2682C23.092 18.9869 23.25 18.6053 23.25 18.2075V12.2075C23.2503 12.1111 23.2318 12.0156 23.1956 11.9263ZM17.25 9.20752H20.4919L21.3919 11.4575H17.25V9.20752ZM2.25 7.70752H15.75V13.7075H2.25V7.70752ZM6.75 20.4575C6.45333 20.4575 6.16332 20.3695 5.91665 20.2047C5.66997 20.0399 5.47771 19.8056 5.36418 19.5315C5.25065 19.2575 5.22094 18.9559 5.27882 18.6649C5.3367 18.3739 5.47956 18.1066 5.68934 17.8969C5.89912 17.6871 6.16639 17.5442 6.45737 17.4863C6.74834 17.4285 7.04994 17.4582 7.32403 17.5717C7.59811 17.6852 7.83238 17.8775 7.9972 18.1242C8.16203 18.3708 8.25 18.6608 8.25 18.9575C8.25 19.3553 8.09197 19.7369 7.81066 20.0182C7.52936 20.2995 7.14783 20.4575 6.75 20.4575ZM14.3438 18.2075H9.65625C9.49102 17.5622 9.11573 16.9902 8.58952 16.5818C8.06331 16.1733 7.41613 15.9516 6.75 15.9516C6.08387 15.9516 5.43669 16.1733 4.91048 16.5818C4.38428 16.9902 4.00898 17.5622 3.84375 18.2075H2.25V15.2075H15.75V16.3616C15.4051 16.5609 15.1032 16.8267 14.8619 17.1436C14.6205 17.4605 14.4444 17.8221 14.3438 18.2075ZM17.25 20.4575C16.9533 20.4575 16.6633 20.3695 16.4166 20.2047C16.17 20.0399 15.9777 19.8056 15.8642 19.5315C15.7507 19.2575 15.7209 18.9559 15.7788 18.6649C15.8367 18.3739 15.9796 18.1066 16.1893 17.8969C16.3991 17.6871 16.6664 17.5442 16.9574 17.4863C17.2483 17.4285 17.5499 17.4582 17.824 17.5717C18.0981 17.6852 18.3324 17.8775 18.4972 18.1242C18.662 18.3708 18.75 18.6608 18.75 18.9575C18.75 19.3553 18.592 19.7369 18.3107 20.0182C18.0294 20.2995 17.6478 20.4575 17.25 20.4575ZM21.75 18.2075H20.1563C19.989 17.5638 19.613 16.9937 19.0871 16.5865C18.5612 16.1794 17.9151 15.9581 17.25 15.9575V12.9575H21.75V18.2075Z" fill="rgba(77, 81, 84, 1)"/>
</svg>
