<svg width="45" height="45" viewBox="0 0 45 45" fill="none" xmlns="http://www.w3.org/2000/svg">
<rect width="45" height="45" rx="22.5" fill="#4ABDE8"/>
<rect width="45" height="45" rx="22.5" fill="white" fill-opacity="0.8"/>
<path d="M22.5 12C20.3127 12.0025 18.2157 12.8725 16.6691 14.4191C15.1225 15.9657 14.2525 18.0627 14.25 20.25C14.25 22.4466 15.1312 24.8831 16.6059 26.7656C17.7384 28.2103 19.0903 29.2031 20.535 29.6803L19.5609 31.9547C19.5121 32.0687 19.4923 32.1931 19.5033 32.3167C19.5144 32.4403 19.5559 32.5592 19.6242 32.6628C19.6924 32.7664 19.7854 32.8514 19.8946 32.9103C20.0038 32.9691 20.1259 32.9999 20.25 33H24.75C24.8741 32.9999 24.9962 32.9691 25.1054 32.9103C25.2146 32.8514 25.3076 32.7664 25.3758 32.6628C25.4441 32.5592 25.4856 32.4403 25.4967 32.3167C25.5077 32.1931 25.4879 32.0687 25.4391 31.9547L24.4688 29.6803C25.9125 29.205 27.2653 28.2103 28.3978 26.7656C29.8688 24.8831 30.75 22.4466 30.75 20.25C30.7475 18.0627 29.8775 15.9657 28.3309 14.4191C26.7843 12.8725 24.6873 12.0025 22.5 12ZM23.6128 31.5H21.3872L22.0378 29.9822C22.1916 29.9934 22.3453 30 22.5 30C22.6547 30 22.8084 29.9934 22.9622 29.9822L23.6128 31.5ZM27.2128 25.8403C25.8694 27.5559 24.1959 28.5 22.5 28.5C20.8041 28.5 19.1306 27.5559 17.7872 25.8403C16.5113 24.2128 15.75 22.125 15.75 20.25C15.75 18.4598 16.4612 16.7429 17.727 15.477C18.9929 14.2112 20.7098 13.5 22.5 13.5C24.2902 13.5 26.0071 14.2112 27.273 15.477C28.5388 16.7429 29.25 18.4598 29.25 20.25C29.25 22.125 28.4888 24.2128 27.2128 25.8403ZM27.1191 20.2397C27.0797 20.2461 27.0399 20.2495 27 20.25C26.8227 20.2498 26.6512 20.1867 26.516 20.0721C26.3808 19.9575 26.2905 19.7986 26.2612 19.6237C26.1226 18.8433 25.7477 18.1243 25.1872 17.5638C24.6267 17.0033 23.9076 16.6284 23.1272 16.4897C23.0293 16.4742 22.9355 16.4396 22.8511 16.3877C22.7667 16.3357 22.6934 16.2676 22.6355 16.1872C22.5776 16.1068 22.5362 16.0158 22.5137 15.9193C22.4912 15.8228 22.488 15.7228 22.5044 15.6251C22.5207 15.5274 22.5563 15.4339 22.609 15.35C22.6616 15.2661 22.7304 15.1934 22.8114 15.1363C22.8923 15.0791 22.9837 15.0385 23.0804 15.0169C23.1771 14.9953 23.2771 14.9931 23.3747 15.0103C24.462 15.2032 25.4638 15.7254 26.2447 16.5063C27.0255 17.2871 27.5477 18.2889 27.7406 19.3763C27.7569 19.4735 27.7538 19.5729 27.7316 19.6689C27.7093 19.7649 27.6684 19.8556 27.6111 19.9358C27.5538 20.016 27.4813 20.0841 27.3977 20.1363C27.3141 20.1884 27.221 20.2235 27.1238 20.2397H27.1191Z" fill="#4ABDE8"/>
</svg>
