<svg width="45" height="45" viewBox="0 0 45 45" fill="none" xmlns="http://www.w3.org/2000/svg">
<rect width="45" height="45" rx="22.5" fill="#00997E"/>
<rect width="45" height="45" rx="22.5" fill="white" fill-opacity="0.8"/>
<path d="M31.5 20.25H30.7153C30.5269 18.2014 29.5799 16.2972 28.06 14.9108C26.5402 13.5243 24.5572 12.7557 22.5 12.7557C20.4428 12.7557 18.4598 13.5243 16.94 14.9108C15.4201 16.2972 14.4731 18.2014 14.2847 20.25H13.5C13.3011 20.25 13.1103 20.329 12.9697 20.4697C12.829 20.6103 12.75 20.8011 12.75 21C12.7533 22.7836 13.2441 24.5324 14.1695 26.0572C15.0948 27.582 16.4194 28.8248 18 29.6512V30C18 30.3978 18.158 30.7794 18.4393 31.0607C18.7206 31.342 19.1022 31.5 19.5 31.5H25.5C25.8978 31.5 26.2794 31.342 26.5607 31.0607C26.842 30.7794 27 30.3978 27 30V29.6512C28.5806 28.8248 29.9052 27.582 30.8305 26.0572C31.7558 24.5324 32.2467 22.7836 32.25 21C32.25 20.8011 32.171 20.6103 32.0303 20.4697C31.8897 20.329 31.6989 20.25 31.5 20.25ZM29.2069 20.25H24.3862C25.2955 18.8858 26.6712 17.9002 28.2553 17.4778C28.7733 18.3203 29.0982 19.267 29.2069 20.25ZM26.7638 15.7716C26.9356 15.9122 27.1003 16.0606 27.2578 16.2169C25.2613 16.9192 23.6114 18.3626 22.65 20.2481H19.8844C20.3531 18.9342 21.2161 17.7969 22.3555 16.9919C23.4948 16.1868 24.8549 15.7531 26.25 15.75C26.4216 15.75 26.5931 15.7584 26.7638 15.7716ZM22.5 14.25C23.1018 14.2504 23.7009 14.3314 24.2812 14.4909C22.8679 14.8415 21.572 15.5585 20.524 16.5696C19.4761 17.5807 18.7132 18.8501 18.3122 20.25H15.7931C15.9792 18.6008 16.7656 17.0778 18.0025 15.9712C19.2395 14.8646 20.8403 14.252 22.5 14.25ZM25.9369 28.5C25.806 28.5601 25.6953 28.6566 25.6178 28.778C25.5404 28.8993 25.4994 29.0404 25.5 29.1844V30H19.5V29.1844C19.5005 29.0404 19.4596 28.8993 19.3822 28.778C19.3047 28.6566 19.194 28.5601 19.0631 28.5C17.7442 27.8931 16.6081 26.9499 15.7688 25.7651C14.9296 24.5803 14.4168 23.1956 14.2819 21.75H30.7153C30.5806 23.1953 30.0682 24.5798 29.2295 25.7646C28.3908 26.9493 27.2553 27.8927 25.9369 28.5Z" fill="#00997E"/>
</svg>
