<svg width="45" height="45" viewBox="0 0 45 45" fill="none" xmlns="http://www.w3.org/2000/svg">
<rect width="45" height="45" rx="22.5" fill="#FFAE41"/>
<rect width="45" height="45" rx="22.5" fill="white" fill-opacity="0.8"/>
<path d="M33 21H31.9875L29.3831 15.1406C29.2653 14.8755 29.0731 14.6503 28.8298 14.4922C28.5865 14.3341 28.3026 14.25 28.0125 14.25H16.9875C16.6974 14.25 16.4135 14.3341 16.1702 14.4922C15.9269 14.6503 15.7347 14.8755 15.6169 15.1406L13.0125 21H12C11.8011 21 11.6103 21.079 11.4697 21.2197C11.329 21.3603 11.25 21.5511 11.25 21.75C11.25 21.9489 11.329 22.1397 11.4697 22.2803C11.6103 22.421 11.8011 22.5 12 22.5H12.75V30C12.75 30.3978 12.908 30.7794 13.1893 31.0607C13.4706 31.342 13.8522 31.5 14.25 31.5H16.5C16.8978 31.5 17.2794 31.342 17.5607 31.0607C17.842 30.7794 18 30.3978 18 30V28.5H27V30C27 30.3978 27.158 30.7794 27.4393 31.0607C27.7206 31.342 28.1022 31.5 28.5 31.5H30.75C31.1478 31.5 31.5294 31.342 31.8107 31.0607C32.092 30.7794 32.25 30.3978 32.25 30V22.5H33C33.1989 22.5 33.3897 22.421 33.5303 22.2803C33.671 22.1397 33.75 21.9489 33.75 21.75C33.75 21.5511 33.671 21.3603 33.5303 21.2197C33.3897 21.079 33.1989 21 33 21ZM16.9875 15.75H28.0125L30.3459 21H14.6541L16.9875 15.75ZM16.5 30H14.25V28.5H16.5V30ZM28.5 30V28.5H30.75V30H28.5ZM30.75 27H14.25V22.5H30.75V27ZM15.75 24.75C15.75 24.5511 15.829 24.3603 15.9697 24.2197C16.1103 24.079 16.3011 24 16.5 24H18C18.1989 24 18.3897 24.079 18.5303 24.2197C18.671 24.3603 18.75 24.5511 18.75 24.75C18.75 24.9489 18.671 25.1397 18.5303 25.2803C18.3897 25.421 18.1989 25.5 18 25.5H16.5C16.3011 25.5 16.1103 25.421 15.9697 25.2803C15.829 25.1397 15.75 24.9489 15.75 24.75ZM26.25 24.75C26.25 24.5511 26.329 24.3603 26.4697 24.2197C26.6103 24.079 26.8011 24 27 24H28.5C28.6989 24 28.8897 24.079 29.0303 24.2197C29.171 24.3603 29.25 24.5511 29.25 24.75C29.25 24.9489 29.171 25.1397 29.0303 25.2803C28.8897 25.421 28.6989 25.5 28.5 25.5H27C26.8011 25.5 26.6103 25.421 26.4697 25.2803C26.329 25.1397 26.25 24.9489 26.25 24.75Z" fill="#FFAE41"/>
</svg>
