<svg width="307" height="211" viewBox="0 0 307 211" fill="none" xmlns="http://www.w3.org/2000/svg">
<path fill-rule="evenodd" clip-rule="evenodd" d="M156.296 158.452C192.015 158.452 220.971 129.496 220.971 93.7778C220.971 58.0591 192.015 29.1034 156.296 29.1034C120.578 29.1034 91.6219 58.0591 91.6219 93.7778C91.6219 129.496 120.578 158.452 156.296 158.452ZM156.296 187.556C208.088 187.556 250.074 145.57 250.074 93.7778C250.074 41.9857 208.088 0 156.296 0C104.504 0 62.5185 41.9857 62.5185 93.7778C62.5185 145.57 104.504 187.556 156.296 187.556Z" fill="#5655D7" fill-opacity="0.08"/>
<path fill-rule="evenodd" clip-rule="evenodd" d="M156.296 53.0291V12.2805C164.9 12.2805 173.435 13.6427 181.589 16.3045C183.578 16.954 185.545 17.6808 187.484 18.4841C197.372 22.5797 206.356 28.5828 213.924 36.1505C221.491 43.7182 227.494 52.7024 231.59 62.5901C232.393 64.5295 233.12 66.4961 233.77 68.4855C236.431 76.639 237.794 85.1746 237.794 93.7778L197.045 93.7778C197.045 88.4266 195.991 83.1278 193.943 78.184C191.895 73.2401 188.894 68.748 185.11 64.9641C181.326 61.1803 176.834 58.1788 171.89 56.1309C166.946 54.0831 161.647 53.0291 156.296 53.0291Z" fill="#5655D7"/>
<path fill-rule="evenodd" clip-rule="evenodd" d="M189.263 117.729C189.268 117.723 189.272 117.716 189.277 117.709C194.326 110.751 197.045 102.375 197.045 93.7778H237.794C237.794 102.345 236.444 110.802 233.84 118.854C233.817 118.926 233.793 118.998 233.77 119.07C231.145 127.11 227.269 134.742 222.237 141.669C222.235 141.673 222.232 141.677 222.229 141.681L189.263 117.729Z" fill="#FF414B"/>
<path fill-rule="evenodd" clip-rule="evenodd" d="M222.273 141.62C217.199 148.618 211.078 154.718 204.168 159.733C197.32 164.704 189.697 168.608 181.552 171.263C173.407 173.918 164.947 175.255 156.485 175.275C147.947 175.294 139.407 173.973 131.184 171.309L143.74 132.543C151.927 135.195 160.743 135.187 168.924 132.52C177.097 129.856 184.218 124.676 189.269 117.721C189.274 117.713 189.28 117.706 189.285 117.699L222.273 141.62Z" fill="#FFAE41"/>
<path fill-rule="evenodd" clip-rule="evenodd" d="M131.193 171.312C131.19 171.312 131.188 171.311 131.185 171.31C122.938 168.639 115.252 164.698 108.37 159.693C98.0936 152.221 89.6082 142.378 83.7202 130.852C77.8322 119.326 74.8304 106.682 74.7991 93.9763C74.7782 85.4653 76.0902 76.9267 78.7604 68.6781C78.7608 68.6769 78.7612 68.6756 78.7616 68.6744L117.529 81.2261C117.528 81.2287 117.527 81.2314 117.526 81.2341C114.2 91.5136 115.093 102.693 120.008 112.315C124.923 121.937 133.458 129.213 143.737 132.543C143.739 132.543 143.742 132.544 143.745 132.545L131.193 171.312Z" fill="#00997E"/>
<path fill-rule="evenodd" clip-rule="evenodd" d="M78.7488 68.7144C78.75 68.7108 78.7512 68.7071 78.7523 68.7034C81.4105 60.4828 85.3409 52.7905 90.356 45.8855C95.3288 39.0387 101.368 32.966 108.291 27.9197C115.214 22.8735 122.843 18.9826 130.883 16.3439C138.996 13.6816 147.526 12.294 156.169 12.2805L156.233 53.0291C156.229 53.0291 156.226 53.0291 156.223 53.0291C147.621 53.0447 139.245 55.7819 132.294 60.8487C125.34 65.9176 120.169 73.0578 117.523 81.2461L78.7488 68.7144Z" fill="#4ABDE8"/>
<path d="M261.941 23.5421V21.9166C264.52 19.7285 267.224 17.7123 267.224 15.6179C267.224 14.602 266.771 13.9143 265.692 13.9143C264.645 13.9143 264.067 14.6645 264.051 15.868H261.926C262.004 13.2578 263.676 12.0543 265.724 12.0543C268.178 12.0543 269.412 13.5079 269.412 15.4929C269.412 18.1343 266.865 20.1974 265.052 21.7291H269.662V23.5421H261.941ZM271.635 12.2732H278.7V14.1956H273.636V16.8683C274.058 16.3525 274.917 15.9461 275.871 15.9461C278.528 15.9461 279.434 17.9467 279.434 19.7129C279.434 22.0417 278.09 23.6984 275.496 23.6984C273.042 23.6984 271.635 22.3386 271.448 20.4787H273.573C273.761 21.2758 274.402 21.8541 275.464 21.8541C276.746 21.8541 277.324 20.9476 277.324 19.7441C277.324 18.4625 276.684 17.7592 275.449 17.7592C274.542 17.7592 273.964 18.2593 273.73 18.9626H271.635V12.2732ZM280.85 15.1021C280.85 13.4766 281.912 12.5701 283.335 12.5701C284.757 12.5701 285.82 13.4766 285.82 15.1021C285.82 16.7432 284.757 17.6497 283.335 17.6497C281.912 17.6497 280.85 16.7432 280.85 15.1021ZM283.319 13.883C282.788 13.883 282.46 14.2425 282.46 15.1021C282.46 15.9617 282.788 16.3369 283.319 16.3369C283.866 16.3369 284.21 15.9617 284.21 15.1021C284.21 14.2425 283.866 13.883 283.319 13.883ZM282.616 23.6984L288.743 12.7577H290.884L284.741 23.6984H282.616ZM287.711 21.3383C287.711 19.6972 288.774 18.8063 290.196 18.8063C291.603 18.8063 292.65 19.6972 292.65 21.3383C292.65 22.9951 291.603 23.886 290.196 23.886C288.774 23.886 287.711 22.9951 287.711 21.3383ZM290.181 20.1192C289.634 20.1192 289.29 20.4787 289.29 21.3383C289.29 22.2136 289.634 22.5731 290.181 22.5731C290.712 22.5731 291.056 22.2136 291.056 21.3383C291.056 20.4787 290.712 20.1192 290.181 20.1192Z" fill="#4D5154"/>
<path d="M280.063 136.455V127.077H278.547V125.061H282.314V136.455H280.063ZM284.475 130.61C284.475 127.312 285.475 124.842 288.695 124.842C291.915 124.842 292.915 127.312 292.915 130.61C292.915 133.939 291.915 136.424 288.695 136.424C285.475 136.424 284.475 133.939 284.475 130.61ZM290.758 130.61C290.758 128.656 290.539 126.874 288.695 126.874C286.851 126.874 286.632 128.656 286.632 130.61C286.632 132.641 286.851 134.392 288.695 134.392C290.539 134.392 290.758 132.641 290.758 130.61ZM294.329 127.859C294.329 126.233 295.392 125.327 296.815 125.327C298.237 125.327 299.3 126.233 299.3 127.859C299.3 129.5 298.237 130.406 296.815 130.406C295.392 130.406 294.329 129.5 294.329 127.859ZM296.799 126.64C296.268 126.64 295.939 126.999 295.939 127.859C295.939 128.718 296.268 129.093 296.799 129.093C297.346 129.093 297.69 128.718 297.69 127.859C297.69 126.999 297.346 126.64 296.799 126.64ZM296.096 136.455L302.222 125.514H304.364L298.221 136.455H296.096ZM301.191 134.095C301.191 132.454 302.254 131.563 303.676 131.563C305.083 131.563 306.13 132.454 306.13 134.095C306.13 135.752 305.083 136.643 303.676 136.643C302.254 136.643 301.191 135.752 301.191 134.095ZM303.66 132.876C303.113 132.876 302.769 133.235 302.769 134.095C302.769 134.97 303.113 135.33 303.66 135.33C304.192 135.33 304.536 134.97 304.536 134.095C304.536 133.235 304.192 132.876 303.66 132.876Z" fill="#4D5154"/>
<path d="M239.872 204.556V195.178H238.356V193.162H242.123V204.556H239.872ZM244.879 193.13H251.943V195.053H246.879V197.725C247.301 197.21 248.161 196.803 249.114 196.803C251.771 196.803 252.678 198.804 252.678 200.57C252.678 202.899 251.334 204.556 248.739 204.556C246.285 204.556 244.879 203.196 244.691 201.336H246.817C247.004 202.133 247.645 202.711 248.708 202.711C249.99 202.711 250.568 201.805 250.568 200.601C250.568 199.32 249.927 198.616 248.692 198.616C247.786 198.616 247.208 199.116 246.973 199.82H244.879V193.13ZM254.093 195.959C254.093 194.334 255.156 193.427 256.578 193.427C258.001 193.427 259.063 194.334 259.063 195.959C259.063 197.6 258.001 198.507 256.578 198.507C255.156 198.507 254.093 197.6 254.093 195.959ZM256.563 194.74C256.031 194.74 255.703 195.1 255.703 195.959C255.703 196.819 256.031 197.194 256.563 197.194C257.11 197.194 257.454 196.819 257.454 195.959C257.454 195.1 257.11 194.74 256.563 194.74ZM255.859 204.556L261.986 193.615H264.127L257.985 204.556H255.859ZM260.955 202.195C260.955 200.554 262.017 199.663 263.44 199.663C264.846 199.663 265.894 200.554 265.894 202.195C265.894 203.852 264.846 204.743 263.44 204.743C262.017 204.743 260.955 203.852 260.955 202.195ZM263.424 200.976C262.877 200.976 262.533 201.336 262.533 202.195C262.533 203.071 262.877 203.43 263.424 203.43C263.956 203.43 264.299 203.071 264.299 202.195C264.299 201.336 263.956 200.976 263.424 200.976Z" fill="#4D5154"/>
<path d="M12.0236 167.136C12.133 165.026 13.6335 163.869 15.8216 163.869C18.1661 163.869 19.4164 165.198 19.4164 166.886C19.4164 168.308 18.5256 169.183 17.6972 169.465V169.527C18.8538 169.887 19.6196 170.825 19.6196 172.372C19.6196 174.232 18.3067 175.607 15.9154 175.607C13.6647 175.607 11.9611 174.482 11.8673 172.091H13.993C14.0399 173.075 14.6963 173.779 15.8685 173.779C16.9626 173.779 17.5253 173.091 17.5253 172.184C17.5253 170.903 16.7125 170.434 15.087 170.434H14.6338V168.636H15.087C16.3687 168.636 17.3064 168.277 17.3064 167.152C17.3064 166.261 16.7594 165.729 15.7591 165.729C14.6963 165.729 14.243 166.417 14.1649 167.136H12.0236ZM21.3488 169.684C21.3488 166.386 22.3491 163.916 25.5688 163.916C28.7885 163.916 29.7888 166.386 29.7888 169.684C29.7888 173.013 28.7885 175.498 25.5688 175.498C22.3491 175.498 21.3488 173.013 21.3488 169.684ZM27.6319 169.684C27.6319 167.73 27.4131 165.948 25.5688 165.948C23.7245 165.948 23.5057 167.73 23.5057 169.684C23.5057 171.715 23.7245 173.466 25.5688 173.466C27.4131 173.466 27.6319 171.715 27.6319 169.684ZM31.203 166.933C31.203 165.307 32.2658 164.401 33.6881 164.401C35.1104 164.401 36.1732 165.307 36.1732 166.933C36.1732 168.574 35.1104 169.48 33.6881 169.48C32.2658 169.48 31.203 168.574 31.203 166.933ZM33.6725 165.714C33.1411 165.714 32.8129 166.073 32.8129 166.933C32.8129 167.792 33.1411 168.168 33.6725 168.168C34.2195 168.168 34.5634 167.792 34.5634 166.933C34.5634 166.073 34.2195 165.714 33.6725 165.714ZM32.9692 175.529L39.096 164.588H41.2372L35.0948 175.529H32.9692ZM38.0644 173.169C38.0644 171.528 39.1272 170.637 40.5495 170.637C41.9562 170.637 43.0034 171.528 43.0034 173.169C43.0034 174.826 41.9562 175.717 40.5495 175.717C39.1272 175.717 38.0644 174.826 38.0644 173.169ZM40.5339 171.95C39.9869 171.95 39.643 172.309 39.643 173.169C39.643 174.044 39.9869 174.404 40.5339 174.404C41.0653 174.404 41.4092 174.044 41.4092 173.169C41.4092 172.309 41.0653 171.95 40.5339 171.95Z" fill="#4D5154"/>
<path d="M0.703333 30.2405V28.615C3.28222 26.4269 5.98615 24.4107 5.98615 22.3163C5.98615 21.3004 5.53289 20.6127 4.45444 20.6127C3.40726 20.6127 2.82896 21.3629 2.81333 22.5664H0.687704C0.765852 19.9562 2.43822 18.7528 4.4857 18.7528C6.93956 18.7528 8.1743 20.2063 8.1743 22.1913C8.1743 24.8327 5.62667 26.8958 3.81363 28.4275H8.42437V30.2405H0.703333ZM10.3971 18.9716H17.4617V20.894H12.3977V23.5667C12.8197 23.0509 13.6793 22.6445 14.6328 22.6445C17.2898 22.6445 18.1963 24.6451 18.1963 26.4113C18.1963 28.7401 16.8522 30.3968 14.2576 30.3968C11.8038 30.3968 10.3971 29.037 10.2096 27.1771H12.3352C12.5228 27.9742 13.1636 28.5525 14.2264 28.5525C15.508 28.5525 16.0863 27.646 16.0863 26.4425C16.0863 25.1609 15.4455 24.4576 14.2108 24.4576C13.3042 24.4576 12.7259 24.9577 12.4915 25.661H10.3971V18.9716ZM19.6116 21.8005C19.6116 20.175 20.6745 19.2685 22.0968 19.2685C23.5191 19.2685 24.5819 20.175 24.5819 21.8005C24.5819 23.4416 23.5191 24.3482 22.0968 24.3482C20.6745 24.3482 19.6116 23.4416 19.6116 21.8005ZM22.0811 20.5814C21.5497 20.5814 21.2215 20.9409 21.2215 21.8005C21.2215 22.6602 21.5497 23.0353 22.0811 23.0353C22.6282 23.0353 22.972 22.6602 22.972 21.8005C22.972 20.9409 22.6282 20.5814 22.0811 20.5814ZM21.3778 30.3968L27.5046 19.4561H29.6459L23.5034 30.3968H21.3778ZM26.4731 28.0368C26.4731 26.3956 27.5359 25.5048 28.9582 25.5048C30.3648 25.5048 31.412 26.3956 31.412 28.0368C31.412 29.6935 30.3648 30.5844 28.9582 30.5844C27.5359 30.5844 26.4731 29.6935 26.4731 28.0368ZM28.9425 26.8176C28.3955 26.8176 28.0516 27.1771 28.0516 28.0368C28.0516 28.912 28.3955 29.2715 28.9425 29.2715C29.4739 29.2715 29.8178 28.912 29.8178 28.0368C29.8178 27.1771 29.4739 26.8176 28.9425 26.8176Z" fill="#4D5154"/>
<path d="M50.2381 31.8175H66.4259L98.2434 57.4947M251.19 19.537H236.119L208.767 45.7725M267.378 132.294H250.632L224.397 116.106M224.397 198.72H211.558L183.09 159.646M56.3783 169.135H68.6587L99.3598 138.992" stroke="#A6A8A9" stroke-width="1.1164"/>
</svg>
