<svg width="56" height="56" viewBox="0 0 56 56" fill="none" xmlns="http://www.w3.org/2000/svg">
<rect width="56" height="56" rx="10" fill="#00997E" fill-opacity="0.08"/>
<path d="M36.75 17.5H19.25C18.7859 17.5 18.3408 17.6844 18.0126 18.0126C17.6844 18.3408 17.5 18.7859 17.5 19.25V36.75C17.5 37.2141 17.6844 37.6592 18.0126 37.9874C18.3408 38.3156 18.7859 38.5 19.25 38.5H36.75C37.2141 38.5 37.6592 38.3156 37.9874 37.9874C38.3156 37.6592 38.5 37.2141 38.5 36.75V19.25C38.5 18.7859 38.3156 18.3408 37.9874 18.0126C37.6592 17.6844 37.2141 17.5 36.75 17.5ZM36.75 36.75H19.25V19.25H36.75V36.75ZM23.625 31.5V26.25C23.625 26.0179 23.7172 25.7954 23.8813 25.6313C24.0454 25.4672 24.2679 25.375 24.5 25.375C24.7321 25.375 24.9546 25.4672 25.1187 25.6313C25.2828 25.7954 25.375 26.0179 25.375 26.25V29.388L30.8809 23.8809C30.9622 23.7996 31.0587 23.7352 31.165 23.6912C31.2712 23.6472 31.385 23.6245 31.5 23.6245C31.615 23.6245 31.7288 23.6472 31.835 23.6912C31.9413 23.7352 32.0378 23.7996 32.1191 23.8809C32.2004 23.9622 32.2648 24.0587 32.3088 24.165C32.3528 24.2712 32.3755 24.385 32.3755 24.5C32.3755 24.615 32.3528 24.7288 32.3088 24.835C32.2648 24.9413 32.2004 25.0378 32.1191 25.1191L26.612 30.625H29.75C29.9821 30.625 30.2046 30.7172 30.3687 30.8813C30.5328 31.0454 30.625 31.2679 30.625 31.5C30.625 31.7321 30.5328 31.9546 30.3687 32.1187C30.2046 32.2828 29.9821 32.375 29.75 32.375H24.5C24.2679 32.375 24.0454 32.2828 23.8813 32.1187C23.7172 31.9546 23.625 31.7321 23.625 31.5Z" fill="#00997E"/>
</svg>
