<svg width="45" height="45" viewBox="0 0 45 45" fill="none" xmlns="http://www.w3.org/2000/svg">
<rect width="45" height="45" rx="22.5" fill="#5655D7"/>
<rect width="45" height="45" rx="22.5" fill="white" fill-opacity="0.8"/>
<g clip-path="url(#clip0_380_953)">
<path d="M28.5 21.375C28.5 21.5975 28.434 21.815 28.3104 22C28.1868 22.185 28.0111 22.3292 27.8055 22.4144C27.6 22.4995 27.3738 22.5218 27.1555 22.4784C26.9373 22.435 26.7368 22.3278 26.5795 22.1705C26.4222 22.0132 26.315 21.8127 26.2716 21.5945C26.2282 21.3762 26.2505 21.15 26.3356 20.9445C26.4208 20.7389 26.565 20.5632 26.75 20.4396C26.935 20.316 27.1525 20.25 27.375 20.25C27.6734 20.25 27.9595 20.3685 28.1705 20.5795C28.3815 20.7905 28.5 21.0766 28.5 21.375ZM24.75 16.5H21C20.8011 16.5 20.6103 16.579 20.4697 16.7197C20.329 16.8603 20.25 17.0511 20.25 17.25C20.25 17.4489 20.329 17.6397 20.4697 17.7803C20.6103 17.921 20.8011 18 21 18H24.75C24.9489 18 25.1397 17.921 25.2803 17.7803C25.421 17.6397 25.5 17.4489 25.5 17.25C25.5 17.0511 25.421 16.8603 25.2803 16.7197C25.1397 16.579 24.9489 16.5 24.75 16.5ZM33.75 21V24C33.75 24.5967 33.5129 25.169 33.091 25.591C32.669 26.0129 32.0967 26.25 31.5 26.25H31.2788L29.7591 30.5044C29.655 30.7958 29.4634 31.0479 29.2105 31.2261C28.9575 31.4044 28.6557 31.5 28.3463 31.5H27.1538C26.8443 31.5 26.5425 31.4044 26.2895 31.2261C26.0366 31.0479 25.845 30.7958 25.7409 30.5044L25.5609 30H20.1891L20.0091 30.5044C19.905 30.7958 19.7134 31.0479 19.4605 31.2261C19.2075 31.4044 18.9057 31.5 18.5963 31.5H17.4038C17.0943 31.5 16.7925 31.4044 16.5395 31.2261C16.2866 31.0479 16.095 30.7958 15.9909 30.5044L14.8125 27.2081C13.6914 25.9393 12.9894 24.3553 12.8025 22.6725C12.5605 22.7996 12.3578 22.9905 12.2163 23.2245C12.0749 23.4584 12.0001 23.7266 12 24C12 24.1989 11.921 24.3897 11.7803 24.5303C11.6397 24.671 11.4489 24.75 11.25 24.75C11.0511 24.75 10.8603 24.671 10.7197 24.5303C10.579 24.3897 10.5 24.1989 10.5 24C10.5011 23.3312 10.7258 22.6819 11.1382 22.1553C11.5506 21.6287 12.1272 21.2551 12.7763 21.0938C12.9438 19.0269 13.8825 17.0986 15.406 15.6918C16.9295 14.285 18.9263 13.5026 21 13.5H30.75C30.9489 13.5 31.1397 13.579 31.2803 13.7197C31.421 13.8603 31.5 14.0511 31.5 14.25C31.5 14.4489 31.421 14.6397 31.2803 14.7803C31.1397 14.921 30.9489 15 30.75 15H28.7447C29.9894 15.8733 30.9683 17.0738 31.5731 18.4688C31.6134 18.5625 31.6528 18.6562 31.6903 18.75C32.2535 18.7978 32.778 19.0558 33.1596 19.4727C33.5413 19.8896 33.752 20.4348 33.75 21ZM32.25 21C32.25 20.8011 32.171 20.6103 32.0303 20.4697C31.8897 20.329 31.6989 20.25 31.5 20.25H31.1569C30.9971 20.2502 30.8415 20.1993 30.7127 20.1049C30.5839 20.0105 30.4885 19.8774 30.4406 19.725C30.0109 18.3538 29.1542 17.1557 27.9956 16.3057C26.837 15.4557 25.437 14.9982 24 15H21C19.69 14.9999 18.4084 15.381 17.3113 16.0968C16.2142 16.8126 15.3491 17.8322 14.8214 19.0312C14.2938 20.2301 14.1264 21.5568 14.3398 22.8492C14.5531 24.1417 15.1379 25.3442 16.0228 26.31C16.0905 26.3836 16.1428 26.47 16.1766 26.5641L17.4038 30H18.5963L18.9544 28.9978C19.0064 28.8522 19.1021 28.7262 19.2285 28.6371C19.3549 28.548 19.5057 28.5001 19.6603 28.5H26.0897C26.2443 28.5001 26.3951 28.548 26.5215 28.6371C26.6479 28.7262 26.7436 28.8522 26.7956 28.9978L27.1538 30H28.3463L30.0441 25.2478C30.0961 25.1022 30.1918 24.9762 30.3182 24.8871C30.4445 24.798 30.5954 24.7501 30.75 24.75H31.5C31.6989 24.75 31.8897 24.671 32.0303 24.5303C32.171 24.3897 32.25 24.1989 32.25 24V21Z" fill="#5655D7"/>
</g>
<defs>
<clipPath id="clip0_380_953">
<rect width="24" height="24" fill="white" transform="translate(10.5 10.5)"/>
</clipPath>
</defs>
</svg>
