<svg width="56" height="56" viewBox="0 0 56 56" fill="none" xmlns="http://www.w3.org/2000/svg">
<rect width="56" height="56" rx="10" fill="#FF414B" fill-opacity="0.08"/>
<path d="M36.75 17.5H19.25C18.7859 17.5 18.3408 17.6844 18.0126 18.0126C17.6844 18.3408 17.5 18.7859 17.5 19.25V36.75C17.5 37.2141 17.6844 37.6592 18.0126 37.9874C18.3408 38.3156 18.7859 38.5 19.25 38.5H36.75C37.2141 38.5 37.6592 38.3156 37.9874 37.9874C38.3156 37.6592 38.5 37.2141 38.5 36.75V19.25C38.5 18.7859 38.3156 18.3408 37.9874 18.0126C37.6592 17.6844 37.2141 17.5 36.75 17.5ZM36.75 36.75H19.25V19.25H36.75V36.75ZM23.8809 32.1191C23.7996 32.0378 23.735 31.9413 23.691 31.8351C23.647 31.7288 23.6243 31.615 23.6243 31.5C23.6243 31.385 23.647 31.2712 23.691 31.1649C23.735 31.0587 23.7996 30.9622 23.8809 30.8809L29.388 25.375H26.25C26.0179 25.375 25.7954 25.2828 25.6313 25.1187C25.4672 24.9546 25.375 24.7321 25.375 24.5C25.375 24.2679 25.4672 24.0454 25.6313 23.8813C25.7954 23.7172 26.0179 23.625 26.25 23.625H31.5C31.7321 23.625 31.9546 23.7172 32.1187 23.8813C32.2828 24.0454 32.375 24.2679 32.375 24.5V29.75C32.375 29.9821 32.2828 30.2046 32.1187 30.3687C31.9546 30.5328 31.7321 30.625 31.5 30.625C31.2679 30.625 31.0454 30.5328 30.8813 30.3687C30.7172 30.2046 30.625 29.9821 30.625 29.75V26.612L25.1191 32.1191C25.0378 32.2004 24.9413 32.265 24.8351 32.309C24.7288 32.353 24.615 32.3757 24.5 32.3757C24.385 32.3757 24.2712 32.353 24.1649 32.309C24.0587 32.265 23.9622 32.2004 23.8809 32.1191Z" fill="#FF414B"/>
</svg>
