<svg width="189" height="188" viewBox="0 0 189 188" fill="none" xmlns="http://www.w3.org/2000/svg">
<path fill-rule="evenodd" clip-rule="evenodd" d="M94.2963 158.452C130.015 158.452 158.971 129.496 158.971 93.7778C158.971 58.0591 130.015 29.1034 94.2963 29.1034C58.5776 29.1034 29.6219 58.0591 29.6219 93.7778C29.6219 129.496 58.5776 158.452 94.2963 158.452ZM94.2963 187.556C146.088 187.556 188.074 145.57 188.074 93.7778C188.074 41.9857 146.088 0 94.2963 0C42.5042 0 0.518494 41.9857 0.518494 93.7778C0.518494 145.57 42.5042 187.556 94.2963 187.556Z" fill="#5655D7" fill-opacity="0.08"/>
<path fill-rule="evenodd" clip-rule="evenodd" d="M94.2963 53.0291V12.2805C102.9 12.2805 111.435 13.6427 119.589 16.3045C121.578 16.954 123.545 17.6808 125.484 18.4841C135.372 22.5797 144.356 28.5828 151.924 36.1505C159.491 43.7182 165.494 52.7024 169.59 62.5901C170.393 64.5295 171.12 66.4961 171.77 68.4855C174.431 76.639 175.794 85.1746 175.794 93.7778L135.045 93.7778C135.045 88.4266 133.991 83.1278 131.943 78.184C129.895 73.2401 126.894 68.748 123.11 64.9641C119.326 61.1803 114.834 58.1788 109.89 56.1309C104.946 54.0831 99.6475 53.0291 94.2963 53.0291Z" fill="#5655D7"/>
<path fill-rule="evenodd" clip-rule="evenodd" d="M127.263 117.729C127.268 117.723 127.272 117.716 127.277 117.709C132.326 110.751 135.045 102.375 135.045 93.7778H175.794C175.794 102.345 174.444 110.802 171.84 118.854C171.817 118.926 171.793 118.998 171.77 119.07C169.145 127.11 165.269 134.742 160.237 141.669C160.235 141.673 160.232 141.677 160.229 141.681L127.263 117.729Z" fill="#FF414B"/>
<path fill-rule="evenodd" clip-rule="evenodd" d="M160.273 141.62C155.199 148.618 149.078 154.718 142.168 159.733C135.32 164.704 127.697 168.608 119.552 171.263C111.407 173.918 102.947 175.255 94.4852 175.275C85.9473 175.294 77.4068 173.973 69.1837 171.309L81.7402 132.543C89.9267 135.195 98.7425 135.187 106.924 132.52C115.097 129.856 122.218 124.676 127.269 117.721C127.274 117.713 127.28 117.706 127.285 117.699L160.273 141.62Z" fill="#FFAE41"/>
<path fill-rule="evenodd" clip-rule="evenodd" d="M69.1928 171.312C69.1902 171.312 69.1876 171.311 69.185 171.31C60.9382 168.639 53.2524 164.698 46.3698 159.693C36.0936 152.221 27.6082 142.378 21.7202 130.852C15.8322 119.326 12.8304 106.682 12.7991 93.9763C12.7782 85.4653 14.0902 76.9267 16.7604 68.6781C16.7608 68.6769 16.7612 68.6756 16.7616 68.6744L55.5289 81.2261C55.5281 81.2287 55.5272 81.2314 55.5263 81.2341C52.2005 91.5136 53.0931 102.693 58.0082 112.315C62.9233 121.937 71.4585 129.213 81.7367 132.543C81.7393 132.543 81.7419 132.544 81.7445 132.545L69.1928 171.312Z" fill="#00997E"/>
<path fill-rule="evenodd" clip-rule="evenodd" d="M16.7488 68.7144C16.75 68.7108 16.7512 68.7071 16.7523 68.7034C19.4105 60.4828 23.3409 52.7905 28.356 45.8855C33.3288 39.0387 39.368 32.966 46.2909 27.9197C53.2137 22.8735 60.8434 18.9826 68.8835 16.3439C76.9957 13.6816 85.5258 12.294 94.1694 12.2805L94.2329 53.0291C94.2295 53.0291 94.226 53.0291 94.2225 53.0291C85.6209 53.0447 77.2448 55.7819 70.2937 60.8487C63.3397 65.9176 58.169 73.0578 55.5226 81.2461L16.7488 68.7144Z" fill="#4ABDE8"/>
</svg>
