<svg width="18" height="18" viewBox="0 0 18 18" fill="none" xmlns="http://www.w3.org/2000/svg">
<path d="M9 0.875C7.39303 0.875 5.82214 1.35152 4.486 2.24431C3.14985 3.1371 2.10844 4.40605 1.49348 5.8907C0.87852 7.37535 0.717618 9.00901 1.03112 10.5851C1.34463 12.1612 2.11846 13.6089 3.25476 14.7452C4.39106 15.8815 5.8388 16.6554 7.4149 16.9689C8.99099 17.2824 10.6247 17.1215 12.1093 16.5065C13.594 15.8916 14.8629 14.8502 15.7557 13.514C16.6485 12.1779 17.125 10.607 17.125 9C17.1227 6.84581 16.266 4.78051 14.7427 3.25727C13.2195 1.73403 11.1542 0.877275 9 0.875ZM9 15.875C7.64026 15.875 6.31105 15.4718 5.18046 14.7164C4.04987 13.9609 3.16868 12.8872 2.64833 11.6309C2.12798 10.3747 1.99183 8.99237 2.2571 7.65875C2.52238 6.32513 3.17716 5.10013 4.13864 4.13864C5.10013 3.17716 6.32514 2.52237 7.65876 2.2571C8.99238 1.99183 10.3747 2.12798 11.631 2.64833C12.8872 3.16868 13.9609 4.04987 14.7164 5.18045C15.4718 6.31104 15.875 7.64025 15.875 9C15.8729 10.8227 15.1479 12.5702 13.8591 13.8591C12.5702 15.1479 10.8227 15.8729 9 15.875ZM12.5672 7.30781C12.6253 7.36586 12.6714 7.43479 12.7029 7.51066C12.7343 7.58654 12.7505 7.66787 12.7505 7.75C12.7505 7.83213 12.7343 7.91346 12.7029 7.98934C12.6714 8.06521 12.6253 8.13414 12.5672 8.19219L9.44219 11.3172C9.38415 11.3753 9.31522 11.4214 9.23934 11.4529C9.16347 11.4843 9.08214 11.5005 9 11.5005C8.91787 11.5005 8.83654 11.4843 8.76067 11.4529C8.68479 11.4214 8.61586 11.3753 8.55782 11.3172L5.43282 8.19219C5.31554 8.07491 5.24966 7.91585 5.24966 7.75C5.24966 7.58415 5.31554 7.42509 5.43282 7.30781C5.55009 7.19054 5.70915 7.12465 5.875 7.12465C6.04086 7.12465 6.19992 7.19054 6.31719 7.30781L9 9.99141L11.6828 7.30781C11.7409 7.2497 11.8098 7.2036 11.8857 7.17215C11.9615 7.1407 12.0429 7.12451 12.125 7.12451C12.2071 7.12451 12.2885 7.1407 12.3643 7.17215C12.4402 7.2036 12.5091 7.2497 12.5672 7.30781Z" fill="#2C394A"/>
<path d="M9 0.875C7.39303 0.875 5.82214 1.35152 4.486 2.24431C3.14985 3.1371 2.10844 4.40605 1.49348 5.8907C0.87852 7.37535 0.717618 9.00901 1.03112 10.5851C1.34463 12.1612 2.11846 13.6089 3.25476 14.7452C4.39106 15.8815 5.8388 16.6554 7.4149 16.9689C8.99099 17.2824 10.6247 17.1215 12.1093 16.5065C13.594 15.8916 14.8629 14.8502 15.7557 13.514C16.6485 12.1779 17.125 10.607 17.125 9C17.1227 6.84581 16.266 4.78051 14.7427 3.25727C13.2195 1.73403 11.1542 0.877275 9 0.875ZM9 15.875C7.64026 15.875 6.31105 15.4718 5.18046 14.7164C4.04987 13.9609 3.16868 12.8872 2.64833 11.6309C2.12798 10.3747 1.99183 8.99237 2.2571 7.65875C2.52238 6.32513 3.17716 5.10013 4.13864 4.13864C5.10013 3.17716 6.32514 2.52237 7.65876 2.2571C8.99238 1.99183 10.3747 2.12798 11.631 2.64833C12.8872 3.16868 13.9609 4.04987 14.7164 5.18045C15.4718 6.31104 15.875 7.64025 15.875 9C15.8729 10.8227 15.1479 12.5702 13.8591 13.8591C12.5702 15.1479 10.8227 15.8729 9 15.875ZM12.5672 7.30781C12.6253 7.36586 12.6714 7.43479 12.7029 7.51066C12.7343 7.58654 12.7505 7.66787 12.7505 7.75C12.7505 7.83213 12.7343 7.91346 12.7029 7.98934C12.6714 8.06521 12.6253 8.13414 12.5672 8.19219L9.44219 11.3172C9.38415 11.3753 9.31522 11.4214 9.23934 11.4529C9.16347 11.4843 9.08214 11.5005 9 11.5005C8.91787 11.5005 8.83654 11.4843 8.76067 11.4529C8.68479 11.4214 8.61586 11.3753 8.55782 11.3172L5.43282 8.19219C5.31554 8.07491 5.24966 7.91585 5.24966 7.75C5.24966 7.58415 5.31554 7.42509 5.43282 7.30781C5.55009 7.19054 5.70915 7.12465 5.875 7.12465C6.04086 7.12465 6.19992 7.19054 6.31719 7.30781L9 9.99141L11.6828 7.30781C11.7409 7.2497 11.8098 7.2036 11.8857 7.17215C11.9615 7.1407 12.0429 7.12451 12.125 7.12451C12.2071 7.12451 12.2885 7.1407 12.3643 7.17215C12.4402 7.2036 12.5091 7.2497 12.5672 7.30781Z" fill="white" fill-opacity="0.25"/>
</svg>
