<svg width="12" height="13" viewBox="0 0 12 13" fill="none" xmlns="http://www.w3.org/2000/svg">
<path d="M11.25 7.24658V10.2466C11.25 10.4455 11.171 10.6363 11.0303 10.7769C10.8897 10.9176 10.6989 10.9966 10.5 10.9966H1.5C1.30109 10.9966 1.11032 10.9176 0.96967 10.7769C0.829018 10.6363 0.75 10.4455 0.75 10.2466V7.24658C0.75 7.04767 0.829018 6.8569 0.96967 6.71625C1.11032 6.5756 1.30109 6.49658 1.5 6.49658H3.375C3.47446 6.49658 3.56984 6.53609 3.64016 6.60642C3.71049 6.67674 3.75 6.77213 3.75 6.87158C3.75 6.97104 3.71049 7.06642 3.64016 7.13675C3.56984 7.20707 3.47446 7.24658 3.375 7.24658H1.5V10.2466H10.5V7.24658H8.625C8.52554 7.24658 8.43016 7.20707 8.35983 7.13675C8.28951 7.06642 8.25 6.97104 8.25 6.87158C8.25 6.77213 8.28951 6.67674 8.35983 6.60642C8.43016 6.53609 8.52554 6.49658 8.625 6.49658H10.5C10.6989 6.49658 10.8897 6.5756 11.0303 6.71625C11.171 6.8569 11.25 7.04767 11.25 7.24658ZM5.73469 7.13689C5.76951 7.17176 5.81087 7.19942 5.8564 7.21829C5.90192 7.23716 5.95072 7.24688 6 7.24688C6.04928 7.24688 6.09808 7.23716 6.1436 7.21829C6.18913 7.19942 6.23049 7.17176 6.26531 7.13689L8.51531 4.88689C8.58568 4.81653 8.62521 4.72109 8.62521 4.62158C8.62521 4.52207 8.58568 4.42663 8.51531 4.35627C8.44495 4.2859 8.34951 4.24637 8.25 4.24637C8.15049 4.24637 8.05505 4.2859 7.98469 4.35627L6.375 5.96643V1.99658C6.375 1.89713 6.33549 1.80174 6.26517 1.73142C6.19484 1.66109 6.09946 1.62158 6 1.62158C5.90054 1.62158 5.80516 1.66109 5.73484 1.73142C5.66451 1.80174 5.625 1.89713 5.625 1.99658V5.96643L4.01531 4.35627C3.94495 4.2859 3.84951 4.24637 3.75 4.24637C3.65049 4.24637 3.55505 4.2859 3.48469 4.35627C3.41432 4.42664 3.37479 4.52207 3.37479 4.62158C3.37479 4.72109 3.41432 4.81653 3.48469 4.88689L5.73469 7.13689ZM9.375 8.74658C9.375 8.63533 9.34201 8.52658 9.2802 8.43407C9.21839 8.34157 9.13054 8.26947 9.02776 8.2269C8.92498 8.18433 8.81188 8.17319 8.70276 8.19489C8.59365 8.21659 8.49342 8.27017 8.41475 8.34883C8.33609 8.4275 8.28251 8.52773 8.26081 8.63684C8.2391 8.74596 8.25024 8.85906 8.29282 8.96184C8.33539 9.06462 8.40749 9.15248 8.49999 9.21428C8.59249 9.27609 8.70125 9.30908 8.8125 9.30908C8.96168 9.30908 9.10476 9.24982 9.21025 9.14433C9.31574 9.03884 9.375 8.89577 9.375 8.74658Z" fill="#5655D7"/>
</svg>
