<svg width="498" height="300" viewBox="0 0 498 300" fill="none" xmlns="http://www.w3.org/2000/svg">
<path d="M8.96348 16.8716L8.97848 7.16658L9.11348 6.37158H10.4185L10.4035 16.8716H8.96348ZM6.65348 9.23658V7.90158C6.87348 7.91158 7.12848 7.84158 7.41848 7.69158C7.71848 7.54158 8.01848 7.34658 8.31848 7.10658C8.61848 6.86658 8.88348 6.61658 9.11348 6.35658L10.0285 7.34658C9.68848 7.70658 9.33348 8.03158 8.96348 8.32158C8.59348 8.61158 8.21348 8.84158 7.82348 9.01158C7.44348 9.18158 7.05348 9.25658 6.65348 9.23658ZM12.6087 18.5966L13.4787 15.3266H15.0237L13.7637 18.5966H12.6087ZM20.399 17.0516C19.589 17.0516 18.869 16.8216 18.239 16.3616C17.609 15.8916 17.114 15.2516 16.754 14.4416C16.404 13.6216 16.229 12.6816 16.229 11.6216C16.229 10.5616 16.404 9.62658 16.754 8.81658C17.114 7.99658 17.604 7.35658 18.224 6.89658C18.854 6.42658 19.579 6.19158 20.399 6.19158C21.219 6.19158 21.939 6.42658 22.559 6.89658C23.189 7.35658 23.684 7.99658 24.044 8.81658C24.404 9.62658 24.584 10.5616 24.584 11.6216C24.584 12.6816 24.404 13.6216 24.044 14.4416C23.694 15.2516 23.204 15.8916 22.574 16.3616C21.944 16.8216 21.219 17.0516 20.399 17.0516ZM20.399 15.7016C20.929 15.7016 21.399 15.5266 21.809 15.1766C22.229 14.8266 22.554 14.3466 22.784 13.7366C23.014 13.1266 23.129 12.4216 23.129 11.6216C23.129 10.8216 23.014 10.1166 22.784 9.50658C22.554 8.88658 22.229 8.40158 21.809 8.05158C21.399 7.70158 20.929 7.52658 20.399 7.52658C19.869 7.52658 19.399 7.70158 18.989 8.05158C18.579 8.40158 18.259 8.88658 18.029 9.50658C17.799 10.1166 17.684 10.8216 17.684 11.6216C17.684 12.4216 17.799 13.1316 18.029 13.7516C18.259 14.3616 18.579 14.8416 18.989 15.1916C19.399 15.5316 19.869 15.7016 20.399 15.7016ZM30.0377 17.0516C29.2277 17.0516 28.5077 16.8216 27.8777 16.3616C27.2477 15.8916 26.7527 15.2516 26.3927 14.4416C26.0427 13.6216 25.8677 12.6816 25.8677 11.6216C25.8677 10.5616 26.0427 9.62658 26.3927 8.81658C26.7527 7.99658 27.2427 7.35658 27.8627 6.89658C28.4927 6.42658 29.2177 6.19158 30.0377 6.19158C30.8577 6.19158 31.5777 6.42658 32.1977 6.89658C32.8277 7.35658 33.3227 7.99658 33.6827 8.81658C34.0427 9.62658 34.2227 10.5616 34.2227 11.6216C34.2227 12.6816 34.0427 13.6216 33.6827 14.4416C33.3327 15.2516 32.8427 15.8916 32.2127 16.3616C31.5827 16.8216 30.8577 17.0516 30.0377 17.0516ZM30.0377 15.7016C30.5677 15.7016 31.0377 15.5266 31.4477 15.1766C31.8677 14.8266 32.1927 14.3466 32.4227 13.7366C32.6527 13.1266 32.7677 12.4216 32.7677 11.6216C32.7677 10.8216 32.6527 10.1166 32.4227 9.50658C32.1927 8.88658 31.8677 8.40158 31.4477 8.05158C31.0377 7.70158 30.5677 7.52658 30.0377 7.52658C29.5077 7.52658 29.0377 7.70158 28.6277 8.05158C28.2177 8.40158 27.8977 8.88658 27.6677 9.50658C27.4377 10.1166 27.3227 10.8216 27.3227 11.6216C27.3227 12.4216 27.4377 13.1316 27.6677 13.7516C27.8977 14.3616 28.2177 14.8416 28.6277 15.1916C29.0377 15.5316 29.5077 15.7016 30.0377 15.7016ZM39.6763 17.0516C38.8663 17.0516 38.1463 16.8216 37.5163 16.3616C36.8863 15.8916 36.3913 15.2516 36.0313 14.4416C35.6813 13.6216 35.5063 12.6816 35.5063 11.6216C35.5063 10.5616 35.6813 9.62658 36.0313 8.81658C36.3913 7.99658 36.8813 7.35658 37.5013 6.89658C38.1313 6.42658 38.8563 6.19158 39.6763 6.19158C40.4963 6.19158 41.2163 6.42658 41.8363 6.89658C42.4663 7.35658 42.9613 7.99658 43.3213 8.81658C43.6813 9.62658 43.8613 10.5616 43.8613 11.6216C43.8613 12.6816 43.6813 13.6216 43.3213 14.4416C42.9713 15.2516 42.4813 15.8916 41.8513 16.3616C41.2213 16.8216 40.4963 17.0516 39.6763 17.0516ZM39.6763 15.7016C40.2063 15.7016 40.6763 15.5266 41.0863 15.1766C41.5063 14.8266 41.8313 14.3466 42.0613 13.7366C42.2913 13.1266 42.4063 12.4216 42.4063 11.6216C42.4063 10.8216 42.2913 10.1166 42.0613 9.50658C41.8313 8.88658 41.5063 8.40158 41.0863 8.05158C40.6763 7.70158 40.2063 7.52658 39.6763 7.52658C39.1463 7.52658 38.6763 7.70158 38.2663 8.05158C37.8563 8.40158 37.5363 8.88658 37.3063 9.50658C37.0763 10.1166 36.9613 10.8216 36.9613 11.6216C36.9613 12.4216 37.0763 13.1316 37.3063 13.7516C37.5363 14.3616 37.8563 14.8416 38.2663 15.1916C38.6763 15.5316 39.1463 15.7016 39.6763 15.7016ZM46.87 14.6066L45.985 13.6316L49.93 9.37158H51.67L46.87 14.6066ZM45.49 16.8716V6.37158H46.915V16.8716H45.49ZM50.245 16.8716L47.485 12.7616L48.415 11.7716L51.955 16.8716H50.245Z" fill="#808080"/>
<path d="M20.5988 79.0516C19.8188 79.0516 19.1438 78.9316 18.5738 78.6916C18.0038 78.4416 17.5588 78.1016 17.2388 77.6716C16.9288 77.2316 16.7738 76.7216 16.7738 76.1416C16.7738 75.5316 16.9288 74.9966 17.2388 74.5366C17.5588 74.0666 18.0038 73.7016 18.5738 73.4416C19.1438 73.1816 19.8188 73.0566 20.5988 73.0666C21.3888 73.0566 22.0688 73.1816 22.6388 73.4416C23.2088 73.7016 23.6488 74.0666 23.9588 74.5366C24.2788 74.9966 24.4388 75.5316 24.4388 76.1416C24.4388 76.7216 24.2788 77.2316 23.9588 77.6716C23.6488 78.1016 23.2088 78.4416 22.6388 78.6916C22.0688 78.9316 21.3888 79.0516 20.5988 79.0516ZM20.5988 77.7766C21.2888 77.7766 21.8488 77.6116 22.2788 77.2816C22.7188 76.9416 22.9388 76.5066 22.9388 75.9766C22.9388 75.4266 22.7188 74.9816 22.2788 74.6416C21.8488 74.3016 21.2888 74.1316 20.5988 74.1316C20.1488 74.1316 19.7488 74.2066 19.3988 74.3566C19.0488 74.5066 18.7738 74.7266 18.5738 75.0166C18.3838 75.2966 18.2888 75.6166 18.2888 75.9766C18.2888 76.3266 18.3838 76.6416 18.5738 76.9216C18.7738 77.1916 19.0488 77.4016 19.3988 77.5516C19.7488 77.7016 20.1488 77.7766 20.5988 77.7766ZM20.5988 73.8166C19.9088 73.8166 19.3038 73.7016 18.7838 73.4716C18.2638 73.2316 17.8588 72.9066 17.5688 72.4966C17.2888 72.0766 17.1488 71.5916 17.1488 71.0416C17.1488 70.4816 17.2888 69.9866 17.5688 69.5566C17.8588 69.1266 18.2638 68.7916 18.7838 68.5516C19.3038 68.3116 19.9088 68.1916 20.5988 68.1916C21.2988 68.1916 21.9088 68.3116 22.4288 68.5516C22.9488 68.7916 23.3488 69.1266 23.6288 69.5566C23.9188 69.9866 24.0638 70.4816 24.0638 71.0416C24.0638 71.5916 23.9188 72.0766 23.6288 72.4966C23.3488 72.9066 22.9488 73.2316 22.4288 73.4716C21.9088 73.7016 21.2988 73.8166 20.5988 73.8166ZM20.5988 72.8266C21.1888 72.8266 21.6688 72.6766 22.0388 72.3766C22.4188 72.0666 22.6088 71.6716 22.6088 71.1916C22.6088 70.6716 22.4188 70.2516 22.0388 69.9316C21.6688 69.6016 21.1888 69.4366 20.5988 69.4366C20.0188 69.4366 19.5438 69.6016 19.1738 69.9316C18.8038 70.2516 18.6188 70.6716 18.6188 71.1916C18.6188 71.6716 18.8038 72.0666 19.1738 72.3766C19.5438 72.6766 20.0188 72.8266 20.5988 72.8266ZM30.0377 79.0516C29.2277 79.0516 28.5077 78.8216 27.8777 78.3616C27.2477 77.8916 26.7527 77.2516 26.3927 76.4416C26.0427 75.6216 25.8677 74.6816 25.8677 73.6216C25.8677 72.5616 26.0427 71.6266 26.3927 70.8166C26.7527 69.9966 27.2427 69.3566 27.8627 68.8966C28.4927 68.4266 29.2177 68.1916 30.0377 68.1916C30.8577 68.1916 31.5777 68.4266 32.1977 68.8966C32.8277 69.3566 33.3227 69.9966 33.6827 70.8166C34.0427 71.6266 34.2227 72.5616 34.2227 73.6216C34.2227 74.6816 34.0427 75.6216 33.6827 76.4416C33.3327 77.2516 32.8427 77.8916 32.2127 78.3616C31.5827 78.8216 30.8577 79.0516 30.0377 79.0516ZM30.0377 77.7016C30.5677 77.7016 31.0377 77.5266 31.4477 77.1766C31.8677 76.8266 32.1927 76.3466 32.4227 75.7366C32.6527 75.1266 32.7677 74.4216 32.7677 73.6216C32.7677 72.8216 32.6527 72.1166 32.4227 71.5066C32.1927 70.8866 31.8677 70.4016 31.4477 70.0516C31.0377 69.7016 30.5677 69.5266 30.0377 69.5266C29.5077 69.5266 29.0377 69.7016 28.6277 70.0516C28.2177 70.4016 27.8977 70.8866 27.6677 71.5066C27.4377 72.1166 27.3227 72.8216 27.3227 73.6216C27.3227 74.4216 27.4377 75.1316 27.6677 75.7516C27.8977 76.3616 28.2177 76.8416 28.6277 77.1916C29.0377 77.5316 29.5077 77.7016 30.0377 77.7016ZM39.6763 79.0516C38.8663 79.0516 38.1463 78.8216 37.5163 78.3616C36.8863 77.8916 36.3913 77.2516 36.0313 76.4416C35.6813 75.6216 35.5063 74.6816 35.5063 73.6216C35.5063 72.5616 35.6813 71.6266 36.0313 70.8166C36.3913 69.9966 36.8813 69.3566 37.5013 68.8966C38.1313 68.4266 38.8563 68.1916 39.6763 68.1916C40.4963 68.1916 41.2163 68.4266 41.8363 68.8966C42.4663 69.3566 42.9613 69.9966 43.3213 70.8166C43.6813 71.6266 43.8613 72.5616 43.8613 73.6216C43.8613 74.6816 43.6813 75.6216 43.3213 76.4416C42.9713 77.2516 42.4813 77.8916 41.8513 78.3616C41.2213 78.8216 40.4963 79.0516 39.6763 79.0516ZM39.6763 77.7016C40.2063 77.7016 40.6763 77.5266 41.0863 77.1766C41.5063 76.8266 41.8313 76.3466 42.0613 75.7366C42.2913 75.1266 42.4063 74.4216 42.4063 73.6216C42.4063 72.8216 42.2913 72.1166 42.0613 71.5066C41.8313 70.8866 41.5063 70.4016 41.0863 70.0516C40.6763 69.7016 40.2063 69.5266 39.6763 69.5266C39.1463 69.5266 38.6763 69.7016 38.2663 70.0516C37.8563 70.4016 37.5363 70.8866 37.3063 71.5066C37.0763 72.1166 36.9613 72.8216 36.9613 73.6216C36.9613 74.4216 37.0763 75.1316 37.3063 75.7516C37.5363 76.3616 37.8563 76.8416 38.2663 77.1916C38.6763 77.5316 39.1463 77.7016 39.6763 77.7016ZM46.87 76.6066L45.985 75.6316L49.93 71.3716H51.67L46.87 76.6066ZM45.49 78.8716V68.3716H46.915V78.8716H45.49ZM50.245 78.8716L47.485 74.7616L48.415 73.7716L51.955 78.8716H50.245Z" fill="#808080"/>
<path d="M21.1526 141.052C20.4326 141.052 19.8276 140.917 19.3376 140.647C18.8476 140.377 18.4526 140.012 18.1526 139.552C17.8626 139.082 17.6526 138.542 17.5226 137.932C17.3926 137.322 17.3276 136.672 17.3276 135.982C17.3276 135.112 17.4176 134.322 17.5976 133.612C17.7776 132.902 18.0426 132.292 18.3926 131.782C18.7426 131.272 19.1726 130.882 19.6826 130.612C20.1926 130.332 20.7776 130.192 21.4376 130.192C21.9676 130.192 22.4926 130.277 23.0126 130.447C23.5326 130.607 23.9976 130.832 24.4076 131.122L23.6126 132.187C23.2926 131.967 22.9476 131.802 22.5776 131.692C22.2076 131.572 21.8626 131.512 21.5426 131.512C20.5926 131.512 19.8626 131.917 19.3526 132.727C18.8426 133.527 18.6126 134.762 18.6626 136.432L18.3626 136.177C18.6026 135.587 18.9776 135.117 19.4876 134.767C20.0076 134.407 20.6176 134.227 21.3176 134.227C21.9976 134.227 22.5976 134.377 23.1176 134.677C23.6376 134.977 24.0426 135.387 24.3326 135.907C24.6226 136.417 24.7676 137.007 24.7676 137.677C24.7676 138.327 24.6176 138.907 24.3176 139.417C24.0176 139.927 23.5926 140.327 23.0426 140.617C22.5026 140.907 21.8726 141.052 21.1526 141.052ZM21.1676 139.762C21.5776 139.762 21.9426 139.672 22.2626 139.492C22.5826 139.312 22.8326 139.062 23.0126 138.742C23.2026 138.412 23.2976 138.042 23.2976 137.632C23.2976 137.212 23.2026 136.842 23.0126 136.522C22.8326 136.192 22.5826 135.937 22.2626 135.757C21.9426 135.577 21.5776 135.487 21.1676 135.487C20.7476 135.487 20.3726 135.577 20.0426 135.757C19.7226 135.937 19.4676 136.192 19.2776 136.522C19.0976 136.842 19.0076 137.212 19.0076 137.632C19.0076 138.042 19.0976 138.412 19.2776 138.742C19.4676 139.062 19.7226 139.312 20.0426 139.492C20.3726 139.672 20.7476 139.762 21.1676 139.762ZM30.0377 141.052C29.2277 141.052 28.5077 140.822 27.8777 140.362C27.2477 139.892 26.7527 139.252 26.3927 138.442C26.0427 137.622 25.8677 136.682 25.8677 135.622C25.8677 134.562 26.0427 133.627 26.3927 132.817C26.7527 131.997 27.2427 131.357 27.8627 130.897C28.4927 130.427 29.2177 130.192 30.0377 130.192C30.8577 130.192 31.5777 130.427 32.1977 130.897C32.8277 131.357 33.3227 131.997 33.6827 132.817C34.0427 133.627 34.2227 134.562 34.2227 135.622C34.2227 136.682 34.0427 137.622 33.6827 138.442C33.3327 139.252 32.8427 139.892 32.2127 140.362C31.5827 140.822 30.8577 141.052 30.0377 141.052ZM30.0377 139.702C30.5677 139.702 31.0377 139.527 31.4477 139.177C31.8677 138.827 32.1927 138.347 32.4227 137.737C32.6527 137.127 32.7677 136.422 32.7677 135.622C32.7677 134.822 32.6527 134.117 32.4227 133.507C32.1927 132.887 31.8677 132.402 31.4477 132.052C31.0377 131.702 30.5677 131.527 30.0377 131.527C29.5077 131.527 29.0377 131.702 28.6277 132.052C28.2177 132.402 27.8977 132.887 27.6677 133.507C27.4377 134.117 27.3227 134.822 27.3227 135.622C27.3227 136.422 27.4377 137.132 27.6677 137.752C27.8977 138.362 28.2177 138.842 28.6277 139.192C29.0377 139.532 29.5077 139.702 30.0377 139.702ZM39.6763 141.052C38.8663 141.052 38.1463 140.822 37.5163 140.362C36.8863 139.892 36.3913 139.252 36.0313 138.442C35.6813 137.622 35.5063 136.682 35.5063 135.622C35.5063 134.562 35.6813 133.627 36.0313 132.817C36.3913 131.997 36.8813 131.357 37.5013 130.897C38.1313 130.427 38.8563 130.192 39.6763 130.192C40.4963 130.192 41.2163 130.427 41.8363 130.897C42.4663 131.357 42.9613 131.997 43.3213 132.817C43.6813 133.627 43.8613 134.562 43.8613 135.622C43.8613 136.682 43.6813 137.622 43.3213 138.442C42.9713 139.252 42.4813 139.892 41.8513 140.362C41.2213 140.822 40.4963 141.052 39.6763 141.052ZM39.6763 139.702C40.2063 139.702 40.6763 139.527 41.0863 139.177C41.5063 138.827 41.8313 138.347 42.0613 137.737C42.2913 137.127 42.4063 136.422 42.4063 135.622C42.4063 134.822 42.2913 134.117 42.0613 133.507C41.8313 132.887 41.5063 132.402 41.0863 132.052C40.6763 131.702 40.2063 131.527 39.6763 131.527C39.1463 131.527 38.6763 131.702 38.2663 132.052C37.8563 132.402 37.5363 132.887 37.3063 133.507C37.0763 134.117 36.9613 134.822 36.9613 135.622C36.9613 136.422 37.0763 137.132 37.3063 137.752C37.5363 138.362 37.8563 138.842 38.2663 139.192C38.6763 139.532 39.1463 139.702 39.6763 139.702ZM46.87 138.607L45.985 137.632L49.93 133.372H51.67L46.87 138.607ZM45.49 140.872V130.372H46.915V140.872H45.49ZM50.245 140.872L47.485 136.762L48.415 135.772L51.955 140.872H50.245Z" fill="#808080"/>
<path d="M17.5273 199.947L16.4473 199.302L21.1873 192.372L22.1173 193.212L17.5273 199.947ZM16.4473 200.457V199.302L17.3473 199.152H24.7723V200.457H16.4473ZM21.2923 202.872V193.272L21.1873 192.372H22.7173V202.872H21.2923ZM30.0377 203.052C29.2277 203.052 28.5077 202.822 27.8777 202.362C27.2477 201.892 26.7527 201.252 26.3927 200.442C26.0427 199.622 25.8677 198.682 25.8677 197.622C25.8677 196.562 26.0427 195.627 26.3927 194.817C26.7527 193.997 27.2427 193.357 27.8627 192.897C28.4927 192.427 29.2177 192.192 30.0377 192.192C30.8577 192.192 31.5777 192.427 32.1977 192.897C32.8277 193.357 33.3227 193.997 33.6827 194.817C34.0427 195.627 34.2227 196.562 34.2227 197.622C34.2227 198.682 34.0427 199.622 33.6827 200.442C33.3327 201.252 32.8427 201.892 32.2127 202.362C31.5827 202.822 30.8577 203.052 30.0377 203.052ZM30.0377 201.702C30.5677 201.702 31.0377 201.527 31.4477 201.177C31.8677 200.827 32.1927 200.347 32.4227 199.737C32.6527 199.127 32.7677 198.422 32.7677 197.622C32.7677 196.822 32.6527 196.117 32.4227 195.507C32.1927 194.887 31.8677 194.402 31.4477 194.052C31.0377 193.702 30.5677 193.527 30.0377 193.527C29.5077 193.527 29.0377 193.702 28.6277 194.052C28.2177 194.402 27.8977 194.887 27.6677 195.507C27.4377 196.117 27.3227 196.822 27.3227 197.622C27.3227 198.422 27.4377 199.132 27.6677 199.752C27.8977 200.362 28.2177 200.842 28.6277 201.192C29.0377 201.532 29.5077 201.702 30.0377 201.702ZM39.6763 203.052C38.8663 203.052 38.1463 202.822 37.5163 202.362C36.8863 201.892 36.3913 201.252 36.0313 200.442C35.6813 199.622 35.5063 198.682 35.5063 197.622C35.5063 196.562 35.6813 195.627 36.0313 194.817C36.3913 193.997 36.8813 193.357 37.5013 192.897C38.1313 192.427 38.8563 192.192 39.6763 192.192C40.4963 192.192 41.2163 192.427 41.8363 192.897C42.4663 193.357 42.9613 193.997 43.3213 194.817C43.6813 195.627 43.8613 196.562 43.8613 197.622C43.8613 198.682 43.6813 199.622 43.3213 200.442C42.9713 201.252 42.4813 201.892 41.8513 202.362C41.2213 202.822 40.4963 203.052 39.6763 203.052ZM39.6763 201.702C40.2063 201.702 40.6763 201.527 41.0863 201.177C41.5063 200.827 41.8313 200.347 42.0613 199.737C42.2913 199.127 42.4063 198.422 42.4063 197.622C42.4063 196.822 42.2913 196.117 42.0613 195.507C41.8313 194.887 41.5063 194.402 41.0863 194.052C40.6763 193.702 40.2063 193.527 39.6763 193.527C39.1463 193.527 38.6763 193.702 38.2663 194.052C37.8563 194.402 37.5363 194.887 37.3063 195.507C37.0763 196.117 36.9613 196.822 36.9613 197.622C36.9613 198.422 37.0763 199.132 37.3063 199.752C37.5363 200.362 37.8563 200.842 38.2663 201.192C38.6763 201.532 39.1463 201.702 39.6763 201.702ZM46.87 200.607L45.985 199.632L49.93 195.372H51.67L46.87 200.607ZM45.49 202.872V192.372H46.915V202.872H45.49ZM50.245 202.872L47.485 198.762L48.415 197.772L51.955 202.872H50.245Z" fill="#808080"/>
<path d="M19.8742 263.76V262.85C22.5342 260.708 25.0542 258.692 25.0542 256.62C25.0542 255.5 24.5642 254.66 23.1922 254.66C21.8762 254.66 21.2042 255.57 21.1482 256.844H19.9162C20.0002 254.688 21.3582 253.568 23.1782 253.568C25.0822 253.568 26.3142 254.688 26.3142 256.564C26.3142 259.084 23.5982 261.226 21.7922 262.696H26.6082V263.76H19.8742ZM28.0809 258.706C28.0809 255.808 28.8089 253.596 31.6089 253.596C34.3949 253.596 35.1229 255.808 35.1229 258.706C35.1229 261.646 34.3949 263.872 31.6089 263.872C28.8089 263.872 28.0809 261.646 28.0809 258.706ZM33.8629 258.706C33.8629 256.606 33.5969 254.758 31.6089 254.758C29.6069 254.758 29.3409 256.606 29.3409 258.706C29.3409 260.89 29.6069 262.71 31.6089 262.71C33.5969 262.71 33.8629 260.89 33.8629 258.706ZM36.8719 258.706C36.8719 255.808 37.5999 253.596 40.3999 253.596C43.1859 253.596 43.9139 255.808 43.9139 258.706C43.9139 261.646 43.1859 263.872 40.3999 263.872C37.5999 263.872 36.8719 261.646 36.8719 258.706ZM42.6539 258.706C42.6539 256.606 42.3879 254.758 40.3999 254.758C38.3979 254.758 38.1319 256.606 38.1319 258.706C38.1319 260.89 38.3979 262.71 40.3999 262.71C42.3879 262.71 42.6539 260.89 42.6539 258.706ZM45.873 263.872V253.512H47.147V259.602L50.101 256.2H51.879L48.267 260.022L51.893 263.872H50.157L47.147 260.484V263.872H45.873Z" fill="#808080"/>
<line x1="72" y1="263.5" x2="498" y2="263.5" stroke="#909294" stroke-opacity="0.24"/>
<line x1="72" y1="201.5" x2="498" y2="201.5" stroke="#909294" stroke-opacity="0.24"/>
<line x1="72" y1="139.5" x2="498" y2="139.5" stroke="#909294" stroke-opacity="0.24"/>
<line x1="72" y1="77.5" x2="498" y2="77.5" stroke="#909294" stroke-opacity="0.24"/>
<line x1="72" y1="15.5" x2="498" y2="15.5" stroke="#909294" stroke-opacity="0.24"/>
<rect x="72" y="30.8716" width="25" height="234" rx="6" fill="#5655D7"/>
<rect x="102" y="87.8716" width="25" height="177" rx="6" fill="#5655D7"/>
<rect x="102" y="87.8716" width="25" height="177" rx="6" fill="white" fill-opacity="0.8"/>
<path d="M91.561 295.028C91.249 295.028 90.9587 294.98 90.69 294.885C90.43 294.798 90.196 294.681 89.988 294.534C89.78 294.378 89.6023 294.204 89.455 294.014C89.3077 293.814 89.1863 293.611 89.091 293.403L89.923 292.922C90.105 293.242 90.326 293.507 90.586 293.715C90.8547 293.923 91.184 294.027 91.574 294.027C91.886 294.027 92.1893 293.953 92.484 293.806C92.7873 293.658 93.0343 293.411 93.225 293.065C93.4157 292.718 93.511 292.263 93.511 291.7V285.772H94.603V292.129C94.603 292.605 94.5163 293.026 94.343 293.39C94.1783 293.754 93.9487 294.057 93.654 294.3C93.368 294.542 93.043 294.724 92.679 294.846C92.315 294.967 91.9423 295.028 91.561 295.028ZM100.604 294.872L100.539 293.806V291.44C100.539 290.928 100.479 290.508 100.357 290.179C100.245 289.841 100.067 289.589 99.8244 289.425C99.5904 289.251 99.2784 289.165 98.8884 289.165C98.5158 289.165 98.1908 289.238 97.9134 289.386C97.6448 289.533 97.4238 289.763 97.2504 290.075L96.3144 289.698C96.4878 289.394 96.6958 289.13 96.9384 288.905C97.1811 288.679 97.4628 288.51 97.7834 288.398C98.1128 288.276 98.4854 288.216 98.9014 288.216C99.4994 288.216 99.9978 288.333 100.396 288.567C100.795 288.801 101.094 289.152 101.293 289.62C101.493 290.079 101.588 290.655 101.579 291.349L101.566 294.872H100.604ZM98.6544 295.028C97.8918 295.028 97.2938 294.854 96.8604 294.508C96.4358 294.152 96.2234 293.663 96.2234 293.039C96.2234 292.38 96.4401 291.877 96.8734 291.531C97.3154 291.175 97.9308 290.998 98.7194 290.998H100.578V291.869H98.9534C98.3468 291.869 97.9134 291.968 97.6534 292.168C97.4021 292.367 97.2764 292.653 97.2764 293.026C97.2764 293.364 97.4021 293.632 97.6534 293.832C97.9048 294.022 98.2558 294.118 98.7064 294.118C99.0791 294.118 99.4041 294.031 99.6814 293.858C99.9588 293.684 100.171 293.45 100.318 293.156C100.466 292.852 100.539 292.51 100.539 292.129H101.176C101.176 293.013 100.96 293.719 100.526 294.248C100.093 294.768 99.4691 295.028 98.6544 295.028ZM103.227 294.872V288.372H104.202L104.267 289.568V294.872H103.227ZM107.79 294.872V291.544L108.83 291.154V294.872H107.79ZM107.79 291.544C107.79 290.902 107.717 290.413 107.569 290.075C107.422 289.737 107.218 289.507 106.958 289.386C106.698 289.256 106.404 289.191 106.074 289.191C105.502 289.191 105.056 289.394 104.735 289.802C104.423 290.2 104.267 290.768 104.267 291.505H103.76C103.76 290.82 103.86 290.231 104.059 289.737C104.259 289.243 104.545 288.866 104.917 288.606C105.299 288.346 105.758 288.216 106.295 288.216C107.084 288.216 107.704 288.458 108.154 288.944C108.614 289.429 108.839 290.166 108.83 291.154L107.79 291.544Z" fill="#465762"/>
<path d="M91.561 295.028C91.249 295.028 90.9587 294.98 90.69 294.885C90.43 294.798 90.196 294.681 89.988 294.534C89.78 294.378 89.6023 294.204 89.455 294.014C89.3077 293.814 89.1863 293.611 89.091 293.403L89.923 292.922C90.105 293.242 90.326 293.507 90.586 293.715C90.8547 293.923 91.184 294.027 91.574 294.027C91.886 294.027 92.1893 293.953 92.484 293.806C92.7873 293.658 93.0343 293.411 93.225 293.065C93.4157 292.718 93.511 292.263 93.511 291.7V285.772H94.603V292.129C94.603 292.605 94.5163 293.026 94.343 293.39C94.1783 293.754 93.9487 294.057 93.654 294.3C93.368 294.542 93.043 294.724 92.679 294.846C92.315 294.967 91.9423 295.028 91.561 295.028ZM100.604 294.872L100.539 293.806V291.44C100.539 290.928 100.479 290.508 100.357 290.179C100.245 289.841 100.067 289.589 99.8244 289.425C99.5904 289.251 99.2784 289.165 98.8884 289.165C98.5158 289.165 98.1908 289.238 97.9134 289.386C97.6448 289.533 97.4238 289.763 97.2504 290.075L96.3144 289.698C96.4878 289.394 96.6958 289.13 96.9384 288.905C97.1811 288.679 97.4628 288.51 97.7834 288.398C98.1128 288.276 98.4854 288.216 98.9014 288.216C99.4994 288.216 99.9978 288.333 100.396 288.567C100.795 288.801 101.094 289.152 101.293 289.62C101.493 290.079 101.588 290.655 101.579 291.349L101.566 294.872H100.604ZM98.6544 295.028C97.8918 295.028 97.2938 294.854 96.8604 294.508C96.4358 294.152 96.2234 293.663 96.2234 293.039C96.2234 292.38 96.4401 291.877 96.8734 291.531C97.3154 291.175 97.9308 290.998 98.7194 290.998H100.578V291.869H98.9534C98.3468 291.869 97.9134 291.968 97.6534 292.168C97.4021 292.367 97.2764 292.653 97.2764 293.026C97.2764 293.364 97.4021 293.632 97.6534 293.832C97.9048 294.022 98.2558 294.118 98.7064 294.118C99.0791 294.118 99.4041 294.031 99.6814 293.858C99.9588 293.684 100.171 293.45 100.318 293.156C100.466 292.852 100.539 292.51 100.539 292.129H101.176C101.176 293.013 100.96 293.719 100.526 294.248C100.093 294.768 99.4691 295.028 98.6544 295.028ZM103.227 294.872V288.372H104.202L104.267 289.568V294.872H103.227ZM107.79 294.872V291.544L108.83 291.154V294.872H107.79ZM107.79 291.544C107.79 290.902 107.717 290.413 107.569 290.075C107.422 289.737 107.218 289.507 106.958 289.386C106.698 289.256 106.404 289.191 106.074 289.191C105.502 289.191 105.056 289.394 104.735 289.802C104.423 290.2 104.267 290.768 104.267 291.505H103.76C103.76 290.82 103.86 290.231 104.059 289.737C104.259 289.243 104.545 288.866 104.917 288.606C105.299 288.346 105.758 288.216 106.295 288.216C107.084 288.216 107.704 288.458 108.154 288.944C108.614 289.429 108.839 290.166 108.83 291.154L107.79 291.544Z" fill="white" fill-opacity="0.4"/>
<rect x="146.2" y="73.8716" width="25" height="191" rx="6" fill="#5655D7"/>
<rect x="176.2" y="145.872" width="25" height="119" rx="6" fill="#5655D7"/>
<rect x="176.2" y="145.872" width="25" height="119" rx="6" fill="white" fill-opacity="0.8"/>
<path d="M163.909 294.872V285.772H165.014V294.872H163.909ZM164.91 290.881V289.88H168.81V290.881H164.91ZM164.91 286.773V285.772H169.317V286.773H164.91ZM173.439 295.028C172.807 295.028 172.248 294.885 171.762 294.599C171.277 294.304 170.896 293.901 170.618 293.39C170.35 292.878 170.215 292.289 170.215 291.622C170.215 290.954 170.35 290.365 170.618 289.854C170.896 289.342 171.273 288.944 171.749 288.658C172.235 288.363 172.789 288.216 173.413 288.216C174.011 288.216 174.531 288.367 174.973 288.671C175.424 288.965 175.771 289.381 176.013 289.919C176.256 290.456 176.377 291.089 176.377 291.817H175.337C175.337 291.262 175.264 290.79 175.116 290.4C174.969 290.001 174.748 289.693 174.453 289.477C174.167 289.26 173.816 289.152 173.4 289.152C172.976 289.152 172.599 289.256 172.269 289.464C171.949 289.663 171.702 289.949 171.528 290.322C171.355 290.694 171.268 291.132 171.268 291.635C171.268 292.129 171.364 292.558 171.554 292.922C171.745 293.277 172.009 293.559 172.347 293.767C172.685 293.966 173.067 294.066 173.491 294.066C173.942 294.066 174.323 293.957 174.635 293.741C174.947 293.524 175.194 293.242 175.376 292.896L176.286 293.351C176.122 293.689 175.901 293.983 175.623 294.235C175.355 294.486 175.034 294.681 174.661 294.82C174.297 294.958 173.89 295.028 173.439 295.028ZM170.904 291.817L170.917 290.92H175.74V291.817H170.904ZM177.689 294.872V285.772H178.729V293.663L178.677 294.872H177.689ZM180.926 295.028C180.38 295.028 179.899 294.885 179.483 294.599C179.076 294.313 178.759 293.914 178.534 293.403C178.309 292.883 178.196 292.289 178.196 291.622C178.196 290.946 178.309 290.352 178.534 289.841C178.759 289.329 179.076 288.931 179.483 288.645C179.899 288.359 180.38 288.216 180.926 288.216C181.507 288.216 182.018 288.359 182.46 288.645C182.902 288.931 183.244 289.329 183.487 289.841C183.738 290.352 183.864 290.946 183.864 291.622C183.864 292.289 183.738 292.883 183.487 293.403C183.244 293.914 182.902 294.313 182.46 294.599C182.018 294.885 181.507 295.028 180.926 295.028ZM180.692 294.079C181.099 294.079 181.459 293.975 181.771 293.767C182.092 293.559 182.343 293.268 182.525 292.896C182.716 292.523 182.811 292.098 182.811 291.622C182.811 291.145 182.72 290.72 182.538 290.348C182.365 289.975 182.118 289.685 181.797 289.477C181.476 289.269 181.112 289.165 180.705 289.165C180.324 289.165 179.981 289.269 179.678 289.477C179.383 289.685 179.149 289.975 178.976 290.348C178.811 290.72 178.729 291.145 178.729 291.622C178.729 292.098 178.811 292.523 178.976 292.896C179.149 293.268 179.383 293.559 179.678 293.767C179.973 293.975 180.311 294.079 180.692 294.079Z" fill="#465762"/>
<path d="M163.909 294.872V285.772H165.014V294.872H163.909ZM164.91 290.881V289.88H168.81V290.881H164.91ZM164.91 286.773V285.772H169.317V286.773H164.91ZM173.439 295.028C172.807 295.028 172.248 294.885 171.762 294.599C171.277 294.304 170.896 293.901 170.618 293.39C170.35 292.878 170.215 292.289 170.215 291.622C170.215 290.954 170.35 290.365 170.618 289.854C170.896 289.342 171.273 288.944 171.749 288.658C172.235 288.363 172.789 288.216 173.413 288.216C174.011 288.216 174.531 288.367 174.973 288.671C175.424 288.965 175.771 289.381 176.013 289.919C176.256 290.456 176.377 291.089 176.377 291.817H175.337C175.337 291.262 175.264 290.79 175.116 290.4C174.969 290.001 174.748 289.693 174.453 289.477C174.167 289.26 173.816 289.152 173.4 289.152C172.976 289.152 172.599 289.256 172.269 289.464C171.949 289.663 171.702 289.949 171.528 290.322C171.355 290.694 171.268 291.132 171.268 291.635C171.268 292.129 171.364 292.558 171.554 292.922C171.745 293.277 172.009 293.559 172.347 293.767C172.685 293.966 173.067 294.066 173.491 294.066C173.942 294.066 174.323 293.957 174.635 293.741C174.947 293.524 175.194 293.242 175.376 292.896L176.286 293.351C176.122 293.689 175.901 293.983 175.623 294.235C175.355 294.486 175.034 294.681 174.661 294.82C174.297 294.958 173.89 295.028 173.439 295.028ZM170.904 291.817L170.917 290.92H175.74V291.817H170.904ZM177.689 294.872V285.772H178.729V293.663L178.677 294.872H177.689ZM180.926 295.028C180.38 295.028 179.899 294.885 179.483 294.599C179.076 294.313 178.759 293.914 178.534 293.403C178.309 292.883 178.196 292.289 178.196 291.622C178.196 290.946 178.309 290.352 178.534 289.841C178.759 289.329 179.076 288.931 179.483 288.645C179.899 288.359 180.38 288.216 180.926 288.216C181.507 288.216 182.018 288.359 182.46 288.645C182.902 288.931 183.244 289.329 183.487 289.841C183.738 290.352 183.864 290.946 183.864 291.622C183.864 292.289 183.738 292.883 183.487 293.403C183.244 293.914 182.902 294.313 182.46 294.599C182.018 294.885 181.507 295.028 180.926 295.028ZM180.692 294.079C181.099 294.079 181.459 293.975 181.771 293.767C182.092 293.559 182.343 293.268 182.525 292.896C182.716 292.523 182.811 292.098 182.811 291.622C182.811 291.145 182.72 290.72 182.538 290.348C182.365 289.975 182.118 289.685 181.797 289.477C181.476 289.269 181.112 289.165 180.705 289.165C180.324 289.165 179.981 289.269 179.678 289.477C179.383 289.685 179.149 289.975 178.976 290.348C178.811 290.72 178.729 291.145 178.729 291.622C178.729 292.098 178.811 292.523 178.976 292.896C179.149 293.268 179.383 293.559 179.678 293.767C179.973 293.975 180.311 294.079 180.692 294.079Z" fill="white" fill-opacity="0.4"/>
<rect x="220.4" y="94.8716" width="25" height="170" rx="6" fill="#5655D7"/>
<rect x="250.4" y="79.8716" width="25" height="185" rx="6" fill="#5655D7"/>
<rect x="250.4" y="79.8716" width="25" height="185" rx="6" fill="white" fill-opacity="0.8"/>
<path d="M241.899 292.285L237.791 286.214L238.233 285.98L238.753 285.772L242.432 291.219L241.899 292.285ZM237.609 294.872V285.772H238.714V294.872H237.609ZM241.899 292.285L241.366 291.219L245.045 285.772L245.565 285.98L245.994 286.201L241.899 292.285ZM245.084 294.872V285.772H246.176V294.872H245.084ZM252.308 294.872L252.243 293.806V291.44C252.243 290.928 252.182 290.508 252.061 290.179C251.948 289.841 251.771 289.589 251.528 289.425C251.294 289.251 250.982 289.165 250.592 289.165C250.219 289.165 249.894 289.238 249.617 289.386C249.348 289.533 249.127 289.763 248.954 290.075L248.018 289.698C248.191 289.394 248.399 289.13 248.642 288.905C248.885 288.679 249.166 288.51 249.487 288.398C249.816 288.276 250.189 288.216 250.605 288.216C251.203 288.216 251.701 288.333 252.1 288.567C252.499 288.801 252.798 289.152 252.997 289.62C253.196 290.079 253.292 290.655 253.283 291.349L253.27 294.872H252.308ZM250.358 295.028C249.595 295.028 248.997 294.854 248.564 294.508C248.139 294.152 247.927 293.663 247.927 293.039C247.927 292.38 248.144 291.877 248.577 291.531C249.019 291.175 249.634 290.998 250.423 290.998H252.282V291.869H250.657C250.05 291.869 249.617 291.968 249.357 292.168C249.106 292.367 248.98 292.653 248.98 293.026C248.98 293.364 249.106 293.632 249.357 293.832C249.608 294.022 249.959 294.118 250.41 294.118C250.783 294.118 251.108 294.031 251.385 293.858C251.662 293.684 251.875 293.45 252.022 293.156C252.169 292.852 252.243 292.51 252.243 292.129H252.88C252.88 293.013 252.663 293.719 252.23 294.248C251.797 294.768 251.173 295.028 250.358 295.028ZM255.503 291.349C255.503 290.647 255.637 290.079 255.906 289.646C256.175 289.204 256.517 288.879 256.933 288.671C257.358 288.454 257.804 288.346 258.272 288.346V289.321C257.891 289.321 257.522 289.386 257.167 289.516C256.82 289.637 256.534 289.841 256.309 290.127C256.084 290.413 255.971 290.803 255.971 291.297L255.503 291.349ZM254.931 294.872V288.372H255.971V294.872H254.931Z" fill="#465762"/>
<path d="M241.899 292.285L237.791 286.214L238.233 285.98L238.753 285.772L242.432 291.219L241.899 292.285ZM237.609 294.872V285.772H238.714V294.872H237.609ZM241.899 292.285L241.366 291.219L245.045 285.772L245.565 285.98L245.994 286.201L241.899 292.285ZM245.084 294.872V285.772H246.176V294.872H245.084ZM252.308 294.872L252.243 293.806V291.44C252.243 290.928 252.182 290.508 252.061 290.179C251.948 289.841 251.771 289.589 251.528 289.425C251.294 289.251 250.982 289.165 250.592 289.165C250.219 289.165 249.894 289.238 249.617 289.386C249.348 289.533 249.127 289.763 248.954 290.075L248.018 289.698C248.191 289.394 248.399 289.13 248.642 288.905C248.885 288.679 249.166 288.51 249.487 288.398C249.816 288.276 250.189 288.216 250.605 288.216C251.203 288.216 251.701 288.333 252.1 288.567C252.499 288.801 252.798 289.152 252.997 289.62C253.196 290.079 253.292 290.655 253.283 291.349L253.27 294.872H252.308ZM250.358 295.028C249.595 295.028 248.997 294.854 248.564 294.508C248.139 294.152 247.927 293.663 247.927 293.039C247.927 292.38 248.144 291.877 248.577 291.531C249.019 291.175 249.634 290.998 250.423 290.998H252.282V291.869H250.657C250.05 291.869 249.617 291.968 249.357 292.168C249.106 292.367 248.98 292.653 248.98 293.026C248.98 293.364 249.106 293.632 249.357 293.832C249.608 294.022 249.959 294.118 250.41 294.118C250.783 294.118 251.108 294.031 251.385 293.858C251.662 293.684 251.875 293.45 252.022 293.156C252.169 292.852 252.243 292.51 252.243 292.129H252.88C252.88 293.013 252.663 293.719 252.23 294.248C251.797 294.768 251.173 295.028 250.358 295.028ZM255.503 291.349C255.503 290.647 255.637 290.079 255.906 289.646C256.175 289.204 256.517 288.879 256.933 288.671C257.358 288.454 257.804 288.346 258.272 288.346V289.321C257.891 289.321 257.522 289.386 257.167 289.516C256.82 289.637 256.534 289.841 256.309 290.127C256.084 290.413 255.971 290.803 255.971 291.297L255.503 291.349ZM254.931 294.872V288.372H255.971V294.872H254.931Z" fill="white" fill-opacity="0.4"/>
<rect x="294.6" y="125.872" width="25" height="139" rx="6" fill="#5655D7"/>
<rect x="324.6" y="98.8716" width="25" height="166" rx="6" fill="#5655D7"/>
<rect x="324.6" y="98.8716" width="25" height="166" rx="6" fill="white" fill-opacity="0.8"/>
<path d="M319.114 294.872L315.461 285.772H316.566L320.271 294.872H319.114ZM311.717 294.872L315.422 285.772H316.54L312.887 294.872H311.717ZM313.472 292.285V291.297H318.529V292.285H313.472ZM321.373 297.472V288.372H322.348L322.413 289.568V297.472H321.373ZM324.61 295.028C324.064 295.028 323.583 294.885 323.167 294.599C322.76 294.313 322.443 293.914 322.218 293.403C321.993 292.883 321.88 292.289 321.88 291.622C321.88 290.946 321.993 290.352 322.218 289.841C322.443 289.329 322.76 288.931 323.167 288.645C323.583 288.359 324.064 288.216 324.61 288.216C325.191 288.216 325.702 288.359 326.144 288.645C326.586 288.931 326.928 289.329 327.171 289.841C327.422 290.352 327.548 290.946 327.548 291.622C327.548 292.289 327.422 292.883 327.171 293.403C326.928 293.914 326.586 294.313 326.144 294.599C325.702 294.885 325.191 295.028 324.61 295.028ZM324.376 294.079C324.783 294.079 325.143 293.975 325.455 293.767C325.776 293.559 326.027 293.268 326.209 292.896C326.4 292.523 326.495 292.098 326.495 291.622C326.495 291.145 326.404 290.72 326.222 290.348C326.049 289.975 325.802 289.685 325.481 289.477C325.16 289.269 324.796 289.165 324.389 289.165C324.008 289.165 323.665 289.269 323.362 289.477C323.067 289.685 322.833 289.975 322.66 290.348C322.495 290.72 322.413 291.145 322.413 291.622C322.413 292.098 322.495 292.523 322.66 292.896C322.833 293.268 323.067 293.559 323.362 293.767C323.657 293.975 323.995 294.079 324.376 294.079ZM329.561 291.349C329.561 290.647 329.695 290.079 329.964 289.646C330.232 289.204 330.575 288.879 330.991 288.671C331.415 288.454 331.862 288.346 332.33 288.346V289.321C331.948 289.321 331.58 289.386 331.225 289.516C330.878 289.637 330.592 289.841 330.367 290.127C330.141 290.413 330.029 290.803 330.029 291.297L329.561 291.349ZM328.989 294.872V288.372H330.029V294.872H328.989Z" fill="#465762"/>
<path d="M319.114 294.872L315.461 285.772H316.566L320.271 294.872H319.114ZM311.717 294.872L315.422 285.772H316.54L312.887 294.872H311.717ZM313.472 292.285V291.297H318.529V292.285H313.472ZM321.373 297.472V288.372H322.348L322.413 289.568V297.472H321.373ZM324.61 295.028C324.064 295.028 323.583 294.885 323.167 294.599C322.76 294.313 322.443 293.914 322.218 293.403C321.993 292.883 321.88 292.289 321.88 291.622C321.88 290.946 321.993 290.352 322.218 289.841C322.443 289.329 322.76 288.931 323.167 288.645C323.583 288.359 324.064 288.216 324.61 288.216C325.191 288.216 325.702 288.359 326.144 288.645C326.586 288.931 326.928 289.329 327.171 289.841C327.422 290.352 327.548 290.946 327.548 291.622C327.548 292.289 327.422 292.883 327.171 293.403C326.928 293.914 326.586 294.313 326.144 294.599C325.702 294.885 325.191 295.028 324.61 295.028ZM324.376 294.079C324.783 294.079 325.143 293.975 325.455 293.767C325.776 293.559 326.027 293.268 326.209 292.896C326.4 292.523 326.495 292.098 326.495 291.622C326.495 291.145 326.404 290.72 326.222 290.348C326.049 289.975 325.802 289.685 325.481 289.477C325.16 289.269 324.796 289.165 324.389 289.165C324.008 289.165 323.665 289.269 323.362 289.477C323.067 289.685 322.833 289.975 322.66 290.348C322.495 290.72 322.413 291.145 322.413 291.622C322.413 292.098 322.495 292.523 322.66 292.896C322.833 293.268 323.067 293.559 323.362 293.767C323.657 293.975 323.995 294.079 324.376 294.079ZM329.561 291.349C329.561 290.647 329.695 290.079 329.964 289.646C330.232 289.204 330.575 288.879 330.991 288.671C331.415 288.454 331.862 288.346 332.33 288.346V289.321C331.948 289.321 331.58 289.386 331.225 289.516C330.878 289.637 330.592 289.841 330.367 290.127C330.141 290.413 330.029 290.803 330.029 291.297L329.561 291.349ZM328.989 294.872V288.372H330.029V294.872H328.989Z" fill="white" fill-opacity="0.4"/>
<rect x="368.8" y="140.872" width="25" height="124" rx="6" fill="#5655D7"/>
<rect x="398.8" y="116.872" width="25" height="148" rx="6" fill="#5655D7"/>
<rect x="398.8" y="116.872" width="25" height="148" rx="6" fill="white" fill-opacity="0.8"/>
<path d="M389.299 292.285L385.191 286.214L385.633 285.98L386.153 285.772L389.832 291.219L389.299 292.285ZM385.009 294.872V285.772H386.114V294.872H385.009ZM389.299 292.285L388.766 291.219L392.445 285.772L392.965 285.98L393.394 286.201L389.299 292.285ZM392.484 294.872V285.772H393.576V294.872H392.484ZM399.708 294.872L399.643 293.806V291.44C399.643 290.928 399.583 290.508 399.461 290.179C399.349 289.841 399.171 289.589 398.928 289.425C398.694 289.251 398.382 289.165 397.992 289.165C397.62 289.165 397.295 289.238 397.017 289.386C396.749 289.533 396.528 289.763 396.354 290.075L395.418 289.698C395.592 289.394 395.8 289.13 396.042 288.905C396.285 288.679 396.567 288.51 396.887 288.398C397.217 288.276 397.589 288.216 398.005 288.216C398.603 288.216 399.102 288.333 399.5 288.567C399.899 288.801 400.198 289.152 400.397 289.62C400.597 290.079 400.692 290.655 400.683 291.349L400.67 294.872H399.708ZM397.758 295.028C396.996 295.028 396.398 294.854 395.964 294.508C395.54 294.152 395.327 293.663 395.327 293.039C395.327 292.38 395.544 291.877 395.977 291.531C396.419 291.175 397.035 290.998 397.823 290.998H399.682V291.869H398.057C397.451 291.869 397.017 291.968 396.757 292.168C396.506 292.367 396.38 292.653 396.38 293.026C396.38 293.364 396.506 293.632 396.757 293.832C397.009 294.022 397.36 294.118 397.81 294.118C398.183 294.118 398.508 294.031 398.785 293.858C399.063 293.684 399.275 293.45 399.422 293.156C399.57 292.852 399.643 292.51 399.643 292.129H400.28C400.28 293.013 400.064 293.719 399.63 294.248C399.197 294.768 398.573 295.028 397.758 295.028ZM402.815 297.628C402.65 297.628 402.459 297.593 402.243 297.524C402.026 297.463 401.796 297.381 401.554 297.277L401.944 296.406C402.143 296.492 402.316 296.557 402.464 296.601C402.62 296.644 402.741 296.666 402.828 296.666C403.062 296.666 403.252 296.601 403.4 296.471C403.556 296.349 403.686 296.172 403.79 295.938L404.531 294.17L406.936 288.372H408.054L404.934 295.782C404.769 296.163 404.596 296.492 404.414 296.77C404.24 297.047 404.028 297.259 403.777 297.407C403.525 297.554 403.205 297.628 402.815 297.628ZM404.245 294.872L401.437 288.372H402.542L404.96 294.157L405.272 294.872H404.245Z" fill="#465762"/>
<path d="M389.299 292.285L385.191 286.214L385.633 285.98L386.153 285.772L389.832 291.219L389.299 292.285ZM385.009 294.872V285.772H386.114V294.872H385.009ZM389.299 292.285L388.766 291.219L392.445 285.772L392.965 285.98L393.394 286.201L389.299 292.285ZM392.484 294.872V285.772H393.576V294.872H392.484ZM399.708 294.872L399.643 293.806V291.44C399.643 290.928 399.583 290.508 399.461 290.179C399.349 289.841 399.171 289.589 398.928 289.425C398.694 289.251 398.382 289.165 397.992 289.165C397.62 289.165 397.295 289.238 397.017 289.386C396.749 289.533 396.528 289.763 396.354 290.075L395.418 289.698C395.592 289.394 395.8 289.13 396.042 288.905C396.285 288.679 396.567 288.51 396.887 288.398C397.217 288.276 397.589 288.216 398.005 288.216C398.603 288.216 399.102 288.333 399.5 288.567C399.899 288.801 400.198 289.152 400.397 289.62C400.597 290.079 400.692 290.655 400.683 291.349L400.67 294.872H399.708ZM397.758 295.028C396.996 295.028 396.398 294.854 395.964 294.508C395.54 294.152 395.327 293.663 395.327 293.039C395.327 292.38 395.544 291.877 395.977 291.531C396.419 291.175 397.035 290.998 397.823 290.998H399.682V291.869H398.057C397.451 291.869 397.017 291.968 396.757 292.168C396.506 292.367 396.38 292.653 396.38 293.026C396.38 293.364 396.506 293.632 396.757 293.832C397.009 294.022 397.36 294.118 397.81 294.118C398.183 294.118 398.508 294.031 398.785 293.858C399.063 293.684 399.275 293.45 399.422 293.156C399.57 292.852 399.643 292.51 399.643 292.129H400.28C400.28 293.013 400.064 293.719 399.63 294.248C399.197 294.768 398.573 295.028 397.758 295.028ZM402.815 297.628C402.65 297.628 402.459 297.593 402.243 297.524C402.026 297.463 401.796 297.381 401.554 297.277L401.944 296.406C402.143 296.492 402.316 296.557 402.464 296.601C402.62 296.644 402.741 296.666 402.828 296.666C403.062 296.666 403.252 296.601 403.4 296.471C403.556 296.349 403.686 296.172 403.79 295.938L404.531 294.17L406.936 288.372H408.054L404.934 295.782C404.769 296.163 404.596 296.492 404.414 296.77C404.24 297.047 404.028 297.259 403.777 297.407C403.525 297.554 403.205 297.628 402.815 297.628ZM404.245 294.872L401.437 288.372H402.542L404.96 294.157L405.272 294.872H404.245Z" fill="white" fill-opacity="0.4"/>
<rect x="443" y="71.8716" width="25" height="193" rx="6" fill="#5655D7"/>
<rect x="473" y="34.8716" width="25" height="230" rx="6" fill="#5655D7"/>
<rect x="473" y="34.8716" width="25" height="230" rx="6" fill="white" fill-opacity="0.8"/>
<path d="M462.061 295.028C461.749 295.028 461.459 294.98 461.19 294.885C460.93 294.798 460.696 294.681 460.488 294.534C460.28 294.378 460.102 294.204 459.955 294.014C459.808 293.814 459.686 293.611 459.591 293.403L460.423 292.922C460.605 293.242 460.826 293.507 461.086 293.715C461.355 293.923 461.684 294.027 462.074 294.027C462.386 294.027 462.689 293.953 462.984 293.806C463.287 293.658 463.534 293.411 463.725 293.065C463.916 292.718 464.011 292.263 464.011 291.7V285.772H465.103V292.129C465.103 292.605 465.016 293.026 464.843 293.39C464.678 293.754 464.449 294.057 464.154 294.3C463.868 294.542 463.543 294.724 463.179 294.846C462.815 294.967 462.442 295.028 462.061 295.028ZM471.559 294.872L471.494 293.676V288.372H472.534V294.872H471.559ZM466.931 292.09V288.372H467.971V291.7L466.931 292.09ZM467.971 291.7C467.971 292.341 468.045 292.831 468.192 293.169C468.34 293.507 468.543 293.741 468.803 293.871C469.072 293.992 469.371 294.053 469.7 294.053C470.264 294.053 470.701 293.849 471.013 293.442C471.334 293.034 471.494 292.467 471.494 291.739H472.001C472.001 292.423 471.902 293.013 471.702 293.507C471.503 294.001 471.213 294.378 470.831 294.638C470.459 294.898 470.004 295.028 469.466 295.028C468.678 295.028 468.054 294.785 467.594 294.3C467.144 293.814 466.923 293.078 466.931 292.09L467.971 291.7ZM474.349 294.872V288.372H475.324L475.389 289.568V294.872H474.349ZM478.912 294.872V291.544L479.952 291.154V294.872H478.912ZM478.912 291.544C478.912 290.902 478.839 290.413 478.691 290.075C478.544 289.737 478.34 289.507 478.08 289.386C477.82 289.256 477.526 289.191 477.196 289.191C476.624 289.191 476.178 289.394 475.857 289.802C475.545 290.2 475.389 290.768 475.389 291.505H474.882C474.882 290.82 474.982 290.231 475.181 289.737C475.381 289.243 475.667 288.866 476.039 288.606C476.421 288.346 476.88 288.216 477.417 288.216C478.206 288.216 478.826 288.458 479.276 288.944C479.736 289.429 479.961 290.166 479.952 291.154L478.912 291.544Z" fill="#465762"/>
<path d="M462.061 295.028C461.749 295.028 461.459 294.98 461.19 294.885C460.93 294.798 460.696 294.681 460.488 294.534C460.28 294.378 460.102 294.204 459.955 294.014C459.808 293.814 459.686 293.611 459.591 293.403L460.423 292.922C460.605 293.242 460.826 293.507 461.086 293.715C461.355 293.923 461.684 294.027 462.074 294.027C462.386 294.027 462.689 293.953 462.984 293.806C463.287 293.658 463.534 293.411 463.725 293.065C463.916 292.718 464.011 292.263 464.011 291.7V285.772H465.103V292.129C465.103 292.605 465.016 293.026 464.843 293.39C464.678 293.754 464.449 294.057 464.154 294.3C463.868 294.542 463.543 294.724 463.179 294.846C462.815 294.967 462.442 295.028 462.061 295.028ZM471.559 294.872L471.494 293.676V288.372H472.534V294.872H471.559ZM466.931 292.09V288.372H467.971V291.7L466.931 292.09ZM467.971 291.7C467.971 292.341 468.045 292.831 468.192 293.169C468.34 293.507 468.543 293.741 468.803 293.871C469.072 293.992 469.371 294.053 469.7 294.053C470.264 294.053 470.701 293.849 471.013 293.442C471.334 293.034 471.494 292.467 471.494 291.739H472.001C472.001 292.423 471.902 293.013 471.702 293.507C471.503 294.001 471.213 294.378 470.831 294.638C470.459 294.898 470.004 295.028 469.466 295.028C468.678 295.028 468.054 294.785 467.594 294.3C467.144 293.814 466.923 293.078 466.931 292.09L467.971 291.7ZM474.349 294.872V288.372H475.324L475.389 289.568V294.872H474.349ZM478.912 294.872V291.544L479.952 291.154V294.872H478.912ZM478.912 291.544C478.912 290.902 478.839 290.413 478.691 290.075C478.544 289.737 478.34 289.507 478.08 289.386C477.82 289.256 477.526 289.191 477.196 289.191C476.624 289.191 476.178 289.394 475.857 289.802C475.545 290.2 475.389 290.768 475.389 291.505H474.882C474.882 290.82 474.982 290.231 475.181 289.737C475.381 289.243 475.667 288.866 476.039 288.606C476.421 288.346 476.88 288.216 477.417 288.216C478.206 288.216 478.826 288.458 479.276 288.944C479.736 289.429 479.961 290.166 479.952 291.154L478.912 291.544Z" fill="white" fill-opacity="0.4"/>
</svg>
