<svg width="499" height="327" viewBox="0 0 499 327" fill="none" xmlns="http://www.w3.org/2000/svg">
<line x1="0.5" y1="1" x2="0.499987" y2="297" stroke="#465762" stroke-opacity="0.16"/>
<line x1="83.5" y1="1" x2="83.5" y2="297" stroke="#465762" stroke-opacity="0.16"/>
<line x1="166.5" y1="1" x2="166.5" y2="297" stroke="#465762" stroke-opacity="0.16"/>
<line x1="249.5" y1="1" x2="249.5" y2="297" stroke="#465762" stroke-opacity="0.16"/>
<line x1="332.5" y1="1" x2="332.5" y2="297" stroke="#465762" stroke-opacity="0.16"/>
<line x1="415.5" y1="1" x2="415.5" y2="297" stroke="#465762" stroke-opacity="0.16"/>
<line x1="498.5" y1="1" x2="498.5" y2="297" stroke="#465762" stroke-opacity="0.16"/>
<mask id="mask0_346_1568" style="mask-type:alpha" maskUnits="userSpaceOnUse" x="0" y="0" width="498" height="297">
<rect y="0.871582" width="498" height="296.128" fill="white"/>
</mask>
<g mask="url(#mask0_346_1568)">
<path d="M674.9 102.507L695.353 171.147L699.118 182.472C709.139 212.622 724.144 215.286 735.074 188.856L741.674 172.897C748.015 157.282 757 172.334 757 198.572V242.701C757 272.624 749.705 296.882 740.706 296.882H-117.441C-133.926 296.882 -146.988 250.598 -145.941 195.892L-145.436 169.486C-144.787 135.598 -138.747 105.441 -129.593 90.3915L-122.593 78.885C-114.384 65.3885 -104.726 65.8028 -96.6236 79.999L-77.0466 114.301L-32.8539 189.971L-28.3385 198.468C-19.7977 214.54 -9.37334 214.904 -0.732941 199.432L39.4547 127.469C47.759 112.598 57.7358 112.321 66.1136 126.729L80.399 151.295C91.1416 169.769 104.219 163.738 113.044 136.241L122.225 107.634C133.517 72.4516 151.181 73.5743 162.06 110.166L180.714 172.904C192.23 211.639 211.255 209.224 221.849 167.684C229.739 136.751 242.755 126.436 253.992 142.21L266.207 159.358C279.936 178.629 295.812 159.562 302.669 115.57L310.835 63.1788C320.012 4.29667 344.054 -5.96186 357.405 43.3073L370.239 90.6655C376.642 114.295 386.933 121.256 395.604 107.823L399.527 101.745C407.672 89.1273 417.363 99.589 421.726 125.706C427.692 161.424 442.696 165.236 450.224 132.946L462.553 80.0688C470.01 48.0882 482.742 35.3338 494.27 48.2967L504.833 60.1733C509.649 65.589 514.813 66.6308 519.791 63.1913L520.834 62.4709C532.157 54.6466 543.782 70.3063 550.276 102.132L564.038 169.582C570.767 202.563 585.622 200.01 591.293 164.899C594.7 143.8 601.937 132.911 608.953 138.326L618.747 145.885C627.606 152.723 636.796 140.167 641.65 114.594C648.985 75.9475 665.227 70.0435 674.9 102.507Z" fill="#5655D7" fill-opacity="0.08"/>
<path d="M-132.156 88.8325L-129.626 90.3709L-132.156 88.8325C-136.995 96.7891 -140.88 108.482 -143.645 122.285C-146.421 136.141 -148.108 152.333 -148.435 169.428L-148.941 195.834C-149.468 223.407 -146.446 248.96 -141.153 267.717C-138.512 277.075 -135.258 284.913 -131.478 290.48C-127.764 295.95 -123.072 299.882 -117.441 299.882H740.706C744.407 299.882 747.333 297.4 749.493 294.363C751.708 291.248 753.579 286.935 755.1 281.877C758.155 271.721 760 257.871 760 242.701V198.572C760 185.279 757.749 174.295 754.291 168.502C752.674 165.793 749.915 162.877 746.11 163.699C744.359 164.077 742.947 165.19 741.84 166.53C740.727 167.876 739.756 169.647 738.896 171.762C738.896 171.764 738.895 171.766 738.894 171.768L732.302 187.709C729.648 194.127 726.854 198.497 724.169 201.091C721.53 203.642 719.24 204.276 717.28 203.928C715.172 203.554 712.612 201.907 709.847 198.133C707.11 194.398 704.414 188.895 701.965 181.526L698.215 170.245L677.775 101.651C675.307 93.3675 672.324 87.1679 668.908 83.2842C665.422 79.3206 661.032 77.3715 656.373 79.0649C652.161 80.596 648.692 84.8313 645.889 90.5086C643.023 96.316 640.566 104.216 638.702 114.035C636.303 126.676 632.895 135.682 629.279 140.622C627.473 143.091 625.844 144.229 624.567 144.589C623.463 144.9 622.191 144.753 620.58 143.51L610.786 135.951C608.377 134.091 605.571 133.418 602.74 134.388C600.128 135.284 597.995 137.415 596.271 140.009C592.806 145.223 590.059 153.721 588.331 164.421C586.939 173.038 585.011 179.461 582.896 183.756C580.683 188.251 578.672 189.626 577.554 189.818C576.773 189.953 575.104 189.637 572.875 186.102C570.725 182.69 568.627 177.068 566.977 168.982L553.215 101.532C549.938 85.4705 545.3 73.0865 539.775 65.6444C537.009 61.9188 533.816 59.1539 530.188 58.0267C526.405 56.8508 522.608 57.5985 519.128 60.0028L518.086 60.7231C516.148 62.0621 514.43 62.382 512.845 62.0622C511.175 61.7254 509.217 60.5886 507.075 58.1796L496.512 46.303C493.313 42.7062 489.654 40.4729 485.63 40.2979C481.585 40.122 477.909 42.0565 474.762 45.2094C468.586 51.3963 463.387 63.2813 459.632 79.3876L447.303 132.265C445.458 140.177 443.219 145.562 440.983 148.73C438.715 151.945 437.057 152.157 436.128 151.921C434.765 151.575 432.616 149.841 430.337 145.138C428.143 140.613 426.15 133.982 424.685 125.212C423.572 118.548 422.107 112.805 420.376 108.128C418.66 103.492 416.616 99.72 414.245 97.1612C411.859 94.5853 408.785 92.9051 405.282 93.5413C401.958 94.145 399.223 96.684 397.007 100.118L393.083 106.196C391.084 109.294 389.256 110.782 387.818 111.328C386.569 111.802 385.287 111.696 383.752 110.658C382.093 109.536 380.22 107.347 378.333 103.796C376.468 100.285 374.696 95.6438 373.134 89.8809L360.301 42.5226C356.92 30.0453 352.771 20.95 348.076 15.4075C345.712 12.6165 343.086 10.5811 340.205 9.58293C337.254 8.56103 334.246 8.70323 331.378 9.927C325.874 12.2755 321.191 18.4485 317.363 27.0894C313.468 35.8812 310.19 47.8392 307.871 62.7168L299.705 115.108C296.293 136.996 290.705 152.068 284.71 159.268C281.741 162.833 279.098 163.984 276.931 163.839C274.708 163.691 271.854 162.114 268.651 157.617L256.435 140.47C253.421 136.239 249.978 133.303 246.1 132.284C242.065 131.224 238.187 132.398 234.802 135.081C231.495 137.702 228.536 141.833 225.93 147.107C223.307 152.416 220.95 159.07 218.943 166.942C216.335 177.164 213.258 184.772 210.036 189.868C206.756 195.056 203.679 197.113 201.249 197.421C198.991 197.708 196.132 196.599 192.874 192.425C189.633 188.273 186.418 181.563 183.589 172.049L164.936 109.311C162.166 99.9947 158.905 92.7157 155.275 87.6404C151.683 82.619 147.388 79.3021 142.488 78.9907C137.512 78.6745 133.058 81.5175 129.34 86.1681C125.607 90.8381 122.247 97.7485 119.369 106.717L110.188 135.324C108.031 142.043 105.654 147.321 103.199 151.181C100.721 155.079 98.3093 157.303 96.1843 158.283C94.2248 159.186 92.3163 159.134 90.2518 157.983C88.0372 156.748 85.5424 154.172 82.9924 149.787L68.707 125.221C64.3867 117.791 58.9889 112.945 52.6733 113.121C46.4138 113.295 41.1008 118.368 36.8354 126.006L-3.35219 197.969C-7.56236 205.508 -11.518 207.884 -14.4684 207.781C-17.4943 207.675 -21.5092 204.927 -25.6894 197.061L-30.2048 188.564L-30.233 188.51L-30.2634 188.458L-74.4411 112.814L-74.4486 112.801L-94.0181 78.512L-96.6236 79.999L-94.0181 78.512C-98.1935 71.1962 -103.364 66.3206 -109.44 66.06C-115.598 65.7958 -120.896 70.3222 -125.157 77.326L-132.156 88.8325Z" stroke="url(#paint0_linear_346_1568)" stroke-width="6"/>
</g>
<path d="M5.60691 319.413L1.49891 313.342L1.94091 313.108L2.46091 312.9L6.13991 318.347L5.60691 319.413ZM1.31691 322V312.9H2.42191V322H1.31691ZM5.60691 319.413L5.07391 318.347L8.75291 312.9L9.27291 313.108L9.70191 313.329L5.60691 319.413ZM8.79191 322V312.9H9.88391V322H8.79191ZM14.8851 322.156C14.2524 322.156 13.6891 322.013 13.1951 321.727C12.7097 321.432 12.3284 321.029 12.0511 320.518C11.7737 320.007 11.6351 319.417 11.6351 318.75C11.6351 318.083 11.7694 317.493 12.0381 316.982C12.3154 316.471 12.6967 316.072 13.1821 315.786C13.6761 315.491 14.2351 315.344 14.8591 315.344C15.5004 315.344 16.0637 315.491 16.5491 315.786C17.0431 316.072 17.4244 316.471 17.6931 316.982C17.9704 317.493 18.1091 318.083 18.1091 318.75C18.1091 319.417 17.9704 320.007 17.6931 320.518C17.4244 321.029 17.0474 321.432 16.5621 321.727C16.0767 322.013 15.5177 322.156 14.8851 322.156ZM14.8851 321.194C15.3184 321.194 15.6954 321.09 16.0161 320.882C16.3367 320.674 16.5881 320.388 16.7701 320.024C16.9607 319.66 17.0561 319.235 17.0561 318.75C17.0561 318.265 16.9607 317.84 16.7701 317.476C16.5881 317.112 16.3324 316.826 16.0031 316.618C15.6737 316.41 15.2924 316.306 14.8591 316.306C14.4344 316.306 14.0574 316.41 13.7281 316.618C13.4074 316.826 13.1517 317.112 12.9611 317.476C12.7791 317.84 12.6881 318.265 12.6881 318.75C12.6881 319.227 12.7791 319.651 12.9611 320.024C13.1517 320.388 13.4117 320.674 13.7411 320.882C14.0791 321.09 14.4604 321.194 14.8851 321.194ZM19.5531 322V315.5H20.5281L20.5931 316.696V322H19.5531ZM24.1161 322V318.672L25.1561 318.282V322H24.1161ZM24.1161 318.672C24.1161 318.031 24.0424 317.541 23.8951 317.203C23.7477 316.865 23.5441 316.635 23.2841 316.514C23.0241 316.384 22.7294 316.319 22.4001 316.319C21.8281 316.319 21.3817 316.523 21.0611 316.93C20.7491 317.329 20.5931 317.896 20.5931 318.633H20.0861C20.0861 317.948 20.1857 317.359 20.3851 316.865C20.5844 316.371 20.8704 315.994 21.2431 315.734C21.6244 315.474 22.0837 315.344 22.6211 315.344C23.4097 315.344 24.0294 315.587 24.4801 316.072C24.9394 316.557 25.1647 317.294 25.1561 318.282L24.1161 318.672Z" fill="#7A7C7F"/>
<path d="M86.4207 322V313.654H87.5127V322H86.4207ZM83.5217 313.901V312.9H90.4117V313.901H83.5217ZM95.3111 322L95.2461 320.804V315.5H96.2861V322H95.3111ZM90.6831 319.218V315.5H91.7231V318.828L90.6831 319.218ZM91.7231 318.828C91.7231 319.469 91.7968 319.959 91.9441 320.297C92.0915 320.635 92.2951 320.869 92.5551 320.999C92.8238 321.12 93.1228 321.181 93.4521 321.181C94.0155 321.181 94.4531 320.977 94.7651 320.57C95.0858 320.163 95.2461 319.595 95.2461 318.867H95.7531C95.7531 319.552 95.6535 320.141 95.4541 320.635C95.2548 321.129 94.9645 321.506 94.5831 321.766C94.2105 322.026 93.7555 322.156 93.2181 322.156C92.4295 322.156 91.8055 321.913 91.3461 321.428C90.8955 320.943 90.6745 320.206 90.6831 319.218L91.7231 318.828ZM100.948 322.156C100.315 322.156 99.7565 322.013 99.2712 321.727C98.7858 321.432 98.4045 321.029 98.1272 320.518C97.8585 320.007 97.7242 319.417 97.7242 318.75C97.7242 318.083 97.8585 317.493 98.1272 316.982C98.4045 316.471 98.7815 316.072 99.2582 315.786C99.7435 315.491 100.298 315.344 100.922 315.344C101.52 315.344 102.04 315.496 102.482 315.799C102.933 316.094 103.279 316.51 103.522 317.047C103.765 317.584 103.886 318.217 103.886 318.945H102.846C102.846 318.39 102.772 317.918 102.625 317.528C102.478 317.129 102.257 316.822 101.962 316.605C101.676 316.388 101.325 316.28 100.909 316.28C100.484 316.28 100.107 316.384 99.7782 316.592C99.4575 316.791 99.2105 317.077 99.0372 317.45C98.8638 317.823 98.7772 318.26 98.7772 318.763C98.7772 319.257 98.8725 319.686 99.0632 320.05C99.2538 320.405 99.5182 320.687 99.8562 320.895C100.194 321.094 100.575 321.194 101 321.194C101.451 321.194 101.832 321.086 102.144 320.869C102.456 320.652 102.703 320.371 102.885 320.024L103.795 320.479C103.63 320.817 103.409 321.112 103.132 321.363C102.863 321.614 102.543 321.809 102.17 321.948C101.806 322.087 101.399 322.156 100.948 322.156ZM98.4132 318.945L98.4262 318.048H103.249V318.945H98.4132Z" fill="#7A7C7F"/>
<path d="M170.274 322L173.082 312.9H174.187L171.366 322H170.274ZM164.736 322L161.954 312.9H163.059L165.815 322H164.736ZM164.853 322L167.531 312.9H168.584L165.906 322H164.853ZM170.183 322L167.57 312.9H168.623L171.275 322H170.183ZM177.54 322.156C176.907 322.156 176.348 322.013 175.863 321.727C175.378 321.432 174.996 321.029 174.719 320.518C174.45 320.007 174.316 319.417 174.316 318.75C174.316 318.083 174.45 317.493 174.719 316.982C174.996 316.471 175.373 316.072 175.85 315.786C176.335 315.491 176.89 315.344 177.514 315.344C178.112 315.344 178.632 315.496 179.074 315.799C179.525 316.094 179.871 316.51 180.114 317.047C180.357 317.584 180.478 318.217 180.478 318.945H179.438C179.438 318.39 179.364 317.918 179.217 317.528C179.07 317.129 178.849 316.822 178.554 316.605C178.268 316.388 177.917 316.28 177.501 316.28C177.076 316.28 176.699 316.384 176.37 316.592C176.049 316.791 175.802 317.077 175.629 317.45C175.456 317.823 175.369 318.26 175.369 318.763C175.369 319.257 175.464 319.686 175.655 320.05C175.846 320.405 176.11 320.687 176.448 320.895C176.786 321.094 177.167 321.194 177.592 321.194C178.043 321.194 178.424 321.086 178.736 320.869C179.048 320.652 179.295 320.371 179.477 320.024L180.387 320.479C180.222 320.817 180.001 321.112 179.724 321.363C179.455 321.614 179.135 321.809 178.762 321.948C178.398 322.087 177.991 322.156 177.54 322.156ZM175.005 318.945L175.018 318.048H179.841V318.945H175.005ZM186.6 322L186.548 320.791V312.9H187.588V322H186.6ZM184.351 322.156C183.77 322.156 183.259 322.013 182.817 321.727C182.375 321.441 182.028 321.042 181.777 320.531C181.534 320.011 181.413 319.417 181.413 318.75C181.413 318.074 181.534 317.48 181.777 316.969C182.028 316.458 182.375 316.059 182.817 315.773C183.259 315.487 183.77 315.344 184.351 315.344C184.897 315.344 185.373 315.487 185.781 315.773C186.197 316.059 186.517 316.458 186.743 316.969C186.968 317.48 187.081 318.074 187.081 318.75C187.081 319.417 186.968 320.011 186.743 320.531C186.517 321.042 186.197 321.441 185.781 321.727C185.373 322.013 184.897 322.156 184.351 322.156ZM184.585 321.207C184.966 321.207 185.304 321.103 185.599 320.895C185.893 320.687 186.123 320.397 186.288 320.024C186.461 319.651 186.548 319.227 186.548 318.75C186.548 318.273 186.461 317.849 186.288 317.476C186.123 317.103 185.893 316.813 185.599 316.605C185.304 316.397 184.962 316.293 184.572 316.293C184.164 316.293 183.8 316.397 183.48 316.605C183.168 316.813 182.921 317.103 182.739 317.476C182.557 317.849 182.466 318.273 182.466 318.75C182.466 319.227 182.557 319.651 182.739 320.024C182.921 320.397 183.172 320.687 183.493 320.895C183.813 321.103 184.177 321.207 184.585 321.207Z" fill="#7A7C7F"/>
<path d="M249.207 322V313.654H250.299V322H249.207ZM246.308 313.901V312.9H253.198V313.901H246.308ZM254.247 322V312.731H255.287V322H254.247ZM258.823 322V318.672L259.863 318.282V322H258.823ZM258.823 318.672C258.823 318.031 258.745 317.541 258.589 317.203C258.442 316.865 258.238 316.635 257.978 316.514C257.718 316.384 257.424 316.319 257.094 316.319C256.522 316.319 256.076 316.523 255.755 316.93C255.443 317.329 255.287 317.896 255.287 318.633H254.78C254.78 317.948 254.88 317.359 255.079 316.865C255.279 316.371 255.569 315.994 255.95 315.734C256.332 315.474 256.791 315.344 257.328 315.344C258.108 315.344 258.728 315.587 259.187 316.072C259.647 316.557 259.872 317.294 259.863 318.282L258.823 318.672ZM265.955 322L265.89 320.804V315.5H266.93V322H265.955ZM261.327 319.218V315.5H262.367V318.828L261.327 319.218ZM262.367 318.828C262.367 319.469 262.441 319.959 262.588 320.297C262.736 320.635 262.939 320.869 263.199 320.999C263.468 321.12 263.767 321.181 264.096 321.181C264.66 321.181 265.097 320.977 265.409 320.57C265.73 320.163 265.89 319.595 265.89 318.867H266.397C266.397 319.552 266.298 320.141 266.098 320.635C265.899 321.129 265.609 321.506 265.227 321.766C264.855 322.026 264.4 322.156 263.862 322.156C263.074 322.156 262.45 321.913 261.99 321.428C261.54 320.943 261.319 320.206 261.327 319.218L262.367 318.828Z" fill="#7A7C7F"/>
<path d="M326.869 322V312.9H327.974V322H326.869ZM327.87 318.009V317.008H331.77V318.009H327.87ZM327.87 313.901V312.9H332.277V313.901H327.87ZM334.074 318.477C334.074 317.775 334.208 317.207 334.477 316.774C334.746 316.332 335.088 316.007 335.504 315.799C335.929 315.582 336.375 315.474 336.843 315.474V316.449C336.462 316.449 336.093 316.514 335.738 316.644C335.391 316.765 335.105 316.969 334.88 317.255C334.655 317.541 334.542 317.931 334.542 318.425L334.074 318.477ZM333.502 322V315.5H334.542V322H333.502ZM337.96 322L337.986 315.5H339.026L339 322H337.96ZM338.493 313.992C338.319 313.992 338.168 313.927 338.038 313.797C337.908 313.667 337.843 313.515 337.843 313.342C337.843 313.16 337.908 313.008 338.038 312.887C338.168 312.757 338.319 312.692 338.493 312.692C338.675 312.692 338.826 312.757 338.948 312.887C339.078 313.008 339.143 313.16 339.143 313.342C339.143 313.515 339.078 313.667 338.948 313.797C338.826 313.927 338.675 313.992 338.493 313.992Z" fill="#7A7C7F"/>
<path d="M402.025 322.156C401.522 322.156 401.076 322.104 400.686 322C400.296 321.887 399.958 321.736 399.672 321.545C399.386 321.346 399.152 321.129 398.97 320.895C398.788 320.652 398.654 320.397 398.567 320.128L399.62 319.764C399.75 320.145 400.01 320.479 400.4 320.765C400.799 321.042 401.284 321.181 401.856 321.181C402.558 321.181 403.108 321.042 403.507 320.765C403.906 320.488 404.105 320.119 404.105 319.66C404.105 319.235 403.927 318.893 403.572 318.633C403.217 318.364 402.749 318.156 402.168 318.009L401.167 317.749C400.76 317.645 400.383 317.493 400.036 317.294C399.698 317.086 399.425 316.826 399.217 316.514C399.018 316.193 398.918 315.812 398.918 315.37C398.918 314.547 399.182 313.905 399.711 313.446C400.248 312.978 401.02 312.744 402.025 312.744C402.623 312.744 403.139 312.844 403.572 313.043C404.005 313.234 404.356 313.481 404.625 313.784C404.902 314.079 405.097 314.399 405.21 314.746L404.17 315.11C404.005 314.677 403.728 314.339 403.338 314.096C402.948 313.845 402.476 313.719 401.921 313.719C401.34 313.719 400.877 313.862 400.53 314.148C400.192 314.425 400.023 314.807 400.023 315.292C400.023 315.708 400.157 316.029 400.426 316.254C400.695 316.471 401.046 316.631 401.479 316.735L402.48 316.982C403.364 317.19 404.04 317.537 404.508 318.022C404.985 318.499 405.223 319.014 405.223 319.569C405.223 320.046 405.102 320.483 404.859 320.882C404.616 321.272 404.257 321.584 403.78 321.818C403.312 322.043 402.727 322.156 402.025 322.156ZM410.803 322L410.738 320.934V318.568C410.738 318.057 410.678 317.636 410.556 317.307C410.444 316.969 410.266 316.718 410.023 316.553C409.789 316.38 409.477 316.293 409.087 316.293C408.715 316.293 408.39 316.367 408.112 316.514C407.844 316.661 407.623 316.891 407.449 317.203L406.513 316.826C406.687 316.523 406.895 316.258 407.137 316.033C407.38 315.808 407.662 315.639 407.982 315.526C408.312 315.405 408.684 315.344 409.1 315.344C409.698 315.344 410.197 315.461 410.595 315.695C410.994 315.929 411.293 316.28 411.492 316.748C411.692 317.207 411.787 317.784 411.778 318.477L411.765 322H410.803ZM408.853 322.156C408.091 322.156 407.493 321.983 407.059 321.636C406.635 321.281 406.422 320.791 406.422 320.167C406.422 319.508 406.639 319.006 407.072 318.659C407.514 318.304 408.13 318.126 408.918 318.126H410.777V318.997H409.152C408.546 318.997 408.112 319.097 407.852 319.296C407.601 319.495 407.475 319.781 407.475 320.154C407.475 320.492 407.601 320.761 407.852 320.96C408.104 321.151 408.455 321.246 408.905 321.246C409.278 321.246 409.603 321.159 409.88 320.986C410.158 320.813 410.37 320.579 410.517 320.284C410.665 319.981 410.738 319.638 410.738 319.257H411.375C411.375 320.141 411.159 320.847 410.725 321.376C410.292 321.896 409.668 322.156 408.853 322.156ZM415.87 322.156C415.238 322.156 414.748 321.991 414.401 321.662C414.055 321.333 413.881 320.869 413.881 320.271V313.472H414.921V320.167C414.921 320.496 415.008 320.752 415.181 320.934C415.363 321.107 415.615 321.194 415.935 321.194C416.039 321.194 416.139 321.181 416.234 321.155C416.338 321.12 416.473 321.042 416.637 320.921L417.04 321.766C416.815 321.913 416.611 322.013 416.429 322.065C416.247 322.126 416.061 322.156 415.87 322.156ZM412.75 316.423V315.5H416.871V316.423H412.75Z" fill="#7A7C7F"/>
<path d="M479.379 322.156C478.877 322.156 478.43 322.104 478.04 322C477.65 321.887 477.312 321.736 477.026 321.545C476.74 321.346 476.506 321.129 476.324 320.895C476.142 320.652 476.008 320.397 475.921 320.128L476.974 319.764C477.104 320.145 477.364 320.479 477.754 320.765C478.153 321.042 478.638 321.181 479.21 321.181C479.912 321.181 480.463 321.042 480.861 320.765C481.26 320.488 481.459 320.119 481.459 319.66C481.459 319.235 481.282 318.893 480.926 318.633C480.571 318.364 480.103 318.156 479.522 318.009L478.521 317.749C478.114 317.645 477.737 317.493 477.39 317.294C477.052 317.086 476.779 316.826 476.571 316.514C476.372 316.193 476.272 315.812 476.272 315.37C476.272 314.547 476.537 313.905 477.065 313.446C477.603 312.978 478.374 312.744 479.379 312.744C479.977 312.744 480.493 312.844 480.926 313.043C481.36 313.234 481.711 313.481 481.979 313.784C482.257 314.079 482.452 314.399 482.564 314.746L481.524 315.11C481.36 314.677 481.082 314.339 480.692 314.096C480.302 313.845 479.83 313.719 479.275 313.719C478.695 313.719 478.231 313.862 477.884 314.148C477.546 314.425 477.377 314.807 477.377 315.292C477.377 315.708 477.512 316.029 477.78 316.254C478.049 316.471 478.4 316.631 478.833 316.735L479.834 316.982C480.718 317.19 481.394 317.537 481.862 318.022C482.339 318.499 482.577 319.014 482.577 319.569C482.577 320.046 482.456 320.483 482.213 320.882C481.971 321.272 481.611 321.584 481.134 321.818C480.666 322.043 480.081 322.156 479.379 322.156ZM488.613 322L488.548 320.804V315.5H489.588V322H488.613ZM483.985 319.218V315.5H485.025V318.828L483.985 319.218ZM485.025 318.828C485.025 319.469 485.098 319.959 485.246 320.297C485.393 320.635 485.597 320.869 485.857 320.999C486.125 321.12 486.424 321.181 486.754 321.181C487.317 321.181 487.755 320.977 488.067 320.57C488.387 320.163 488.548 319.595 488.548 318.867H489.055C489.055 319.552 488.955 320.141 488.756 320.635C488.556 321.129 488.266 321.506 487.885 321.766C487.512 322.026 487.057 322.156 486.52 322.156C485.731 322.156 485.107 321.913 484.648 321.428C484.197 320.943 483.976 320.206 483.985 319.218L485.025 318.828ZM491.403 322V315.5H492.378L492.443 316.696V322H491.403ZM495.966 322V318.672L497.006 318.282V322H495.966ZM495.966 318.672C495.966 318.031 495.892 317.541 495.745 317.203C495.597 316.865 495.394 316.635 495.134 316.514C494.874 316.384 494.579 316.319 494.25 316.319C493.678 316.319 493.231 316.523 492.911 316.93C492.599 317.329 492.443 317.896 492.443 318.633H491.936C491.936 317.948 492.035 317.359 492.235 316.865C492.434 316.371 492.72 315.994 493.093 315.734C493.474 315.474 493.933 315.344 494.471 315.344C495.259 315.344 495.879 315.587 496.33 316.072C496.789 316.557 497.014 317.294 497.006 318.282L495.966 318.672Z" fill="#7A7C7F"/>
<g filter="url(#filter0_d_346_1568)">
<circle cx="166.031" cy="119.836" r="6.31929" fill="#5655D7"/>
<circle cx="166.031" cy="119.836" r="7.58315" stroke="white" stroke-width="2.52772"/>
</g>
<g filter="url(#filter1_d_346_1568)">
<path d="M86.3636 34C82.8491 34 80 37.984 80 42.8985V91.84C80 96.7544 82.8491 100.738 86.3636 100.738H158.182L164.09 109L169.999 100.738H178.636C182.151 100.738 185 96.7544 185 91.84V42.8985C185 37.984 182.151 34 178.636 34H86.3636Z" fill="white"/>
</g>
<path d="M95.8164 50.9631C95.5322 50.9631 95.2788 50.9198 95.0564 50.8333C94.8401 50.7468 94.6517 50.6325 94.491 50.4904C94.3304 50.3483 94.1975 50.1938 94.0925 50.027C93.9936 49.8602 93.9195 49.6964 93.87 49.5358L94.7505 49.1558C94.8618 49.4091 95.0039 49.6099 95.1769 49.7582C95.3561 49.9065 95.5723 49.9806 95.8257 49.9806C96.0296 49.9806 96.2211 49.9343 96.4003 49.8416C96.5857 49.7428 96.737 49.5883 96.8544 49.3782C96.9718 49.1681 97.0305 48.8901 97.0305 48.5441V44.3548H98.1057V48.887C98.1057 49.2206 98.0439 49.5172 97.9203 49.7767C97.8029 50.0301 97.6392 50.2463 97.4291 50.4255C97.219 50.6047 96.9749 50.7406 96.6969 50.8333C96.4188 50.9198 96.1253 50.9631 95.8164 50.9631ZM102.453 50.8426L102.398 49.9899V46.2084H103.427V50.8426H102.453ZM99.2467 48.8592V46.2084H100.285V48.5811L99.2467 48.8592ZM100.285 48.5811C100.285 48.9457 100.328 49.2299 100.414 49.4338C100.501 49.6377 100.618 49.7798 100.767 49.8602C100.921 49.9405 101.097 49.9806 101.295 49.9806C101.647 49.9868 101.919 49.8725 102.111 49.6377C102.302 49.4029 102.398 49.0662 102.398 48.6275H102.787C102.787 49.1156 102.713 49.5358 102.565 49.888C102.423 50.234 102.219 50.4997 101.953 50.685C101.693 50.8642 101.381 50.9538 101.017 50.9538C100.455 50.9538 100.019 50.7808 99.7101 50.4348C99.4011 50.0888 99.2467 49.5636 99.2467 48.8592L100.285 48.5811ZM104.58 50.8426V46.2084H105.553L105.618 47.0611V50.8426H104.58ZM107.722 50.8426V48.4699L108.76 48.1919V50.8426H107.722ZM107.722 48.4699C107.722 48.0992 107.679 47.8149 107.592 47.6172C107.512 47.4133 107.395 47.2712 107.24 47.1909C107.092 47.1106 106.916 47.0704 106.712 47.0704C106.366 47.0642 106.097 47.1785 105.906 47.4133C105.714 47.6481 105.618 47.9849 105.618 48.4236H105.229C105.229 47.9354 105.3 47.5184 105.442 47.1723C105.584 46.8202 105.788 46.5545 106.054 46.3753C106.319 46.1899 106.635 46.0972 106.999 46.0972C107.561 46.0972 107.994 46.2702 108.297 46.6162C108.606 46.9561 108.76 47.4813 108.76 48.1919L107.722 48.4699ZM111.878 50.9538C111.427 50.9538 111.026 50.8519 110.674 50.648C110.328 50.4379 110.053 50.1506 109.849 49.786C109.651 49.4215 109.552 49.0013 109.552 48.5255C109.552 48.0497 109.654 47.6296 109.858 47.265C110.062 46.9005 110.34 46.6162 110.692 46.4123C111.051 46.2023 111.458 46.0972 111.916 46.0972C112.33 46.0972 112.7 46.2054 113.028 46.4216C113.361 46.6317 113.627 46.9375 113.825 47.3392C114.023 47.7408 114.121 48.2197 114.121 48.7758H113.074C113.074 48.3741 113.025 48.0436 112.926 47.7841C112.833 47.5245 112.697 47.333 112.518 47.2094C112.345 47.0797 112.132 47.0148 111.878 47.0148C111.613 47.0148 111.384 47.0735 111.193 47.1909C111.001 47.3083 110.856 47.4813 110.757 47.7099C110.658 47.9323 110.609 48.2135 110.609 48.5533C110.609 48.8561 110.667 49.1156 110.785 49.3319C110.908 49.5481 111.072 49.7149 111.276 49.8323C111.486 49.9436 111.718 49.9992 111.971 49.9992C112.249 49.9992 112.478 49.9374 112.657 49.8138C112.836 49.6841 112.975 49.5203 113.074 49.3226L114.029 49.7304C113.899 49.9775 113.732 50.1938 113.528 50.3792C113.331 50.5645 113.093 50.7067 112.815 50.8055C112.543 50.9044 112.231 50.9538 111.878 50.9538ZM110.238 48.7758V47.9509H113.575V48.7758H110.238ZM118.459 50.8426L118.468 44.9294L118.57 44.3548H119.506L119.497 50.8426H118.459ZM117.059 46.2548V45.2816C117.201 45.2878 117.362 45.2476 117.541 45.1611C117.727 45.0684 117.909 44.948 118.088 44.7997C118.267 44.6514 118.428 44.5 118.57 44.3455L119.237 45.0406C119.021 45.2693 118.796 45.4793 118.561 45.6709C118.326 45.8624 118.082 46.0107 117.829 46.1158C117.581 46.2208 117.325 46.2671 117.059 46.2548ZM123.167 50.9538C122.882 50.9538 122.592 50.9106 122.295 50.8241C122.005 50.7314 121.736 50.5954 121.489 50.4162C121.242 50.2309 121.054 49.9992 120.924 49.7211L121.878 49.3689C122.039 49.5975 122.227 49.7644 122.444 49.8694C122.66 49.9683 122.882 50.0177 123.111 50.0177C123.476 50.0177 123.772 49.9096 124.001 49.6933C124.229 49.4709 124.344 49.1774 124.344 48.8128C124.344 48.4606 124.233 48.1702 124.01 47.9416C123.788 47.713 123.497 47.5987 123.139 47.5987C122.929 47.5987 122.731 47.645 122.546 47.7377C122.367 47.8304 122.227 47.9416 122.129 48.0714L121.155 47.8582L121.517 44.3548H125.104V45.328H121.647L121.517 44.3919H122.583L122.138 47.9416L121.48 47.8582C121.554 47.7346 121.65 47.611 121.767 47.4875C121.891 47.3577 122.039 47.2372 122.212 47.126C122.385 47.0148 122.577 46.9252 122.787 46.8572C122.997 46.7893 123.225 46.7584 123.473 46.7645C123.843 46.7645 124.177 46.851 124.474 47.0241C124.77 47.1971 125.005 47.4349 125.178 47.7377C125.351 48.0343 125.437 48.3772 125.437 48.7665C125.437 49.199 125.339 49.579 125.141 49.9065C124.949 50.234 124.684 50.4904 124.344 50.6758C124.004 50.8611 123.612 50.9538 123.167 50.9538ZM126.124 51.9084L126.681 49.8045H127.774L126.94 51.9084H126.124ZM131.874 50.4997L130.826 50.0177C130.826 49.8262 130.876 49.6284 130.975 49.4245C131.074 49.2145 131.213 49.0044 131.392 48.7943C131.577 48.5842 131.793 48.3865 132.041 48.2011L133.171 47.3855C133.313 47.2867 133.443 47.1723 133.561 47.0426C133.684 46.9128 133.783 46.7769 133.857 46.6348C133.931 46.4865 133.968 46.3413 133.968 46.1992C133.968 46.02 133.922 45.8562 133.829 45.708C133.743 45.5597 133.616 45.4423 133.449 45.3558C133.289 45.2693 133.091 45.226 132.856 45.226C132.646 45.226 132.458 45.2693 132.291 45.3558C132.13 45.4361 131.997 45.5442 131.892 45.6802C131.787 45.8161 131.713 45.9644 131.67 46.125L130.567 45.9211C130.629 45.6245 130.759 45.3496 130.956 45.0962C131.16 44.8367 131.42 44.6297 131.735 44.4753C132.056 44.3208 132.421 44.2436 132.828 44.2436C133.286 44.2436 133.681 44.327 134.015 44.4938C134.355 44.6606 134.614 44.8923 134.793 45.1889C134.979 45.4793 135.071 45.813 135.071 46.1899C135.071 46.573 134.966 46.919 134.756 47.228C134.552 47.5307 134.265 47.8211 133.894 48.0992L132.856 48.8684C132.683 48.992 132.519 49.1341 132.365 49.2948C132.217 49.4493 132.096 49.6254 132.004 49.8231C131.917 50.0208 131.874 50.2463 131.874 50.4997ZM130.826 50.8426V50.0177L131.624 49.888H135.155V50.8426H130.826ZM138.605 50.9538C138.099 50.9538 137.648 50.8117 137.252 50.5275C136.857 50.2371 136.545 49.8416 136.316 49.3411C136.094 48.8345 135.982 48.2536 135.982 47.5987C135.982 46.9437 136.094 46.366 136.316 45.8655C136.545 45.3589 136.854 44.9634 137.243 44.6792C137.638 44.3888 138.092 44.2436 138.605 44.2436C139.118 44.2436 139.572 44.3888 139.968 44.6792C140.363 44.9634 140.672 45.3589 140.895 45.8655C141.123 46.366 141.237 46.9437 141.237 47.5987C141.237 48.2536 141.123 48.8345 140.895 49.3411C140.672 49.8416 140.363 50.2371 139.968 50.5275C139.578 50.8117 139.124 50.9538 138.605 50.9538ZM138.615 49.9806C138.917 49.9806 139.186 49.8787 139.421 49.6748C139.662 49.4709 139.847 49.1897 139.977 48.8314C140.113 48.473 140.181 48.0621 140.181 47.5987C140.181 47.1353 140.113 46.7244 139.977 46.366C139.847 46.0015 139.662 45.7172 139.421 45.5133C139.186 45.3094 138.914 45.2075 138.605 45.2075C138.296 45.2075 138.024 45.3094 137.79 45.5133C137.555 45.7172 137.369 45.9984 137.234 46.3567C137.104 46.7151 137.039 47.1291 137.039 47.5987C137.039 48.0621 137.104 48.473 137.234 48.8314C137.369 49.1897 137.555 49.4709 137.79 49.6748C138.031 49.8787 138.306 49.9806 138.615 49.9806ZM143.142 50.4997L142.095 50.0177C142.095 49.8262 142.145 49.6284 142.243 49.4245C142.342 49.2145 142.481 49.0044 142.66 48.7943C142.846 48.5842 143.062 48.3865 143.309 48.2011L144.44 47.3855C144.582 47.2867 144.712 47.1723 144.829 47.0426C144.953 46.9128 145.052 46.7769 145.126 46.6348C145.2 46.4865 145.237 46.3413 145.237 46.1992C145.237 46.02 145.191 45.8562 145.098 45.708C145.011 45.5597 144.885 45.4423 144.718 45.3558C144.557 45.2693 144.36 45.226 144.125 45.226C143.915 45.226 143.726 45.2693 143.559 45.3558C143.399 45.4361 143.266 45.5442 143.161 45.6802C143.056 45.8161 142.982 45.9644 142.938 46.125L141.836 45.9211C141.897 45.6245 142.027 45.3496 142.225 45.0962C142.429 44.8367 142.688 44.6297 143.003 44.4753C143.325 44.3208 143.689 44.2436 144.097 44.2436C144.554 44.2436 144.95 44.327 145.283 44.4938C145.623 44.6606 145.883 44.8923 146.062 45.1889C146.247 45.4793 146.34 45.813 146.34 46.1899C146.34 46.573 146.235 46.919 146.025 47.228C145.821 47.5307 145.534 47.8211 145.163 48.0992L144.125 48.8684C143.952 48.992 143.788 49.1341 143.634 49.2948C143.485 49.4493 143.365 49.6254 143.272 49.8231C143.186 50.0208 143.142 50.2463 143.142 50.4997ZM142.095 50.8426V50.0177L142.892 49.888H146.423V50.8426H142.095ZM149.448 50.9538C149.095 50.9538 148.774 50.9013 148.484 50.7962C148.193 50.6912 147.949 50.5429 147.751 50.3514C147.554 50.1598 147.412 49.9436 147.325 49.7026L148.289 49.3411C148.338 49.4276 148.406 49.5234 148.493 49.6284C148.579 49.7335 148.694 49.8262 148.836 49.9065C148.978 49.9806 149.16 50.0177 149.383 50.0177C149.735 50.0177 150.013 49.9189 150.217 49.7211C150.427 49.5172 150.532 49.2608 150.532 48.9519C150.532 48.7294 150.473 48.5379 150.356 48.3772C150.245 48.2166 150.068 48.093 149.828 48.0065C149.593 47.92 149.296 47.8767 148.938 47.8767H148.641V47.1167H148.91C149.287 47.1167 149.636 47.16 149.957 47.2465C150.285 47.333 150.572 47.4628 150.819 47.6358C151.073 47.8026 151.267 48.0065 151.403 48.2475C151.545 48.4884 151.616 48.7603 151.616 49.0631C151.616 49.4523 151.514 49.7891 151.31 50.0733C151.113 50.3575 150.85 50.5769 150.523 50.7314C150.195 50.8797 149.837 50.9538 149.448 50.9538ZM148.641 47.7099V46.987H148.938C149.414 46.987 149.775 46.9067 150.022 46.746C150.269 46.5854 150.393 46.3598 150.393 46.0694C150.393 45.9026 150.35 45.7543 150.263 45.6245C150.183 45.4886 150.065 45.3805 149.911 45.3002C149.756 45.2198 149.574 45.1797 149.364 45.1797C149.228 45.1797 149.095 45.2013 148.966 45.2445C148.836 45.2878 148.715 45.3558 148.604 45.4484C148.493 45.5411 148.4 45.6616 148.326 45.8099L147.39 45.467C147.483 45.2075 147.631 44.9881 147.835 44.8089C148.039 44.6236 148.277 44.4845 148.548 44.3919C148.82 44.293 149.105 44.2436 149.401 44.2436C149.797 44.2436 150.149 44.3177 150.458 44.466C150.773 44.6143 151.02 44.8213 151.199 45.087C151.385 45.3465 151.477 45.6462 151.477 45.986C151.477 46.2702 151.406 46.5205 151.264 46.7367C151.128 46.953 150.94 47.1353 150.699 47.2836C150.458 47.4257 150.183 47.5338 149.874 47.608C149.571 47.6759 149.247 47.7099 148.901 47.7099H148.641Z" fill="#4D5154"/>
<path d="M112.45 73.1198L114.452 66.6319H115.239L113.228 73.1198H112.45ZM108.501 73.1198L106.518 66.6319H107.306L109.271 73.1198H108.501ZM108.585 73.1198L110.494 66.6319H111.245L109.336 73.1198H108.585ZM112.385 73.1198L110.522 66.6319H111.273L113.163 73.1198H112.385ZM117.63 73.231C117.179 73.231 116.781 73.129 116.435 72.9251C116.089 72.715 115.817 72.4277 115.619 72.0632C115.427 71.6986 115.332 71.2785 115.332 70.8027C115.332 70.3269 115.427 69.9067 115.619 69.5422C115.817 69.1776 116.085 68.8934 116.425 68.6895C116.771 68.4794 117.167 68.3744 117.612 68.3744C118.038 68.3744 118.409 68.4825 118.724 68.6988C119.045 68.9089 119.292 69.2054 119.465 69.5885C119.638 69.9716 119.725 70.4227 119.725 70.9417H118.983C118.983 70.5463 118.931 70.2095 118.826 69.9315C118.721 69.6472 118.563 69.4279 118.353 69.2734C118.149 69.1189 117.899 69.0417 117.602 69.0417C117.3 69.0417 117.031 69.1158 116.796 69.2641C116.567 69.4063 116.391 69.6102 116.268 69.8758C116.144 70.1415 116.082 70.4536 116.082 70.8119C116.082 71.1641 116.15 71.47 116.286 71.7295C116.422 71.9828 116.611 72.1837 116.852 72.3319C117.093 72.4741 117.364 72.5451 117.667 72.5451C117.989 72.5451 118.26 72.4679 118.483 72.3134C118.705 72.1589 118.881 71.9581 119.011 71.711L119.66 72.0354C119.543 72.2763 119.385 72.4864 119.187 72.6656C118.996 72.8448 118.767 72.9838 118.501 73.0827C118.242 73.1815 117.951 73.231 117.63 73.231ZM115.823 70.9417L115.832 70.3022H119.271V70.9417H115.823ZM124.089 73.1198L124.052 72.2578V66.6319H124.794V73.1198H124.089ZM122.486 73.231C122.072 73.231 121.707 73.129 121.392 72.9251C121.077 72.7212 120.83 72.437 120.651 72.0724C120.478 71.7017 120.391 71.2785 120.391 70.8027C120.391 70.3207 120.478 69.8975 120.651 69.5329C120.83 69.1684 121.077 68.8841 121.392 68.6802C121.707 68.4763 122.072 68.3744 122.486 68.3744C122.875 68.3744 123.215 68.4763 123.505 68.6802C123.802 68.8841 124.031 69.1684 124.191 69.5329C124.352 69.8975 124.432 70.3207 124.432 70.8027C124.432 71.2785 124.352 71.7017 124.191 72.0724C124.031 72.437 123.802 72.7212 123.505 72.9251C123.215 73.129 122.875 73.231 122.486 73.231ZM122.653 72.5544C122.925 72.5544 123.165 72.4802 123.376 72.3319C123.586 72.1837 123.749 71.9767 123.867 71.711C123.99 71.4453 124.052 71.1425 124.052 70.8027C124.052 70.4628 123.99 70.1601 123.867 69.8944C123.749 69.6287 123.586 69.4217 123.376 69.2734C123.165 69.1251 122.921 69.051 122.643 69.051C122.353 69.051 122.093 69.1251 121.865 69.2734C121.642 69.4217 121.466 69.6287 121.337 69.8944C121.207 70.1601 121.142 70.4628 121.142 70.8027C121.142 71.1425 121.207 71.4453 121.337 71.711C121.466 71.9767 121.645 72.1837 121.874 72.3319C122.103 72.4802 122.362 72.5544 122.653 72.5544ZM126.091 73.1198V68.4856H126.786L126.832 69.3383V73.1198H126.091ZM129.344 73.1198V70.7471L130.085 70.469V73.1198H129.344ZM129.344 70.7471C129.344 70.2898 129.291 69.9407 129.186 69.6998C129.081 69.4588 128.936 69.295 128.751 69.2085C128.565 69.1158 128.355 69.0695 128.12 69.0695C127.713 69.0695 127.394 69.2147 127.166 69.5051C126.943 69.7893 126.832 70.1941 126.832 70.7193H126.471C126.471 70.2311 126.542 69.811 126.684 69.4588C126.826 69.1066 127.03 68.8378 127.295 68.6524C127.567 68.4671 127.895 68.3744 128.278 68.3744C128.84 68.3744 129.282 68.5474 129.603 68.8934C129.931 69.2394 130.091 69.7646 130.085 70.469L129.344 70.7471ZM133.289 73.231C132.837 73.231 132.439 73.129 132.093 72.9251C131.747 72.715 131.475 72.4277 131.277 72.0632C131.086 71.6986 130.99 71.2785 130.99 70.8027C130.99 70.3269 131.086 69.9067 131.277 69.5422C131.475 69.1776 131.744 68.8934 132.084 68.6895C132.43 68.4794 132.825 68.3744 133.27 68.3744C133.696 68.3744 134.067 68.4825 134.382 68.6988C134.703 68.9089 134.951 69.2054 135.124 69.5885C135.297 69.9716 135.383 70.4227 135.383 70.9417H134.642C134.642 70.5463 134.589 70.2095 134.484 69.9315C134.379 69.6472 134.222 69.4279 134.011 69.2734C133.808 69.1189 133.557 69.0417 133.261 69.0417C132.958 69.0417 132.689 69.1158 132.454 69.2641C132.226 69.4063 132.05 69.6102 131.926 69.8758C131.802 70.1415 131.741 70.4536 131.741 70.8119C131.741 71.1641 131.809 71.47 131.945 71.7295C132.081 71.9828 132.269 72.1837 132.51 72.3319C132.751 72.4741 133.023 72.5451 133.326 72.5451C133.647 72.5451 133.919 72.4679 134.141 72.3134C134.364 72.1589 134.54 71.9581 134.669 71.711L135.318 72.0354C135.201 72.2763 135.043 72.4864 134.846 72.6656C134.654 72.8448 134.425 72.9838 134.16 73.0827C133.9 73.1815 133.61 73.231 133.289 73.231ZM131.481 70.9417L131.49 70.3022H134.929V70.9417H131.481ZM137.94 73.231C137.6 73.231 137.304 73.1815 137.05 73.0827C136.797 72.9776 136.584 72.8417 136.411 72.6749C136.244 72.508 136.124 72.3258 136.05 72.128L136.698 71.8593C136.803 72.0693 136.961 72.2393 137.171 72.369C137.381 72.4988 137.613 72.5637 137.866 72.5637C138.157 72.5637 138.401 72.508 138.598 72.3968C138.796 72.2794 138.895 72.1157 138.895 71.9056C138.895 71.7141 138.821 71.5596 138.672 71.4422C138.53 71.3248 138.317 71.229 138.033 71.1549L137.588 71.0344C137.168 70.9232 136.84 70.7563 136.606 70.5339C136.371 70.3053 136.253 70.0489 136.253 69.7646C136.253 69.3259 136.396 68.9861 136.68 68.7451C136.97 68.498 137.4 68.3744 137.968 68.3744C138.24 68.3744 138.487 68.4145 138.71 68.4949C138.932 68.5752 139.123 68.6895 139.284 68.8378C139.445 68.9799 139.562 69.1498 139.636 69.3476L138.988 69.6349C138.907 69.4248 138.774 69.2734 138.589 69.1807C138.404 69.088 138.178 69.0417 137.912 69.0417C137.628 69.0417 137.406 69.1035 137.245 69.2271C137.084 69.3445 137.004 69.5113 137.004 69.7276C137.004 69.8511 137.069 69.9685 137.199 70.0798C137.335 70.1848 137.532 70.2713 137.792 70.3393L138.255 70.4598C138.558 70.5339 138.811 70.6451 139.015 70.7934C139.219 70.9355 139.374 71.0993 139.479 71.2846C139.584 71.47 139.636 71.6677 139.636 71.8778C139.636 72.1558 139.562 72.3968 139.414 72.6007C139.266 72.8046 139.065 72.9622 138.811 73.0734C138.558 73.1785 138.268 73.231 137.94 73.231ZM144.065 73.1198L144.028 72.2578V66.6319H144.769V73.1198H144.065ZM142.462 73.231C142.048 73.231 141.683 73.129 141.368 72.9251C141.053 72.7212 140.806 72.437 140.626 72.0724C140.453 71.7017 140.367 71.2785 140.367 70.8027C140.367 70.3207 140.453 69.8975 140.626 69.5329C140.806 69.1684 141.053 68.8841 141.368 68.6802C141.683 68.4763 142.048 68.3744 142.462 68.3744C142.851 68.3744 143.191 68.4763 143.481 68.6802C143.778 68.8841 144.006 69.1684 144.167 69.5329C144.328 69.8975 144.408 70.3207 144.408 70.8027C144.408 71.2785 144.328 71.7017 144.167 72.0724C144.006 72.437 143.778 72.7212 143.481 72.9251C143.191 73.129 142.851 73.231 142.462 73.231ZM142.628 72.5544C142.9 72.5544 143.141 72.4802 143.351 72.3319C143.561 72.1837 143.725 71.9767 143.842 71.711C143.966 71.4453 144.028 71.1425 144.028 70.8027C144.028 70.4628 143.966 70.1601 143.842 69.8944C143.725 69.6287 143.561 69.4217 143.351 69.2734C143.141 69.1251 142.897 69.051 142.619 69.051C142.329 69.051 142.069 69.1251 141.841 69.2734C141.618 69.4217 141.442 69.6287 141.312 69.8944C141.182 70.1601 141.118 70.4628 141.118 70.8027C141.118 71.1425 141.182 71.4453 141.312 71.711C141.442 71.9767 141.621 72.1837 141.85 72.3319C142.078 72.4802 142.338 72.5544 142.628 72.5544ZM148.921 73.1198L148.875 72.3598V70.6729C148.875 70.3084 148.831 70.0087 148.745 69.7739C148.665 69.5329 148.538 69.3537 148.365 69.2363C148.198 69.1128 147.976 69.051 147.698 69.051C147.432 69.051 147.2 69.1035 147.002 69.2085C146.811 69.3136 146.653 69.4773 146.53 69.6998L145.862 69.431C145.986 69.2147 146.134 69.0263 146.307 68.8656C146.48 68.705 146.681 68.5845 146.91 68.5041C147.145 68.4176 147.41 68.3744 147.707 68.3744C148.133 68.3744 148.488 68.4578 148.773 68.6246C149.057 68.7915 149.27 69.0417 149.412 69.3754C149.554 69.7028 149.622 70.1137 149.616 70.608L149.607 73.1198H148.921ZM147.531 73.231C146.987 73.231 146.561 73.1074 146.252 72.8602C145.949 72.6069 145.798 72.2578 145.798 71.8129C145.798 71.3433 145.952 70.985 146.261 70.7378C146.576 70.4845 147.015 70.3578 147.577 70.3578H148.902V70.9788H147.744C147.311 70.9788 147.002 71.0498 146.817 71.1919C146.638 71.3341 146.548 71.538 146.548 71.8037C146.548 72.0446 146.638 72.2362 146.817 72.3783C146.996 72.5142 147.246 72.5822 147.568 72.5822C147.833 72.5822 148.065 72.5204 148.263 72.3968C148.461 72.2732 148.612 72.1064 148.717 71.8963C148.822 71.6801 148.875 71.436 148.875 71.1641H149.329C149.329 71.7944 149.174 72.298 148.865 72.6749C148.556 73.0456 148.111 73.231 147.531 73.231ZM151.136 75.0846C151.018 75.0846 150.882 75.0599 150.728 75.0105C150.573 74.9672 150.41 74.9085 150.237 74.8344L150.515 74.2134C150.657 74.2752 150.78 74.3215 150.885 74.3524C150.997 74.3833 151.083 74.3988 151.145 74.3988C151.312 74.3988 151.448 74.3524 151.553 74.2598C151.664 74.1732 151.757 74.0466 151.831 73.8798L152.359 72.6193L154.074 68.4856H154.871L152.646 73.7685C152.529 74.0404 152.405 74.2752 152.276 74.4729C152.152 74.6706 152.001 74.822 151.821 74.9271C151.642 75.0321 151.414 75.0846 151.136 75.0846ZM152.155 73.1198L150.153 68.4856H150.941L152.665 72.61L152.887 73.1198H152.155Z" fill="#7A7C7F"/>
<path d="M110.192 89.8208C109.611 89.8208 109.1 89.7341 108.658 89.5608C108.224 89.3874 107.873 89.1578 107.605 88.8718C107.336 88.5858 107.154 88.2824 107.059 87.9618L108.19 87.5978C108.311 87.9011 108.532 88.1698 108.853 88.4038C109.173 88.6291 109.572 88.7418 110.049 88.7418C110.603 88.7504 111.041 88.6421 111.362 88.4168C111.691 88.1828 111.856 87.8838 111.856 87.5198C111.856 87.1818 111.713 86.9044 111.427 86.6878C111.141 86.4624 110.768 86.2934 110.309 86.1808L109.373 85.9468C108.991 85.8428 108.645 85.6954 108.333 85.5048C108.029 85.3054 107.791 85.0584 107.618 84.7638C107.444 84.4691 107.358 84.1181 107.358 83.7108C107.358 82.9654 107.6 82.3804 108.086 81.9558C108.58 81.5311 109.286 81.3188 110.205 81.3188C110.733 81.3188 111.193 81.4054 111.583 81.5788C111.973 81.7434 112.293 81.9644 112.545 82.2418C112.796 82.5191 112.974 82.8181 113.078 83.1388L111.934 83.5288C111.812 83.1994 111.591 82.9308 111.271 82.7228C110.95 82.5061 110.564 82.3978 110.114 82.3978C109.637 82.3978 109.26 82.5104 108.983 82.7358C108.714 82.9611 108.58 83.2644 108.58 83.6458C108.58 83.9924 108.688 84.2568 108.905 84.4388C109.121 84.6208 109.403 84.7551 109.75 84.8418L110.712 85.0758C111.474 85.2578 112.064 85.5698 112.48 86.0118C112.896 86.4538 113.104 86.9348 113.104 87.4548C113.104 87.9054 112.991 88.3084 112.766 88.6638C112.54 89.0191 112.211 89.3008 111.778 89.5088C111.353 89.7168 110.824 89.8208 110.192 89.8208ZM109.672 91.4588V79.9798H110.751V91.4588H109.672ZM117.258 90.2758C116.79 90.2758 116.365 90.2064 115.984 90.0678C115.602 89.9291 115.282 89.7384 115.022 89.4958C114.762 89.2531 114.562 88.9888 114.424 88.7028L115.529 88.1958C115.615 88.3171 115.724 88.4558 115.854 88.6118C115.984 88.7591 116.157 88.8848 116.374 88.9888C116.59 89.0928 116.859 89.1448 117.18 89.1448C117.726 89.1448 118.159 88.9888 118.48 88.6768C118.809 88.3648 118.974 87.9704 118.974 87.4938C118.974 87.1384 118.878 86.8394 118.688 86.5968C118.497 86.3454 118.215 86.1548 117.843 86.0248C117.479 85.8948 117.032 85.8298 116.504 85.8298H116.179V84.8678H116.478C117.015 84.8678 117.509 84.9284 117.96 85.0498C118.419 85.1711 118.822 85.3531 119.169 85.5958C119.515 85.8298 119.784 86.1158 119.975 86.4538C120.165 86.7918 120.261 87.1774 120.261 87.6108C120.261 88.1481 120.122 88.6204 119.845 89.0278C119.576 89.4264 119.212 89.7341 118.753 89.9508C118.302 90.1674 117.804 90.2758 117.258 90.2758ZM116.179 85.6738V84.7508H116.504C117.214 84.7508 117.769 84.6294 118.168 84.3868C118.566 84.1441 118.766 83.8018 118.766 83.3598C118.766 83.1084 118.696 82.8831 118.558 82.6838C118.428 82.4758 118.241 82.3111 117.999 82.1898C117.765 82.0598 117.483 81.9948 117.154 81.9948C116.946 81.9948 116.742 82.0294 116.543 82.0988C116.352 82.1594 116.174 82.2548 116.01 82.3848C115.845 82.5061 115.702 82.6664 115.581 82.8658L114.515 82.3848C114.662 82.0641 114.87 81.7911 115.139 81.5658C115.407 81.3404 115.719 81.1671 116.075 81.0458C116.43 80.9244 116.807 80.8638 117.206 80.8638C117.752 80.8638 118.237 80.9678 118.662 81.1758C119.086 81.3838 119.42 81.6698 119.663 82.0338C119.914 82.3978 120.04 82.8094 120.04 83.2688C120.04 83.6588 119.944 84.0054 119.754 84.3088C119.572 84.6034 119.316 84.8548 118.987 85.0628C118.657 85.2621 118.276 85.4138 117.843 85.5178C117.418 85.6218 116.959 85.6738 116.465 85.6738H116.179ZM121.312 91.6148L122.066 88.7808H123.405L122.313 91.6148H121.312ZM125.88 89.5478L124.619 89.0928C124.619 88.8241 124.679 88.5468 124.801 88.2608C124.931 87.9661 125.113 87.6758 125.347 87.3898C125.589 87.1038 125.875 86.8394 126.205 86.5968L127.96 85.2968C128.168 85.1494 128.354 84.9804 128.519 84.7898C128.692 84.5904 128.826 84.3868 128.922 84.1788C129.026 83.9621 129.078 83.7498 129.078 83.5418C129.078 83.2644 129.008 83.0131 128.87 82.7878C128.731 82.5538 128.536 82.3718 128.285 82.2418C128.033 82.1031 127.734 82.0338 127.388 82.0338C127.058 82.0338 126.768 82.0988 126.517 82.2288C126.274 82.3501 126.07 82.5148 125.906 82.7228C125.741 82.9308 125.624 83.1518 125.555 83.3858L124.242 83.1388C124.337 82.7401 124.523 82.3674 124.801 82.0208C125.078 81.6741 125.433 81.3968 125.867 81.1888C126.3 80.9721 126.79 80.8638 127.336 80.8638C127.96 80.8638 128.497 80.9808 128.948 81.2148C129.407 81.4401 129.762 81.7564 130.014 82.1638C130.265 82.5624 130.391 83.0218 130.391 83.5418C130.391 84.0444 130.252 84.5081 129.975 84.9328C129.706 85.3574 129.316 85.7691 128.805 86.1678L127.18 87.3898C126.928 87.5718 126.703 87.7711 126.504 87.9878C126.304 88.2044 126.148 88.4428 126.036 88.7028C125.932 88.9541 125.88 89.2358 125.88 89.5478ZM124.619 90.1198V89.0928L125.581 88.9758H130.508V90.1198H124.619ZM135.402 90.2758C134.7 90.2758 134.076 90.0764 133.53 89.6778C132.984 89.2704 132.555 88.7158 132.243 88.0138C131.939 87.3031 131.788 86.4884 131.788 85.5698C131.788 84.6511 131.939 83.8408 132.243 83.1388C132.555 82.4281 132.979 81.8734 133.517 81.4748C134.063 81.0674 134.691 80.8638 135.402 80.8638C136.112 80.8638 136.736 81.0674 137.274 81.4748C137.82 81.8734 138.249 82.4281 138.561 83.1388C138.873 83.8408 139.029 84.6511 139.029 85.5698C139.029 86.4884 138.873 87.3031 138.561 88.0138C138.257 88.7158 137.833 89.2704 137.287 89.6778C136.741 90.0764 136.112 90.2758 135.402 90.2758ZM135.402 89.1058C135.861 89.1058 136.268 88.9541 136.624 88.6508C136.988 88.3474 137.269 87.9314 137.469 87.4028C137.668 86.8741 137.768 86.2631 137.768 85.5698C137.768 84.8764 137.668 84.2654 137.469 83.7368C137.269 83.1994 136.988 82.7791 136.624 82.4758C136.268 82.1724 135.861 82.0208 135.402 82.0208C134.942 82.0208 134.535 82.1724 134.18 82.4758C133.824 82.7791 133.547 83.1994 133.348 83.7368C133.148 84.2654 133.049 84.8764 133.049 85.5698C133.049 86.2631 133.148 86.8784 133.348 87.4158C133.547 87.9444 133.824 88.3604 134.18 88.6638C134.535 88.9584 134.942 89.1058 135.402 89.1058ZM141.025 87.5848L140.089 87.0258L144.197 81.0198L145.003 81.7478L141.025 87.5848ZM140.089 88.0268V87.0258L140.869 86.8958H147.304V88.0268H140.089ZM144.288 90.1198V81.7998L144.197 81.0198H145.523V90.1198H144.288Z" fill="#4D5154"/>
<circle cx="97.1662" cy="70.0177" r="3.37029" fill="#5655D7"/>
<line x1="94" y1="57.7894" x2="171" y2="57.7894" stroke="#DCDCDC" stroke-width="0.421286"/>
<defs>
<filter id="filter0_d_346_1568" x="150.443" y="107.619" width="31.1752" height="31.1752" filterUnits="userSpaceOnUse" color-interpolation-filters="sRGB">
<feFlood flood-opacity="0" result="BackgroundImageFix"/>
<feColorMatrix in="SourceAlpha" type="matrix" values="0 0 0 0 0 0 0 0 0 0 0 0 0 0 0 0 0 0 127 0" result="hardAlpha"/>
<feOffset dy="3.37029"/>
<feGaussianBlur stdDeviation="3.37029"/>
<feColorMatrix type="matrix" values="0 0 0 0 0 0 0 0 0 0 0 0 0 0 0 0 0 0 0.04 0"/>
<feBlend mode="normal" in2="BackgroundImageFix" result="effect1_dropShadow_346_1568"/>
<feBlend mode="normal" in="SourceGraphic" in2="effect1_dropShadow_346_1568" result="shape"/>
</filter>
<filter id="filter1_d_346_1568" x="74.9446" y="30.6297" width="115.111" height="85.1109" filterUnits="userSpaceOnUse" color-interpolation-filters="sRGB">
<feFlood flood-opacity="0" result="BackgroundImageFix"/>
<feColorMatrix in="SourceAlpha" type="matrix" values="0 0 0 0 0 0 0 0 0 0 0 0 0 0 0 0 0 0 127 0" result="hardAlpha"/>
<feOffset dy="1.68514"/>
<feGaussianBlur stdDeviation="2.52772"/>
<feComposite in2="hardAlpha" operator="out"/>
<feColorMatrix type="matrix" values="0 0 0 0 0.564706 0 0 0 0 0.572549 0 0 0 0 0.580392 0 0 0 0.2 0"/>
<feBlend mode="normal" in2="BackgroundImageFix" result="effect1_dropShadow_346_1568"/>
<feBlend mode="normal" in="SourceGraphic" in2="effect1_dropShadow_346_1568" result="shape"/>
</filter>
<linearGradient id="paint0_linear_346_1568" x1="-146" y1="296.882" x2="17.5814" y2="-221.451" gradientUnits="userSpaceOnUse">
<stop stop-color="#5655D7"/>
<stop offset="1" stop-color="#7F7EFF"/>
</linearGradient>
</defs>
</svg>
