<svg width="48" height="49" viewBox="0 0 48 49" fill="none" xmlns="http://www.w3.org/2000/svg">
<rect x="0.5" y="1.02722" width="47" height="47" rx="9.5" stroke="#DCDCDC"/>
<path d="M37.125 28.9022V32.4022C37.125 32.6343 37.0328 32.8568 36.8687 33.0209C36.7046 33.185 36.482 33.2772 36.25 33.2772C36.0179 33.2772 35.7953 33.185 35.6312 33.0209C35.4671 32.8568 35.375 32.6343 35.375 32.4022V31.0143L35.1332 31.2571C34.7942 31.6257 30.72 35.9022 24 35.9022C17.1268 35.9022 13.0209 31.4277 12.8492 31.2374C12.694 31.0641 12.614 30.8362 12.6268 30.6039C12.6396 30.3716 12.7442 30.1539 12.9175 29.9987C13.0909 29.8435 13.3187 29.7635 13.551 29.7763C13.7833 29.7892 14.001 29.8937 14.1562 30.0671C14.1857 30.1053 17.9296 34.1522 24 34.1522C30.0703 34.1522 33.8142 30.1053 33.8514 30.066C33.8606 30.0545 33.8705 30.0436 33.8809 30.0332L34.1379 29.7772H32.75C32.5179 29.7772 32.2953 29.685 32.1312 29.5209C31.9671 29.3568 31.875 29.1343 31.875 28.9022C31.875 28.6702 31.9671 28.4476 32.1312 28.2835C32.2953 28.1194 32.5179 28.0272 32.75 28.0272H36.25C36.482 28.0272 36.7046 28.1194 36.8687 28.2835C37.0328 28.4476 37.125 28.6702 37.125 28.9022ZM27.5 20.8664V19.7147C27.5005 18.83 27.2031 17.9708 26.6557 17.2758C26.1083 16.5808 25.3427 16.0903 24.4825 15.8836C23.6222 15.6769 22.7174 15.7659 21.914 16.1363C21.1105 16.5067 20.4552 17.1369 20.0537 17.9253C19.9481 18.132 19.7648 18.2883 19.5439 18.3598C19.3231 18.4313 19.083 18.4121 18.8763 18.3065C18.6696 18.2009 18.5133 18.0176 18.4419 17.7967C18.3704 17.5759 18.3895 17.3358 18.4951 17.1291C19.0753 15.9907 20.0219 15.0808 21.1824 14.5461C22.3429 14.0114 23.6496 13.8831 24.8919 14.1817C26.1343 14.4804 27.2398 15.1887 28.0305 16.1925C28.8211 17.1962 29.2506 18.437 29.25 19.7147V29.7772C29.25 30.0093 29.1578 30.2318 28.9937 30.3959C28.8296 30.56 28.607 30.6522 28.375 30.6522C28.1429 30.6522 27.9203 30.56 27.7562 30.3959C27.5921 30.2318 27.5 30.0093 27.5 29.7772V29.063C26.6961 29.8365 25.6825 30.3565 24.5854 30.5584C23.4882 30.7602 22.3559 30.6349 21.3294 30.1981C20.3029 29.7613 19.4276 29.0323 18.8123 28.1017C18.197 27.1712 17.8689 26.0803 17.8689 24.9647C17.8689 23.8492 18.197 22.7582 18.8123 21.8277C19.4276 20.8972 20.3029 20.1681 21.3294 19.7313C22.3559 19.2945 23.4882 19.1692 24.5854 19.3711C25.6825 19.5729 26.6961 20.0929 27.5 20.8664ZM27.5 24.9647C27.5 24.186 27.269 23.4247 26.8364 22.7772C26.4037 22.1296 25.7888 21.625 25.0693 21.3269C24.3498 21.0289 23.5581 20.9509 22.7943 21.1029C22.0305 21.2548 21.3289 21.6298 20.7782 22.1805C20.2276 22.7312 19.8525 23.4328 19.7006 24.1966C19.5487 24.9604 19.6267 25.7521 19.9247 26.4715C20.2227 27.191 20.7274 27.806 21.3749 28.2386C22.0224 28.6713 22.7837 28.9022 23.5625 28.9022C24.0795 28.9022 24.5916 28.8004 25.0693 28.6025C25.547 28.4046 25.9811 28.1146 26.3467 27.749C26.7123 27.3833 27.0024 26.9493 27.2002 26.4715C27.3981 25.9938 27.5 25.4818 27.5 24.9647Z" fill="#00997E"/>
</svg>
