<svg width="16" height="17" viewBox="0 0 16 17" fill="none" xmlns="http://www.w3.org/2000/svg">
<path d="M13 2.02722L3 2.02722C2.73478 2.02722 2.48043 2.13258 2.29289 2.32011C2.10536 2.50765 2 2.76201 2 3.02722L2 13.0272C2 13.2924 2.10536 13.5468 2.29289 13.7343C2.48043 13.9219 2.73478 14.0272 3 14.0272L13 14.0272C13.2652 14.0272 13.5196 13.9219 13.7071 13.7343C13.8946 13.5468 14 13.2924 14 13.0272L14 3.02722C14 2.76201 13.8946 2.50765 13.7071 2.32011C13.5196 2.13258 13.2652 2.02722 13 2.02722ZM13 13.0272L3 13.0272L3 3.02722L13 3.02722L13 13.0272ZM5.64625 10.381C5.59976 10.3345 5.56288 10.2794 5.53772 10.2187C5.51256 10.158 5.49961 10.0929 5.49961 10.0272C5.49961 9.96151 5.51256 9.89645 5.53772 9.83575C5.56288 9.77505 5.59976 9.71991 5.64625 9.67347L8.79313 6.52722H7C6.86739 6.52722 6.74021 6.47454 6.64645 6.38077C6.55268 6.28701 6.5 6.15983 6.5 6.02722C6.5 5.89461 6.55268 5.76744 6.64645 5.67367C6.74021 5.5799 6.86739 5.52722 7 5.52722L10 5.52722C10.1326 5.52722 10.2598 5.5799 10.3536 5.67367C10.4473 5.76744 10.5 5.89461 10.5 6.02722L10.5 9.02722C10.5 9.15983 10.4473 9.28701 10.3536 9.38078C10.2598 9.47454 10.1326 9.52722 10 9.52722C9.86739 9.52722 9.74021 9.47454 9.64645 9.38078C9.55268 9.28701 9.5 9.15983 9.5 9.02722V7.2341L6.35375 10.381C6.30731 10.4275 6.25217 10.4643 6.19147 10.4895C6.13077 10.5147 6.06571 10.5276 6 10.5276C5.93429 10.5276 5.86923 10.5147 5.80853 10.4895C5.74783 10.4643 5.69269 10.4275 5.64625 10.381Z" fill="#00997E"/>
</svg>
