<svg width="48" height="49" viewBox="0 0 48 49" fill="none" xmlns="http://www.w3.org/2000/svg">
<rect x="0.5" y="1.02722" width="47" height="47" rx="9.5" stroke="#DCDCDC"/>
<path d="M24 13.1522C21.7502 13.1522 19.551 13.8194 17.6804 15.0693C15.8098 16.3192 14.3518 18.0957 13.4909 20.1742C12.6299 22.2527 12.4047 24.5398 12.8436 26.7464C13.2825 28.9529 14.3658 30.9797 15.9567 32.5706C17.5475 34.1614 19.5743 35.2447 21.7809 35.6837C23.9874 36.1226 26.2745 35.8973 28.353 35.0363C30.4315 34.1754 32.2081 32.7174 33.458 30.8468C34.7079 28.9762 35.375 26.777 35.375 24.5272C35.3718 21.5114 34.1724 18.6199 32.0398 16.4874C29.9073 14.3549 27.0159 13.1554 24 13.1522ZM24.875 34.1118V27.1522H27.5C27.7321 27.1522 27.9546 27.06 28.1187 26.8959C28.2828 26.7318 28.375 26.5093 28.375 26.2772C28.375 26.0452 28.2828 25.8226 28.1187 25.6585C27.9546 25.4944 27.7321 25.4022 27.5 25.4022H24.875V22.7772C24.875 22.3131 25.0594 21.868 25.3876 21.5398C25.7158 21.2116 26.1609 21.0272 26.625 21.0272H28.375C28.6071 21.0272 28.8296 20.935 28.9937 20.7709C29.1578 20.6068 29.25 20.3843 29.25 20.1522C29.25 19.9202 29.1578 19.6976 28.9937 19.5335C28.8296 19.3694 28.6071 19.2772 28.375 19.2772H26.625C25.6967 19.2772 24.8065 19.646 24.1501 20.3023C23.4938 20.9587 23.125 21.849 23.125 22.7772V25.4022H20.5C20.2679 25.4022 20.0454 25.4944 19.8813 25.6585C19.7172 25.8226 19.625 26.0452 19.625 26.2772C19.625 26.5093 19.7172 26.7318 19.8813 26.8959C20.0454 27.06 20.2679 27.1522 20.5 27.1522H23.125V34.1118C20.6584 33.8866 18.3735 32.7192 16.7456 30.8523C15.1178 28.9855 14.2723 26.563 14.385 24.0887C14.4977 21.6143 15.5599 19.2787 17.3507 17.5676C19.1416 15.8565 21.5231 14.9016 24 14.9016C26.4769 14.9016 28.8584 15.8565 30.6493 17.5676C32.4401 19.2787 33.5023 21.6143 33.615 24.0887C33.7277 26.563 32.8822 28.9855 31.2544 30.8523C29.6265 32.7192 27.3416 33.8866 24.875 34.1118Z" fill="url(#paint0_linear_601_7014)"/>
<defs>
<linearGradient id="paint0_linear_601_7014" x1="12.625" y1="35.9022" x2="35.375" y2="13.1522" gradientUnits="userSpaceOnUse">
<stop stop-color="#FFAE41"/>
<stop offset="1" stop-color="#FFC06A"/>
</linearGradient>
</defs>
</svg>
