<svg width="12" height="13" viewBox="0 0 12 13" fill="none" xmlns="http://www.w3.org/2000/svg">
<path d="M11 0.0272217L1 0.0272217C0.734784 0.0272217 0.48043 0.132578 0.292893 0.320115C0.105357 0.507651 0 0.762005 0 1.02722L0 11.0272C0 11.2924 0.105357 11.5468 0.292893 11.7343C0.48043 11.9219 0.734784 12.0272 1 12.0272L11 12.0272C11.2652 12.0272 11.5196 11.9219 11.7071 11.7343C11.8946 11.5468 12 11.2924 12 11.0272L12 1.02722C12 0.762005 11.8946 0.507651 11.7071 0.320115C11.5196 0.132578 11.2652 0.0272217 11 0.0272217ZM11 11.0272L1 11.0272L1 1.02722L11 1.02722L11 11.0272ZM3.64625 8.38097C3.59976 8.33454 3.56288 8.27939 3.53772 8.21869C3.51256 8.15799 3.49961 8.09293 3.49961 8.02722C3.49961 7.96151 3.51256 7.89645 3.53772 7.83575C3.56288 7.77505 3.59976 7.71991 3.64625 7.67347L6.79313 4.52722H5C4.86739 4.52722 4.74021 4.47454 4.64645 4.38077C4.55268 4.28701 4.5 4.15983 4.5 4.02722C4.5 3.89461 4.55268 3.76744 4.64645 3.67367C4.74021 3.5799 4.86739 3.52722 5 3.52722L8 3.52722C8.13261 3.52722 8.25979 3.5799 8.35355 3.67367C8.44732 3.76744 8.5 3.89461 8.5 4.02722L8.5 7.02722C8.5 7.15983 8.44732 7.28701 8.35355 7.38078C8.25979 7.47454 8.13261 7.52722 8 7.52722C7.86739 7.52722 7.74021 7.47454 7.64645 7.38078C7.55268 7.28701 7.5 7.15983 7.5 7.02722V5.2341L4.35375 8.38097C4.30731 8.42746 4.25217 8.46434 4.19147 8.4895C4.13077 8.51466 4.06571 8.52761 4 8.52761C3.93429 8.52761 3.86923 8.51466 3.80853 8.4895C3.74783 8.46434 3.69269 8.42746 3.64625 8.38097Z" fill="#00997E"/>
</svg>
