<svg width="36" height="37" viewBox="0 0 36 37" fill="none" xmlns="http://www.w3.org/2000/svg">
<rect y="0.0272217" width="36" height="36" rx="18" fill="#00997E" fill-opacity="0.08"/>
<path d="M26.125 24.2772C26.125 24.443 26.0592 24.602 25.9419 24.7192C25.8247 24.8364 25.6658 24.9022 25.5 24.9022H10.5C10.3342 24.9022 10.1753 24.8364 10.0581 24.7192C9.94085 24.602 9.875 24.443 9.875 24.2772V11.7772C9.875 11.6115 9.94085 11.4525 10.0581 11.3353C10.1753 11.2181 10.3342 11.1522 10.5 11.1522C10.6658 11.1522 10.8247 11.2181 10.9419 11.3353C11.0592 11.4525 11.125 11.6115 11.125 11.7772V19.1499L15.0883 15.6835C15.1961 15.5891 15.3331 15.5346 15.4764 15.5292C15.6196 15.5238 15.7603 15.5678 15.875 15.6538L20.4695 19.0999L25.0883 15.0585C25.1488 14.9985 25.221 14.9516 25.3004 14.9206C25.3797 14.8895 25.4646 14.8751 25.5498 14.878C25.6349 14.881 25.7186 14.9014 25.7956 14.9378C25.8726 14.9743 25.9413 15.0262 25.9976 15.0902C26.0538 15.1542 26.0963 15.2291 26.1226 15.3101C26.1488 15.3912 26.1582 15.4768 26.1502 15.5616C26.1421 15.6464 26.1168 15.7287 26.0758 15.8034C26.0348 15.8781 25.979 15.9437 25.9117 15.996L20.9117 20.371C20.8039 20.4654 20.6669 20.5198 20.5236 20.5253C20.3804 20.5307 20.2397 20.4867 20.125 20.4007L15.5305 16.9561L11.125 20.8108V23.6522H25.5C25.6658 23.6522 25.8247 23.7181 25.9419 23.8353C26.0592 23.9525 26.125 24.1115 26.125 24.2772Z" fill="#00997E"/>
</svg>
