<svg width="48" height="49" viewBox="0 0 48 49" fill="none" xmlns="http://www.w3.org/2000/svg">
<rect x="0.5" y="1.02722" width="47" height="47" rx="9.5" stroke="#DCDCDC"/>
<path d="M24 19.2772C22.9616 19.2772 21.9466 19.5851 21.0833 20.162C20.2199 20.7389 19.547 21.5588 19.1496 22.5181C18.7523 23.4774 18.6483 24.533 18.8509 25.5514C19.0535 26.5698 19.5535 27.5053 20.2877 28.2395C21.0219 28.9738 21.9574 29.4738 22.9758 29.6763C23.9942 29.8789 25.0498 29.775 26.0091 29.3776C26.9684 28.9802 27.7883 28.3073 28.3652 27.444C28.9421 26.5806 29.25 25.5656 29.25 24.5272C29.2486 23.1353 28.695 21.8008 27.7107 20.8165C26.7265 19.8323 25.3919 19.2787 24 19.2772ZM24 28.0272C23.3078 28.0272 22.6311 27.8219 22.0555 27.4374C21.4799 27.0528 21.0313 26.5062 20.7664 25.8666C20.5015 25.2271 20.4322 24.5233 20.5673 23.8444C20.7023 23.1655 21.0356 22.5418 21.5251 22.0523C22.0146 21.5629 22.6383 21.2295 23.3172 21.0945C23.9961 20.9594 24.6999 21.0287 25.3394 21.2936C25.9789 21.5585 26.5256 22.0072 26.9101 22.5827C27.2947 23.1583 27.5 23.835 27.5 24.5272C27.5 25.4555 27.1313 26.3457 26.4749 27.0021C25.8185 27.6585 24.9283 28.0272 24 28.0272ZM29.25 13.1522H18.75C17.1261 13.154 15.5692 13.7998 14.4209 14.9481C13.2726 16.0964 12.6267 17.6533 12.625 19.2772V29.7772C12.6267 31.4011 13.2726 32.958 14.4209 34.1063C15.5692 35.2546 17.1261 35.9005 18.75 35.9022H29.25C30.8739 35.9005 32.4308 35.2546 33.5791 34.1063C34.7274 32.958 35.3733 31.4011 35.375 29.7772V19.2772C35.3733 17.6533 34.7274 16.0964 33.5791 14.9481C32.4308 13.7998 30.8739 13.154 29.25 13.1522ZM33.625 29.7772C33.625 30.9375 33.1641 32.0503 32.3436 32.8708C31.5231 33.6913 30.4103 34.1522 29.25 34.1522H18.75C17.5897 34.1522 16.4769 33.6913 15.6564 32.8708C14.8359 32.0503 14.375 30.9375 14.375 29.7772V19.2772C14.375 18.1169 14.8359 17.0041 15.6564 16.1836C16.4769 15.3632 17.5897 14.9022 18.75 14.9022H29.25C30.4103 14.9022 31.5231 15.3632 32.3436 16.1836C33.1641 17.0041 33.625 18.1169 33.625 19.2772V29.7772ZM31 18.8397C31 19.0993 30.923 19.3531 30.7788 19.5689C30.6346 19.7847 30.4296 19.953 30.1898 20.0523C29.9499 20.1517 29.686 20.1776 29.4314 20.127C29.1768 20.0764 28.943 19.9514 28.7594 19.7678C28.5759 19.5842 28.4509 19.3504 28.4002 19.0958C28.3496 18.8412 28.3756 18.5773 28.4749 18.3374C28.5742 18.0976 28.7425 17.8926 28.9583 17.7484C29.1742 17.6042 29.4279 17.5272 29.6875 17.5272C30.0356 17.5272 30.3694 17.6655 30.6156 17.9116C30.8617 18.1578 31 18.4916 31 18.8397Z" fill="url(#paint0_linear_601_6990)"/>
<defs>
<linearGradient id="paint0_linear_601_6990" x1="12.625" y1="35.9022" x2="35.375" y2="13.1522" gradientUnits="userSpaceOnUse">
<stop stop-color="#4ABDE8"/>
<stop offset="1" stop-color="#77DAFF"/>
</linearGradient>
</defs>
</svg>
