<svg width="12" height="13" viewBox="0 0 12 13" fill="none" xmlns="http://www.w3.org/2000/svg">
<path d="M10.5 6.02722C10.5 6.12668 10.4605 6.22206 10.3902 6.29239C10.3198 6.36271 10.2245 6.40222 10.125 6.40222H6.375V10.1522C6.375 10.2517 6.33549 10.3471 6.26517 10.4174C6.19484 10.4877 6.09946 10.5272 6 10.5272C5.90054 10.5272 5.80516 10.4877 5.73484 10.4174C5.66451 10.3471 5.625 10.2517 5.625 10.1522V6.40222H1.875C1.77554 6.40222 1.68016 6.36271 1.60984 6.29239C1.53951 6.22206 1.5 6.12668 1.5 6.02722C1.5 5.92777 1.53951 5.83238 1.60984 5.76206C1.68016 5.69173 1.77554 5.65222 1.875 5.65222H5.625V1.90222C5.625 1.80277 5.66451 1.70738 5.73484 1.63706C5.80516 1.56673 5.90054 1.52722 6 1.52722C6.09946 1.52722 6.19484 1.56673 6.26517 1.63706C6.33549 1.70738 6.375 1.80277 6.375 1.90222V5.65222H10.125C10.2245 5.65222 10.3198 5.69173 10.3902 5.76206C10.4605 5.83238 10.5 5.92777 10.5 6.02722Z" fill="white"/>
</svg>
