<svg width="48" height="49" viewBox="0 0 48 49" fill="none" xmlns="http://www.w3.org/2000/svg">
<rect x="0.5" y="1.02722" width="47" height="47" rx="9.5" stroke="#DCDCDC"/>
<path d="M34.5 18.4022C33.1081 18.4008 31.7735 17.8472 30.7893 16.8629C29.805 15.8787 29.2514 14.5442 29.25 13.1522C29.25 12.9202 29.1578 12.6976 28.9937 12.5335C28.8296 12.3694 28.6071 12.2772 28.375 12.2772H24C23.7679 12.2772 23.5454 12.3694 23.3813 12.5335C23.2172 12.6976 23.125 12.9202 23.125 13.1522V27.5897C23.1248 27.9812 23.0196 28.3654 22.8203 28.7023C22.6211 29.0392 22.3351 29.3165 21.9921 29.5052C21.6492 29.6939 21.2619 29.7872 20.8706 29.7752C20.4794 29.7632 20.0985 29.6465 19.7677 29.4372C19.437 29.2279 19.1684 28.9336 18.9901 28.5852C18.8118 28.2367 18.7303 27.8468 18.754 27.456C18.7778 27.0653 18.9059 26.6881 19.1251 26.3638C19.3443 26.0395 19.6465 25.78 20.0002 25.6122C20.1498 25.5412 20.2762 25.4292 20.3646 25.2892C20.4531 25.1493 20.5001 24.987 20.5 24.8214V20.1522C20.5001 20.0243 20.4721 19.898 20.418 19.782C20.364 19.6661 20.2851 19.5635 20.1871 19.4813C20.0891 19.3991 19.9743 19.3394 19.8507 19.3065C19.7271 19.2735 19.5978 19.268 19.4719 19.2903C15.5683 19.986 12.625 23.5538 12.625 27.5897C12.625 29.7943 13.5008 31.9086 15.0597 33.4675C16.6186 35.0264 18.7329 35.9022 20.9375 35.9022C23.1421 35.9022 25.2564 35.0264 26.8153 33.4675C28.3742 31.9086 29.25 29.7943 29.25 27.5897V23.2464C30.8706 24.092 32.6721 24.5315 34.5 24.5272C34.7321 24.5272 34.9546 24.435 35.1187 24.2709C35.2828 24.1068 35.375 23.8843 35.375 23.6522V19.2772C35.375 19.0452 35.2828 18.8226 35.1187 18.6585C34.9546 18.4944 34.7321 18.4022 34.5 18.4022ZM33.625 22.7378C31.9151 22.5863 30.2777 21.9761 28.8858 20.9714C28.7549 20.8774 28.6007 20.8213 28.44 20.8093C28.2793 20.7973 28.1184 20.83 27.9751 20.9036C27.8318 20.9772 27.7116 21.089 27.6277 21.2266C27.5439 21.3643 27.4997 21.5223 27.5 21.6835V27.5897C27.5 29.3302 26.8086 30.9994 25.5779 32.2301C24.3472 33.4608 22.678 34.1522 20.9375 34.1522C19.197 34.1522 17.5278 33.4608 16.2971 32.2301C15.0664 30.9994 14.375 29.3302 14.375 27.5897C14.375 24.7569 16.195 22.2161 18.75 21.2897V24.3161C18.1844 24.6941 17.7263 25.2121 17.4204 25.8197C17.1146 26.4274 16.9714 27.1039 17.0047 27.7833C17.0381 28.4628 17.247 29.122 17.6109 29.6967C17.9749 30.2714 18.4815 30.7421 19.0815 31.0627C19.6815 31.3834 20.3543 31.5431 21.0343 31.5264C21.7144 31.5097 22.3785 31.317 22.962 30.9673C23.5455 30.6175 24.0284 30.1225 24.3636 29.5306C24.6989 28.9387 24.8751 28.27 24.875 27.5897V14.0272H27.5547C27.7515 15.5684 28.4543 17.0007 29.5529 18.0993C30.6516 19.1979 32.0838 19.9008 33.625 20.0975V22.7378Z" fill="url(#paint0_linear_601_7002)"/>
<defs>
<linearGradient id="paint0_linear_601_7002" x1="12.625" y1="35.9022" x2="36.2332" y2="13.1684" gradientUnits="userSpaceOnUse">
<stop stop-color="#FF414B"/>
<stop offset="1" stop-color="#FF7A81"/>
</linearGradient>
</defs>
</svg>
