<svg width="36" height="37" viewBox="0 0 36 37" fill="none" xmlns="http://www.w3.org/2000/svg">
<rect y="0.0272217" width="36" height="36" rx="18" fill="#5655D7" fill-opacity="0.08"/>
<path d="M18.6249 17.4022V21.7772C18.6249 21.943 18.559 22.102 18.4418 22.2192C18.3246 22.3364 18.1656 22.4022 17.9999 22.4022C17.8341 22.4022 17.6752 22.3364 17.5579 22.2192C17.4407 22.102 17.3749 21.943 17.3749 21.7772V17.4022C17.3749 17.2365 17.4407 17.0775 17.5579 16.9603C17.6752 16.8431 17.8341 16.7772 17.9999 16.7772C18.1656 16.7772 18.3246 16.8431 18.4418 16.9603C18.559 17.0775 18.6249 17.2365 18.6249 17.4022ZM26.739 15.6921L25.6561 23.8178C25.616 24.1182 25.4681 24.3937 25.2401 24.5931C25.012 24.7926 24.7193 24.9024 24.4163 24.9022H11.5835C11.2805 24.9024 10.9878 24.7926 10.7597 24.5931C10.5316 24.3937 10.3838 24.1182 10.3436 23.8178L9.26004 15.6928C9.23643 15.5162 9.25086 15.3366 9.30237 15.1659C9.35388 14.9953 9.44127 14.8377 9.55869 14.7037C9.67611 14.5696 9.82083 14.4622 9.98316 14.3886C10.1455 14.3151 10.3217 14.2771 10.4999 14.2772H13.3413L17.5311 9.4905C17.5898 9.424 17.6619 9.37074 17.7427 9.33425C17.8236 9.29777 17.9112 9.2789 17.9999 9.2789C18.0886 9.2789 18.1762 9.29777 18.257 9.33425C18.3379 9.37074 18.41 9.424 18.4686 9.4905L22.6585 14.2772H25.4999C25.6779 14.2773 25.8538 14.3155 26.0159 14.3891C26.178 14.4627 26.3225 14.57 26.4397 14.704C26.5569 14.8379 26.6442 14.9954 26.6957 15.1658C26.7472 15.3362 26.7616 15.5156 26.7382 15.6921H26.739ZM15.0022 14.2772H20.9975L17.9999 10.8514L15.0022 14.2772ZM25.4999 15.5272H10.4999L11.5835 23.6522H24.4163L25.4999 15.5272ZM21.503 17.3397L21.0655 21.7147C21.0569 21.7966 21.0645 21.8794 21.088 21.9584C21.1114 22.0373 21.1503 22.1109 21.2023 22.1748C21.2542 22.2387 21.3183 22.2916 21.3909 22.3307C21.4634 22.3697 21.5429 22.394 21.6249 22.4022C21.646 22.4034 21.6671 22.4034 21.6882 22.4022C21.843 22.402 21.9922 22.3444 22.1069 22.2405C22.2217 22.1366 22.2938 21.9938 22.3093 21.8397L22.7468 17.4647C22.7633 17.2998 22.7137 17.135 22.6088 17.0067C22.5039 16.8783 22.3523 16.7969 22.1874 16.7803C22.0225 16.7638 21.8577 16.8134 21.7294 16.9183C21.601 17.0232 21.5196 17.1748 21.503 17.3397ZM14.4968 17.3397C14.4802 17.1748 14.3988 17.0232 14.2704 16.9183C14.1421 16.8134 13.9773 16.7638 13.8124 16.7803C13.6475 16.7969 13.4959 16.8783 13.391 17.0067C13.2861 17.135 13.2364 17.2998 13.253 17.4647L13.6905 21.8397C13.7061 21.9944 13.7787 22.1378 13.8943 22.2418C14.0098 22.3458 14.16 22.403 14.3155 22.4022C14.3366 22.4034 14.3577 22.4034 14.3788 22.4022C14.4605 22.394 14.5397 22.3698 14.612 22.331C14.6843 22.2921 14.7483 22.2394 14.8002 22.1759C14.8522 22.1123 14.8911 22.0392 14.9148 21.9606C14.9384 21.882 14.9464 21.7995 14.9382 21.7178L14.4968 17.3397Z" fill="#5655D7"/>
</svg>
