<svg width="36" height="37" viewBox="0 0 36 37" fill="none" xmlns="http://www.w3.org/2000/svg">
<rect y="0.0272217" width="36" height="36" rx="18" fill="#FF414B" fill-opacity="0.08"/>
<path d="M18 9.90222C16.393 9.90222 14.8221 10.3787 13.486 11.2715C12.1498 12.1643 11.1084 13.4333 10.4935 14.9179C9.87852 16.4026 9.71762 18.0362 10.0311 19.6123C10.3446 21.1884 11.1185 22.6362 12.2548 23.7725C13.3911 24.9088 14.8388 25.6826 16.4149 25.9961C17.991 26.3096 19.6247 26.1487 21.1093 25.5337C22.594 24.9188 23.8629 23.8774 24.7557 22.5412C25.6485 21.2051 26.125 19.6342 26.125 18.0272C26.1227 15.873 25.266 13.8077 23.7427 12.2845C22.2195 10.7613 20.1542 9.9045 18 9.90222ZM18 24.9022C16.6403 24.9022 15.311 24.499 14.1805 23.7436C13.0499 22.9881 12.1687 21.9144 11.6483 20.6582C11.128 19.4019 10.9918 18.0196 11.2571 16.686C11.5224 15.3524 12.1772 14.1273 13.1386 13.1659C14.1001 12.2044 15.3251 11.5496 16.6588 11.2843C17.9924 11.019 19.3747 11.1552 20.631 11.6755C21.8872 12.1959 22.9609 13.0771 23.7164 14.2077C24.4718 15.3383 24.875 16.6675 24.875 18.0272C24.8729 19.85 24.1479 21.5974 22.8591 22.8863C21.5702 24.1752 19.8227 24.9002 18 24.9022ZM21.125 19.5897C21.125 20.1699 20.8945 20.7263 20.4843 21.1365C20.0741 21.5468 19.5177 21.7772 18.9375 21.7772H18.625V22.4022C18.625 22.568 18.5592 22.727 18.4419 22.8442C18.3247 22.9614 18.1658 23.0272 18 23.0272C17.8342 23.0272 17.6753 22.9614 17.5581 22.8442C17.4409 22.727 17.375 22.568 17.375 22.4022V21.7772H16.125C15.9592 21.7772 15.8003 21.7114 15.6831 21.5942C15.5659 21.477 15.5 21.318 15.5 21.1522C15.5 20.9865 15.5659 20.8275 15.6831 20.7103C15.8003 20.5931 15.9592 20.5272 16.125 20.5272H18.9375C19.1861 20.5272 19.4246 20.4284 19.6004 20.2526C19.7762 20.0768 19.875 19.8384 19.875 19.5897C19.875 19.3411 19.7762 19.1026 19.6004 18.9268C19.4246 18.751 19.1861 18.6522 18.9375 18.6522H17.0625C16.4823 18.6522 15.9259 18.4218 15.5157 18.0115C15.1055 17.6013 14.875 17.0449 14.875 16.4647C14.875 15.8846 15.1055 15.3282 15.5157 14.9179C15.9259 14.5077 16.4823 14.2772 17.0625 14.2772H17.375V13.6522C17.375 13.4865 17.4409 13.3275 17.5581 13.2103C17.6753 13.0931 17.8342 13.0272 18 13.0272C18.1658 13.0272 18.3247 13.0931 18.4419 13.2103C18.5592 13.3275 18.625 13.4865 18.625 13.6522V14.2772H19.875C20.0408 14.2772 20.1997 14.3431 20.3169 14.4603C20.4342 14.5775 20.5 14.7365 20.5 14.9022C20.5 15.068 20.4342 15.227 20.3169 15.3442C20.1997 15.4614 20.0408 15.5272 19.875 15.5272H17.0625C16.8139 15.5272 16.5754 15.626 16.3996 15.8018C16.2238 15.9776 16.125 16.2161 16.125 16.4647C16.125 16.7134 16.2238 16.9518 16.3996 17.1276C16.5754 17.3034 16.8139 17.4022 17.0625 17.4022H18.9375C19.5177 17.4022 20.0741 17.6327 20.4843 18.0429C20.8945 18.4532 21.125 19.0096 21.125 19.5897Z" fill="#FF414B"/>
</svg>
