<svg width="13" height="8" viewBox="0 0 13 8" fill="none" xmlns="http://www.w3.org/2000/svg">
<path d="M12.1877 0.870972V4.12097C12.1877 4.22872 12.1449 4.33205 12.0687 4.40823C11.9926 4.48442 11.8892 4.52722 11.7815 4.52722C11.6737 4.52722 11.5704 4.48442 11.4942 4.40823C11.418 4.33205 11.3752 4.22872 11.3752 4.12097V1.85156L7.1939 6.03339C7.15617 6.07117 7.11136 6.10113 7.06205 6.12157C7.01273 6.14202 6.95986 6.15254 6.90648 6.15254C6.85309 6.15254 6.80022 6.14202 6.75091 6.12157C6.70159 6.10113 6.65678 6.07117 6.61905 6.03339L4.87523 4.28906L1.5064 7.65839C1.43017 7.73462 1.32678 7.77745 1.21898 7.77745C1.11117 7.77745 1.00778 7.73462 0.931554 7.65839C0.855325 7.58216 0.8125 7.47878 0.8125 7.37097C0.8125 7.26317 0.855325 7.15978 0.931554 7.08355L4.5878 3.4273C4.62553 3.38953 4.67034 3.35956 4.71966 3.33912C4.76897 3.31868 4.82184 3.30815 4.87523 3.30815C4.92861 3.30815 4.98148 3.31868 5.0308 3.33912C5.08011 3.35956 5.12492 3.38953 5.16265 3.4273L6.90648 5.17164L10.8009 1.27722H8.53148C8.42373 1.27722 8.3204 1.23442 8.24421 1.15823C8.16803 1.08205 8.12523 0.978716 8.12523 0.870972C8.12523 0.763227 8.16803 0.659896 8.24421 0.58371C8.3204 0.507523 8.42373 0.464722 8.53148 0.464722H11.7815C11.8892 0.464722 11.9926 0.507523 12.0687 0.58371C12.1449 0.659896 12.1877 0.763227 12.1877 0.870972Z" fill="#5655D7"/>
</svg>
