<svg width="13" height="8" viewBox="0 0 13 8" fill="none" xmlns="http://www.w3.org/2000/svg">
<path d="M12.1877 3.93348V7.18349C12.1877 7.29123 12.1449 7.39456 12.0687 7.47075C11.9926 7.54693 11.8892 7.58974 11.7815 7.58974H8.53148C8.42373 7.58974 8.3204 7.54693 8.24421 7.47075C8.16803 7.39456 8.12523 7.29123 8.12523 7.18349C8.12523 7.07574 8.16803 6.97241 8.24421 6.89622C8.3204 6.82004 8.42373 6.77724 8.53148 6.77724H10.8009L6.90648 2.88282L5.16265 4.62716C5.12492 4.66493 5.08011 4.69489 5.0308 4.71534C4.98148 4.73578 4.92861 4.7463 4.87523 4.7463C4.82184 4.7463 4.76897 4.73578 4.71966 4.71534C4.67034 4.69489 4.62553 4.66493 4.5878 4.62716L0.931554 0.970906C0.855325 0.894677 0.8125 0.791288 0.8125 0.683484C0.8125 0.57568 0.855325 0.472291 0.931554 0.396062C1.00778 0.319833 1.11117 0.277008 1.21898 0.277008C1.32678 0.277008 1.43017 0.319833 1.5064 0.396062L4.87523 3.7654L6.61905 2.02106C6.65678 1.98329 6.70159 1.95333 6.75091 1.93288C6.80022 1.91244 6.85309 1.90191 6.90648 1.90191C6.95986 1.90191 7.01273 1.91244 7.06205 1.93288C7.11136 1.95333 7.15617 1.98329 7.1939 2.02106L11.3752 6.2029V3.93348C11.3752 3.82574 11.418 3.72241 11.4942 3.64622C11.5704 3.57003 11.6737 3.52723 11.7815 3.52723C11.8892 3.52723 11.9926 3.57003 12.0687 3.64622C12.1449 3.72241 12.1877 3.82574 12.1877 3.93348Z" fill="#FF414B"/>
</svg>
