<svg width="15" height="16" viewBox="0 0 15 16" fill="none" xmlns="http://www.w3.org/2000/svg">
<path d="M12.1875 2.375H2.8125C2.56386 2.375 2.3254 2.47377 2.14959 2.64959C1.97377 2.8254 1.875 3.06386 1.875 3.3125V12.6875C1.875 12.9361 1.97377 13.1746 2.14959 13.3504C2.3254 13.5262 2.56386 13.625 2.8125 13.625H12.1875C12.4361 13.625 12.6746 13.5262 12.8504 13.3504C13.0262 13.1746 13.125 12.9361 13.125 12.6875V3.3125C13.125 3.06386 13.0262 2.8254 12.8504 2.64959C12.6746 2.47377 12.4361 2.375 12.1875 2.375ZM12.1875 12.6875H2.8125V3.3125H12.1875V12.6875ZM5.29336 10.2066C5.24978 10.1631 5.2152 10.1114 5.19161 10.0545C5.16802 9.9976 5.15588 9.9366 5.15588 9.875C5.15588 9.8134 5.16802 9.7524 5.19161 9.6955C5.2152 9.63859 5.24978 9.58689 5.29336 9.54336L8.24356 6.59375H6.5625C6.43818 6.59375 6.31895 6.54436 6.23104 6.45646C6.14314 6.36855 6.09375 6.24932 6.09375 6.125C6.09375 6.00068 6.14314 5.88145 6.23104 5.79354C6.31895 5.70564 6.43818 5.65625 6.5625 5.65625H9.375C9.49932 5.65625 9.61855 5.70564 9.70646 5.79354C9.79436 5.88145 9.84375 6.00068 9.84375 6.125V8.9375C9.84375 9.06182 9.79436 9.18105 9.70646 9.26896C9.61855 9.35686 9.49932 9.40625 9.375 9.40625C9.25068 9.40625 9.13145 9.35686 9.04354 9.26896C8.95564 9.18105 8.90625 9.06182 8.90625 8.9375V7.25644L5.95664 10.2066C5.91311 10.2502 5.86141 10.2848 5.8045 10.3084C5.7476 10.332 5.6866 10.3441 5.625 10.3441C5.5634 10.3441 5.5024 10.332 5.4455 10.3084C5.38859 10.2848 5.33689 10.2502 5.29336 10.2066Z" fill="#00997E"/>
</svg>
