<svg width="44" height="45" viewBox="0 0 44 45" fill="none" xmlns="http://www.w3.org/2000/svg">
<rect y="0.5" width="44" height="44" rx="22" fill="url(#paint0_linear_134_1830)"/>
<path d="M31 15H13C12.6022 15 12.2206 15.158 11.9393 15.4393C11.658 15.7206 11.5 16.1022 11.5 16.5V18.75C11.5 19.1478 11.658 19.5294 11.9393 19.8107C12.2206 20.092 12.6022 20.25 13 20.25V28.5C13 28.8978 13.158 29.2794 13.4393 29.5607C13.7206 29.842 14.1022 30 14.5 30H29.5C29.8978 30 30.2794 29.842 30.5607 29.5607C30.842 29.2794 31 28.8978 31 28.5V20.25C31.3978 20.25 31.7794 20.092 32.0607 19.8107C32.342 19.5294 32.5 19.1478 32.5 18.75V16.5C32.5 16.1022 32.342 15.7206 32.0607 15.4393C31.7794 15.158 31.3978 15 31 15ZM29.5 28.5H14.5V20.25H29.5V28.5ZM31 18.75H13V16.5H31V18.75ZM19 23.25C19 23.0511 19.079 22.8603 19.2197 22.7197C19.3603 22.579 19.5511 22.5 19.75 22.5H24.25C24.4489 22.5 24.6397 22.579 24.7803 22.7197C24.921 22.8603 25 23.0511 25 23.25C25 23.4489 24.921 23.6397 24.7803 23.7803C24.6397 23.921 24.4489 24 24.25 24H19.75C19.5511 24 19.3603 23.921 19.2197 23.7803C19.079 23.6397 19 23.4489 19 23.25Z" fill="white"/>
<defs>
<linearGradient id="paint0_linear_134_1830" x1="-2.15135e-07" y1="44.5" x2="44" y2="0.5" gradientUnits="userSpaceOnUse">
<stop stop-color="#FF414B"/>
<stop offset="1" stop-color="#FF7A81"/>
</linearGradient>
</defs>
</svg>
