<svg width="44" height="45" viewBox="0 0 44 45" fill="none" xmlns="http://www.w3.org/2000/svg">
<rect y="0.5" width="44" height="44" rx="22" fill="url(#paint0_linear_134_1991)"/>
<path d="M32.1766 24.5081L28.1922 21.75L32.1766 18.9919C32.2763 18.9229 32.3579 18.8307 32.4142 18.7233C32.4706 18.6158 32.5 18.4963 32.5 18.375C32.5 18.2537 32.4706 18.1342 32.4142 18.0267C32.3579 17.9193 32.2763 17.8271 32.1766 17.7581L27.3016 14.3831C27.1762 14.2964 27.0274 14.25 26.875 14.25C26.7226 14.25 26.5738 14.2964 26.4484 14.3831L22 17.4628L17.5516 14.3831C17.4262 14.2964 17.2774 14.25 17.125 14.25C16.9726 14.25 16.8238 14.2964 16.6984 14.3831L11.8234 17.7581C11.7236 17.8271 11.6421 17.9193 11.5858 18.0267C11.5294 18.1342 11.5 18.2537 11.5 18.375C11.5 18.4963 11.5294 18.6158 11.5858 18.7233C11.6421 18.8307 11.7236 18.9229 11.8234 18.9919L15.8125 21.75L11.8281 24.5081C11.7283 24.5771 11.6468 24.6693 11.5904 24.7767C11.5341 24.8842 11.5047 25.0037 11.5047 25.125C11.5047 25.2463 11.5341 25.3658 11.5904 25.4733C11.6468 25.5807 11.7283 25.6729 11.8281 25.7419L16.7031 29.1169C16.8285 29.2036 16.9773 29.25 17.1297 29.25C17.2821 29.25 17.4309 29.2036 17.5562 29.1169L22 26.0372L26.4484 29.1169C26.5738 29.2036 26.7226 29.25 26.875 29.25C27.0274 29.25 27.1762 29.2036 27.3016 29.1169L32.1766 25.7419C32.2763 25.6729 32.3579 25.5807 32.4142 25.4733C32.4706 25.3658 32.5 25.2463 32.5 25.125C32.5 25.0037 32.4706 24.8842 32.4142 24.7767C32.3579 24.6693 32.2763 24.5771 32.1766 24.5081ZM22 24.2128L18.4422 21.75L22.0047 19.2872L25.5625 21.75L22 24.2128ZM26.875 15.9122L30.4375 18.375L26.875 20.8378L23.3172 18.375L26.875 15.9122ZM17.125 15.9122L20.6875 18.375L17.125 20.8378L13.5672 18.375L17.125 15.9122ZM17.125 27.5878L13.5672 25.125L17.1297 22.6622L20.6875 25.125L17.125 27.5878ZM26.875 27.5878L23.3172 25.125L26.875 22.6622L30.4375 25.125L26.875 27.5878ZM24.8566 29.8978C24.97 30.0611 25.0139 30.2627 24.9788 30.4583C24.9436 30.654 24.8322 30.8277 24.6691 30.9412L22.4294 32.4919C22.304 32.5786 22.1552 32.625 22.0028 32.625C21.8504 32.625 21.7016 32.5786 21.5762 32.4919L19.3337 30.9375C19.171 30.824 19.0599 30.6507 19.0248 30.4554C18.9896 30.2602 19.0332 30.059 19.146 29.8958C19.2588 29.7327 19.4317 29.6208 19.6268 29.5848C19.8218 29.5488 20.0232 29.5916 20.1869 29.7037L22 30.9628L23.8131 29.7075C23.9767 29.5944 24.1786 29.5509 24.3742 29.5866C24.5699 29.6222 24.7434 29.7342 24.8566 29.8978Z" fill="white"/>
<defs>
<linearGradient id="paint0_linear_134_1991" x1="-2.15135e-07" y1="44.5" x2="44" y2="0.5" gradientUnits="userSpaceOnUse">
<stop stop-color="#00997E"/>
<stop offset="1" stop-color="#00C9A5"/>
</linearGradient>
</defs>
</svg>
