<svg width="13" height="12" viewBox="0 0 13 12" fill="none" xmlns="http://www.w3.org/2000/svg">
<path d="M11.1875 0.375H1.8125C1.56386 0.375 1.3254 0.473772 1.14959 0.649587C0.973772 0.825403 0.875 1.06386 0.875 1.3125V10.6875C0.875 10.9361 0.973772 11.1746 1.14959 11.3504C1.3254 11.5262 1.56386 11.625 1.8125 11.625H11.1875C11.4361 11.625 11.6746 11.5262 11.8504 11.3504C12.0262 11.1746 12.125 10.9361 12.125 10.6875V1.3125C12.125 1.06386 12.0262 0.825403 11.8504 0.649587C11.6746 0.473772 11.4361 0.375 11.1875 0.375ZM11.1875 10.6875H1.8125V1.3125H11.1875V10.6875ZM4.29336 4.45664C4.2054 4.36868 4.15599 4.24939 4.15599 4.125C4.15599 4.00061 4.2054 3.88132 4.29336 3.79336C4.38132 3.7054 4.50061 3.65599 4.625 3.65599C4.74939 3.65599 4.86868 3.7054 4.95664 3.79336L7.90625 6.74356V5.0625C7.90625 4.93818 7.95564 4.81895 8.04354 4.73104C8.13145 4.64314 8.25068 4.59375 8.375 4.59375C8.49932 4.59375 8.61855 4.64314 8.70646 4.73104C8.79436 4.81895 8.84375 4.93818 8.84375 5.0625V7.875C8.84375 7.99932 8.79436 8.11855 8.70646 8.20646C8.61855 8.29436 8.49932 8.34375 8.375 8.34375H5.5625C5.43818 8.34375 5.31895 8.29436 5.23104 8.20646C5.14314 8.11855 5.09375 7.99932 5.09375 7.875C5.09375 7.75068 5.14314 7.63145 5.23104 7.54354C5.31895 7.45564 5.43818 7.40625 5.5625 7.40625H7.24356L4.29336 4.45664Z" fill="#FF414B"/>
</svg>
