<svg width="44" height="45" viewBox="0 0 44 45" fill="none" xmlns="http://www.w3.org/2000/svg">
<rect y="0.5" width="44" height="44" rx="22" fill="url(#paint0_linear_134_2054)"/>
<path d="M30.97 16.7016L22.72 12.1875C22.4996 12.0657 22.2518 12.0018 22 12.0018C21.7482 12.0018 21.5004 12.0657 21.28 12.1875L13.03 16.7034C12.7944 16.8323 12.5977 17.0222 12.4605 17.253C12.3233 17.4839 12.2506 17.7474 12.25 18.0159V26.9822C12.2506 27.2508 12.3233 27.5142 12.4605 27.7451C12.5977 27.976 12.7944 28.1658 13.03 28.2947L21.28 32.8106C21.5004 32.9324 21.7482 32.9963 22 32.9963C22.2518 32.9963 22.4996 32.9324 22.72 32.8106L30.97 28.2947C31.2056 28.1658 31.4023 27.976 31.5395 27.7451C31.6767 27.5142 31.7494 27.2508 31.75 26.9822V18.0169C31.7499 17.7478 31.6774 17.4838 31.5402 17.2524C31.403 17.0209 31.206 16.8307 30.97 16.7016ZM22 13.5L29.5319 17.625L26.7409 19.1531L19.2081 15.0281L22 13.5ZM22 21.75L14.4681 17.625L17.6462 15.885L25.1781 20.01L22 21.75ZM13.75 18.9375L21.25 23.0419V31.0847L13.75 26.9831V18.9375ZM30.25 26.9794L22.75 31.0847V23.0456L25.75 21.4041V24.75C25.75 24.9489 25.829 25.1397 25.9697 25.2803C26.1103 25.421 26.3011 25.5 26.5 25.5C26.6989 25.5 26.8897 25.421 27.0303 25.2803C27.171 25.1397 27.25 24.9489 27.25 24.75V20.5828L30.25 18.9375V26.9784V26.9794Z" fill="white"/>
<defs>
<linearGradient id="paint0_linear_134_2054" x1="-2.15135e-07" y1="44.5" x2="44" y2="0.5" gradientUnits="userSpaceOnUse">
<stop stop-color="#5655D7"/>
<stop offset="1" stop-color="#7F7EFF"/>
</linearGradient>
</defs>
</svg>
