<svg width="44" height="45" viewBox="0 0 44 45" fill="none" xmlns="http://www.w3.org/2000/svg">
<rect y="0.5" width="44" height="44" rx="22" fill="url(#paint0_linear_134_2151)"/>
<path d="M22 14.25C20.22 14.25 18.4799 14.7778 16.9999 15.7668C15.5198 16.7557 14.3663 18.1613 13.6851 19.8059C13.0039 21.4504 12.8257 23.26 13.1729 25.0058C13.5202 26.7516 14.3774 28.3553 15.636 29.614C16.8947 30.8726 18.4984 31.7298 20.2442 32.0771C21.99 32.4243 23.7996 32.2461 25.4442 31.5649C27.0887 30.8837 28.4943 29.7302 29.4832 28.2501C30.4722 26.7701 31 25.03 31 23.25C30.9973 20.8639 30.0482 18.5763 28.361 16.8891C26.6737 15.2018 24.3861 14.2527 22 14.25ZM22 30.75C20.5166 30.75 19.0666 30.3101 17.8332 29.486C16.5999 28.6619 15.6386 27.4906 15.0709 26.1201C14.5033 24.7497 14.3547 23.2417 14.6441 21.7868C14.9335 20.332 15.6478 18.9956 16.6967 17.9467C17.7456 16.8978 19.082 16.1835 20.5368 15.8941C21.9917 15.6047 23.4997 15.7532 24.8701 16.3209C26.2406 16.8886 27.4119 17.8499 28.236 19.0832C29.0601 20.3166 29.5 21.7666 29.5 23.25C29.4978 25.2384 28.7069 27.1448 27.3008 28.5508C25.8948 29.9569 23.9884 30.7478 22 30.75ZM26.2806 18.9694C26.3504 19.039 26.4057 19.1217 26.4434 19.2128C26.4812 19.3038 26.5006 19.4014 26.5006 19.5C26.5006 19.5986 26.4812 19.6962 26.4434 19.7872C26.4057 19.8783 26.3504 19.961 26.2806 20.0306L22.5306 23.7806C22.4609 23.8503 22.3782 23.9056 22.2872 23.9433C22.1961 23.981 22.0986 24.0004 22 24.0004C21.9015 24.0004 21.8039 23.981 21.7128 23.9433C21.6218 23.9056 21.5391 23.8503 21.4694 23.7806C21.3997 23.7109 21.3444 23.6282 21.3067 23.5372C21.269 23.4461 21.2496 23.3485 21.2496 23.25C21.2496 23.1515 21.269 23.0539 21.3067 22.9628C21.3444 22.8718 21.3997 22.7891 21.4694 22.7194L25.2194 18.9694C25.289 18.8996 25.3718 18.8443 25.4628 18.8066C25.5538 18.7688 25.6514 18.7494 25.75 18.7494C25.8486 18.7494 25.9462 18.7688 26.0372 18.8066C26.1283 18.8443 26.211 18.8996 26.2806 18.9694ZM19 12C19 11.8011 19.079 11.6103 19.2197 11.4697C19.3603 11.329 19.5511 11.25 19.75 11.25H24.25C24.4489 11.25 24.6397 11.329 24.7803 11.4697C24.921 11.6103 25 11.8011 25 12C25 12.1989 24.921 12.3897 24.7803 12.5303C24.6397 12.671 24.4489 12.75 24.25 12.75H19.75C19.5511 12.75 19.3603 12.671 19.2197 12.5303C19.079 12.3897 19 12.1989 19 12Z" fill="white"/>
<defs>
<linearGradient id="paint0_linear_134_2151" x1="-2.15135e-07" y1="44.5" x2="44" y2="0.5" gradientUnits="userSpaceOnUse">
<stop stop-color="#586D7A"/>
<stop offset="1" stop-color="#798A95"/>
</linearGradient>
</defs>
</svg>
