<svg width="44" height="45" viewBox="0 0 44 45" fill="none" xmlns="http://www.w3.org/2000/svg">
<rect y="0.5" width="44" height="44" rx="22" fill="url(#paint0_linear_134_2259)"/>
<path d="M22 12.75C20.0716 12.75 18.1866 13.3218 16.5832 14.3932C14.9798 15.4645 13.7301 16.9873 12.9922 18.7688C12.2542 20.5504 12.0611 22.5108 12.4373 24.4021C12.8136 26.2934 13.7422 28.0307 15.1057 29.3943C16.4693 30.7579 18.2066 31.6865 20.0979 32.0627C21.9892 32.4389 23.9496 32.2458 25.7312 31.5078C27.5127 30.7699 29.0355 29.5202 30.1068 27.9168C31.1782 26.3134 31.75 24.4284 31.75 22.5C31.7473 19.915 30.7192 17.4366 28.8913 15.6087C27.0634 13.7808 24.585 12.7527 22 12.75ZM22 30.75C20.3683 30.75 18.7733 30.2661 17.4165 29.3596C16.0598 28.4531 15.0024 27.1646 14.378 25.6571C13.7536 24.1496 13.5902 22.4908 13.9085 20.8905C14.2269 19.2902 15.0126 17.8202 16.1664 16.6664C17.3202 15.5126 18.7902 14.7268 20.3905 14.4085C21.9909 14.0902 23.6497 14.2536 25.1571 14.878C26.6646 15.5024 27.9531 16.5598 28.8596 17.9165C29.7661 19.2733 30.25 20.8683 30.25 22.5C30.2475 24.6873 29.3775 26.7843 27.8309 28.3309C26.2843 29.8775 24.1873 30.7475 22 30.75ZM25.75 24.375C25.75 25.0712 25.4734 25.7389 24.9812 26.2312C24.4889 26.7234 23.8212 27 23.125 27H22.75V27.75C22.75 27.9489 22.671 28.1397 22.5303 28.2803C22.3897 28.421 22.1989 28.5 22 28.5C21.8011 28.5 21.6103 28.421 21.4697 28.2803C21.329 28.1397 21.25 27.9489 21.25 27.75V27H19.75C19.5511 27 19.3603 26.921 19.2197 26.7803C19.079 26.6397 19 26.4489 19 26.25C19 26.0511 19.079 25.8603 19.2197 25.7197C19.3603 25.579 19.5511 25.5 19.75 25.5H23.125C23.4234 25.5 23.7095 25.3815 23.9205 25.1705C24.1315 24.9595 24.25 24.6734 24.25 24.375C24.25 24.0766 24.1315 23.7905 23.9205 23.5795C23.7095 23.3685 23.4234 23.25 23.125 23.25H20.875C20.1788 23.25 19.5111 22.9734 19.0188 22.4812C18.5266 21.9889 18.25 21.3212 18.25 20.625C18.25 19.9288 18.5266 19.2611 19.0188 18.7688C19.5111 18.2766 20.1788 18 20.875 18H21.25V17.25C21.25 17.0511 21.329 16.8603 21.4697 16.7197C21.6103 16.579 21.8011 16.5 22 16.5C22.1989 16.5 22.3897 16.579 22.5303 16.7197C22.671 16.8603 22.75 17.0511 22.75 17.25V18H24.25C24.4489 18 24.6397 18.079 24.7803 18.2197C24.921 18.3603 25 18.5511 25 18.75C25 18.9489 24.921 19.1397 24.7803 19.2803C24.6397 19.421 24.4489 19.5 24.25 19.5H20.875C20.5766 19.5 20.2905 19.6185 20.0795 19.8295C19.8685 20.0405 19.75 20.3266 19.75 20.625C19.75 20.9234 19.8685 21.2095 20.0795 21.4205C20.2905 21.6315 20.5766 21.75 20.875 21.75H23.125C23.8212 21.75 24.4889 22.0266 24.9812 22.5188C25.4734 23.0111 25.75 23.6788 25.75 24.375Z" fill="white"/>
<defs>
<linearGradient id="paint0_linear_134_2259" x1="-2.15135e-07" y1="44.5" x2="44" y2="0.5" gradientUnits="userSpaceOnUse">
<stop stop-color="#FFAE41"/>
<stop offset="1" stop-color="#FFC06A"/>
</linearGradient>
</defs>
</svg>
