<svg width="44" height="45" viewBox="0 0 44 45" fill="none" xmlns="http://www.w3.org/2000/svg">
<rect y="0.5" width="44" height="44" rx="22" fill="url(#paint0_linear_134_3326)"/>
<path d="M22 18.75C21.2583 18.75 20.5333 18.9699 19.9166 19.382C19.2999 19.794 18.8193 20.3797 18.5355 21.0649C18.2516 21.7502 18.1774 22.5042 18.3221 23.2316C18.4667 23.959 18.8239 24.6272 19.3483 25.1517C19.8728 25.6761 20.541 26.0333 21.2684 26.1779C21.9958 26.3226 22.7498 26.2484 23.4351 25.9645C24.1203 25.6807 24.706 25.2001 25.118 24.5834C25.5301 23.9667 25.75 23.2417 25.75 22.5C25.75 21.5054 25.3549 20.5516 24.6517 19.8483C23.9484 19.1451 22.9946 18.75 22 18.75ZM22 24.75C21.555 24.75 21.12 24.618 20.75 24.3708C20.38 24.1236 20.0916 23.7722 19.9213 23.361C19.751 22.9499 19.7064 22.4975 19.7932 22.061C19.88 21.6246 20.0943 21.2237 20.409 20.909C20.7237 20.5943 21.1246 20.38 21.561 20.2932C21.9975 20.2064 22.4499 20.251 22.861 20.4213C23.2722 20.5916 23.6236 20.88 23.8708 21.25C24.118 21.62 24.25 22.055 24.25 22.5C24.25 23.0967 24.0129 23.669 23.591 24.091C23.169 24.5129 22.5967 24.75 22 24.75ZM32.5 15.75H11.5C11.3011 15.75 11.1103 15.829 10.9697 15.9697C10.829 16.1103 10.75 16.3011 10.75 16.5V28.5C10.75 28.6989 10.829 28.8897 10.9697 29.0303C11.1103 29.171 11.3011 29.25 11.5 29.25H32.5C32.6989 29.25 32.8897 29.171 33.0303 29.0303C33.171 28.8897 33.25 28.6989 33.25 28.5V16.5C33.25 16.3011 33.171 16.1103 33.0303 15.9697C32.8897 15.829 32.6989 15.75 32.5 15.75ZM28.1547 27.75H15.8453C15.5935 26.8984 15.1326 26.1233 14.5047 25.4953C13.8767 24.8674 13.1016 24.4065 12.25 24.1547V20.8453C13.1016 20.5935 13.8767 20.1326 14.5047 19.5047C15.1326 18.8767 15.5935 18.1016 15.8453 17.25H28.1547C28.4065 18.1016 28.8674 18.8767 29.4953 19.5047C30.1233 20.1326 30.8984 20.5935 31.75 20.8453V24.1547C30.8984 24.4065 30.1233 24.8674 29.4953 25.4953C28.8674 26.1233 28.4065 26.8984 28.1547 27.75ZM31.75 19.2534C30.8504 18.8666 30.1334 18.1496 29.7466 17.25H31.75V19.2534ZM14.2534 17.25C13.8666 18.1496 13.1496 18.8666 12.25 19.2534V17.25H14.2534ZM12.25 25.7466C13.1496 26.1334 13.8666 26.8504 14.2534 27.75H12.25V25.7466ZM29.7466 27.75C30.1334 26.8504 30.8504 26.1334 31.75 25.7466V27.75H29.7466Z" fill="white"/>
<defs>
<linearGradient id="paint0_linear_134_3326" x1="-2.15135e-07" y1="44.5" x2="44" y2="0.5" gradientUnits="userSpaceOnUse">
<stop stop-color="#4ABDE8"/>
<stop offset="1" stop-color="#77DAFF"/>
</linearGradient>
</defs>
</svg>
