<svg width="213" height="114" viewBox="0 0 213 114" fill="none" xmlns="http://www.w3.org/2000/svg">
<path d="M5.49563 8.01L2.33563 3.34L2.67563 3.16L3.07563 3L5.90563 7.19L5.49563 8.01ZM2.19563 10V3H3.04563V10H2.19563ZM5.49563 8.01L5.08563 7.19L7.91563 3L8.31563 3.16L8.64563 3.33L5.49563 8.01ZM7.94563 10V3H8.78563V10H7.94563ZM13.6327 10.12C12.9593 10.12 12.3627 9.96667 11.8427 9.66C11.3227 9.35333 10.916 8.92667 10.6227 8.38C10.3293 7.83333 10.1827 7.20667 10.1827 6.5C10.1827 5.78667 10.326 5.16 10.6127 4.62C10.906 4.07333 11.3093 3.64667 11.8227 3.34C12.336 3.03333 12.9293 2.88 13.6027 2.88C14.276 2.88 14.8693 3.03667 15.3827 3.35C15.9027 3.65667 16.306 4.08333 16.5927 4.63C16.8793 5.17 17.0227 5.79333 17.0227 6.5C17.0227 7.20667 16.8793 7.83333 16.5927 8.38C16.306 8.92667 15.906 9.35333 15.3927 9.66C14.886 9.96667 14.2993 10.12 13.6327 10.12ZM13.6327 9.35C14.1327 9.35 14.5727 9.23 14.9527 8.99C15.3327 8.74333 15.6293 8.40667 15.8427 7.98C16.0627 7.55333 16.1727 7.06 16.1727 6.5C16.1727 5.94667 16.0627 5.45667 15.8427 5.03C15.6227 4.59667 15.3193 4.26 14.9327 4.02C14.5527 3.77333 14.1093 3.65 13.6027 3.65C13.1027 3.65 12.6593 3.77333 12.2727 4.02C11.886 4.26 11.5827 4.59667 11.3627 5.03C11.1427 5.45667 11.0327 5.94667 11.0327 6.5C11.0327 7.06 11.1427 7.55333 11.3627 7.98C11.5827 8.40667 11.8893 8.74333 12.2827 8.99C12.676 9.23 13.126 9.35 13.6327 9.35ZM23.4463 10L18.6163 3.47L19.2763 3L24.1063 9.52L23.4463 10ZM18.4163 10V3H19.2763L19.2663 3.67V10H18.4163ZM23.4463 10V3H24.2963V10H23.4463Z" fill="#465762"/>
<path d="M5.49563 8.01L2.33563 3.34L2.67563 3.16L3.07563 3L5.90563 7.19L5.49563 8.01ZM2.19563 10V3H3.04563V10H2.19563ZM5.49563 8.01L5.08563 7.19L7.91563 3L8.31563 3.16L8.64563 3.33L5.49563 8.01ZM7.94563 10V3H8.78563V10H7.94563ZM13.6327 10.12C12.9593 10.12 12.3627 9.96667 11.8427 9.66C11.3227 9.35333 10.916 8.92667 10.6227 8.38C10.3293 7.83333 10.1827 7.20667 10.1827 6.5C10.1827 5.78667 10.326 5.16 10.6127 4.62C10.906 4.07333 11.3093 3.64667 11.8227 3.34C12.336 3.03333 12.9293 2.88 13.6027 2.88C14.276 2.88 14.8693 3.03667 15.3827 3.35C15.9027 3.65667 16.306 4.08333 16.5927 4.63C16.8793 5.17 17.0227 5.79333 17.0227 6.5C17.0227 7.20667 16.8793 7.83333 16.5927 8.38C16.306 8.92667 15.906 9.35333 15.3927 9.66C14.886 9.96667 14.2993 10.12 13.6327 10.12ZM13.6327 9.35C14.1327 9.35 14.5727 9.23 14.9527 8.99C15.3327 8.74333 15.6293 8.40667 15.8427 7.98C16.0627 7.55333 16.1727 7.06 16.1727 6.5C16.1727 5.94667 16.0627 5.45667 15.8427 5.03C15.6227 4.59667 15.3193 4.26 14.9327 4.02C14.5527 3.77333 14.1093 3.65 13.6027 3.65C13.1027 3.65 12.6593 3.77333 12.2727 4.02C11.886 4.26 11.5827 4.59667 11.3627 5.03C11.1427 5.45667 11.0327 5.94667 11.0327 6.5C11.0327 7.06 11.1427 7.55333 11.3627 7.98C11.5827 8.40667 11.8893 8.74333 12.2827 8.99C12.676 9.23 13.126 9.35 13.6327 9.35ZM23.4463 10L18.6163 3.47L19.2763 3L24.1063 9.52L23.4463 10ZM18.4163 10V3H19.2763L19.2663 3.67V10H18.4163ZM23.4463 10V3H24.2963V10H23.4463Z" fill="white" fill-opacity="0.4"/>
<path d="M6.9108 34.931V28.511H7.7508V34.931H6.9108ZM4.6808 28.701V27.931H9.9808V28.701H4.6808ZM13.5984 35.081C13.0717 35.081 12.605 34.971 12.1984 34.751C11.7984 34.5243 11.485 34.2143 11.2584 33.821C11.0317 33.421 10.9184 32.961 10.9184 32.441H11.7684C11.7684 32.8076 11.845 33.1343 11.9984 33.421C12.1584 33.701 12.3784 33.921 12.6584 34.081C12.9384 34.2343 13.2584 34.311 13.6184 34.311C13.985 34.311 14.3084 34.2343 14.5884 34.081C14.875 33.921 15.095 33.701 15.2484 33.421C15.4084 33.1343 15.4884 32.8076 15.4884 32.441H16.3284C16.3284 32.961 16.215 33.421 15.9884 33.821C15.7617 34.2143 15.4417 34.5243 15.0284 34.751C14.615 34.971 14.1384 35.081 13.5984 35.081ZM10.9184 32.441V27.931H11.7684V32.441H10.9184ZM15.4884 32.441V27.931H16.3284V32.441H15.4884ZM18.0887 34.931V27.931H18.9387V34.931H18.0887ZM18.8387 34.931V34.161H22.2487V34.931H18.8387ZM18.8387 31.721V30.961H21.9387V31.721H18.8387ZM18.8387 28.701V27.931H22.2287V28.701H18.8387Z" fill="#465762"/>
<path d="M6.9108 34.931V28.511H7.7508V34.931H6.9108ZM4.6808 28.701V27.931H9.9808V28.701H4.6808ZM13.5984 35.081C13.0717 35.081 12.605 34.971 12.1984 34.751C11.7984 34.5243 11.485 34.2143 11.2584 33.821C11.0317 33.421 10.9184 32.961 10.9184 32.441H11.7684C11.7684 32.8076 11.845 33.1343 11.9984 33.421C12.1584 33.701 12.3784 33.921 12.6584 34.081C12.9384 34.2343 13.2584 34.311 13.6184 34.311C13.985 34.311 14.3084 34.2343 14.5884 34.081C14.875 33.921 15.095 33.701 15.2484 33.421C15.4084 33.1343 15.4884 32.8076 15.4884 32.441H16.3284C16.3284 32.961 16.215 33.421 15.9884 33.821C15.7617 34.2143 15.4417 34.5243 15.0284 34.751C14.615 34.971 14.1384 35.081 13.5984 35.081ZM10.9184 32.441V27.931H11.7684V32.441H10.9184ZM15.4884 32.441V27.931H16.3284V32.441H15.4884ZM18.0887 34.931V27.931H18.9387V34.931H18.0887ZM18.8387 34.931V34.161H22.2487V34.931H18.8387ZM18.8387 31.721V30.961H21.9387V31.721H18.8387ZM18.8387 28.701V27.931H22.2287V28.701H18.8387Z" fill="white" fill-opacity="0.4"/>
<path d="M7.08766 59.8618L9.24766 52.8618H10.0977L7.92766 59.8618H7.08766ZM2.82766 59.8618L0.687656 52.8618H1.53766L3.65766 59.8618H2.82766ZM2.91766 59.8618L4.97766 52.8618H5.78766L3.72766 59.8618H2.91766ZM7.01766 59.8618L5.00766 52.8618H5.81766L7.85766 59.8618H7.01766ZM11.1273 59.8618V52.8618H11.9773V59.8618H11.1273ZM11.8773 59.8618V59.0918H15.2873V59.8618H11.8773ZM11.8773 56.6518V55.8918H14.9773V56.6518H11.8773ZM11.8773 53.6318V52.8618H15.2673V53.6318H11.8773ZM19.1752 59.8618V59.0818C19.5286 59.0818 19.8552 59.0151 20.1552 58.8818C20.4552 58.7418 20.7186 58.5451 20.9452 58.2918C21.1786 58.0385 21.3586 57.7485 21.4852 57.4218C21.6186 57.0885 21.6852 56.7351 21.6852 56.3618C21.6852 55.9885 21.6186 55.6385 21.4852 55.3118C21.3586 54.9785 21.1786 54.6851 20.9452 54.4318C20.7186 54.1785 20.4552 53.9851 20.1552 53.8518C19.8552 53.7118 19.5286 53.6418 19.1752 53.6418V52.8618C19.8352 52.8618 20.4152 53.0118 20.9152 53.3118C21.4219 53.6051 21.8186 54.0151 22.1052 54.5418C22.3919 55.0685 22.5352 55.6751 22.5352 56.3618C22.5352 57.0418 22.3919 57.6451 22.1052 58.1718C21.8186 58.6985 21.4219 59.1118 20.9152 59.4118C20.4152 59.7118 19.8352 59.8618 19.1752 59.8618ZM17.7252 59.8618V59.0818H19.1752V59.8618H17.7252ZM17.0452 59.8618V52.8618H17.8952V59.8618H17.0452ZM17.7252 53.6418V52.8618H19.1752V53.6418H17.7252Z" fill="#465762"/>
<path d="M7.08766 59.8618L9.24766 52.8618H10.0977L7.92766 59.8618H7.08766ZM2.82766 59.8618L0.687656 52.8618H1.53766L3.65766 59.8618H2.82766ZM2.91766 59.8618L4.97766 52.8618H5.78766L3.72766 59.8618H2.91766ZM7.01766 59.8618L5.00766 52.8618H5.81766L7.85766 59.8618H7.01766ZM11.1273 59.8618V52.8618H11.9773V59.8618H11.1273ZM11.8773 59.8618V59.0918H15.2873V59.8618H11.8773ZM11.8773 56.6518V55.8918H14.9773V56.6518H11.8773ZM11.8773 53.6318V52.8618H15.2673V53.6318H11.8773ZM19.1752 59.8618V59.0818C19.5286 59.0818 19.8552 59.0151 20.1552 58.8818C20.4552 58.7418 20.7186 58.5451 20.9452 58.2918C21.1786 58.0385 21.3586 57.7485 21.4852 57.4218C21.6186 57.0885 21.6852 56.7351 21.6852 56.3618C21.6852 55.9885 21.6186 55.6385 21.4852 55.3118C21.3586 54.9785 21.1786 54.6851 20.9452 54.4318C20.7186 54.1785 20.4552 53.9851 20.1552 53.8518C19.8552 53.7118 19.5286 53.6418 19.1752 53.6418V52.8618C19.8352 52.8618 20.4152 53.0118 20.9152 53.3118C21.4219 53.6051 21.8186 54.0151 22.1052 54.5418C22.3919 55.0685 22.5352 55.6751 22.5352 56.3618C22.5352 57.0418 22.3919 57.6451 22.1052 58.1718C21.8186 58.6985 21.4219 59.1118 20.9152 59.4118C20.4152 59.7118 19.8352 59.8618 19.1752 59.8618ZM17.7252 59.8618V59.0818H19.1752V59.8618H17.7252ZM17.0452 59.8618V52.8618H17.8952V59.8618H17.0452ZM17.7252 53.6418V52.8618H19.1752V53.6418H17.7252Z" fill="white" fill-opacity="0.4"/>
<path d="M9.5257 109.724V102.724H10.3757V109.724H9.5257ZM10.2957 106.654V105.884H13.2957V106.654H10.2957ZM10.2957 103.494V102.724H13.6857V103.494H10.2957ZM15.7554 106.974V106.194H17.3554C17.6087 106.194 17.8354 106.137 18.0354 106.024C18.2354 105.904 18.3954 105.744 18.5154 105.544C18.6421 105.337 18.7054 105.104 18.7054 104.844C18.7054 104.444 18.5654 104.12 18.2854 103.874C18.0121 103.62 17.6554 103.494 17.2154 103.494H15.7554V102.724L17.2354 102.714C17.6887 102.707 18.0887 102.797 18.4354 102.984C18.7887 103.164 19.0621 103.417 19.2554 103.744C19.4554 104.064 19.5554 104.43 19.5554 104.844C19.5554 105.257 19.4487 105.624 19.2354 105.944C19.0221 106.264 18.7321 106.517 18.3654 106.704C17.9987 106.884 17.5854 106.974 17.1254 106.974H15.7554ZM14.9554 109.724V102.724H15.8054V109.724H14.9554ZM18.9054 109.724L17.2254 106.854L17.8954 106.414L19.8354 109.724H18.9054ZM21.2152 109.724V102.724H22.0652V109.724H21.2152Z" fill="#465762"/>
<path d="M9.5257 109.724V102.724H10.3757V109.724H9.5257ZM10.2957 106.654V105.884H13.2957V106.654H10.2957ZM10.2957 103.494V102.724H13.6857V103.494H10.2957ZM15.7554 106.974V106.194H17.3554C17.6087 106.194 17.8354 106.137 18.0354 106.024C18.2354 105.904 18.3954 105.744 18.5154 105.544C18.6421 105.337 18.7054 105.104 18.7054 104.844C18.7054 104.444 18.5654 104.12 18.2854 103.874C18.0121 103.62 17.6554 103.494 17.2154 103.494H15.7554V102.724L17.2354 102.714C17.6887 102.707 18.0887 102.797 18.4354 102.984C18.7887 103.164 19.0621 103.417 19.2554 103.744C19.4554 104.064 19.5554 104.43 19.5554 104.844C19.5554 105.257 19.4487 105.624 19.2354 105.944C19.0221 106.264 18.7321 106.517 18.3654 106.704C17.9987 106.884 17.5854 106.974 17.1254 106.974H15.7554ZM14.9554 109.724V102.724H15.8054V109.724H14.9554ZM18.9054 109.724L17.2254 106.854L17.8954 106.414L19.8354 109.724H18.9054ZM21.2152 109.724V102.724H22.0652V109.724H21.2152Z" fill="white" fill-opacity="0.4"/>
<path d="M5.319 84.7928V78.3728H6.159V84.7928H5.319ZM3.089 78.5628V77.7928H8.389V78.5628H3.089ZM14.2366 84.7928V77.7928H15.0766V84.7928H14.2366ZM9.42658 84.7928V77.7928H10.2766V84.7928H9.42658ZM10.1766 81.5728V80.8028H14.4166V81.5728H10.1766ZM19.5163 84.9428C18.9897 84.9428 18.523 84.8328 18.1163 84.6128C17.7163 84.3861 17.403 84.0761 17.1763 83.6828C16.9497 83.2828 16.8363 82.8228 16.8363 82.3028H17.6863C17.6863 82.6694 17.763 82.9961 17.9163 83.2828C18.0763 83.5628 18.2963 83.7828 18.5763 83.9428C18.8563 84.0961 19.1763 84.1728 19.5363 84.1728C19.903 84.1728 20.2263 84.0961 20.5063 83.9428C20.793 83.7828 21.013 83.5628 21.1663 83.2828C21.3263 82.9961 21.4063 82.6694 21.4063 82.3028H22.2463C22.2463 82.8228 22.133 83.2828 21.9063 83.6828C21.6797 84.0761 21.3597 84.3861 20.9463 84.6128C20.533 84.8328 20.0563 84.9428 19.5163 84.9428ZM16.8363 82.3028V77.7928H17.6863V82.3028H16.8363ZM21.4063 82.3028V77.7928H22.2463V82.3028H21.4063Z" fill="#465762"/>
<path d="M5.319 84.7928V78.3728H6.159V84.7928H5.319ZM3.089 78.5628V77.7928H8.389V78.5628H3.089ZM14.2366 84.7928V77.7928H15.0766V84.7928H14.2366ZM9.42658 84.7928V77.7928H10.2766V84.7928H9.42658ZM10.1766 81.5728V80.8028H14.4166V81.5728H10.1766ZM19.5163 84.9428C18.9897 84.9428 18.523 84.8328 18.1163 84.6128C17.7163 84.3861 17.403 84.0761 17.1763 83.6828C16.9497 83.2828 16.8363 82.8228 16.8363 82.3028H17.6863C17.6863 82.6694 17.763 82.9961 17.9163 83.2828C18.0763 83.5628 18.2963 83.7828 18.5763 83.9428C18.8563 84.0961 19.1763 84.1728 19.5363 84.1728C19.903 84.1728 20.2263 84.0961 20.5063 83.9428C20.793 83.7828 21.013 83.5628 21.1663 83.2828C21.3263 82.9961 21.4063 82.6694 21.4063 82.3028H22.2463C22.2463 82.8228 22.133 83.2828 21.9063 83.6828C21.6797 84.0761 21.3597 84.3861 20.9463 84.6128C20.533 84.8328 20.0563 84.9428 19.5163 84.9428ZM16.8363 82.3028V77.7928H17.6863V82.3028H16.8363ZM21.4063 82.3028V77.7928H22.2463V82.3028H21.4063Z" fill="white" fill-opacity="0.4"/>
<path opacity="0.5" d="M35.34 107.144L35.6368 107.144L36.2216 107.144L36.2216 106.847L37.9846 106.847L37.9846 107.144L39.7475 107.144L39.7475 106.847L41.5105 106.847L41.5105 107.144L43.2735 107.144L43.2735 106.847L45.0364 106.847L45.0364 107.144L46.7994 107.144L46.7994 106.847L48.5624 106.847L48.5624 107.144L50.3253 107.144L50.3253 106.847L52.0883 106.847L52.0883 107.144L53.8513 107.144L53.8513 106.847L55.6143 106.847L55.6143 107.144L57.3772 107.144L57.3772 106.847L59.1402 106.847L59.1402 107.144L60.9032 107.144L60.9032 106.847L62.6661 106.847L62.6661 107.144L64.4291 107.144L64.4291 106.847L66.1921 106.847L66.1921 107.144L67.955 107.144L67.955 106.847L69.718 106.847L69.718 107.144L71.481 107.144L71.481 106.847L73.244 106.847L73.244 107.144L75.0069 107.144L75.0069 106.847L76.7699 106.847L76.7699 107.144L78.5329 107.144L78.5329 106.847L80.2958 106.847L80.2958 107.144L82.0588 107.144L82.0588 106.847L83.8218 106.847L83.8218 107.144L85.5847 107.144L85.5847 106.847L87.3477 106.847L87.3477 107.144L89.1107 107.144L89.1107 106.847L90.8737 106.847L90.8737 107.144L92.6366 107.144L92.6366 106.847L94.3996 106.847L94.3996 107.144L96.1626 107.144L96.1626 106.847L97.9255 106.847L97.9255 107.144L99.6885 107.144L99.6885 106.847L101.451 106.847L101.451 107.144L103.214 107.144L103.214 106.847L104.977 106.847L104.977 107.144L106.74 107.144L106.74 106.847L108.503 106.847L108.503 107.144L110.266 107.144L110.266 106.847L112.029 106.847L112.029 107.144L113.792 107.144L113.792 106.847L115.555 106.847L115.555 107.144L117.318 107.144L117.318 106.847L119.081 106.847L119.081 107.144L120.844 107.144L120.844 106.847L122.607 106.847L122.607 107.144L124.37 107.144L124.37 106.847L126.133 106.847L126.133 107.144L127.896 107.144L127.896 106.847L129.659 106.847L129.659 107.144L131.422 107.144L131.422 106.847L133.185 106.847L133.185 107.144L134.948 107.144L134.948 106.847L136.711 106.847L136.711 107.144L138.474 107.144L138.474 106.847L140.237 106.847L140.237 107.144L142 107.144L142 106.847L143.763 106.847L143.763 107.144L145.526 107.144L145.526 106.847L147.289 106.847L147.289 107.144L149.052 107.144L149.052 106.847L150.815 106.847L150.815 107.144L152.578 107.144L152.578 106.847L154.341 106.847L154.341 107.144L156.104 107.144L156.104 106.847L157.867 106.847L157.867 107.144L159.63 107.144L159.63 106.847L161.392 106.847L161.392 107.144L163.155 107.144L163.155 106.847L164.918 106.847L164.918 107.144L166.681 107.144L166.681 106.847L168.444 106.847L168.444 107.144L170.207 107.144L170.207 106.847L171.97 106.847L171.97 107.144L173.733 107.144L173.733 106.847L175.496 106.847L175.496 107.144L177.259 107.144L177.259 106.847L179.022 106.847L179.022 107.144L180.785 107.144L180.785 106.847L182.548 106.847L182.548 107.144L184.311 107.144L184.311 106.847L186.074 106.847L186.074 107.144L187.837 107.144L187.837 106.847L189.6 106.847L189.6 107.144L191.363 107.144L191.363 106.847L193.126 106.847L193.126 107.144L194.889 107.144L194.889 106.847L196.652 106.847L196.652 107.144L198.415 107.144L198.415 106.847L200.178 106.847L200.178 107.144L201.941 107.144L201.941 106.847L203.704 106.847L203.704 107.144L205.467 107.144L205.467 106.847L207.23 106.847L207.23 107.144L208.993 107.144L208.993 106.847L210.756 106.847L210.756 107.144L211.34 107.144L211.34 107.144L211.637 107.144L211.637 107.737L211.34 107.737L211.34 107.737L210.756 107.737L210.756 108.034L208.993 108.034L208.993 107.737L207.23 107.737L207.23 108.034L205.467 108.034L205.467 107.737L203.704 107.737L203.704 108.034L201.941 108.034L201.941 107.737L200.178 107.737L200.178 108.034L198.415 108.034L198.415 107.737L196.652 107.737L196.652 108.034L194.889 108.034L194.889 107.737L193.126 107.737L193.126 108.034L191.363 108.034L191.363 107.737L189.6 107.737L189.6 108.034L187.837 108.034L187.837 107.737L186.074 107.737L186.074 108.034L184.311 108.034L184.311 107.737L182.548 107.737L182.548 108.034L180.785 108.034L180.785 107.737L179.022 107.737L179.022 108.034L177.259 108.034L177.259 107.737L175.496 107.737L175.496 108.034L173.733 108.034L173.733 107.737L171.97 107.737L171.97 108.034L170.207 108.034L170.207 107.737L168.444 107.737L168.444 108.034L166.681 108.034L166.681 107.737L164.918 107.737L164.918 108.034L163.155 108.034L163.155 107.737L161.392 107.737L161.392 108.034L159.629 108.034L159.629 107.737L157.866 107.737L157.866 108.034L156.104 108.034L156.104 107.737L154.341 107.737L154.341 108.034L152.578 108.034L152.578 107.737L150.815 107.737L150.815 108.034L149.052 108.034L149.052 107.737L147.289 107.737L147.289 108.034L145.526 108.034L145.526 107.737L143.763 107.737L143.763 108.034L142 108.034L142 107.737L140.237 107.737L140.237 108.034L138.474 108.034L138.474 107.737L136.711 107.737L136.711 108.034L134.948 108.034L134.948 107.737L133.185 107.737L133.185 108.034L131.422 108.034L131.422 107.737L129.659 107.737L129.659 108.034L127.896 108.034L127.896 107.737L126.133 107.737L126.133 108.034L124.37 108.034L124.37 107.737L122.607 107.737L122.607 108.034L120.844 108.034L120.844 107.737L119.081 107.737L119.081 108.034L117.318 108.034L117.318 107.737L115.555 107.737L115.555 108.034L113.792 108.034L113.792 107.737L112.029 107.737L112.029 108.034L110.266 108.034L110.266 107.737L108.503 107.737L108.503 108.034L106.74 108.034L106.74 107.737L104.977 107.737L104.977 108.034L103.214 108.034L103.214 107.737L101.451 107.737L101.451 108.034L99.6885 108.034L99.6885 107.737L97.9255 107.737L97.9255 108.034L96.1625 108.034L96.1625 107.737L94.3996 107.737L94.3996 108.034L92.6366 108.034L92.6366 107.737L90.8736 107.737L90.8736 108.034L89.1106 108.034L89.1106 107.737L87.3477 107.737L87.3477 108.034L85.5847 108.034L85.5847 107.737L83.8217 107.737L83.8217 108.034L82.0587 108.034L82.0587 107.737L80.2958 107.737L80.2958 108.034L78.5328 108.034L78.5328 107.737L76.7698 107.737L76.7698 108.034L75.0069 108.034L75.0069 107.737L73.2439 107.737L73.2439 108.034L71.4809 108.034L71.4809 107.737L69.7179 107.737L69.7179 108.034L67.9549 108.034L67.9549 107.737L66.192 107.737L66.192 108.034L64.429 108.034L64.429 107.737L62.666 107.737L62.666 108.034L60.9031 108.034L60.9031 107.737L59.1401 107.737L59.1401 108.034L57.3771 108.034L57.3771 107.737L55.6142 107.737L55.6142 108.034L53.8512 108.034L53.8512 107.737L52.0882 107.737L52.0882 108.034L50.3252 108.034L50.3252 107.737L48.5623 107.737L48.5623 108.034L46.7993 108.034L46.7993 107.737L45.0363 107.737L45.0363 108.034L43.2733 108.034L43.2733 107.737L41.5104 107.737L41.5104 108.034L39.7474 108.034L39.7474 107.737L37.9844 107.737L37.9844 108.034L36.2215 108.034L36.2215 107.737L35.6368 107.737L35.34 107.737L35.34 107.144Z" stroke="#DCDCDC" stroke-width="0.593593" stroke-dasharray="1.78 1.78"/>
<path opacity="0.5" d="M35.9332 81.6191L36.23 81.6191L36.8148 81.6191L36.8148 81.3223L38.5778 81.3223L38.5778 81.6191L40.3408 81.6191L40.3408 81.3223L42.1038 81.3223L42.1038 81.6191L43.8667 81.6191L43.8667 81.3223L45.6297 81.3223L45.6297 81.6191L47.3927 81.6191L47.3927 81.3223L49.1556 81.3223L49.1556 81.6191L50.9186 81.6191L50.9186 81.3223L52.6816 81.3223L52.6816 81.6191L54.4445 81.6191L54.4445 81.3223L56.2075 81.3223L56.2075 81.6191L57.9705 81.6191L57.9705 81.3223L59.7335 81.3223L59.7335 81.6191L61.4964 81.6191L61.4964 81.3223L63.2594 81.3223L63.2594 81.6191L65.0224 81.6191L65.0224 81.3223L66.7853 81.3223L66.7853 81.6191L68.5483 81.6191L68.5483 81.3223L70.3113 81.3223L70.3113 81.6191L72.0742 81.6191L72.0742 81.3223L73.8372 81.3223L73.8372 81.6191L75.6002 81.6191L75.6002 81.3223L77.3632 81.3223L77.3632 81.6191L79.1261 81.6191L79.1261 81.3223L80.8891 81.3223L80.8891 81.6191L82.6521 81.6191L82.6521 81.3223L84.415 81.3223L84.415 81.6191L86.178 81.6191L86.178 81.3223L87.941 81.3223L87.941 81.6191L89.7039 81.6191L89.7039 81.3223L91.4669 81.3223L91.4669 81.6191L93.2299 81.6191L93.2299 81.3223L94.9929 81.3223L94.9929 81.6191L96.7558 81.6191L96.7558 81.3223L98.5188 81.3223L98.5188 81.6191L100.282 81.6191L100.282 81.3223L102.045 81.3223L102.045 81.6191L103.808 81.6191L103.808 81.3223L105.571 81.3223L105.571 81.6191L107.334 81.6191L107.334 81.3223L109.097 81.3223L109.097 81.6191L110.86 81.6191L110.86 81.3223L112.623 81.3223L112.623 81.6191L114.386 81.6191L114.386 81.3223L116.148 81.3223L116.148 81.6191L117.911 81.6191L117.911 81.3223L119.674 81.3223L119.674 81.6191L121.437 81.6191L121.437 81.3223L123.2 81.3223L123.2 81.6191L124.963 81.6191L124.963 81.3223L126.726 81.3223L126.726 81.6191L128.489 81.6191L128.489 81.3223L130.252 81.3223L130.252 81.6191L132.015 81.6191L132.015 81.3223L133.778 81.3223L133.778 81.6191L135.541 81.6191L135.541 81.3223L137.304 81.3223L137.304 81.6191L139.067 81.6191L139.067 81.3223L140.83 81.3223L140.83 81.6191L142.593 81.6191L142.593 81.3223L144.356 81.3223L144.356 81.6191L146.119 81.6191L146.119 81.3223L147.882 81.3223L147.882 81.6191L149.645 81.6191L149.645 81.3223L151.408 81.3223L151.408 81.6191L153.171 81.6191L153.171 81.3223L154.934 81.3223L154.934 81.6191L156.697 81.6191L156.697 81.3223L158.46 81.3223L158.46 81.6191L160.223 81.6191L160.223 81.3223L161.986 81.3223L161.986 81.6191L163.749 81.6191L163.749 81.3223L165.512 81.3223L165.512 81.6191L167.275 81.6191L167.275 81.3223L169.038 81.3223L169.038 81.6191L170.801 81.6191L170.801 81.3223L172.564 81.3223L172.564 81.6191L174.327 81.6191L174.327 81.3223L176.09 81.3223L176.09 81.6191L177.853 81.6191L177.853 81.3223L179.615 81.3223L179.615 81.6191L181.378 81.6191L181.378 81.3223L183.141 81.3223L183.141 81.6191L184.904 81.6191L184.904 81.3223L186.667 81.3223L186.667 81.6191L188.43 81.6191L188.43 81.3223L190.193 81.3223L190.193 81.6191L191.956 81.6191L191.956 81.3223L193.719 81.3223L193.719 81.6191L195.482 81.6191L195.482 81.3223L197.245 81.3223L197.245 81.6191L199.008 81.6191L199.008 81.3223L200.771 81.3223L200.771 81.6191L202.534 81.6191L202.534 81.3223L204.297 81.3223L204.297 81.6191L206.06 81.6191L206.06 81.3223L207.823 81.3223L207.823 81.6191L209.586 81.6191L209.586 81.3223L211.349 81.3223L211.349 81.6191L211.934 81.6191L211.934 81.6191L212.23 81.6191L212.23 82.2127L211.934 82.2127L211.934 82.2127L211.349 82.2127L211.349 82.5095L209.586 82.5095L209.586 82.2127L207.823 82.2127L207.823 82.5095L206.06 82.5095L206.06 82.2127L204.297 82.2127L204.297 82.5095L202.534 82.5095L202.534 82.2127L200.771 82.2127L200.771 82.5095L199.008 82.5095L199.008 82.2127L197.245 82.2127L197.245 82.5095L195.482 82.5095L195.482 82.2127L193.719 82.2127L193.719 82.5095L191.956 82.5095L191.956 82.2127L190.193 82.2127L190.193 82.5095L188.43 82.5095L188.43 82.2127L186.667 82.2127L186.667 82.5095L184.904 82.5095L184.904 82.2127L183.141 82.2127L183.141 82.5095L181.378 82.5095L181.378 82.2127L179.615 82.2127L179.615 82.5095L177.852 82.5095L177.852 82.2127L176.089 82.2127L176.089 82.5095L174.326 82.5095L174.326 82.2127L172.564 82.2127L172.564 82.5095L170.801 82.5095L170.801 82.2127L169.038 82.2127L169.038 82.5095L167.275 82.5095L167.275 82.2127L165.512 82.2127L165.512 82.5095L163.749 82.5095L163.749 82.2127L161.986 82.2127L161.986 82.5095L160.223 82.5095L160.223 82.2127L158.46 82.2127L158.46 82.5095L156.697 82.5095L156.697 82.2127L154.934 82.2127L154.934 82.5095L153.171 82.5095L153.171 82.2127L151.408 82.2127L151.408 82.5095L149.645 82.5095L149.645 82.2127L147.882 82.2127L147.882 82.5095L146.119 82.5095L146.119 82.2127L144.356 82.2127L144.356 82.5095L142.593 82.5095L142.593 82.2127L140.83 82.2127L140.83 82.5095L139.067 82.5095L139.067 82.2127L137.304 82.2127L137.304 82.5095L135.541 82.5095L135.541 82.2127L133.778 82.2127L133.778 82.5095L132.015 82.5095L132.015 82.2127L130.252 82.2127L130.252 82.5095L128.489 82.5095L128.489 82.2127L126.726 82.2127L126.726 82.5095L124.963 82.5095L124.963 82.2127L123.2 82.2127L123.2 82.5095L121.437 82.5095L121.437 82.2127L119.674 82.2127L119.674 82.5095L117.911 82.5095L117.911 82.2127L116.148 82.2127L116.148 82.5095L114.385 82.5095L114.385 82.2127L112.623 82.2127L112.623 82.5095L110.86 82.5095L110.86 82.2127L109.097 82.2127L109.097 82.5095L107.334 82.5095L107.334 82.2127L105.571 82.2127L105.571 82.5095L103.808 82.5095L103.808 82.2127L102.045 82.2127L102.045 82.5095L100.282 82.5095L100.282 82.2127L98.5188 82.2127L98.5188 82.5095L96.7558 82.5095L96.7558 82.2127L94.9928 82.2127L94.9928 82.5095L93.2298 82.5095L93.2298 82.2127L91.4669 82.2127L91.4669 82.5095L89.7039 82.5095L89.7039 82.2127L87.9409 82.2127L87.9409 82.5095L86.1779 82.5095L86.1779 82.2127L84.415 82.2127L84.415 82.5095L82.652 82.5095L82.652 82.2127L80.889 82.2127L80.889 82.5095L79.1261 82.5095L79.1261 82.2127L77.3631 82.2127L77.3631 82.5095L75.6001 82.5095L75.6001 82.2127L73.8371 82.2127L73.8371 82.5095L72.0742 82.5095L72.0742 82.2127L70.3112 82.2127L70.3112 82.5095L68.5482 82.5095L68.5482 82.2127L66.7852 82.2127L66.7852 82.5095L65.0223 82.5095L65.0223 82.2127L63.2593 82.2127L63.2593 82.5095L61.4963 82.5095L61.4963 82.2127L59.7334 82.2127L59.7334 82.5095L57.9704 82.5095L57.9704 82.2127L56.2074 82.2127L56.2074 82.5095L54.4444 82.5095L54.4444 82.2127L52.6815 82.2127L52.6815 82.5095L50.9185 82.5095L50.9185 82.2127L49.1555 82.2127L49.1555 82.5095L47.3925 82.5095L47.3925 82.2127L45.6296 82.2127L45.6296 82.5095L43.8666 82.5095L43.8666 82.2127L42.1036 82.2127L42.1036 82.5095L40.3407 82.5095L40.3407 82.2127L38.5777 82.2127L38.5777 82.5095L36.8147 82.5095L36.8147 82.2127L36.23 82.2127L35.9332 82.2127L35.9332 81.6191Z" stroke="#DCDCDC" stroke-width="0.593593" stroke-dasharray="1.78 1.78"/>
<path opacity="0.5" d="M35.9332 57.8753L36.23 57.8753L36.8148 57.8753L36.8148 57.5785L38.5778 57.5785L38.5778 57.8753L40.3408 57.8753L40.3408 57.5785L42.1038 57.5785L42.1038 57.8753L43.8667 57.8753L43.8667 57.5785L45.6297 57.5785L45.6297 57.8753L47.3927 57.8753L47.3927 57.5785L49.1556 57.5785L49.1556 57.8753L50.9186 57.8753L50.9186 57.5785L52.6816 57.5785L52.6816 57.8753L54.4445 57.8753L54.4445 57.5785L56.2075 57.5785L56.2075 57.8753L57.9705 57.8753L57.9705 57.5785L59.7335 57.5785L59.7335 57.8753L61.4964 57.8753L61.4964 57.5785L63.2594 57.5785L63.2594 57.8753L65.0224 57.8753L65.0224 57.5785L66.7853 57.5785L66.7853 57.8753L68.5483 57.8753L68.5483 57.5785L70.3113 57.5785L70.3113 57.8753L72.0742 57.8753L72.0742 57.5785L73.8372 57.5785L73.8372 57.8753L75.6002 57.8753L75.6002 57.5785L77.3632 57.5785L77.3632 57.8753L79.1261 57.8753L79.1261 57.5785L80.8891 57.5785L80.8891 57.8753L82.6521 57.8753L82.6521 57.5785L84.415 57.5785L84.415 57.8753L86.178 57.8753L86.178 57.5785L87.941 57.5785L87.941 57.8753L89.7039 57.8753L89.7039 57.5785L91.4669 57.5785L91.4669 57.8753L93.2299 57.8753L93.2299 57.5785L94.9929 57.5785L94.9929 57.8753L96.7558 57.8753L96.7558 57.5785L98.5188 57.5785L98.5188 57.8753L100.282 57.8753L100.282 57.5785L102.045 57.5785L102.045 57.8753L103.808 57.8753L103.808 57.5785L105.571 57.5785L105.571 57.8753L107.334 57.8753L107.334 57.5785L109.097 57.5785L109.097 57.8753L110.86 57.8753L110.86 57.5785L112.623 57.5785L112.623 57.8753L114.386 57.8753L114.386 57.5785L116.148 57.5785L116.148 57.8753L117.911 57.8753L117.911 57.5785L119.674 57.5785L119.674 57.8753L121.437 57.8753L121.437 57.5785L123.2 57.5785L123.2 57.8753L124.963 57.8753L124.963 57.5785L126.726 57.5785L126.726 57.8753L128.489 57.8753L128.489 57.5785L130.252 57.5785L130.252 57.8753L132.015 57.8753L132.015 57.5785L133.778 57.5785L133.778 57.8753L135.541 57.8753L135.541 57.5785L137.304 57.5785L137.304 57.8753L139.067 57.8753L139.067 57.5785L140.83 57.5785L140.83 57.8753L142.593 57.8753L142.593 57.5785L144.356 57.5785L144.356 57.8753L146.119 57.8753L146.119 57.5785L147.882 57.5785L147.882 57.8753L149.645 57.8753L149.645 57.5785L151.408 57.5785L151.408 57.8753L153.171 57.8753L153.171 57.5785L154.934 57.5785L154.934 57.8753L156.697 57.8753L156.697 57.5785L158.46 57.5785L158.46 57.8753L160.223 57.8753L160.223 57.5785L161.986 57.5786L161.986 57.8753L163.749 57.8753L163.749 57.5786L165.512 57.5786L165.512 57.8753L167.275 57.8753L167.275 57.5786L169.038 57.5786L169.038 57.8753L170.801 57.8753L170.801 57.5786L172.564 57.5786L172.564 57.8753L174.327 57.8753L174.327 57.5786L176.09 57.5786L176.09 57.8753L177.853 57.8753L177.853 57.5786L179.615 57.5786L179.615 57.8753L181.378 57.8753L181.378 57.5786L183.141 57.5786L183.141 57.8753L184.904 57.8753L184.904 57.5786L186.667 57.5786L186.667 57.8753L188.43 57.8753L188.43 57.5786L190.193 57.5786L190.193 57.8753L191.956 57.8753L191.956 57.5786L193.719 57.5786L193.719 57.8753L195.482 57.8753L195.482 57.5786L197.245 57.5786L197.245 57.8753L199.008 57.8753L199.008 57.5786L200.771 57.5786L200.771 57.8753L202.534 57.8753L202.534 57.5786L204.297 57.5786L204.297 57.8753L206.06 57.8753L206.06 57.5786L207.823 57.5786L207.823 57.8753L209.586 57.8753L209.586 57.5786L211.349 57.5786L211.349 57.8753L211.934 57.8753L211.934 57.8754L212.23 57.8754L212.23 58.4689L211.934 58.4689L211.934 58.469L211.349 58.4689L211.349 58.7657L209.586 58.7657L209.586 58.4689L207.823 58.4689L207.823 58.7657L206.06 58.7657L206.06 58.4689L204.297 58.4689L204.297 58.7657L202.534 58.7657L202.534 58.4689L200.771 58.4689L200.771 58.7657L199.008 58.7657L199.008 58.4689L197.245 58.4689L197.245 58.7657L195.482 58.7657L195.482 58.4689L193.719 58.4689L193.719 58.7657L191.956 58.7657L191.956 58.4689L190.193 58.4689L190.193 58.7657L188.43 58.7657L188.43 58.4689L186.667 58.4689L186.667 58.7657L184.904 58.7657L184.904 58.4689L183.141 58.4689L183.141 58.7657L181.378 58.7657L181.378 58.4689L179.615 58.4689L179.615 58.7657L177.852 58.7657L177.852 58.4689L176.089 58.4689L176.089 58.7657L174.326 58.7657L174.326 58.4689L172.564 58.4689L172.564 58.7657L170.801 58.7657L170.801 58.4689L169.038 58.4689L169.038 58.7657L167.275 58.7657L167.275 58.4689L165.512 58.4689L165.512 58.7657L163.749 58.7657L163.749 58.4689L161.986 58.4689L161.986 58.7657L160.223 58.7657L160.223 58.4689L158.46 58.4689L158.46 58.7657L156.697 58.7657L156.697 58.4689L154.934 58.4689L154.934 58.7657L153.171 58.7657L153.171 58.4689L151.408 58.4689L151.408 58.7657L149.645 58.7657L149.645 58.4689L147.882 58.4689L147.882 58.7657L146.119 58.7657L146.119 58.4689L144.356 58.4689L144.356 58.7657L142.593 58.7657L142.593 58.4689L140.83 58.4689L140.83 58.7657L139.067 58.7657L139.067 58.4689L137.304 58.4689L137.304 58.7657L135.541 58.7657L135.541 58.4689L133.778 58.4689L133.778 58.7657L132.015 58.7657L132.015 58.4689L130.252 58.4689L130.252 58.7657L128.489 58.7657L128.489 58.4689L126.726 58.4689L126.726 58.7657L124.963 58.7657L124.963 58.4689L123.2 58.4689L123.2 58.7657L121.437 58.7657L121.437 58.4689L119.674 58.4689L119.674 58.7657L117.911 58.7657L117.911 58.4689L116.148 58.4689L116.148 58.7657L114.385 58.7657L114.385 58.4689L112.623 58.4689L112.623 58.7657L110.86 58.7657L110.86 58.4689L109.097 58.4689L109.097 58.7657L107.334 58.7657L107.334 58.4689L105.571 58.4689L105.571 58.7657L103.808 58.7657L103.808 58.4689L102.045 58.4689L102.045 58.7657L100.282 58.7657L100.282 58.4689L98.5188 58.4689L98.5188 58.7657L96.7558 58.7657L96.7558 58.4689L94.9928 58.4689L94.9928 58.7657L93.2298 58.7657L93.2298 58.4689L91.4669 58.4689L91.4669 58.7657L89.7039 58.7657L89.7039 58.4689L87.9409 58.4689L87.9409 58.7657L86.1779 58.7657L86.1779 58.4689L84.415 58.4689L84.415 58.7657L82.652 58.7657L82.652 58.4689L80.889 58.4689L80.889 58.7657L79.1261 58.7657L79.1261 58.4689L77.3631 58.4689L77.3631 58.7657L75.6001 58.7657L75.6001 58.4689L73.8371 58.4689L73.8371 58.7657L72.0742 58.7657L72.0742 58.4689L70.3112 58.4689L70.3112 58.7657L68.5482 58.7657L68.5482 58.4689L66.7852 58.4689L66.7852 58.7657L65.0223 58.7657L65.0223 58.4689L63.2593 58.4689L63.2593 58.7657L61.4963 58.7657L61.4963 58.4689L59.7334 58.4689L59.7334 58.7657L57.9704 58.7657L57.9704 58.4689L56.2074 58.4689L56.2074 58.7657L54.4444 58.7657L54.4444 58.4689L52.6815 58.4689L52.6815 58.7657L50.9185 58.7657L50.9185 58.4689L49.1555 58.4689L49.1555 58.7657L47.3925 58.7657L47.3925 58.4689L45.6296 58.4689L45.6296 58.7657L43.8666 58.7657L43.8666 58.4689L42.1036 58.4689L42.1036 58.7657L40.3407 58.7657L40.3407 58.4689L38.5777 58.4689L38.5777 58.7657L36.8147 58.7657L36.8147 58.4689L36.23 58.4689L35.9332 58.4689L35.9332 57.8753Z" stroke="#DCDCDC" stroke-width="0.593593" stroke-dasharray="1.78 1.78"/>
<path opacity="0.5" d="M35.9332 31.7572L36.23 31.7572L36.8148 31.7572L36.8148 31.4604L38.5778 31.4604L38.5778 31.7572L40.3408 31.7572L40.3408 31.4604L42.1038 31.4604L42.1038 31.7572L43.8667 31.7572L43.8667 31.4604L45.6297 31.4604L45.6297 31.7572L47.3927 31.7572L47.3927 31.4604L49.1556 31.4604L49.1556 31.7572L50.9186 31.7572L50.9186 31.4604L52.6816 31.4604L52.6816 31.7572L54.4445 31.7572L54.4445 31.4604L56.2075 31.4604L56.2075 31.7572L57.9705 31.7572L57.9705 31.4604L59.7335 31.4604L59.7335 31.7572L61.4964 31.7572L61.4964 31.4604L63.2594 31.4604L63.2594 31.7572L65.0224 31.7572L65.0224 31.4604L66.7853 31.4604L66.7853 31.7572L68.5483 31.7572L68.5483 31.4604L70.3113 31.4604L70.3113 31.7572L72.0742 31.7572L72.0742 31.4604L73.8372 31.4604L73.8372 31.7572L75.6002 31.7572L75.6002 31.4604L77.3632 31.4604L77.3632 31.7572L79.1261 31.7572L79.1261 31.4604L80.8891 31.4604L80.8891 31.7572L82.6521 31.7572L82.6521 31.4604L84.415 31.4604L84.415 31.7572L86.178 31.7572L86.178 31.4604L87.941 31.4604L87.941 31.7572L89.7039 31.7572L89.7039 31.4604L91.4669 31.4604L91.4669 31.7572L93.2299 31.7572L93.2299 31.4604L94.9929 31.4604L94.9929 31.7572L96.7558 31.7572L96.7558 31.4604L98.5188 31.4604L98.5188 31.7572L100.282 31.7572L100.282 31.4604L102.045 31.4604L102.045 31.7572L103.808 31.7572L103.808 31.4604L105.571 31.4604L105.571 31.7572L107.334 31.7572L107.334 31.4604L109.097 31.4604L109.097 31.7572L110.86 31.7572L110.86 31.4604L112.623 31.4604L112.623 31.7572L114.386 31.7572L114.386 31.4604L116.148 31.4604L116.148 31.7572L117.911 31.7572L117.911 31.4604L119.674 31.4604L119.674 31.7572L121.437 31.7572L121.437 31.4604L123.2 31.4604L123.2 31.7572L124.963 31.7572L124.963 31.4604L126.726 31.4604L126.726 31.7572L128.489 31.7572L128.489 31.4604L130.252 31.4604L130.252 31.7572L132.015 31.7572L132.015 31.4604L133.778 31.4604L133.778 31.7572L135.541 31.7572L135.541 31.4604L137.304 31.4604L137.304 31.7572L139.067 31.7572L139.067 31.4604L140.83 31.4604L140.83 31.7572L142.593 31.7572L142.593 31.4604L144.356 31.4604L144.356 31.7572L146.119 31.7572L146.119 31.4604L147.882 31.4604L147.882 31.7572L149.645 31.7572L149.645 31.4604L151.408 31.4604L151.408 31.7572L153.171 31.7572L153.171 31.4604L154.934 31.4604L154.934 31.7572L156.697 31.7572L156.697 31.4604L158.46 31.4604L158.46 31.7572L160.223 31.7572L160.223 31.4604L161.986 31.4604L161.986 31.7572L163.749 31.7572L163.749 31.4604L165.512 31.4604L165.512 31.7572L167.275 31.7572L167.275 31.4604L169.038 31.4604L169.038 31.7572L170.801 31.7572L170.801 31.4604L172.564 31.4604L172.564 31.7572L174.327 31.7572L174.327 31.4604L176.09 31.4604L176.09 31.7572L177.853 31.7572L177.853 31.4604L179.615 31.4604L179.615 31.7572L181.378 31.7572L181.378 31.4604L183.141 31.4604L183.141 31.7572L184.904 31.7572L184.904 31.4604L186.667 31.4604L186.667 31.7572L188.43 31.7572L188.43 31.4604L190.193 31.4604L190.193 31.7572L191.956 31.7572L191.956 31.4604L193.719 31.4604L193.719 31.7572L195.482 31.7572L195.482 31.4604L197.245 31.4604L197.245 31.7572L199.008 31.7572L199.008 31.4604L200.771 31.4604L200.771 31.7572L202.534 31.7572L202.534 31.4604L204.297 31.4604L204.297 31.7572L206.06 31.7572L206.06 31.4604L207.823 31.4604L207.823 31.7572L209.586 31.7572L209.586 31.4604L211.349 31.4604L211.349 31.7572L211.934 31.7572L211.934 31.7572L212.23 31.7572L212.23 32.3508L211.934 32.3508L211.934 32.3508L211.349 32.3508L211.349 32.6476L209.586 32.6476L209.586 32.3508L207.823 32.3508L207.823 32.6476L206.06 32.6476L206.06 32.3508L204.297 32.3508L204.297 32.6476L202.534 32.6476L202.534 32.3508L200.771 32.3508L200.771 32.6476L199.008 32.6476L199.008 32.3508L197.245 32.3508L197.245 32.6476L195.482 32.6476L195.482 32.3508L193.719 32.3508L193.719 32.6476L191.956 32.6476L191.956 32.3508L190.193 32.3508L190.193 32.6476L188.43 32.6476L188.43 32.3508L186.667 32.3508L186.667 32.6476L184.904 32.6476L184.904 32.3508L183.141 32.3508L183.141 32.6476L181.378 32.6476L181.378 32.3508L179.615 32.3508L179.615 32.6476L177.852 32.6476L177.852 32.3508L176.089 32.3508L176.089 32.6476L174.326 32.6476L174.326 32.3508L172.564 32.3508L172.564 32.6476L170.801 32.6476L170.801 32.3508L169.038 32.3508L169.038 32.6476L167.275 32.6476L167.275 32.3508L165.512 32.3508L165.512 32.6476L163.749 32.6476L163.749 32.3508L161.986 32.3508L161.986 32.6476L160.223 32.6476L160.223 32.3508L158.46 32.3508L158.46 32.6476L156.697 32.6476L156.697 32.3508L154.934 32.3508L154.934 32.6476L153.171 32.6476L153.171 32.3508L151.408 32.3508L151.408 32.6476L149.645 32.6476L149.645 32.3508L147.882 32.3508L147.882 32.6476L146.119 32.6476L146.119 32.3508L144.356 32.3508L144.356 32.6476L142.593 32.6476L142.593 32.3508L140.83 32.3508L140.83 32.6476L139.067 32.6476L139.067 32.3508L137.304 32.3508L137.304 32.6476L135.541 32.6476L135.541 32.3508L133.778 32.3508L133.778 32.6476L132.015 32.6476L132.015 32.3508L130.252 32.3508L130.252 32.6476L128.489 32.6476L128.489 32.3508L126.726 32.3508L126.726 32.6476L124.963 32.6476L124.963 32.3508L123.2 32.3508L123.2 32.6476L121.437 32.6476L121.437 32.3508L119.674 32.3508L119.674 32.6476L117.911 32.6476L117.911 32.3508L116.148 32.3508L116.148 32.6476L114.385 32.6476L114.385 32.3508L112.623 32.3508L112.623 32.6476L110.86 32.6476L110.86 32.3508L109.097 32.3508L109.097 32.6476L107.334 32.6476L107.334 32.3508L105.571 32.3508L105.571 32.6476L103.808 32.6476L103.808 32.3508L102.045 32.3508L102.045 32.6476L100.282 32.6476L100.282 32.3508L98.5188 32.3508L98.5188 32.6476L96.7558 32.6476L96.7558 32.3508L94.9928 32.3508L94.9928 32.6476L93.2298 32.6476L93.2298 32.3508L91.4669 32.3508L91.4669 32.6476L89.7039 32.6476L89.7039 32.3508L87.9409 32.3508L87.9409 32.6476L86.1779 32.6476L86.1779 32.3508L84.415 32.3508L84.415 32.6476L82.652 32.6476L82.652 32.3508L80.889 32.3508L80.889 32.6476L79.1261 32.6476L79.1261 32.3508L77.3631 32.3508L77.3631 32.6476L75.6001 32.6476L75.6001 32.3508L73.8371 32.3508L73.8371 32.6476L72.0742 32.6476L72.0742 32.3508L70.3112 32.3508L70.3112 32.6476L68.5482 32.6476L68.5482 32.3508L66.7852 32.3508L66.7852 32.6476L65.0223 32.6476L65.0223 32.3508L63.2593 32.3508L63.2593 32.6476L61.4963 32.6476L61.4963 32.3508L59.7334 32.3508L59.7334 32.6476L57.9704 32.6476L57.9704 32.3508L56.2074 32.3508L56.2074 32.6476L54.4444 32.6476L54.4444 32.3508L52.6815 32.3508L52.6815 32.6476L50.9185 32.6476L50.9185 32.3508L49.1555 32.3508L49.1555 32.6476L47.3925 32.6476L47.3925 32.3508L45.6296 32.3508L45.6296 32.6476L43.8666 32.6476L43.8666 32.3508L42.1036 32.3508L42.1036 32.6476L40.3407 32.6476L40.3407 32.3508L38.5777 32.3508L38.5777 32.6476L36.8147 32.6476L36.8147 32.3508L36.23 32.3508L35.9332 32.3508L35.9332 31.7572Z" stroke="#DCDCDC" stroke-width="0.593593" stroke-dasharray="1.78 1.78"/>
<path opacity="0.5" d="M35.9332 6.82627L36.23 6.82627L36.8148 6.82627L36.8148 6.52947L38.5778 6.52947L38.5778 6.82627L40.3408 6.82627L40.3408 6.52947L42.1038 6.52947L42.1038 6.82627L43.8667 6.82627L43.8667 6.52947L45.6297 6.52947L45.6297 6.82627L47.3927 6.82627L47.3927 6.52947L49.1556 6.52947L49.1556 6.82627L50.9186 6.82627L50.9186 6.52947L52.6816 6.52947L52.6816 6.82627L54.4445 6.82627L54.4445 6.52947L56.2075 6.52947L56.2075 6.82627L57.9705 6.82627L57.9705 6.52947L59.7335 6.52947L59.7335 6.82627L61.4964 6.82627L61.4964 6.52947L63.2594 6.52947L63.2594 6.82627L65.0224 6.82627L65.0224 6.52947L66.7853 6.52947L66.7853 6.82627L68.5483 6.82627L68.5483 6.52947L70.3113 6.52947L70.3113 6.82627L72.0742 6.82627L72.0742 6.52947L73.8372 6.52947L73.8372 6.82627L75.6002 6.82627L75.6002 6.52947L77.3632 6.52947L77.3632 6.82627L79.1261 6.82627L79.1261 6.52947L80.8891 6.52947L80.8891 6.82627L82.6521 6.82627L82.6521 6.52947L84.415 6.52947L84.415 6.82627L86.178 6.82627L86.178 6.52947L87.941 6.52947L87.941 6.82627L89.7039 6.82627L89.7039 6.52947L91.4669 6.52947L91.4669 6.82627L93.2299 6.82627L93.2299 6.52947L94.9929 6.52947L94.9929 6.82627L96.7558 6.82627L96.7558 6.52947L98.5188 6.52948L98.5188 6.82627L100.282 6.82627L100.282 6.52948L102.045 6.52948L102.045 6.82627L103.808 6.82627L103.808 6.52948L105.571 6.52948L105.571 6.82627L107.334 6.82627L107.334 6.52948L109.097 6.52948L109.097 6.82627L110.86 6.82627L110.86 6.52948L112.623 6.52948L112.623 6.82627L114.386 6.82627L114.386 6.52948L116.148 6.52948L116.148 6.82627L117.911 6.82627L117.911 6.52948L119.674 6.52948L119.674 6.82627L121.437 6.82627L121.437 6.52948L123.2 6.52948L123.2 6.82627L124.963 6.82627L124.963 6.52948L126.726 6.52948L126.726 6.82627L128.489 6.82627L128.489 6.52948L130.252 6.52948L130.252 6.82627L132.015 6.82627L132.015 6.52948L133.778 6.52948L133.778 6.82627L135.541 6.82627L135.541 6.52948L137.304 6.52948L137.304 6.82627L139.067 6.82627L139.067 6.52948L140.83 6.52948L140.83 6.82627L142.593 6.82627L142.593 6.52948L144.356 6.52948L144.356 6.82627L146.119 6.82627L146.119 6.52948L147.882 6.52948L147.882 6.82627L149.645 6.82627L149.645 6.52948L151.408 6.52948L151.408 6.82627L153.171 6.82627L153.171 6.52948L154.934 6.52948L154.934 6.82627L156.697 6.82627L156.697 6.52948L158.46 6.52948L158.46 6.82627L160.223 6.82627L160.223 6.52948L161.986 6.52948L161.986 6.82627L163.749 6.82627L163.749 6.52948L165.512 6.52948L165.512 6.82627L167.275 6.82627L167.275 6.52948L169.038 6.52948L169.038 6.82627L170.801 6.82627L170.801 6.52948L172.564 6.52948L172.564 6.82627L174.327 6.82628L174.327 6.52948L176.09 6.52948L176.09 6.82628L177.853 6.82628L177.853 6.52948L179.615 6.52948L179.615 6.82628L181.378 6.82628L181.378 6.52948L183.141 6.52948L183.141 6.82628L184.904 6.82628L184.904 6.52948L186.667 6.52948L186.667 6.82628L188.43 6.82628L188.43 6.52948L190.193 6.52948L190.193 6.82628L191.956 6.82628L191.956 6.52948L193.719 6.52948L193.719 6.82628L195.482 6.82628L195.482 6.52948L197.245 6.52948L197.245 6.82628L199.008 6.82628L199.008 6.52948L200.771 6.52948L200.771 6.82628L202.534 6.82628L202.534 6.52948L204.297 6.52948L204.297 6.82628L206.06 6.82628L206.06 6.52948L207.823 6.52948L207.823 6.82628L209.586 6.82628L209.586 6.52948L211.349 6.52948L211.349 6.82628L211.934 6.82628L211.934 6.82628L212.23 6.82628L212.23 7.41988L211.934 7.41988L211.934 7.41988L211.349 7.41988L211.349 7.71667L209.586 7.71667L209.586 7.41988L207.823 7.41988L207.823 7.71667L206.06 7.71667L206.06 7.41988L204.297 7.41988L204.297 7.71667L202.534 7.71667L202.534 7.41988L200.771 7.41988L200.771 7.71667L199.008 7.71667L199.008 7.41988L197.245 7.41988L197.245 7.71667L195.482 7.71667L195.482 7.41988L193.719 7.41988L193.719 7.71667L191.956 7.71667L191.956 7.41988L190.193 7.41988L190.193 7.71667L188.43 7.71667L188.43 7.41988L186.667 7.41988L186.667 7.71667L184.904 7.71667L184.904 7.41988L183.141 7.41988L183.141 7.71667L181.378 7.71667L181.378 7.41988L179.615 7.41988L179.615 7.71667L177.852 7.71667L177.852 7.41988L176.089 7.41988L176.089 7.71667L174.326 7.71667L174.326 7.41988L172.564 7.41988L172.564 7.71667L170.801 7.71667L170.801 7.41988L169.038 7.41988L169.038 7.71667L167.275 7.71667L167.275 7.41988L165.512 7.41988L165.512 7.71667L163.749 7.71667L163.749 7.41988L161.986 7.41988L161.986 7.71667L160.223 7.71667L160.223 7.41988L158.46 7.41988L158.46 7.71667L156.697 7.71667L156.697 7.41988L154.934 7.41988L154.934 7.71667L153.171 7.71667L153.171 7.41988L151.408 7.41988L151.408 7.71667L149.645 7.71667L149.645 7.41988L147.882 7.41987L147.882 7.71667L146.119 7.71667L146.119 7.41987L144.356 7.41987L144.356 7.71667L142.593 7.71667L142.593 7.41987L140.83 7.41987L140.83 7.71667L139.067 7.71667L139.067 7.41987L137.304 7.41987L137.304 7.71667L135.541 7.71667L135.541 7.41987L133.778 7.41987L133.778 7.71667L132.015 7.71667L132.015 7.41987L130.252 7.41987L130.252 7.71667L128.489 7.71667L128.489 7.41987L126.726 7.41987L126.726 7.71667L124.963 7.71667L124.963 7.41987L123.2 7.41987L123.2 7.71667L121.437 7.71667L121.437 7.41987L119.674 7.41987L119.674 7.71667L117.911 7.71667L117.911 7.41987L116.148 7.41987L116.148 7.71667L114.385 7.71667L114.385 7.41987L112.623 7.41987L112.623 7.71667L110.86 7.71667L110.86 7.41987L109.097 7.41987L109.097 7.71667L107.334 7.71667L107.334 7.41987L105.571 7.41987L105.571 7.71667L103.808 7.71667L103.808 7.41987L102.045 7.41987L102.045 7.71667L100.282 7.71667L100.282 7.41987L98.5188 7.41987L98.5188 7.71667L96.7558 7.71667L96.7558 7.41987L94.9928 7.41987L94.9928 7.71667L93.2298 7.71667L93.2298 7.41987L91.4669 7.41987L91.4669 7.71667L89.7039 7.71667L89.7039 7.41987L87.9409 7.41987L87.9409 7.71667L86.1779 7.71667L86.1779 7.41987L84.415 7.41987L84.415 7.71667L82.652 7.71667L82.652 7.41987L80.889 7.41987L80.889 7.71667L79.1261 7.71667L79.1261 7.41987L77.3631 7.41987L77.3631 7.71667L75.6001 7.71667L75.6001 7.41987L73.8371 7.41987L73.8371 7.71667L72.0742 7.71667L72.0742 7.41987L70.3112 7.41987L70.3112 7.71667L68.5482 7.71667L68.5482 7.41987L66.7852 7.41987L66.7852 7.71667L65.0223 7.71667L65.0223 7.41987L63.2593 7.41987L63.2593 7.71667L61.4963 7.71667L61.4963 7.41987L59.7334 7.41987L59.7334 7.71667L57.9704 7.71667L57.9704 7.41987L56.2074 7.41987L56.2074 7.71667L54.4444 7.71667L54.4444 7.41987L52.6815 7.41987L52.6815 7.71667L50.9185 7.71667L50.9185 7.41987L49.1555 7.41987L49.1555 7.71667L47.3925 7.71667L47.3925 7.41987L45.6296 7.41987L45.6296 7.71667L43.8666 7.71667L43.8666 7.41987L42.1036 7.41987L42.1036 7.71667L40.3407 7.71667L40.3407 7.41987L38.5777 7.41987L38.5777 7.71667L36.8147 7.71667L36.8147 7.41987L36.23 7.41987L35.9332 7.41987L35.9332 6.82627Z" stroke="#DCDCDC" stroke-width="0.593593" stroke-dasharray="1.78 1.78"/>
<path d="M37.4486 103.473L35 105.458V113.472H211.297V11.0769L208.849 20.7419C206.4 30.4069 201.503 49.7368 196.606 60.6902C191.709 71.6436 186.812 74.2204 181.914 67.8896C177.017 61.5588 172.12 46.3203 167.223 39.7591C162.326 33.1979 157.429 35.314 152.532 44.5969C147.634 53.8799 142.737 70.3297 137.84 72.0849C132.943 73.8401 128.046 60.9007 123.149 59.8663C118.251 58.8319 113.354 69.7024 108.457 68.5245C103.56 67.3466 98.6629 54.1202 93.7658 46.2856C88.8686 38.451 83.9715 36.0083 79.0743 39.4848C74.1772 42.9613 69.28 52.3572 64.3829 62.3536C59.4857 72.35 54.5886 82.947 49.6914 90.2313C44.7943 97.5155 39.8971 101.487 37.4486 103.473Z" fill="#5655D7"/>
<path d="M37.4486 103.473L35 105.458V113.472H211.297V11.0769L208.849 20.7419C206.4 30.4069 201.503 49.7368 196.606 60.6902C191.709 71.6436 186.812 74.2204 181.914 67.8896C177.017 61.5588 172.12 46.3203 167.223 39.7591C162.326 33.1979 157.429 35.314 152.532 44.5969C147.634 53.8799 142.737 70.3297 137.84 72.0849C132.943 73.8401 128.046 60.9007 123.149 59.8663C118.251 58.8319 113.354 69.7024 108.457 68.5245C103.56 67.3466 98.6629 54.1202 93.7658 46.2856C88.8686 38.451 83.9715 36.0083 79.0743 39.4848C74.1772 42.9613 69.28 52.3572 64.3829 62.3536C59.4857 72.35 54.5886 82.947 49.6914 90.2313C44.7943 97.5155 39.8971 101.487 37.4486 103.473Z" fill="white" fill-opacity="0.8"/>
<path d="M34.9995 105.827L37.4481 103.841C39.8967 101.856 44.7938 97.8841 49.6909 90.5999C54.5881 83.3157 59.4852 72.7187 64.3824 62.7222C69.2795 52.7258 74.1767 43.33 79.0738 39.8535C83.971 36.3769 88.8681 38.8197 93.7653 46.6542C98.6624 54.4888 103.56 67.7152 108.457 68.8931C113.354 70.0711 118.251 59.2005 123.148 60.2349C128.045 61.2694 132.942 74.2088 137.84 72.4536C142.737 70.6984 147.634 54.2485 152.531 44.9656C157.428 35.6826 162.325 33.5666 167.222 40.1278C172.12 46.689 177.017 61.9274 181.914 68.2582C186.811 74.589 191.708 72.0123 196.605 61.0589C201.502 50.1055 206.4 30.7755 208.848 21.1105L211.297 11.4456" stroke="url(#paint0_linear_272_4597)" stroke-width="3" stroke-linecap="round"/>
<defs>
<linearGradient id="paint0_linear_272_4597" x1="34.9995" y1="105.827" x2="113.543" y2="-40.8871" gradientUnits="userSpaceOnUse">
<stop stop-color="#5655D7"/>
<stop offset="1" stop-color="#7F7EFF"/>
</linearGradient>
</defs>
</svg>
