<svg width="71" height="71" viewBox="0 0 71 71" fill="none" xmlns="http://www.w3.org/2000/svg">
<circle cx="35.5" cy="35.5842" r="29.7624" stroke="white" stroke-opacity="0.22" stroke-width="9.78491"/>
<path d="M35.5 5.82178C41.4906 5.82178 47.3417 7.62955 52.2883 11.0087C57.2348 14.3878 61.0465 19.1811 63.2249 24.7615C65.4033 30.342 65.847 36.45 64.4979 42.2867C63.1489 48.1234 60.0699 53.4171 55.6636 57.4756C51.2573 61.5342 45.7288 64.1685 39.8011 65.0342C33.8734 65.9 27.8224 64.9567 22.4394 62.3279C17.0565 59.6991 12.5921 55.507 9.63011 50.2999C6.66814 45.0929 5.34644 39.1131 5.83786 33.1427" stroke="white" stroke-width="9.78491"/>
<path d="M22.1751 42.5249L26.8251 33.3599H28.6101L24.0951 42.5249H22.1751ZM21.3801 33.6149V32.0249H28.6101V33.3599L26.9751 33.6149H21.3801ZM33.5279 42.7049C32.8179 42.7049 32.2129 42.5749 31.7129 42.3149C31.2229 42.0449 30.8279 41.6849 30.5279 41.2349C30.2279 40.7749 30.0079 40.2449 29.8679 39.6449C29.7279 39.0349 29.6579 38.3849 29.6579 37.6949C29.6579 36.8549 29.7429 36.0799 29.9129 35.3699C30.0929 34.6599 30.3579 34.0399 30.7079 33.5099C31.0579 32.9799 31.4929 32.5699 32.0129 32.2799C32.5429 31.9899 33.1579 31.8449 33.8579 31.8449C34.3979 31.8449 34.9279 31.9299 35.4479 32.0999C35.9779 32.2599 36.4479 32.4849 36.8579 32.7749L35.9579 34.0349C35.6479 33.8149 35.3079 33.6499 34.9379 33.5399C34.5779 33.4299 34.2429 33.3749 33.9329 33.3749C33.0629 33.3749 32.3879 33.7499 31.9079 34.4999C31.4379 35.2499 31.2229 36.4149 31.2629 37.9949L30.9029 37.7249C31.1329 37.1549 31.4979 36.6999 31.9979 36.3599C32.4979 36.0099 33.0929 35.8349 33.7829 35.8349C34.4529 35.8349 35.0479 35.9899 35.5679 36.2999C36.0879 36.5999 36.4929 37.0149 36.7829 37.5449C37.0729 38.0649 37.2179 38.6599 37.2179 39.3299C37.2179 39.9799 37.0629 40.5599 36.7529 41.0699C36.4529 41.5799 36.0229 41.9799 35.4629 42.2699C34.9129 42.5599 34.2679 42.7049 33.5279 42.7049ZM33.5429 41.2199C33.9129 41.2199 34.2429 41.1349 34.5329 40.9649C34.8329 40.7949 35.0679 40.5649 35.2379 40.2749C35.4079 39.9749 35.4929 39.6349 35.4929 39.2549C35.4929 38.8749 35.4079 38.5349 35.2379 38.2349C35.0679 37.9349 34.8329 37.7049 34.5329 37.5449C34.2429 37.3749 33.9129 37.2899 33.5429 37.2899C33.1629 37.2899 32.8229 37.3749 32.5229 37.5449C32.2329 37.7049 32.0029 37.9349 31.8329 38.2349C31.6629 38.5349 31.5779 38.8749 31.5779 39.2549C31.5779 39.6349 31.6629 39.9749 31.8329 40.2749C32.0029 40.5649 32.2329 40.7949 32.5229 40.9649C32.8229 41.1349 33.1629 41.2199 33.5429 41.2199ZM39.0662 42.5249L46.5212 32.0249H48.2612L40.7612 42.5249H39.0662ZM46.6562 42.7649C46.1862 42.7649 45.7712 42.6549 45.4112 42.4349C45.0512 42.2149 44.7662 41.9099 44.5562 41.5199C44.3562 41.1299 44.2562 40.6899 44.2562 40.1999C44.2562 39.6999 44.3562 39.2599 44.5562 38.8799C44.7562 38.4999 45.0362 38.1999 45.3962 37.9799C45.7662 37.7599 46.1862 37.6499 46.6562 37.6499C47.1262 37.6499 47.5412 37.7599 47.9012 37.9799C48.2612 38.1999 48.5412 38.4999 48.7412 38.8799C48.9512 39.2599 49.0562 39.6999 49.0562 40.1999C49.0562 40.6899 48.9512 41.1299 48.7412 41.5199C48.5412 41.9099 48.2612 42.2149 47.9012 42.4349C47.5412 42.6549 47.1262 42.7649 46.6562 42.7649ZM46.6562 41.5799C46.9862 41.5799 47.2562 41.4499 47.4662 41.1899C47.6762 40.9299 47.7812 40.5999 47.7812 40.1999C47.7812 39.8099 47.6762 39.4849 47.4662 39.2249C47.2562 38.9549 46.9862 38.8199 46.6562 38.8199C46.3262 38.8199 46.0512 38.9549 45.8312 39.2249C45.6212 39.4849 45.5162 39.8099 45.5162 40.1999C45.5162 40.5999 45.6212 40.9299 45.8312 41.1899C46.0512 41.4499 46.3262 41.5799 46.6562 41.5799ZM40.7162 36.8999C40.2562 36.8999 39.8412 36.7899 39.4712 36.5699C39.1112 36.3499 38.8312 36.0449 38.6312 35.6549C38.4312 35.2649 38.3312 34.8249 38.3312 34.3349C38.3312 33.8349 38.4312 33.3949 38.6312 33.0149C38.8312 32.6349 39.1112 32.3349 39.4712 32.1149C39.8412 31.8949 40.2612 31.7849 40.7312 31.7849C41.2012 31.7849 41.6162 31.8949 41.9762 32.1149C42.3362 32.3349 42.6162 32.6349 42.8162 33.0149C43.0162 33.3949 43.1162 33.8349 43.1162 34.3349C43.1162 34.8249 43.0162 35.2649 42.8162 35.6549C42.6162 36.0449 42.3312 36.3499 41.9612 36.5699C41.6012 36.7899 41.1862 36.8999 40.7162 36.8999ZM40.7162 35.7149C41.0562 35.7149 41.3312 35.5849 41.5412 35.3249C41.7512 35.0649 41.8562 34.7349 41.8562 34.3349C41.8562 33.9449 41.7512 33.6199 41.5412 33.3599C41.3312 33.0999 41.0562 32.9699 40.7162 32.9699C40.3862 32.9699 40.1162 33.0999 39.9062 33.3599C39.6962 33.6199 39.5912 33.9449 39.5912 34.3349C39.5912 34.7349 39.6962 35.0649 39.9062 35.3249C40.1162 35.5849 40.3862 35.7149 40.7162 35.7149Z" fill="white"/>
</svg>
