<svg width="71" height="71" viewBox="0 0 71 71" fill="none" xmlns="http://www.w3.org/2000/svg">
<circle cx="35.5" cy="35.5842" r="29.7624" stroke="white" stroke-opacity="0.22" stroke-width="9.78491"/>
<path d="M35.5 5.82178C41.1478 5.82178 46.6789 7.42874 51.4475 10.455C56.2161 13.4812 60.0252 17.8017 62.4299 22.912C64.8346 28.0222 65.7356 33.7112 65.0278 39.3144C64.3199 44.9177 62.0324 50.2038 58.4324 54.5555" stroke="white" stroke-width="9.78491"/>
<path d="M24.9582 42.7049C24.3882 42.7049 23.8682 42.6199 23.3982 42.4499C22.9282 42.2799 22.5332 42.0399 22.2132 41.7299C21.8932 41.4199 21.6632 41.0699 21.5232 40.6799L23.0832 40.0949C23.1632 40.2349 23.2732 40.3899 23.4132 40.5599C23.5532 40.7299 23.7382 40.8799 23.9682 41.0099C24.1982 41.1299 24.4932 41.1899 24.8532 41.1899C25.4232 41.1899 25.8732 41.0299 26.2032 40.7099C26.5432 40.3799 26.7132 39.9649 26.7132 39.4649C26.7132 39.1049 26.6182 38.7949 26.4282 38.5349C26.2482 38.2749 25.9632 38.0749 25.5732 37.9349C25.1932 37.7949 24.7132 37.7249 24.1332 37.7249H23.6532V36.4949H24.0882C24.6982 36.4949 25.2632 36.5649 25.7832 36.7049C26.3132 36.8449 26.7782 37.0549 27.1782 37.3349C27.5882 37.6049 27.9032 37.9349 28.1232 38.3249C28.3532 38.7149 28.4682 39.1549 28.4682 39.6449C28.4682 40.2749 28.3032 40.8199 27.9732 41.2799C27.6532 41.7399 27.2282 42.0949 26.6982 42.3449C26.1682 42.5849 25.5882 42.7049 24.9582 42.7049ZM23.6532 37.4549V36.2849H24.1332C24.9032 36.2849 25.4882 36.1549 25.8882 35.8949C26.2882 35.6349 26.4882 35.2699 26.4882 34.7999C26.4882 34.5299 26.4182 34.2899 26.2782 34.0799C26.1482 33.8599 25.9582 33.6849 25.7082 33.5549C25.4582 33.4249 25.1632 33.3599 24.8232 33.3599C24.6032 33.3599 24.3882 33.3949 24.1782 33.4649C23.9682 33.5349 23.7732 33.6449 23.5932 33.7949C23.4132 33.9449 23.2632 34.1399 23.1432 34.3799L21.6282 33.8249C21.7782 33.4049 22.0182 33.0499 22.3482 32.7599C22.6782 32.4599 23.0632 32.2349 23.5032 32.0849C23.9432 31.9249 24.4032 31.8449 24.8832 31.8449C25.5232 31.8449 26.0932 31.9649 26.5932 32.2049C27.1032 32.4449 27.5032 32.7799 27.7932 33.2099C28.0932 33.6299 28.2432 34.1149 28.2432 34.6649C28.2432 35.1249 28.1282 35.5299 27.8982 35.8799C27.6782 36.2299 27.3732 36.5249 26.9832 36.7649C26.5932 36.9949 26.1482 37.1699 25.6482 37.2899C25.1582 37.3999 24.6332 37.4549 24.0732 37.4549H23.6532ZM33.5499 42.7049C32.8399 42.7049 32.2349 42.5749 31.7349 42.3149C31.2449 42.0449 30.8499 41.6849 30.5499 41.2349C30.2499 40.7749 30.0299 40.2449 29.8899 39.6449C29.7499 39.0349 29.6799 38.3849 29.6799 37.6949C29.6799 36.8549 29.7649 36.0799 29.9349 35.3699C30.1149 34.6599 30.3799 34.0399 30.7299 33.5099C31.0799 32.9799 31.5149 32.5699 32.0349 32.2799C32.5649 31.9899 33.1799 31.8449 33.8799 31.8449C34.4199 31.8449 34.9499 31.9299 35.4699 32.0999C35.9999 32.2599 36.4699 32.4849 36.8799 32.7749L35.9799 34.0349C35.6699 33.8149 35.3299 33.6499 34.9599 33.5399C34.5999 33.4299 34.2649 33.3749 33.9549 33.3749C33.0849 33.3749 32.4099 33.7499 31.9299 34.4999C31.4599 35.2499 31.2449 36.4149 31.2849 37.9949L30.9249 37.7249C31.1549 37.1549 31.5199 36.6999 32.0199 36.3599C32.5199 36.0099 33.1149 35.8349 33.8049 35.8349C34.4749 35.8349 35.0699 35.9899 35.5899 36.2999C36.1099 36.5999 36.5149 37.0149 36.8049 37.5449C37.0949 38.0649 37.2399 38.6599 37.2399 39.3299C37.2399 39.9799 37.0849 40.5599 36.7749 41.0699C36.4749 41.5799 36.0449 41.9799 35.4849 42.2699C34.9349 42.5599 34.2899 42.7049 33.5499 42.7049ZM33.5649 41.2199C33.9349 41.2199 34.2649 41.1349 34.5549 40.9649C34.8549 40.7949 35.0899 40.5649 35.2599 40.2749C35.4299 39.9749 35.5149 39.6349 35.5149 39.2549C35.5149 38.8749 35.4299 38.5349 35.2599 38.2349C35.0899 37.9349 34.8549 37.7049 34.5549 37.5449C34.2649 37.3749 33.9349 37.2899 33.5649 37.2899C33.1849 37.2899 32.8449 37.3749 32.5449 37.5449C32.2549 37.7049 32.0249 37.9349 31.8549 38.2349C31.6849 38.5349 31.5999 38.8749 31.5999 39.2549C31.5999 39.6349 31.6849 39.9749 31.8549 40.2749C32.0249 40.5649 32.2549 40.7949 32.5449 40.9649C32.8449 41.1349 33.1849 41.2199 33.5649 41.2199ZM39.0882 42.5249L46.5432 32.0249H48.2832L40.7832 42.5249H39.0882ZM46.6782 42.7649C46.2082 42.7649 45.7932 42.6549 45.4332 42.4349C45.0732 42.2149 44.7882 41.9099 44.5782 41.5199C44.3782 41.1299 44.2782 40.6899 44.2782 40.1999C44.2782 39.6999 44.3782 39.2599 44.5782 38.8799C44.7782 38.4999 45.0582 38.1999 45.4182 37.9799C45.7882 37.7599 46.2082 37.6499 46.6782 37.6499C47.1482 37.6499 47.5632 37.7599 47.9232 37.9799C48.2832 38.1999 48.5632 38.4999 48.7632 38.8799C48.9732 39.2599 49.0782 39.6999 49.0782 40.1999C49.0782 40.6899 48.9732 41.1299 48.7632 41.5199C48.5632 41.9099 48.2832 42.2149 47.9232 42.4349C47.5632 42.6549 47.1482 42.7649 46.6782 42.7649ZM46.6782 41.5799C47.0082 41.5799 47.2782 41.4499 47.4882 41.1899C47.6982 40.9299 47.8032 40.5999 47.8032 40.1999C47.8032 39.8099 47.6982 39.4849 47.4882 39.2249C47.2782 38.9549 47.0082 38.8199 46.6782 38.8199C46.3482 38.8199 46.0732 38.9549 45.8532 39.2249C45.6432 39.4849 45.5382 39.8099 45.5382 40.1999C45.5382 40.5999 45.6432 40.9299 45.8532 41.1899C46.0732 41.4499 46.3482 41.5799 46.6782 41.5799ZM40.7382 36.8999C40.2782 36.8999 39.8632 36.7899 39.4932 36.5699C39.1332 36.3499 38.8532 36.0449 38.6532 35.6549C38.4532 35.2649 38.3532 34.8249 38.3532 34.3349C38.3532 33.8349 38.4532 33.3949 38.6532 33.0149C38.8532 32.6349 39.1332 32.3349 39.4932 32.1149C39.8632 31.8949 40.2832 31.7849 40.7532 31.7849C41.2232 31.7849 41.6382 31.8949 41.9982 32.1149C42.3582 32.3349 42.6382 32.6349 42.8382 33.0149C43.0382 33.3949 43.1382 33.8349 43.1382 34.3349C43.1382 34.8249 43.0382 35.2649 42.8382 35.6549C42.6382 36.0449 42.3532 36.3499 41.9832 36.5699C41.6232 36.7899 41.2082 36.8999 40.7382 36.8999ZM40.7382 35.7149C41.0782 35.7149 41.3532 35.5849 41.5632 35.3249C41.7732 35.0649 41.8782 34.7349 41.8782 34.3349C41.8782 33.9449 41.7732 33.6199 41.5632 33.3599C41.3532 33.0999 41.0782 32.9699 40.7382 32.9699C40.4082 32.9699 40.1382 33.0999 39.9282 33.3599C39.7182 33.6199 39.6132 33.9449 39.6132 34.3349C39.6132 34.7349 39.7182 35.0649 39.9282 35.3249C40.1382 35.5849 40.4082 35.7149 40.7382 35.7149Z" fill="white"/>
</svg>
