<svg width="71" height="70" viewBox="0 0 71 70" fill="none" xmlns="http://www.w3.org/2000/svg">
<circle cx="35.5" cy="35.1091" r="29.7624" stroke="white" stroke-opacity="0.22" stroke-width="9.78491"/>
<path d="M35.5 5.34668C43.07 5.34668 50.3555 8.23122 55.8738 13.4132C61.3921 18.5953 64.7284 25.6853 65.2037 33.2403C65.679 40.7954 63.2576 48.2477 58.4323 54.0804C53.6071 59.9132 46.7405 63.6881 39.2302 64.6369C31.7199 65.5857 24.1303 63.637 18.0061 59.1874C11.8818 54.7379 7.68319 48.1219 6.26472 40.686C4.84625 33.2501 6.31453 25.5531 10.3707 19.1616C14.4269 12.77 20.7662 8.16429 28.0984 6.28172" stroke="white" stroke-width="9.78491"/>
<path d="M24.7824 31.3698C25.5024 31.3698 26.1074 31.5048 26.5974 31.7748C27.0874 32.0348 27.4824 32.3948 27.7824 32.8548C28.0924 33.3148 28.3124 33.8448 28.4424 34.4448C28.5824 35.0448 28.6524 35.6898 28.6524 36.3798C28.6524 37.2198 28.5624 37.9998 28.3824 38.7198C28.2124 39.4298 27.9524 40.0498 27.6024 40.5798C27.2624 41.0998 26.8274 41.5048 26.2974 41.7948C25.7774 42.0848 25.1624 42.2298 24.4524 42.2298C23.9124 42.2298 23.3824 42.1498 22.8624 41.9898C22.3424 41.8298 21.8724 41.5998 21.4524 41.2998L22.3524 40.0398C22.6624 40.2598 22.9974 40.4248 23.3574 40.5348C23.7274 40.6448 24.0674 40.6998 24.3774 40.6998C25.2474 40.6998 25.9224 40.3248 26.4024 39.5748C26.8824 38.8248 27.1024 37.6598 27.0624 36.0798L27.4224 36.3498C27.1824 36.9198 26.8124 37.3798 26.3124 37.7298C25.8124 38.0698 25.2174 38.2398 24.5274 38.2398C23.8574 38.2398 23.2624 38.0898 22.7424 37.7898C22.2324 37.4798 21.8274 37.0648 21.5274 36.5448C21.2374 36.0148 21.0924 35.4198 21.0924 34.7598C21.0924 34.0998 21.2424 33.5148 21.5424 33.0048C21.8524 32.4948 22.2824 32.0948 22.8324 31.8048C23.3924 31.5148 24.0424 31.3698 24.7824 31.3698ZM24.7674 32.8698C24.3974 32.8698 24.0624 32.9548 23.7624 33.1248C23.4724 33.2848 23.2424 33.5148 23.0724 33.8148C22.9124 34.1048 22.8324 34.4398 22.8324 34.8198C22.8324 35.1998 22.9124 35.5398 23.0724 35.8398C23.2424 36.1398 23.4724 36.3748 23.7624 36.5448C24.0624 36.7148 24.3974 36.7998 24.7674 36.7998C25.1574 36.7998 25.4974 36.7148 25.7874 36.5448C26.0874 36.3748 26.3174 36.1398 26.4774 35.8398C26.6474 35.5398 26.7324 35.1998 26.7324 34.8198C26.7324 34.4398 26.6474 34.1048 26.4774 33.8148C26.3174 33.5148 26.0874 33.2848 25.7874 33.1248C25.4974 32.9548 25.1574 32.8698 24.7674 32.8698ZM33.7257 42.2298C33.0157 42.2298 32.4107 42.0998 31.9107 41.8398C31.4207 41.5698 31.0257 41.2098 30.7257 40.7598C30.4257 40.2998 30.2057 39.7698 30.0657 39.1698C29.9257 38.5598 29.8557 37.9098 29.8557 37.2198C29.8557 36.3798 29.9407 35.6048 30.1107 34.8948C30.2907 34.1848 30.5557 33.5648 30.9057 33.0348C31.2557 32.5048 31.6907 32.0948 32.2107 31.8048C32.7407 31.5148 33.3557 31.3698 34.0557 31.3698C34.5957 31.3698 35.1257 31.4548 35.6457 31.6248C36.1757 31.7848 36.6457 32.0098 37.0557 32.2998L36.1557 33.5598C35.8457 33.3398 35.5057 33.1748 35.1357 33.0648C34.7757 32.9548 34.4407 32.8998 34.1307 32.8998C33.2607 32.8998 32.5857 33.2748 32.1057 34.0248C31.6357 34.7748 31.4207 35.9398 31.4607 37.5198L31.1007 37.2498C31.3307 36.6798 31.6957 36.2248 32.1957 35.8848C32.6957 35.5348 33.2907 35.3598 33.9807 35.3598C34.6507 35.3598 35.2457 35.5148 35.7657 35.8248C36.2857 36.1248 36.6907 36.5398 36.9807 37.0698C37.2707 37.5898 37.4157 38.1848 37.4157 38.8548C37.4157 39.5048 37.2607 40.0848 36.9507 40.5948C36.6507 41.1048 36.2207 41.5048 35.6607 41.7948C35.1107 42.0848 34.4657 42.2298 33.7257 42.2298ZM33.7407 40.7448C34.1107 40.7448 34.4407 40.6598 34.7307 40.4898C35.0307 40.3198 35.2657 40.0898 35.4357 39.7998C35.6057 39.4998 35.6907 39.1598 35.6907 38.7798C35.6907 38.3998 35.6057 38.0598 35.4357 37.7598C35.2657 37.4598 35.0307 37.2298 34.7307 37.0698C34.4407 36.8998 34.1107 36.8148 33.7407 36.8148C33.3607 36.8148 33.0207 36.8998 32.7207 37.0698C32.4307 37.2298 32.2007 37.4598 32.0307 37.7598C31.8607 38.0598 31.7757 38.3998 31.7757 38.7798C31.7757 39.1598 31.8607 39.4998 32.0307 39.7998C32.2007 40.0898 32.4307 40.3198 32.7207 40.4898C33.0207 40.6598 33.3607 40.7448 33.7407 40.7448ZM39.2639 42.0498L46.719 31.5498H48.459L40.959 42.0498H39.2639ZM46.854 42.2898C46.384 42.2898 45.969 42.1798 45.609 41.9598C45.249 41.7398 44.964 41.4348 44.754 41.0448C44.554 40.6548 44.454 40.2148 44.454 39.7248C44.454 39.2248 44.554 38.7848 44.754 38.4048C44.954 38.0248 45.234 37.7248 45.594 37.5048C45.964 37.2848 46.384 37.1748 46.854 37.1748C47.324 37.1748 47.739 37.2848 48.099 37.5048C48.459 37.7248 48.739 38.0248 48.939 38.4048C49.149 38.7848 49.254 39.2248 49.254 39.7248C49.254 40.2148 49.149 40.6548 48.939 41.0448C48.739 41.4348 48.459 41.7398 48.099 41.9598C47.739 42.1798 47.324 42.2898 46.854 42.2898ZM46.854 41.1048C47.184 41.1048 47.454 40.9748 47.664 40.7148C47.874 40.4548 47.979 40.1248 47.979 39.7248C47.979 39.3348 47.874 39.0098 47.664 38.7498C47.454 38.4798 47.184 38.3448 46.854 38.3448C46.524 38.3448 46.249 38.4798 46.029 38.7498C45.819 39.0098 45.7139 39.3348 45.7139 39.7248C45.7139 40.1248 45.819 40.4548 46.029 40.7148C46.249 40.9748 46.524 41.1048 46.854 41.1048ZM40.914 36.4248C40.4539 36.4248 40.0389 36.3148 39.6689 36.0948C39.3089 35.8748 39.0289 35.5698 38.8289 35.1798C38.6289 34.7898 38.5289 34.3498 38.5289 33.8598C38.5289 33.3598 38.6289 32.9198 38.8289 32.5398C39.0289 32.1598 39.3089 31.8598 39.6689 31.6398C40.0389 31.4198 40.4589 31.3098 40.929 31.3098C41.399 31.3098 41.814 31.4198 42.1739 31.6398C42.534 31.8598 42.814 32.1598 43.014 32.5398C43.214 32.9198 43.3139 33.3598 43.3139 33.8598C43.3139 34.3498 43.214 34.7898 43.014 35.1798C42.814 35.5698 42.529 35.8748 42.159 36.0948C41.7989 36.3148 41.3839 36.4248 40.914 36.4248ZM40.914 35.2398C41.254 35.2398 41.529 35.1098 41.739 34.8498C41.949 34.5898 42.054 34.2598 42.054 33.8598C42.054 33.4698 41.949 33.1448 41.739 32.8848C41.529 32.6248 41.254 32.4948 40.914 32.4948C40.5839 32.4948 40.3139 32.6248 40.1039 32.8848C39.8939 33.1448 39.7889 33.4698 39.7889 33.8598C39.7889 34.2598 39.8939 34.5898 40.1039 34.8498C40.3139 35.1098 40.5839 35.2398 40.914 35.2398Z" fill="white"/>
</svg>
