<svg width="71" height="70" viewBox="0 0 71 70" fill="none" xmlns="http://www.w3.org/2000/svg">
<circle cx="35.5" cy="35.1091" r="29.7624" stroke="white" stroke-opacity="0.22" stroke-width="9.78491"/>
<path d="M35.5 5.34668C41.1478 5.34668 46.6789 6.95364 51.4475 9.97986C56.2161 13.0061 60.0252 17.3266 62.4299 22.4369" stroke="white" stroke-width="9.78491"/>
<path d="M24.559 42.0498L24.574 32.4798L24.739 31.5498H26.254L26.239 42.0498H24.559ZM22.294 34.6248V33.0498C22.524 33.0598 22.784 32.9948 23.074 32.8548C23.374 32.7048 23.669 32.5098 23.959 32.2698C24.249 32.0298 24.509 31.7848 24.739 31.5348L25.819 32.6598C25.469 33.0298 25.104 33.3698 24.724 33.6798C24.344 33.9898 23.949 34.2298 23.539 34.3998C23.139 34.5698 22.724 34.6448 22.294 34.6248ZM32.3881 42.2298C31.5781 42.2298 30.8831 42.1098 30.3031 41.8698C29.7231 41.6198 29.2781 41.2798 28.9681 40.8498C28.6581 40.4098 28.5031 39.8998 28.5031 39.3198C28.5031 38.6998 28.6581 38.1598 28.9681 37.6998C29.2781 37.2298 29.7231 36.8648 30.3031 36.6048C30.8831 36.3348 31.5781 36.2048 32.3881 36.2148C33.1981 36.2048 33.8931 36.3348 34.4731 36.6048C35.0531 36.8648 35.4981 37.2298 35.8081 37.6998C36.1281 38.1598 36.2881 38.6998 36.2881 39.3198C36.2881 39.8998 36.1281 40.4098 35.8081 40.8498C35.4981 41.2798 35.0531 41.6198 34.4731 41.8698C33.8931 42.1098 33.1981 42.2298 32.3881 42.2298ZM32.3881 40.7598C33.0081 40.7598 33.5181 40.6048 33.9181 40.2948C34.3181 39.9848 34.5181 39.5898 34.5181 39.1098C34.5181 38.5998 34.3181 38.1848 33.9181 37.8648C33.5181 37.5448 33.0081 37.3848 32.3881 37.3848C31.9781 37.3848 31.6131 37.4548 31.2931 37.5948C30.9831 37.7348 30.7331 37.9398 30.5431 38.2098C30.3631 38.4698 30.2731 38.7698 30.2731 39.1098C30.2731 39.4298 30.3631 39.7148 30.5431 39.9648C30.7331 40.2148 30.9831 40.4098 31.2931 40.5498C31.6131 40.6898 31.9781 40.7598 32.3881 40.7598ZM32.3881 36.9948C31.6681 36.9948 31.0431 36.8798 30.5131 36.6498C29.9831 36.4098 29.5731 36.0848 29.2831 35.6748C29.0031 35.2548 28.8631 34.7698 28.8631 34.2198C28.8631 33.6598 29.0031 33.1648 29.2831 32.7348C29.5731 32.3048 29.9831 31.9698 30.5131 31.7298C31.0431 31.4898 31.6681 31.3698 32.3881 31.3698C33.1081 31.3698 33.7331 31.4898 34.2631 31.7298C34.7931 31.9698 35.2031 32.3048 35.4931 32.7348C35.7831 33.1648 35.9281 33.6598 35.9281 34.2198C35.9281 34.7698 35.7831 35.2548 35.4931 35.6748C35.2031 36.0848 34.7931 36.4098 34.2631 36.6498C33.7331 36.8798 33.1081 36.9948 32.3881 36.9948ZM32.3881 35.9298C32.9181 35.9298 33.3531 35.7898 33.6931 35.5098C34.0431 35.2198 34.2181 34.8548 34.2181 34.4148C34.2181 33.9348 34.0431 33.5448 33.6931 33.2448C33.3531 32.9448 32.9181 32.7948 32.3881 32.7948C31.8581 32.7948 31.4231 32.9448 31.0831 33.2448C30.7431 33.5448 30.5731 33.9348 30.5731 34.4148C30.5731 34.8548 30.7431 35.2198 31.0831 35.5098C31.4231 35.7898 31.8581 35.9298 32.3881 35.9298ZM38.3924 42.0498L45.8474 31.5498H47.5874L40.0874 42.0498H38.3924ZM45.9824 42.2898C45.5124 42.2898 45.0974 42.1798 44.7374 41.9598C44.3774 41.7398 44.0924 41.4348 43.8824 41.0448C43.6824 40.6548 43.5824 40.2148 43.5824 39.7248C43.5824 39.2248 43.6824 38.7848 43.8824 38.4048C44.0824 38.0248 44.3624 37.7248 44.7224 37.5048C45.0924 37.2848 45.5124 37.1748 45.9824 37.1748C46.4524 37.1748 46.8674 37.2848 47.2274 37.5048C47.5874 37.7248 47.8674 38.0248 48.0674 38.4048C48.2774 38.7848 48.3824 39.2248 48.3824 39.7248C48.3824 40.2148 48.2774 40.6548 48.0674 41.0448C47.8674 41.4348 47.5874 41.7398 47.2274 41.9598C46.8674 42.1798 46.4524 42.2898 45.9824 42.2898ZM45.9824 41.1048C46.3124 41.1048 46.5824 40.9748 46.7924 40.7148C47.0024 40.4548 47.1074 40.1248 47.1074 39.7248C47.1074 39.3348 47.0024 39.0098 46.7924 38.7498C46.5824 38.4798 46.3124 38.3448 45.9824 38.3448C45.6524 38.3448 45.3774 38.4798 45.1574 38.7498C44.9474 39.0098 44.8424 39.3348 44.8424 39.7248C44.8424 40.1248 44.9474 40.4548 45.1574 40.7148C45.3774 40.9748 45.6524 41.1048 45.9824 41.1048ZM40.0424 36.4248C39.5824 36.4248 39.1674 36.3148 38.7974 36.0948C38.4374 35.8748 38.1574 35.5698 37.9574 35.1798C37.7574 34.7898 37.6574 34.3498 37.6574 33.8598C37.6574 33.3598 37.7574 32.9198 37.9574 32.5398C38.1574 32.1598 38.4374 31.8598 38.7974 31.6398C39.1674 31.4198 39.5874 31.3098 40.0574 31.3098C40.5274 31.3098 40.9424 31.4198 41.3024 31.6398C41.6624 31.8598 41.9424 32.1598 42.1424 32.5398C42.3424 32.9198 42.4424 33.3598 42.4424 33.8598C42.4424 34.3498 42.3424 34.7898 42.1424 35.1798C41.9424 35.5698 41.6574 35.8748 41.2874 36.0948C40.9274 36.3148 40.5124 36.4248 40.0424 36.4248ZM40.0424 35.2398C40.3824 35.2398 40.6574 35.1098 40.8674 34.8498C41.0774 34.5898 41.1824 34.2598 41.1824 33.8598C41.1824 33.4698 41.0774 33.1448 40.8674 32.8848C40.6574 32.6248 40.3824 32.4948 40.0424 32.4948C39.7124 32.4948 39.4424 32.6248 39.2324 32.8848C39.0224 33.1448 38.9174 33.4698 38.9174 33.8598C38.9174 34.2598 39.0224 34.5898 39.2324 34.8498C39.4424 35.1098 39.7124 35.2398 40.0424 35.2398Z" fill="white"/>
</svg>
