<svg width="21" height="20" viewBox="0 0 21 20" fill="none" xmlns="http://www.w3.org/2000/svg">
<path d="M14.25 6.82178V11.3218C14.25 11.5207 14.171 11.7115 14.0303 11.8521C13.8897 11.9928 13.6989 12.0718 13.5 12.0718C13.3011 12.0718 13.1103 11.9928 12.9697 11.8521C12.829 11.7115 12.75 11.5207 12.75 11.3218V8.63209L8.03063 13.3524C7.96095 13.4221 7.87822 13.4774 7.78718 13.5151C7.69613 13.5528 7.59855 13.5722 7.5 13.5722C7.40146 13.5722 7.30388 13.5528 7.21283 13.5151C7.12179 13.4774 7.03906 13.4221 6.96938 13.3524C6.8997 13.2827 6.84442 13.2 6.80671 13.1089C6.769 13.0179 6.74959 12.9203 6.74959 12.8218C6.74959 12.7232 6.769 12.6256 6.80671 12.5346C6.84442 12.4436 6.8997 12.3608 6.96938 12.2912L11.6897 7.57178H9C8.80109 7.57178 8.61033 7.49276 8.46967 7.35211C8.32902 7.21145 8.25 7.02069 8.25 6.82178C8.25 6.62287 8.32902 6.4321 8.46967 6.29145C8.61033 6.15079 8.80109 6.07178 9 6.07178H13.5C13.6989 6.07178 13.8897 6.15079 14.0303 6.29145C14.171 6.4321 14.25 6.62287 14.25 6.82178ZM20.25 9.82178C20.25 11.7501 19.6782 13.6352 18.6068 15.2386C17.5355 16.842 16.0127 18.0916 14.2312 18.8296C12.4496 19.5676 10.4892 19.7606 8.59787 19.3844C6.70656 19.0082 4.96928 18.0796 3.60571 16.7161C2.24215 15.3525 1.31355 13.6152 0.937348 11.7239C0.561142 9.83259 0.754225 7.87219 1.49218 6.09061C2.23013 4.30903 3.47982 2.78629 5.08319 1.71495C6.68657 0.643605 8.57164 0.0717773 10.5 0.0717773C13.085 0.0745072 15.5634 1.10261 17.3913 2.9305C19.2192 4.75839 20.2473 7.23675 20.25 9.82178ZM18.75 9.82178C18.75 8.19008 18.2661 6.59503 17.3596 5.23832C16.4531 3.88162 15.1646 2.82419 13.6571 2.19977C12.1497 1.57535 10.4909 1.41197 8.89051 1.7303C7.29017 2.04863 5.82016 2.83436 4.66637 3.98815C3.51259 5.14193 2.72685 6.61194 2.40853 8.21228C2.0902 9.81263 2.25358 11.4714 2.878 12.9789C3.50242 14.4864 4.55984 15.7749 5.91655 16.6814C7.27326 17.5879 8.86831 18.0718 10.5 18.0718C12.6873 18.0693 14.7843 17.1993 16.3309 15.6527C17.8775 14.106 18.7475 12.0091 18.75 9.82178Z" fill="white"/>
</svg>
