<svg width="51" height="52" viewBox="0 0 51 52" fill="none" xmlns="http://www.w3.org/2000/svg">
<path fill-rule="evenodd" clip-rule="evenodd" d="M25.5 43.0744C34.8888 43.0744 42.5 35.4632 42.5 26.0744C42.5 16.6856 34.8888 9.0744 25.5 9.0744C16.1112 9.0744 8.5 16.6856 8.5 26.0744C8.5 35.4632 16.1112 43.0744 25.5 43.0744ZM25.5 51.5744C39.5833 51.5744 51 40.1577 51 26.0744C51 11.9911 39.5833 0.574402 25.5 0.574402C11.4167 0.574402 0 11.9911 0 26.0744C0 40.1577 11.4167 51.5744 25.5 51.5744Z" fill="#5655D7"/>
<path fill-rule="evenodd" clip-rule="evenodd" d="M25.5 43.0744C34.8888 43.0744 42.5 35.4632 42.5 26.0744C42.5 16.6856 34.8888 9.0744 25.5 9.0744C16.1112 9.0744 8.5 16.6856 8.5 26.0744C8.5 35.4632 16.1112 43.0744 25.5 43.0744ZM25.5 51.5744C39.5833 51.5744 51 40.1577 51 26.0744C51 11.9911 39.5833 0.574402 25.5 0.574402C11.4167 0.574402 0 11.9911 0 26.0744C0 40.1577 11.4167 51.5744 25.5 51.5744Z" fill="white" fill-opacity="0.8"/>
<path fill-rule="evenodd" clip-rule="evenodd" d="M33.9988 2.03275C31.9049 1.29246 29.7191 0.827431 27.4967 0.652774C26.3956 0.566233 25.4988 1.46982 25.4988 2.57439V6.94044C25.4988 8.04501 26.3972 8.92839 27.4943 9.05703C29.8635 9.33485 32.1563 10.1054 34.2221 11.3273C36.8637 12.8899 39.037 15.1333 40.515 17.823C41.993 20.5128 42.7214 23.5501 42.6241 26.6177C42.5268 29.6852 41.6073 32.6703 39.9618 35.261C38.3163 37.8516 36.0051 39.9527 33.2699 41.3447C30.5346 42.7367 27.4757 43.3684 24.4128 43.1739C21.3499 42.9794 18.3954 41.9657 15.8582 40.2389C13.8741 38.8884 12.202 37.1405 10.9435 35.1141C10.3607 34.1757 9.17922 33.738 8.17941 34.2075L4.22742 36.0634C3.2276 36.5329 2.7909 37.7287 3.3373 38.6887C4.44004 40.626 5.79005 42.4068 7.35018 43.9875C8.5067 45.1592 9.7787 46.221 11.151 47.155C14.927 49.725 19.324 51.2336 23.8825 51.5231C28.4409 51.8126 32.9935 50.8724 37.0643 48.8008C41.1351 46.7291 44.5747 43.6021 47.0237 39.7465C49.4727 35.8909 50.8411 31.4483 50.986 26.8829C51.1308 22.3176 50.0467 17.7972 47.847 13.7941C45.6473 9.79102 42.4128 6.45226 38.4815 4.12675C37.0527 3.28159 35.551 2.58154 33.9988 2.03275Z" fill="#5655D7"/>
</svg>
