<svg width="780" height="284" viewBox="0 0 780 284" fill="none" xmlns="http://www.w3.org/2000/svg">
<rect y="234.32" width="763.851" height="0.770788" rx="0.385394" fill="#E9E9E9"/>
<rect x="43.1641" y="195.78" width="720.687" height="0.770788" rx="0.385394" fill="#E9E9E9"/>
<rect x="43.1641" y="148.762" width="720.687" height="0.770788" rx="0.385394" fill="#E9E9E9"/>
<rect x="43.3568" y="101.937" width="720.301" height="0.385394" rx="0.192697" stroke="#4D5154" stroke-width="0.385394" stroke-dasharray="3.08 6.17"/>
<rect x="43.1641" y="54.726" width="720.687" height="0.770788" rx="0.385394" fill="#E9E9E9"/>
<rect x="43.1641" y="7.70789" width="720.687" height="0.770788" rx="0.385394" fill="#E9E9E9"/>
<rect x="0.192697" y="0.192697" width="225.456" height="0.385394" rx="0.192697" transform="matrix(-4.37114e-08 1 1 4.37114e-08 378.456 8.47876)" stroke="#4D5154" stroke-width="0.385394" stroke-dasharray="3.08 6.17"/>
<rect width="225.841" height="0.770788" rx="0.385394" transform="matrix(-4.37114e-08 1 1 4.37114e-08 440.89 8.47876)" fill="#E9E9E9"/>
<rect width="225.841" height="0.770788" rx="0.385394" transform="matrix(-4.37114e-08 1 1 4.37114e-08 503.324 8.47876)" fill="#E9E9E9"/>
<rect width="225.841" height="0.770788" rx="0.385394" transform="matrix(-4.37114e-08 1 1 4.37114e-08 565.758 8.47876)" fill="#E9E9E9"/>
<rect width="225.841" height="0.770788" rx="0.385394" transform="matrix(-4.37114e-08 1 1 4.37114e-08 628.191 8.47876)" fill="#E9E9E9"/>
<rect width="225.841" height="0.770788" rx="0.385394" transform="matrix(-4.37114e-08 1 1 4.37114e-08 690.625 8.47876)" fill="#E9E9E9"/>
<rect width="225.841" height="0.770788" rx="0.385394" transform="matrix(-4.37114e-08 1 1 4.37114e-08 753.06 8.47876)" fill="#E9E9E9"/>
<rect width="213.079" height="0.770788" rx="0.385394" transform="matrix(-4.37114e-08 1 1 4.37114e-08 316.022 21.2407)" fill="#E9E9E9"/>
<rect width="213.079" height="0.770788" rx="0.385394" transform="matrix(-4.37114e-08 1 1 4.37114e-08 253.589 21.2407)" fill="#E9E9E9"/>
<rect width="213.079" height="0.770788" rx="0.385394" transform="matrix(-4.37114e-08 1 1 4.37114e-08 191.154 21.2407)" fill="#E9E9E9"/>
<rect width="213.079" height="0.770788" rx="0.385394" transform="matrix(-4.37114e-08 1 1 4.37114e-08 128.721 21.2407)" fill="#E9E9E9"/>
<rect width="213.079" height="0.770788" rx="0.385394" transform="matrix(-4.37114e-08 1 1 4.37114e-08 66.2871 21.2407)" fill="#E9E9E9"/>
<path d="M57.5191 257.409C57.2551 257.409 57.0094 257.368 56.7821 257.288C56.5621 257.214 56.3641 257.115 56.1881 256.991C56.0121 256.859 55.8617 256.712 55.7371 256.551C55.6124 256.382 55.5097 256.21 55.4291 256.034L56.1331 255.627C56.2871 255.898 56.4741 256.122 56.6941 256.298C56.9214 256.474 57.2001 256.562 57.5301 256.562C57.7941 256.562 58.0507 256.499 58.3001 256.375C58.5567 256.25 58.7657 256.041 58.9271 255.748C59.0884 255.454 59.1691 255.069 59.1691 254.593V249.577H60.0931V254.956C60.0931 255.359 60.0197 255.715 59.8731 256.023C59.7337 256.331 59.5394 256.587 59.2901 256.793C59.0481 256.998 58.7731 257.152 58.4651 257.255C58.1571 257.357 57.8417 257.409 57.5191 257.409ZM68.3712 257.277L65.2802 249.577H66.2152L69.3502 257.277H68.3712ZM62.1122 257.277L65.2472 249.577H66.1932L63.1022 257.277H62.1122ZM63.5972 255.088V254.252H67.8762V255.088H63.5972ZM77.0135 257.277L71.7005 250.094L72.4265 249.577L77.7395 256.749L77.0135 257.277ZM71.4805 257.277V249.577H72.4265L72.4155 250.314V257.277H71.4805ZM77.0135 257.277V249.577H77.9485V257.277H77.0135Z" fill="#A6A8A9"/>
<path d="M121.413 257.277V249.577H122.348V257.277H121.413ZM122.26 253.9V253.053H125.56V253.9H122.26ZM122.26 250.424V249.577H125.989V250.424H122.26ZM128.385 257.277V249.577H129.32V257.277H128.385ZM129.21 257.277V256.43H132.961V257.277H129.21ZM129.21 253.746V252.91H132.62V253.746H129.21ZM129.21 250.424V249.577H132.939V250.424H129.21ZM136.577 257.277V256.441H138.601C139.085 256.441 139.463 256.327 139.734 256.1C140.013 255.865 140.152 255.546 140.152 255.143C140.152 254.71 139.994 254.369 139.679 254.12C139.364 253.87 138.924 253.749 138.359 253.757H136.577V252.976H137.908C138.568 252.976 139.133 253.06 139.602 253.229C140.079 253.397 140.445 253.647 140.702 253.977C140.959 254.299 141.087 254.699 141.087 255.176C141.087 255.623 140.988 256.004 140.79 256.32C140.592 256.628 140.31 256.866 139.943 257.035C139.584 257.196 139.151 257.277 138.645 257.277H136.577ZM135.895 257.277V249.577H136.819V257.277H135.895ZM136.555 253.779V252.954H138.557C138.982 252.954 139.316 252.84 139.558 252.613C139.8 252.385 139.921 252.07 139.921 251.667C139.921 251.249 139.778 250.926 139.492 250.699C139.213 250.471 138.817 250.361 138.304 250.369H136.555V249.577L138.326 249.566C138.854 249.566 139.305 249.65 139.679 249.819C140.053 249.98 140.343 250.218 140.548 250.534C140.753 250.842 140.856 251.219 140.856 251.667C140.856 252.092 140.746 252.462 140.526 252.778C140.306 253.086 139.994 253.324 139.591 253.493C139.188 253.661 138.707 253.746 138.15 253.746L136.555 253.779Z" fill="#A6A8A9"/>
<path d="M183.743 255.088L180.267 249.951L180.641 249.753L181.081 249.577L184.194 254.186L183.743 255.088ZM180.113 257.277V249.577H181.048V257.277H180.113ZM183.743 255.088L183.292 254.186L186.405 249.577L186.845 249.753L187.208 249.94L183.743 255.088ZM186.438 257.277V249.577H187.362V257.277H186.438ZM195.751 257.277L192.66 249.577H193.595L196.73 257.277H195.751ZM189.492 257.277L192.627 249.577H193.573L190.482 257.277H189.492ZM190.977 255.088V254.252H195.256V255.088H190.977ZM199.74 254.252V253.394H201.5C201.779 253.394 202.028 253.331 202.248 253.207C202.468 253.075 202.644 252.899 202.776 252.679C202.915 252.451 202.985 252.195 202.985 251.909C202.985 251.469 202.831 251.113 202.523 250.842C202.222 250.563 201.83 250.424 201.346 250.424H199.74V249.577L201.368 249.566C201.867 249.558 202.307 249.657 202.688 249.863C203.077 250.061 203.377 250.339 203.59 250.699C203.81 251.051 203.92 251.454 203.92 251.909C203.92 252.363 203.803 252.767 203.568 253.119C203.333 253.471 203.014 253.749 202.611 253.955C202.208 254.153 201.753 254.252 201.247 254.252H199.74ZM198.86 257.277V249.577H199.795V257.277H198.86ZM203.205 257.277L201.357 254.12L202.094 253.636L204.228 257.277H203.205Z" fill="#A6A8A9"/>
<path d="M249.223 257.277L246.132 249.577H247.067L250.202 257.277H249.223ZM242.964 257.277L246.099 249.577H247.045L243.954 257.277H242.964ZM244.449 255.088V254.252H248.728V255.088H244.449ZM253.212 254.45V253.603H255.082C255.485 253.603 255.815 253.456 256.072 253.163C256.336 252.862 256.468 252.481 256.468 252.019C256.468 251.703 256.398 251.425 256.259 251.183C256.12 250.941 255.925 250.754 255.676 250.622C255.434 250.482 255.152 250.416 254.829 250.424H253.212V249.577L254.84 249.566C255.339 249.566 255.779 249.672 256.16 249.885C256.549 250.09 256.849 250.376 257.062 250.743C257.282 251.109 257.392 251.535 257.392 252.019C257.392 252.488 257.293 252.906 257.095 253.273C256.897 253.639 256.626 253.929 256.281 254.142C255.936 254.347 255.537 254.45 255.082 254.45H253.212ZM252.332 257.277V249.577H253.267V257.277H252.332ZM260.582 254.252V253.394H262.342C262.621 253.394 262.87 253.331 263.09 253.207C263.31 253.075 263.486 252.899 263.618 252.679C263.758 252.451 263.827 252.195 263.827 251.909C263.827 251.469 263.673 251.113 263.365 250.842C263.065 250.563 262.672 250.424 262.188 250.424H260.582V249.577L262.21 249.566C262.709 249.558 263.149 249.657 263.53 249.863C263.919 250.061 264.22 250.339 264.432 250.699C264.652 251.051 264.762 251.454 264.762 251.909C264.762 252.363 264.645 252.767 264.41 253.119C264.176 253.471 263.857 253.749 263.453 253.955C263.05 254.153 262.595 254.252 262.089 254.252H260.582ZM259.702 257.277V249.577H260.637V257.277H259.702ZM264.047 257.277L262.199 254.12L262.936 253.636L265.07 257.277H264.047Z" fill="#A6A8A9"/>
<path d="M307.014 255.088L303.538 249.951L303.912 249.753L304.352 249.577L307.465 254.186L307.014 255.088ZM303.384 257.277V249.577H304.319V257.277H303.384ZM307.014 255.088L306.563 254.186L309.676 249.577L310.116 249.753L310.479 249.94L307.014 255.088ZM309.709 257.277V249.577H310.633V257.277H309.709ZM319.022 257.277L315.931 249.577H316.866L320.001 257.277H319.022ZM312.763 257.277L315.898 249.577H316.844L313.753 257.277H312.763ZM314.248 255.088V254.252H318.527V255.088H314.248ZM324.773 254.076L323.97 253.691L326.478 249.577H327.545L324.773 254.076ZM323.86 257.277V253.581H324.784V257.277H323.86ZM323.871 254.076L321.099 249.577H322.177L324.674 253.691L323.871 254.076Z" fill="#A6A8A9"/>
<path d="M369.188 257.409C368.924 257.409 368.679 257.368 368.451 257.288C368.231 257.214 368.033 257.115 367.857 256.991C367.681 256.859 367.531 256.712 367.406 256.551C367.282 256.382 367.179 256.21 367.098 256.034L367.802 255.627C367.956 255.898 368.143 256.122 368.363 256.298C368.591 256.474 368.869 256.562 369.199 256.562C369.463 256.562 369.72 256.499 369.969 256.375C370.226 256.25 370.435 256.041 370.596 255.748C370.758 255.454 370.838 255.069 370.838 254.593V249.577H371.762V254.956C371.762 255.359 371.689 255.715 371.542 256.023C371.403 256.331 371.209 256.587 370.959 256.793C370.717 256.998 370.442 257.152 370.134 257.255C369.826 257.357 369.511 257.409 369.188 257.409ZM377.544 257.442C376.964 257.442 376.451 257.321 376.004 257.079C375.564 256.829 375.219 256.488 374.97 256.056C374.72 255.616 374.596 255.11 374.596 254.538H375.531C375.531 254.941 375.615 255.3 375.784 255.616C375.96 255.924 376.202 256.166 376.51 256.342C376.818 256.51 377.17 256.595 377.566 256.595C377.969 256.595 378.325 256.51 378.633 256.342C378.948 256.166 379.19 255.924 379.359 255.616C379.535 255.3 379.623 254.941 379.623 254.538H380.547C380.547 255.11 380.422 255.616 380.173 256.056C379.923 256.488 379.571 256.829 379.117 257.079C378.662 257.321 378.138 257.442 377.544 257.442ZM374.596 254.538V249.577H375.531V254.538H374.596ZM379.623 254.538V249.577H380.547V254.538H379.623ZM389.016 257.277L383.703 250.094L384.429 249.577L389.742 256.749L389.016 257.277ZM383.483 257.277V249.577H384.429L384.418 250.314V257.277H383.483ZM389.016 257.277V249.577H389.951V257.277H389.016Z" fill="#4D5154"/>
<path d="M432.59 257.409C432.326 257.409 432.081 257.368 431.853 257.288C431.633 257.214 431.435 257.115 431.259 256.991C431.083 256.859 430.933 256.712 430.808 256.551C430.684 256.382 430.581 256.21 430.5 256.034L431.204 255.627C431.358 255.898 431.545 256.122 431.765 256.298C431.993 256.474 432.271 256.562 432.601 256.562C432.865 256.562 433.122 256.499 433.371 256.375C433.628 256.25 433.837 256.041 433.998 255.748C434.16 255.454 434.24 255.069 434.24 254.593V249.577H435.164V254.956C435.164 255.359 435.091 255.715 434.944 256.023C434.805 256.331 434.611 256.587 434.361 256.793C434.119 256.998 433.844 257.152 433.536 257.255C433.228 257.357 432.913 257.409 432.59 257.409ZM440.945 257.442C440.366 257.442 439.853 257.321 439.405 257.079C438.965 256.829 438.621 256.488 438.371 256.056C438.122 255.616 437.997 255.11 437.997 254.538H438.932C438.932 254.941 439.017 255.3 439.185 255.616C439.361 255.924 439.603 256.166 439.911 256.342C440.219 256.51 440.571 256.595 440.967 256.595C441.371 256.595 441.726 256.51 442.034 256.342C442.35 256.166 442.592 255.924 442.76 255.616C442.936 255.3 443.024 254.941 443.024 254.538H443.948C443.948 255.11 443.824 255.616 443.574 256.056C443.325 256.488 442.973 256.829 442.518 257.079C442.064 257.321 441.539 257.442 440.945 257.442ZM437.997 254.538V249.577H438.932V254.538H437.997ZM443.024 254.538V249.577H443.948V254.538H443.024ZM446.885 257.277V249.577H447.82V257.277H446.885ZM447.666 257.277V256.43H451.45V257.277H447.666Z" fill="#A6A8A9"/>
<path d="M498.568 257.277L495.477 249.577H496.412L499.547 257.277H498.568ZM492.309 257.277L495.444 249.577H496.39L493.299 257.277H492.309ZM493.794 255.088V254.252H498.073V255.088H493.794ZM504.516 257.442C503.936 257.442 503.423 257.321 502.976 257.079C502.536 256.829 502.191 256.488 501.942 256.056C501.692 255.616 501.568 255.11 501.568 254.538H502.503C502.503 254.941 502.587 255.3 502.756 255.616C502.932 255.924 503.174 256.166 503.482 256.342C503.79 256.51 504.142 256.595 504.538 256.595C504.941 256.595 505.297 256.51 505.605 256.342C505.92 256.166 506.162 255.924 506.331 255.616C506.507 255.3 506.595 254.941 506.595 254.538H507.519C507.519 255.11 507.394 255.616 507.145 256.056C506.895 256.488 506.543 256.829 506.089 257.079C505.634 257.321 505.11 257.442 504.516 257.442ZM501.568 254.538V249.577H502.503V254.538H501.568ZM506.595 254.538V249.577H507.519V254.538H506.595ZM513.942 257.409C513.157 257.409 512.464 257.24 511.863 256.903C511.262 256.558 510.789 256.089 510.444 255.495C510.107 254.893 509.938 254.208 509.938 253.438C509.938 252.653 510.107 251.964 510.444 251.37C510.789 250.768 511.262 250.299 511.863 249.962C512.464 249.617 513.157 249.445 513.942 249.445C514.353 249.445 514.752 249.514 515.141 249.654C515.53 249.786 515.885 249.969 516.208 250.204C516.531 250.438 516.791 250.706 516.989 251.007L516.252 251.513C516.105 251.278 515.907 251.069 515.658 250.886C515.409 250.695 515.134 250.548 514.833 250.446C514.54 250.343 514.243 250.292 513.942 250.292C513.348 250.292 512.82 250.427 512.358 250.699C511.896 250.963 511.533 251.329 511.269 251.799C511.005 252.268 510.873 252.814 510.873 253.438C510.873 254.039 511.001 254.578 511.258 255.055C511.522 255.524 511.885 255.894 512.347 256.166C512.816 256.437 513.348 256.573 513.942 256.573C514.441 256.573 514.881 256.47 515.262 256.265C515.651 256.052 515.955 255.762 516.175 255.396C516.395 255.022 516.505 254.593 516.505 254.109L517.396 254.043C517.396 254.717 517.249 255.308 516.956 255.814C516.663 256.312 516.256 256.705 515.735 256.991C515.214 257.269 514.617 257.409 513.942 257.409ZM514.613 254.153V253.35H517.396V254.076L516.956 254.153H514.613Z" fill="#A6A8A9"/>
<path d="M559.669 257.409C559.243 257.409 558.866 257.365 558.536 257.277C558.206 257.181 557.92 257.053 557.678 256.892C557.436 256.723 557.238 256.54 557.084 256.342C556.93 256.136 556.816 255.92 556.743 255.693L557.634 255.385C557.744 255.707 557.964 255.99 558.294 256.232C558.631 256.466 559.042 256.584 559.526 256.584C560.12 256.584 560.585 256.466 560.923 256.232C561.26 255.997 561.429 255.685 561.429 255.297C561.429 254.937 561.278 254.648 560.978 254.428C560.677 254.2 560.281 254.024 559.79 253.9L558.943 253.68C558.598 253.592 558.279 253.463 557.986 253.295C557.7 253.119 557.469 252.899 557.293 252.635C557.124 252.363 557.04 252.041 557.04 251.667C557.04 250.97 557.263 250.427 557.711 250.039C558.165 249.643 558.818 249.445 559.669 249.445C560.175 249.445 560.611 249.529 560.978 249.698C561.344 249.859 561.641 250.068 561.869 250.325C562.103 250.574 562.268 250.845 562.364 251.139L561.484 251.447C561.344 251.08 561.11 250.794 560.78 250.589C560.45 250.376 560.05 250.27 559.581 250.27C559.089 250.27 558.697 250.391 558.404 250.633C558.118 250.867 557.975 251.19 557.975 251.601C557.975 251.953 558.088 252.224 558.316 252.415C558.543 252.598 558.84 252.734 559.207 252.822L560.054 253.031C560.802 253.207 561.374 253.5 561.77 253.911C562.173 254.314 562.375 254.75 562.375 255.22C562.375 255.623 562.272 255.993 562.067 256.331C561.861 256.661 561.557 256.925 561.154 257.123C560.758 257.313 560.263 257.409 559.669 257.409ZM564.961 257.277V249.577H565.896V257.277H564.961ZM565.786 257.277V256.43H569.537V257.277H565.786ZM565.786 253.746V252.91H569.196V253.746H565.786ZM565.786 250.424V249.577H569.515V250.424H565.786ZM573.351 254.45V253.603H575.221C575.625 253.603 575.955 253.456 576.211 253.163C576.475 252.862 576.607 252.481 576.607 252.019C576.607 251.703 576.538 251.425 576.398 251.183C576.259 250.941 576.065 250.754 575.815 250.622C575.573 250.482 575.291 250.416 574.968 250.424H573.351V249.577L574.979 249.566C575.478 249.566 575.918 249.672 576.299 249.885C576.688 250.09 576.989 250.376 577.201 250.743C577.421 251.109 577.531 251.535 577.531 252.019C577.531 252.488 577.432 252.906 577.234 253.273C577.036 253.639 576.765 253.929 576.42 254.142C576.076 254.347 575.676 254.45 575.221 254.45H573.351ZM572.471 257.277V249.577H573.406V257.277H572.471Z" fill="#A6A8A9"/>
<path d="M619.532 257.409C618.792 257.409 618.135 257.24 617.563 256.903C616.991 256.565 616.544 256.096 616.221 255.495C615.899 254.893 615.737 254.204 615.737 253.427C615.737 252.642 615.895 251.953 616.21 251.359C616.533 250.757 616.977 250.288 617.541 249.951C618.106 249.613 618.759 249.445 619.499 249.445C620.24 249.445 620.893 249.617 621.457 249.962C622.029 250.299 622.473 250.768 622.788 251.37C623.104 251.964 623.261 252.649 623.261 253.427C623.261 254.204 623.104 254.893 622.788 255.495C622.473 256.096 622.033 256.565 621.468 256.903C620.911 257.24 620.266 257.409 619.532 257.409ZM619.532 256.562C620.082 256.562 620.566 256.43 620.984 256.166C621.402 255.894 621.729 255.524 621.963 255.055C622.205 254.585 622.326 254.043 622.326 253.427C622.326 252.818 622.205 252.279 621.963 251.81C621.721 251.333 621.388 250.963 620.962 250.699C620.544 250.427 620.057 250.292 619.499 250.292C618.949 250.292 618.462 250.427 618.036 250.699C617.611 250.963 617.277 251.333 617.035 251.81C616.793 252.279 616.672 252.818 616.672 253.427C616.672 254.043 616.793 254.585 617.035 255.055C617.277 255.524 617.615 255.894 618.047 256.166C618.48 256.43 618.975 256.562 619.532 256.562ZM629.039 257.409C628.306 257.409 627.657 257.24 627.092 256.903C626.528 256.558 626.084 256.089 625.761 255.495C625.439 254.893 625.277 254.204 625.277 253.427C625.277 252.649 625.435 251.964 625.75 251.37C626.073 250.768 626.513 250.299 627.07 249.962C627.635 249.617 628.28 249.445 629.006 249.445C629.468 249.445 629.912 249.529 630.337 249.698C630.763 249.859 631.144 250.09 631.481 250.391C631.819 250.684 632.079 251.025 632.262 251.414L631.459 251.821C631.313 251.513 631.111 251.245 630.854 251.018C630.598 250.79 630.312 250.614 629.996 250.49C629.681 250.358 629.351 250.292 629.006 250.292C628.471 250.292 627.991 250.427 627.565 250.699C627.14 250.963 626.806 251.329 626.564 251.799C626.33 252.268 626.212 252.811 626.212 253.427C626.212 254.043 626.333 254.589 626.575 255.066C626.817 255.542 627.151 255.916 627.576 256.188C628.009 256.452 628.497 256.584 629.039 256.584C629.391 256.584 629.725 256.514 630.04 256.375C630.356 256.228 630.638 256.03 630.887 255.781C631.144 255.531 631.346 255.245 631.492 254.923L632.306 255.33C632.116 255.733 631.852 256.092 631.514 256.408C631.184 256.723 630.803 256.969 630.37 257.145C629.945 257.321 629.501 257.409 629.039 257.409ZM636.273 257.277V250.215H637.197V257.277H636.273ZM633.82 250.424V249.577H639.65V250.424H633.82Z" fill="#A6A8A9"/>
<path d="M683.762 257.277L678.449 250.094L679.175 249.577L684.488 256.749L683.762 257.277ZM678.229 257.277V249.577H679.175L679.164 250.314V257.277H678.229ZM683.762 257.277V249.577H684.697V257.277H683.762ZM691.025 257.409C690.284 257.409 689.628 257.24 689.056 256.903C688.484 256.565 688.037 256.096 687.714 255.495C687.391 254.893 687.23 254.204 687.23 253.427C687.23 252.642 687.388 251.953 687.703 251.359C688.026 250.757 688.469 250.288 689.034 249.951C689.599 249.613 690.251 249.445 690.992 249.445C691.733 249.445 692.385 249.617 692.95 249.962C693.522 250.299 693.966 250.768 694.281 251.37C694.596 251.964 694.754 252.649 694.754 253.427C694.754 254.204 694.596 254.893 694.281 255.495C693.966 256.096 693.526 256.565 692.961 256.903C692.404 257.24 691.758 257.409 691.025 257.409ZM691.025 256.562C691.575 256.562 692.059 256.43 692.477 256.166C692.895 255.894 693.221 255.524 693.456 255.055C693.698 254.585 693.819 254.043 693.819 253.427C693.819 252.818 693.698 252.279 693.456 251.81C693.214 251.333 692.88 250.963 692.455 250.699C692.037 250.427 691.549 250.292 690.992 250.292C690.442 250.292 689.954 250.427 689.529 250.699C689.104 250.963 688.77 251.333 688.528 251.81C688.286 252.279 688.165 252.818 688.165 253.427C688.165 254.043 688.286 254.585 688.528 255.055C688.77 255.524 689.107 255.894 689.54 256.166C689.973 256.43 690.468 256.562 691.025 256.562ZM699.555 257.277L702.701 249.577H703.68L700.49 257.277H699.555ZM699.456 257.277L696.266 249.577H697.245L700.38 257.277H699.456Z" fill="#A6A8A9"/>
<path d="M740.547 257.277V256.419C740.936 256.419 741.295 256.345 741.625 256.199C741.955 256.045 742.245 255.828 742.494 255.55C742.751 255.271 742.949 254.952 743.088 254.593C743.235 254.226 743.308 253.837 743.308 253.427C743.308 253.016 743.235 252.631 743.088 252.272C742.949 251.905 742.751 251.582 742.494 251.304C742.245 251.025 741.955 250.812 741.625 250.666C741.295 250.512 740.936 250.435 740.547 250.435V249.577C741.273 249.577 741.911 249.742 742.461 250.072C743.018 250.394 743.455 250.845 743.77 251.425C744.085 252.004 744.243 252.671 744.243 253.427C744.243 254.175 744.085 254.838 743.77 255.418C743.455 255.997 743.018 256.452 742.461 256.782C741.911 257.112 741.273 257.277 740.547 257.277ZM738.952 257.277V256.419H740.547V257.277H738.952ZM738.204 257.277V249.577H739.139V257.277H738.204ZM738.952 250.435V249.577H740.547V250.435H738.952ZM746.777 257.277V249.577H747.712V257.277H746.777ZM747.602 257.277V256.43H751.353V257.277H747.602ZM747.602 253.746V252.91H751.012V253.746H747.602ZM747.602 250.424V249.577H751.331V250.424H747.602ZM757.532 257.409C756.799 257.409 756.15 257.24 755.585 256.903C755.02 256.558 754.577 256.089 754.254 255.495C753.931 254.893 753.77 254.204 753.77 253.427C753.77 252.649 753.928 251.964 754.243 251.37C754.566 250.768 755.006 250.299 755.563 249.962C756.128 249.617 756.773 249.445 757.499 249.445C757.961 249.445 758.405 249.529 758.83 249.698C759.255 249.859 759.637 250.09 759.974 250.391C760.311 250.684 760.572 251.025 760.755 251.414L759.952 251.821C759.805 251.513 759.604 251.245 759.347 251.018C759.09 250.79 758.804 250.614 758.489 250.49C758.174 250.358 757.844 250.292 757.499 250.292C756.964 250.292 756.483 250.427 756.058 250.699C755.633 250.963 755.299 251.329 755.057 251.799C754.822 252.268 754.705 252.811 754.705 253.427C754.705 254.043 754.826 254.589 755.068 255.066C755.31 255.542 755.644 255.916 756.069 256.188C756.502 256.452 756.989 256.584 757.532 256.584C757.884 256.584 758.218 256.514 758.533 256.375C758.848 256.228 759.131 256.03 759.38 255.781C759.637 255.531 759.838 255.245 759.985 254.923L760.799 255.33C760.608 255.733 760.344 256.092 760.007 256.408C759.677 256.723 759.296 256.969 758.863 257.145C758.438 257.321 757.994 257.409 757.532 257.409Z" fill="#A6A8A9"/>
<path d="M13.6457 197.533L12.7217 197.302C12.7217 197.06 12.7694 196.822 12.8647 196.587C12.9674 196.345 13.1104 196.107 13.2937 195.872C13.4844 195.638 13.7154 195.418 13.9867 195.212L15.5817 194.013C15.7724 193.881 15.9374 193.731 16.0767 193.562C16.2234 193.386 16.3371 193.207 16.4177 193.023C16.4984 192.833 16.5387 192.649 16.5387 192.473C16.5387 192.217 16.4764 191.986 16.3517 191.78C16.2271 191.568 16.0511 191.399 15.8237 191.274C15.5964 191.15 15.3287 191.087 15.0207 191.087C14.7201 191.087 14.4561 191.146 14.2287 191.263C14.0014 191.373 13.8144 191.524 13.6677 191.714C13.5211 191.898 13.4147 192.096 13.3487 192.308L12.4027 192.121C12.4907 191.791 12.6484 191.483 12.8757 191.197C13.1104 190.911 13.4074 190.68 13.7667 190.504C14.1261 190.328 14.5257 190.24 14.9657 190.24C15.4791 190.24 15.9227 190.339 16.2967 190.537C16.6707 190.728 16.9604 190.992 17.1657 191.329C17.3784 191.659 17.4847 192.037 17.4847 192.462C17.4847 192.866 17.3747 193.247 17.1547 193.606C16.9347 193.966 16.6157 194.314 16.1977 194.651L14.6907 195.795C14.4781 195.949 14.2911 196.118 14.1297 196.301C13.9757 196.485 13.8547 196.679 13.7667 196.884C13.6861 197.082 13.6457 197.299 13.6457 197.533ZM12.7217 198.072V197.302L13.4257 197.247H17.5947V198.072H12.7217ZM22.7593 198.204C22.1726 198.204 21.6519 198.036 21.1973 197.698C20.7426 197.354 20.3869 196.884 20.1303 196.29C19.8736 195.689 19.7453 195 19.7453 194.222C19.7453 193.445 19.8736 192.759 20.1303 192.165C20.3869 191.564 20.7389 191.095 21.1863 190.757C21.6409 190.413 22.1653 190.24 22.7593 190.24C23.3533 190.24 23.8739 190.413 24.3213 190.757C24.7759 191.095 25.1316 191.564 25.3883 192.165C25.6523 192.759 25.7843 193.445 25.7843 194.222C25.7843 195 25.6559 195.689 25.3993 196.29C25.1426 196.884 24.7869 197.354 24.3323 197.698C23.8776 198.036 23.3533 198.204 22.7593 198.204ZM22.7593 197.368C23.1699 197.368 23.5329 197.233 23.8483 196.961C24.1709 196.69 24.4203 196.32 24.5963 195.85C24.7796 195.381 24.8713 194.838 24.8713 194.222C24.8713 193.606 24.7796 193.064 24.5963 192.594C24.4203 192.118 24.1709 191.747 23.8483 191.483C23.5329 191.212 23.1699 191.076 22.7593 191.076C22.3486 191.076 21.9856 191.212 21.6703 191.483C21.3549 191.747 21.1056 192.118 20.9223 192.594C20.7463 193.064 20.6583 193.606 20.6583 194.222C20.6583 194.838 20.7463 195.381 20.9223 195.85C21.1056 196.32 21.3549 196.69 21.6703 196.961C21.9929 197.233 22.3559 197.368 22.7593 197.368ZM28.9581 195.432L28.5731 194.585L32.6211 190.372H33.7871L28.9581 195.432ZM28.3091 198.072V190.372H29.2001V198.072H28.3091ZM32.7971 198.072L29.6401 194.156L30.2451 193.562L33.9301 198.072H32.7971Z" fill="#A6A8A9"/>
<path d="M12.5732 148.898L11.8802 148.469L15.3892 143.354L15.9942 143.882L12.5732 148.898ZM11.8802 149.184V148.469L12.4742 148.359H17.9082V149.184H11.8802ZM15.4332 151.054V143.948L15.3892 143.354H16.3352V151.054H15.4332ZM22.7593 151.186C22.1726 151.186 21.6519 151.018 21.1973 150.68C20.7426 150.336 20.3869 149.866 20.1303 149.272C19.8736 148.671 19.7453 147.982 19.7453 147.204C19.7453 146.427 19.8736 145.741 20.1303 145.147C20.3869 144.546 20.7389 144.077 21.1863 143.739C21.6409 143.395 22.1653 143.222 22.7593 143.222C23.3533 143.222 23.8739 143.395 24.3213 143.739C24.7759 144.077 25.1316 144.546 25.3883 145.147C25.6523 145.741 25.7843 146.427 25.7843 147.204C25.7843 147.982 25.6559 148.671 25.3993 149.272C25.1426 149.866 24.7869 150.336 24.3323 150.68C23.8776 151.018 23.3533 151.186 22.7593 151.186ZM22.7593 150.35C23.1699 150.35 23.5329 150.215 23.8483 149.943C24.1709 149.672 24.4203 149.302 24.5963 148.832C24.7796 148.363 24.8713 147.82 24.8713 147.204C24.8713 146.588 24.7796 146.046 24.5963 145.576C24.4203 145.1 24.1709 144.729 23.8483 144.465C23.5329 144.194 23.1699 144.058 22.7593 144.058C22.3486 144.058 21.9856 144.194 21.6703 144.465C21.3549 144.729 21.1056 145.1 20.9223 145.576C20.7463 146.046 20.6583 146.588 20.6583 147.204C20.6583 147.82 20.7463 148.363 20.9223 148.832C21.1056 149.302 21.3549 149.672 21.6703 149.943C21.9929 150.215 22.3559 150.35 22.7593 150.35ZM28.9581 148.414L28.5731 147.567L32.6211 143.354H33.7871L28.9581 148.414ZM28.3091 151.054V143.354H29.2001V151.054H28.3091ZM32.7971 151.054L29.6401 147.138L30.2451 146.544L33.9301 151.054H32.7971Z" fill="#A6A8A9"/>
<path d="M15.2868 104.168C14.7588 104.168 14.3151 104.069 13.9558 103.871C13.5965 103.666 13.3105 103.391 13.0978 103.046C12.8851 102.701 12.7311 102.305 12.6358 101.858C12.5478 101.403 12.5038 100.923 12.5038 100.417C12.5038 99.7571 12.5698 99.1668 12.7018 98.6461C12.8411 98.1255 13.0391 97.6855 13.2958 97.3261C13.5525 96.9595 13.8641 96.6808 14.2308 96.4901C14.5975 96.2995 15.0118 96.2041 15.4738 96.2041C15.8551 96.2041 16.2328 96.2665 16.6068 96.3911C16.9881 96.5085 17.3255 96.6735 17.6188 96.8861L17.1018 97.5461C16.8671 97.3848 16.6141 97.2601 16.3428 97.1721C16.0715 97.0768 15.8111 97.0291 15.5618 97.0291C14.8138 97.0291 14.2455 97.3445 13.8568 97.9751C13.4681 98.6058 13.2958 99.5628 13.3398 100.846L13.1418 100.648C13.3178 100.201 13.6001 99.8488 13.9888 99.5921C14.3775 99.3281 14.8358 99.1961 15.3638 99.1961C15.8551 99.1961 16.2915 99.3025 16.6728 99.5151C17.0615 99.7278 17.3621 100.025 17.5748 100.406C17.7948 100.78 17.9048 101.209 17.9048 101.693C17.9048 102.17 17.7948 102.599 17.5748 102.98C17.3548 103.354 17.0468 103.647 16.6508 103.86C16.2621 104.065 15.8075 104.168 15.2868 104.168ZM15.2868 103.354C15.6168 103.354 15.9065 103.284 16.1558 103.145C16.4125 102.998 16.6105 102.8 16.7498 102.551C16.8965 102.294 16.9698 102.001 16.9698 101.671C16.9698 101.341 16.8965 101.051 16.7498 100.802C16.6105 100.545 16.4125 100.347 16.1558 100.208C15.9065 100.069 15.6168 99.9991 15.2868 99.9991C14.9641 99.9991 14.6745 100.069 14.4178 100.208C14.1611 100.347 13.9595 100.545 13.8128 100.802C13.6661 101.051 13.5928 101.341 13.5928 101.671C13.5928 102.001 13.6661 102.294 13.8128 102.551C13.9595 102.8 14.1611 102.998 14.4178 103.145C14.6745 103.284 14.9641 103.354 15.2868 103.354ZM22.7593 104.168C22.1726 104.168 21.6519 103.999 21.1973 103.662C20.7426 103.317 20.3869 102.848 20.1303 102.254C19.8736 101.653 19.7453 100.963 19.7453 100.186C19.7453 99.4088 19.8736 98.7231 20.1303 98.1291C20.3869 97.5278 20.7389 97.0585 21.1863 96.7211C21.6409 96.3765 22.1653 96.2041 22.7593 96.2041C23.3533 96.2041 23.8739 96.3765 24.3213 96.7211C24.7759 97.0585 25.1316 97.5278 25.3883 98.1291C25.6523 98.7231 25.7843 99.4088 25.7843 100.186C25.7843 100.963 25.6559 101.653 25.3993 102.254C25.1426 102.848 24.7869 103.317 24.3323 103.662C23.8776 103.999 23.3533 104.168 22.7593 104.168ZM22.7593 103.332C23.1699 103.332 23.5329 103.196 23.8483 102.925C24.1709 102.654 24.4203 102.283 24.5963 101.814C24.7796 101.345 24.8713 100.802 24.8713 100.186C24.8713 99.5701 24.7796 99.0275 24.5963 98.5581C24.4203 98.0815 24.1709 97.7111 23.8483 97.4471C23.5329 97.1758 23.1699 97.0401 22.7593 97.0401C22.3486 97.0401 21.9856 97.1758 21.6703 97.4471C21.3549 97.7111 21.1056 98.0815 20.9223 98.5581C20.7463 99.0275 20.6583 99.5701 20.6583 100.186C20.6583 100.802 20.7463 101.345 20.9223 101.814C21.1056 102.283 21.3549 102.654 21.6703 102.925C21.9929 103.196 22.3559 103.332 22.7593 103.332ZM28.9581 101.396L28.5731 100.549L32.6211 96.3361H33.7871L28.9581 101.396ZM28.3091 104.036V96.3361H29.2001V104.036H28.3091ZM32.7971 104.036L29.6401 100.12L30.2451 99.5261L33.9301 104.036H32.7971Z" fill="#A6A8A9"/>
<path d="M14.8484 57.1501C14.2984 57.1501 13.8144 57.0621 13.3964 56.8861C12.9784 56.7027 12.6558 56.4534 12.4284 56.1381C12.2011 55.8154 12.0874 55.4414 12.0874 55.0161C12.0874 54.5687 12.2011 54.1764 12.4284 53.8391C12.6558 53.5017 12.9784 53.2414 13.3964 53.0581C13.8144 52.8674 14.2984 52.7721 14.8484 52.7721C15.4131 52.7721 15.9008 52.8674 16.3114 53.0581C16.7294 53.2414 17.0521 53.5017 17.2794 53.8391C17.5141 54.1764 17.6314 54.5687 17.6314 55.0161C17.6314 55.4414 17.5141 55.8154 17.2794 56.1381C17.0521 56.4534 16.7294 56.7027 16.3114 56.8861C15.9008 57.0621 15.4131 57.1501 14.8484 57.1501ZM14.8484 56.3361C15.3911 56.3361 15.8348 56.2077 16.1794 55.9511C16.5241 55.6871 16.6964 55.3461 16.6964 54.9281C16.6964 54.5027 16.5241 54.1581 16.1794 53.8941C15.8348 53.6227 15.3911 53.4871 14.8484 53.4871C14.4964 53.4871 14.1811 53.5494 13.9024 53.6741C13.6311 53.7914 13.4148 53.9601 13.2534 54.1801C13.0994 54.3927 13.0224 54.6421 13.0224 54.9281C13.0224 55.2067 13.0994 55.4524 13.2534 55.6651C13.4148 55.8777 13.6311 56.0427 13.9024 56.1601C14.1811 56.2774 14.4964 56.3361 14.8484 56.3361ZM14.8484 53.3111C14.3571 53.3111 13.9244 53.2267 13.5504 53.0581C13.1764 52.8821 12.8868 52.6437 12.6814 52.3431C12.4761 52.0351 12.3734 51.6794 12.3734 51.2761C12.3734 50.8654 12.4761 50.5024 12.6814 50.1871C12.8868 49.8717 13.1764 49.6261 13.5504 49.4501C13.9244 49.2741 14.3571 49.1861 14.8484 49.1861C15.3544 49.1861 15.7908 49.2741 16.1574 49.4501C16.5314 49.6261 16.8211 49.8717 17.0264 50.1871C17.2391 50.5024 17.3454 50.8654 17.3454 51.2761C17.3454 51.6794 17.2391 52.0351 17.0264 52.3431C16.8211 52.6437 16.5314 52.8821 16.1574 53.0581C15.7908 53.2267 15.3544 53.3111 14.8484 53.3111ZM14.8484 52.6181C15.3104 52.6181 15.6881 52.5044 15.9814 52.2771C16.2821 52.0424 16.4324 51.7381 16.4324 51.3641C16.4324 50.9534 16.2821 50.6234 15.9814 50.3741C15.6881 50.1174 15.3104 49.9891 14.8484 49.9891C14.3938 49.9891 14.0198 50.1174 13.7264 50.3741C13.4331 50.6234 13.2864 50.9534 13.2864 51.3641C13.2864 51.7381 13.4331 52.0424 13.7264 52.2771C14.0198 52.5044 14.3938 52.6181 14.8484 52.6181ZM22.7593 57.1501C22.1726 57.1501 21.6519 56.9814 21.1973 56.6441C20.7426 56.2994 20.3869 55.8301 20.1303 55.2361C19.8736 54.6347 19.7453 53.9454 19.7453 53.1681C19.7453 52.3907 19.8736 51.7051 20.1303 51.1111C20.3869 50.5097 20.7389 50.0404 21.1863 49.7031C21.6409 49.3584 22.1653 49.1861 22.7593 49.1861C23.3533 49.1861 23.8739 49.3584 24.3213 49.7031C24.7759 50.0404 25.1316 50.5097 25.3883 51.1111C25.6523 51.7051 25.7843 52.3907 25.7843 53.1681C25.7843 53.9454 25.6559 54.6347 25.3993 55.2361C25.1426 55.8301 24.7869 56.2994 24.3323 56.6441C23.8776 56.9814 23.3533 57.1501 22.7593 57.1501ZM22.7593 56.3141C23.1699 56.3141 23.5329 56.1784 23.8483 55.9071C24.1709 55.6357 24.4203 55.2654 24.5963 54.7961C24.7796 54.3267 24.8713 53.7841 24.8713 53.1681C24.8713 52.5521 24.7796 52.0094 24.5963 51.5401C24.4203 51.0634 24.1709 50.6931 23.8483 50.4291C23.5329 50.1577 23.1699 50.0221 22.7593 50.0221C22.3486 50.0221 21.9856 50.1577 21.6703 50.4291C21.3549 50.6931 21.1056 51.0634 20.9223 51.5401C20.7463 52.0094 20.6583 52.5521 20.6583 53.1681C20.6583 53.7841 20.7463 54.3267 20.9223 54.7961C21.1056 55.2654 21.3549 55.6357 21.6703 55.9071C21.9929 56.1784 22.3559 56.3141 22.7593 56.3141ZM28.9581 54.3781L28.5731 53.5311L32.6211 49.3181H33.7871L28.9581 54.3781ZM28.3091 57.0181V49.3181H29.2001V57.0181H28.3091ZM32.7971 57.0181L29.6401 53.1021L30.2451 52.5081L33.9301 57.0181H32.7971Z" fill="#A6A8A9"/>
<path d="M8.02444 10L8.03544 2.795L8.11244 2.3H8.94844L8.92644 10H8.02444ZM6.30844 4.28V3.433C6.46244 3.44033 6.64577 3.389 6.85844 3.279C7.0711 3.169 7.2911 3.026 7.51844 2.85C7.74577 2.674 7.94377 2.49067 8.11244 2.3L8.68444 2.927C8.44244 3.18367 8.18944 3.41467 7.92544 3.62C7.66144 3.82533 7.39377 3.99033 7.12244 4.115C6.8511 4.23233 6.57977 4.28733 6.30844 4.28ZM14.7124 10.132C14.1257 10.132 13.605 9.96333 13.1504 9.626C12.6957 9.28133 12.34 8.812 12.0834 8.218C11.8267 7.61667 11.6984 6.92733 11.6984 6.15C11.6984 5.37267 11.8267 4.687 12.0834 4.093C12.34 3.49167 12.692 3.02233 13.1394 2.685C13.594 2.34033 14.1184 2.168 14.7124 2.168C15.3064 2.168 15.827 2.34033 16.2744 2.685C16.729 3.02233 17.0847 3.49167 17.3414 4.093C17.6054 4.687 17.7374 5.37267 17.7374 6.15C17.7374 6.92733 17.609 7.61667 17.3524 8.218C17.0957 8.812 16.74 9.28133 16.2854 9.626C15.8307 9.96333 15.3064 10.132 14.7124 10.132ZM14.7124 9.296C15.123 9.296 15.486 9.16033 15.8014 8.889C16.124 8.61767 16.3734 8.24733 16.5494 7.778C16.7327 7.30867 16.8244 6.766 16.8244 6.15C16.8244 5.534 16.7327 4.99133 16.5494 4.522C16.3734 4.04533 16.124 3.675 15.8014 3.411C15.486 3.13967 15.123 3.004 14.7124 3.004C14.3017 3.004 13.9387 3.13967 13.6234 3.411C13.308 3.675 13.0587 4.04533 12.8754 4.522C12.6994 4.99133 12.6114 5.534 12.6114 6.15C12.6114 6.766 12.6994 7.30867 12.8754 7.778C13.0587 8.24733 13.308 8.61767 13.6234 8.889C13.946 9.16033 14.309 9.296 14.7124 9.296ZM22.7593 10.132C22.1726 10.132 21.6519 9.96333 21.1973 9.626C20.7426 9.28133 20.3869 8.812 20.1303 8.218C19.8736 7.61667 19.7453 6.92733 19.7453 6.15C19.7453 5.37267 19.8736 4.687 20.1303 4.093C20.3869 3.49167 20.7389 3.02233 21.1863 2.685C21.6409 2.34033 22.1653 2.168 22.7593 2.168C23.3533 2.168 23.8739 2.34033 24.3213 2.685C24.7759 3.02233 25.1316 3.49167 25.3883 4.093C25.6523 4.687 25.7843 5.37267 25.7843 6.15C25.7843 6.92733 25.6559 7.61667 25.3993 8.218C25.1426 8.812 24.7869 9.28133 24.3323 9.626C23.8776 9.96333 23.3533 10.132 22.7593 10.132ZM22.7593 9.296C23.1699 9.296 23.5329 9.16033 23.8483 8.889C24.1709 8.61767 24.4203 8.24733 24.5963 7.778C24.7796 7.30867 24.8713 6.766 24.8713 6.15C24.8713 5.534 24.7796 4.99133 24.5963 4.522C24.4203 4.04533 24.1709 3.675 23.8483 3.411C23.5329 3.13967 23.1699 3.004 22.7593 3.004C22.3486 3.004 21.9856 3.13967 21.6703 3.411C21.3549 3.675 21.1056 4.04533 20.9223 4.522C20.7463 4.99133 20.6583 5.534 20.6583 6.15C20.6583 6.766 20.7463 7.30867 20.9223 7.778C21.1056 8.24733 21.3549 8.61767 21.6703 8.889C21.9929 9.16033 22.3559 9.296 22.7593 9.296ZM28.9581 7.36L28.5731 6.513L32.6211 2.3H33.7871L28.9581 7.36ZM28.3091 10V2.3H29.2001V10H28.3091ZM32.7971 10L29.6401 6.084L30.2451 5.49L33.9301 10H32.7971Z" fill="#A6A8A9"/>
<path d="M76.1557 112.721L65.6184 125.354C62.1466 129.517 60.2573 134.792 60.2573 140.325L60.2573 237.037C60.2573 238.743 61.7003 240.174 63.4216 240.174L757.134 240.174C758.738 240.174 759.997 238.926 759.997 237.337L759.996 62.0303L726.033 139.762C718.823 156.263 696.172 158.516 684.264 143.917L656.985 110.472C646.54 97.6663 626.851 98.7775 619.274 112.601C612.923 124.189 597.543 127.242 586.27 119.153L574.156 110.46C565.061 103.934 553.012 103.907 544.545 110.394L528.462 122.717C519.601 129.506 506.884 129.129 497.735 121.806L441.866 77.084C431.335 68.6547 416.39 69.5811 407.904 79.1892L395.754 92.9452C388.164 101.539 375.228 103.309 364.86 97.171L362.207 95.6002C350.845 88.8736 336.605 91.7114 329.539 102.111L319.947 116.229C313.042 126.391 299.082 129.088 288.051 122.39C275.311 114.656 259.173 119.58 253.892 132.814L241.12 164.812L240.607 166.054C232.962 184.571 206.734 185.251 196.278 167.204L190.549 157.315L172.897 127.487C166.965 117.462 152.579 117.144 147.203 126.918C142.071 136.248 128.553 136.485 122.159 127.357L113.838 115.478C104.689 102.416 85.8976 101.041 76.1557 112.721Z" fill="url(#paint0_linear_440_10553)" fill-opacity="0.6"/>
<path d="M60.2578 131.782L76.1562 112.721C85.8981 101.041 104.69 102.416 113.839 115.478L122.16 127.357C128.553 136.485 142.072 136.248 147.204 126.918V126.918C152.58 117.144 166.966 117.462 172.898 127.487L190.549 157.315L196.278 167.204C206.734 185.251 232.963 184.571 240.608 166.054L241.121 164.812L253.892 132.814C259.174 119.581 275.312 114.656 288.051 122.39V122.39C299.083 129.088 313.043 126.391 319.947 116.229L328.501 103.639C335.962 92.6587 351.36 90.3073 362.723 98.4135V98.4135C373.349 105.994 387.665 104.49 395.61 94.9594L407.998 80.0992C416.368 70.0585 431.646 68.9031 442.384 77.4987L497.736 121.806C506.884 129.129 519.602 129.506 528.462 122.718L544.546 110.394C553.013 103.907 565.061 103.934 574.157 110.46L586.271 119.153C597.544 127.242 612.923 124.189 619.275 112.601V112.601C626.852 98.7776 646.541 97.6664 656.986 110.473L684.265 143.917C696.173 158.516 718.823 156.263 726.033 139.762L759.997 62.0303" stroke="url(#paint1_linear_440_10553)" stroke-width="6" stroke-linecap="round"/>
<path d="M375.603 8.16626H381.77V234.778H375.603V8.16626Z" fill="#5655D7" fill-opacity="0.08"/>
<g filter="url(#filter0_d_440_10553)">
<circle cx="377.686" cy="102.973" r="8.47867" fill="#5655D7"/>
<circle cx="377.686" cy="102.973" r="10.0202" stroke="white" stroke-width="3.08315"/>
</g>
<g filter="url(#filter1_d_440_10553)">
<rect x="312" y="7" width="130" height="50" rx="10.791" fill="white"/>
</g>
<path d="M357.214 28.625C356.659 28.625 356.156 28.5383 355.706 28.365C355.255 28.1917 354.882 27.9577 354.588 27.663C354.302 27.3683 354.12 27.052 354.042 26.714L355.628 26.246C355.723 26.506 355.896 26.7313 356.148 26.922C356.408 27.104 356.733 27.1993 357.123 27.208C357.53 27.2167 357.859 27.13 358.111 26.948C358.371 26.766 358.501 26.5233 358.501 26.22C358.501 25.9773 358.397 25.7693 358.189 25.596C357.989 25.414 357.712 25.2797 357.357 25.193L356.291 24.933C355.892 24.8203 355.541 24.66 355.238 24.452C354.934 24.244 354.7 23.9883 354.536 23.685C354.371 23.373 354.289 23.0133 354.289 22.606C354.289 21.8347 354.54 21.2323 355.043 20.799C355.554 20.3657 356.278 20.149 357.214 20.149C357.734 20.149 358.189 20.2227 358.579 20.37C358.977 20.5173 359.311 20.734 359.58 21.02C359.848 21.2973 360.052 21.631 360.191 22.021L358.605 22.502C358.518 22.2507 358.349 22.034 358.098 21.852C357.855 21.6613 357.543 21.566 357.162 21.566C356.789 21.566 356.494 21.657 356.278 21.839C356.061 22.0123 355.953 22.255 355.953 22.567C355.953 22.8183 356.035 23.022 356.2 23.178C356.373 23.3253 356.607 23.4337 356.902 23.503L357.981 23.776C358.683 23.9493 359.224 24.2613 359.606 24.712C359.996 25.154 360.191 25.648 360.191 26.194C360.191 26.688 360.074 27.117 359.84 27.481C359.606 27.845 359.268 28.1267 358.826 28.326C358.384 28.5253 357.846 28.625 357.214 28.625ZM356.525 30.276V28.014H357.955V30.276H356.525ZM356.525 21.059V18.797H357.955V21.059H356.525ZM364.607 29.093C363.992 29.093 363.467 28.9847 363.034 28.768C362.609 28.5427 362.258 28.235 361.981 27.845C361.712 27.455 361.513 27.0043 361.383 26.493C361.262 25.973 361.201 25.414 361.201 24.816C361.201 24.1227 361.275 23.4683 361.422 22.853C361.569 22.229 361.79 21.6787 362.085 21.202C362.388 20.7253 362.774 20.3527 363.242 20.084C363.71 19.8153 364.273 19.681 364.932 19.681C365.409 19.681 365.872 19.7503 366.323 19.889C366.782 20.0277 367.194 20.227 367.558 20.487L366.674 21.787C366.405 21.5963 366.115 21.4577 365.803 21.371C365.5 21.2843 365.218 21.241 364.958 21.241C364.291 21.241 363.766 21.5357 363.385 22.125C363.004 22.7143 362.822 23.646 362.839 24.92L362.488 24.673C362.687 24.1963 362.995 23.815 363.411 23.529C363.827 23.243 364.321 23.1 364.893 23.1C365.474 23.1 365.985 23.2343 366.427 23.503C366.878 23.7717 367.229 24.14 367.48 24.608C367.74 25.0673 367.87 25.583 367.87 26.155C367.87 26.7183 367.736 27.2253 367.467 27.676C367.198 28.118 366.817 28.4647 366.323 28.716C365.838 28.9673 365.266 29.093 364.607 29.093ZM364.607 27.585C364.893 27.585 365.149 27.52 365.374 27.39C365.599 27.26 365.777 27.0823 365.907 26.857C366.037 26.6317 366.102 26.3717 366.102 26.077C366.102 25.7823 366.037 25.5223 365.907 25.297C365.777 25.063 365.599 24.881 365.374 24.751C365.149 24.6123 364.893 24.543 364.607 24.543C364.321 24.543 364.061 24.6123 363.827 24.751C363.602 24.881 363.424 25.063 363.294 25.297C363.164 25.5223 363.099 25.7823 363.099 26.077C363.099 26.3717 363.164 26.6317 363.294 26.857C363.424 27.0823 363.602 27.26 363.827 27.39C364.061 27.52 364.321 27.585 364.607 27.585ZM369.47 28.937L373.214 21.306L375.099 21.15L371.446 28.937H369.47ZM368.69 21.462V19.837H375.099V21.15L373.292 21.462H368.69ZM375.862 30.419L376.655 27.351H378.436L377.162 30.419H375.862ZM382.476 19.694C383.092 19.694 383.612 19.8067 384.036 20.032C384.47 20.2487 384.821 20.552 385.089 20.942C385.367 21.332 385.566 21.787 385.687 22.307C385.817 22.8183 385.882 23.3687 385.882 23.958C385.882 24.66 385.809 25.323 385.661 25.947C385.514 26.5623 385.289 27.1083 384.985 27.585C384.691 28.053 384.309 28.4257 383.841 28.703C383.373 28.9717 382.81 29.106 382.151 29.106C381.675 29.106 381.207 29.0367 380.747 28.898C380.297 28.7507 379.889 28.5513 379.525 28.3L380.396 27C380.674 27.182 380.964 27.3207 381.267 27.416C381.579 27.5027 381.861 27.546 382.112 27.546C382.788 27.546 383.317 27.2513 383.698 26.662C384.088 26.064 384.266 25.1323 384.231 23.867L384.595 24.101C384.396 24.5777 384.088 24.9633 383.672 25.258C383.256 25.544 382.758 25.687 382.177 25.687C381.605 25.687 381.094 25.5527 380.643 25.284C380.193 25.0067 379.842 24.6383 379.59 24.179C379.339 23.7197 379.213 23.1997 379.213 22.619C379.213 22.047 379.348 21.5443 379.616 21.111C379.885 20.669 380.262 20.3223 380.747 20.071C381.241 19.8197 381.818 19.694 382.476 19.694ZM382.476 21.189C382.19 21.189 381.935 21.254 381.709 21.384C381.484 21.514 381.306 21.6917 381.176 21.917C381.046 22.1423 380.981 22.4023 380.981 22.697C380.981 22.9917 381.046 23.256 381.176 23.49C381.306 23.724 381.484 23.906 381.709 24.036C381.935 24.166 382.19 24.231 382.476 24.231C382.762 24.231 383.018 24.166 383.243 24.036C383.469 23.906 383.646 23.724 383.776 23.49C383.915 23.256 383.984 22.9917 383.984 22.697C383.984 22.4023 383.915 22.1423 383.776 21.917C383.646 21.6917 383.469 21.514 383.243 21.384C383.018 21.254 382.762 21.189 382.476 21.189ZM390.174 29.093C389.758 29.093 389.329 29.0237 388.887 28.885C388.453 28.7463 388.059 28.5383 387.704 28.261C387.357 27.9837 387.101 27.6413 386.937 27.234L388.562 26.753C388.752 27.0303 388.978 27.234 389.238 27.364C389.506 27.494 389.784 27.559 390.07 27.559C390.52 27.559 390.884 27.4247 391.162 27.156C391.448 26.8787 391.591 26.5103 391.591 26.051C391.591 25.6263 391.452 25.271 391.175 24.985C390.906 24.699 390.546 24.556 390.096 24.556C389.827 24.556 389.58 24.6167 389.355 24.738C389.129 24.8593 388.956 25.0023 388.835 25.167L387.236 24.816L387.782 19.837H392.93V21.449H388.042L387.782 19.889H389.55L388.835 24.985L387.886 24.816C387.964 24.66 388.085 24.491 388.25 24.309C388.414 24.1183 388.618 23.9363 388.861 23.763C389.112 23.5897 389.394 23.451 389.706 23.347C390.018 23.243 390.364 23.1953 390.746 23.204C391.24 23.204 391.69 23.3253 392.098 23.568C392.505 23.802 392.826 24.127 393.06 24.543C393.302 24.9503 393.424 25.427 393.424 25.973C393.424 26.5883 393.285 27.13 393.008 27.598C392.73 28.066 392.349 28.4343 391.864 28.703C391.378 28.963 390.815 29.093 390.174 29.093ZM397.571 29.093C397.034 29.093 396.549 29.015 396.115 28.859C395.682 28.6943 395.318 28.4647 395.023 28.17C394.737 27.8667 394.538 27.5113 394.425 27.104L396.063 26.623C396.124 26.727 396.206 26.857 396.31 27.013C396.414 27.1603 396.557 27.286 396.739 27.39C396.921 27.494 397.16 27.546 397.454 27.546C397.888 27.546 398.23 27.429 398.481 27.195C398.741 26.9523 398.871 26.6403 398.871 26.259C398.871 25.999 398.806 25.7693 398.676 25.57C398.546 25.3707 398.334 25.219 398.039 25.115C397.753 25.0023 397.376 24.946 396.908 24.946H396.362V23.737H396.843C397.363 23.737 397.853 23.802 398.312 23.932C398.772 24.0533 399.175 24.2353 399.521 24.478C399.877 24.712 400.154 24.998 400.353 25.336C400.553 25.6653 400.652 26.0423 400.652 26.467C400.652 27.013 400.509 27.4853 400.223 27.884C399.937 28.274 399.56 28.573 399.092 28.781C398.624 28.989 398.117 29.093 397.571 29.093ZM396.362 24.621V23.49H396.908C397.515 23.49 397.966 23.386 398.26 23.178C398.555 22.97 398.702 22.684 398.702 22.32C398.702 22.112 398.65 21.9257 398.546 21.761C398.442 21.5963 398.295 21.4663 398.104 21.371C397.914 21.2757 397.693 21.228 397.441 21.228C397.277 21.228 397.108 21.2583 396.934 21.319C396.761 21.371 396.601 21.462 396.453 21.592C396.315 21.7133 396.202 21.891 396.115 22.125L394.503 21.644C394.625 21.2193 394.833 20.864 395.127 20.578C395.431 20.2833 395.79 20.0623 396.206 19.915C396.622 19.759 397.051 19.681 397.493 19.681C398.057 19.681 398.564 19.7893 399.014 20.006C399.465 20.214 399.82 20.5043 400.08 20.877C400.34 21.2497 400.47 21.6787 400.47 22.164C400.47 22.58 400.371 22.9397 400.171 23.243C399.972 23.5463 399.699 23.802 399.352 24.01C399.014 24.218 398.629 24.374 398.195 24.478C397.762 24.5733 397.311 24.621 396.843 24.621H396.362Z" fill="#4D5154"/>
<path d="M340.506 44.568C340.242 44.568 339.996 44.5277 339.769 44.447C339.549 44.3737 339.351 44.2747 339.175 44.15C338.999 44.018 338.849 43.8714 338.724 43.71C338.599 43.5414 338.497 43.369 338.416 43.193L339.12 42.786C339.274 43.0574 339.461 43.281 339.681 43.457C339.908 43.633 340.187 43.721 340.517 43.721C340.781 43.721 341.038 43.6587 341.287 43.534C341.544 43.4094 341.753 43.2004 341.914 42.907C342.075 42.6137 342.156 42.2287 342.156 41.752V36.736H343.08V42.115C343.08 42.5184 343.007 42.874 342.86 43.182C342.721 43.49 342.526 43.7467 342.277 43.952C342.035 44.1574 341.76 44.3114 341.452 44.414C341.144 44.5167 340.829 44.568 340.506 44.568ZM348.861 44.601C348.282 44.601 347.769 44.48 347.321 44.238C346.881 43.9887 346.537 43.6477 346.287 43.215C346.038 42.775 345.913 42.269 345.913 41.697H346.848C346.848 42.1004 346.933 42.4597 347.101 42.775C347.277 43.083 347.519 43.325 347.827 43.501C348.135 43.6697 348.487 43.754 348.883 43.754C349.287 43.754 349.642 43.6697 349.95 43.501C350.266 43.325 350.508 43.083 350.676 42.775C350.852 42.4597 350.94 42.1004 350.94 41.697H351.864C351.864 42.269 351.74 42.775 351.49 43.215C351.241 43.6477 350.889 43.9887 350.434 44.238C349.98 44.48 349.455 44.601 348.861 44.601ZM345.913 41.697V36.736H346.848V41.697H345.913ZM350.94 41.697V36.736H351.864V41.697H350.94ZM360.334 44.436L355.021 37.253L355.747 36.736L361.06 43.908L360.334 44.436ZM354.801 44.436V36.736H355.747L355.736 37.473V44.436H354.801ZM360.334 44.436V36.736H361.269V44.436H360.334ZM368.565 43.897L367.641 43.666C367.641 43.424 367.689 43.1857 367.784 42.951C367.887 42.709 368.03 42.4707 368.213 42.236C368.404 42.0014 368.635 41.7814 368.906 41.576L370.501 40.377C370.692 40.245 370.857 40.0947 370.996 39.926C371.143 39.75 371.256 39.5704 371.337 39.387C371.418 39.1964 371.458 39.013 371.458 38.837C371.458 38.5804 371.396 38.3494 371.271 38.144C371.146 37.9314 370.97 37.7627 370.743 37.638C370.516 37.5134 370.248 37.451 369.94 37.451C369.639 37.451 369.375 37.5097 369.148 37.627C368.921 37.737 368.734 37.8874 368.587 38.078C368.44 38.2614 368.334 38.4594 368.268 38.672L367.322 38.485C367.41 38.155 367.568 37.847 367.795 37.561C368.03 37.275 368.327 37.044 368.686 36.868C369.045 36.692 369.445 36.604 369.885 36.604C370.398 36.604 370.842 36.703 371.216 36.901C371.59 37.0917 371.88 37.3557 372.085 37.693C372.298 38.023 372.404 38.4007 372.404 38.826C372.404 39.2294 372.294 39.6107 372.074 39.97C371.854 40.3294 371.535 40.6777 371.117 41.015L369.61 42.159C369.397 42.313 369.21 42.4817 369.049 42.665C368.895 42.8484 368.774 43.0427 368.686 43.248C368.605 43.446 368.565 43.6624 368.565 43.897ZM367.641 44.436V43.666L368.345 43.611H372.514V44.436H367.641ZM377.117 44.568C376.743 44.568 376.402 44.513 376.094 44.403C375.794 44.2857 375.533 44.1354 375.313 43.952C375.101 43.7687 374.932 43.5744 374.807 43.369L375.577 42.94C375.658 43.0427 375.757 43.16 375.874 43.292C375.999 43.4167 376.157 43.523 376.347 43.611C376.538 43.699 376.773 43.743 377.051 43.743C377.55 43.743 377.95 43.6 378.25 43.314C378.551 43.028 378.701 42.6687 378.701 42.236C378.701 41.906 378.61 41.6274 378.426 41.4C378.25 41.1727 377.994 41.0004 377.656 40.883C377.319 40.7657 376.916 40.707 376.446 40.707H376.237V39.981H376.424C376.886 39.981 377.312 40.0324 377.7 40.135C378.089 40.2377 378.426 40.388 378.712 40.586C379.006 40.784 379.229 41.026 379.383 41.312C379.545 41.598 379.625 41.928 379.625 42.302C379.625 42.7567 379.512 43.1564 379.284 43.501C379.064 43.8384 378.764 44.1024 378.382 44.293C378.001 44.4764 377.579 44.568 377.117 44.568ZM376.237 40.63V39.915H376.446C377.077 39.915 377.576 39.8087 377.942 39.596C378.316 39.376 378.503 39.0644 378.503 38.661C378.503 38.441 378.445 38.2394 378.327 38.056C378.21 37.8654 378.038 37.715 377.81 37.605C377.59 37.4877 377.334 37.429 377.04 37.429C376.842 37.429 376.655 37.4584 376.479 37.517C376.311 37.5684 376.153 37.649 376.006 37.759C375.867 37.8617 375.739 37.9937 375.621 38.155L374.895 37.737C375.035 37.5097 375.211 37.3117 375.423 37.143C375.643 36.9744 375.893 36.8424 376.171 36.747C376.45 36.6517 376.754 36.604 377.084 36.604C377.532 36.604 377.931 36.692 378.283 36.868C378.643 37.044 378.925 37.286 379.13 37.594C379.336 37.8947 379.438 38.2357 379.438 38.617C379.438 38.9397 379.361 39.2257 379.207 39.475C379.053 39.7244 378.837 39.937 378.558 40.113C378.287 40.289 377.968 40.421 377.601 40.509C377.242 40.5897 376.85 40.63 376.424 40.63H376.237ZM381.582 45.701L382.209 43.38H383.199L382.341 45.701H381.582ZM389.892 43.897L388.968 43.666C388.968 43.424 389.016 43.1857 389.111 42.951C389.214 42.709 389.357 42.4707 389.54 42.236C389.731 42.0014 389.962 41.7814 390.233 41.576L391.828 40.377C392.019 40.245 392.184 40.0947 392.323 39.926C392.47 39.75 392.583 39.5704 392.664 39.387C392.745 39.1964 392.785 39.013 392.785 38.837C392.785 38.5804 392.723 38.3494 392.598 38.144C392.473 37.9314 392.297 37.7627 392.07 37.638C391.843 37.5134 391.575 37.451 391.267 37.451C390.966 37.451 390.702 37.5097 390.475 37.627C390.248 37.737 390.061 37.8874 389.914 38.078C389.767 38.2614 389.661 38.4594 389.595 38.672L388.649 38.485C388.737 38.155 388.895 37.847 389.122 37.561C389.357 37.275 389.654 37.044 390.013 36.868C390.372 36.692 390.772 36.604 391.212 36.604C391.725 36.604 392.169 36.703 392.543 36.901C392.917 37.0917 393.207 37.3557 393.412 37.693C393.625 38.023 393.731 38.4007 393.731 38.826C393.731 39.2294 393.621 39.6107 393.401 39.97C393.181 40.3294 392.862 40.6777 392.444 41.015L390.937 42.159C390.724 42.313 390.537 42.4817 390.376 42.665C390.222 42.8484 390.101 43.0427 390.013 43.248C389.932 43.446 389.892 43.6624 389.892 43.897ZM388.968 44.436V43.666L389.672 43.611H393.841V44.436H388.968ZM399.006 44.568C398.419 44.568 397.898 44.3994 397.444 44.062C396.989 43.7174 396.633 43.248 396.377 42.654C396.12 42.0527 395.992 41.3634 395.992 40.586C395.992 39.8087 396.12 39.123 396.377 38.529C396.633 37.9277 396.985 37.4584 397.433 37.121C397.887 36.7764 398.412 36.604 399.006 36.604C399.6 36.604 400.12 36.7764 400.568 37.121C401.022 37.4584 401.378 37.9277 401.635 38.529C401.899 39.123 402.031 39.8087 402.031 40.586C402.031 41.3634 401.902 42.0527 401.646 42.654C401.389 43.248 401.033 43.7174 400.579 44.062C400.124 44.3994 399.6 44.568 399.006 44.568ZM399.006 43.732C399.416 43.732 399.779 43.5964 400.095 43.325C400.417 43.0537 400.667 42.6834 400.843 42.214C401.026 41.7447 401.118 41.202 401.118 40.586C401.118 39.97 401.026 39.4274 400.843 38.958C400.667 38.4814 400.417 38.111 400.095 37.847C399.779 37.5757 399.416 37.44 399.006 37.44C398.595 37.44 398.232 37.5757 397.917 37.847C397.601 38.111 397.352 38.4814 397.169 38.958C396.993 39.4274 396.905 39.97 396.905 40.586C396.905 41.202 396.993 41.7447 397.169 42.214C397.352 42.6834 397.601 43.0537 397.917 43.325C398.239 43.5964 398.602 43.732 399.006 43.732ZM405.083 43.897L404.159 43.666C404.159 43.424 404.207 43.1857 404.302 42.951C404.405 42.709 404.548 42.4707 404.731 42.236C404.922 42.0014 405.153 41.7814 405.424 41.576L407.019 40.377C407.21 40.245 407.375 40.0947 407.514 39.926C407.661 39.75 407.775 39.5704 407.855 39.387C407.936 39.1964 407.976 39.013 407.976 38.837C407.976 38.5804 407.914 38.3494 407.789 38.144C407.665 37.9314 407.489 37.7627 407.261 37.638C407.034 37.5134 406.766 37.451 406.458 37.451C406.158 37.451 405.894 37.5097 405.666 37.627C405.439 37.737 405.252 37.8874 405.105 38.078C404.959 38.2614 404.852 38.4594 404.786 38.672L403.84 38.485C403.928 38.155 404.086 37.847 404.313 37.561C404.548 37.275 404.845 37.044 405.204 36.868C405.564 36.692 405.963 36.604 406.403 36.604C406.917 36.604 407.36 36.703 407.734 36.901C408.108 37.0917 408.398 37.3557 408.603 37.693C408.816 38.023 408.922 38.4007 408.922 38.826C408.922 39.2294 408.812 39.6107 408.592 39.97C408.372 40.3294 408.053 40.6777 407.635 41.015L406.128 42.159C405.916 42.313 405.729 42.4817 405.567 42.665C405.413 42.8484 405.292 43.0427 405.204 43.248C405.124 43.446 405.083 43.6624 405.083 43.897ZM404.159 44.436V43.666L404.863 43.611H409.032V44.436H404.159ZM413.636 44.568C413.262 44.568 412.921 44.513 412.613 44.403C412.312 44.2857 412.052 44.1354 411.832 43.952C411.619 43.7687 411.451 43.5744 411.326 43.369L412.096 42.94C412.177 43.0427 412.276 43.16 412.393 43.292C412.518 43.4167 412.675 43.523 412.866 43.611C413.057 43.699 413.291 43.743 413.57 43.743C414.069 43.743 414.468 43.6 414.769 43.314C415.07 43.028 415.22 42.6687 415.22 42.236C415.22 41.906 415.128 41.6274 414.945 41.4C414.769 41.1727 414.512 41.0004 414.175 40.883C413.838 40.7657 413.434 40.707 412.965 40.707H412.756V39.981H412.943C413.405 39.981 413.83 40.0324 414.219 40.135C414.608 40.2377 414.945 40.388 415.231 40.586C415.524 40.784 415.748 41.026 415.902 41.312C416.063 41.598 416.144 41.928 416.144 42.302C416.144 42.7567 416.03 43.1564 415.803 43.501C415.583 43.8384 415.282 44.1024 414.901 44.293C414.52 44.4764 414.098 44.568 413.636 44.568ZM412.756 40.63V39.915H412.965C413.596 39.915 414.094 39.8087 414.461 39.596C414.835 39.376 415.022 39.0644 415.022 38.661C415.022 38.441 414.963 38.2394 414.846 38.056C414.729 37.8654 414.556 37.715 414.329 37.605C414.109 37.4877 413.852 37.429 413.559 37.429C413.361 37.429 413.174 37.4584 412.998 37.517C412.829 37.5684 412.672 37.649 412.525 37.759C412.386 37.8617 412.257 37.9937 412.14 38.155L411.414 37.737C411.553 37.5097 411.729 37.3117 411.942 37.143C412.162 36.9744 412.411 36.8424 412.69 36.747C412.969 36.6517 413.273 36.604 413.603 36.604C414.05 36.604 414.45 36.692 414.802 36.868C415.161 37.044 415.444 37.286 415.649 37.594C415.854 37.8947 415.957 38.2357 415.957 38.617C415.957 38.9397 415.88 39.2257 415.726 39.475C415.572 39.7244 415.356 39.937 415.077 40.113C414.806 40.289 414.487 40.421 414.12 40.509C413.761 40.5897 413.368 40.63 412.943 40.63H412.756Z" fill="#A6A8A9"/>
<defs>
<filter id="filter0_d_440_10553" x="352.25" y="80.6203" width="50.8721" height="50.872" filterUnits="userSpaceOnUse" color-interpolation-filters="sRGB">
<feFlood flood-opacity="0" result="BackgroundImageFix"/>
<feColorMatrix in="SourceAlpha" type="matrix" values="0 0 0 0 0 0 0 0 0 0 0 0 0 0 0 0 0 0 127 0" result="hardAlpha"/>
<feOffset dy="3.08315"/>
<feGaussianBlur stdDeviation="6.93709"/>
<feColorMatrix type="matrix" values="0 0 0 0 0 0 0 0 0 0 0 0 0 0 0 0 0 0 0.25 0"/>
<feBlend mode="normal" in2="BackgroundImageFix" result="effect1_dropShadow_440_10553"/>
<feBlend mode="normal" in="SourceGraphic" in2="effect1_dropShadow_440_10553" result="shape"/>
</filter>
<filter id="filter1_d_440_10553" x="306" y="3" width="142" height="62" filterUnits="userSpaceOnUse" color-interpolation-filters="sRGB">
<feFlood flood-opacity="0" result="BackgroundImageFix"/>
<feColorMatrix in="SourceAlpha" type="matrix" values="0 0 0 0 0 0 0 0 0 0 0 0 0 0 0 0 0 0 127 0" result="hardAlpha"/>
<feOffset dy="2"/>
<feGaussianBlur stdDeviation="3"/>
<feComposite in2="hardAlpha" operator="out"/>
<feColorMatrix type="matrix" values="0 0 0 0 0.564706 0 0 0 0 0.572549 0 0 0 0 0.580392 0 0 0 0.2 0"/>
<feBlend mode="normal" in2="BackgroundImageFix" result="effect1_dropShadow_440_10553"/>
<feBlend mode="normal" in="SourceGraphic" in2="effect1_dropShadow_440_10553" result="shape"/>
</filter>
<linearGradient id="paint0_linear_440_10553" x1="196" y1="101.458" x2="192.098" y2="232.964" gradientUnits="userSpaceOnUse">
<stop stop-color="#5655D7" stop-opacity="0.81"/>
<stop offset="1" stop-color="#7F7EFF" stop-opacity="0"/>
</linearGradient>
<linearGradient id="paint1_linear_440_10553" x1="54.9407" y1="84.7573" x2="123.365" y2="346.931" gradientUnits="userSpaceOnUse">
<stop stop-color="#5655D7"/>
<stop offset="1" stop-color="#7F7EFF"/>
</linearGradient>
</defs>
</svg>
