<svg width="216" height="206" viewBox="0 0 216 206" fill="none" xmlns="http://www.w3.org/2000/svg">
<path d="M148.777 99.367L193.816 77.433C198.301 87.3376 200.941 97.9852 201.6 108.852C202.308 120.551 200.705 132.276 196.883 143.355C193.061 154.435 187.093 164.654 179.322 173.428C172.103 181.577 163.459 188.332 153.821 193.364L131.887 148.325C135.627 146.199 138.996 143.469 141.855 140.241C145.269 136.387 147.89 131.899 149.568 127.032C151.247 122.166 151.951 117.017 151.64 111.878C151.379 107.573 150.41 103.347 148.777 99.367Z" fill="#FFAE41" stroke="white" stroke-width="5"/>
<path d="M127.393 150.515L149.327 195.553C135.115 201.989 119.45 204.592 103.893 203.083C87.5054 201.493 71.8773 195.401 58.737 185.481C45.5967 175.562 35.4563 162.201 29.4375 146.876C23.7237 132.328 21.9357 116.549 24.2309 101.118L73.5558 109.873C72.8447 116.203 73.6861 122.626 76.0242 128.579C78.6678 135.31 83.1216 141.178 88.893 145.535C94.6644 149.892 101.528 152.567 108.726 153.266C115.092 153.883 121.499 152.933 127.393 150.515Z" fill="#00997E" stroke="white" stroke-width="5"/>
<path d="M65.5428 103.425L2.92381 92.3788C7.37175 70.0891 18.517 49.6636 34.8982 33.8499C51.8796 17.4569 73.6154 6.86171 96.9895 3.58332C120.364 0.304945 144.176 4.51177 165.011 15.6007C185.111 26.2977 201.445 42.869 211.854 63.075L154.689 90.9212C150.184 82.7746 143.405 76.0899 135.156 71.6995C126.169 66.9166 115.898 65.1021 105.816 66.5162C95.7346 67.9302 86.3595 72.5001 79.035 79.5708C72.3116 86.0613 67.6332 94.3529 65.5428 103.425Z" fill="#5655D7" stroke="white" stroke-width="5"/>
<path d="M78.4156 40.8581L76.9036 39.9941L82.5376 31.7501L83.8156 32.9201L78.4156 40.8581ZM76.9036 41.6501V39.9941L78.1276 39.8321H87.0736V41.6501H76.9036ZM82.7356 44.3501V32.9561L82.5556 31.7501H84.7336V44.3501H82.7356ZM92.8683 44.5661C92.3163 44.5661 91.7523 44.4821 91.1763 44.3141C90.6123 44.1341 90.0903 43.8701 89.6103 43.5221C89.1303 43.1621 88.7643 42.7121 88.5123 42.1721L90.3663 41.4881C90.6783 41.9321 91.0443 42.2561 91.4643 42.4601C91.8843 42.6521 92.3163 42.7481 92.7603 42.7481C93.4683 42.7481 94.0443 42.5381 94.4883 42.1181C94.9323 41.6861 95.1543 41.1161 95.1543 40.4081C95.1543 39.7241 94.9383 39.1601 94.5063 38.7161C94.0743 38.2721 93.5103 38.0501 92.8143 38.0501C92.4063 38.0501 92.0223 38.1401 91.6623 38.3201C91.3143 38.5001 91.0443 38.7161 90.8523 38.9681L88.9623 38.5541L89.6643 31.7501H96.6303V33.6401H89.9163L89.6643 31.8221H91.7343L90.8703 38.7161L89.5923 38.5541C89.7363 38.3141 89.9223 38.0741 90.1503 37.8341C90.3903 37.5821 90.6783 37.3481 91.0143 37.1321C91.3503 36.9161 91.7223 36.7421 92.1303 36.6101C92.5383 36.4781 92.9823 36.4181 93.4623 36.4301C94.1823 36.4301 94.8303 36.5981 95.4063 36.9341C95.9823 37.2701 96.4383 37.7321 96.7743 38.3201C97.1103 38.8961 97.2783 39.5621 97.2783 40.3181C97.2783 41.1581 97.0863 41.8961 96.7023 42.5321C96.3303 43.1681 95.8143 43.6661 95.1543 44.0261C94.4943 44.3861 93.7323 44.5661 92.8683 44.5661ZM99.6926 44.3501L108.639 31.7501H110.727L101.727 44.3501H99.6926ZM108.801 44.6381C108.237 44.6381 107.739 44.5061 107.307 44.2421C106.875 43.9781 106.533 43.6121 106.281 43.1441C106.041 42.6761 105.921 42.1481 105.921 41.5601C105.921 40.9601 106.041 40.4321 106.281 39.9761C106.521 39.5201 106.857 39.1601 107.289 38.8961C107.733 38.6321 108.237 38.5001 108.801 38.5001C109.365 38.5001 109.863 38.6321 110.295 38.8961C110.727 39.1601 111.063 39.5201 111.303 39.9761C111.555 40.4321 111.681 40.9601 111.681 41.5601C111.681 42.1481 111.555 42.6761 111.303 43.1441C111.063 43.6121 110.727 43.9781 110.295 44.2421C109.863 44.5061 109.365 44.6381 108.801 44.6381ZM108.801 43.2161C109.197 43.2161 109.521 43.0601 109.773 42.7481C110.025 42.4361 110.151 42.0401 110.151 41.5601C110.151 41.0921 110.025 40.7021 109.773 40.3901C109.521 40.0661 109.197 39.9041 108.801 39.9041C108.405 39.9041 108.075 40.0661 107.811 40.3901C107.559 40.7021 107.433 41.0921 107.433 41.5601C107.433 42.0401 107.559 42.4361 107.811 42.7481C108.075 43.0601 108.405 43.2161 108.801 43.2161ZM101.673 37.6001C101.121 37.6001 100.623 37.4681 100.179 37.2041C99.7466 36.9401 99.4106 36.5741 99.1706 36.1061C98.9306 35.6381 98.8106 35.1101 98.8106 34.5221C98.8106 33.9221 98.9306 33.3941 99.1706 32.9381C99.4106 32.4821 99.7466 32.1221 100.179 31.8581C100.623 31.5941 101.127 31.4621 101.691 31.4621C102.255 31.4621 102.753 31.5941 103.185 31.8581C103.617 32.1221 103.953 32.4821 104.193 32.9381C104.433 33.3941 104.553 33.9221 104.553 34.5221C104.553 35.1101 104.433 35.6381 104.193 36.1061C103.953 36.5741 103.611 36.9401 103.167 37.2041C102.735 37.4681 102.237 37.6001 101.673 37.6001ZM101.673 36.1781C102.081 36.1781 102.411 36.0221 102.663 35.7101C102.915 35.3981 103.041 35.0021 103.041 34.5221C103.041 34.0541 102.915 33.6641 102.663 33.3521C102.411 33.0401 102.081 32.8841 101.673 32.8841C101.277 32.8841 100.953 33.0401 100.701 33.3521C100.449 33.6641 100.323 34.0541 100.323 34.5221C100.323 35.0021 100.449 35.3981 100.701 35.7101C100.953 36.0221 101.277 36.1781 101.673 36.1781Z" fill="white"/>
</svg>
