<svg width="18" height="19" viewBox="0 0 18 19" fill="none" xmlns="http://www.w3.org/2000/svg">
<path d="M16.5 0.574402H1.5C1.10218 0.574402 0.720644 0.732437 0.43934 1.01374C0.158035 1.29505 0 1.67658 0 2.0744V17.0744C0 17.4722 0.158035 17.8538 0.43934 18.1351C0.720644 18.4164 1.10218 18.5744 1.5 18.5744H16.5C16.8978 18.5744 17.2794 18.4164 17.5607 18.1351C17.842 17.8538 18 17.4722 18 17.0744V2.0744C18 1.67658 17.842 1.29505 17.5607 1.01374C17.2794 0.732437 16.8978 0.574402 16.5 0.574402ZM16.5 17.0744H1.5V2.0744H16.5V17.0744ZM5.46937 13.105C5.39964 13.0354 5.34432 12.9527 5.30658 12.8616C5.26884 12.7706 5.24941 12.673 5.24941 12.5744C5.24941 12.4758 5.26884 12.3782 5.30658 12.2872C5.34432 12.1961 5.39964 12.1134 5.46937 12.0438L10.1897 7.3244H7.5C7.30109 7.3244 7.11032 7.24538 6.96967 7.10473C6.82902 6.96408 6.75 6.77331 6.75 6.5744C6.75 6.37549 6.82902 6.18472 6.96967 6.04407C7.11032 5.90342 7.30109 5.8244 7.5 5.8244H12C12.1989 5.8244 12.3897 5.90342 12.5303 6.04407C12.671 6.18472 12.75 6.37549 12.75 6.5744V11.0744C12.75 11.2733 12.671 11.4641 12.5303 11.6047C12.3897 11.7454 12.1989 11.8244 12 11.8244C11.8011 11.8244 11.6103 11.7454 11.4697 11.6047C11.329 11.4641 11.25 11.2733 11.25 11.0744V8.38471L6.53063 13.105C6.46097 13.1748 6.37825 13.2301 6.28721 13.2678C6.19616 13.3056 6.09856 13.325 6 13.325C5.90144 13.325 5.80384 13.3056 5.71279 13.2678C5.62175 13.2301 5.53903 13.1748 5.46937 13.105Z" fill="#00997E"/>
</svg>
