<svg width="51" height="32" viewBox="0 0 51 32" fill="none" xmlns="http://www.w3.org/2000/svg">
<path fill-rule="evenodd" clip-rule="evenodd" d="M49.3228 1.50782C50.7496 2.74856 50.9005 4.91109 49.6597 6.33795L34.6786 23.5663C32.284 26.3201 28.1505 26.712 25.281 24.4574L19.529 19.938C18.751 19.3267 17.6431 19.3762 16.9226 20.0542L5.77023 30.5506C4.3933 31.8465 2.22651 31.7809 0.930578 30.4039C-0.365358 29.027 -0.299697 26.8602 1.07723 25.5643L13.4828 13.8885C15.9494 11.5669 19.7428 11.3978 22.4063 13.4905L28.0152 17.8975C28.8533 18.5561 30.0607 18.4416 30.7601 17.6372L44.4926 1.8448C45.7334 0.417942 47.8959 0.267068 49.3228 1.50782Z" fill="#5655D7"/>
</svg>
