<svg width="77" height="77" viewBox="0 0 77 77" fill="none" xmlns="http://www.w3.org/2000/svg">
<circle cx="38.5" cy="38.5" r="30.0385" stroke="#F7F8FA" stroke-width="16.9231" stroke-linecap="round"/>
<path d="M38.5 70.2625C38.5 73.9835 35.4608 77.0599 31.7967 76.412C25.0752 75.2235 18.7478 72.2609 13.4963 67.7756C6.52563 61.8222 1.90803 53.5768 0.473999 44.5227C-0.960031 35.4686 0.883624 26.1999 5.67335 18.3838C9.28186 12.4953 14.3841 7.72232 20.4093 4.51497C23.6939 2.76649 27.535 4.75317 28.6848 8.29207C29.8347 11.831 27.8202 15.5644 24.7147 17.6142C21.6781 19.6185 19.0919 22.2762 17.1627 25.4245C14.0494 30.505 12.851 36.5296 13.7831 42.4148C14.7152 48.2999 17.7167 53.6594 22.2476 57.5292C25.0553 59.9272 28.3361 61.6556 31.8435 62.6235C35.4304 63.6133 38.5 66.5415 38.5 70.2625Z" fill="url(#paint0_linear_448_16782)"/>
<g filter="url(#filter0_d_448_16782)">
<rect x="12" y="12" width="53" height="53" rx="26.5" fill="white"/>
</g>
<path d="M28.14 44.18C27.57 44.18 27.05 44.095 26.58 43.925C26.11 43.755 25.715 43.515 25.395 43.205C25.075 42.895 24.845 42.545 24.705 42.155L26.265 41.57C26.345 41.71 26.455 41.865 26.595 42.035C26.735 42.205 26.92 42.355 27.15 42.485C27.38 42.605 27.675 42.665 28.035 42.665C28.605 42.665 29.055 42.505 29.385 42.185C29.725 41.855 29.895 41.44 29.895 40.94C29.895 40.58 29.8 40.27 29.61 40.01C29.43 39.75 29.145 39.55 28.755 39.41C28.375 39.27 27.895 39.2 27.315 39.2H26.835V37.97H27.27C27.88 37.97 28.445 38.04 28.965 38.18C29.495 38.32 29.96 38.53 30.36 38.81C30.77 39.08 31.085 39.41 31.305 39.8C31.535 40.19 31.65 40.63 31.65 41.12C31.65 41.75 31.485 42.295 31.155 42.755C30.835 43.215 30.41 43.57 29.88 43.82C29.35 44.06 28.77 44.18 28.14 44.18ZM26.835 38.93V37.76H27.315C28.085 37.76 28.67 37.63 29.07 37.37C29.47 37.11 29.67 36.745 29.67 36.275C29.67 36.005 29.6 35.765 29.46 35.555C29.33 35.335 29.14 35.16 28.89 35.03C28.64 34.9 28.345 34.835 28.005 34.835C27.785 34.835 27.57 34.87 27.36 34.94C27.15 35.01 26.955 35.12 26.775 35.27C26.595 35.42 26.445 35.615 26.325 35.855L24.81 35.3C24.96 34.88 25.2 34.525 25.53 34.235C25.86 33.935 26.245 33.71 26.685 33.56C27.125 33.4 27.585 33.32 28.065 33.32C28.705 33.32 29.275 33.44 29.775 33.68C30.285 33.92 30.685 34.255 30.975 34.685C31.275 35.105 31.425 35.59 31.425 36.14C31.425 36.6 31.31 37.005 31.08 37.355C30.86 37.705 30.555 38 30.165 38.24C29.775 38.47 29.33 38.645 28.83 38.765C28.34 38.875 27.815 38.93 27.255 38.93H26.835ZM36.6417 44.18C36.1817 44.18 35.7117 44.11 35.2317 43.97C34.7617 43.82 34.3267 43.6 33.9267 43.31C33.5267 43.01 33.2217 42.635 33.0117 42.185L34.5567 41.615C34.8167 41.985 35.1217 42.255 35.4717 42.425C35.8217 42.585 36.1817 42.665 36.5517 42.665C37.1417 42.665 37.6217 42.49 37.9917 42.14C38.3617 41.78 38.5467 41.305 38.5467 40.715C38.5467 40.145 38.3667 39.675 38.0067 39.305C37.6467 38.935 37.1767 38.75 36.5967 38.75C36.2567 38.75 35.9367 38.825 35.6367 38.975C35.3467 39.125 35.1217 39.305 34.9617 39.515L33.3867 39.17L33.9717 33.5H39.7767V35.075H34.1817L33.9717 33.56H35.6967L34.9767 39.305L33.9117 39.17C34.0317 38.97 34.1867 38.77 34.3767 38.57C34.5767 38.36 34.8167 38.165 35.0967 37.985C35.3767 37.805 35.6867 37.66 36.0267 37.55C36.3667 37.44 36.7367 37.39 37.1367 37.4C37.7367 37.4 38.2767 37.54 38.7567 37.82C39.2367 38.1 39.6167 38.485 39.8967 38.975C40.1767 39.455 40.3167 40.01 40.3167 40.64C40.3167 41.34 40.1567 41.955 39.8367 42.485C39.5267 43.015 39.0967 43.43 38.5467 43.73C37.9967 44.03 37.3617 44.18 36.6417 44.18ZM42.3286 44L49.7836 33.5H51.5236L44.0236 44H42.3286ZM49.9186 44.24C49.4486 44.24 49.0336 44.13 48.6736 43.91C48.3136 43.69 48.0286 43.385 47.8186 42.995C47.6186 42.605 47.5186 42.165 47.5186 41.675C47.5186 41.175 47.6186 40.735 47.8186 40.355C48.0186 39.975 48.2986 39.675 48.6586 39.455C49.0286 39.235 49.4486 39.125 49.9186 39.125C50.3886 39.125 50.8036 39.235 51.1636 39.455C51.5236 39.675 51.8036 39.975 52.0036 40.355C52.2136 40.735 52.3186 41.175 52.3186 41.675C52.3186 42.165 52.2136 42.605 52.0036 42.995C51.8036 43.385 51.5236 43.69 51.1636 43.91C50.8036 44.13 50.3886 44.24 49.9186 44.24ZM49.9186 43.055C50.2486 43.055 50.5186 42.925 50.7286 42.665C50.9386 42.405 51.0436 42.075 51.0436 41.675C51.0436 41.285 50.9386 40.96 50.7286 40.7C50.5186 40.43 50.2486 40.295 49.9186 40.295C49.5886 40.295 49.3136 40.43 49.0936 40.7C48.8836 40.96 48.7786 41.285 48.7786 41.675C48.7786 42.075 48.8836 42.405 49.0936 42.665C49.3136 42.925 49.5886 43.055 49.9186 43.055ZM43.9786 38.375C43.5186 38.375 43.1036 38.265 42.7336 38.045C42.3736 37.825 42.0936 37.52 41.8936 37.13C41.6936 36.74 41.5936 36.3 41.5936 35.81C41.5936 35.31 41.6936 34.87 41.8936 34.49C42.0936 34.11 42.3736 33.81 42.7336 33.59C43.1036 33.37 43.5236 33.26 43.9936 33.26C44.4636 33.26 44.8786 33.37 45.2386 33.59C45.5986 33.81 45.8786 34.11 46.0786 34.49C46.2786 34.87 46.3786 35.31 46.3786 35.81C46.3786 36.3 46.2786 36.74 46.0786 37.13C45.8786 37.52 45.5936 37.825 45.2236 38.045C44.8636 38.265 44.4486 38.375 43.9786 38.375ZM43.9786 37.19C44.3186 37.19 44.5936 37.06 44.8036 36.8C45.0136 36.54 45.1186 36.21 45.1186 35.81C45.1186 35.42 45.0136 35.095 44.8036 34.835C44.5936 34.575 44.3186 34.445 43.9786 34.445C43.6486 34.445 43.3786 34.575 43.1686 34.835C42.9586 35.095 42.8536 35.42 42.8536 35.81C42.8536 36.21 42.9586 36.54 43.1686 36.8C43.3786 37.06 43.6486 37.19 43.9786 37.19Z" fill="#4D5154"/>
<defs>
<filter id="filter0_d_448_16782" x="6" y="8" width="65" height="65" filterUnits="userSpaceOnUse" color-interpolation-filters="sRGB">
<feFlood flood-opacity="0" result="BackgroundImageFix"/>
<feColorMatrix in="SourceAlpha" type="matrix" values="0 0 0 0 0 0 0 0 0 0 0 0 0 0 0 0 0 0 127 0" result="hardAlpha"/>
<feOffset dy="2"/>
<feGaussianBlur stdDeviation="3"/>
<feComposite in2="hardAlpha" operator="out"/>
<feColorMatrix type="matrix" values="0 0 0 0 0.564706 0 0 0 0 0.572549 0 0 0 0 0.580392 0 0 0 0.2 0"/>
<feBlend mode="normal" in2="BackgroundImageFix" result="effect1_dropShadow_448_16782"/>
<feBlend mode="normal" in="SourceGraphic" in2="effect1_dropShadow_448_16782" result="shape"/>
</filter>
<linearGradient id="paint0_linear_448_16782" x1="-3.76486e-07" y1="77" x2="77" y2="-3.76486e-07" gradientUnits="userSpaceOnUse">
<stop stop-color="#00997E"/>
<stop offset="1" stop-color="#00C9A5"/>
</linearGradient>
</defs>
</svg>
