<svg width="77" height="77" viewBox="0 0 77 77" fill="none" xmlns="http://www.w3.org/2000/svg">
<circle cx="38.5" cy="38.5" r="30.0385" stroke="#F7F8FA" stroke-width="16.9231" stroke-linecap="round"/>
<path d="M38.5 70.2625C38.5 73.9835 35.4609 77.0599 31.7967 76.412C26.271 75.4349 20.9976 73.2565 16.3623 69.9988C9.87937 65.4425 4.96021 58.9968 2.27609 51.5414C-0.408031 44.086 -0.72636 35.9839 1.36454 28.3409C3.45544 20.6978 7.85372 13.8861 13.9592 8.83524C20.0646 3.78436 27.5799 0.740382 35.4793 0.118682C43.3788 -0.503017 51.2777 1.32785 58.0981 5.36144C64.9185 9.39502 70.3282 15.4348 73.589 22.6567C75.9205 27.8204 77.0722 33.4085 76.9965 39.0195C76.9463 42.7401 73.355 45.149 69.6999 44.4517C66.0448 43.7545 63.7436 40.1906 63.4435 36.4817C63.2132 33.636 62.4964 30.8341 61.3079 28.2019C59.1884 23.5077 55.672 19.5818 51.2388 16.9599C46.8055 14.3381 41.6712 13.148 36.5366 13.5521C31.4019 13.9562 26.517 15.9348 22.5485 19.2179C18.5799 22.501 15.721 26.9286 14.362 31.8966C13.0029 36.8646 13.2098 42.1309 14.9545 46.9769C16.6991 51.8229 19.8966 56.0126 24.1105 58.9742C26.4734 60.6349 29.0914 61.864 31.8435 62.6235C35.4305 63.6133 38.5 66.5415 38.5 70.2625Z" fill="url(#paint0_linear_440_16802)"/>
<g filter="url(#filter0_d_440_16802)">
<rect x="12" y="12" width="53" height="53" rx="26.5" fill="white"/>
</g>
<path d="M25.335 44L29.985 34.835H31.77L27.255 44H25.335ZM24.54 35.09V33.5H31.77V34.835L30.135 35.09H24.54ZM36.8078 44.18C35.9978 44.18 35.3028 44.06 34.7228 43.82C34.1428 43.57 33.6978 43.23 33.3878 42.8C33.0778 42.36 32.9228 41.85 32.9228 41.27C32.9228 40.65 33.0778 40.11 33.3878 39.65C33.6978 39.18 34.1428 38.815 34.7228 38.555C35.3028 38.285 35.9978 38.155 36.8078 38.165C37.6178 38.155 38.3128 38.285 38.8928 38.555C39.4728 38.815 39.9178 39.18 40.2278 39.65C40.5478 40.11 40.7078 40.65 40.7078 41.27C40.7078 41.85 40.5478 42.36 40.2278 42.8C39.9178 43.23 39.4728 43.57 38.8928 43.82C38.3128 44.06 37.6178 44.18 36.8078 44.18ZM36.8078 42.71C37.4278 42.71 37.9378 42.555 38.3378 42.245C38.7378 41.935 38.9378 41.54 38.9378 41.06C38.9378 40.55 38.7378 40.135 38.3378 39.815C37.9378 39.495 37.4278 39.335 36.8078 39.335C36.3978 39.335 36.0328 39.405 35.7128 39.545C35.4028 39.685 35.1528 39.89 34.9628 40.16C34.7828 40.42 34.6928 40.72 34.6928 41.06C34.6928 41.38 34.7828 41.665 34.9628 41.915C35.1528 42.165 35.4028 42.36 35.7128 42.5C36.0328 42.64 36.3978 42.71 36.8078 42.71ZM36.8078 38.945C36.0878 38.945 35.4628 38.83 34.9328 38.6C34.4028 38.36 33.9928 38.035 33.7028 37.625C33.4228 37.205 33.2828 36.72 33.2828 36.17C33.2828 35.61 33.4228 35.115 33.7028 34.685C33.9928 34.255 34.4028 33.92 34.9328 33.68C35.4628 33.44 36.0878 33.32 36.8078 33.32C37.5278 33.32 38.1528 33.44 38.6828 33.68C39.2128 33.92 39.6228 34.255 39.9128 34.685C40.2028 35.115 40.3478 35.61 40.3478 36.17C40.3478 36.72 40.2028 37.205 39.9128 37.625C39.6228 38.035 39.2128 38.36 38.6828 38.6C38.1528 38.83 37.5278 38.945 36.8078 38.945ZM36.8078 37.88C37.3378 37.88 37.7728 37.74 38.1128 37.46C38.4628 37.17 38.6378 36.805 38.6378 36.365C38.6378 35.885 38.4628 35.495 38.1128 35.195C37.7728 34.895 37.3378 34.745 36.8078 34.745C36.2778 34.745 35.8428 34.895 35.5028 35.195C35.1628 35.495 34.9928 35.885 34.9928 36.365C34.9928 36.805 35.1628 37.17 35.5028 37.46C35.8428 37.74 36.2778 37.88 36.8078 37.88ZM42.812 44L50.267 33.5H52.007L44.507 44H42.812ZM50.402 44.24C49.932 44.24 49.517 44.13 49.157 43.91C48.797 43.69 48.512 43.385 48.302 42.995C48.102 42.605 48.002 42.165 48.002 41.675C48.002 41.175 48.102 40.735 48.302 40.355C48.502 39.975 48.782 39.675 49.142 39.455C49.512 39.235 49.932 39.125 50.402 39.125C50.872 39.125 51.287 39.235 51.647 39.455C52.007 39.675 52.287 39.975 52.487 40.355C52.697 40.735 52.802 41.175 52.802 41.675C52.802 42.165 52.697 42.605 52.487 42.995C52.287 43.385 52.007 43.69 51.647 43.91C51.287 44.13 50.872 44.24 50.402 44.24ZM50.402 43.055C50.732 43.055 51.002 42.925 51.212 42.665C51.422 42.405 51.527 42.075 51.527 41.675C51.527 41.285 51.422 40.96 51.212 40.7C51.002 40.43 50.732 40.295 50.402 40.295C50.072 40.295 49.797 40.43 49.577 40.7C49.367 40.96 49.262 41.285 49.262 41.675C49.262 42.075 49.367 42.405 49.577 42.665C49.797 42.925 50.072 43.055 50.402 43.055ZM44.462 38.375C44.002 38.375 43.587 38.265 43.217 38.045C42.857 37.825 42.577 37.52 42.377 37.13C42.177 36.74 42.077 36.3 42.077 35.81C42.077 35.31 42.177 34.87 42.377 34.49C42.577 34.11 42.857 33.81 43.217 33.59C43.587 33.37 44.007 33.26 44.477 33.26C44.947 33.26 45.362 33.37 45.722 33.59C46.082 33.81 46.362 34.11 46.562 34.49C46.762 34.87 46.862 35.31 46.862 35.81C46.862 36.3 46.762 36.74 46.562 37.13C46.362 37.52 46.077 37.825 45.707 38.045C45.347 38.265 44.932 38.375 44.462 38.375ZM44.462 37.19C44.802 37.19 45.077 37.06 45.287 36.8C45.497 36.54 45.602 36.21 45.602 35.81C45.602 35.42 45.497 35.095 45.287 34.835C45.077 34.575 44.802 34.445 44.462 34.445C44.132 34.445 43.862 34.575 43.652 34.835C43.442 35.095 43.337 35.42 43.337 35.81C43.337 36.21 43.442 36.54 43.652 36.8C43.862 37.06 44.132 37.19 44.462 37.19Z" fill="#4D5154"/>
<defs>
<filter id="filter0_d_440_16802" x="6" y="8" width="65" height="65" filterUnits="userSpaceOnUse" color-interpolation-filters="sRGB">
<feFlood flood-opacity="0" result="BackgroundImageFix"/>
<feColorMatrix in="SourceAlpha" type="matrix" values="0 0 0 0 0 0 0 0 0 0 0 0 0 0 0 0 0 0 127 0" result="hardAlpha"/>
<feOffset dy="2"/>
<feGaussianBlur stdDeviation="3"/>
<feComposite in2="hardAlpha" operator="out"/>
<feColorMatrix type="matrix" values="0 0 0 0 0.564706 0 0 0 0 0.572549 0 0 0 0 0.580392 0 0 0 0.2 0"/>
<feBlend mode="normal" in2="BackgroundImageFix" result="effect1_dropShadow_440_16802"/>
<feBlend mode="normal" in="SourceGraphic" in2="effect1_dropShadow_440_16802" result="shape"/>
</filter>
<linearGradient id="paint0_linear_440_16802" x1="-3.76486e-07" y1="77" x2="77" y2="-3.76486e-07" gradientUnits="userSpaceOnUse">
<stop stop-color="#FFAE41"/>
<stop offset="1" stop-color="#FFC06A"/>
</linearGradient>
</defs>
</svg>
