<svg width="77" height="77" viewBox="0 0 77 77" fill="none" xmlns="http://www.w3.org/2000/svg">
<circle cx="38.5" cy="38.5" r="30.0385" stroke="#F7F8FA" stroke-width="16.9231" stroke-linecap="round"/>
<path d="M38.5 70.2625C38.5 73.9835 35.4609 77.0598 31.7968 76.412C27.8104 75.7071 23.9461 74.3755 20.3512 72.454C14.7675 69.4694 10.0059 65.1538 6.48842 59.8895C2.9709 54.6251 0.80597 48.5745 0.185388 42.2737C-0.435194 35.9728 0.50773 29.6161 2.93064 23.7667C5.35354 17.9173 9.18165 12.7557 14.0759 8.7391C18.9701 4.72253 24.7793 1.97496 30.989 0.739767C37.1987 -0.495421 43.6172 -0.180101 49.676 1.6578C53.5767 2.84106 57.2507 4.63192 60.5679 6.95228C63.617 9.08513 63.5906 13.4094 60.9595 16.0405C58.3283 18.6717 54.0873 18.5718 50.851 16.7353C49.2474 15.8252 47.5421 15.0918 45.7644 14.5526C41.8262 13.3579 37.6542 13.153 33.6179 13.9558C29.5816 14.7587 25.8055 16.5446 22.6243 19.1554C19.4431 21.7662 16.9548 25.1212 15.3799 28.9233C13.805 32.7255 13.1921 36.8573 13.5955 40.9529C13.9989 45.0484 15.4061 48.9813 17.6925 52.4031C19.9789 55.825 23.0739 58.6301 26.7033 60.5701C28.3416 61.4458 30.0661 62.133 31.8435 62.6235C35.4305 63.6132 38.5 66.5415 38.5 70.2625Z" fill="url(#paint0_linear_448_16772)"/>
<g filter="url(#filter0_d_448_16772)">
<rect x="12" y="12" width="53" height="53" rx="26.5" fill="white"/>
</g>
<path d="M28.47 44.18C27.76 44.18 27.155 44.05 26.655 43.79C26.165 43.52 25.77 43.16 25.47 42.71C25.17 42.25 24.95 41.72 24.81 41.12C24.67 40.51 24.6 39.86 24.6 39.17C24.6 38.33 24.685 37.555 24.855 36.845C25.035 36.135 25.3 35.515 25.65 34.985C26 34.455 26.435 34.045 26.955 33.755C27.485 33.465 28.1 33.32 28.8 33.32C29.34 33.32 29.87 33.405 30.39 33.575C30.92 33.735 31.39 33.96 31.8 34.25L30.9 35.51C30.59 35.29 30.25 35.125 29.88 35.015C29.52 34.905 29.185 34.85 28.875 34.85C28.005 34.85 27.33 35.225 26.85 35.975C26.38 36.725 26.165 37.89 26.205 39.47L25.845 39.2C26.075 38.63 26.44 38.175 26.94 37.835C27.44 37.485 28.035 37.31 28.725 37.31C29.395 37.31 29.99 37.465 30.51 37.775C31.03 38.075 31.435 38.49 31.725 39.02C32.015 39.54 32.16 40.135 32.16 40.805C32.16 41.455 32.005 42.035 31.695 42.545C31.395 43.055 30.965 43.455 30.405 43.745C29.855 44.035 29.21 44.18 28.47 44.18ZM28.485 42.695C28.855 42.695 29.185 42.61 29.475 42.44C29.775 42.27 30.01 42.04 30.18 41.75C30.35 41.45 30.435 41.11 30.435 40.73C30.435 40.35 30.35 40.01 30.18 39.71C30.01 39.41 29.775 39.18 29.475 39.02C29.185 38.85 28.855 38.765 28.485 38.765C28.105 38.765 27.765 38.85 27.465 39.02C27.175 39.18 26.945 39.41 26.775 39.71C26.605 40.01 26.52 40.35 26.52 40.73C26.52 41.11 26.605 41.45 26.775 41.75C26.945 42.04 27.175 42.27 27.465 42.44C27.765 42.61 28.105 42.695 28.485 42.695ZM36.9933 44.18C36.5333 44.18 36.0633 44.11 35.5833 43.97C35.1133 43.82 34.6783 43.6 34.2783 43.31C33.8783 43.01 33.5733 42.635 33.3633 42.185L34.9083 41.615C35.1683 41.985 35.4733 42.255 35.8233 42.425C36.1733 42.585 36.5333 42.665 36.9033 42.665C37.4933 42.665 37.9733 42.49 38.3433 42.14C38.7133 41.78 38.8983 41.305 38.8983 40.715C38.8983 40.145 38.7183 39.675 38.3583 39.305C37.9983 38.935 37.5283 38.75 36.9483 38.75C36.6083 38.75 36.2883 38.825 35.9883 38.975C35.6983 39.125 35.4733 39.305 35.3133 39.515L33.7383 39.17L34.3233 33.5H40.1283V35.075H34.5333L34.3233 33.56H36.0483L35.3283 39.305L34.2633 39.17C34.3833 38.97 34.5383 38.77 34.7283 38.57C34.9283 38.36 35.1683 38.165 35.4483 37.985C35.7283 37.805 36.0383 37.66 36.3783 37.55C36.7183 37.44 37.0883 37.39 37.4883 37.4C38.0883 37.4 38.6283 37.54 39.1083 37.82C39.5883 38.1 39.9683 38.485 40.2483 38.975C40.5283 39.455 40.6683 40.01 40.6683 40.64C40.6683 41.34 40.5083 41.955 40.1883 42.485C39.8783 43.015 39.4483 43.43 38.8983 43.73C38.3483 44.03 37.7133 44.18 36.9933 44.18ZM42.6802 44L50.1352 33.5H51.8752L44.3752 44H42.6802ZM50.2702 44.24C49.8002 44.24 49.3852 44.13 49.0252 43.91C48.6652 43.69 48.3802 43.385 48.1702 42.995C47.9702 42.605 47.8702 42.165 47.8702 41.675C47.8702 41.175 47.9702 40.735 48.1702 40.355C48.3702 39.975 48.6502 39.675 49.0102 39.455C49.3802 39.235 49.8002 39.125 50.2702 39.125C50.7402 39.125 51.1552 39.235 51.5152 39.455C51.8752 39.675 52.1552 39.975 52.3552 40.355C52.5652 40.735 52.6702 41.175 52.6702 41.675C52.6702 42.165 52.5652 42.605 52.3552 42.995C52.1552 43.385 51.8752 43.69 51.5152 43.91C51.1552 44.13 50.7402 44.24 50.2702 44.24ZM50.2702 43.055C50.6002 43.055 50.8702 42.925 51.0802 42.665C51.2902 42.405 51.3952 42.075 51.3952 41.675C51.3952 41.285 51.2902 40.96 51.0802 40.7C50.8702 40.43 50.6002 40.295 50.2702 40.295C49.9402 40.295 49.6652 40.43 49.4452 40.7C49.2352 40.96 49.1302 41.285 49.1302 41.675C49.1302 42.075 49.2352 42.405 49.4452 42.665C49.6652 42.925 49.9402 43.055 50.2702 43.055ZM44.3302 38.375C43.8702 38.375 43.4552 38.265 43.0852 38.045C42.7252 37.825 42.4452 37.52 42.2452 37.13C42.0452 36.74 41.9452 36.3 41.9452 35.81C41.9452 35.31 42.0452 34.87 42.2452 34.49C42.4452 34.11 42.7252 33.81 43.0852 33.59C43.4552 33.37 43.8752 33.26 44.3452 33.26C44.8152 33.26 45.2302 33.37 45.5902 33.59C45.9502 33.81 46.2302 34.11 46.4302 34.49C46.6302 34.87 46.7302 35.31 46.7302 35.81C46.7302 36.3 46.6302 36.74 46.4302 37.13C46.2302 37.52 45.9452 37.825 45.5752 38.045C45.2152 38.265 44.8002 38.375 44.3302 38.375ZM44.3302 37.19C44.6702 37.19 44.9452 37.06 45.1552 36.8C45.3652 36.54 45.4702 36.21 45.4702 35.81C45.4702 35.42 45.3652 35.095 45.1552 34.835C44.9452 34.575 44.6702 34.445 44.3302 34.445C44.0002 34.445 43.7302 34.575 43.5202 34.835C43.3102 35.095 43.2052 35.42 43.2052 35.81C43.2052 36.21 43.3102 36.54 43.5202 36.8C43.7302 37.06 44.0002 37.19 44.3302 37.19Z" fill="#4D5154"/>
<defs>
<filter id="filter0_d_448_16772" x="6" y="8" width="65" height="65" filterUnits="userSpaceOnUse" color-interpolation-filters="sRGB">
<feFlood flood-opacity="0" result="BackgroundImageFix"/>
<feColorMatrix in="SourceAlpha" type="matrix" values="0 0 0 0 0 0 0 0 0 0 0 0 0 0 0 0 0 0 127 0" result="hardAlpha"/>
<feOffset dy="2"/>
<feGaussianBlur stdDeviation="3"/>
<feComposite in2="hardAlpha" operator="out"/>
<feColorMatrix type="matrix" values="0 0 0 0 0.564706 0 0 0 0 0.572549 0 0 0 0 0.580392 0 0 0 0.2 0"/>
<feBlend mode="normal" in2="BackgroundImageFix" result="effect1_dropShadow_448_16772"/>
<feBlend mode="normal" in="SourceGraphic" in2="effect1_dropShadow_448_16772" result="shape"/>
</filter>
<linearGradient id="paint0_linear_448_16772" x1="-3.76486e-07" y1="77" x2="77" y2="-3.76486e-07" gradientUnits="userSpaceOnUse">
<stop stop-color="#5655D7"/>
<stop offset="1" stop-color="#7F7EFF"/>
</linearGradient>
</defs>
</svg>
