<svg width="77" height="77" viewBox="0 0 77 77" fill="none" xmlns="http://www.w3.org/2000/svg">
<circle cx="38.5" cy="38.5" r="30.0385" stroke="#F7F8FA" stroke-width="16.9231" stroke-linecap="round"/>
<path d="M38.5 70.2625C38.5 73.9835 35.461 77.0598 31.7968 76.412C28.554 75.8386 25.389 74.85 22.3816 73.4635C17.3276 71.1336 12.8387 67.7356 9.22437 63.5037C5.61003 59.2719 2.95611 54.3068 1.44547 48.9505C-0.065162 43.5941 -0.396599 37.974 0.473999 32.4773C1.3446 26.9805 3.39653 21.7379 6.48842 17.1105C9.58031 12.4832 13.6386 8.58119 18.3838 5.67335C23.129 2.76551 28.4481 0.920989 33.9748 0.266864C37.2635 -0.122374 40.5791 -0.0846006 43.8403 0.372173C47.5254 0.888309 49.465 4.75317 48.3152 8.29207C47.1653 11.831 43.3412 13.6674 39.6239 13.5002C38.2707 13.4394 36.9112 13.4884 35.5586 13.6485C31.9663 14.0736 28.5088 15.2726 25.4245 17.1627C22.3401 19.0528 19.7022 21.5891 17.6925 24.5969C15.6827 27.6046 14.349 31.0123 13.7831 34.5852C13.2172 38.1581 13.4326 41.8112 14.4146 45.2928C15.3965 48.7744 17.1215 52.0017 19.4708 54.7524C21.8202 57.5031 24.7379 59.7118 28.023 61.2263C29.2599 61.7965 30.5378 62.2632 31.8435 62.6235C35.4305 63.6132 38.5 66.5415 38.5 70.2625Z" fill="url(#paint0_linear_440_16792)"/>
<g filter="url(#filter0_d_440_16792)">
<rect x="12" y="12" width="53" height="53" rx="26.5" fill="white"/>
</g>
<path d="M28.38 44.18C27.92 44.18 27.45 44.11 26.97 43.97C26.5 43.82 26.065 43.6 25.665 43.31C25.265 43.01 24.96 42.635 24.75 42.185L26.295 41.615C26.555 41.985 26.86 42.255 27.21 42.425C27.56 42.585 27.92 42.665 28.29 42.665C28.88 42.665 29.36 42.49 29.73 42.14C30.1 41.78 30.285 41.305 30.285 40.715C30.285 40.145 30.105 39.675 29.745 39.305C29.385 38.935 28.915 38.75 28.335 38.75C27.995 38.75 27.675 38.825 27.375 38.975C27.085 39.125 26.86 39.305 26.7 39.515L25.125 39.17L25.71 33.5H31.515V35.075H25.92L25.71 33.56H27.435L26.715 39.305L25.65 39.17C25.77 38.97 25.925 38.77 26.115 38.57C26.315 38.36 26.555 38.165 26.835 37.985C27.115 37.805 27.425 37.66 27.765 37.55C28.105 37.44 28.475 37.39 28.875 37.4C29.475 37.4 30.015 37.54 30.495 37.82C30.975 38.1 31.355 38.485 31.635 38.975C31.915 39.455 32.055 40.01 32.055 40.64C32.055 41.34 31.895 41.955 31.575 42.485C31.265 43.015 30.835 43.43 30.285 43.73C29.735 44.03 29.1 44.18 28.38 44.18ZM37.0519 44.18C36.5919 44.18 36.1219 44.11 35.6419 43.97C35.1719 43.82 34.7369 43.6 34.3369 43.31C33.9369 43.01 33.6319 42.635 33.4219 42.185L34.9669 41.615C35.2269 41.985 35.5319 42.255 35.8819 42.425C36.2319 42.585 36.5919 42.665 36.9619 42.665C37.5519 42.665 38.0319 42.49 38.4019 42.14C38.7719 41.78 38.9569 41.305 38.9569 40.715C38.9569 40.145 38.7769 39.675 38.4169 39.305C38.0569 38.935 37.5869 38.75 37.0069 38.75C36.6669 38.75 36.3469 38.825 36.0469 38.975C35.7569 39.125 35.5319 39.305 35.3719 39.515L33.7969 39.17L34.3819 33.5H40.1869V35.075H34.5919L34.3819 33.56H36.1069L35.3869 39.305L34.3219 39.17C34.4419 38.97 34.5969 38.77 34.7869 38.57C34.9869 38.36 35.2269 38.165 35.5069 37.985C35.7869 37.805 36.0969 37.66 36.4369 37.55C36.7769 37.44 37.1469 37.39 37.5469 37.4C38.1469 37.4 38.6869 37.54 39.1669 37.82C39.6469 38.1 40.0269 38.485 40.3069 38.975C40.5869 39.455 40.7269 40.01 40.7269 40.64C40.7269 41.34 40.5669 41.955 40.2469 42.485C39.9369 43.015 39.5069 43.43 38.9569 43.73C38.4069 44.03 37.7719 44.18 37.0519 44.18ZM42.7388 44L50.1938 33.5H51.9338L44.4338 44H42.7388ZM50.3288 44.24C49.8588 44.24 49.4438 44.13 49.0838 43.91C48.7238 43.69 48.4388 43.385 48.2288 42.995C48.0288 42.605 47.9288 42.165 47.9288 41.675C47.9288 41.175 48.0288 40.735 48.2288 40.355C48.4288 39.975 48.7088 39.675 49.0688 39.455C49.4388 39.235 49.8588 39.125 50.3288 39.125C50.7988 39.125 51.2138 39.235 51.5738 39.455C51.9338 39.675 52.2138 39.975 52.4138 40.355C52.6238 40.735 52.7288 41.175 52.7288 41.675C52.7288 42.165 52.6238 42.605 52.4138 42.995C52.2138 43.385 51.9338 43.69 51.5738 43.91C51.2138 44.13 50.7988 44.24 50.3288 44.24ZM50.3288 43.055C50.6588 43.055 50.9288 42.925 51.1388 42.665C51.3488 42.405 51.4538 42.075 51.4538 41.675C51.4538 41.285 51.3488 40.96 51.1388 40.7C50.9288 40.43 50.6588 40.295 50.3288 40.295C49.9988 40.295 49.7238 40.43 49.5038 40.7C49.2938 40.96 49.1888 41.285 49.1888 41.675C49.1888 42.075 49.2938 42.405 49.5038 42.665C49.7238 42.925 49.9988 43.055 50.3288 43.055ZM44.3888 38.375C43.9288 38.375 43.5138 38.265 43.1438 38.045C42.7838 37.825 42.5038 37.52 42.3038 37.13C42.1038 36.74 42.0038 36.3 42.0038 35.81C42.0038 35.31 42.1038 34.87 42.3038 34.49C42.5038 34.11 42.7838 33.81 43.1438 33.59C43.5138 33.37 43.9338 33.26 44.4038 33.26C44.8738 33.26 45.2888 33.37 45.6488 33.59C46.0088 33.81 46.2888 34.11 46.4888 34.49C46.6888 34.87 46.7888 35.31 46.7888 35.81C46.7888 36.3 46.6888 36.74 46.4888 37.13C46.2888 37.52 46.0038 37.825 45.6338 38.045C45.2738 38.265 44.8588 38.375 44.3888 38.375ZM44.3888 37.19C44.7288 37.19 45.0038 37.06 45.2138 36.8C45.4238 36.54 45.5288 36.21 45.5288 35.81C45.5288 35.42 45.4238 35.095 45.2138 34.835C45.0038 34.575 44.7288 34.445 44.3888 34.445C44.0588 34.445 43.7888 34.575 43.5788 34.835C43.3688 35.095 43.2638 35.42 43.2638 35.81C43.2638 36.21 43.3688 36.54 43.5788 36.8C43.7888 37.06 44.0588 37.19 44.3888 37.19Z" fill="#4D5154"/>
<defs>
<filter id="filter0_d_440_16792" x="6" y="8" width="65" height="65" filterUnits="userSpaceOnUse" color-interpolation-filters="sRGB">
<feFlood flood-opacity="0" result="BackgroundImageFix"/>
<feColorMatrix in="SourceAlpha" type="matrix" values="0 0 0 0 0 0 0 0 0 0 0 0 0 0 0 0 0 0 127 0" result="hardAlpha"/>
<feOffset dy="2"/>
<feGaussianBlur stdDeviation="3"/>
<feComposite in2="hardAlpha" operator="out"/>
<feColorMatrix type="matrix" values="0 0 0 0 0.564706 0 0 0 0 0.572549 0 0 0 0 0.580392 0 0 0 0.2 0"/>
<feBlend mode="normal" in2="BackgroundImageFix" result="effect1_dropShadow_440_16792"/>
<feBlend mode="normal" in="SourceGraphic" in2="effect1_dropShadow_440_16792" result="shape"/>
</filter>
<linearGradient id="paint0_linear_440_16792" x1="-3.76486e-07" y1="77" x2="77" y2="-3.76486e-07" gradientUnits="userSpaceOnUse">
<stop stop-color="#FF414B"/>
<stop offset="1" stop-color="#FF7A81"/>
</linearGradient>
</defs>
</svg>
