<svg width="686" height="200" viewBox="0 0 686 200" fill="none" xmlns="http://www.w3.org/2000/svg">
<path d="M4.44902 14.701C3.85102 14.701 3.33535 14.6143 2.90202 14.441C2.47735 14.2677 2.13502 14.0423 1.87502 13.765C1.61502 13.479 1.43302 13.18 1.32902 12.868L2.29102 12.53C2.42102 12.8593 2.65935 13.1453 3.00602 13.388C3.35268 13.6307 3.77735 13.7563 4.28002 13.765C4.89535 13.765 5.37635 13.6437 5.72302 13.401C6.07835 13.1497 6.25602 12.829 6.25602 12.439C6.25602 12.0663 6.09568 11.763 5.77502 11.529C5.46302 11.295 5.05568 11.113 4.55302 10.983L3.65602 10.762C3.28335 10.6667 2.94102 10.5237 2.62902 10.333C2.32568 10.1423 2.08302 9.904 1.90102 9.618C1.72768 9.32333 1.64102 8.97233 1.64102 8.565C1.64102 7.82833 1.88368 7.252 2.36902 6.836C2.85435 6.41133 3.55202 6.199 4.46202 6.199C4.99068 6.199 5.45002 6.28567 5.84002 6.459C6.23002 6.63233 6.54635 6.85767 6.78902 7.135C7.04035 7.41233 7.21368 7.70267 7.30902 8.006L6.33402 8.357C6.18668 7.993 5.93968 7.69833 5.59302 7.473C5.25502 7.24767 4.84335 7.135 4.35802 7.135C3.84668 7.135 3.44368 7.26067 3.14902 7.512C2.85435 7.75467 2.70702 8.07967 2.70702 8.487C2.70702 8.86833 2.81968 9.15867 3.04502 9.358C3.27902 9.54867 3.58668 9.69167 3.96802 9.787L4.87802 9.995C5.66668 10.1857 6.26902 10.502 6.68502 10.944C7.10968 11.386 7.32202 11.8583 7.32202 12.361C7.32202 12.7943 7.21368 13.1887 6.99702 13.544C6.78035 13.8993 6.45968 14.181 6.03502 14.389C5.61035 14.597 5.08168 14.701 4.44902 14.701ZM3.98102 16.339V4.86H4.94302V16.339H3.98102ZM9.36921 12.452L8.55021 11.945L12.6972 5.9L13.4122 6.524L9.36921 12.452ZM8.55021 12.79V11.945L9.25221 11.815H15.6742V12.79H8.55021ZM12.7492 15V6.602L12.6972 5.9H13.8152V15H12.7492ZM18.0414 11.88L17.5864 10.879L22.3704 5.9H23.7484L18.0414 11.88ZM17.2744 15V5.9H18.3274V15H17.2744ZM22.5784 15L18.8474 10.372L19.5624 9.67L23.9174 15H22.5784Z" fill="#7A7C7F"/>
<path d="M4.45195 65.701C3.85395 65.701 3.33828 65.6143 2.90495 65.441C2.48028 65.2677 2.13795 65.0423 1.87795 64.765C1.61795 64.479 1.43595 64.18 1.33195 63.868L2.29395 63.53C2.42395 63.8593 2.66228 64.1453 3.00895 64.388C3.35561 64.6307 3.78028 64.7563 4.28295 64.765C4.89828 64.765 5.37928 64.6437 5.72595 64.401C6.08128 64.1497 6.25895 63.829 6.25895 63.439C6.25895 63.0663 6.09861 62.763 5.77795 62.529C5.46595 62.295 5.05861 62.113 4.55595 61.983L3.65895 61.762C3.28628 61.6667 2.94395 61.5237 2.63195 61.333C2.32861 61.1423 2.08595 60.904 1.90395 60.618C1.73061 60.3233 1.64395 59.9723 1.64395 59.565C1.64395 58.8283 1.88661 58.252 2.37195 57.836C2.85728 57.4113 3.55495 57.199 4.46495 57.199C4.99361 57.199 5.45295 57.2857 5.84295 57.459C6.23295 57.6323 6.54928 57.8577 6.79195 58.135C7.04328 58.4123 7.21661 58.7027 7.31195 59.006L6.33695 59.357C6.18961 58.993 5.94261 58.6983 5.59595 58.473C5.25795 58.2477 4.84628 58.135 4.36095 58.135C3.84961 58.135 3.44661 58.2607 3.15195 58.512C2.85728 58.7547 2.70995 59.0797 2.70995 59.487C2.70995 59.8683 2.82261 60.1587 3.04795 60.358C3.28195 60.5487 3.58961 60.6917 3.97095 60.787L4.88095 60.995C5.66961 61.1857 6.27195 61.502 6.68795 61.944C7.11261 62.386 7.32495 62.8583 7.32495 63.361C7.32495 63.7943 7.21661 64.1887 6.99995 64.544C6.78328 64.8993 6.46261 65.181 6.03795 65.389C5.61328 65.597 5.08461 65.701 4.45195 65.701ZM3.98395 67.339V55.86H4.94595V67.339H3.98395ZM11.4911 66.156C11.0491 66.156 10.6461 66.091 10.2821 65.961C9.92681 65.8223 9.61914 65.6447 9.35914 65.428C9.10781 65.2113 8.90847 64.9817 8.76114 64.739L9.67114 64.232C9.76647 64.3533 9.88347 64.492 10.0221 64.648C10.1695 64.7953 10.3558 64.921 10.5811 65.025C10.8065 65.129 11.0838 65.181 11.4131 65.181C12.0025 65.181 12.4748 65.012 12.8301 64.674C13.1855 64.336 13.3631 63.9113 13.3631 63.4C13.3631 63.01 13.2548 62.6807 13.0381 62.412C12.8301 62.1433 12.5268 61.9397 12.1281 61.801C11.7295 61.6623 11.2528 61.593 10.6981 61.593H10.4511V60.735H10.6721C11.2181 60.735 11.7208 60.7957 12.1801 60.917C12.6395 61.0383 13.0381 61.216 13.3761 61.45C13.7228 61.684 13.9871 61.97 14.1691 62.308C14.3598 62.646 14.4551 63.036 14.4551 63.478C14.4551 64.0153 14.3208 64.4877 14.0521 64.895C13.7921 65.2937 13.4368 65.6057 12.9861 65.831C12.5355 66.0477 12.0371 66.156 11.4911 66.156ZM10.4511 61.502V60.657H10.6981C11.4435 60.657 12.0328 60.5313 12.4661 60.28C12.9081 60.02 13.1291 59.6517 13.1291 59.175C13.1291 58.915 13.0598 58.6767 12.9211 58.46C12.7825 58.2347 12.5788 58.057 12.3101 57.927C12.0501 57.7883 11.7468 57.719 11.4001 57.719C11.1661 57.719 10.9451 57.7537 10.7371 57.823C10.5378 57.8837 10.3515 57.979 10.1781 58.109C10.0135 58.2303 9.86181 58.3863 9.72314 58.577L8.86514 58.083C9.02981 57.8143 9.23781 57.5803 9.48914 57.381C9.74914 57.1817 10.0438 57.0257 10.3731 56.913C10.7025 56.8003 11.0621 56.744 11.4521 56.744C11.9808 56.744 12.4531 56.848 12.8691 57.056C13.2938 57.264 13.6275 57.55 13.8701 57.914C14.1128 58.2693 14.2341 58.6723 14.2341 59.123C14.2341 59.5043 14.1431 59.8423 13.9611 60.137C13.7791 60.4317 13.5235 60.683 13.1941 60.891C12.8735 61.099 12.4965 61.255 12.0631 61.359C11.6385 61.4543 11.1748 61.502 10.6721 61.502H10.4511ZM17.0414 62.88L16.5864 61.879L21.3704 56.9H22.7484L17.0414 62.88ZM16.2744 66V56.9H17.3274V66H16.2744ZM21.5784 66L17.8474 61.372L18.5624 60.67L22.9174 66H21.5784Z" fill="#7A7C7F"/>
<path d="M4.26152 116.701C3.66352 116.701 3.14785 116.614 2.71452 116.441C2.28985 116.268 1.94752 116.042 1.68752 115.765C1.42752 115.479 1.24552 115.18 1.14152 114.868L2.10352 114.53C2.23352 114.859 2.47185 115.145 2.81852 115.388C3.16518 115.631 3.58985 115.756 4.09252 115.765C4.70785 115.765 5.18885 115.644 5.53552 115.401C5.89085 115.15 6.06852 114.829 6.06852 114.439C6.06852 114.066 5.90818 113.763 5.58752 113.529C5.27552 113.295 4.86818 113.113 4.36552 112.983L3.46852 112.762C3.09585 112.667 2.75352 112.524 2.44152 112.333C2.13818 112.142 1.89552 111.904 1.71352 111.618C1.54018 111.323 1.45352 110.972 1.45352 110.565C1.45352 109.828 1.69618 109.252 2.18152 108.836C2.66685 108.411 3.36452 108.199 4.27452 108.199C4.80318 108.199 5.26252 108.286 5.65252 108.459C6.04252 108.632 6.35885 108.858 6.60152 109.135C6.85285 109.412 7.02618 109.703 7.12152 110.006L6.14652 110.357C5.99918 109.993 5.75218 109.698 5.40552 109.473C5.06752 109.248 4.65585 109.135 4.17052 109.135C3.65918 109.135 3.25618 109.261 2.96152 109.512C2.66685 109.755 2.51952 110.08 2.51952 110.487C2.51952 110.868 2.63218 111.159 2.85752 111.358C3.09152 111.549 3.39918 111.692 3.78052 111.787L4.69052 111.995C5.47918 112.186 6.08152 112.502 6.49752 112.944C6.92218 113.386 7.13452 113.858 7.13452 114.361C7.13452 114.794 7.02618 115.189 6.80952 115.544C6.59285 115.899 6.27218 116.181 5.84752 116.389C5.42285 116.597 4.89418 116.701 4.26152 116.701ZM3.79352 118.339V106.86H4.75552V118.339H3.79352ZM9.63671 116.363L8.54471 116.09C8.54471 115.804 8.60104 115.522 8.71371 115.245C8.83504 114.959 9.00404 114.677 9.22071 114.4C9.44604 114.123 9.71904 113.863 10.0397 113.62L11.9247 112.203C12.15 112.047 12.345 111.869 12.5097 111.67C12.683 111.462 12.8174 111.25 12.9127 111.033C13.008 110.808 13.0557 110.591 13.0557 110.383C13.0557 110.08 12.982 109.807 12.8347 109.564C12.6874 109.313 12.4794 109.113 12.2107 108.966C11.942 108.819 11.6257 108.745 11.2617 108.745C10.9064 108.745 10.5944 108.814 10.3257 108.953C10.057 109.083 9.83604 109.261 9.66271 109.486C9.48938 109.703 9.36371 109.937 9.28571 110.188L8.16771 109.967C8.27171 109.577 8.45804 109.213 8.72671 108.875C9.00404 108.537 9.35504 108.264 9.77971 108.056C10.2044 107.848 10.6767 107.744 11.1967 107.744C11.8034 107.744 12.3277 107.861 12.7697 108.095C13.2117 108.32 13.554 108.632 13.7967 109.031C14.048 109.421 14.1737 109.867 14.1737 110.37C14.1737 110.847 14.0437 111.297 13.7837 111.722C13.5237 112.147 13.1467 112.558 12.6527 112.957L10.8717 114.309C10.6204 114.491 10.3994 114.69 10.2087 114.907C10.0267 115.124 9.88371 115.353 9.77971 115.596C9.68438 115.83 9.63671 116.086 9.63671 116.363ZM8.54471 117V116.09L9.37671 116.025H14.3037V117H8.54471ZM17.0414 113.88L16.5864 112.879L21.3704 107.9H22.7484L17.0414 113.88ZM16.2744 117V107.9H17.3274V117H16.2744ZM21.5784 117L17.8474 112.372L18.5624 111.67L22.9174 117H21.5784Z" fill="#7A7C7F"/>
<path d="M4.15312 167.701C3.55512 167.701 3.03945 167.614 2.60612 167.441C2.18145 167.268 1.83912 167.042 1.57912 166.765C1.31912 166.479 1.13712 166.18 1.03312 165.868L1.99512 165.53C2.12512 165.859 2.36345 166.145 2.71012 166.388C3.05678 166.631 3.48145 166.756 3.98412 166.765C4.59945 166.765 5.08045 166.644 5.42712 166.401C5.78245 166.15 5.96012 165.829 5.96012 165.439C5.96012 165.066 5.79978 164.763 5.47912 164.529C5.16712 164.295 4.75978 164.113 4.25712 163.983L3.36012 163.762C2.98745 163.667 2.64512 163.524 2.33312 163.333C2.02978 163.142 1.78712 162.904 1.60512 162.618C1.43178 162.323 1.34512 161.972 1.34512 161.565C1.34512 160.828 1.58778 160.252 2.07312 159.836C2.55845 159.411 3.25612 159.199 4.16612 159.199C4.69478 159.199 5.15412 159.286 5.54412 159.459C5.93412 159.632 6.25045 159.858 6.49312 160.135C6.74445 160.412 6.91778 160.703 7.01312 161.006L6.03812 161.357C5.89078 160.993 5.64378 160.698 5.29712 160.473C4.95912 160.248 4.54745 160.135 4.06212 160.135C3.55078 160.135 3.14778 160.261 2.85312 160.512C2.55845 160.755 2.41112 161.08 2.41112 161.487C2.41112 161.868 2.52378 162.159 2.74912 162.358C2.98312 162.549 3.29078 162.692 3.67212 162.787L4.58212 162.995C5.37078 163.186 5.97312 163.502 6.38912 163.944C6.81378 164.386 7.02612 164.858 7.02612 165.361C7.02612 165.794 6.91778 166.189 6.70112 166.544C6.48445 166.899 6.16378 167.181 5.73912 167.389C5.31445 167.597 4.78578 167.701 4.15312 167.701ZM3.68512 169.339V157.86H4.64712V169.339H3.68512ZM10.5033 168L10.5163 159.485L10.6073 158.9H11.5953L11.5693 168H10.5033ZM8.47531 161.24V160.239C8.65731 160.248 8.87398 160.187 9.12531 160.057C9.37665 159.927 9.63665 159.758 9.90531 159.55C10.174 159.342 10.408 159.125 10.6073 158.9L11.2833 159.641C10.9973 159.944 10.6983 160.217 10.3863 160.46C10.0743 160.703 9.75798 160.898 9.43731 161.045C9.11665 161.184 8.79598 161.249 8.47531 161.24ZM15.0414 164.88L14.5864 163.879L19.3704 158.9H20.7484L15.0414 164.88ZM14.2744 168V158.9H15.3274V168H14.2744ZM19.5784 168L15.8474 163.372L16.5624 162.67L20.9174 168H19.5784Z" fill="#7A7C7F"/>
<rect x="43.9998" y="174.994" width="641" height="1.18436" fill="#ECEAF3"/>
<rect x="43.9998" y="119.33" width="641" height="1.18436" fill="#ECEAF3"/>
<rect x="43.9998" y="63.6648" width="641" height="1.18436" fill="#ECEAF3"/>
<rect x="44" y="8" width="641" height="1.18436" fill="#ECEAF3"/>
<path d="M44 24.7374C44 22.121 46.121 20 48.7374 20H74.7626C77.379 20 79.5 22.121 79.5 24.7374V175H44V24.7374Z" fill="url(#paint0_linear_380_12872)"/>
<path d="M84.5 65.7374C84.5 63.121 86.621 61 89.2374 61H115.263C117.879 61 120 63.121 120 65.7374V175H84.5V65.7374Z" fill="url(#paint1_linear_380_12872)"/>
<path d="M61.561 195.156C61.249 195.156 60.9587 195.108 60.69 195.013C60.43 194.926 60.196 194.809 59.988 194.662C59.78 194.506 59.6023 194.333 59.455 194.142C59.3077 193.943 59.1863 193.739 59.091 193.531L59.923 193.05C60.105 193.371 60.326 193.635 60.586 193.843C60.8547 194.051 61.184 194.155 61.574 194.155C61.886 194.155 62.1893 194.081 62.484 193.934C62.7873 193.787 63.0343 193.54 63.225 193.193C63.4157 192.846 63.511 192.391 63.511 191.828V185.9H64.603V192.257C64.603 192.734 64.5163 193.154 64.343 193.518C64.1783 193.882 63.9487 194.185 63.654 194.428C63.368 194.671 63.043 194.853 62.679 194.974C62.315 195.095 61.9423 195.156 61.561 195.156ZM70.6044 195L70.5394 193.934V191.568C70.5394 191.057 70.4788 190.636 70.3574 190.307C70.2448 189.969 70.0671 189.718 69.8244 189.553C69.5904 189.38 69.2784 189.293 68.8884 189.293C68.5158 189.293 68.1908 189.367 67.9134 189.514C67.6448 189.661 67.4238 189.891 67.2504 190.203L66.3144 189.826C66.4878 189.523 66.6958 189.258 66.9384 189.033C67.1811 188.808 67.4628 188.639 67.7834 188.526C68.1128 188.405 68.4854 188.344 68.9014 188.344C69.4994 188.344 69.9978 188.461 70.3964 188.695C70.7951 188.929 71.0941 189.28 71.2934 189.748C71.4928 190.207 71.5881 190.784 71.5794 191.477L71.5664 195H70.6044ZM68.6544 195.156C67.8918 195.156 67.2938 194.983 66.8604 194.636C66.4358 194.281 66.2234 193.791 66.2234 193.167C66.2234 192.508 66.4401 192.006 66.8734 191.659C67.3154 191.304 67.9308 191.126 68.7194 191.126H70.5784V191.997H68.9534C68.3468 191.997 67.9134 192.097 67.6534 192.296C67.4021 192.495 67.2764 192.781 67.2764 193.154C67.2764 193.492 67.4021 193.761 67.6534 193.96C67.9048 194.151 68.2558 194.246 68.7064 194.246C69.0791 194.246 69.4041 194.159 69.6814 193.986C69.9588 193.813 70.1711 193.579 70.3184 193.284C70.4658 192.981 70.5394 192.638 70.5394 192.257H71.1764C71.1764 193.141 70.9598 193.847 70.5264 194.376C70.0931 194.896 69.4691 195.156 68.6544 195.156ZM73.2274 195V188.5H74.2024L74.2674 189.696V195H73.2274ZM77.7904 195V191.672L78.8304 191.282V195H77.7904ZM77.7904 191.672C77.7904 191.031 77.7167 190.541 77.5694 190.203C77.422 189.865 77.2184 189.635 76.9584 189.514C76.6984 189.384 76.4037 189.319 76.0744 189.319C75.5024 189.319 75.056 189.523 74.7354 189.93C74.4234 190.329 74.2674 190.896 74.2674 191.633H73.7604C73.7604 190.948 73.86 190.359 74.0594 189.865C74.2587 189.371 74.5447 188.994 74.9174 188.734C75.2987 188.474 75.758 188.344 76.2954 188.344C77.084 188.344 77.7037 188.587 78.1544 189.072C78.6137 189.557 78.839 190.294 78.8304 191.282L77.7904 191.672ZM84.9354 195L84.8704 193.804V188.5H85.9104V195H84.9354ZM80.3074 192.218V188.5H81.3474V191.828L80.3074 192.218ZM81.3474 191.828C81.3474 192.469 81.4211 192.959 81.5684 193.297C81.7157 193.635 81.9194 193.869 82.1794 193.999C82.4481 194.12 82.7471 194.181 83.0764 194.181C83.6397 194.181 84.0774 193.977 84.3894 193.57C84.7101 193.163 84.8704 192.595 84.8704 191.867H85.3774C85.3774 192.552 85.2777 193.141 85.0784 193.635C84.8791 194.129 84.5887 194.506 84.2074 194.766C83.8347 195.026 83.3797 195.156 82.8424 195.156C82.0537 195.156 81.4297 194.913 80.9704 194.428C80.5197 193.943 80.2987 193.206 80.3074 192.218L81.3474 191.828ZM91.7294 195L91.6644 193.934V191.568C91.6644 191.057 91.6038 190.636 91.4824 190.307C91.3698 189.969 91.1921 189.718 90.9494 189.553C90.7154 189.38 90.4034 189.293 90.0134 189.293C89.6408 189.293 89.3158 189.367 89.0384 189.514C88.7698 189.661 88.5488 189.891 88.3754 190.203L87.4394 189.826C87.6128 189.523 87.8208 189.258 88.0634 189.033C88.3061 188.808 88.5878 188.639 88.9084 188.526C89.2378 188.405 89.6104 188.344 90.0264 188.344C90.6244 188.344 91.1228 188.461 91.5214 188.695C91.9201 188.929 92.2191 189.28 92.4184 189.748C92.6178 190.207 92.7131 190.784 92.7044 191.477L92.6914 195H91.7294ZM89.7794 195.156C89.0168 195.156 88.4188 194.983 87.9854 194.636C87.5608 194.281 87.3484 193.791 87.3484 193.167C87.3484 192.508 87.5651 192.006 87.9984 191.659C88.4404 191.304 89.0558 191.126 89.8444 191.126H91.7034V191.997H90.0784C89.4718 191.997 89.0384 192.097 88.7784 192.296C88.5271 192.495 88.4014 192.781 88.4014 193.154C88.4014 193.492 88.5271 193.761 88.7784 193.96C89.0298 194.151 89.3808 194.246 89.8314 194.246C90.2041 194.246 90.5291 194.159 90.8064 193.986C91.0838 193.813 91.2961 193.579 91.4434 193.284C91.5908 192.981 91.6644 192.638 91.6644 192.257H92.3014C92.3014 193.141 92.0848 193.847 91.6514 194.376C91.2181 194.896 90.5941 195.156 89.7794 195.156ZM94.9244 191.477C94.9244 190.775 95.0587 190.207 95.3274 189.774C95.596 189.332 95.9384 189.007 96.3544 188.799C96.779 188.582 97.2254 188.474 97.6934 188.474V189.449C97.312 189.449 96.9437 189.514 96.5884 189.644C96.2417 189.765 95.9557 189.969 95.7304 190.255C95.505 190.541 95.3924 190.931 95.3924 191.425L94.9244 191.477ZM94.3524 195V188.5H95.3924V195H94.3524ZM99.33 197.756C99.1653 197.756 98.9746 197.721 98.758 197.652C98.5413 197.591 98.3116 197.509 98.069 197.405L98.459 196.534C98.6583 196.621 98.8316 196.686 98.979 196.729C99.135 196.772 99.2563 196.794 99.343 196.794C99.577 196.794 99.7676 196.729 99.915 196.599C100.071 196.478 100.201 196.3 100.305 196.066L101.046 194.298L103.451 188.5H104.569L101.449 195.91C101.284 196.291 101.111 196.621 100.929 196.898C100.756 197.175 100.543 197.388 100.292 197.535C100.041 197.682 99.72 197.756 99.33 197.756ZM100.76 195L97.952 188.5H99.057L101.475 194.285L101.787 195H100.76Z" fill="#7A7C7F"/>
<path d="M157 56.7374C157 54.121 159.121 52 161.737 52H187.763C190.379 52 192.5 54.121 192.5 56.7374V175H157V56.7374Z" fill="url(#paint2_linear_380_12872)"/>
<path d="M197.5 157.737C197.5 155.121 199.621 153 202.237 153H228.263C230.879 153 233 155.121 233 157.737V175H197.5V157.737Z" fill="url(#paint3_linear_380_12872)"/>
<path d="M170.209 195V185.9H171.314V195H170.209ZM171.21 191.009V190.008H175.11V191.009H171.21ZM171.21 186.901V185.9H175.617V186.901H171.21ZM179.739 195.156C179.107 195.156 178.548 195.013 178.062 194.727C177.577 194.432 177.196 194.029 176.918 193.518C176.65 193.007 176.515 192.417 176.515 191.75C176.515 191.083 176.65 190.493 176.918 189.982C177.196 189.471 177.573 189.072 178.049 188.786C178.535 188.491 179.089 188.344 179.713 188.344C180.311 188.344 180.831 188.496 181.273 188.799C181.724 189.094 182.071 189.51 182.313 190.047C182.556 190.584 182.677 191.217 182.677 191.945H181.637C181.637 191.39 181.564 190.918 181.416 190.528C181.269 190.129 181.048 189.822 180.753 189.605C180.467 189.388 180.116 189.28 179.7 189.28C179.276 189.28 178.899 189.384 178.569 189.592C178.249 189.791 178.002 190.077 177.828 190.45C177.655 190.823 177.568 191.26 177.568 191.763C177.568 192.257 177.664 192.686 177.854 193.05C178.045 193.405 178.309 193.687 178.647 193.895C178.985 194.094 179.367 194.194 179.791 194.194C180.242 194.194 180.623 194.086 180.935 193.869C181.247 193.652 181.494 193.371 181.676 193.024L182.586 193.479C182.422 193.817 182.201 194.112 181.923 194.363C181.655 194.614 181.334 194.809 180.961 194.948C180.597 195.087 180.19 195.156 179.739 195.156ZM177.204 191.945L177.217 191.048H182.04V191.945H177.204ZM183.989 195V185.9H185.029V193.791L184.977 195H183.989ZM187.226 195.156C186.68 195.156 186.199 195.013 185.783 194.727C185.376 194.441 185.059 194.042 184.834 193.531C184.609 193.011 184.496 192.417 184.496 191.75C184.496 191.074 184.609 190.48 184.834 189.969C185.059 189.458 185.376 189.059 185.783 188.773C186.199 188.487 186.68 188.344 187.226 188.344C187.807 188.344 188.318 188.487 188.76 188.773C189.202 189.059 189.544 189.458 189.787 189.969C190.038 190.48 190.164 191.074 190.164 191.75C190.164 192.417 190.038 193.011 189.787 193.531C189.544 194.042 189.202 194.441 188.76 194.727C188.318 195.013 187.807 195.156 187.226 195.156ZM186.992 194.207C187.399 194.207 187.759 194.103 188.071 193.895C188.392 193.687 188.643 193.397 188.825 193.024C189.016 192.651 189.111 192.227 189.111 191.75C189.111 191.273 189.02 190.849 188.838 190.476C188.665 190.103 188.418 189.813 188.097 189.605C187.776 189.397 187.412 189.293 187.005 189.293C186.624 189.293 186.281 189.397 185.978 189.605C185.683 189.813 185.449 190.103 185.276 190.476C185.111 190.849 185.029 191.273 185.029 191.75C185.029 192.227 185.111 192.651 185.276 193.024C185.449 193.397 185.683 193.687 185.978 193.895C186.273 194.103 186.611 194.207 186.992 194.207ZM192.178 191.477C192.178 190.775 192.313 190.207 192.581 189.774C192.85 189.332 193.192 189.007 193.608 188.799C194.033 188.582 194.479 188.474 194.947 188.474V189.449C194.566 189.449 194.198 189.514 193.842 189.644C193.496 189.765 193.21 189.969 192.984 190.255C192.759 190.541 192.646 190.931 192.646 191.425L192.178 191.477ZM191.606 195V188.5H192.646V195H191.606ZM200.458 195L200.393 193.804V188.5H201.433V195H200.458ZM195.83 192.218V188.5H196.87V191.828L195.83 192.218ZM196.87 191.828C196.87 192.469 196.944 192.959 197.091 193.297C197.238 193.635 197.442 193.869 197.702 193.999C197.971 194.12 198.27 194.181 198.599 194.181C199.162 194.181 199.6 193.977 199.912 193.57C200.233 193.163 200.393 192.595 200.393 191.867H200.9C200.9 192.552 200.8 193.141 200.601 193.635C200.402 194.129 200.111 194.506 199.73 194.766C199.357 195.026 198.902 195.156 198.365 195.156C197.576 195.156 196.952 194.913 196.493 194.428C196.042 193.943 195.821 193.206 195.83 192.218L196.87 191.828ZM207.252 195L207.187 193.934V191.568C207.187 191.057 207.126 190.636 207.005 190.307C206.892 189.969 206.715 189.718 206.472 189.553C206.238 189.38 205.926 189.293 205.536 189.293C205.163 189.293 204.838 189.367 204.561 189.514C204.292 189.661 204.071 189.891 203.898 190.203L202.962 189.826C203.135 189.523 203.343 189.258 203.586 189.033C203.829 188.808 204.11 188.639 204.431 188.526C204.76 188.405 205.133 188.344 205.549 188.344C206.147 188.344 206.645 188.461 207.044 188.695C207.443 188.929 207.742 189.28 207.941 189.748C208.14 190.207 208.236 190.784 208.227 191.477L208.214 195H207.252ZM205.302 195.156C204.539 195.156 203.941 194.983 203.508 194.636C203.083 194.281 202.871 193.791 202.871 193.167C202.871 192.508 203.088 192.006 203.521 191.659C203.963 191.304 204.578 191.126 205.367 191.126H207.226V191.997H205.601C204.994 191.997 204.561 192.097 204.301 192.296C204.05 192.495 203.924 192.781 203.924 193.154C203.924 193.492 204.05 193.761 204.301 193.96C204.552 194.151 204.903 194.246 205.354 194.246C205.727 194.246 206.052 194.159 206.329 193.986C206.606 193.813 206.819 193.579 206.966 193.284C207.113 192.981 207.187 192.638 207.187 192.257H207.824C207.824 193.141 207.607 193.847 207.174 194.376C206.741 194.896 206.117 195.156 205.302 195.156ZM210.447 191.477C210.447 190.775 210.581 190.207 210.85 189.774C211.119 189.332 211.461 189.007 211.877 188.799C212.302 188.582 212.748 188.474 213.216 188.474V189.449C212.835 189.449 212.466 189.514 212.111 189.644C211.764 189.765 211.478 189.969 211.253 190.255C211.028 190.541 210.915 190.931 210.915 191.425L210.447 191.477ZM209.875 195V188.5H210.915V195H209.875ZM214.852 197.756C214.688 197.756 214.497 197.721 214.28 197.652C214.064 197.591 213.834 197.509 213.591 197.405L213.981 196.534C214.181 196.621 214.354 196.686 214.501 196.729C214.657 196.772 214.779 196.794 214.865 196.794C215.099 196.794 215.29 196.729 215.437 196.599C215.593 196.478 215.723 196.3 215.827 196.066L216.568 194.298L218.973 188.5H220.091L216.971 195.91C216.807 196.291 216.633 196.621 216.451 196.898C216.278 197.175 216.066 197.388 215.814 197.535C215.563 197.682 215.242 197.756 214.852 197.756ZM216.282 195L213.474 188.5H214.579L216.997 194.285L217.309 195H216.282Z" fill="#7A7C7F"/>
<path d="M270 36.7374C270 34.121 272.121 32 274.737 32H300.763C303.379 32 305.5 34.121 305.5 36.7374V175H270V36.7374Z" fill="url(#paint4_linear_380_12872)"/>
<path d="M310.5 129.737C310.5 127.121 312.621 125 315.237 125H341.263C343.879 125 346 127.121 346 129.737V175H310.5V129.737Z" fill="url(#paint5_linear_380_12872)"/>
<path d="M294.999 192.413L290.891 186.342L291.333 186.108L291.853 185.9L295.532 191.347L294.999 192.413ZM290.709 195V185.9H291.814V195H290.709ZM294.999 192.413L294.466 191.347L298.145 185.9L298.665 186.108L299.094 186.329L294.999 192.413ZM298.184 195V185.9H299.276V195H298.184ZM305.408 195L305.343 193.934V191.568C305.343 191.057 305.283 190.636 305.161 190.307C305.049 189.969 304.871 189.718 304.628 189.553C304.394 189.38 304.082 189.293 303.692 189.293C303.32 189.293 302.995 189.367 302.717 189.514C302.449 189.661 302.228 189.891 302.054 190.203L301.118 189.826C301.292 189.523 301.5 189.258 301.742 189.033C301.985 188.808 302.267 188.639 302.587 188.526C302.917 188.405 303.289 188.344 303.705 188.344C304.303 188.344 304.802 188.461 305.2 188.695C305.599 188.929 305.898 189.28 306.097 189.748C306.297 190.207 306.392 190.784 306.383 191.477L306.37 195H305.408ZM303.458 195.156C302.696 195.156 302.098 194.983 301.664 194.636C301.24 194.281 301.027 193.791 301.027 193.167C301.027 192.508 301.244 192.006 301.677 191.659C302.119 191.304 302.735 191.126 303.523 191.126H305.382V191.997H303.757C303.151 191.997 302.717 192.097 302.457 192.296C302.206 192.495 302.08 192.781 302.08 193.154C302.08 193.492 302.206 193.761 302.457 193.96C302.709 194.151 303.06 194.246 303.51 194.246C303.883 194.246 304.208 194.159 304.485 193.986C304.763 193.813 304.975 193.579 305.122 193.284C305.27 192.981 305.343 192.638 305.343 192.257H305.98C305.98 193.141 305.764 193.847 305.33 194.376C304.897 194.896 304.273 195.156 303.458 195.156ZM308.603 191.477C308.603 190.775 308.737 190.207 309.006 189.774C309.275 189.332 309.617 189.007 310.033 188.799C310.458 188.582 310.904 188.474 311.372 188.474V189.449C310.991 189.449 310.622 189.514 310.267 189.644C309.92 189.765 309.634 189.969 309.409 190.255C309.184 190.541 309.071 190.931 309.071 191.425L308.603 191.477ZM308.031 195V188.5H309.071V195H308.031ZM315.323 195.156C314.681 195.156 314.114 195.013 313.62 194.727C313.126 194.432 312.74 194.029 312.463 193.518C312.185 193.007 312.047 192.417 312.047 191.75C312.047 191.083 312.181 190.493 312.45 189.982C312.727 189.471 313.113 189.072 313.607 188.786C314.101 188.491 314.664 188.344 315.297 188.344C315.921 188.344 316.48 188.487 316.974 188.773C317.468 189.059 317.845 189.462 318.105 189.982L317.156 190.411C316.982 190.064 316.731 189.796 316.402 189.605C316.072 189.406 315.695 189.306 315.271 189.306C314.846 189.306 314.469 189.41 314.14 189.618C313.819 189.826 313.563 190.116 313.373 190.489C313.191 190.853 313.1 191.273 313.1 191.75C313.1 192.227 313.191 192.651 313.373 193.024C313.563 193.388 313.823 193.674 314.153 193.882C314.491 194.09 314.872 194.194 315.297 194.194C315.721 194.194 316.098 194.086 316.428 193.869C316.766 193.652 317.021 193.349 317.195 192.959L318.144 193.388C317.884 193.943 317.507 194.376 317.013 194.688C316.519 195 315.955 195.156 315.323 195.156ZM319.457 195V185.731H320.497V195H319.457ZM324.033 195V191.672L325.073 191.282V195H324.033ZM324.033 191.672C324.033 191.031 323.955 190.541 323.799 190.203C323.652 189.865 323.448 189.635 323.188 189.514C322.928 189.384 322.633 189.319 322.304 189.319C321.732 189.319 321.286 189.523 320.965 189.93C320.653 190.329 320.497 190.896 320.497 191.633H319.99C319.99 190.948 320.09 190.359 320.289 189.865C320.488 189.371 320.779 188.994 321.16 188.734C321.541 188.474 322.001 188.344 322.538 188.344C323.318 188.344 323.938 188.587 324.397 189.072C324.856 189.557 325.082 190.294 325.073 191.282L324.033 191.672Z" fill="#7A7C7F"/>
<path d="M383 24.7374C383 22.121 385.121 20 387.738 20H413.763C416.379 20 418.5 22.121 418.5 24.7374V175H383V24.7374Z" fill="url(#paint6_linear_380_12872)"/>
<path d="M423.5 145.737C423.5 143.121 425.621 141 428.238 141H454.263C456.879 141 459 143.121 459 145.737V175H423.5V145.737Z" fill="url(#paint7_linear_380_12872)"/>
<g filter="url(#filter0_d_380_12872)">
<path d="M403 58C397.477 58 393 62.4772 393 68V116C393 121.523 397.477 126 403 126H433.5L442.784 135.284L452.069 126H479C484.523 126 489 121.523 489 116V68C489 62.4772 484.523 58 479 58H403Z" fill="#465762"/>
</g>
<path d="M411.783 88.655C411.113 88.655 410.523 88.555 410.013 88.355C409.513 88.155 409.108 87.89 408.798 87.56C408.488 87.23 408.278 86.88 408.168 86.51L409.473 86.09C409.613 86.44 409.868 86.75 410.238 87.02C410.608 87.28 411.068 87.41 411.618 87.41C412.258 87.42 412.763 87.295 413.133 87.035C413.513 86.765 413.703 86.42 413.703 86C413.703 85.61 413.538 85.29 413.208 85.04C412.878 84.78 412.448 84.585 411.918 84.455L410.838 84.185C410.398 84.065 409.998 83.895 409.638 83.675C409.288 83.445 409.013 83.16 408.813 82.82C408.613 82.48 408.513 82.075 408.513 81.605C408.513 80.745 408.793 80.07 409.353 79.58C409.923 79.09 410.738 78.845 411.798 78.845C412.408 78.845 412.938 78.945 413.388 79.145C413.838 79.335 414.208 79.59 414.498 79.91C414.788 80.23 414.993 80.575 415.113 80.945L413.793 81.395C413.653 81.015 413.398 80.705 413.028 80.465C412.658 80.215 412.213 80.09 411.693 80.09C411.143 80.09 410.708 80.22 410.388 80.48C410.078 80.74 409.923 81.09 409.923 81.53C409.923 81.93 410.048 82.235 410.298 82.445C410.548 82.655 410.873 82.81 411.273 82.91L412.383 83.18C413.263 83.39 413.943 83.75 414.423 84.26C414.903 84.77 415.143 85.325 415.143 85.925C415.143 86.445 415.013 86.91 414.753 87.32C414.493 87.73 414.113 88.055 413.613 88.295C413.123 88.535 412.513 88.655 411.783 88.655ZM411.183 90.545V77.3H412.428V90.545H411.183ZM419.006 89L419.021 79.295L419.156 78.5H420.461L420.446 89H419.006ZM416.696 81.365V80.03C416.916 80.04 417.171 79.97 417.461 79.82C417.761 79.67 418.061 79.475 418.361 79.235C418.661 78.995 418.926 78.745 419.156 78.485L420.071 79.475C419.731 79.835 419.376 80.16 419.006 80.45C418.636 80.74 418.256 80.97 417.866 81.14C417.486 81.31 417.096 81.385 416.696 81.365ZM422.651 90.725L423.521 87.455H425.066L423.806 90.725H422.651ZM429.992 89.18C429.552 89.18 429.102 89.115 428.642 88.985C428.192 88.845 427.772 88.64 427.382 88.37C426.992 88.09 426.682 87.735 426.452 87.305L427.697 86.735C428.017 87.135 428.367 87.43 428.747 87.62C429.127 87.8 429.522 87.89 429.932 87.89C430.582 87.89 431.107 87.695 431.507 87.305C431.907 86.915 432.107 86.395 432.107 85.745C432.107 85.115 431.912 84.6 431.522 84.2C431.132 83.8 430.622 83.6 429.992 83.6C429.632 83.6 429.287 83.68 428.957 83.84C428.627 83.99 428.372 84.18 428.192 84.41L426.857 84.11L427.397 78.5H433.082V79.85H427.532L427.397 78.545H428.867L428.222 84.2L427.202 84.11C427.332 83.9 427.497 83.695 427.697 83.495C427.907 83.295 428.147 83.115 428.417 82.955C428.697 82.785 428.997 82.65 429.317 82.55C429.647 82.45 429.987 82.405 430.337 82.415C430.967 82.415 431.527 82.555 432.017 82.835C432.507 83.115 432.892 83.505 433.172 84.005C433.462 84.495 433.607 85.06 433.607 85.7C433.607 86.39 433.452 86.995 433.142 87.515C432.832 88.035 432.407 88.445 431.867 88.745C431.327 89.035 430.702 89.18 429.992 89.18ZM438.859 89.18C438.079 89.18 437.404 89.06 436.834 88.82C436.264 88.57 435.819 88.23 435.499 87.8C435.189 87.36 435.034 86.85 435.034 86.27C435.034 85.66 435.189 85.125 435.499 84.665C435.819 84.195 436.264 83.83 436.834 83.57C437.404 83.31 438.079 83.185 438.859 83.195C439.649 83.185 440.329 83.31 440.899 83.57C441.469 83.83 441.909 84.195 442.219 84.665C442.539 85.125 442.699 85.66 442.699 86.27C442.699 86.85 442.539 87.36 442.219 87.8C441.909 88.23 441.469 88.57 440.899 88.82C440.329 89.06 439.649 89.18 438.859 89.18ZM438.859 87.905C439.549 87.905 440.109 87.74 440.539 87.41C440.979 87.07 441.199 86.635 441.199 86.105C441.199 85.555 440.979 85.11 440.539 84.77C440.109 84.43 439.549 84.26 438.859 84.26C438.409 84.26 438.009 84.335 437.659 84.485C437.309 84.635 437.034 84.855 436.834 85.145C436.644 85.425 436.549 85.745 436.549 86.105C436.549 86.455 436.644 86.77 436.834 87.05C437.034 87.32 437.309 87.53 437.659 87.68C438.009 87.83 438.409 87.905 438.859 87.905ZM438.859 83.945C438.169 83.945 437.564 83.83 437.044 83.6C436.524 83.36 436.119 83.035 435.829 82.625C435.549 82.205 435.409 81.72 435.409 81.17C435.409 80.61 435.549 80.115 435.829 79.685C436.119 79.255 436.524 78.92 437.044 78.68C437.564 78.44 438.169 78.32 438.859 78.32C439.559 78.32 440.169 78.44 440.689 78.68C441.209 78.92 441.609 79.255 441.889 79.685C442.179 80.115 442.324 80.61 442.324 81.17C442.324 81.72 442.179 82.205 441.889 82.625C441.609 83.035 441.209 83.36 440.689 83.6C440.169 83.83 439.559 83.945 438.859 83.945ZM438.859 82.955C439.449 82.955 439.929 82.805 440.299 82.505C440.679 82.195 440.869 81.8 440.869 81.32C440.869 80.8 440.679 80.38 440.299 80.06C439.929 79.73 439.449 79.565 438.859 79.565C438.279 79.565 437.804 79.73 437.434 80.06C437.064 80.38 436.879 80.8 436.879 81.32C436.879 81.8 437.064 82.195 437.434 82.505C437.804 82.805 438.279 82.955 438.859 82.955ZM445.148 86.075L444.068 85.43L448.808 78.5L449.738 79.34L445.148 86.075ZM444.068 86.585V85.43L444.968 85.28H452.393V86.585H444.068ZM448.913 89V79.4L448.808 78.5H450.338V89H448.913ZM454.478 89.21C454.228 89.21 454.008 89.12 453.818 88.94C453.638 88.76 453.548 88.54 453.548 88.28C453.548 88.02 453.638 87.8 453.818 87.62C454.008 87.44 454.228 87.35 454.478 87.35C454.738 87.35 454.958 87.44 455.138 87.62C455.328 87.8 455.423 88.02 455.423 88.28C455.423 88.54 455.328 88.76 455.138 88.94C454.958 89.12 454.738 89.21 454.478 89.21ZM460.715 89.18C459.935 89.18 459.26 89.06 458.69 88.82C458.12 88.57 457.675 88.23 457.355 87.8C457.045 87.36 456.89 86.85 456.89 86.27C456.89 85.66 457.045 85.125 457.355 84.665C457.675 84.195 458.12 83.83 458.69 83.57C459.26 83.31 459.935 83.185 460.715 83.195C461.505 83.185 462.185 83.31 462.755 83.57C463.325 83.83 463.765 84.195 464.075 84.665C464.395 85.125 464.555 85.66 464.555 86.27C464.555 86.85 464.395 87.36 464.075 87.8C463.765 88.23 463.325 88.57 462.755 88.82C462.185 89.06 461.505 89.18 460.715 89.18ZM460.715 87.905C461.405 87.905 461.965 87.74 462.395 87.41C462.835 87.07 463.055 86.635 463.055 86.105C463.055 85.555 462.835 85.11 462.395 84.77C461.965 84.43 461.405 84.26 460.715 84.26C460.265 84.26 459.865 84.335 459.515 84.485C459.165 84.635 458.89 84.855 458.69 85.145C458.5 85.425 458.405 85.745 458.405 86.105C458.405 86.455 458.5 86.77 458.69 87.05C458.89 87.32 459.165 87.53 459.515 87.68C459.865 87.83 460.265 87.905 460.715 87.905ZM460.715 83.945C460.025 83.945 459.42 83.83 458.9 83.6C458.38 83.36 457.975 83.035 457.685 82.625C457.405 82.205 457.265 81.72 457.265 81.17C457.265 80.61 457.405 80.115 457.685 79.685C457.975 79.255 458.38 78.92 458.9 78.68C459.42 78.44 460.025 78.32 460.715 78.32C461.415 78.32 462.025 78.44 462.545 78.68C463.065 78.92 463.465 79.255 463.745 79.685C464.035 80.115 464.18 80.61 464.18 81.17C464.18 81.72 464.035 82.205 463.745 82.625C463.465 83.035 463.065 83.36 462.545 83.6C462.025 83.83 461.415 83.945 460.715 83.945ZM460.715 82.955C461.305 82.955 461.785 82.805 462.155 82.505C462.535 82.195 462.725 81.8 462.725 81.32C462.725 80.8 462.535 80.38 462.155 80.06C461.785 79.73 461.305 79.565 460.715 79.565C460.135 79.565 459.66 79.73 459.29 80.06C458.92 80.38 458.735 80.8 458.735 81.32C458.735 81.8 458.92 82.195 459.29 82.505C459.66 82.805 460.135 82.955 460.715 82.955ZM469.929 89.18C469.149 89.18 468.474 89.06 467.904 88.82C467.334 88.57 466.889 88.23 466.569 87.8C466.259 87.36 466.104 86.85 466.104 86.27C466.104 85.66 466.259 85.125 466.569 84.665C466.889 84.195 467.334 83.83 467.904 83.57C468.474 83.31 469.149 83.185 469.929 83.195C470.719 83.185 471.399 83.31 471.969 83.57C472.539 83.83 472.979 84.195 473.289 84.665C473.609 85.125 473.769 85.66 473.769 86.27C473.769 86.85 473.609 87.36 473.289 87.8C472.979 88.23 472.539 88.57 471.969 88.82C471.399 89.06 470.719 89.18 469.929 89.18ZM469.929 87.905C470.619 87.905 471.179 87.74 471.609 87.41C472.049 87.07 472.269 86.635 472.269 86.105C472.269 85.555 472.049 85.11 471.609 84.77C471.179 84.43 470.619 84.26 469.929 84.26C469.479 84.26 469.079 84.335 468.729 84.485C468.379 84.635 468.104 84.855 467.904 85.145C467.714 85.425 467.619 85.745 467.619 86.105C467.619 86.455 467.714 86.77 467.904 87.05C468.104 87.32 468.379 87.53 468.729 87.68C469.079 87.83 469.479 87.905 469.929 87.905ZM469.929 83.945C469.239 83.945 468.634 83.83 468.114 83.6C467.594 83.36 467.189 83.035 466.899 82.625C466.619 82.205 466.479 81.72 466.479 81.17C466.479 80.61 466.619 80.115 466.899 79.685C467.189 79.255 467.594 78.92 468.114 78.68C468.634 78.44 469.239 78.32 469.929 78.32C470.629 78.32 471.239 78.44 471.759 78.68C472.279 78.92 472.679 79.255 472.959 79.685C473.249 80.115 473.394 80.61 473.394 81.17C473.394 81.72 473.249 82.205 472.959 82.625C472.679 83.035 472.279 83.36 471.759 83.6C471.239 83.83 470.629 83.945 469.929 83.945ZM469.929 82.955C470.519 82.955 470.999 82.805 471.369 82.505C471.749 82.195 471.939 81.8 471.939 81.32C471.939 80.8 471.749 80.38 471.369 80.06C470.999 79.73 470.519 79.565 469.929 79.565C469.349 79.565 468.874 79.73 468.504 80.06C468.134 80.38 467.949 80.8 467.949 81.32C467.949 81.8 468.134 82.195 468.504 82.505C468.874 82.805 469.349 82.955 469.929 82.955Z" fill="white"/>
<g filter="url(#filter1_d_380_12872)">
<path d="M422.523 108L419.432 100.3H420.367L423.502 108H422.523ZM416.264 108L419.399 100.3H420.345L417.254 108H416.264ZM417.749 105.811V104.975H422.028V105.811H417.749ZM424.434 110.2V102.5H425.259L425.314 103.512V110.2H424.434ZM427.173 108.132C426.711 108.132 426.304 108.011 425.952 107.769C425.607 107.527 425.34 107.19 425.149 106.757C424.958 106.317 424.863 105.815 424.863 105.25C424.863 104.678 424.958 104.176 425.149 103.743C425.34 103.31 425.607 102.973 425.952 102.731C426.304 102.489 426.711 102.368 427.173 102.368C427.664 102.368 428.097 102.489 428.471 102.731C428.845 102.973 429.135 103.31 429.34 103.743C429.553 104.176 429.659 104.678 429.659 105.25C429.659 105.815 429.553 106.317 429.34 106.757C429.135 107.19 428.845 107.527 428.471 107.769C428.097 108.011 427.664 108.132 427.173 108.132ZM426.975 107.329C427.32 107.329 427.624 107.241 427.888 107.065C428.159 106.889 428.372 106.643 428.526 106.328C428.687 106.013 428.768 105.653 428.768 105.25C428.768 104.847 428.691 104.487 428.537 104.172C428.39 103.857 428.181 103.611 427.91 103.435C427.639 103.259 427.331 103.171 426.986 103.171C426.663 103.171 426.374 103.259 426.117 103.435C425.868 103.611 425.67 103.857 425.523 104.172C425.384 104.487 425.314 104.847 425.314 105.25C425.314 105.653 425.384 106.013 425.523 106.328C425.67 106.643 425.868 106.889 426.117 107.065C426.366 107.241 426.652 107.329 426.975 107.329ZM431.362 105.019C431.362 104.425 431.476 103.945 431.703 103.578C431.93 103.204 432.22 102.929 432.572 102.753C432.931 102.57 433.309 102.478 433.705 102.478V103.303C433.382 103.303 433.071 103.358 432.77 103.468C432.477 103.571 432.235 103.743 432.044 103.985C431.853 104.227 431.758 104.557 431.758 104.975L431.362 105.019ZM430.878 108V102.5H431.758V108H430.878ZM434.65 108L434.672 102.5H435.552L435.53 108H434.65ZM435.101 101.224C434.954 101.224 434.826 101.169 434.716 101.059C434.606 100.949 434.551 100.821 434.551 100.674C434.551 100.52 434.606 100.392 434.716 100.289C434.826 100.179 434.954 100.124 435.101 100.124C435.255 100.124 435.383 100.179 435.486 100.289C435.596 100.392 435.651 100.52 435.651 100.674C435.651 100.821 435.596 100.949 435.486 101.059C435.383 101.169 435.255 101.224 435.101 101.224ZM437.151 108V100.3H438.031V108H437.151ZM443.067 107.461L442.143 107.23C442.143 106.988 442.191 106.75 442.286 106.515C442.389 106.273 442.532 106.035 442.715 105.8C442.906 105.565 443.137 105.345 443.408 105.14L445.003 103.941C445.194 103.809 445.359 103.659 445.498 103.49C445.645 103.314 445.759 103.134 445.839 102.951C445.92 102.76 445.96 102.577 445.96 102.401C445.96 102.144 445.898 101.913 445.773 101.708C445.649 101.495 445.473 101.327 445.245 101.202C445.018 101.077 444.75 101.015 444.442 101.015C444.142 101.015 443.878 101.074 443.65 101.191C443.423 101.301 443.236 101.451 443.089 101.642C442.943 101.825 442.836 102.023 442.77 102.236L441.824 102.049C441.912 101.719 442.07 101.411 442.297 101.125C442.532 100.839 442.829 100.608 443.188 100.432C443.548 100.256 443.947 100.168 444.387 100.168C444.901 100.168 445.344 100.267 445.718 100.465C446.092 100.656 446.382 100.92 446.587 101.257C446.8 101.587 446.906 101.965 446.906 102.39C446.906 102.793 446.796 103.175 446.576 103.534C446.356 103.893 446.037 104.242 445.619 104.579L444.112 105.723C443.9 105.877 443.713 106.046 443.551 106.229C443.397 106.412 443.276 106.607 443.188 106.812C443.108 107.01 443.067 107.226 443.067 107.461ZM442.143 108V107.23L442.847 107.175H447.016V108H442.143ZM451.181 108.132C450.594 108.132 450.073 107.963 449.619 107.626C449.164 107.281 448.808 106.812 448.552 106.218C448.295 105.617 448.167 104.927 448.167 104.15C448.167 103.373 448.295 102.687 448.552 102.093C448.808 101.492 449.16 101.022 449.608 100.685C450.062 100.34 450.587 100.168 451.181 100.168C451.775 100.168 452.295 100.34 452.743 100.685C453.197 101.022 453.553 101.492 453.81 102.093C454.074 102.687 454.206 103.373 454.206 104.15C454.206 104.927 454.077 105.617 453.821 106.218C453.564 106.812 453.208 107.281 452.754 107.626C452.299 107.963 451.775 108.132 451.181 108.132ZM451.181 107.296C451.591 107.296 451.954 107.16 452.27 106.889C452.592 106.618 452.842 106.247 453.018 105.778C453.201 105.309 453.293 104.766 453.293 104.15C453.293 103.534 453.201 102.991 453.018 102.522C452.842 102.045 452.592 101.675 452.27 101.411C451.954 101.14 451.591 101.004 451.181 101.004C450.77 101.004 450.407 101.14 450.092 101.411C449.776 101.675 449.527 102.045 449.344 102.522C449.168 102.991 449.08 103.534 449.08 104.15C449.08 104.766 449.168 105.309 449.344 105.778C449.527 106.247 449.776 106.618 450.092 106.889C450.414 107.16 450.777 107.296 451.181 107.296ZM456.259 107.461L455.335 107.23C455.335 106.988 455.382 106.75 455.478 106.515C455.58 106.273 455.723 106.035 455.907 105.8C456.097 105.565 456.328 105.345 456.6 105.14L458.195 103.941C458.385 103.809 458.55 103.659 458.69 103.49C458.836 103.314 458.95 103.134 459.031 102.951C459.111 102.76 459.152 102.577 459.152 102.401C459.152 102.144 459.089 101.913 458.965 101.708C458.84 101.495 458.664 101.327 458.437 101.202C458.209 101.077 457.942 101.015 457.634 101.015C457.333 101.015 457.069 101.074 456.842 101.191C456.614 101.301 456.427 101.451 456.281 101.642C456.134 101.825 456.028 102.023 455.962 102.236L455.016 102.049C455.104 101.719 455.261 101.411 455.489 101.125C455.723 100.839 456.02 100.608 456.38 100.432C456.739 100.256 457.139 100.168 457.579 100.168C458.092 100.168 458.536 100.267 458.91 100.465C459.284 100.656 459.573 100.92 459.779 101.257C459.991 101.587 460.098 101.965 460.098 102.39C460.098 102.793 459.988 103.175 459.768 103.534C459.548 103.893 459.229 104.242 458.811 104.579L457.304 105.723C457.091 105.877 456.904 106.046 456.743 106.229C456.589 106.412 456.468 106.607 456.38 106.812C456.299 107.01 456.259 107.226 456.259 107.461ZM455.335 108V107.23L456.039 107.175H460.208V108H455.335ZM463.811 108.132C463.437 108.132 463.096 108.077 462.788 107.967C462.488 107.85 462.227 107.699 462.007 107.516C461.795 107.333 461.626 107.138 461.501 106.933L462.271 106.504C462.352 106.607 462.451 106.724 462.568 106.856C462.693 106.981 462.851 107.087 463.041 107.175C463.232 107.263 463.467 107.307 463.745 107.307C464.244 107.307 464.644 107.164 464.944 106.878C465.245 106.592 465.395 106.233 465.395 105.8C465.395 105.47 465.304 105.191 465.12 104.964C464.944 104.737 464.688 104.564 464.35 104.447C464.013 104.33 463.61 104.271 463.14 104.271H462.931V103.545H463.118C463.58 103.545 464.006 103.596 464.394 103.699C464.783 103.802 465.12 103.952 465.406 104.15C465.7 104.348 465.923 104.59 466.077 104.876C466.239 105.162 466.319 105.492 466.319 105.866C466.319 106.321 466.206 106.72 465.978 107.065C465.758 107.402 465.458 107.666 465.076 107.857C464.695 108.04 464.273 108.132 463.811 108.132ZM462.931 104.194V103.479H463.14C463.771 103.479 464.27 103.373 464.636 103.16C465.01 102.94 465.197 102.628 465.197 102.225C465.197 102.005 465.139 101.803 465.021 101.62C464.904 101.429 464.732 101.279 464.504 101.169C464.284 101.052 464.028 100.993 463.734 100.993C463.536 100.993 463.349 101.022 463.173 101.081C463.005 101.132 462.847 101.213 462.7 101.323C462.561 101.426 462.433 101.558 462.315 101.719L461.589 101.301C461.729 101.074 461.905 100.876 462.117 100.707C462.337 100.538 462.587 100.406 462.865 100.311C463.144 100.216 463.448 100.168 463.778 100.168C464.226 100.168 464.625 100.256 464.977 100.432C465.337 100.608 465.619 100.85 465.824 101.158C466.03 101.459 466.132 101.8 466.132 102.181C466.132 102.504 466.055 102.79 465.901 103.039C465.747 103.288 465.531 103.501 465.252 103.677C464.981 103.853 464.662 103.985 464.295 104.073C463.936 104.154 463.544 104.194 463.118 104.194H462.931Z" fill="#465762"/>
<path d="M422.523 108L419.432 100.3H420.367L423.502 108H422.523ZM416.264 108L419.399 100.3H420.345L417.254 108H416.264ZM417.749 105.811V104.975H422.028V105.811H417.749ZM424.434 110.2V102.5H425.259L425.314 103.512V110.2H424.434ZM427.173 108.132C426.711 108.132 426.304 108.011 425.952 107.769C425.607 107.527 425.34 107.19 425.149 106.757C424.958 106.317 424.863 105.815 424.863 105.25C424.863 104.678 424.958 104.176 425.149 103.743C425.34 103.31 425.607 102.973 425.952 102.731C426.304 102.489 426.711 102.368 427.173 102.368C427.664 102.368 428.097 102.489 428.471 102.731C428.845 102.973 429.135 103.31 429.34 103.743C429.553 104.176 429.659 104.678 429.659 105.25C429.659 105.815 429.553 106.317 429.34 106.757C429.135 107.19 428.845 107.527 428.471 107.769C428.097 108.011 427.664 108.132 427.173 108.132ZM426.975 107.329C427.32 107.329 427.624 107.241 427.888 107.065C428.159 106.889 428.372 106.643 428.526 106.328C428.687 106.013 428.768 105.653 428.768 105.25C428.768 104.847 428.691 104.487 428.537 104.172C428.39 103.857 428.181 103.611 427.91 103.435C427.639 103.259 427.331 103.171 426.986 103.171C426.663 103.171 426.374 103.259 426.117 103.435C425.868 103.611 425.67 103.857 425.523 104.172C425.384 104.487 425.314 104.847 425.314 105.25C425.314 105.653 425.384 106.013 425.523 106.328C425.67 106.643 425.868 106.889 426.117 107.065C426.366 107.241 426.652 107.329 426.975 107.329ZM431.362 105.019C431.362 104.425 431.476 103.945 431.703 103.578C431.93 103.204 432.22 102.929 432.572 102.753C432.931 102.57 433.309 102.478 433.705 102.478V103.303C433.382 103.303 433.071 103.358 432.77 103.468C432.477 103.571 432.235 103.743 432.044 103.985C431.853 104.227 431.758 104.557 431.758 104.975L431.362 105.019ZM430.878 108V102.5H431.758V108H430.878ZM434.65 108L434.672 102.5H435.552L435.53 108H434.65ZM435.101 101.224C434.954 101.224 434.826 101.169 434.716 101.059C434.606 100.949 434.551 100.821 434.551 100.674C434.551 100.52 434.606 100.392 434.716 100.289C434.826 100.179 434.954 100.124 435.101 100.124C435.255 100.124 435.383 100.179 435.486 100.289C435.596 100.392 435.651 100.52 435.651 100.674C435.651 100.821 435.596 100.949 435.486 101.059C435.383 101.169 435.255 101.224 435.101 101.224ZM437.151 108V100.3H438.031V108H437.151ZM443.067 107.461L442.143 107.23C442.143 106.988 442.191 106.75 442.286 106.515C442.389 106.273 442.532 106.035 442.715 105.8C442.906 105.565 443.137 105.345 443.408 105.14L445.003 103.941C445.194 103.809 445.359 103.659 445.498 103.49C445.645 103.314 445.759 103.134 445.839 102.951C445.92 102.76 445.96 102.577 445.96 102.401C445.96 102.144 445.898 101.913 445.773 101.708C445.649 101.495 445.473 101.327 445.245 101.202C445.018 101.077 444.75 101.015 444.442 101.015C444.142 101.015 443.878 101.074 443.65 101.191C443.423 101.301 443.236 101.451 443.089 101.642C442.943 101.825 442.836 102.023 442.77 102.236L441.824 102.049C441.912 101.719 442.07 101.411 442.297 101.125C442.532 100.839 442.829 100.608 443.188 100.432C443.548 100.256 443.947 100.168 444.387 100.168C444.901 100.168 445.344 100.267 445.718 100.465C446.092 100.656 446.382 100.92 446.587 101.257C446.8 101.587 446.906 101.965 446.906 102.39C446.906 102.793 446.796 103.175 446.576 103.534C446.356 103.893 446.037 104.242 445.619 104.579L444.112 105.723C443.9 105.877 443.713 106.046 443.551 106.229C443.397 106.412 443.276 106.607 443.188 106.812C443.108 107.01 443.067 107.226 443.067 107.461ZM442.143 108V107.23L442.847 107.175H447.016V108H442.143ZM451.181 108.132C450.594 108.132 450.073 107.963 449.619 107.626C449.164 107.281 448.808 106.812 448.552 106.218C448.295 105.617 448.167 104.927 448.167 104.15C448.167 103.373 448.295 102.687 448.552 102.093C448.808 101.492 449.16 101.022 449.608 100.685C450.062 100.34 450.587 100.168 451.181 100.168C451.775 100.168 452.295 100.34 452.743 100.685C453.197 101.022 453.553 101.492 453.81 102.093C454.074 102.687 454.206 103.373 454.206 104.15C454.206 104.927 454.077 105.617 453.821 106.218C453.564 106.812 453.208 107.281 452.754 107.626C452.299 107.963 451.775 108.132 451.181 108.132ZM451.181 107.296C451.591 107.296 451.954 107.16 452.27 106.889C452.592 106.618 452.842 106.247 453.018 105.778C453.201 105.309 453.293 104.766 453.293 104.15C453.293 103.534 453.201 102.991 453.018 102.522C452.842 102.045 452.592 101.675 452.27 101.411C451.954 101.14 451.591 101.004 451.181 101.004C450.77 101.004 450.407 101.14 450.092 101.411C449.776 101.675 449.527 102.045 449.344 102.522C449.168 102.991 449.08 103.534 449.08 104.15C449.08 104.766 449.168 105.309 449.344 105.778C449.527 106.247 449.776 106.618 450.092 106.889C450.414 107.16 450.777 107.296 451.181 107.296ZM456.259 107.461L455.335 107.23C455.335 106.988 455.382 106.75 455.478 106.515C455.58 106.273 455.723 106.035 455.907 105.8C456.097 105.565 456.328 105.345 456.6 105.14L458.195 103.941C458.385 103.809 458.55 103.659 458.69 103.49C458.836 103.314 458.95 103.134 459.031 102.951C459.111 102.76 459.152 102.577 459.152 102.401C459.152 102.144 459.089 101.913 458.965 101.708C458.84 101.495 458.664 101.327 458.437 101.202C458.209 101.077 457.942 101.015 457.634 101.015C457.333 101.015 457.069 101.074 456.842 101.191C456.614 101.301 456.427 101.451 456.281 101.642C456.134 101.825 456.028 102.023 455.962 102.236L455.016 102.049C455.104 101.719 455.261 101.411 455.489 101.125C455.723 100.839 456.02 100.608 456.38 100.432C456.739 100.256 457.139 100.168 457.579 100.168C458.092 100.168 458.536 100.267 458.91 100.465C459.284 100.656 459.573 100.92 459.779 101.257C459.991 101.587 460.098 101.965 460.098 102.39C460.098 102.793 459.988 103.175 459.768 103.534C459.548 103.893 459.229 104.242 458.811 104.579L457.304 105.723C457.091 105.877 456.904 106.046 456.743 106.229C456.589 106.412 456.468 106.607 456.38 106.812C456.299 107.01 456.259 107.226 456.259 107.461ZM455.335 108V107.23L456.039 107.175H460.208V108H455.335ZM463.811 108.132C463.437 108.132 463.096 108.077 462.788 107.967C462.488 107.85 462.227 107.699 462.007 107.516C461.795 107.333 461.626 107.138 461.501 106.933L462.271 106.504C462.352 106.607 462.451 106.724 462.568 106.856C462.693 106.981 462.851 107.087 463.041 107.175C463.232 107.263 463.467 107.307 463.745 107.307C464.244 107.307 464.644 107.164 464.944 106.878C465.245 106.592 465.395 106.233 465.395 105.8C465.395 105.47 465.304 105.191 465.12 104.964C464.944 104.737 464.688 104.564 464.35 104.447C464.013 104.33 463.61 104.271 463.14 104.271H462.931V103.545H463.118C463.58 103.545 464.006 103.596 464.394 103.699C464.783 103.802 465.12 103.952 465.406 104.15C465.7 104.348 465.923 104.59 466.077 104.876C466.239 105.162 466.319 105.492 466.319 105.866C466.319 106.321 466.206 106.72 465.978 107.065C465.758 107.402 465.458 107.666 465.076 107.857C464.695 108.04 464.273 108.132 463.811 108.132ZM462.931 104.194V103.479H463.14C463.771 103.479 464.27 103.373 464.636 103.16C465.01 102.94 465.197 102.628 465.197 102.225C465.197 102.005 465.139 101.803 465.021 101.62C464.904 101.429 464.732 101.279 464.504 101.169C464.284 101.052 464.028 100.993 463.734 100.993C463.536 100.993 463.349 101.022 463.173 101.081C463.005 101.132 462.847 101.213 462.7 101.323C462.561 101.426 462.433 101.558 462.315 101.719L461.589 101.301C461.729 101.074 461.905 100.876 462.117 100.707C462.337 100.538 462.587 100.406 462.865 100.311C463.144 100.216 463.448 100.168 463.778 100.168C464.226 100.168 464.625 100.256 464.977 100.432C465.337 100.608 465.619 100.85 465.824 101.158C466.03 101.459 466.132 101.8 466.132 102.181C466.132 102.504 466.055 102.79 465.901 103.039C465.747 103.288 465.531 103.501 465.252 103.677C464.981 103.853 464.662 103.985 464.295 104.073C463.936 104.154 463.544 104.194 463.118 104.194H462.931Z" fill="white" fill-opacity="0.6"/>
</g>
<path d="M415.014 195L411.361 185.9H412.466L416.171 195H415.014ZM407.617 195L411.322 185.9H412.44L408.787 195H407.617ZM409.372 192.413V191.425H414.429V192.413H409.372ZM417.273 197.6V188.5H418.248L418.313 189.696V197.6H417.273ZM420.51 195.156C419.964 195.156 419.483 195.013 419.067 194.727C418.66 194.441 418.343 194.042 418.118 193.531C417.893 193.011 417.78 192.417 417.78 191.75C417.78 191.074 417.893 190.48 418.118 189.969C418.343 189.458 418.66 189.059 419.067 188.773C419.483 188.487 419.964 188.344 420.51 188.344C421.091 188.344 421.602 188.487 422.044 188.773C422.486 189.059 422.828 189.458 423.071 189.969C423.322 190.48 423.448 191.074 423.448 191.75C423.448 192.417 423.322 193.011 423.071 193.531C422.828 194.042 422.486 194.441 422.044 194.727C421.602 195.013 421.091 195.156 420.51 195.156ZM420.276 194.207C420.683 194.207 421.043 194.103 421.355 193.895C421.676 193.687 421.927 193.397 422.109 193.024C422.3 192.651 422.395 192.227 422.395 191.75C422.395 191.273 422.304 190.849 422.122 190.476C421.949 190.103 421.702 189.813 421.381 189.605C421.06 189.397 420.696 189.293 420.289 189.293C419.908 189.293 419.565 189.397 419.262 189.605C418.967 189.813 418.733 190.103 418.56 190.476C418.395 190.849 418.313 191.273 418.313 191.75C418.313 192.227 418.395 192.651 418.56 193.024C418.733 193.397 418.967 193.687 419.262 193.895C419.557 194.103 419.895 194.207 420.276 194.207ZM425.461 191.477C425.461 190.775 425.595 190.207 425.864 189.774C426.132 189.332 426.475 189.007 426.891 188.799C427.315 188.582 427.762 188.474 428.23 188.474V189.449C427.848 189.449 427.48 189.514 427.125 189.644C426.778 189.765 426.492 189.969 426.267 190.255C426.041 190.541 425.929 190.931 425.929 191.425L425.461 191.477ZM424.889 195V188.5H425.929V195H424.889ZM429.346 195L429.372 188.5H430.412L430.386 195H429.346ZM429.879 186.992C429.706 186.992 429.554 186.927 429.424 186.797C429.294 186.667 429.229 186.515 429.229 186.342C429.229 186.16 429.294 186.008 429.424 185.887C429.554 185.757 429.706 185.692 429.879 185.692C430.061 185.692 430.213 185.757 430.334 185.887C430.464 186.008 430.529 186.16 430.529 186.342C430.529 186.515 430.464 186.667 430.334 186.797C430.213 186.927 430.061 186.992 429.879 186.992ZM432.303 195V185.9H433.343V195H432.303Z" fill="#7A7C7F"/>
<path d="M496 48.2737C496 45.6573 498.121 43.5363 500.738 43.5363H526.763C529.379 43.5363 531.5 45.6573 531.5 48.2737V175H496V48.2737Z" fill="url(#paint8_linear_380_12872)"/>
<path d="M536.5 101.737C536.5 99.121 538.621 97 541.238 97H567.263C569.879 97 572 99.121 572 101.737V175H536.5V101.737Z" fill="url(#paint9_linear_380_12872)"/>
<path d="M526.999 192.413L522.891 186.342L523.333 186.108L523.853 185.9L527.532 191.347L526.999 192.413ZM522.709 195V185.9H523.814V195H522.709ZM526.999 192.413L526.466 191.347L530.145 185.9L530.665 186.108L531.094 186.329L526.999 192.413ZM530.184 195V185.9H531.276V195H530.184ZM537.408 195L537.343 193.934V191.568C537.343 191.057 537.283 190.636 537.161 190.307C537.049 189.969 536.871 189.718 536.628 189.553C536.394 189.38 536.082 189.293 535.692 189.293C535.32 189.293 534.995 189.367 534.717 189.514C534.449 189.661 534.228 189.891 534.054 190.203L533.118 189.826C533.292 189.523 533.5 189.258 533.742 189.033C533.985 188.808 534.267 188.639 534.587 188.526C534.917 188.405 535.289 188.344 535.705 188.344C536.303 188.344 536.802 188.461 537.2 188.695C537.599 188.929 537.898 189.28 538.097 189.748C538.297 190.207 538.392 190.784 538.383 191.477L538.37 195H537.408ZM535.458 195.156C534.696 195.156 534.098 194.983 533.664 194.636C533.24 194.281 533.027 193.791 533.027 193.167C533.027 192.508 533.244 192.006 533.677 191.659C534.119 191.304 534.735 191.126 535.523 191.126H537.382V191.997H535.757C535.151 191.997 534.717 192.097 534.457 192.296C534.206 192.495 534.08 192.781 534.08 193.154C534.08 193.492 534.206 193.761 534.457 193.96C534.709 194.151 535.06 194.246 535.51 194.246C535.883 194.246 536.208 194.159 536.485 193.986C536.763 193.813 536.975 193.579 537.122 193.284C537.27 192.981 537.343 192.638 537.343 192.257H537.98C537.98 193.141 537.764 193.847 537.33 194.376C536.897 194.896 536.273 195.156 535.458 195.156ZM540.515 197.756C540.35 197.756 540.159 197.721 539.943 197.652C539.726 197.591 539.496 197.509 539.254 197.405L539.644 196.534C539.843 196.621 540.016 196.686 540.164 196.729C540.32 196.772 540.441 196.794 540.528 196.794C540.762 196.794 540.952 196.729 541.1 196.599C541.256 196.478 541.386 196.3 541.49 196.066L542.231 194.298L544.636 188.5H545.754L542.634 195.91C542.469 196.291 542.296 196.621 542.114 196.898C541.94 197.175 541.728 197.388 541.477 197.535C541.225 197.682 540.905 197.756 540.515 197.756ZM541.945 195L539.137 188.5H540.242L542.66 194.285L542.972 195H541.945Z" fill="#7A7C7F"/>
<path d="M609 101.737C609 99.121 611.121 97 613.738 97H639.763C642.379 97 644.5 99.121 644.5 101.737V175H609V101.737Z" fill="url(#paint10_linear_380_12872)"/>
<path d="M649.5 80.7374C649.5 78.121 651.621 76 654.238 76H680.263C682.879 76 685 78.121 685 80.7374V175H649.5V80.7374Z" fill="url(#paint11_linear_380_12872)"/>
<path d="M635.061 195.156C634.749 195.156 634.459 195.108 634.19 195.013C633.93 194.926 633.696 194.809 633.488 194.662C633.28 194.506 633.103 194.333 632.955 194.142C632.808 193.943 632.687 193.739 632.591 193.531L633.423 193.05C633.605 193.371 633.826 193.635 634.086 193.843C634.355 194.051 634.684 194.155 635.074 194.155C635.386 194.155 635.69 194.081 635.984 193.934C636.288 193.787 636.535 193.54 636.725 193.193C636.916 192.846 637.011 192.391 637.011 191.828V185.9H638.103V192.257C638.103 192.734 638.017 193.154 637.843 193.518C637.679 193.882 637.449 194.185 637.154 194.428C636.868 194.671 636.543 194.853 636.179 194.974C635.815 195.095 635.443 195.156 635.061 195.156ZM644.56 195L644.495 193.804V188.5H645.535V195H644.56ZM639.932 192.218V188.5H640.972V191.828L639.932 192.218ZM640.972 191.828C640.972 192.469 641.045 192.959 641.193 193.297C641.34 193.635 641.544 193.869 641.804 193.999C642.072 194.12 642.371 194.181 642.701 194.181C643.264 194.181 643.702 193.977 644.014 193.57C644.334 193.163 644.495 192.595 644.495 191.867H645.002C645.002 192.552 644.902 193.141 644.703 193.635C644.503 194.129 644.213 194.506 643.832 194.766C643.459 195.026 643.004 195.156 642.467 195.156C641.678 195.156 641.054 194.913 640.595 194.428C640.144 193.943 639.923 193.206 639.932 192.218L640.972 191.828ZM647.35 195V188.5H648.325L648.39 189.696V195H647.35ZM651.913 195V191.672L652.953 191.282V195H651.913ZM651.913 191.672C651.913 191.031 651.839 190.541 651.692 190.203C651.544 189.865 651.341 189.635 651.081 189.514C650.821 189.384 650.526 189.319 650.197 189.319C649.625 189.319 649.178 189.523 648.858 189.93C648.546 190.329 648.39 190.896 648.39 191.633H647.883C647.883 190.948 647.982 190.359 648.182 189.865C648.381 189.371 648.667 188.994 649.04 188.734C649.421 188.474 649.88 188.344 650.418 188.344C651.206 188.344 651.826 188.587 652.277 189.072C652.736 189.557 652.961 190.294 652.953 191.282L651.913 191.672ZM657.446 195.156C656.813 195.156 656.254 195.013 655.769 194.727C655.283 194.432 654.902 194.029 654.625 193.518C654.356 193.007 654.222 192.417 654.222 191.75C654.222 191.083 654.356 190.493 654.625 189.982C654.902 189.471 655.279 189.072 655.756 188.786C656.241 188.491 656.796 188.344 657.42 188.344C658.018 188.344 658.538 188.496 658.98 188.799C659.43 189.094 659.777 189.51 660.02 190.047C660.262 190.584 660.384 191.217 660.384 191.945H659.344C659.344 191.39 659.27 190.918 659.123 190.528C658.975 190.129 658.754 189.822 658.46 189.605C658.174 189.388 657.823 189.28 657.407 189.28C656.982 189.28 656.605 189.384 656.276 189.592C655.955 189.791 655.708 190.077 655.535 190.45C655.361 190.823 655.275 191.26 655.275 191.763C655.275 192.257 655.37 192.686 655.561 193.05C655.751 193.405 656.016 193.687 656.354 193.895C656.692 194.094 657.073 194.194 657.498 194.194C657.948 194.194 658.33 194.086 658.642 193.869C658.954 193.652 659.201 193.371 659.383 193.024L660.293 193.479C660.128 193.817 659.907 194.112 659.63 194.363C659.361 194.614 659.04 194.809 658.668 194.948C658.304 195.087 657.896 195.156 657.446 195.156ZM654.911 191.945L654.924 191.048H659.747V191.945H654.911Z" fill="#7A7C7F"/>
<defs>
<filter id="filter0_d_380_12872" x="377" y="50" width="128" height="109.284" filterUnits="userSpaceOnUse" color-interpolation-filters="sRGB">
<feFlood flood-opacity="0" result="BackgroundImageFix"/>
<feColorMatrix in="SourceAlpha" type="matrix" values="0 0 0 0 0 0 0 0 0 0 0 0 0 0 0 0 0 0 127 0" result="hardAlpha"/>
<feOffset dy="8"/>
<feGaussianBlur stdDeviation="8"/>
<feColorMatrix type="matrix" values="0 0 0 0 0 0 0 0 0 0 0 0 0 0 0 0 0 0 0.06 0"/>
<feBlend mode="normal" in2="BackgroundImageFix" result="effect1_dropShadow_380_12872"/>
<feBlend mode="normal" in="SourceGraphic" in2="effect1_dropShadow_380_12872" result="shape"/>
</filter>
<filter id="filter1_d_380_12872" x="412.264" y="100.124" width="58.0555" height="18.076" filterUnits="userSpaceOnUse" color-interpolation-filters="sRGB">
<feFlood flood-opacity="0" result="BackgroundImageFix"/>
<feColorMatrix in="SourceAlpha" type="matrix" values="0 0 0 0 0 0 0 0 0 0 0 0 0 0 0 0 0 0 127 0" result="hardAlpha"/>
<feOffset dy="4"/>
<feGaussianBlur stdDeviation="2"/>
<feColorMatrix type="matrix" values="0 0 0 0 0 0 0 0 0 0 0 0 0 0 0 0 0 0 0.25 0"/>
<feBlend mode="normal" in2="BackgroundImageFix" result="effect1_dropShadow_380_12872"/>
<feBlend mode="normal" in="SourceGraphic" in2="effect1_dropShadow_380_12872" result="shape"/>
</filter>
<linearGradient id="paint0_linear_380_12872" x1="44" y1="175" x2="111.461" y2="159.549" gradientUnits="userSpaceOnUse">
<stop stop-color="#5655D7"/>
<stop offset="1" stop-color="#7F7EFF"/>
</linearGradient>
<linearGradient id="paint1_linear_380_12872" x1="84.5" y1="175" x2="149.224" y2="154.845" gradientUnits="userSpaceOnUse">
<stop stop-color="#4ABDE8"/>
<stop offset="1" stop-color="#77DAFF"/>
</linearGradient>
<linearGradient id="paint2_linear_380_12872" x1="157" y1="175" x2="222.541" y2="156.084" gradientUnits="userSpaceOnUse">
<stop stop-color="#5655D7"/>
<stop offset="1" stop-color="#7F7EFF"/>
</linearGradient>
<linearGradient id="paint3_linear_380_12872" x1="197.5" y1="175" x2="217.201" y2="143.209" gradientUnits="userSpaceOnUse">
<stop stop-color="#4ABDE8"/>
<stop offset="1" stop-color="#77DAFF"/>
</linearGradient>
<linearGradient id="paint4_linear_380_12872" x1="270" y1="175" x2="336.878" y2="158.397" gradientUnits="userSpaceOnUse">
<stop stop-color="#5655D7"/>
<stop offset="1" stop-color="#7F7EFF"/>
</linearGradient>
<linearGradient id="paint5_linear_380_12872" x1="310.5" y1="175" x2="357.704" y2="141.485" gradientUnits="userSpaceOnUse">
<stop stop-color="#4ABDE8"/>
<stop offset="1" stop-color="#77DAFF"/>
</linearGradient>
<linearGradient id="paint6_linear_380_12872" x1="383" y1="175" x2="450.461" y2="159.549" gradientUnits="userSpaceOnUse">
<stop stop-color="#5655D7"/>
<stop offset="1" stop-color="#7F7EFF"/>
</linearGradient>
<linearGradient id="paint7_linear_380_12872" x1="423.5" y1="175" x2="457.468" y2="139.533" gradientUnits="userSpaceOnUse">
<stop stop-color="#4ABDE8"/>
<stop offset="1" stop-color="#77DAFF"/>
</linearGradient>
<linearGradient id="paint8_linear_380_12872" x1="496" y1="175" x2="562.175" y2="157.13" gradientUnits="userSpaceOnUse">
<stop stop-color="#5655D7"/>
<stop offset="1" stop-color="#7F7EFF"/>
</linearGradient>
<linearGradient id="paint9_linear_380_12872" x1="536.5" y1="175" x2="595.317" y2="148.231" gradientUnits="userSpaceOnUse">
<stop stop-color="#4ABDE8"/>
<stop offset="1" stop-color="#77DAFF"/>
</linearGradient>
<linearGradient id="paint10_linear_380_12872" x1="609" y1="175" x2="667.817" y2="148.231" gradientUnits="userSpaceOnUse">
<stop stop-color="#5655D7"/>
<stop offset="1" stop-color="#7F7EFF"/>
</linearGradient>
<linearGradient id="paint11_linear_380_12872" x1="649.5" y1="175" x2="712.411" y2="152.441" gradientUnits="userSpaceOnUse">
<stop stop-color="#4ABDE8"/>
<stop offset="1" stop-color="#77DAFF"/>
</linearGradient>
</defs>
</svg>
