<svg width="20" height="21" viewBox="0 0 20 21" fill="none" xmlns="http://www.w3.org/2000/svg">
<path d="M10.9375 10.4788C10.9375 10.6642 10.8825 10.8454 10.7795 10.9996C10.6765 11.1538 10.5301 11.2739 10.3588 11.3449C10.1875 11.4159 9.99896 11.4344 9.8171 11.3982C9.63525 11.3621 9.4682 11.2728 9.33709 11.1417C9.20598 11.0106 9.11669 10.8435 9.08051 10.6617C9.04434 10.4798 9.06291 10.2913 9.13386 10.12C9.20482 9.94869 9.32498 9.80227 9.47915 9.69926C9.63332 9.59624 9.81458 9.54126 10 9.54126C10.2486 9.54126 10.4871 9.64003 10.6629 9.81585C10.8387 9.99166 10.9375 10.2301 10.9375 10.4788ZM10 6.10376C10.1854 6.10376 10.3667 6.04878 10.5208 5.94576C10.675 5.84275 10.7952 5.69633 10.8661 5.52503C10.9371 5.35372 10.9557 5.16522 10.9195 4.98336C10.8833 4.80151 10.794 4.63446 10.6629 4.50335C10.5318 4.37224 10.3648 4.28295 10.1829 4.24677C10.001 4.2106 9.81254 4.22917 9.64123 4.30012C9.46993 4.37108 9.32351 4.49124 9.2205 4.64541C9.11748 4.79958 9.0625 4.98084 9.0625 5.16626C9.0625 5.4149 9.16127 5.65336 9.33709 5.82917C9.5129 6.00499 9.75136 6.10376 10 6.10376ZM10 14.8538C9.81458 14.8538 9.63332 14.9087 9.47915 15.0118C9.32498 15.1148 9.20482 15.2612 9.13386 15.4325C9.06291 15.6038 9.04434 15.7923 9.08051 15.9742C9.11669 16.156 9.20598 16.3231 9.33709 16.4542C9.4682 16.5853 9.63525 16.6746 9.8171 16.7107C9.99896 16.7469 10.1875 16.7284 10.3588 16.6574C10.5301 16.5864 10.6765 16.4663 10.7795 16.3121C10.8825 16.1579 10.9375 15.9767 10.9375 15.7913C10.9375 15.5426 10.8387 15.3042 10.6629 15.1283C10.4871 14.9525 10.2486 14.8538 10 14.8538Z" fill="#A6A8A9"/>
</svg>
