<svg width="37" height="33" viewBox="0 0 37 33" fill="none" xmlns="http://www.w3.org/2000/svg">
<path d="M23.7164 32.9576C30.8187 32.9576 36.5763 27.2 36.5763 20.0977C36.5763 12.9954 30.8187 7.23779 23.7164 7.23779C16.614 7.23779 10.8564 12.9954 10.8564 20.0977C10.8564 27.2 16.614 32.9576 23.7164 32.9576Z" fill="#5655D7" fill-opacity="0.16"/>
<path d="M31.3212 1.23126C29.2259 -0.866446 25.2359 -0.260144 20.0706 2.86962C19.1291 2.68066 18.1686 2.57332 17.1979 2.57332C9.13372 2.57332 2.57225 9.13479 2.57225 17.199C2.57225 18.1678 2.68062 19.1278 2.86991 20.0698C-0.260875 25.2381 -0.865462 29.2275 1.23019 31.3224C2.06248 32.1554 3.17924 32.5698 4.55148 32.5698C6.3234 32.5698 8.54216 31.8418 11.1068 30.4675C13.0114 31.3406 15.0903 31.8246 17.1979 31.8246C25.2621 31.8246 31.8236 25.2632 31.8236 17.199C31.8236 15.0932 31.3411 13.0159 30.4697 11.1142C32.9136 6.55612 33.2296 3.13967 31.3212 1.23126ZM3.65471 28.8976C3.30183 28.544 3.20873 27.0533 4.44208 24.3522C4.8416 25.0662 5.30095 25.7486 5.81895 26.3892C6.15811 26.8077 6.65364 27.0255 7.15346 27.0255C7.53189 27.0255 7.91374 26.9007 8.23095 26.6445C8.96688 26.0483 9.08159 24.9691 8.48626 24.2325C6.86043 22.2222 6.00139 19.7902 6.00139 17.1988C6.00139 11.025 11.024 6.00246 17.1977 6.00246C19.8301 6.00246 22.3885 6.93438 24.4005 8.6264C25.1263 9.23424 26.2072 9.14217 26.8168 8.41704C27.4255 7.69191 27.3325 6.61031 26.6074 6.00075C25.9017 5.4073 25.1414 4.89188 24.3448 4.4459C27.0493 3.20963 28.5426 3.30188 28.8963 3.65561C29.3718 4.13194 29.2982 6.32979 27.0711 10.2044C25.3489 13.2085 22.7032 16.5515 19.6156 19.6233C16.5505 22.7044 13.2074 25.3499 10.2009 27.073C6.3306 29.2986 4.12778 29.3715 3.65471 28.8976ZM17.1979 28.3953C16.4138 28.3953 15.6371 28.2945 14.8744 28.1328C17.2679 26.4507 19.7004 24.4007 22.0404 22.0482C24.3981 19.7029 26.45 17.2686 28.1323 14.8751C28.2938 15.6378 28.3943 16.4147 28.3943 17.199C28.3943 23.3728 23.3717 28.3953 17.1979 28.3953Z" fill="#5655D7"/>
</svg>
