<svg width="212" height="90" viewBox="0 0 212 90" fill="none" xmlns="http://www.w3.org/2000/svg">
<rect x="0.5" y="39" width="25" height="51" rx="6" fill="#5655D7"/>
<rect x="0.5" y="39" width="25" height="51" rx="6" fill="white" fill-opacity="0.8"/>
<rect x="31.5" y="61" width="25" height="29" rx="6" fill="#5655D7"/>
<rect x="31.5" y="61" width="25" height="29" rx="6" fill="white" fill-opacity="0.8"/>
<rect x="62.5" y="11" width="25" height="79" rx="6" fill="#5655D7"/>
<rect x="62.5" y="11" width="25" height="79" rx="6" fill="white" fill-opacity="0.8"/>
<rect x="93.5" y="47" width="25" height="43" rx="6" fill="#5655D7"/>
<rect x="124.5" y="68" width="25" height="22" rx="6" fill="#5655D7"/>
<rect x="124.5" y="68" width="25" height="22" rx="6" fill="white" fill-opacity="0.8"/>
<rect x="155.5" width="25" height="90" rx="6" fill="#5655D7"/>
<rect x="155.5" width="25" height="90" rx="6" fill="white" fill-opacity="0.8"/>
<rect x="186.5" y="55" width="25" height="35" rx="6" fill="#5655D7"/>
<rect x="186.5" y="55" width="25" height="35" rx="6" fill="white" fill-opacity="0.8"/>
</svg>
