<svg width="13" height="8" viewBox="0 0 13 8" fill="none" xmlns="http://www.w3.org/2000/svg">
<path d="M12.1877 3.90623V7.15623C12.1877 7.26398 12.1449 7.36731 12.0687 7.4435C11.9926 7.51968 11.8892 7.56248 11.7815 7.56248H8.53148C8.42373 7.56248 8.3204 7.51968 8.24421 7.4435C8.16803 7.36731 8.12523 7.26398 8.12523 7.15623C8.12523 7.04849 8.16803 6.94516 8.24421 6.86897C8.3204 6.79278 8.42373 6.74998 8.53148 6.74998H10.8009L6.90648 2.85557L5.16265 4.5999C5.12492 4.63768 5.08011 4.66764 5.0308 4.68808C4.98148 4.70853 4.92861 4.71905 4.87523 4.71905C4.82184 4.71905 4.76897 4.70853 4.71966 4.68808C4.67034 4.66764 4.62553 4.63768 4.5878 4.5999L0.931554 0.943654C0.855325 0.867425 0.8125 0.764036 0.8125 0.656232C0.8125 0.548428 0.855325 0.445039 0.931554 0.36881C1.00778 0.292581 1.11117 0.249756 1.21898 0.249756C1.32678 0.249756 1.43017 0.292581 1.5064 0.36881L4.87523 3.73815L6.61905 1.99381C6.65678 1.95604 6.70159 1.92607 6.75091 1.90563C6.80022 1.88519 6.85309 1.87466 6.90648 1.87466C6.95986 1.87466 7.01273 1.88519 7.06205 1.90563C7.11136 1.92607 7.15617 1.95604 7.1939 1.99381L11.3752 6.17565V3.90623C11.3752 3.79849 11.418 3.69516 11.4942 3.61897C11.5704 3.54278 11.6737 3.49998 11.7815 3.49998C11.8892 3.49998 11.9926 3.54278 12.0687 3.61897C12.1449 3.69516 12.1877 3.79849 12.1877 3.90623Z" fill="#5655D7"/>
</svg>
