<svg width="385" height="181" viewBox="0 0 385 181" fill="none" xmlns="http://www.w3.org/2000/svg">
<rect y="52.7259" width="25" height="128.274" rx="5" fill="#FFAE41"/>
<rect y="52.7259" width="25" height="128.274" rx="5" fill="white" fill-opacity="0.6"/>
<rect y="79.0065" width="25" height="101.994" rx="5" fill="#00997E"/>
<rect y="79.0065" width="25" height="101.994" rx="5" fill="white" fill-opacity="0.6"/>
<rect y="116.237" width="25" height="64.7628" rx="5" fill="#4ABDE8"/>
<rect y="150.652" width="25" height="30.3478" rx="5" fill="#5655D7"/>
<rect x="45" y="0.95813" width="25" height="180.042" rx="5" fill="#FFAE41"/>
<rect x="45" y="0.95813" width="25" height="180.042" rx="5" fill="white" fill-opacity="0.6"/>
<rect x="45" y="37.8448" width="25" height="143.155" rx="5" fill="#00997E"/>
<rect x="45" y="37.8448" width="25" height="143.155" rx="5" fill="white" fill-opacity="0.6"/>
<rect x="45" y="90.1008" width="25" height="90.8992" rx="5" fill="#4ABDE8"/>
<rect x="45" y="138.405" width="25" height="42.5953" rx="5" fill="#5655D7"/>
<rect x="90" y="14.2437" width="25" height="166.756" rx="5" fill="#FFAE41"/>
<rect x="90" y="14.2437" width="25" height="166.756" rx="5" fill="white" fill-opacity="0.6"/>
<rect x="90" y="48.4084" width="25" height="132.592" rx="5" fill="#00997E"/>
<rect x="90" y="48.4084" width="25" height="132.592" rx="5" fill="white" fill-opacity="0.6"/>
<rect x="90" y="96.8084" width="25" height="84.1916" rx="5" fill="#4ABDE8"/>
<rect x="90" y="141.548" width="25" height="39.4521" rx="5" fill="#5655D7"/>
<rect x="135" y="60.0558" width="25" height="120.944" rx="5" fill="#FFAE41"/>
<rect x="135" y="60.0558" width="25" height="120.944" rx="5" fill="white" fill-opacity="0.6"/>
<rect x="135" y="84.8347" width="25" height="96.1654" rx="5" fill="#00997E"/>
<rect x="135" y="84.8347" width="25" height="96.1654" rx="5" fill="white" fill-opacity="0.6"/>
<rect x="135" y="119.938" width="25" height="61.062" rx="5" fill="#4ABDE8"/>
<rect x="135" y="152.386" width="25" height="28.6136" rx="5" fill="#5655D7"/>
<rect x="180" y="32.5685" width="25" height="148.431" rx="5" fill="#FFAE41"/>
<rect x="180" y="32.5685" width="25" height="148.431" rx="5" fill="white" fill-opacity="0.6"/>
<rect x="180" y="62.9789" width="25" height="118.021" rx="5" fill="#00997E"/>
<rect x="180" y="62.9789" width="25" height="118.021" rx="5" fill="white" fill-opacity="0.6"/>
<rect x="180" y="106.06" width="25" height="74.9398" rx="5" fill="#4ABDE8"/>
<rect x="180" y="145.883" width="25" height="35.1167" rx="5" fill="#5655D7"/>
<rect x="225" y="14.2437" width="25" height="166.756" rx="5" fill="#FFAE41"/>
<rect x="225" y="14.2437" width="25" height="166.756" rx="5" fill="white" fill-opacity="0.6"/>
<rect x="225" y="48.4084" width="25" height="132.592" rx="5" fill="#00997E"/>
<rect x="225" y="48.4084" width="25" height="132.592" rx="5" fill="white" fill-opacity="0.6"/>
<rect x="225" y="96.8084" width="25" height="84.1916" rx="5" fill="#4ABDE8"/>
<rect x="225" y="141.548" width="25" height="39.4521" rx="5" fill="#5655D7"/>
<rect x="270.001" y="38.066" width="25" height="142.934" rx="5" fill="#FFAE41"/>
<rect x="270.001" y="38.066" width="25" height="142.934" rx="5" fill="white" fill-opacity="0.6"/>
<rect x="270.001" y="67.35" width="25" height="113.65" rx="5" fill="#00997E"/>
<rect x="270.001" y="67.35" width="25" height="113.65" rx="5" fill="white" fill-opacity="0.6"/>
<rect x="270.001" y="108.836" width="25" height="72.1642" rx="5" fill="#4ABDE8"/>
<rect x="270.001" y="147.184" width="25" height="33.8161" rx="5" fill="#5655D7"/>
<rect x="315.001" y="0.5" width="25" height="180.5" rx="5" fill="#FFAE41"/>
<rect x="315.001" y="0.5" width="25" height="180.5" rx="5" fill="white" fill-opacity="0.6"/>
<rect x="315.001" y="37.4805" width="25" height="143.52" rx="5" fill="#00997E"/>
<rect x="315.001" y="37.4805" width="25" height="143.52" rx="5" fill="white" fill-opacity="0.6"/>
<rect x="315.001" y="89.8695" width="25" height="91.1305" rx="5" fill="#4ABDE8"/>
<rect x="315.001" y="138.296" width="25" height="42.7037" rx="5" fill="#5655D7"/>
<rect x="360.002" y="67" width="25" height="114" rx="5" fill="#FFAE41"/>
<rect x="360.002" y="67" width="25" height="114" rx="5" fill="white" fill-opacity="0.6"/>
<rect x="360.001" y="90.3561" width="25" height="90.6439" rx="5" fill="#00997E"/>
<rect x="360.001" y="90.3561" width="25" height="90.6439" rx="5" fill="white" fill-opacity="0.6"/>
<rect x="360.001" y="123.444" width="25" height="57.5561" rx="5" fill="#4ABDE8"/>
<rect x="360.001" y="154.029" width="25" height="26.9707" rx="5" fill="#5655D7"/>
</svg>
