<svg width="22" height="23" viewBox="0 0 22 23" fill="none" xmlns="http://www.w3.org/2000/svg">
<rect y="0.5" width="22" height="22" rx="11" fill="#FF414B" fill-opacity="0.16"/>
<path d="M15.125 7.75H13.25V7.375C13.25 7.07663 13.1315 6.79048 12.9205 6.5795C12.7095 6.36853 12.4234 6.25 12.125 6.25H9.875C9.57663 6.25 9.29048 6.36853 9.0795 6.5795C8.86853 6.79048 8.75 7.07663 8.75 7.375V7.75H6.875C6.77554 7.75 6.68016 7.78951 6.60984 7.85984C6.53951 7.93016 6.5 8.02554 6.5 8.125C6.5 8.22446 6.53951 8.31984 6.60984 8.39016C6.68016 8.46049 6.77554 8.5 6.875 8.5H7.25V15.25C7.25 15.4489 7.32902 15.6397 7.46967 15.7803C7.61032 15.921 7.80109 16 8 16H14C14.1989 16 14.3897 15.921 14.5303 15.7803C14.671 15.6397 14.75 15.4489 14.75 15.25V8.5H15.125C15.2245 8.5 15.3198 8.46049 15.3902 8.39016C15.4605 8.31984 15.5 8.22446 15.5 8.125C15.5 8.02554 15.4605 7.93016 15.3902 7.85984C15.3198 7.78951 15.2245 7.75 15.125 7.75ZM9.5 7.375C9.5 7.27554 9.53951 7.18016 9.60984 7.10984C9.68016 7.03951 9.77554 7 9.875 7H12.125C12.2245 7 12.3198 7.03951 12.3902 7.10984C12.4605 7.18016 12.5 7.27554 12.5 7.375V7.75H9.5V7.375ZM14 15.25H8V8.5H14V15.25ZM10.25 10.375V13.375C10.25 13.4745 10.2105 13.5698 10.1402 13.6402C10.0698 13.7105 9.97446 13.75 9.875 13.75C9.77554 13.75 9.68016 13.7105 9.60984 13.6402C9.53951 13.5698 9.5 13.4745 9.5 13.375V10.375C9.5 10.2755 9.53951 10.1802 9.60984 10.1098C9.68016 10.0395 9.77554 10 9.875 10C9.97446 10 10.0698 10.0395 10.1402 10.1098C10.2105 10.1802 10.25 10.2755 10.25 10.375ZM12.5 10.375V13.375C12.5 13.4745 12.4605 13.5698 12.3902 13.6402C12.3198 13.7105 12.2245 13.75 12.125 13.75C12.0255 13.75 11.9302 13.7105 11.8598 13.6402C11.7895 13.5698 11.75 13.4745 11.75 13.375V10.375C11.75 10.2755 11.7895 10.1802 11.8598 10.1098C11.9302 10.0395 12.0255 10 12.125 10C12.2245 10 12.3198 10.0395 12.3902 10.1098C12.4605 10.1802 12.5 10.2755 12.5 10.375Z" fill="#FF414B"/>
</svg>
