<svg width="498" height="165" viewBox="0 0 498 165" fill="none" xmlns="http://www.w3.org/2000/svg">
<rect y="17.5" width="25" height="118" rx="6" fill="#5655D7"/>
<rect x="30" y="68.5" width="25" height="67" rx="6" fill="#5655D7"/>
<rect x="30" y="68.5" width="25" height="67" rx="6" fill="white" fill-opacity="0.8"/>
<path d="M21.47 161.62C21.23 161.62 21.0067 161.583 20.8 161.51C20.6 161.443 20.42 161.353 20.26 161.24C20.1 161.12 19.9633 160.987 19.85 160.84C19.7367 160.687 19.6433 160.53 19.57 160.37L20.21 160C20.35 160.247 20.52 160.45 20.72 160.61C20.9267 160.77 21.18 160.85 21.48 160.85C21.72 160.85 21.9533 160.793 22.18 160.68C22.4133 160.567 22.6033 160.377 22.75 160.11C22.8967 159.843 22.97 159.493 22.97 159.06V154.5H23.81V159.39C23.81 159.757 23.7433 160.08 23.61 160.36C23.4833 160.64 23.3067 160.873 23.08 161.06C22.86 161.247 22.61 161.387 22.33 161.48C22.05 161.573 21.7633 161.62 21.47 161.62ZM28.4265 161.5L28.3765 160.68V158.86C28.3765 158.467 28.3298 158.143 28.2365 157.89C28.1498 157.63 28.0132 157.437 27.8265 157.31C27.6465 157.177 27.4065 157.11 27.1065 157.11C26.8198 157.11 26.5698 157.167 26.3565 157.28C26.1498 157.393 25.9798 157.57 25.8465 157.81L25.1265 157.52C25.2598 157.287 25.4198 157.083 25.6065 156.91C25.7932 156.737 26.0098 156.607 26.2565 156.52C26.5098 156.427 26.7965 156.38 27.1165 156.38C27.5765 156.38 27.9598 156.47 28.2665 156.65C28.5732 156.83 28.8032 157.1 28.9565 157.46C29.1098 157.813 29.1832 158.257 29.1765 158.79L29.1665 161.5H28.4265ZM26.9265 161.62C26.3398 161.62 25.8798 161.487 25.5465 161.22C25.2198 160.947 25.0565 160.57 25.0565 160.09C25.0565 159.583 25.2232 159.197 25.5565 158.93C25.8965 158.657 26.3698 158.52 26.9765 158.52H28.4065V159.19H27.1565C26.6898 159.19 26.3565 159.267 26.1565 159.42C25.9632 159.573 25.8665 159.793 25.8665 160.08C25.8665 160.34 25.9632 160.547 26.1565 160.7C26.3498 160.847 26.6198 160.92 26.9665 160.92C27.2532 160.92 27.5032 160.853 27.7165 160.72C27.9298 160.587 28.0932 160.407 28.2065 160.18C28.3198 159.947 28.3765 159.683 28.3765 159.39H28.8665C28.8665 160.07 28.6998 160.613 28.3665 161.02C28.0332 161.42 27.5532 161.62 26.9265 161.62ZM30.4441 161.5V156.5H31.1941L31.2441 157.42V161.5H30.4441ZM33.9541 161.5V158.94L34.7541 158.64V161.5H33.9541ZM33.9541 158.94C33.9541 158.447 33.8975 158.07 33.7841 157.81C33.6708 157.55 33.5141 157.373 33.3141 157.28C33.1141 157.18 32.8875 157.13 32.6341 157.13C32.1941 157.13 31.8508 157.287 31.6041 157.6C31.3641 157.907 31.2441 158.343 31.2441 158.91H30.8541C30.8541 158.383 30.9308 157.93 31.0841 157.55C31.2375 157.17 31.4575 156.88 31.7441 156.68C32.0375 156.48 32.3908 156.38 32.8041 156.38C33.4108 156.38 33.8875 156.567 34.2341 156.94C34.5875 157.313 34.7608 157.88 34.7541 158.64L33.9541 158.94Z" fill="#465762"/>
<path d="M21.47 161.62C21.23 161.62 21.0067 161.583 20.8 161.51C20.6 161.443 20.42 161.353 20.26 161.24C20.1 161.12 19.9633 160.987 19.85 160.84C19.7367 160.687 19.6433 160.53 19.57 160.37L20.21 160C20.35 160.247 20.52 160.45 20.72 160.61C20.9267 160.77 21.18 160.85 21.48 160.85C21.72 160.85 21.9533 160.793 22.18 160.68C22.4133 160.567 22.6033 160.377 22.75 160.11C22.8967 159.843 22.97 159.493 22.97 159.06V154.5H23.81V159.39C23.81 159.757 23.7433 160.08 23.61 160.36C23.4833 160.64 23.3067 160.873 23.08 161.06C22.86 161.247 22.61 161.387 22.33 161.48C22.05 161.573 21.7633 161.62 21.47 161.62ZM28.4265 161.5L28.3765 160.68V158.86C28.3765 158.467 28.3298 158.143 28.2365 157.89C28.1498 157.63 28.0132 157.437 27.8265 157.31C27.6465 157.177 27.4065 157.11 27.1065 157.11C26.8198 157.11 26.5698 157.167 26.3565 157.28C26.1498 157.393 25.9798 157.57 25.8465 157.81L25.1265 157.52C25.2598 157.287 25.4198 157.083 25.6065 156.91C25.7932 156.737 26.0098 156.607 26.2565 156.52C26.5098 156.427 26.7965 156.38 27.1165 156.38C27.5765 156.38 27.9598 156.47 28.2665 156.65C28.5732 156.83 28.8032 157.1 28.9565 157.46C29.1098 157.813 29.1832 158.257 29.1765 158.79L29.1665 161.5H28.4265ZM26.9265 161.62C26.3398 161.62 25.8798 161.487 25.5465 161.22C25.2198 160.947 25.0565 160.57 25.0565 160.09C25.0565 159.583 25.2232 159.197 25.5565 158.93C25.8965 158.657 26.3698 158.52 26.9765 158.52H28.4065V159.19H27.1565C26.6898 159.19 26.3565 159.267 26.1565 159.42C25.9632 159.573 25.8665 159.793 25.8665 160.08C25.8665 160.34 25.9632 160.547 26.1565 160.7C26.3498 160.847 26.6198 160.92 26.9665 160.92C27.2532 160.92 27.5032 160.853 27.7165 160.72C27.9298 160.587 28.0932 160.407 28.2065 160.18C28.3198 159.947 28.3765 159.683 28.3765 159.39H28.8665C28.8665 160.07 28.6998 160.613 28.3665 161.02C28.0332 161.42 27.5532 161.62 26.9265 161.62ZM30.4441 161.5V156.5H31.1941L31.2441 157.42V161.5H30.4441ZM33.9541 161.5V158.94L34.7541 158.64V161.5H33.9541ZM33.9541 158.94C33.9541 158.447 33.8975 158.07 33.7841 157.81C33.6708 157.55 33.5141 157.373 33.3141 157.28C33.1141 157.18 32.8875 157.13 32.6341 157.13C32.1941 157.13 31.8508 157.287 31.6041 157.6C31.3641 157.907 31.2441 158.343 31.2441 158.91H30.8541C30.8541 158.383 30.9308 157.93 31.0841 157.55C31.2375 157.17 31.4575 156.88 31.7441 156.68C32.0375 156.48 32.3908 156.38 32.8041 156.38C33.4108 156.38 33.8875 156.567 34.2341 156.94C34.5875 157.313 34.7608 157.88 34.7541 158.64L33.9541 158.94Z" fill="white" fill-opacity="0.4"/>
<rect x="73.8335" y="39.5" width="25" height="96" rx="6" fill="#5655D7"/>
<rect x="103.833" y="32.5" width="25" height="103" rx="6" fill="#5655D7"/>
<rect x="103.833" y="32.5" width="25" height="103" rx="6" fill="white" fill-opacity="0.8"/>
<path d="M93.7635 161.5V154.5H94.6135V161.5H93.7635ZM94.5335 158.43V157.66H97.5335V158.43H94.5335ZM94.5335 155.27V154.5H97.9235V155.27H94.5335ZM101.095 161.62C100.608 161.62 100.178 161.51 99.8046 161.29C99.4313 161.063 99.1379 160.753 98.9246 160.36C98.7179 159.967 98.6146 159.513 98.6146 159C98.6146 158.487 98.7179 158.033 98.9246 157.64C99.1379 157.247 99.4279 156.94 99.7946 156.72C100.168 156.493 100.595 156.38 101.075 156.38C101.535 156.38 101.935 156.497 102.275 156.73C102.621 156.957 102.888 157.277 103.075 157.69C103.261 158.103 103.355 158.59 103.355 159.15H102.555C102.555 158.723 102.498 158.36 102.385 158.06C102.271 157.753 102.101 157.517 101.875 157.35C101.655 157.183 101.385 157.1 101.065 157.1C100.738 157.1 100.448 157.18 100.195 157.34C99.9479 157.493 99.7579 157.713 99.6246 158C99.4913 158.287 99.4246 158.623 99.4246 159.01C99.4246 159.39 99.4979 159.72 99.6446 160C99.7913 160.273 99.9946 160.49 100.255 160.65C100.515 160.803 100.808 160.88 101.135 160.88C101.481 160.88 101.775 160.797 102.015 160.63C102.255 160.463 102.445 160.247 102.585 159.98L103.285 160.33C103.158 160.59 102.988 160.817 102.775 161.01C102.568 161.203 102.321 161.353 102.035 161.46C101.755 161.567 101.441 161.62 101.095 161.62ZM99.1446 159.15L99.1546 158.46H102.865V159.15H99.1446ZM104.364 161.5V154.5H105.164V160.57L105.124 161.5H104.364ZM106.854 161.62C106.434 161.62 106.064 161.51 105.744 161.29C105.43 161.07 105.187 160.763 105.014 160.37C104.84 159.97 104.754 159.513 104.754 159C104.754 158.48 104.84 158.023 105.014 157.63C105.187 157.237 105.43 156.93 105.744 156.71C106.064 156.49 106.434 156.38 106.854 156.38C107.3 156.38 107.694 156.49 108.034 156.71C108.374 156.93 108.637 157.237 108.824 157.63C109.017 158.023 109.114 158.48 109.114 159C109.114 159.513 109.017 159.97 108.824 160.37C108.637 160.763 108.374 161.07 108.034 161.29C107.694 161.51 107.3 161.62 106.854 161.62ZM106.674 160.89C106.987 160.89 107.264 160.81 107.504 160.65C107.75 160.49 107.944 160.267 108.084 159.98C108.23 159.693 108.304 159.367 108.304 159C108.304 158.633 108.234 158.307 108.094 158.02C107.96 157.733 107.77 157.51 107.524 157.35C107.277 157.19 106.997 157.11 106.684 157.11C106.39 157.11 106.127 157.19 105.894 157.35C105.667 157.51 105.487 157.733 105.354 158.02C105.227 158.307 105.164 158.633 105.164 159C105.164 159.367 105.227 159.693 105.354 159.98C105.487 160.267 105.667 160.49 105.894 160.65C106.12 160.81 106.38 160.89 106.674 160.89Z" fill="#465762"/>
<path d="M93.7635 161.5V154.5H94.6135V161.5H93.7635ZM94.5335 158.43V157.66H97.5335V158.43H94.5335ZM94.5335 155.27V154.5H97.9235V155.27H94.5335ZM101.095 161.62C100.608 161.62 100.178 161.51 99.8046 161.29C99.4313 161.063 99.1379 160.753 98.9246 160.36C98.7179 159.967 98.6146 159.513 98.6146 159C98.6146 158.487 98.7179 158.033 98.9246 157.64C99.1379 157.247 99.4279 156.94 99.7946 156.72C100.168 156.493 100.595 156.38 101.075 156.38C101.535 156.38 101.935 156.497 102.275 156.73C102.621 156.957 102.888 157.277 103.075 157.69C103.261 158.103 103.355 158.59 103.355 159.15H102.555C102.555 158.723 102.498 158.36 102.385 158.06C102.271 157.753 102.101 157.517 101.875 157.35C101.655 157.183 101.385 157.1 101.065 157.1C100.738 157.1 100.448 157.18 100.195 157.34C99.9479 157.493 99.7579 157.713 99.6246 158C99.4913 158.287 99.4246 158.623 99.4246 159.01C99.4246 159.39 99.4979 159.72 99.6446 160C99.7913 160.273 99.9946 160.49 100.255 160.65C100.515 160.803 100.808 160.88 101.135 160.88C101.481 160.88 101.775 160.797 102.015 160.63C102.255 160.463 102.445 160.247 102.585 159.98L103.285 160.33C103.158 160.59 102.988 160.817 102.775 161.01C102.568 161.203 102.321 161.353 102.035 161.46C101.755 161.567 101.441 161.62 101.095 161.62ZM99.1446 159.15L99.1546 158.46H102.865V159.15H99.1446ZM104.364 161.5V154.5H105.164V160.57L105.124 161.5H104.364ZM106.854 161.62C106.434 161.62 106.064 161.51 105.744 161.29C105.43 161.07 105.187 160.763 105.014 160.37C104.84 159.97 104.754 159.513 104.754 159C104.754 158.48 104.84 158.023 105.014 157.63C105.187 157.237 105.43 156.93 105.744 156.71C106.064 156.49 106.434 156.38 106.854 156.38C107.3 156.38 107.694 156.49 108.034 156.71C108.374 156.93 108.637 157.237 108.824 157.63C109.017 158.023 109.114 158.48 109.114 159C109.114 159.513 109.017 159.97 108.824 160.37C108.637 160.763 108.374 161.07 108.034 161.29C107.694 161.51 107.3 161.62 106.854 161.62ZM106.674 160.89C106.987 160.89 107.264 160.81 107.504 160.65C107.75 160.49 107.944 160.267 108.084 159.98C108.23 159.693 108.304 159.367 108.304 159C108.304 158.633 108.234 158.307 108.094 158.02C107.96 157.733 107.77 157.51 107.524 157.35C107.277 157.19 106.997 157.11 106.684 157.11C106.39 157.11 106.127 157.19 105.894 157.35C105.667 157.51 105.487 157.733 105.354 158.02C105.227 158.307 105.164 158.633 105.164 159C105.164 159.367 105.227 159.693 105.354 159.98C105.487 160.267 105.667 160.49 105.894 160.65C106.12 160.81 106.38 160.89 106.674 160.89Z" fill="white" fill-opacity="0.4"/>
<rect x="147.667" y="24.5" width="25" height="111" rx="6" fill="#5655D7"/>
<rect x="177.667" y="53.5" width="25" height="82" rx="6" fill="#5655D7"/>
<rect x="177.667" y="53.5" width="25" height="82" rx="6" fill="white" fill-opacity="0.8"/>
<path d="M170.897 159.51L167.737 154.84L168.077 154.66L168.477 154.5L171.307 158.69L170.897 159.51ZM167.597 161.5V154.5H168.447V161.5H167.597ZM170.897 159.51L170.487 158.69L173.317 154.5L173.717 154.66L174.047 154.83L170.897 159.51ZM173.347 161.5V154.5H174.187V161.5H173.347ZM178.904 161.5L178.854 160.68V158.86C178.854 158.467 178.807 158.143 178.714 157.89C178.627 157.63 178.49 157.437 178.304 157.31C178.124 157.177 177.884 157.11 177.584 157.11C177.297 157.11 177.047 157.167 176.834 157.28C176.627 157.393 176.457 157.57 176.324 157.81L175.604 157.52C175.737 157.287 175.897 157.083 176.084 156.91C176.27 156.737 176.487 156.607 176.734 156.52C176.987 156.427 177.274 156.38 177.594 156.38C178.054 156.38 178.437 156.47 178.744 156.65C179.05 156.83 179.28 157.1 179.434 157.46C179.587 157.813 179.66 158.257 179.654 158.79L179.644 161.5H178.904ZM177.404 161.62C176.817 161.62 176.357 161.487 176.024 161.22C175.697 160.947 175.534 160.57 175.534 160.09C175.534 159.583 175.7 159.197 176.034 158.93C176.374 158.657 176.847 158.52 177.454 158.52H178.884V159.19H177.634C177.167 159.19 176.834 159.267 176.634 159.42C176.44 159.573 176.344 159.793 176.344 160.08C176.344 160.34 176.44 160.547 176.634 160.7C176.827 160.847 177.097 160.92 177.444 160.92C177.73 160.92 177.98 160.853 178.194 160.72C178.407 160.587 178.57 160.407 178.684 160.18C178.797 159.947 178.854 159.683 178.854 159.39H179.344C179.344 160.07 179.177 160.613 178.844 161.02C178.51 161.42 178.03 161.62 177.404 161.62ZM181.361 158.79C181.361 158.25 181.465 157.813 181.671 157.48C181.878 157.14 182.141 156.89 182.461 156.73C182.788 156.563 183.131 156.48 183.491 156.48V157.23C183.198 157.23 182.915 157.28 182.641 157.38C182.375 157.473 182.155 157.63 181.981 157.85C181.808 158.07 181.721 158.37 181.721 158.75L181.361 158.79ZM180.921 161.5V156.5H181.721V161.5H180.921Z" fill="#465762"/>
<path d="M170.897 159.51L167.737 154.84L168.077 154.66L168.477 154.5L171.307 158.69L170.897 159.51ZM167.597 161.5V154.5H168.447V161.5H167.597ZM170.897 159.51L170.487 158.69L173.317 154.5L173.717 154.66L174.047 154.83L170.897 159.51ZM173.347 161.5V154.5H174.187V161.5H173.347ZM178.904 161.5L178.854 160.68V158.86C178.854 158.467 178.807 158.143 178.714 157.89C178.627 157.63 178.49 157.437 178.304 157.31C178.124 157.177 177.884 157.11 177.584 157.11C177.297 157.11 177.047 157.167 176.834 157.28C176.627 157.393 176.457 157.57 176.324 157.81L175.604 157.52C175.737 157.287 175.897 157.083 176.084 156.91C176.27 156.737 176.487 156.607 176.734 156.52C176.987 156.427 177.274 156.38 177.594 156.38C178.054 156.38 178.437 156.47 178.744 156.65C179.05 156.83 179.28 157.1 179.434 157.46C179.587 157.813 179.66 158.257 179.654 158.79L179.644 161.5H178.904ZM177.404 161.62C176.817 161.62 176.357 161.487 176.024 161.22C175.697 160.947 175.534 160.57 175.534 160.09C175.534 159.583 175.7 159.197 176.034 158.93C176.374 158.657 176.847 158.52 177.454 158.52H178.884V159.19H177.634C177.167 159.19 176.834 159.267 176.634 159.42C176.44 159.573 176.344 159.793 176.344 160.08C176.344 160.34 176.44 160.547 176.634 160.7C176.827 160.847 177.097 160.92 177.444 160.92C177.73 160.92 177.98 160.853 178.194 160.72C178.407 160.587 178.57 160.407 178.684 160.18C178.797 159.947 178.854 159.683 178.854 159.39H179.344C179.344 160.07 179.177 160.613 178.844 161.02C178.51 161.42 178.03 161.62 177.404 161.62ZM181.361 158.79C181.361 158.25 181.465 157.813 181.671 157.48C181.878 157.14 182.141 156.89 182.461 156.73C182.788 156.563 183.131 156.48 183.491 156.48V157.23C183.198 157.23 182.915 157.28 182.641 157.38C182.375 157.473 182.155 157.63 181.981 157.85C181.808 158.07 181.721 158.37 181.721 158.75L181.361 158.79ZM180.921 161.5V156.5H181.721V161.5H180.921Z" fill="white" fill-opacity="0.4"/>
<rect x="221.5" y="10.5" width="25" height="125" rx="6" fill="#5655D7"/>
<rect x="251.5" y="93.5" width="25" height="42" rx="6" fill="#5655D7"/>
<rect x="251.5" y="93.5" width="25" height="42" rx="6" fill="white" fill-opacity="0.8"/>
<path d="M246.28 161.5L243.47 154.5H244.32L247.17 161.5H246.28ZM240.59 161.5L243.44 154.5H244.3L241.49 161.5H240.59ZM241.94 159.51V158.75H245.83V159.51H241.94ZM248.018 163.5V156.5H248.768L248.818 157.42V163.5H248.018ZM250.508 161.62C250.088 161.62 249.718 161.51 249.398 161.29C249.084 161.07 248.841 160.763 248.668 160.37C248.494 159.97 248.408 159.513 248.408 159C248.408 158.48 248.494 158.023 248.668 157.63C248.841 157.237 249.084 156.93 249.398 156.71C249.718 156.49 250.088 156.38 250.508 156.38C250.954 156.38 251.348 156.49 251.688 156.71C252.028 156.93 252.291 157.237 252.478 157.63C252.671 158.023 252.768 158.48 252.768 159C252.768 159.513 252.671 159.97 252.478 160.37C252.291 160.763 252.028 161.07 251.688 161.29C251.348 161.51 250.954 161.62 250.508 161.62ZM250.328 160.89C250.641 160.89 250.918 160.81 251.158 160.65C251.404 160.49 251.598 160.267 251.738 159.98C251.884 159.693 251.958 159.367 251.958 159C251.958 158.633 251.888 158.307 251.748 158.02C251.614 157.733 251.424 157.51 251.178 157.35C250.931 157.19 250.651 157.11 250.338 157.11C250.044 157.11 249.781 157.19 249.548 157.35C249.321 157.51 249.141 157.733 249.008 158.02C248.881 158.307 248.818 158.633 248.818 159C248.818 159.367 248.881 159.693 249.008 159.98C249.141 160.267 249.321 160.49 249.548 160.65C249.774 160.81 250.034 160.89 250.328 160.89ZM254.316 158.79C254.316 158.25 254.419 157.813 254.626 157.48C254.832 157.14 255.096 156.89 255.416 156.73C255.742 156.563 256.086 156.48 256.446 156.48V157.23C256.152 157.23 255.869 157.28 255.596 157.38C255.329 157.473 255.109 157.63 254.936 157.85C254.762 158.07 254.676 158.37 254.676 158.75L254.316 158.79ZM253.876 161.5V156.5H254.676V161.5H253.876Z" fill="#465762"/>
<path d="M246.28 161.5L243.47 154.5H244.32L247.17 161.5H246.28ZM240.59 161.5L243.44 154.5H244.3L241.49 161.5H240.59ZM241.94 159.51V158.75H245.83V159.51H241.94ZM248.018 163.5V156.5H248.768L248.818 157.42V163.5H248.018ZM250.508 161.62C250.088 161.62 249.718 161.51 249.398 161.29C249.084 161.07 248.841 160.763 248.668 160.37C248.494 159.97 248.408 159.513 248.408 159C248.408 158.48 248.494 158.023 248.668 157.63C248.841 157.237 249.084 156.93 249.398 156.71C249.718 156.49 250.088 156.38 250.508 156.38C250.954 156.38 251.348 156.49 251.688 156.71C252.028 156.93 252.291 157.237 252.478 157.63C252.671 158.023 252.768 158.48 252.768 159C252.768 159.513 252.671 159.97 252.478 160.37C252.291 160.763 252.028 161.07 251.688 161.29C251.348 161.51 250.954 161.62 250.508 161.62ZM250.328 160.89C250.641 160.89 250.918 160.81 251.158 160.65C251.404 160.49 251.598 160.267 251.738 159.98C251.884 159.693 251.958 159.367 251.958 159C251.958 158.633 251.888 158.307 251.748 158.02C251.614 157.733 251.424 157.51 251.178 157.35C250.931 157.19 250.651 157.11 250.338 157.11C250.044 157.11 249.781 157.19 249.548 157.35C249.321 157.51 249.141 157.733 249.008 158.02C248.881 158.307 248.818 158.633 248.818 159C248.818 159.367 248.881 159.693 249.008 159.98C249.141 160.267 249.321 160.49 249.548 160.65C249.774 160.81 250.034 160.89 250.328 160.89ZM254.316 158.79C254.316 158.25 254.419 157.813 254.626 157.48C254.832 157.14 255.096 156.89 255.416 156.73C255.742 156.563 256.086 156.48 256.446 156.48V157.23C256.152 157.23 255.869 157.28 255.596 157.38C255.329 157.473 255.109 157.63 254.936 157.85C254.762 158.07 254.676 158.37 254.676 158.75L254.316 158.79ZM253.876 161.5V156.5H254.676V161.5H253.876Z" fill="white" fill-opacity="0.4"/>
<rect x="295.333" y="22.5" width="25" height="113" rx="6" fill="#5655D7"/>
<rect x="325.333" y="75.5" width="25" height="60" rx="6" fill="#5655D7"/>
<rect x="325.333" y="75.5" width="25" height="60" rx="6" fill="white" fill-opacity="0.8"/>
<path d="M317.563 159.51L314.403 154.84L314.743 154.66L315.143 154.5L317.973 158.69L317.563 159.51ZM314.263 161.5V154.5H315.113V161.5H314.263ZM317.563 159.51L317.153 158.69L319.983 154.5L320.383 154.66L320.713 154.83L317.563 159.51ZM320.013 161.5V154.5H320.853V161.5H320.013ZM325.571 161.5L325.521 160.68V158.86C325.521 158.467 325.474 158.143 325.381 157.89C325.294 157.63 325.157 157.437 324.971 157.31C324.791 157.177 324.551 157.11 324.251 157.11C323.964 157.11 323.714 157.167 323.501 157.28C323.294 157.393 323.124 157.57 322.991 157.81L322.271 157.52C322.404 157.287 322.564 157.083 322.751 156.91C322.937 156.737 323.154 156.607 323.401 156.52C323.654 156.427 323.941 156.38 324.261 156.38C324.721 156.38 325.104 156.47 325.411 156.65C325.717 156.83 325.947 157.1 326.101 157.46C326.254 157.813 326.327 158.257 326.321 158.79L326.311 161.5H325.571ZM324.071 161.62C323.484 161.62 323.024 161.487 322.691 161.22C322.364 160.947 322.201 160.57 322.201 160.09C322.201 159.583 322.367 159.197 322.701 158.93C323.041 158.657 323.514 158.52 324.121 158.52H325.551V159.19H324.301C323.834 159.19 323.501 159.267 323.301 159.42C323.107 159.573 323.011 159.793 323.011 160.08C323.011 160.34 323.107 160.547 323.301 160.7C323.494 160.847 323.764 160.92 324.111 160.92C324.397 160.92 324.647 160.853 324.861 160.72C325.074 160.587 325.237 160.407 325.351 160.18C325.464 159.947 325.521 159.683 325.521 159.39H326.011C326.011 160.07 325.844 160.613 325.511 161.02C325.177 161.42 324.697 161.62 324.071 161.62ZM327.96 163.62C327.833 163.62 327.687 163.593 327.52 163.54C327.353 163.493 327.177 163.43 326.99 163.35L327.29 162.68C327.443 162.747 327.577 162.797 327.69 162.83C327.81 162.863 327.903 162.88 327.97 162.88C328.15 162.88 328.297 162.83 328.41 162.73C328.53 162.637 328.63 162.5 328.71 162.32L329.28 160.96L331.13 156.5H331.99L329.59 162.2C329.463 162.493 329.33 162.747 329.19 162.96C329.057 163.173 328.893 163.337 328.7 163.45C328.507 163.563 328.26 163.62 327.96 163.62ZM329.06 161.5L326.9 156.5H327.75L329.61 160.95L329.85 161.5H329.06Z" fill="#465762"/>
<path d="M317.563 159.51L314.403 154.84L314.743 154.66L315.143 154.5L317.973 158.69L317.563 159.51ZM314.263 161.5V154.5H315.113V161.5H314.263ZM317.563 159.51L317.153 158.69L319.983 154.5L320.383 154.66L320.713 154.83L317.563 159.51ZM320.013 161.5V154.5H320.853V161.5H320.013ZM325.571 161.5L325.521 160.68V158.86C325.521 158.467 325.474 158.143 325.381 157.89C325.294 157.63 325.157 157.437 324.971 157.31C324.791 157.177 324.551 157.11 324.251 157.11C323.964 157.11 323.714 157.167 323.501 157.28C323.294 157.393 323.124 157.57 322.991 157.81L322.271 157.52C322.404 157.287 322.564 157.083 322.751 156.91C322.937 156.737 323.154 156.607 323.401 156.52C323.654 156.427 323.941 156.38 324.261 156.38C324.721 156.38 325.104 156.47 325.411 156.65C325.717 156.83 325.947 157.1 326.101 157.46C326.254 157.813 326.327 158.257 326.321 158.79L326.311 161.5H325.571ZM324.071 161.62C323.484 161.62 323.024 161.487 322.691 161.22C322.364 160.947 322.201 160.57 322.201 160.09C322.201 159.583 322.367 159.197 322.701 158.93C323.041 158.657 323.514 158.52 324.121 158.52H325.551V159.19H324.301C323.834 159.19 323.501 159.267 323.301 159.42C323.107 159.573 323.011 159.793 323.011 160.08C323.011 160.34 323.107 160.547 323.301 160.7C323.494 160.847 323.764 160.92 324.111 160.92C324.397 160.92 324.647 160.853 324.861 160.72C325.074 160.587 325.237 160.407 325.351 160.18C325.464 159.947 325.521 159.683 325.521 159.39H326.011C326.011 160.07 325.844 160.613 325.511 161.02C325.177 161.42 324.697 161.62 324.071 161.62ZM327.96 163.62C327.833 163.62 327.687 163.593 327.52 163.54C327.353 163.493 327.177 163.43 326.99 163.35L327.29 162.68C327.443 162.747 327.577 162.797 327.69 162.83C327.81 162.863 327.903 162.88 327.97 162.88C328.15 162.88 328.297 162.83 328.41 162.73C328.53 162.637 328.63 162.5 328.71 162.32L329.28 160.96L331.13 156.5H331.99L329.59 162.2C329.463 162.493 329.33 162.747 329.19 162.96C329.057 163.173 328.893 163.337 328.7 163.45C328.507 163.563 328.26 163.62 327.96 163.62ZM329.06 161.5L326.9 156.5H327.75L329.61 160.95L329.85 161.5H329.06Z" fill="white" fill-opacity="0.4"/>
<rect x="369.167" y="31.5" width="25" height="104" rx="6" fill="#5655D7"/>
<rect x="399.167" y="41.5" width="25" height="94" rx="6" fill="#5655D7"/>
<rect x="399.167" y="41.5" width="25" height="94" rx="6" fill="white" fill-opacity="0.8"/>
<path d="M390.137 161.62C389.897 161.62 389.673 161.583 389.467 161.51C389.267 161.443 389.087 161.353 388.927 161.24C388.767 161.12 388.63 160.987 388.517 160.84C388.403 160.687 388.31 160.53 388.237 160.37L388.877 160C389.017 160.247 389.187 160.45 389.387 160.61C389.593 160.77 389.847 160.85 390.147 160.85C390.387 160.85 390.62 160.793 390.847 160.68C391.08 160.567 391.27 160.377 391.417 160.11C391.563 159.843 391.637 159.493 391.637 159.06V154.5H392.477V159.39C392.477 159.757 392.41 160.08 392.277 160.36C392.15 160.64 391.973 160.873 391.747 161.06C391.527 161.247 391.277 161.387 390.997 161.48C390.717 161.573 390.43 161.62 390.137 161.62ZM397.443 161.5L397.393 160.58V156.5H398.193V161.5H397.443ZM393.883 159.36V156.5H394.683V159.06L393.883 159.36ZM394.683 159.06C394.683 159.553 394.74 159.93 394.853 160.19C394.966 160.45 395.123 160.63 395.323 160.73C395.53 160.823 395.76 160.87 396.013 160.87C396.446 160.87 396.783 160.713 397.023 160.4C397.27 160.087 397.393 159.65 397.393 159.09H397.783C397.783 159.617 397.706 160.07 397.553 160.45C397.4 160.83 397.176 161.12 396.883 161.32C396.596 161.52 396.246 161.62 395.833 161.62C395.226 161.62 394.746 161.433 394.393 161.06C394.046 160.687 393.876 160.12 393.883 159.36L394.683 159.06ZM399.589 161.5V156.5H400.339L400.389 157.42V161.5H399.589ZM403.099 161.5V158.94L403.899 158.64V161.5H403.099ZM403.099 158.94C403.099 158.447 403.042 158.07 402.929 157.81C402.816 157.55 402.659 157.373 402.459 157.28C402.259 157.18 402.032 157.13 401.779 157.13C401.339 157.13 400.996 157.287 400.749 157.6C400.509 157.907 400.389 158.343 400.389 158.91H399.999C399.999 158.383 400.076 157.93 400.229 157.55C400.382 157.17 400.602 156.88 400.889 156.68C401.182 156.48 401.536 156.38 401.949 156.38C402.556 156.38 403.032 156.567 403.379 156.94C403.732 157.313 403.906 157.88 403.899 158.64L403.099 158.94Z" fill="#465762"/>
<path d="M390.137 161.62C389.897 161.62 389.673 161.583 389.467 161.51C389.267 161.443 389.087 161.353 388.927 161.24C388.767 161.12 388.63 160.987 388.517 160.84C388.403 160.687 388.31 160.53 388.237 160.37L388.877 160C389.017 160.247 389.187 160.45 389.387 160.61C389.593 160.77 389.847 160.85 390.147 160.85C390.387 160.85 390.62 160.793 390.847 160.68C391.08 160.567 391.27 160.377 391.417 160.11C391.563 159.843 391.637 159.493 391.637 159.06V154.5H392.477V159.39C392.477 159.757 392.41 160.08 392.277 160.36C392.15 160.64 391.973 160.873 391.747 161.06C391.527 161.247 391.277 161.387 390.997 161.48C390.717 161.573 390.43 161.62 390.137 161.62ZM397.443 161.5L397.393 160.58V156.5H398.193V161.5H397.443ZM393.883 159.36V156.5H394.683V159.06L393.883 159.36ZM394.683 159.06C394.683 159.553 394.74 159.93 394.853 160.19C394.966 160.45 395.123 160.63 395.323 160.73C395.53 160.823 395.76 160.87 396.013 160.87C396.446 160.87 396.783 160.713 397.023 160.4C397.27 160.087 397.393 159.65 397.393 159.09H397.783C397.783 159.617 397.706 160.07 397.553 160.45C397.4 160.83 397.176 161.12 396.883 161.32C396.596 161.52 396.246 161.62 395.833 161.62C395.226 161.62 394.746 161.433 394.393 161.06C394.046 160.687 393.876 160.12 393.883 159.36L394.683 159.06ZM399.589 161.5V156.5H400.339L400.389 157.42V161.5H399.589ZM403.099 161.5V158.94L403.899 158.64V161.5H403.099ZM403.099 158.94C403.099 158.447 403.042 158.07 402.929 157.81C402.816 157.55 402.659 157.373 402.459 157.28C402.259 157.18 402.032 157.13 401.779 157.13C401.339 157.13 400.996 157.287 400.749 157.6C400.509 157.907 400.389 158.343 400.389 158.91H399.999C399.999 158.383 400.076 157.93 400.229 157.55C400.382 157.17 400.602 156.88 400.889 156.68C401.182 156.48 401.536 156.38 401.949 156.38C402.556 156.38 403.032 156.567 403.379 156.94C403.732 157.313 403.906 157.88 403.899 158.64L403.099 158.94Z" fill="white" fill-opacity="0.4"/>
<rect x="443" y="16.5" width="25" height="119" rx="6" fill="#5655D7"/>
<rect x="473" y="85.5" width="25" height="50" rx="6" fill="#5655D7"/>
<rect x="473" y="85.5" width="25" height="50" rx="6" fill="white" fill-opacity="0.8"/>
<path d="M465.97 161.62C465.73 161.62 465.507 161.583 465.3 161.51C465.1 161.443 464.92 161.353 464.76 161.24C464.6 161.12 464.463 160.987 464.35 160.84C464.237 160.687 464.143 160.53 464.07 160.37L464.71 160C464.85 160.247 465.02 160.45 465.22 160.61C465.427 160.77 465.68 160.85 465.98 160.85C466.22 160.85 466.453 160.793 466.68 160.68C466.913 160.567 467.103 160.377 467.25 160.11C467.397 159.843 467.47 159.493 467.47 159.06V154.5H468.31V159.39C468.31 159.757 468.243 160.08 468.11 160.36C467.983 160.64 467.807 160.873 467.58 161.06C467.36 161.247 467.11 161.387 466.83 161.48C466.55 161.573 466.263 161.62 465.97 161.62ZM473.276 161.5L473.226 160.58V156.5H474.026V161.5H473.276ZM469.716 159.36V156.5H470.516V159.06L469.716 159.36ZM470.516 159.06C470.516 159.553 470.573 159.93 470.686 160.19C470.8 160.45 470.956 160.63 471.156 160.73C471.363 160.823 471.593 160.87 471.846 160.87C472.28 160.87 472.616 160.713 472.856 160.4C473.103 160.087 473.226 159.65 473.226 159.09H473.616C473.616 159.617 473.54 160.07 473.386 160.45C473.233 160.83 473.01 161.12 472.716 161.32C472.43 161.52 472.08 161.62 471.666 161.62C471.06 161.62 470.58 161.433 470.226 161.06C469.88 160.687 469.71 160.12 469.716 159.36L470.516 159.06ZM475.423 161.5V154.5H476.223V161.5H475.423Z" fill="#465762"/>
<path d="M465.97 161.62C465.73 161.62 465.507 161.583 465.3 161.51C465.1 161.443 464.92 161.353 464.76 161.24C464.6 161.12 464.463 160.987 464.35 160.84C464.237 160.687 464.143 160.53 464.07 160.37L464.71 160C464.85 160.247 465.02 160.45 465.22 160.61C465.427 160.77 465.68 160.85 465.98 160.85C466.22 160.85 466.453 160.793 466.68 160.68C466.913 160.567 467.103 160.377 467.25 160.11C467.397 159.843 467.47 159.493 467.47 159.06V154.5H468.31V159.39C468.31 159.757 468.243 160.08 468.11 160.36C467.983 160.64 467.807 160.873 467.58 161.06C467.36 161.247 467.11 161.387 466.83 161.48C466.55 161.573 466.263 161.62 465.97 161.62ZM473.276 161.5L473.226 160.58V156.5H474.026V161.5H473.276ZM469.716 159.36V156.5H470.516V159.06L469.716 159.36ZM470.516 159.06C470.516 159.553 470.573 159.93 470.686 160.19C470.8 160.45 470.956 160.63 471.156 160.73C471.363 160.823 471.593 160.87 471.846 160.87C472.28 160.87 472.616 160.713 472.856 160.4C473.103 160.087 473.226 159.65 473.226 159.09H473.616C473.616 159.617 473.54 160.07 473.386 160.45C473.233 160.83 473.01 161.12 472.716 161.32C472.43 161.52 472.08 161.62 471.666 161.62C471.06 161.62 470.58 161.433 470.226 161.06C469.88 160.687 469.71 160.12 469.716 159.36L470.516 159.06ZM475.423 161.5V154.5H476.223V161.5H475.423Z" fill="white" fill-opacity="0.4"/>
</svg>
