<svg width="22" height="23" viewBox="0 0 22 23" fill="none" xmlns="http://www.w3.org/2000/svg">
<rect y="0.5" width="22" height="22" rx="11" fill="#5655D7" fill-opacity="0.16"/>
<path d="M15.6552 8.93922L13.5608 6.84438C13.4911 6.77471 13.4085 6.71945 13.3174 6.68175C13.2264 6.64405 13.1289 6.62465 13.0304 6.62465C12.9319 6.62465 12.8343 6.64405 12.7433 6.68175C12.6523 6.71945 12.5696 6.77471 12.5 6.84438L6.71985 12.625C6.6499 12.6944 6.59444 12.777 6.5567 12.868C6.51896 12.959 6.49969 13.0566 6.5 13.1552V15.25C6.5 15.4489 6.57902 15.6397 6.71967 15.7803C6.86033 15.921 7.05109 16 7.25 16H9.34485C9.44338 16.0003 9.54098 15.981 9.632 15.9433C9.72301 15.9056 9.80561 15.8501 9.875 15.7802L15.6552 10C15.7248 9.93035 15.7801 9.84767 15.8178 9.75666C15.8555 9.66566 15.8749 9.56812 15.8749 9.46961C15.8749 9.3711 15.8555 9.27356 15.8178 9.18256C15.7801 9.09155 15.7248 9.00887 15.6552 8.93922ZM9.34485 15.25H7.25V13.1552L11.375 9.03016L13.4698 11.125L9.34485 15.25ZM14 10.5944L11.9052 8.5L13.0302 7.375L15.125 9.46938L14 10.5944Z" fill="#5655D7"/>
</svg>
