<svg width="759" height="166" viewBox="0 0 759 166" fill="none" xmlns="http://www.w3.org/2000/svg">
<rect x="0.906738" y="8.65405" width="0.865403" height="147.984" fill="#F4F4F4"/>
<rect x="76.6294" y="8.65405" width="0.865403" height="147.984" fill="#F4F4F4"/>
<rect x="152.352" y="8.65405" width="0.865403" height="147.984" fill="#F4F4F4"/>
<rect x="228.075" y="8.65405" width="0.865403" height="147.984" fill="#F4F4F4"/>
<rect x="303.798" y="8.65405" width="0.865403" height="147.984" fill="#F4F4F4"/>
<rect x="379.521" y="8.65405" width="0.865403" height="147.984" fill="#F4F4F4"/>
<rect x="455.243" y="8.65405" width="0.865403" height="147.984" fill="#F4F4F4"/>
<rect x="530.966" y="8.65405" width="0.865403" height="147.984" fill="#F4F4F4"/>
<rect x="606.689" y="8.65405" width="0.865403" height="147.984" fill="#F4F4F4"/>
<rect x="682.412" y="8.65405" width="0.865403" height="147.984" fill="#F4F4F4"/>
<rect x="758.134" y="8.65405" width="0.865403" height="147.984" fill="#F4F4F4"/>
<rect x="0.906738" y="14.9282" width="756.362" height="0.865403" fill="#F4F4F4"/>
<rect x="0.906738" y="62.0927" width="756.362" height="0.865403" fill="#F4F4F4"/>
<rect x="0.906738" y="109.257" width="756.362" height="0.865403" fill="#F4F4F4"/>
<rect x="0.906738" y="156.422" width="756.362" height="0.865403" fill="#F4F4F4"/>
</svg>
