<svg width="750" height="104" viewBox="0 0 750 104" fill="none" xmlns="http://www.w3.org/2000/svg">
<path d="M3.02246 79.88L86.0606 55.9241C93.4118 53.8033 101.3 54.6294 108.052 58.227L119.932 64.5565C128.512 69.1279 138.796 69.1661 147.409 64.6588L185.815 44.5617C197.645 38.3715 212.16 40.9223 221.17 50.7748L258.683 91.7933C268.796 102.852 285.606 104.543 297.719 95.7198L352.191 56.0441C361.721 49.1029 374.474 48.5203 384.597 54.5636L427.608 80.2411C437.522 86.1594 449.981 85.7327 459.467 79.1498L492.747 56.0537L537.901 22.1679C548.65 14.1016 563.498 14.343 573.979 22.7545L596.416 40.7622C605.27 47.8676 617.64 48.623 627.292 42.6476V42.6476C639.611 35.0212 655.761 38.5687 663.75 50.6559L665.127 52.7385C676.764 70.3447 702.618 70.2952 714.188 52.6447L747.269 2.17444" stroke="#4ABDE8" stroke-width="4.10839" stroke-linecap="round"/>
</svg>
