<svg width="750" height="138" viewBox="0 0 750 138" fill="none" xmlns="http://www.w3.org/2000/svg">
<path d="M3.02246 114.202L81.8489 81.5345C91.5498 77.5142 102.658 78.9687 110.997 85.3511L115.921 89.1196C126.399 97.1396 140.936 97.2027 151.484 89.274L180.463 67.4903C194.172 57.1855 213.753 60.7415 222.963 75.2085L252.537 121.661C263.866 139.457 289.692 139.899 301.623 122.5L347.073 56.2246C357.13 41.5596 377.797 39.0979 391.017 50.9901L439.469 94.575C451.344 105.257 469.572 104.514 480.539 92.9019L492.747 79.9752L533.861 35.6537C545.769 22.816 566.186 23.1566 577.66 36.3845L596.825 58.4797C604.728 67.5917 618.554 68.4877 627.568 60.472V60.472C638.434 50.8091 655.547 54.3913 661.625 67.6011L664.817 74.539C674.584 95.7676 704.769 95.72 714.469 74.4607L747.269 2.57727" stroke="#5655D7" stroke-width="4.10839" stroke-linecap="round"/>
</svg>
